<svg width="24" height="24" viewBox="0 0 24 24" fill="none" xmlns="http://www.w3.org/2000/svg">
<g clip-path="url(#clip0_3147_9532)">
<path fill-rule="evenodd" clip-rule="evenodd" d="M21.75 11.25V6.75C21.75 5.7555 21.3548 4.8015 20.6516 4.09838C19.9485 3.39525 18.9945 3 18 3C14.6707 3 9.32925 3 6 3C5.0055 3 4.05149 3.39525 3.34837 4.09838C2.64524 4.8015 2.25 5.7555 2.25 6.75C2.25 10.0793 2.25 15.4207 2.25 18.75C2.25 19.7445 2.64524 20.6985 3.34837 21.4016C4.05149 22.1048 5.0055 22.5 6 22.5C9.32925 22.5 14.6707 22.5 18 22.5C18.9945 22.5 19.9485 22.1048 20.6516 21.4016C21.3548 20.6985 21.75 19.7445 21.75 18.75C21.75 18.51 21.75 14.5095 21.75 14.25C21.75 13.836 21.414 13.5 21 13.5C20.586 13.5 20.25 13.836 20.25 14.25V18.75C20.25 19.3466 20.013 19.9189 19.5911 20.3411C19.1689 20.763 18.5966 21 18 21C14.6707 21 9.32925 21 6 21C5.40337 21 4.83112 20.763 4.40887 20.3411C3.987 19.9189 3.75 19.3466 3.75 18.75C3.75 15.4207 3.75 10.0793 3.75 6.75C3.75 6.15337 3.987 5.58113 4.40887 5.15888C4.83112 4.737 5.40337 4.5 6 4.5C9.32925 4.5 14.6707 4.5 18 4.5C18.5966 4.5 19.1689 4.737 19.5911 5.15888C20.013 5.58113 20.25 6.15337 20.25 6.75C20.25 9.19613 20.25 8.22787 20.25 11.25C20.25 11.664 20.586 12 21 12C21.414 12 21.75 11.664 21.75 11.25Z" fill="#192E52"/>
<path fill-rule="evenodd" clip-rule="evenodd" d="M21.75 6.74996C21.75 5.75535 21.3548 4.80161 20.6516 4.09836C19.9485 3.39512 18.9945 3 18 3C14.6707 3 9.32925 3 6 3C5.0055 3 4.05149 3.39512 3.34837 4.09836C2.64524 4.80161 2.25 5.75535 2.25 6.74996C2.25 8.24995 2.25 9.74993 2.25 9.74993C2.25 10.1642 2.58562 10.4999 3 10.4999H21C21.4144 10.4999 21.75 10.1642 21.75 9.74993V6.74996ZM20.25 8.99994V6.74996C20.25 6.15322 20.013 5.58097 19.5911 5.15898C19.1689 4.73698 18.5966 4.49999 18 4.49999C14.6707 4.49999 9.32925 4.49999 6 4.49999C5.40337 4.49999 4.83112 4.73698 4.40887 5.15898C3.987 5.58097 3.75 6.15322 3.75 6.74996V8.99994H20.25Z" fill="#192E52"/>
<path fill-rule="evenodd" clip-rule="evenodd" d="M7.5006 7.5H16.5006C16.9146 7.5 17.2507 7.164 17.2507 6.75C17.2507 6.336 16.9146 6 16.5006 6H7.5006C7.0866 6 6.75049 6.336 6.75049 6.75C6.75049 7.164 7.0866 7.5 7.5006 7.5Z" fill="#192E52"/>
<path fill-rule="evenodd" clip-rule="evenodd" d="M11.25 12.75V18.75C11.25 19.164 11.586 19.5 12 19.5C12.414 19.5 12.75 19.164 12.75 18.75V12.75C12.75 12.336 12.414 12 12 12C11.586 12 11.25 12.336 11.25 12.75Z" fill="#192E52"/>
<path fill-rule="evenodd" clip-rule="evenodd" d="M15 15H9C8.586 15 8.25 15.336 8.25 15.75C8.25 16.164 8.586 16.5 9 16.5H15C15.414 16.5 15.75 16.164 15.75 15.75C15.75 15.336 15.414 15 15 15Z" fill="#192E52"/>
<path fill-rule="evenodd" clip-rule="evenodd" d="M8.25 4.49981V2.24981C8.25 1.83581 7.914 1.5 7.5 1.5C7.086 1.5 6.75 1.83581 6.75 2.24981V4.49981C6.75 4.91381 7.086 5.24962 7.5 5.24962C7.914 5.24962 8.25 4.91381 8.25 4.49981Z" fill="#192E52"/>
<path fill-rule="evenodd" clip-rule="evenodd" d="M17.25 4.49981V2.24981C17.25 1.83581 16.914 1.5 16.5 1.5C16.086 1.5 15.75 1.83581 15.75 2.24981V4.49981C15.75 4.91381 16.086 5.24962 16.5 5.24962C16.914 5.24962 17.25 4.91381 17.25 4.49981Z" fill="#192E52"/>
</g>
<defs>
<clipPath id="clip0_3147_9532">
<rect width="24" height="24" fill="white"/>
</clipPath>
</defs>
</svg>
