<svg width="81" height="82" viewBox="0 0 81 82" fill="none" xmlns="http://www.w3.org/2000/svg">
<path fill-rule="evenodd" clip-rule="evenodd" d="M8.59167 4.16669C7.11665 4.31419 4.16663 5.33195 4.16663 8.22298V73.1974C4.16663 74.5986 5.00738 77.4011 8.37042 77.4011H54.3909C55.7675 77.352 58.5209 76.2801 58.5209 72.3861V8.22298C58.2751 6.87088 57.1344 4.16669 54.5384 4.16669H8.59167ZM19.433 16.4093H32.5606H42.517C43.697 16.4093 43.8937 15.5243 43.8445 15.0818V11.763C43.8445 10.76 42.9595 10.5092 42.517 10.5092H19.728C18.371 10.5092 18.1301 11.3451 18.1793 11.763V15.0818C18.1793 16.0848 19.0151 16.3847 19.433 16.4093Z" fill="white"/>
<path d="M32.5606 16.4093H19.433C19.0151 16.3847 18.1793 16.0848 18.1793 15.0818V11.763C18.1301 11.3451 18.371 10.5092 19.728 10.5092H42.517C42.9595 10.5092 43.8445 10.76 43.8445 11.763V15.0818C43.8937 15.5243 43.697 16.4093 42.517 16.4093H32.5606Z" fill="#409BF1"/>
<path d="M60.6041 72.3864C60.6041 74.8792 59.6966 76.7073 58.3522 77.8962C57.0802 79.0209 55.5652 79.4438 54.4655 79.4831C54.4408 79.484 54.4159 79.4841 54.3912 79.4841H8.37073C6.01021 79.4841 4.33383 78.4539 3.31702 77.0417C2.37673 75.7357 2.08362 74.231 2.08362 73.197V8.22333C2.08362 5.93698 3.29942 4.37579 4.64514 3.44989C5.92178 2.57156 7.38619 2.19327 8.3844 2.09344L8.59143 2.08368H54.5387C56.6695 2.0838 58.1607 3.22837 59.0709 4.42938C59.9492 5.5884 60.4028 6.92568 60.5709 7.85028C60.5933 7.97324 60.6041 8.09836 60.6041 8.22333V72.3864Z" stroke="url(#paint0_linear_3123_12195)" stroke-width="4.16667" stroke-linecap="round" stroke-linejoin="round"/>
<path d="M13.6803 46.5732H28.3567M13.6803 39.3456H41.7793M13.6803 32.1181H49.8919M13.6803 24.8905H49.8919" stroke="#EFEFED" stroke-width="2.5" stroke-linecap="round" stroke-linejoin="round"/>
<g clip-path="url(#clip0_3123_12195)">
<path d="M47.354 64.5729H32.6457C32.2847 64.5729 31.9921 64.2802 31.9921 63.9192C31.9921 63.5581 32.2847 63.2655 32.6457 63.2655H47.354C47.715 63.2655 48.0077 63.5581 48.0077 63.9192C48.0077 64.2802 47.715 64.5729 47.354 64.5729Z" stroke="black" stroke-width="0.651042" stroke-miterlimit="10" stroke-linecap="round" stroke-linejoin="round"/>
<path d="M32.6786 61.0367L33.603 61.9612" stroke="black" stroke-width="0.651042" stroke-miterlimit="10" stroke-linecap="round" stroke-linejoin="round"/>
<path d="M32.6786 61.9612L33.603 61.0367" stroke="black" stroke-width="0.651042" stroke-miterlimit="10" stroke-linecap="round" stroke-linejoin="round"/>
<path d="M35.3834 61.0338C35.441 58.4035 36.4351 55.8033 38.1468 53.8054C38.7082 53.1502 39.3376 53.398 39.3293 54.4801C39.297 58.7166 37.0311 62.5308 35.9419 66.5465C35.3719 68.6479 37.5541 68.6988 38.7854 67.1059C38.7879 67.1027 42.8269 61.1363 41.6641 57.803C40.9582 55.7795 38.7985 61.5114 42.1387 61.6373C43.7785 61.6991 45.4212 61.6828 47.0594 61.5886" stroke="black" stroke-width="0.651042" stroke-miterlimit="10" stroke-linecap="round" stroke-linejoin="round"/>
</g>
<path d="M71.7949 19.7477L74.1436 21.0979L66.838 34.6038" stroke="#409BF1" stroke-width="1.28236" stroke-linecap="round" stroke-linejoin="round"/>
<path d="M48.0582 49.6034L53.9197 52.7056L63.9814 34.1488L58.0644 30.8931L48.0582 49.6034Z" fill="#409BF1"/>
<path d="M66.9547 16.2373C66.124 15.9197 65.7223 16.4281 65.6196 16.7659L58.0644 30.8931L63.9814 34.1488L71.6109 20.0778C71.6948 19.9587 71.7546 19.8487 71.7951 19.7478C71.9956 19.2471 71.7188 18.967 71.5204 18.8812C71.4103 18.8172 71.2836 18.7436 71.1439 18.6623C70.0896 18.0486 68.2966 17.0012 67.334 16.4249C67.1987 16.3439 67.0724 16.2823 66.9547 16.2373Z" fill="#409BF1"/>
<path d="M66.9547 16.2373C67.0724 16.2823 67.1987 16.3439 67.334 16.4249C68.2966 17.0012 70.0896 18.0486 71.1439 18.6623L72.4123 16.2645C72.5206 16.0599 72.6021 15.8379 72.5899 15.6067C72.5585 15.0087 72.2578 14.1017 71.2071 13.5543C69.9204 12.884 69.1082 13.3986 68.863 13.7397L66.9547 16.2373Z" fill="#409BF1"/>
<path d="M48.8466 56.8053L53.9197 52.7056L48.0582 49.6034C47.736 51.3076 47.2445 54.9746 47.3277 56.0744C47.3955 56.9719 48.1727 57.1408 48.8466 56.8053Z" fill="#EDBC20"/>
<defs>
<linearGradient id="paint0_linear_3123_12195" x1="31.3438" y1="4.16669" x2="31.3438" y2="77.4011" gradientUnits="userSpaceOnUse">
<stop stop-color="#64B9F6"/>
<stop offset="1" stop-color="#409BF1"/>
</linearGradient>
<clipPath id="clip0_3123_12195">
<rect width="16.6667" height="16.6667" fill="white" transform="translate(31.6666 52.5001)"/>
</clipPath>
</defs>
</svg>
