<svg width="80" height="80" viewBox="0 0 80 80" fill="none" xmlns="http://www.w3.org/2000/svg">
<path d="M33.8559 61.613C34.5122 62.1218 34.6938 63.0361 34.2818 63.7571L31.6668 68.3334L30.0002 70.8334C27.5062 74.444 24.2532 77.367 20.0894 78.752C17.3784 79.6699 14.5052 79.9941 11.664 79.7066C11.1431 79.6539 10.6739 79.3438 10.4561 78.8677C10.4386 78.8294 10.4215 78.7908 10.4049 78.752C8.819 75.5215 8.12307 71.9265 8.38874 68.3375C8.6306 65.0701 9.66152 61.9151 11.3868 59.1411C11.7023 58.6338 12.2835 58.3642 12.8788 58.4141L31.2834 59.9588C31.6044 59.9857 31.9106 60.105 32.1652 60.3024L33.8559 61.613Z" fill="#2B7EE5"/>
<path d="M32.3717 60.361C33.4325 61.0939 33.6977 62.5483 32.9639 63.6085L30.1084 67.7342L28.6809 69.8055C26.187 73.4161 22.5865 76.1177 18.4226 77.5027C15.7517 78.407 12.9233 78.7351 10.1232 78.4696C9.52266 78.4127 8.97573 78.0572 8.73811 77.5027C7.15226 74.2722 6.45632 70.6772 6.72199 67.0882C6.98766 63.4992 8.20533 60.0459 10.2496 57.0841L14.5354 50.8744C15.2677 49.8134 16.7216 49.5473 17.7822 50.2801L32.3717 60.361Z" fill="url(#paint0_linear_3123_12072)"/>
<path d="M51.2386 22.3628L46.6322 19.1818L25.9555 49.123L30.5618 52.3041L51.2386 22.3628Z" fill="url(#paint1_linear_3123_12072)"/>
<path d="M64.5927 12.8764L61.1379 10.4907L57.1617 16.2486C56.8484 16.7023 56.4488 17.0899 55.9857 17.3891C55.5226 17.6884 55.0051 17.8935 54.4628 17.9928C53.9204 18.092 53.3638 18.0835 52.8247 17.9676C52.2857 17.8518 51.7747 17.6309 51.321 17.3176C50.4048 16.6848 49.7774 15.714 49.577 14.6187C49.3765 13.5234 49.6194 12.3933 50.2521 11.477L54.2284 5.7191L50.7736 3.33337L47.1728 8.54762C46.1041 10.0951 45.4875 11.9097 45.392 13.7879C45.2965 15.6662 45.7259 17.5339 46.6322 19.1818L51.2385 22.3626C53.1005 22.6264 54.9993 22.3664 56.7219 21.6118C58.4446 20.8573 59.923 19.6379 60.9917 18.0904L64.5927 12.8764Z" fill="#409BF1"/>
<path d="M61.1379 10.4907L54.2284 5.7191L51.8435 9.17337L58.7531 13.9449L61.1379 10.4907Z" fill="#409BF1"/>
<path d="M22.1167 60C22.1167 60 21.033 54.7395 22.2293 52.9662L28.727 43.3334L35.0001 47.7682L28.5012 57.401C27.3059 59.1743 22.1167 60 22.1167 60Z" fill="url(#paint2_linear_3123_12072)"/>
<path d="M77.0832 78.6705V79.8041H0C0 79.8041 10.8143 56.0443 30.3118 69.6699C31.9672 67.2039 34.2046 65.1837 36.8262 63.7879C39.4479 62.3921 42.373 61.6636 45.3431 61.6669H47.6102C50.5412 61.6514 53.4313 62.3542 56.0279 63.7137C58.6245 65.0733 60.8485 67.0482 62.5054 69.4659C63.8676 68.8007 65.3651 68.4593 66.881 68.4683C68.2213 68.4665 69.5488 68.7292 70.7874 69.2413C72.026 69.7534 73.1514 70.5048 74.0991 71.4525C75.0468 72.4002 75.7982 73.5256 76.3103 74.7642C76.8223 76.0028 77.085 77.3303 77.0832 78.6705Z" fill="#844E2B"/>
<defs>
<linearGradient id="paint0_linear_3123_12072" x1="13.3334" y1="54.1667" x2="21.6667" y2="66.6667" gradientUnits="userSpaceOnUse">
<stop stop-color="#64B9F6"/>
<stop offset="1" stop-color="#409BF1"/>
</linearGradient>
<linearGradient id="paint1_linear_3123_12072" x1="43.3336" y1="26.6667" x2="46.6915" y2="29.2025" gradientUnits="userSpaceOnUse">
<stop stop-color="#F3D351"/>
<stop offset="0.723408" stop-color="#DDA415"/>
</linearGradient>
<linearGradient id="paint2_linear_3123_12072" x1="25.156" y1="50.3646" x2="29.8018" y2="54.9027" gradientUnits="userSpaceOnUse">
<stop stop-color="#409BF1"/>
<stop offset="1" stop-color="#2B7EE5"/>
</linearGradient>
</defs>
</svg>
