<svg width="80" height="80" viewBox="0 0 80 80" fill="none" xmlns="http://www.w3.org/2000/svg">
<g clip-path="url(#clip0_3123_12024)">
<path d="M62.1538 8.00012H17.8462C10.1991 8.00012 4 14.1993 4 21.8463V66.154C4 73.801 10.1991 80.0001 17.8462 80.0001H62.1538C69.8009 80.0001 76 73.801 76 66.154V21.8463C76 14.1993 69.8009 8.00012 62.1538 8.00012Z" fill="#C1E3FC"/>
<g clip-path="url(#clip1_3123_12024)">
<rect x="8.74414" y="25.7117" width="62.5116" height="48.2233" rx="9.6" fill="white"/>
<path d="M38.8656 36.2507C39.0516 35.794 39.6983 35.794 39.8843 36.2507L44.0307 46.4316C44.1096 46.6253 44.2916 46.7575 44.5002 46.7727L55.4641 47.5701C55.956 47.6058 56.1558 48.2209 55.7789 48.539L47.3776 55.6285C47.2177 55.7634 47.1482 55.9773 47.1983 56.1804L49.828 66.8541C49.9459 67.3329 49.4227 67.713 49.0038 67.4529L39.6651 61.6535C39.4874 61.5432 39.2625 61.5432 39.0848 61.6535L29.7461 67.4529C29.3272 67.713 28.804 67.3329 28.922 66.8541L31.5517 56.1804C31.6017 55.9773 31.5322 55.7634 31.3723 55.6285L22.971 48.539C22.5941 48.2209 22.794 47.6058 23.2858 47.5701L34.2497 46.7727C34.4584 46.7575 34.6403 46.6253 34.7192 46.4316L38.8656 36.2507Z" fill="url(#paint0_linear_3123_12024)"/>
</g>
<path d="M62.3256 7.44177H17.6744C13.9737 7.44177 10.4246 8.91187 7.80783 11.5287C5.19104 14.1454 3.72095 17.6946 3.72095 21.3953V32.5581H76.2791V21.3953C76.2791 17.6946 74.809 14.1454 72.1922 11.5287C69.5754 8.91187 66.0263 7.44177 62.3256 7.44177Z" fill="#64B9F6"/>
<path d="M55.4948 17.6C54.7243 17.6 53.9853 17.3471 53.4405 16.8971C52.8957 16.447 52.5896 15.8365 52.5896 15.2V2.4C52.5896 1.76348 52.8957 1.15303 53.4405 0.702944C53.9853 0.252856 54.7243 0 55.4948 0C56.2654 0 57.0043 0.252856 57.5492 0.702944C58.094 1.15303 58.4001 1.76348 58.4001 2.4V15.2C58.4001 15.8365 58.094 16.447 57.5492 16.8971C57.0043 17.3471 56.2654 17.6 55.4948 17.6ZM24.5054 17.6C23.7348 17.6 22.9959 17.3471 22.451 16.8971C21.9062 16.447 21.6001 15.8365 21.6001 15.2V2.4C21.6001 1.76348 21.9062 1.15303 22.451 0.702944C22.9959 0.252856 23.7348 0 24.5054 0C25.2759 0 26.0148 0.252856 26.5597 0.702944C27.1045 1.15303 27.4106 1.76348 27.4106 2.4V15.2C27.4106 15.8365 27.1045 16.447 26.5597 16.8971C26.0148 17.3471 25.2759 17.6 24.5054 17.6Z" fill="#2254AB"/>
</g>
<defs>
<linearGradient id="paint0_linear_3123_12024" x1="31.1218" y1="43.0952" x2="56.7562" y2="50.1682" gradientUnits="userSpaceOnUse">
<stop stop-color="#FBC72D"/>
<stop offset="0.723408" stop-color="#E7AA20"/>
</linearGradient>
<clipPath id="clip0_3123_12024">
<rect width="80" height="80" rx="19" fill="white"/>
</clipPath>
<clipPath id="clip1_3123_12024">
<rect x="8.74414" y="25.7117" width="62.5116" height="48.2233" rx="9.6" fill="white"/>
</clipPath>
</defs>
</svg>
