<svg width="80" height="80" viewBox="0 0 80 80" fill="none" xmlns="http://www.w3.org/2000/svg">
<g clip-path="url(#clip0_3123_12218)">
<path d="M58.9515 69.6773H20.242L17.9194 74.3354C17.738 74.6981 17.6446 75.0986 17.6469 75.5042C17.6492 75.9098 17.747 76.3092 17.9326 76.6699C18.1181 77.0306 18.386 77.3426 18.7146 77.5804C19.0432 77.8181 19.4233 77.9751 19.8239 78.0386C35.3 80.654 43.9064 80.654 59.3825 78.0386C59.7831 77.9751 60.1631 77.8181 60.4918 77.5804C60.8204 77.3426 61.0883 77.0306 61.2738 76.6699C61.4593 76.3092 61.5572 75.9098 61.5595 75.5042C61.5618 75.0986 61.4684 74.6981 61.287 74.3354L58.9515 69.6773Z" fill="#2B7EE5"/>
<path d="M58.9516 69.6773H20.2421L18.6215 72.9173C20.4583 74.3191 22.5819 75.298 24.8408 75.7844C34.5575 77.9637 44.6363 77.9637 54.3529 75.7844C56.6116 75.2982 58.7352 74.3197 60.5723 72.9186L58.9516 69.6773Z" fill="#409BF1"/>
<path d="M66.6933 56.7741V58.0386C66.6854 61.5965 65.4558 65.0438 63.2104 67.8036C60.9649 70.5634 57.8398 72.4684 54.3579 73.1999C44.6379 75.3805 34.5554 75.3805 24.8354 73.1999C21.3535 72.4684 18.2284 70.5634 15.983 67.8036C13.7375 65.0438 12.508 61.5965 12.5 58.0386V56.7612C12.4995 55.5497 12.7828 54.3549 13.3273 53.2726C13.8718 52.1903 14.6623 51.2507 15.6355 50.529L15.9193 50.3225C16.407 49.9616 16.7519 49.4404 16.8934 48.8505C17.035 48.2606 16.9642 47.6397 16.6935 47.0967L15.6097 44.929C17.958 47.2774 27.8032 49.0322 39.5967 49.0322C51.3902 49.0322 61.2353 47.2774 63.5837 44.929L62.4998 47.1097C62.2258 47.6486 62.1519 48.2674 62.2913 48.8557C62.4307 49.444 62.7743 49.9638 63.2611 50.3225L63.5966 50.5806C64.5581 51.3017 65.3385 52.2368 65.876 53.3118C66.4135 54.3869 66.6933 55.5722 66.6933 56.7741Z" fill="url(#paint0_linear_3123_12218)"/>
<path d="M39.5968 49.0323C53.1367 49.0323 64.1129 46.7215 64.1129 43.871C64.1129 41.0205 53.1367 38.7097 39.5968 38.7097C26.057 38.7097 15.0808 41.0205 15.0808 43.871C15.0808 46.7215 26.057 49.0323 39.5968 49.0323Z" fill="#409BF1"/>
<path d="M39.5967 49.0323C48.6689 49.0323 56.5721 47.9923 60.8108 46.4516C58.3695 44.2258 49.8108 42.5807 39.5967 42.5807C29.3825 42.5807 20.8238 44.2258 18.3826 46.4516C22.6213 47.9923 30.5245 49.0323 39.5967 49.0323Z" fill="#FBF4C6"/>
<path d="M31.8547 46.4515C31.5524 46.4511 31.2598 46.3446 31.028 46.1505C30.7962 45.9565 30.6399 45.6871 30.5863 45.3896L28.5218 33.9535C28.4611 33.6166 28.5367 33.2693 28.7319 32.9882C28.9272 32.707 29.2262 32.5149 29.5631 32.4541C29.9 32.3934 30.2473 32.469 30.5284 32.6643C30.8096 32.8595 31.0017 33.1585 31.0625 33.4954L33.127 44.9328C33.1875 45.2695 33.1118 45.6165 32.9165 45.8974C32.7212 46.1783 32.4224 46.3702 32.0857 46.4309C32.0095 46.4448 31.9322 46.4517 31.8547 46.4515Z" fill="#D6E4E8"/>
<path d="M47.3387 46.4515C47.2616 46.4516 47.1848 46.4447 47.109 46.4309C46.7723 46.3702 46.4734 46.1783 46.2782 45.8974C46.0829 45.6165 46.0072 45.2695 46.0677 44.9328L48.1322 33.4954C48.193 33.1585 48.385 32.8595 48.6662 32.6643C48.9474 32.469 49.2947 32.3934 49.6316 32.4541C49.9685 32.5149 50.2674 32.707 50.4627 32.9882C50.658 33.2693 50.7336 33.6166 50.6728 33.9535L48.6083 45.3896C48.5548 45.6873 48.3983 45.9568 48.1662 46.151C47.9341 46.3451 47.6412 46.4514 47.3387 46.4515Z" fill="#D6E4E8"/>
<path d="M39.5968 45.1613C39.2546 45.1613 38.9264 45.0254 38.6844 44.7834C38.4425 44.5414 38.3065 44.2132 38.3065 43.871V32.2582C38.3065 31.9159 38.4425 31.5877 38.6844 31.3458C38.9264 31.1038 39.2546 30.9678 39.5968 30.9678C39.939 30.9678 40.2672 31.1038 40.5092 31.3458C40.7512 31.5877 40.8872 31.9159 40.8872 32.2582V43.871C40.8872 44.2132 40.7512 44.5414 40.5092 44.7834C40.2672 45.0254 39.939 45.1613 39.5968 45.1613Z" fill="#D6E4E8"/>
<path d="M29.2106 16.7689C28.9626 15.365 27.6235 14.428 26.2197 14.676C24.8158 14.924 23.8788 16.2631 24.1268 17.6669L26.8209 32.9185C27.0689 34.3223 28.408 35.2594 29.8119 35.0114C31.2158 34.7634 32.1528 33.4243 31.9048 32.0204L29.2106 16.7689Z" fill="#F96464"/>
<path d="M29.3839 32.9215L26.6936 17.6777C26.6037 17.1581 26.6751 16.6235 26.8981 16.1457C27.1212 15.668 27.4853 15.27 27.9413 15.0054C27.4187 14.6973 26.8037 14.5848 26.2059 14.688C25.5319 14.8069 24.9328 15.1887 24.5403 15.7494C24.1478 16.3101 23.9941 17.0037 24.113 17.6777L26.8007 32.9253C26.9203 33.5988 27.3023 34.1973 27.8629 34.5893C28.4235 34.9812 29.1168 35.1346 29.7904 35.0156C30.0889 34.9608 30.3751 34.8529 30.6355 34.6969C30.3099 34.5104 30.0291 34.2547 29.8128 33.948C29.5966 33.6413 29.4502 33.2909 29.3839 32.9215Z" fill="#DB4040"/>
<path d="M47.3021 32.0027C47.0541 33.4066 47.9911 34.7457 49.395 34.9937C50.7988 35.2417 52.1379 34.3046 52.3859 32.9008L55.0801 17.6492C55.3281 16.2453 54.3911 14.9062 52.9872 14.6583C51.5833 14.4103 50.2442 15.3473 49.9963 16.7512L47.3021 32.0027Z" fill="#F96464"/>
<path d="M49.8872 32.0259L52.5762 16.7744C52.6427 16.4047 52.7895 16.0542 53.0062 15.7474C53.2229 15.4407 53.5042 15.1852 53.8304 14.9989C53.5696 14.8439 53.2835 14.7364 52.9852 14.6815C52.3112 14.5626 51.6176 14.7163 51.057 15.1088C50.4963 15.5013 50.1145 16.1004 49.9955 16.7744L47.3065 32.0259C47.2187 32.5098 47.2717 33.0087 47.4592 33.4633C47.6467 33.918 47.9608 34.3092 48.3641 34.5905C48.7675 34.8718 49.2431 35.0314 49.7346 35.0503C50.226 35.0691 50.7125 34.9465 51.1362 34.6969C50.6801 34.4325 50.316 34.0348 50.0927 33.5573C49.8694 33.0798 49.7976 32.5454 49.8872 32.0259Z" fill="#DB4040"/>
<path d="M37.0161 30.9678C37.0161 32.393 38.1715 33.5484 39.5967 33.5484C41.022 33.5484 42.1774 32.393 42.1774 30.9678V15.484C42.1774 14.0587 41.022 12.9033 39.5967 12.9033C38.1715 12.9033 37.0161 14.0587 37.0161 15.484V30.9678Z" fill="#F96464"/>
<path d="M39.5969 30.9679V15.484C39.5982 15.0329 39.7181 14.59 39.9445 14.1998C40.171 13.8095 40.4961 13.4857 40.8872 13.2608C40.4966 13.0298 40.0516 12.9065 39.5978 12.9036C39.1439 12.9007 38.6974 13.0183 38.3038 13.2443C37.9103 13.4704 37.5837 13.7968 37.3575 14.1903C37.1313 14.5837 37.0136 15.0302 37.0163 15.484V30.9679C37.0136 31.4217 37.1313 31.8682 37.3575 32.2616C37.5837 32.6551 37.9103 32.9815 38.3038 33.2076C38.6974 33.4336 39.1439 33.5512 39.5978 33.5483C40.0516 33.5454 40.4966 33.4221 40.8872 33.1911C40.4961 32.9662 40.171 32.6424 39.9445 32.2521C39.7181 31.8619 39.5982 31.419 39.5969 30.9679Z" fill="#DB4040"/>
<path d="M52.5 12.9033C52.8422 12.9033 53.1704 12.7673 53.4124 12.5254C53.6544 12.2834 53.7904 11.9552 53.7904 11.613C53.7904 10.9285 54.0622 10.2721 54.5462 9.78819C55.0302 9.30422 55.6866 9.03234 56.371 9.03234C57.7398 9.03234 59.0526 8.48856 60.0206 7.52064C60.9885 6.55271 61.5323 5.23992 61.5323 3.87107C61.5323 3.52885 61.3963 3.20066 61.1543 2.95867C60.9123 2.71669 60.5842 2.58075 60.2419 2.58075C59.8997 2.58075 59.5715 2.71669 59.3295 2.95867C59.0876 3.20066 58.9516 3.52885 58.9516 3.87107C58.9516 4.55549 58.6797 5.21189 58.1958 5.69585C57.7118 6.17981 57.0554 6.4517 56.371 6.4517C55.0021 6.4517 53.6893 6.99548 52.7214 7.9634C51.7535 8.93133 51.2097 10.2441 51.2097 11.613C51.2097 11.9552 51.3457 12.2834 51.5876 12.5254C51.8296 12.7673 52.1578 12.9033 52.5 12.9033Z" fill="#D6E4E8"/>
<path d="M39.5517 10.3227C39.7211 10.3227 39.8889 10.2893 40.0455 10.2245C40.202 10.1597 40.3442 10.0646 40.4641 9.9448C40.5839 9.82498 40.6789 9.68274 40.7438 9.52619C40.8086 9.36964 40.842 9.20185 40.842 9.0324C40.842 8.34798 41.1139 7.69158 41.5978 7.20762C42.0818 6.72366 42.7382 6.45177 43.4226 6.45177C44.7915 6.45177 46.1043 5.90799 47.0722 4.94007C48.0401 3.97214 48.5839 2.65935 48.5839 1.2905C48.5839 0.948287 48.4479 0.62009 48.206 0.378108C47.964 0.136127 47.6358 0.000183105 47.2936 0.000183105C46.9514 0.000183105 46.6232 0.136127 46.3812 0.378108C46.1392 0.62009 46.0033 0.948287 46.0033 1.2905C46.0033 1.97493 45.7314 2.63132 45.2474 3.11528C44.7634 3.59925 44.107 3.87113 43.4226 3.87113C42.0538 3.87113 40.741 4.41491 39.7731 5.38284C38.8051 6.35076 38.2614 7.66355 38.2614 9.0324C38.2614 9.37462 38.3973 9.70282 38.6393 9.9448C38.8813 10.1868 39.2095 10.3227 39.5517 10.3227Z" fill="#D6E4E8"/>
<path d="M26.6935 12.9033C27.0357 12.9033 27.3639 12.7673 27.6059 12.5254C27.8479 12.2834 27.9838 11.9552 27.9838 11.613C27.9838 10.9285 28.2557 10.2721 28.7397 9.78819C29.2236 9.30422 29.88 9.03234 30.5645 9.03234C31.9333 9.03234 33.2461 8.48856 34.214 7.52064C35.182 6.55271 35.7257 5.23992 35.7257 3.87107C35.7257 3.52885 35.5898 3.20066 35.3478 2.95867C35.1058 2.71669 34.7776 2.58075 34.4354 2.58075C34.0932 2.58075 33.765 2.71669 33.523 2.95867C33.281 3.20066 33.1451 3.52885 33.1451 3.87107C33.1451 4.55549 32.8732 5.21189 32.3893 5.69585C31.9053 6.17981 31.2489 6.4517 30.5645 6.4517C29.1956 6.4517 27.8828 6.99548 26.9149 7.9634C25.947 8.93133 25.4032 10.2441 25.4032 11.613C25.4032 11.9552 25.5391 12.2834 25.7811 12.5254C26.0231 12.7673 26.3513 12.9033 26.6935 12.9033Z" fill="#D6E4E8"/>
</g>
<defs>
<linearGradient id="paint0_linear_3123_12218" x1="39.5967" y1="44.929" x2="39.5967" y2="74.8354" gradientUnits="userSpaceOnUse">
<stop stop-color="#64B9F6"/>
<stop offset="1" stop-color="#409BF1"/>
</linearGradient>
<clipPath id="clip0_3123_12218">
<rect width="80" height="80" fill="white"/>
</clipPath>
</defs>
</svg>
