<svg width="80" height="81" viewBox="0 0 80 81" fill="none" xmlns="http://www.w3.org/2000/svg">
<path d="M58.4899 9.49211C59.4589 5.33103 56.8712 1.17228 52.7101 0.203282C48.549 -0.76572 44.3903 1.82197 43.4213 5.98304C42.4523 10.1441 45.04 14.3029 49.201 15.2719C53.3621 16.2409 57.5209 13.6532 58.4899 9.49211Z" fill="#409BF1"/>
<path fill-rule="evenodd" clip-rule="evenodd" d="M46.4431 33.5745C47.2468 35.0821 48.742 37.2596 51.3199 39.1765C51.2958 40.4413 51.3446 41.6921 51.497 42.9036C54.9782 48.1555 60.6036 58.9648 61.8623 75.3108C62.0435 77.6778 60.2731 79.7442 57.9054 79.9265C55.5384 80.1081 53.4716 78.3367 53.2897 75.97C52.8378 70.0949 51.7601 65.0593 50.4484 60.8597C50.086 62.3831 49.6042 63.942 48.9749 65.5132C47.1213 70.1582 43.9461 74.8867 38.9858 78.9598C38.1855 79.6184 37.2185 79.9392 36.2573 79.9392C35.0169 79.9392 33.7858 79.4045 32.9353 78.3718C31.426 76.5385 31.6894 73.8299 33.523 72.3213C37.3667 69.1485 39.6199 65.7271 40.9941 62.3157C42.3614 58.9074 42.814 55.4798 42.8133 52.4673C42.8147 50.4999 42.619 48.7213 42.3773 47.2776C40.935 46.4385 39.7499 44.9192 39.2214 42.1997C38.6594 37.3752 38.655 33.7959 39.3159 30.0664C37.3533 32.7302 35.6445 36.2324 34.8388 40.8592C34.6073 42.1979 33.4439 43.143 32.1296 43.143L30.0562 42.2007C29.5304 41.5975 29.2694 40.7722 29.4163 39.9224C30.8995 31.2673 35.2504 25.5401 39.2031 22.1111C41.1843 20.3865 43.0613 19.2111 44.4699 18.4572C46.2966 17.1363 48.4143 16.7887 50.098 17.2086C53.0331 17.9404 54.3241 22.0368 53.3375 25.4593C53.2269 26.0239 53.1064 26.6177 52.9811 27.2354C52.7946 28.1542 52.5975 29.1259 52.4062 30.1328C51.0802 27.6172 50.9849 24.9163 50.9894 24.1325C50.9894 23.865 50.9983 23.6593 51.0059 23.5297C51.0087 23.4857 51.0107 23.453 51.0145 23.4131C51.2287 21.5289 49.8704 19.8215 47.9869 19.6079C47.8545 19.5928 47.7234 19.5856 47.5931 19.5856C45.8461 19.5856 44.3791 20.8965 44.18 22.6383C44.16 22.8261 44.1119 23.3488 44.1112 24.1356C44.1242 27.513 44.931 30.7779 46.4431 33.5745Z" fill="url(#paint0_linear_3123_12092)"/>
<path d="M50.3202 23.487C50.3247 23.4175 50.3277 23.369 50.3312 23.3429V23.336C50.5031 21.826 49.4192 20.4631 47.9091 20.2912C46.3991 20.1189 45.0363 21.2029 44.8643 22.7129C44.855 22.7989 44.7997 23.312 44.7993 24.1328C44.8065 26.0232 45.0696 29.588 47.0508 33.2512C49.0055 36.9188 52.8928 40.5365 59.2422 41.9812C59.4526 42.0304 59.6634 42.0542 59.8701 42.0542C61.1198 42.0542 62.2505 41.1968 62.5466 39.9275C62.8919 38.4481 61.9727 36.969 60.4932 36.6241C55.5302 35.4277 53.2594 33.072 51.8832 30.6207C50.5337 28.1643 50.2947 25.4651 50.3016 24.1332C50.302 23.8457 50.3112 23.6252 50.3202 23.487Z" fill="url(#paint1_linear_3123_12092)"/>
<defs>
<linearGradient id="paint0_linear_3123_12092" x1="45.6254" y1="17.0403" x2="45.6254" y2="79.9393" gradientUnits="userSpaceOnUse">
<stop stop-color="#64B9F6"/>
<stop offset="1" stop-color="#2B7EE5"/>
</linearGradient>
<linearGradient id="paint1_linear_3123_12092" x1="53.7093" y1="20.2732" x2="53.7093" y2="42.0542" gradientUnits="userSpaceOnUse">
<stop stop-color="#64B9F6"/>
<stop offset="1" stop-color="#2B7EE5"/>
</linearGradient>
</defs>
</svg>
