<svg width="80" height="80" viewBox="0 0 80 80" fill="none" xmlns="http://www.w3.org/2000/svg">
<path d="M65.5 10.125V11.75V16.5L65.25 74.125V75.25V76.75C65.25 78.1307 64.1307 79.25 62.75 79.25H7.50858C6.12452 79.25 5.00385 78.1255 5.00859 76.7414L5.24147 8.74144C5.24618 7.36408 6.36408 6.25 7.74145 6.25H11.25H12.375L56.75 6.5H60.375H62C62.1633 6.5 62.2733 6.5 62.3996 6.5C62.5495 6.5 62.6999 6.51082 62.845 6.54874C64.0694 6.86865 65.1543 7.96754 65.4598 9.29701C65.4906 9.43122 65.5 9.56921 65.5 9.70692C65.5 9.84119 65.5 9.95378 65.5 10.125Z" fill="#409BF1"/>
<path d="M72.6252 17.7501L72.5002 71.6251C72.5002 73.6251 70.8752 75.2501 68.7502 75.2501L15.8752 75.1251C13.8752 75.1251 12.2502 73.5001 12.2502 71.3751L12.3752 5.25012C12.3752 3.25012 14.0002 1.62512 16.1252 1.62512L56.8752 1.75012L72.6252 17.7501Z" fill="url(#paint0_linear_3123_12166)"/>
<path d="M57.7351 1.12415L73.1238 16.879L72.9998 70.4991V70.5001C72.9998 72.1412 71.6685 73.4991 69.8748 73.4991L17.0017 73.3751H16.9998C15.359 73.3751 14.0002 72.0444 13.9998 70.2511L14.1248 4.0011V4.00012C14.1248 2.35938 15.4555 1.00062 17.2488 1.00012L57.7351 1.12415Z" fill="white" stroke="url(#paint1_linear_3123_12166)" stroke-width="1.25"/>
<path d="M61.25 16.4999L73.625 16.6249L58 0.749878V13.1249C58 14.9999 59.5 16.4999 61.25 16.4999Z" fill="#409BF1"/>
<path d="M22.1003 23.7499L22.0995 23.9999C22.0971 24.6902 22.6549 25.2518 23.3452 25.2542L63.9702 25.3931C64.6606 25.3955 65.2221 24.8377 65.2245 24.1474L65.2253 23.8974C65.2277 23.207 64.67 22.6455 63.9796 22.6431L23.3546 22.5042C22.6643 22.5018 22.1027 23.0595 22.1003 23.7499Z" fill="#DADEDE"/>
<path d="M22.104 31.2499L22.1032 31.4999C22.1008 32.1902 22.6585 32.7518 23.3489 32.7542L63.9739 32.8931C64.6642 32.8955 65.2258 32.3377 65.2282 31.6474L65.229 31.3974C65.2314 30.707 64.6736 30.1455 63.9833 30.1431L23.3583 30.0042C22.6679 30.0018 22.1064 30.5595 22.104 31.2499Z" fill="#DADEDE"/>
<path d="M21.9834 39.9999L21.9825 40.2499C21.9802 40.9402 22.5379 41.5018 23.2283 41.5042L63.8533 41.6431C64.5436 41.6455 65.1052 41.0877 65.1075 40.3974L65.1084 40.1474C65.1108 39.457 64.553 38.8955 63.8627 38.8931L23.2377 38.7542C22.5473 38.7518 21.9858 39.3095 21.9834 39.9999Z" fill="#DADEDE"/>
<path d="M21.9871 47.4999L21.9862 47.7499C21.9838 48.4402 22.5416 49.0018 23.2319 49.0042L63.8569 49.1431C64.5473 49.1455 65.1088 48.5877 65.1112 47.8974L65.1121 47.6474C65.1144 46.957 64.5567 46.3955 63.8663 46.3931L23.2413 46.2542C22.551 46.2518 21.9894 46.8095 21.9871 47.4999Z" fill="#DADEDE"/>
<path d="M21.9893 56.2499L21.9884 56.4999C21.986 57.1902 22.5438 57.7518 23.2341 57.7542L63.8589 57.8931C64.5492 57.8955 65.1108 57.3378 65.1132 56.6474L65.114 56.3974C65.1164 55.7071 64.5586 55.1455 63.8683 55.1431L23.2435 55.0042C22.5532 55.0018 21.9916 55.5595 21.9893 56.2499Z" fill="#DADEDE"/>
<path d="M21.9932 63.7499L21.9923 63.9999C21.99 64.6902 22.5477 65.2518 23.238 65.2542L63.8628 65.3931C64.5531 65.3955 65.1147 64.8378 65.1171 64.1474L65.1179 63.8974C65.1203 63.2071 64.5626 62.6455 63.8722 62.6431L23.2474 62.5042C22.5571 62.5018 21.9955 63.0595 21.9932 63.7499Z" fill="#DADEDE"/>
<defs>
<linearGradient id="paint0_linear_3123_12166" x1="42.4377" y1="1.62512" x2="42.4377" y2="75.2501" gradientUnits="userSpaceOnUse">
<stop stop-color="#64B9F6"/>
<stop offset="1" stop-color="#409BF1"/>
</linearGradient>
<linearGradient id="paint1_linear_3123_12166" x1="43.5623" y1="0.375122" x2="43.5623" y2="74.1251" gradientUnits="userSpaceOnUse">
<stop stop-color="#64B9F6"/>
<stop offset="1" stop-color="#409BF1"/>
</linearGradient>
</defs>
</svg>
