<svg width="80" height="81" viewBox="0 0 80 81" fill="none" xmlns="http://www.w3.org/2000/svg">
<path d="M48.8231 9.49217C49.7921 5.33109 47.2044 1.17234 43.0434 0.203343C38.8823 -0.765659 34.7235 1.82203 33.7545 5.98311C32.7855 10.1442 35.3732 14.3029 39.5343 15.2719C43.6954 16.2409 47.8541 13.6532 48.8231 9.49217Z" fill="#409BF1"/>
<path fill-rule="evenodd" clip-rule="evenodd" d="M36.4434 33.9077C37.247 35.4153 38.7423 37.5929 41.3201 39.5097C41.296 40.7746 41.3449 42.0253 41.4972 43.2369C44.9785 48.4888 50.6039 59.2981 51.8625 75.644C52.0438 78.011 50.2734 80.0775 47.9057 80.2598C45.5387 80.4413 43.4719 78.6699 43.2899 76.3033C42.8381 70.4282 41.7603 65.3925 40.4487 61.1929C40.0862 62.7164 39.6044 64.2752 38.9751 65.8465C37.1215 70.4915 33.9464 75.22 28.986 79.2931C28.1858 79.9516 27.2188 80.2725 26.2576 80.2725C25.0172 80.2725 23.786 79.7377 22.9356 78.705C21.4262 76.8717 21.6896 74.1632 23.5233 72.6545C27.367 69.4818 29.6202 66.0604 30.9944 62.649C32.3617 59.2406 32.8143 55.813 32.8136 52.8005C32.8149 50.8331 32.6193 49.0545 32.3775 47.6108C30.9352 46.7717 29.7502 45.2524 29.2216 42.5329C28.6597 37.7084 28.6552 34.1292 29.3162 30.3997C27.3536 33.0635 25.6448 36.5657 24.839 41.1924C24.6076 42.5312 23.4442 43.4762 22.1298 43.4762L20.0565 42.5339C19.5307 41.9307 19.2697 41.1054 19.4165 40.2556C20.8997 31.6005 25.2507 25.8733 29.2034 22.4444C31.1845 20.7197 33.0615 19.5443 34.4701 18.7905C36.2969 17.4696 38.4146 17.1219 40.0983 17.5418C43.0334 18.2736 44.3244 22.3701 43.3377 25.7925C43.2271 26.3571 43.1067 26.9509 42.9813 27.5686C42.7949 28.4875 42.5977 29.4592 42.4065 30.466C41.0804 27.9504 40.9852 25.2495 40.9896 24.4658C40.9896 24.1982 40.9986 23.9926 41.0061 23.8629C41.0089 23.8189 41.011 23.7862 41.0147 23.7463C41.229 21.8622 39.8706 20.1547 37.9871 19.9412C37.8547 19.926 37.7237 19.9188 37.5933 19.9188C35.8464 19.9188 34.3793 21.2297 34.1802 22.9716C34.1603 23.1593 34.1121 23.682 34.1114 24.4689C34.1245 27.8462 34.9313 31.1112 36.4434 33.9077Z" fill="url(#paint0_linear_3123_12386)"/>
<path d="M22.7166 58.6261C23.3857 58.9016 24.1519 58.5826 24.4271 57.9136L28.4163 48.2199C28.692 47.5508 28.3727 46.7846 27.7034 46.5094L24.6504 45.2527L25.7316 42.6258L24.5972 42.159C24.3087 42.4355 24.01 42.7087 23.6973 42.977L24.2971 43.2236L23.6335 44.8343L21.6545 44.0196C20.7894 44.089 19.9486 43.7463 19.3697 43.0795L18.0408 42.5326L18.7037 40.9218L18.7184 40.9277C18.7654 40.5631 18.8853 40.2087 19.0746 39.8862L18.1047 39.4869L17.0241 42.1139L13.9708 40.8572C13.3015 40.5818 12.5361 40.9007 12.2606 41.57L8.2709 51.2635C7.99519 51.9329 8.31449 52.6988 8.98374 52.974L22.7166 58.6261Z" fill="url(#paint1_linear_3123_12386)"/>
<path d="M40.3201 23.8202C40.3245 23.7508 40.3276 23.7023 40.3311 23.6762V23.6693C40.503 22.1592 39.4191 20.7964 37.909 20.6244C36.399 20.4522 35.0361 21.5361 34.8642 23.0461C34.8549 23.1321 34.7995 23.6452 34.7992 24.4661C34.8064 26.3565 35.0695 29.9213 37.0507 33.5844C39.0054 37.252 42.8927 40.8698 49.242 42.3145C49.4525 42.3637 49.6633 42.3874 49.87 42.3874C51.1197 42.3874 52.2504 41.5301 52.5465 40.2608C52.8918 38.7813 51.9725 37.3022 50.4931 36.9573C45.53 35.7609 43.2593 33.4052 41.8831 30.954C40.5336 28.4975 40.2946 25.7983 40.3015 24.4664C40.3018 24.1789 40.3111 23.9585 40.3201 23.8202Z" fill="url(#paint2_linear_3123_12386)"/>
<defs>
<linearGradient id="paint0_linear_3123_12386" x1="35.6256" y1="17.3735" x2="35.6256" y2="80.2726" gradientUnits="userSpaceOnUse">
<stop stop-color="#64B9F6"/>
<stop offset="1" stop-color="#2B7EE5"/>
</linearGradient>
<linearGradient id="paint1_linear_3123_12386" x1="16.0838" y1="39.9535" x2="20.5667" y2="59.3709" gradientUnits="userSpaceOnUse">
<stop stop-color="#868686"/>
<stop offset="1" stop-color="#686868"/>
</linearGradient>
<linearGradient id="paint2_linear_3123_12386" x1="43.7092" y1="20.6064" x2="43.7092" y2="42.3874" gradientUnits="userSpaceOnUse">
<stop stop-color="#64B9F6"/>
<stop offset="1" stop-color="#2B7EE5"/>
</linearGradient>
</defs>
</svg>
