<svg width="80" height="80" viewBox="0 0 80 80" fill="none" xmlns="http://www.w3.org/2000/svg">
<path d="M51.7272 7.24501L27.7017 52.3617C30.5149 54.876 31.2082 59.3973 29.1904 63.3509L32.4798 65.1026C32.9849 65.3715 33.6051 65.1937 33.9014 64.7033L57.389 20.5966C60.042 15.6147 58.1597 9.44406 53.1778 6.79109C52.6591 6.51489 52.0107 6.71268 51.7272 7.24501Z" fill="#DCEEFD"/>
<path d="M53.1778 6.79109C53.6812 7.05913 54.1439 7.37151 54.5825 7.70654L29.4978 54.812C29.0583 53.8843 28.4659 53.0448 27.7017 52.3617L51.7272 7.24501C52.0107 6.71268 52.6591 6.51489 53.1778 6.79109Z" fill="#C1E3FC"/>
<path d="M44.8255 16.6507C38.6999 17.0336 12.3895 13.8325 0 12.1841L6.06181 19.3626L0 24.3078C12.4427 25.7701 38.6361 28.8063 43.8684 29.2529C49.1007 29.6996 70.1363 26.1954 80 24.3875L73.0608 19.3626L80 12.1841C70.8275 13.5135 50.9511 16.2679 44.8255 16.6507Z" fill="#F63737"/>
<path d="M44.6876 44.4481L33.9014 64.7032C33.6051 65.1936 32.9849 65.3715 32.4798 65.1026L29.1904 63.3509C31.2082 59.3973 30.5149 54.8759 27.7017 52.3617L34.7374 39.1495L44.6876 44.4481Z" fill="url(#paint0_linear_3123_12178)"/>
<path d="M29.321 45.6031C29.8397 45.8793 30.3365 46.1965 30.7979 46.5473C35.9024 50.3518 37.3172 58.0254 33.9303 64.6487L33.7995 64.8944C29.9255 72.1693 21.6398 75.3255 15.293 71.9457C8.95994 68.5732 6.95418 59.9367 10.8282 52.6617C14.7023 45.3868 22.9879 42.2306 29.321 45.6031ZM17.3863 68.0148C21.4128 70.159 26.6455 68.1626 29.095 63.5629C29.1313 63.4947 29.1676 63.4265 29.1903 63.351C31.2081 59.3974 30.5148 54.8761 27.7016 52.3618C27.2757 51.9773 26.7933 51.6328 26.261 51.3494C22.2482 49.2125 17.0155 51.2088 14.5588 55.8221C12.1094 60.4218 13.3735 65.8779 17.3863 68.0148Z" fill="url(#paint1_linear_3123_12178)"/>
<path d="M33.4002 49.2579C35.2485 53.2054 35.1892 58.2545 32.8611 62.8071L32.7303 63.0529C28.8563 70.3278 20.5706 73.484 14.2238 70.1042C12.5786 69.2281 11.2329 67.9915 10.199 66.5211C11.2837 68.8078 13.0001 70.7246 15.2931 71.9456C21.6398 75.3254 29.9255 72.1692 33.7995 64.8943L33.9304 64.6486C36.6403 59.3491 36.2688 53.3822 33.4002 49.2579Z" fill="url(#paint2_linear_3123_12178)"/>
<path d="M26.6834 7.24501L50.709 52.3617C47.8957 54.876 47.2024 59.3973 49.2202 63.3509L45.9308 65.1026C45.4258 65.3715 44.8055 65.1937 44.5092 64.7033L21.0216 20.5966C18.3686 15.6147 20.2509 9.44406 25.2328 6.79109C25.7515 6.51488 26.3999 6.71268 26.6834 7.24501Z" fill="#DCEEFD"/>
<path d="M25.2328 6.79109C24.7294 7.05913 24.2667 7.37151 23.8281 7.70654L48.9128 54.812C49.3523 53.8843 49.9447 53.0448 50.7089 52.3617L26.6833 7.24501C26.3999 6.71268 25.7514 6.51489 25.2328 6.79109Z" fill="#C1E3FC"/>
<path d="M33.7229 44.4481L44.5091 64.7032C44.8054 65.1936 45.4256 65.3715 45.9306 65.1026L49.2201 63.3509C47.2023 59.3973 47.8956 54.8759 50.7088 52.3617L43.6731 39.1495L33.7229 44.4481Z" fill="url(#paint3_linear_3123_12178)"/>
<path d="M49.0894 45.6031C48.5708 45.8793 48.0739 46.1965 47.6125 46.5473C42.508 50.3518 41.0932 58.0254 44.4801 64.6487L44.6109 64.8944C48.485 72.1693 56.7706 75.3255 63.1174 71.9457C69.4505 68.5732 71.4562 59.9367 67.5822 52.6617C63.7081 45.3868 55.4225 42.2306 49.0894 45.6031ZM61.0241 68.0148C56.9977 70.159 51.7649 68.1626 49.3155 63.5629C49.2791 63.4947 49.2428 63.4265 49.2201 63.351C47.2023 59.3974 47.8956 54.8761 50.7089 52.3618C51.1348 51.9773 51.6171 51.6328 52.1494 51.3494C56.1622 49.2125 61.3949 51.2088 63.8516 55.8221C66.301 60.4218 65.0369 65.8779 61.0241 68.0148Z" fill="url(#paint4_linear_3123_12178)"/>
<path d="M67.5822 52.6618C65.6279 48.9919 62.55 46.3742 59.1673 45.11C61.734 46.5469 64.0067 48.7897 65.5625 51.7114C69.4366 58.9864 67.4308 67.6229 61.0978 70.9954C57.9515 72.671 54.3295 72.7361 51.0038 71.4936C54.8302 73.6356 59.3185 73.9688 63.1174 71.9458C69.4505 68.5734 71.4563 59.9367 67.5822 52.6618Z" fill="url(#paint5_linear_3123_12178)"/>
<path d="M41.538 41.8156C41.538 43.4693 40.1979 44.8094 38.5442 44.8094C36.9047 44.8094 35.5646 43.4693 35.5646 41.8156C35.5646 40.176 36.9047 38.8359 38.5442 38.8359C40.1979 38.8359 41.538 40.176 41.538 41.8156Z" fill="#6C728C"/>
<path d="M39.9676 39.2064C40.2997 39.6877 40.4961 40.2695 40.4961 40.8983C40.4961 42.5476 39.1591 43.8846 37.5098 43.8846C36.9935 43.8846 36.5152 43.7416 36.0916 43.5109C36.6302 44.2918 37.5289 44.8053 38.5494 44.8053C40.1986 44.8053 41.5356 43.4683 41.5356 41.8191C41.5356 40.6861 40.8973 39.7124 39.9676 39.2064Z" fill="#626681"/>
<defs>
<linearGradient id="paint0_linear_3123_12178" x1="36.1946" y1="39.1495" x2="36.1946" y2="65.2279" gradientUnits="userSpaceOnUse">
<stop stop-color="#64B9F6"/>
<stop offset="1" stop-color="#409BF1"/>
</linearGradient>
<linearGradient id="paint1_linear_3123_12178" x1="22.3142" y1="44.2517" x2="22.3142" y2="73.3016" gradientUnits="userSpaceOnUse">
<stop stop-color="#64B9F6"/>
<stop offset="1" stop-color="#409BF1"/>
</linearGradient>
<linearGradient id="paint2_linear_3123_12178" x1="22.9849" y1="49.2579" x2="22.9849" y2="73.3015" gradientUnits="userSpaceOnUse">
<stop stop-color="#64B9F6"/>
<stop offset="1" stop-color="#409BF1"/>
</linearGradient>
<linearGradient id="paint3_linear_3123_12178" x1="42.2159" y1="39.1495" x2="42.2159" y2="65.2279" gradientUnits="userSpaceOnUse">
<stop stop-color="#64B9F6"/>
<stop offset="1" stop-color="#409BF1"/>
</linearGradient>
<linearGradient id="paint4_linear_3123_12178" x1="56.0962" y1="44.2517" x2="56.0962" y2="73.3016" gradientUnits="userSpaceOnUse">
<stop stop-color="#64B9F6"/>
<stop offset="1" stop-color="#409BF1"/>
</linearGradient>
<linearGradient id="paint5_linear_3123_12178" x1="60.2799" y1="45.11" x2="60.2799" y2="73.2954" gradientUnits="userSpaceOnUse">
<stop stop-color="#64B9F6"/>
<stop offset="1" stop-color="#409BF1"/>
</linearGradient>
</defs>
</svg>
