<svg width="86" height="80" viewBox="0 0 86 80" fill="none" xmlns="http://www.w3.org/2000/svg">
<path d="M40.8496 14.1961C40.6221 13.9785 40.3195 13.8571 40.0047 13.8571C39.69 13.8571 39.3873 13.9785 39.1599 14.1961L11.0336 41.065C10.9141 41.1793 10.8191 41.3166 10.7542 41.4687C10.6894 41.6207 10.656 41.7843 10.6562 41.9496L10.6516 67.1671C10.6516 68.4637 11.1667 69.7072 12.0835 70.624C13.0004 71.5409 14.2439 72.0559 15.5405 72.0559H30.2224C30.8707 72.0559 31.4925 71.7984 31.9509 71.34C32.2003 71.0905 32.3903 70.7927 32.5117 70.4686C32.6133 70.197 32.6668 69.907 32.6668 69.6115V48.8338C32.6668 48.5096 32.7956 48.1987 33.0248 47.9695C33.254 47.7403 33.5649 47.6116 33.8891 47.6116H46.1112C46.4354 47.6116 46.7463 47.7403 46.9755 47.9695C47.2047 48.1987 47.3335 48.5096 47.3335 48.8338V69.6115C47.3335 69.907 47.387 70.197 47.4886 70.4686C47.61 70.7927 47.8 71.0905 48.0494 71.34C48.5078 71.7984 49.1296 72.0559 49.7779 72.0559H64.4537C65.7503 72.0559 66.9938 71.5409 67.9107 70.624C68.8275 69.7072 69.3426 68.4637 69.3426 67.1671V41.9496C69.3428 41.7843 69.3094 41.6207 69.2446 41.4687C69.1797 41.3166 69.0847 41.1793 68.9652 41.065L40.8496 14.1961Z" fill="url(#paint0_linear_3123_12105)"/>
<path d="M40.0004 5.90295C41.4991 5.90304 42.9279 6.4402 43.9174 7.43127L51.475 14.6559V11.5553C51.475 10.7045 51.8129 9.88836 52.4144 9.28674C53.016 8.68518 53.8322 8.34741 54.683 8.34729H62.017C62.8678 8.34735 63.6839 8.68511 64.2855 9.28674C64.8872 9.88838 65.2249 10.7045 65.225 11.5553V27.818L76.4174 38.526H76.4164C77.6796 39.7338 77.8045 41.8231 76.5551 43.1178C75.9654 43.7291 75.1571 44.0817 74.308 44.0983C73.4594 44.1147 72.6386 43.7948 72.0258 43.2076L40.3217 12.9147V12.9137C40.2364 12.8322 40.1223 12.7867 40.0043 12.7867C39.8865 12.7868 39.7731 12.8323 39.6879 12.9137V12.9147L7.98669 43.2047L7.98767 43.2057C7.67391 43.5072 7.30215 43.7418 6.8949 43.8951C6.48766 44.0484 6.0532 44.1171 5.61853 44.0973C5.18385 44.0774 4.75718 43.9696 4.3656 43.7799C3.97391 43.5901 3.62424 43.3218 3.33923 42.9928V42.9918C2.1895 41.6688 2.37159 39.7015 3.59119 38.525L3.59412 38.5231L36.0892 7.43323C37.0784 6.44053 38.505 5.90295 40.0004 5.90295Z" fill="#409BF1" stroke="#409BF1" stroke-width="1.52778"/>
<path d="M46.725 64.1171L46.7371 60.6916L43.3116 60.7037C42.8557 60.7037 42.4185 60.5226 42.0962 60.2003C41.7738 59.878 41.5927 59.4408 41.5927 58.9849C41.5927 58.5291 41.7738 58.0919 42.0962 57.7695C42.4185 57.4472 42.8557 57.2661 43.3116 57.2661L68.8273 57.2661C69.2531 55.1889 70.4349 53.3437 72.1435 52.088C73.8522 50.8323 75.9662 50.2556 78.0758 50.4696C80.1854 50.6836 82.1404 51.6731 83.5621 53.2463C84.9838 54.8195 85.771 56.8645 85.771 58.9849C85.771 61.1054 84.9838 63.1503 83.5621 64.7235C82.1404 66.2967 80.1854 67.2862 78.0758 67.5002C75.9662 67.7142 73.8522 67.1375 72.1435 65.8819C70.4349 64.6262 69.2531 62.781 68.8273 60.7037L57.0015 60.6916L57.0136 64.1171C57.0126 64.3424 56.9673 64.5653 56.88 64.773C56.7928 64.9807 56.6654 65.1692 56.5052 65.3276C56.3468 65.4878 56.1584 65.6152 55.9506 65.7024C55.7429 65.7896 55.52 65.835 55.2948 65.8359C55.0688 65.8369 54.8449 65.793 54.6359 65.707C54.427 65.6209 54.2371 65.4944 54.0773 65.3346C53.9175 65.1748 53.791 64.9849 53.7049 64.776C53.6189 64.567 53.575 64.3431 53.576 64.1171L53.6486 60.7521L50.211 60.7521L50.2231 64.1777C50.2222 64.4029 50.1768 64.6258 50.0895 64.8335C50.0023 65.0412 49.8749 65.2297 49.7147 65.3881C49.5563 65.5483 49.3679 65.6757 49.1602 65.7629C48.9524 65.8502 48.7296 65.8955 48.5043 65.8965C48.2681 65.906 48.0324 65.8665 47.8123 65.7804C47.5921 65.6944 47.3921 65.5636 47.2249 65.3965C47.0578 65.2293 46.9271 65.0293 46.841 64.8091C46.7549 64.589 46.7154 64.3533 46.725 64.1171ZM80.8347 62.6162C81.5529 61.898 82.042 60.983 82.2402 59.9868C82.4383 58.9906 82.3366 57.9581 81.948 57.0197C81.5593 56.0813 80.901 55.2793 80.0565 54.715C79.212 54.1507 78.2191 53.8495 77.2035 53.8495C76.1878 53.8495 75.1949 54.1507 74.3504 54.715C73.5059 55.2793 72.8477 56.0813 72.459 57.0197C72.0703 57.9581 71.9686 58.9906 72.1667 59.9868C72.3649 60.983 72.854 61.898 73.5722 62.6162C74.5353 63.5793 75.8415 64.1203 77.2035 64.1203C78.5655 64.1203 79.8717 63.5793 80.8347 62.6162Z" fill="#EDBC20"/>
<defs>
<linearGradient id="paint0_linear_3123_12105" x1="39.9971" y1="13.8571" x2="39.9971" y2="72.0559" gradientUnits="userSpaceOnUse">
<stop stop-color="#64B9F6"/>
<stop offset="1" stop-color="#409BF1"/>
</linearGradient>
</defs>
</svg>
