<svg width="80" height="80" viewBox="0 0 80 80" fill="none" xmlns="http://www.w3.org/2000/svg">
<g clip-path="url(#clip0_3123_12126)">
<path d="M62.6951 15.1457V71.6054C62.6951 73.6787 61.0146 75.3701 58.9413 75.3701H12.8701C10.7967 75.3701 9.10535 73.6787 9.10535 71.6054V15.1457C9.10535 13.0724 10.7967 11.381 12.8701 11.381H58.9413C61.0146 11.381 62.6951 13.0833 62.6951 15.1457Z" fill="url(#paint0_linear_3123_12126)"/>
<path d="M58.2618 18.1772V60.973V70.7883H15.7641C14.5505 70.7883 13.5604 69.7983 13.5604 68.5847V18.1772C13.5604 16.9636 14.5505 15.9735 15.7641 15.9735H56.0475C57.2718 15.9735 58.2618 16.9529 58.2618 18.1772Z" fill="white"/>
<path d="M48.9565 13.3779V15.3203C48.9565 16.2806 48.1708 17.0662 47.1996 17.0662H24.6004C23.6293 17.0662 22.8545 16.2806 22.8545 15.3203V13.3779C22.8545 11.6974 24.2185 10.3225 25.899 10.3225H31.5952V9.7005C31.5952 7.32164 33.5157 5.37927 35.9055 5.37927C37.0949 5.37927 38.1861 5.88123 38.9609 6.64509C39.7357 7.41985 40.2267 8.51107 40.2267 9.7005V10.3225H45.901C47.5815 10.3334 48.9565 11.6974 48.9565 13.3779Z" fill="#409BF1"/>
<path d="M35.9164 8.3147C36.7239 8.3147 37.3677 8.96943 37.3677 9.76602C37.3677 10.5735 36.713 11.2173 35.9164 11.2173C35.098 11.2173 34.4432 10.5626 34.4432 9.76602C34.4432 8.96943 35.098 8.3147 35.9164 8.3147Z" fill="white"/>
<path d="M20.1926 25.229H25.5393C26.4091 25.2291 27.1106 25.9305 27.1106 26.8003V32.147C27.1106 33.0168 26.4091 33.7182 25.5393 33.7183H20.1926C19.3343 33.7183 18.6321 33.0175 18.6321 32.147V26.8003C18.6321 25.9297 19.3343 25.229 20.1926 25.229Z" fill="white" stroke="#64B9F6" stroke-width="0.327366"/>
<path d="M53.3542 26.0142H40.6306C40.3251 26.0142 40.085 25.7741 40.085 25.4686C40.085 25.163 40.3251 24.923 40.6306 24.923H53.3542C53.6598 24.923 53.8998 25.163 53.8998 25.4686C53.8998 25.7741 53.6598 26.0142 53.3542 26.0142ZM37.8153 26.0142H33.9087C33.6032 26.0142 33.3631 25.7741 33.3631 25.4686C33.3631 25.163 33.6032 24.923 33.9087 24.923H37.8153C38.1208 24.923 38.3609 25.163 38.3609 25.4686C38.3609 25.7741 38.1099 26.0142 37.8153 26.0142ZM53.3542 30.019H50.2224C49.9169 30.019 49.6768 29.7789 49.6768 29.4734C49.6768 29.1678 49.9169 28.9277 50.2224 28.9277H53.3542C53.6598 28.9277 53.8998 29.1678 53.8998 29.4734C53.8998 29.7789 53.6598 30.019 53.3542 30.019ZM47.3634 30.019H33.8978C33.5922 30.019 33.3522 29.7789 33.3522 29.4734C33.3522 29.1678 33.5922 28.9277 33.8978 28.9277H47.3525C47.6581 28.9277 47.8981 29.1678 47.8981 29.4734C47.8981 29.7789 47.6581 30.019 47.3634 30.019ZM46.174 34.0237H33.8978C33.5922 34.0237 33.3522 33.7837 33.3522 33.4781C33.3522 33.1726 33.5922 32.9325 33.8978 32.9325H46.174C46.4795 32.9325 46.7196 33.1726 46.7196 33.4781C46.7196 33.7837 46.4795 34.0237 46.174 34.0237Z" fill="#EFEFED"/>
<path d="M20.1926 38.0836H25.5374L25.6985 38.0934C26.4949 38.1808 27.1106 38.8409 27.1106 39.6549V45.0016C27.1106 45.8714 26.4091 46.5728 25.5393 46.5729H20.1926C19.3343 46.5729 18.6321 45.8721 18.6321 45.0016V39.6549C18.6321 38.7844 19.3343 38.0836 20.1926 38.0836Z" fill="white" stroke="#64B9F6" stroke-width="0.327366"/>
<path d="M53.3542 38.8797H40.6306C40.3251 38.8797 40.085 38.6396 40.085 38.3341C40.085 38.0285 40.3251 37.7885 40.6306 37.7885H53.3542C53.6598 37.7885 53.8998 38.0285 53.8998 38.3341C53.8998 38.6396 53.6598 38.8797 53.3542 38.8797ZM37.8153 38.8797H33.9087C33.6032 38.8797 33.3631 38.6396 33.3631 38.3341C33.3631 38.0285 33.6032 37.7885 33.9087 37.7885H37.8153C38.1208 37.7885 38.3609 38.0285 38.3609 38.3341C38.3609 38.6396 38.1099 38.8797 37.8153 38.8797ZM53.3542 42.8735H50.2224C49.9169 42.8735 49.6768 42.6335 49.6768 42.3279C49.6768 42.0224 49.9169 41.7823 50.2224 41.7823H53.3542C53.6598 41.7823 53.8998 42.0224 53.8998 42.3279C53.8998 42.6335 53.6598 42.8735 53.3542 42.8735ZM47.3634 42.8735H33.8978C33.5922 42.8735 33.3522 42.6335 33.3522 42.3279C33.3522 42.0224 33.5922 41.7823 33.8978 41.7823H47.3525C47.6581 41.7823 47.8981 42.0224 47.8981 42.3279C47.8981 42.6335 47.6581 42.8735 47.3634 42.8735ZM46.174 46.8783H33.8978C33.5922 46.8783 33.3522 46.6382 33.3522 46.3327C33.3522 46.0272 33.5922 45.7871 33.8978 45.7871H46.174C46.4795 45.7871 46.7196 46.0272 46.7196 46.3327C46.7196 46.6382 46.4795 46.8783 46.174 46.8783Z" fill="#EFEFED"/>
<path d="M20.1926 50.949H25.5393C26.4091 50.9491 27.1106 51.6505 27.1106 52.5203V57.8669C27.1106 58.7367 26.4091 59.4381 25.5393 59.4382H20.1926C19.3343 59.4382 18.6321 58.7375 18.6321 57.8669V52.5203C18.6321 51.6497 19.3343 50.949 20.1926 50.949Z" fill="white" stroke="#64B9F6" stroke-width="0.327366"/>
<path d="M46.9924 51.7342H40.6306C40.3251 51.7342 40.085 51.4941 40.085 51.1886C40.085 50.883 40.3251 50.6429 40.6306 50.6429H46.9924C47.298 50.6429 47.538 50.883 47.538 51.1886C47.538 51.4941 47.298 51.7342 46.9924 51.7342ZM37.8153 51.7342H33.9087C33.6032 51.7342 33.3631 51.4941 33.3631 51.1886C33.3631 50.883 33.6032 50.6429 33.9087 50.6429H37.8153C38.1208 50.6429 38.3609 50.883 38.3609 51.1886C38.3609 51.4941 38.1099 51.7342 37.8153 51.7342ZM44.6354 55.7389H33.9087C33.6032 55.7389 33.3631 55.4989 33.3631 55.1933C33.3631 54.8878 33.6032 54.6477 33.9087 54.6477H44.6354C44.9409 54.6477 45.181 54.8878 45.181 55.1933C45.181 55.4989 44.93 55.7389 44.6354 55.7389ZM41.4927 59.7437H33.8978C33.5922 59.7437 33.3522 59.5036 33.3522 59.1981C33.3522 58.8926 33.5922 58.6525 33.8978 58.6525H41.4927C41.7982 58.6525 42.0383 58.8926 42.0383 59.1981C42.0383 59.5036 41.7982 59.7437 41.4927 59.7437Z" fill="#EFEFED"/>
<path d="M22.1889 31.1212C22.0471 31.1212 21.9052 31.0666 21.807 30.9575L20.9122 30.0627C20.694 29.8444 20.694 29.5062 20.9122 29.2879C21.1305 29.0697 21.4687 29.0697 21.687 29.2879L22.1999 29.8008L24.0113 27.9894C24.2295 27.7711 24.5678 27.7711 24.786 27.9894C25.0043 28.2076 25.0043 28.5459 24.786 28.7641L22.5818 30.9575C22.4727 31.0666 22.3308 31.1212 22.1889 31.1212ZM22.1889 43.9757C22.0471 43.9757 21.9052 43.9212 21.807 43.812L20.9122 42.9172C20.694 42.699 20.694 42.3607 20.9122 42.1425C21.1305 41.9242 21.4687 41.9242 21.687 42.1425L22.1999 42.6553L24.0113 40.8439C24.2295 40.6257 24.5678 40.6257 24.786 40.8439C25.0043 41.0622 25.0043 41.4005 24.786 41.6187L22.5818 43.812C22.4727 43.9212 22.3308 43.9757 22.1889 43.9757ZM22.1889 56.8412C22.0471 56.8412 21.9052 56.7866 21.807 56.6775L20.9122 55.7827C20.694 55.5645 20.694 55.2262 20.9122 55.0079C21.1305 54.7897 21.4687 54.7897 21.687 55.0079L22.1999 55.5208L24.0113 53.7094C24.2295 53.4912 24.5678 53.4912 24.786 53.7094C25.0043 53.9276 25.0043 54.2659 24.786 54.4842L22.5818 56.6775C22.4727 56.7866 22.3308 56.8412 22.1889 56.8412Z" fill="#64B9F6"/>
<path d="M45.9519 45.0523L64.7605 28.0112L69.8473 33.6262L51.0387 50.6673L45.9519 45.0523Z" fill="url(#paint1_linear_3123_12126)"/>
<path d="M69.8482 33.6279L72.9024 30.8599C73.0655 30.7123 73.198 30.534 73.2921 30.3351C73.3863 30.1363 73.4404 29.9209 73.4513 29.7012C73.4622 29.4815 73.4297 29.2617 73.3557 29.0546C73.2817 28.8474 73.1676 28.6568 73.0199 28.4938L70.1795 25.359C69.8811 25.0306 69.4647 24.8341 69.0216 24.8124C68.5785 24.7908 68.1449 24.9458 67.8159 25.2435L64.7599 28.0126L69.8482 33.6279Z" fill="#409BF1"/>
<path d="M63.5867 29.0763L64.7604 28.0112L69.8486 33.6264L68.6752 34.6901L63.5867 29.0763Z" fill="white"/>
<path d="M51.0396 50.6688L45.3161 52.6583L42.9335 53.4862C42.8459 53.5167 42.7512 53.5208 42.6612 53.4978C42.5713 53.4748 42.4901 53.4259 42.4278 53.3571C42.3655 53.2883 42.3249 53.2026 42.311 53.1108C42.2971 53.0191 42.3105 52.9252 42.3496 52.841L43.4066 50.5577L45.9529 45.0539L51.0396 50.6688Z" fill="#F9B938"/>
<path d="M45.3161 52.6584L42.9335 53.4863C42.8458 53.5169 42.7511 53.5209 42.6612 53.4979C42.5713 53.475 42.4901 53.426 42.4278 53.3572C42.3655 53.2884 42.3249 53.2028 42.3109 53.111C42.297 53.0192 42.3104 52.9254 42.3495 52.8412L43.4066 50.5579C43.8468 50.736 44.2581 51.0134 44.5988 51.3892C44.9431 51.7688 45.1801 52.205 45.3161 52.6584Z" fill="#409BF1"/>
</g>
<defs>
<linearGradient id="paint0_linear_3123_12126" x1="35.9002" y1="11.381" x2="35.9002" y2="75.3701" gradientUnits="userSpaceOnUse">
<stop stop-color="#64B9F6"/>
<stop offset="1" stop-color="#409BF1"/>
</linearGradient>
<linearGradient id="paint1_linear_3123_12126" x1="56.7109" y1="33.6562" x2="61.9379" y2="41.1457" gradientUnits="userSpaceOnUse">
<stop stop-color="#64B9F6"/>
<stop offset="1" stop-color="#409BF1"/>
</linearGradient>
<clipPath id="clip0_3123_12126">
<rect width="71.1111" height="71.1111" fill="white" transform="translate(3.70374 4.44446)"/>
</clipPath>
</defs>
</svg>
