<svg width="80" height="80" viewBox="0 0 80 80" fill="none" xmlns="http://www.w3.org/2000/svg">
<path d="M18.2878 77.7214C17.0464 77.7214 16.0417 76.7168 16.0417 75.4753V70.9831C16.0417 69.7416 17.0464 68.737 18.2878 68.737C19.5293 68.737 20.5339 69.7416 20.5339 70.9831V75.4753C20.5339 76.7168 19.5293 77.7214 18.2878 77.7214Z" fill="#64B9F6"/>
<path d="M63.2097 77.7214C61.9682 77.7214 60.9636 76.7168 60.9636 75.4753V70.9831C60.9636 69.7416 61.9682 68.737 63.2097 68.737C64.4512 68.737 65.4558 69.7416 65.4558 70.9831V75.4753C65.4558 76.7168 64.4512 77.7214 63.2097 77.7214Z" fill="#64B9F6"/>
<path d="M35.5078 24.414C34.2663 24.414 33.2617 23.4094 33.2617 22.1679V3.89972C33.2617 2.65823 34.2663 1.65363 35.5078 1.65363C36.7493 1.65363 37.7539 2.65823 37.7539 3.89972V22.1679C37.7539 23.4094 36.7493 24.414 35.5078 24.414Z" fill="#F63737"/>
<path d="M44.4922 24.414C43.2507 24.414 42.2461 23.4094 42.2461 22.1679V3.89972C42.2461 2.65823 43.2507 1.65363 44.4922 1.65363C45.7337 1.65363 46.7383 2.65823 46.7383 3.89972V22.1679C46.7383 23.4094 45.7337 24.414 44.4922 24.414Z" fill="#F63737"/>
<path d="M44.4922 33.3984H35.5078C31.7922 33.3984 28.7695 30.3758 28.7695 26.6602V22.168C28.7695 20.9265 29.7741 19.9219 31.0156 19.9219H48.9844C50.2259 19.9219 51.2305 20.9265 51.2305 22.168V26.6602C51.2305 30.3758 48.2078 33.3984 44.4922 33.3984Z" fill="url(#paint0_linear_3123_12239)"/>
<path d="M15.293 42.3828V22.168C15.293 20.9265 14.2884 19.9219 13.0469 19.9219H8.55469C7.3132 19.9219 6.30859 20.9265 6.30859 22.168V42.3828H15.293Z" fill="url(#paint1_linear_3123_12239)"/>
<path d="M10.8008 19.9218C8.32439 19.9218 6.30859 17.906 6.30859 15.4296C6.30859 14.3178 7.27142 12.1018 8.87498 9.42583C9.28092 8.74841 10.0127 8.33393 10.8023 8.33423C11.5919 8.33453 12.3217 8.75035 12.7276 9.42778C14.3306 12.1029 15.293 14.3181 15.293 15.4296C15.293 17.906 13.2772 19.9218 10.8008 19.9218Z" fill="#EDBC20"/>
<path d="M73.6914 42.3828V22.168C73.6914 20.9265 72.6868 19.9219 71.4453 19.9219H66.9531C65.7116 19.9219 64.707 20.9265 64.707 22.168V42.3828H73.6914Z" fill="url(#paint2_linear_3123_12239)"/>
<path d="M69.1992 19.9219C66.7228 19.9219 64.707 17.9061 64.707 15.4297C64.707 14.3182 65.6694 12.1029 67.2722 9.42797C67.6779 8.75114 68.4087 8.33681 69.1979 8.33637C69.987 8.33592 70.7194 8.7492 71.1249 9.42602C72.7286 12.1019 73.6914 14.3179 73.6914 15.4297C73.6914 17.9061 71.6756 19.9219 69.1992 19.9219Z" fill="#EDBC20"/>
<path d="M48.9844 19.9219H40V33.3984H44.4922C48.2078 33.3984 51.2305 30.3758 51.2305 26.6602V22.168C51.2305 20.9265 50.2259 19.9219 48.9844 19.9219Z" fill="url(#paint3_linear_3123_12239)"/>
<path d="M53.4766 42.3828H26.5234C25.2819 42.3828 24.2773 41.3782 24.2773 40.1367V33.3984C24.2773 32.1569 25.2819 31.1523 26.5234 31.1523H53.4766C54.7181 31.1523 55.7227 32.1569 55.7227 33.3984V40.1367C55.7227 41.3782 54.7181 42.3828 53.4766 42.3828Z" fill="#EDBC20"/>
<path d="M53.4766 31.1523H40V42.3828H53.4766C54.7181 42.3828 55.7227 41.3782 55.7227 40.1367V33.3984C55.7227 32.1569 54.7181 31.1523 53.4766 31.1523Z" fill="#EDBC20"/>
<path fill-rule="evenodd" clip-rule="evenodd" d="M73.6915 42.3828H6.30868V71.582C6.30868 72.8235 7.31328 73.8281 8.55477 73.8281H71.4454C72.6869 73.8281 73.6915 72.8235 73.6915 71.582V42.3828Z" fill="url(#paint4_linear_3123_12239)"/>
<path d="M76.0873 37.8906H3.91284C2.67135 37.8906 1.66675 38.8952 1.66675 40.1367C1.66675 41.3782 2.67135 42.3828 3.91284 42.3828H6.30868H73.6915H76.0873C77.3288 42.3828 78.3334 41.3782 78.3334 40.1367C78.3334 38.8952 77.3288 37.8906 76.0873 37.8906Z" fill="#409BF1"/>
<path fill-rule="evenodd" clip-rule="evenodd" d="M73.6914 42.3828V71.582C73.6914 72.8235 72.6868 73.8281 71.4453 73.8281H40V42.3828H73.6914Z" fill="url(#paint5_linear_3123_12239)"/>
<path d="M46.7383 46.875L51.2305 55.8594L46.7383 64.8438H33.2617L28.7695 55.8594L33.2617 46.875H46.7383Z" fill="#C1E3FC"/>
<path d="M33.2617 46.875V64.8438H22.0312C20.7733 64.8438 19.7852 63.8553 19.7852 62.5977V49.1211C19.7852 47.8631 20.7733 46.875 22.0312 46.875H33.2617Z" fill="#C1E3FC"/>
<path d="M40 46.875V64.8438H46.7383L51.2305 55.8594L46.7383 46.875H40Z" fill="#C1E3FC"/>
<path d="M60.2148 49.1211V62.5977C60.2148 63.8553 59.2267 64.8438 57.9688 64.8438H46.7383V46.875H57.9688C59.2267 46.875 60.2148 47.8631 60.2148 49.1211Z" fill="#C1E3FC"/>
<defs>
<linearGradient id="paint0_linear_3123_12239" x1="40" y1="19.9219" x2="40" y2="33.3984" gradientUnits="userSpaceOnUse">
<stop stop-color="#64B9F6"/>
<stop offset="1" stop-color="#409BF1"/>
</linearGradient>
<linearGradient id="paint1_linear_3123_12239" x1="10.8008" y1="19.9219" x2="10.8008" y2="42.3828" gradientUnits="userSpaceOnUse">
<stop stop-color="#64B9F6"/>
<stop offset="1" stop-color="#409BF1"/>
</linearGradient>
<linearGradient id="paint2_linear_3123_12239" x1="69.1992" y1="19.9219" x2="69.1992" y2="42.3828" gradientUnits="userSpaceOnUse">
<stop stop-color="#64B9F6"/>
<stop offset="1" stop-color="#409BF1"/>
</linearGradient>
<linearGradient id="paint3_linear_3123_12239" x1="45.6152" y1="19.9219" x2="45.6152" y2="33.3984" gradientUnits="userSpaceOnUse">
<stop stop-color="#64B9F6"/>
<stop offset="1" stop-color="#409BF1"/>
</linearGradient>
<linearGradient id="paint4_linear_3123_12239" x1="40.0001" y1="37.8906" x2="40.0001" y2="73.8281" gradientUnits="userSpaceOnUse">
<stop stop-color="#64B9F6"/>
<stop offset="1" stop-color="#409BF1"/>
</linearGradient>
<linearGradient id="paint5_linear_3123_12239" x1="59.1667" y1="37.8906" x2="59.1667" y2="73.8281" gradientUnits="userSpaceOnUse">
<stop stop-color="#64B9F6"/>
<stop offset="1" stop-color="#409BF1"/>
</linearGradient>
</defs>
</svg>
