<svg width="80" height="80" viewBox="0 0 80 80" fill="none" xmlns="http://www.w3.org/2000/svg">
<path d="M57.3862 3.75C58.7767 3.75 59.9038 4.87716 59.9038 6.26758V73.7324C59.9038 75.1228 58.7767 76.25 57.3862 76.25H20.9077C19.5173 76.25 18.3901 75.1228 18.3901 73.7324V6.26758C18.3902 4.87717 19.5173 3.75001 20.9077 3.75H57.3862Z" fill="#F7E791" stroke="#BF2501" stroke-width="2.5" stroke-linejoin="round"/>
<path d="M50.6256 7.25317H56.4003V13.8729" stroke="#BF2501" stroke-width="1.66667" stroke-linecap="round" stroke-linejoin="round"/>
<path d="M50.6256 72.7468H56.4003V66.1271" stroke="#BF2501" stroke-width="1.66667" stroke-linecap="round" stroke-linejoin="round"/>
<path d="M27.6681 7.25317H21.8934V13.8729" stroke="#BF2501" stroke-width="1.66667" stroke-linecap="round" stroke-linejoin="round"/>
<path d="M27.6681 72.7468H21.8934V66.1271" stroke="#BF2501" stroke-width="1.66667" stroke-linecap="round" stroke-linejoin="round"/>
<path d="M26.2758 30.3599C27.3702 30.0863 28.8253 29.8196 30.5461 29.6019M51.9579 30.3599C50.5201 30.0562 49.0703 29.8151 47.6274 29.6284M30.5461 29.6019L32.8918 32.9462L29.3432 36.3143L29.1628 47.0202C29.0425 50.9898 28.9824 58.8087 25.9751 61.0942M30.5461 29.6019C32.9729 29.2949 35.9284 29.0853 39.1469 29.0912M47.6274 29.6284L45.3419 33.0664L48.8303 36.2541L49.1311 47.0202C49.3115 51.4709 49.3355 58.8808 52.3188 61.0942M47.6274 29.6284C44.7202 29.2521 41.8414 29.0961 39.1469 29.0912M39.1469 29.0912C39.2271 30.4363 38.7379 33.5596 36.1397 35.2918C37.8237 37.6375 39.6399 38.8587 40.2205 39.3801M40.2897 39.4418C41.8936 40.6448 45.7028 42.2085 45.6426 39.0208C45.5723 35.2918 40.873 38.4162 40.2205 39.3801M40.2897 39.4418C40.2683 39.423 40.2453 39.4024 40.2205 39.3801M40.2897 39.4418L37.523 42.5694M37.523 42.5694C36.5005 44.4339 32.4106 45.697 32.5911 42.5694C32.7711 39.4488 36.1397 40.8853 37.523 42.5694ZM37.523 42.5694L40.7107 46.1781M40.7107 46.1781C41.5527 47.8021 45.6426 49.5463 45.6426 46.1781C45.6426 43.3951 42.4549 44.1933 40.7107 46.1781ZM40.7107 46.1781L37.523 49.7868M37.523 49.7868C36.7411 51.2303 32.7114 53.0948 32.7114 49.7868C32.7114 47.1377 36.0795 48.1028 37.523 49.7868ZM37.523 49.7868L40.7107 53.576M40.7107 53.576C41.5928 54.5985 43.6187 56.1928 45.1013 54.8391C46.4847 53.576 45.2216 51.5311 43.8383 51.5311M40.7107 53.576L37.523 57.0644M37.523 57.0644C36.8013 58.5079 32.8918 60.0717 32.7114 57.2449C32.5117 54.1173 36.3201 55.2601 37.523 57.0644ZM37.523 57.0644L40.2897 60.2521M40.2897 60.2521C41.4324 61.9964 44.8928 64.0413 45.6426 60.9739C46.2454 58.5079 42.5752 58.2072 40.2897 60.2521ZM40.2897 60.2521C38.2447 62.3572 33.7098 66.6757 27.8396 66.387M30.9672 14.7823C31.8627 15.0027 33.0548 15.1752 34.3954 15.2979M47.3267 14.7823C46.5588 15.051 45.3187 15.2449 43.8383 15.3666M39.1469 13.5793V15.5202M39.1469 15.5202C37.5149 15.5074 35.8659 15.4326 34.3954 15.2979M39.1469 15.5202C40.7951 15.5331 42.426 15.4827 43.8383 15.3666M34.3954 15.2979V19.0698M34.3954 22.8417V19.0698M34.3954 22.8417H39.1169M34.3954 22.8417C34.4756 23.8642 33.782 25.7889 30.3657 25.3077M43.8383 22.8417V19.1041M43.8383 22.8417H39.1169M43.8383 22.8417V25.9091C44.7003 25.869 46.641 25.5242 47.5071 24.4657M43.8383 15.3666V19.1041M43.8383 19.1041L39.1169 19.087M34.3954 19.0698L39.1169 19.087M39.1169 19.087V22.8417M31.3882 18.812C31.1476 19.654 30.089 21.5666 27.7795 22.4809M46.9057 18.9323C47.3267 20.075 48.9867 21.9275 50.334 22.3606" stroke="#BF2501" stroke-width="1.68407" stroke-linecap="round" stroke-linejoin="round"/>
</svg>
