<svg width="80" height="80" viewBox="0 0 80 80" fill="none" xmlns="http://www.w3.org/2000/svg">
<g clip-path="url(#clip0_3123_12034)">
<path d="M62.1538 8.00012H17.8462C10.1991 8.00012 4 14.1993 4 21.8463V66.154C4 73.801 10.1991 80.0001 17.8462 80.0001H62.1538C69.8009 80.0001 76 73.801 76 66.154V21.8463C76 14.1993 69.8009 8.00012 62.1538 8.00012Z" fill="#C1E3FC"/>
<g clip-path="url(#clip1_3123_12034)">
<rect x="8.74414" y="25.7117" width="62.5116" height="48.2233" rx="9.6" fill="white"/>
<path fill-rule="evenodd" clip-rule="evenodd" d="M35.7313 42.04C34.3285 41.293 32.7102 41.0551 31.1517 41.3668C29.5932 41.6785 28.1909 42.5205 27.1833 43.7496C26.1757 44.9787 25.625 46.519 25.625 48.1083C25.625 52.8455 29.1524 57.3669 33.0237 60.851C34.9215 62.5591 36.825 63.9492 38.2567 64.9132C38.9714 65.3944 39.5654 65.7674 39.9784 66.0188C39.9857 66.0232 39.9929 66.0275 40 66.0319C40.0071 66.0275 40.0143 66.0232 40.0215 66.0188C40.4346 65.7674 41.0286 65.3944 41.7433 64.9132C43.1749 63.9492 45.0785 62.5591 46.9763 60.851C50.8476 57.3669 54.375 52.8455 54.375 48.1083C54.375 46.519 53.8243 44.9787 52.8167 43.7496C51.8091 42.5205 50.4068 41.6785 48.8483 41.3668C47.2898 41.0551 45.6715 41.293 44.2687 42.04C42.8658 42.787 41.7651 43.997 41.1538 45.4641L40 44.9833L38.8462 45.4641C38.2349 43.997 37.1342 42.787 35.7313 42.04ZM40 42.4833C39.181 41.3913 38.1277 40.4837 36.9064 39.8334C34.9934 38.8147 32.7866 38.4903 30.6614 38.9153C28.5362 39.3404 26.6239 40.4886 25.2499 42.1646C23.8759 43.8407 23.125 45.941 23.125 48.1083C23.125 53.9961 27.4101 59.1622 31.3513 62.7093C33.3597 64.5169 35.3625 65.9783 36.8604 66.9869C37.6106 67.4921 38.2373 67.8857 38.6788 68.1544C38.8996 68.2888 39.0743 68.392 39.1952 68.4625C39.2557 68.4977 39.3027 68.5247 39.3354 68.5434L39.3735 68.565L39.3842 68.5711L39.3874 68.5729C39.3878 68.5731 39.3892 68.5739 40 67.4833L39.3892 68.5739C39.7687 68.7864 40.2313 68.7864 40.6108 68.5739L40 67.4833C40.6108 68.5739 40.6104 68.5741 40.6108 68.5739L40.6126 68.5729L40.6158 68.5711L40.6265 68.565L40.6646 68.5434C40.6973 68.5247 40.7443 68.4977 40.8048 68.4625C40.9257 68.392 41.1004 68.2888 41.3212 68.1544C41.7627 67.8857 42.3894 67.4921 43.1396 66.9869C44.6375 65.9783 46.6403 64.5169 48.6487 62.7093C52.5899 59.1622 56.875 53.9961 56.875 48.1083C56.875 45.941 56.1241 43.8407 54.7501 42.1646C53.3761 40.4886 51.4638 39.3404 49.3386 38.9153C47.2134 38.4903 45.0066 38.8147 43.0936 39.8334C41.8723 40.4837 40.819 41.3913 40 42.4833Z" fill="url(#paint0_linear_3123_12034)"/>
<path d="M31.1517 41.3668C32.7102 41.0551 34.3285 41.293 35.7313 42.04C37.1342 42.787 38.2349 43.997 38.8462 45.4641L40 44.9833L41.1538 45.4641C41.7651 43.997 42.8658 42.787 44.2687 42.04C45.6715 41.293 47.2898 41.0551 48.8483 41.3668C50.4068 41.6785 51.8091 42.5205 52.8167 43.7496C53.8243 44.9787 54.375 46.519 54.375 48.1083C54.375 52.8455 50.8476 57.3669 46.9763 60.851C45.0785 62.5591 43.1749 63.9492 41.7433 64.9132C41.0286 65.3944 40.4346 65.7674 40.0215 66.0188L40 66.0319L39.9784 66.0188C39.5654 65.7674 38.9714 65.3944 38.2567 64.9132C36.825 63.9492 34.9215 62.5591 33.0237 60.851C29.1524 57.3669 25.625 52.8455 25.625 48.1083C25.625 46.519 26.1757 44.9787 27.1833 43.7496C28.1909 42.5205 29.5932 41.6785 31.1517 41.3668Z" fill="url(#paint1_linear_3123_12034)"/>
<path d="M31.1517 41.3668C32.7102 41.0551 34.3285 41.293 35.7313 42.04C37.1342 42.787 38.2349 43.997 38.8462 45.4641L40 44.9833L41.1538 45.4641C41.7651 43.997 42.8658 42.787 44.2687 42.04C45.6715 41.293 47.2898 41.0551 48.8483 41.3668C50.4068 41.6785 51.8091 42.5205 52.8167 43.7496C53.8243 44.9787 54.375 46.519 54.375 48.1083C54.375 52.8455 50.8476 57.3669 46.9763 60.851C45.0785 62.5591 43.1749 63.9492 41.7433 64.9132C41.0286 65.3944 40.4346 65.7674 40.0215 66.0188L40 66.0319L39.9784 66.0188C39.5654 65.7674 38.9714 65.3944 38.2567 64.9132C36.825 63.9492 34.9215 62.5591 33.0237 60.851C29.1524 57.3669 25.625 52.8455 25.625 48.1083C25.625 46.519 26.1757 44.9787 27.1833 43.7496C28.1909 42.5205 29.5932 41.6785 31.1517 41.3668Z" fill="url(#paint2_linear_3123_12034)"/>
</g>
<path d="M62.3256 7.44177H17.6744C13.9737 7.44177 10.4246 8.91187 7.80783 11.5287C5.19104 14.1454 3.72095 17.6946 3.72095 21.3953V32.5581H76.2791V21.3953C76.2791 17.6946 74.809 14.1454 72.1922 11.5287C69.5754 8.91187 66.0263 7.44177 62.3256 7.44177Z" fill="#64B9F6"/>
<path d="M55.4948 17.6C54.7243 17.6 53.9853 17.3471 53.4405 16.8971C52.8957 16.447 52.5896 15.8365 52.5896 15.2V2.4C52.5896 1.76348 52.8957 1.15303 53.4405 0.702944C53.9853 0.252856 54.7243 0 55.4948 0C56.2654 0 57.0043 0.252856 57.5492 0.702944C58.094 1.15303 58.4001 1.76348 58.4001 2.4V15.2C58.4001 15.8365 58.094 16.447 57.5492 16.8971C57.0043 17.3471 56.2654 17.6 55.4948 17.6ZM24.5054 17.6C23.7348 17.6 22.9959 17.3471 22.451 16.8971C21.9062 16.447 21.6001 15.8365 21.6001 15.2V2.4C21.6001 1.76348 21.9062 1.15303 22.451 0.702944C22.9959 0.252856 23.7348 0 24.5054 0C25.2759 0 26.0148 0.252856 26.5597 0.702944C27.1045 1.15303 27.4106 1.76348 27.4106 2.4V15.2C27.4106 15.8365 27.1045 16.447 26.5597 16.8971C26.0148 17.3471 25.2759 17.6 24.5054 17.6Z" fill="#2254AB"/>
</g>
<defs>
<linearGradient id="paint0_linear_3123_12034" x1="40" y1="38.7333" x2="40" y2="68.7333" gradientUnits="userSpaceOnUse">
<stop stop-color="#FFBFBD"/>
<stop offset="1" stop-color="#F79797"/>
</linearGradient>
<linearGradient id="paint1_linear_3123_12034" x1="40" y1="38.7333" x2="40" y2="68.7333" gradientUnits="userSpaceOnUse">
<stop stop-color="#FFBFBD"/>
<stop offset="1" stop-color="#F79797"/>
</linearGradient>
<linearGradient id="paint2_linear_3123_12034" x1="40" y1="38.7333" x2="40" y2="68.7333" gradientUnits="userSpaceOnUse">
<stop stop-color="#FFBFBD"/>
<stop offset="1" stop-color="#F79797"/>
</linearGradient>
<clipPath id="clip0_3123_12034">
<rect width="80" height="80" rx="19" fill="white"/>
</clipPath>
<clipPath id="clip1_3123_12034">
<rect x="8.74414" y="25.7117" width="62.5116" height="48.2233" rx="9.6" fill="white"/>
</clipPath>
</defs>
</svg>
