<svg width="80" height="80" viewBox="0 0 80 80" fill="none" xmlns="http://www.w3.org/2000/svg">
<path d="M40.8496 14.1961C40.6221 13.9785 40.3195 13.8571 40.0047 13.8571C39.69 13.8571 39.3873 13.9785 39.1599 14.1961L11.0336 41.065C10.9141 41.1793 10.8191 41.3166 10.7542 41.4687C10.6894 41.6207 10.656 41.7843 10.6562 41.9496L10.6516 67.1671C10.6516 68.4637 11.1667 69.7072 12.0835 70.624C13.0004 71.5409 14.2439 72.0559 15.5405 72.0559H30.2224C30.8707 72.0559 31.4925 71.7984 31.9509 71.34C32.2003 71.0905 32.3903 70.7927 32.5117 70.4686C32.6133 70.197 32.6668 69.907 32.6668 69.6115V48.8338C32.6668 48.5096 32.7956 48.1987 33.0248 47.9695C33.254 47.7403 33.5649 47.6116 33.8891 47.6116H46.1112C46.4354 47.6116 46.7463 47.7403 46.9755 47.9695C47.2047 48.1987 47.3335 48.5096 47.3335 48.8338V69.6115C47.3335 69.907 47.387 70.197 47.4886 70.4686C47.61 70.7927 47.8 71.0905 48.0494 71.34C48.5078 71.7984 49.1296 72.0559 49.7779 72.0559H64.4537C65.7503 72.0559 66.9938 71.5409 67.9107 70.624C68.8275 69.7072 69.3426 68.4637 69.3426 67.1671V41.9496C69.3428 41.7843 69.3094 41.6207 69.2446 41.4687C69.1797 41.3166 69.0847 41.1793 68.9652 41.065L40.8496 14.1961Z" fill="url(#paint0_linear_3123_12100)"/>
<path d="M32.6668 48.8338V69.6115C32.6668 69.907 32.6133 70.197 32.5117 70.4686H47.4886C47.387 70.197 47.3335 69.907 47.3335 69.6115V48.8338C47.3335 48.5096 47.2047 48.1987 46.9755 47.9695C46.7463 47.7403 46.4354 47.6116 46.1112 47.6116H33.8891C33.5649 47.6116 33.254 47.7403 33.0248 47.9695C32.7956 48.1987 32.6668 48.5096 32.6668 48.8338Z" fill="#EDBC20"/>
<path d="M40.0004 5.90295C41.4991 5.90304 42.9279 6.4402 43.9174 7.43127L51.475 14.6559V11.5553C51.475 10.7045 51.8129 9.88836 52.4144 9.28674C53.016 8.68518 53.8322 8.34741 54.683 8.34729H62.017C62.8678 8.34735 63.6839 8.68511 64.2855 9.28674C64.8872 9.88838 65.2249 10.7045 65.225 11.5553V27.818L76.4174 38.526H76.4164C77.6796 39.7338 77.8045 41.8231 76.5551 43.1178C75.9654 43.7291 75.1571 44.0817 74.308 44.0983C73.4594 44.1147 72.6386 43.7948 72.0258 43.2076L40.3217 12.9147V12.9137C40.2364 12.8322 40.1223 12.7867 40.0043 12.7867C39.8865 12.7868 39.7731 12.8323 39.6879 12.9137V12.9147L7.98669 43.2047L7.98767 43.2057C7.67391 43.5072 7.30215 43.7418 6.8949 43.8951C6.48766 44.0484 6.0532 44.1171 5.61853 44.0973C5.18385 44.0774 4.75718 43.9696 4.3656 43.7799C3.97391 43.5901 3.62424 43.3218 3.33923 42.9928V42.9918C2.1895 41.6688 2.37159 39.7015 3.59119 38.525L3.59412 38.5231L36.0892 7.43323C37.0784 6.44053 38.505 5.90295 40.0004 5.90295Z" fill="#409BF1" stroke="#409BF1" stroke-width="1.52778"/>
<defs>
<linearGradient id="paint0_linear_3123_12100" x1="39.9971" y1="13.8571" x2="39.9971" y2="72.0559" gradientUnits="userSpaceOnUse">
<stop stop-color="#64B9F6"/>
<stop offset="1" stop-color="#409BF1"/>
</linearGradient>
</defs>
</svg>
