<svg width="87" height="80" viewBox="0 0 87 80" fill="none" xmlns="http://www.w3.org/2000/svg">
<path d="M70.2849 55.3141C69.2645 55.3104 68.2872 54.9187 67.5665 54.2247C66.8459 53.5307 66.4405 52.5907 66.4391 51.6104C66.4391 50.629 66.8448 49.6879 67.5671 48.9939C68.2893 48.3 69.2689 47.9102 70.2903 47.9102C71.3118 47.9102 72.2913 48.3 73.0136 48.9939C73.7358 49.6879 74.1416 50.629 74.1416 51.6104C74.1359 52.5914 73.7277 53.5307 73.0057 54.2245C72.2837 54.9182 71.306 55.3086 70.2849 55.3141Z" fill="white"/>
<path d="M86.5511 48.6924C86.0636 51.468 83.5178 53.2722 80.5747 53.2722H3.75736C2.76189 53.2699 1.80785 52.889 1.10377 52.2129C0.3997 51.5368 0.00286045 50.6203 0 49.6639V43.2106C0.000478814 40.271 1.21624 37.4519 3.37989 35.3734C5.54354 33.2949 8.47788 32.1273 11.5375 32.1273C12.3861 32.1273 13.1806 31.7457 13.6861 31.0691L21.2676 20.9225L21.4662 20.6797C21.5385 20.6103 21.5926 20.5236 21.6829 20.4542C22.8126 19.5858 24.2302 18.8062 25.5649 18.8062H48.829C49.7043 18.8062 50.5736 18.9632 51.4141 19.2075C52.1667 19.4262 52.9058 19.6602 53.9265 20.3327L57.4474 23.7849L68.2807 34.4189L69.0733 34.523L79.8525 36.119C81.6219 36.8285 83.0844 37.8867 83.915 39.6735L85.0525 44.4267C85.0525 44.4267 87.1632 45.3634 86.5493 48.6942L86.5511 48.6924Z" fill="url(#paint0_linear_3123_12112)"/>
<path d="M86.5493 48.6929C86.0618 51.4685 83.516 53.2727 80.5729 53.2727H3.75556C1.69722 53.2727 0 51.642 0 49.6644V47.6347C0 49.6124 1.69722 51.243 3.75556 51.243H80.5729C83.516 51.243 86.0618 49.4389 86.5493 46.6633C86.5493 46.6286 86.5674 46.6112 86.5674 46.5765C86.6937 47.1317 86.7118 47.8429 86.5493 48.6929Z" fill="#64B9F6"/>
<path d="M78.881 51.5495C78.8812 52.6093 78.6641 53.6588 78.2421 54.638C77.8201 55.6172 77.2014 56.5069 76.4214 57.2564C75.6414 58.0058 74.7153 58.6002 73.6962 59.0057C72.677 59.4112 71.5847 59.6197 70.4816 59.6195C68.8223 59.6181 67.2008 59.1443 65.8218 58.2577C64.4428 57.3712 63.3683 56.1119 62.734 54.6388C62.0997 53.1658 61.9341 51.5451 62.2582 49.9817C62.5822 48.4182 63.3813 46.9822 64.5546 45.8549C65.7278 44.7277 67.2225 43.9599 68.8498 43.6486C70.477 43.3372 72.1638 43.4963 73.697 44.1057C75.2302 44.7151 76.541 45.7475 77.4636 47.0725C78.3863 48.3974 78.8796 49.9553 78.881 51.5495Z" fill="white"/>
<path d="M85.6335 44.7619H81.3544C81.0849 44.762 80.8219 44.6829 80.6005 44.5353C80.3791 44.3877 80.21 44.1787 80.1157 43.9361L79.2509 41.7157C79.1759 41.5235 79.1505 41.3167 79.1769 41.113C79.2033 40.9093 79.2807 40.7148 79.4024 40.5461C79.5242 40.3774 79.6867 40.2396 79.876 40.1445C80.0653 40.0494 80.2758 39.9998 80.4895 40H84.5105L85.6335 44.7619Z" fill="#EDBC20"/>
<path d="M25.3465 51.5495C25.3467 52.6092 25.1297 53.6585 24.7078 54.6376C24.2859 55.6167 23.6673 56.5063 22.8875 57.2557C22.1077 58.0051 21.1819 58.5996 20.1629 59.0052C19.1439 59.4108 18.0518 59.6195 16.9488 59.6195C15.2896 59.6181 13.6681 59.1443 12.2891 58.2577C10.9101 57.3712 9.83558 56.1119 9.20128 54.6388C8.56699 53.1658 8.40141 51.5451 8.72545 49.9817C9.0495 48.4182 9.84863 46.9822 11.0219 45.8549C12.1951 44.7277 13.6898 43.9599 15.3171 43.6486C16.9443 43.3372 18.6311 43.4963 20.1643 44.1057C21.6975 44.7151 23.0082 45.7475 23.9309 47.0725C24.8536 48.3974 25.3451 49.9553 25.3465 51.5495Z" fill="#409BF1"/>
<path d="M17.095 55.314C16.0751 55.309 15.0985 54.9169 14.3782 54.2232C13.6578 53.5294 13.252 52.5903 13.2491 51.6103C13.249 51.0922 13.3622 50.5798 13.5814 50.1064C13.8005 49.633 14.1208 49.2091 14.5214 48.8622C14.9219 48.5153 15.3939 48.2532 15.9067 48.0928C16.4195 47.9323 16.9616 47.8772 17.498 47.931C18.0343 47.9847 18.553 48.1462 19.0202 48.4048C19.4875 48.6635 19.893 49.0136 20.2105 49.4324C20.5279 49.8513 20.7502 50.3295 20.863 50.8362C20.9757 51.3429 20.9764 51.8667 20.865 52.3736C20.6795 53.2033 20.2046 53.9473 19.519 54.4823C18.8334 55.0173 17.9782 55.3096 17.095 55.314Z" fill="#64B9F6"/>
<path d="M78.8866 51.5498C78.8866 52.1466 78.8216 52.7173 78.688 53.2759C78.2787 55.0746 77.2418 56.6849 75.7492 57.8397C74.2566 58.9945 72.3981 59.6244 70.4817 59.6251C68.5674 59.6223 66.7114 58.9913 65.2213 57.8366C63.7312 56.682 62.6963 55.0729 62.2881 53.2759C62.1547 52.7095 62.0881 52.1305 62.0895 51.5498C62.0924 49.4122 62.9775 47.3629 64.5507 45.8514C66.1239 44.3398 68.2568 43.4894 70.4817 43.4867C72.7085 43.4872 74.8441 44.3364 76.4199 45.8481C77.9956 47.3598 78.8828 49.4104 78.8866 51.5498Z" fill="#409BF1"/>
<path d="M70.2849 55.3141C69.2645 55.3104 68.2872 54.9187 67.5665 54.2247C66.8459 53.5307 66.4405 52.5907 66.4391 51.6104C66.4391 50.629 66.8448 49.6879 67.5671 48.9939C68.2893 48.3 69.2689 47.9102 70.2903 47.9102C71.3118 47.9102 72.2913 48.3 73.0136 48.9939C73.7358 49.6879 74.1416 50.629 74.1416 51.6104C74.1359 52.5914 73.7277 53.5307 73.0057 54.2245C72.2837 54.9182 71.306 55.3086 70.2849 55.3141Z" fill="#64B9F6"/>
<path d="M60.3905 34.5231H23.6167C23.0646 34.5231 22.5199 34.4006 22.0251 34.1652C21.5303 33.9299 21.0987 33.5879 20.7639 33.1661C20.4292 32.7442 20.2003 32.2538 20.0951 31.7331C19.9898 31.2123 20.0111 30.6752 20.1573 30.1637L21.2677 26.2778C21.5648 25.2385 22.2089 24.3216 23.1011 23.6681C23.9932 23.0147 25.0841 22.6608 26.2059 22.6609H50.7867C51.188 22.6609 51.5736 22.8101 51.8628 23.0772L61.4666 31.9591C62.4723 32.889 61.788 34.5231 60.3905 34.5231Z" fill="#FAFDFC"/>
<path d="M35.425 22.6626H36.976V34.5266H35.425" fill="#64B9F6"/>
<path d="M3.64722 44.7392V47.0985C3.64722 47.3745 3.53309 47.6393 3.32992 47.8345C3.12676 48.0297 2.85121 48.1393 2.56389 48.1393H0V43.6984H2.56389C2.70615 43.6984 2.84703 43.7253 2.97846 43.7776C3.1099 43.8299 3.22932 43.9066 3.32992 44.0032C3.43052 44.0999 3.51032 44.2146 3.56476 44.3409C3.6192 44.4672 3.64722 44.6025 3.64722 44.7392Z" fill="#EDBC20"/>
<defs>
<linearGradient id="paint0_linear_3123_12112" x1="43.3306" y1="18.8062" x2="43.3306" y2="53.2722" gradientUnits="userSpaceOnUse">
<stop stop-color="#64B9F6"/>
<stop offset="1" stop-color="#409BF1"/>
</linearGradient>
</defs>
</svg>
