<svg width="80" height="80" viewBox="0 0 80 80" fill="none" xmlns="http://www.w3.org/2000/svg">
<path d="M18.2876 77.7214C17.0461 77.7214 16.0415 76.7168 16.0415 75.4753V70.9831C16.0415 69.7416 17.0461 68.737 18.2876 68.737C19.5291 68.737 20.5337 69.7416 20.5337 70.9831V75.4753C20.5337 76.7168 19.5291 77.7214 18.2876 77.7214Z" fill="#64B9F6"/>
<path d="M63.2095 77.7214C61.968 77.7214 60.9634 76.7168 60.9634 75.4753V70.9831C60.9634 69.7416 61.968 68.737 63.2095 68.737C64.451 68.737 65.4556 69.7416 65.4556 70.9831V75.4753C65.4556 76.7168 64.451 77.7214 63.2095 77.7214Z" fill="#64B9F6"/>
<path d="M15.2928 42.3828V22.168C15.2928 20.9265 14.2882 19.9219 13.0468 19.9219H8.55457C7.31307 19.9219 6.30847 20.9265 6.30847 22.168V42.3828H15.2928Z" fill="url(#paint0_linear_3123_12343)"/>
<path d="M10.8007 19.9218C8.32427 19.9218 6.30847 17.906 6.30847 15.4296C6.30847 14.3178 7.2713 12.1018 8.87486 9.42583C9.2808 8.74841 10.0126 8.33393 10.8022 8.33423C11.5917 8.33453 12.3216 8.75035 12.7275 9.42778C14.3305 12.1029 15.2928 14.3181 15.2928 15.4296C15.2928 17.906 13.2771 19.9218 10.8007 19.9218Z" fill="#EDBC20"/>
<path d="M73.6913 42.3828V22.168C73.6913 20.9265 72.6867 19.9219 71.4452 19.9219H66.953C65.7115 19.9219 64.7069 20.9265 64.7069 22.168V42.3828H73.6913Z" fill="url(#paint1_linear_3123_12343)"/>
<path d="M69.1991 19.9219C66.7227 19.9219 64.7069 17.9061 64.7069 15.4297C64.7069 14.3182 65.6693 12.1029 67.2721 9.42797C67.6777 8.75114 68.4086 8.33681 69.1977 8.33637C69.9869 8.33592 70.7193 8.7492 71.1247 9.42602C72.7285 12.1019 73.6913 14.3179 73.6913 15.4297C73.6913 17.9061 71.6755 19.9219 69.1991 19.9219Z" fill="#EDBC20"/>
<path d="M54.9864 45.9752H24.4589C23.0527 45.9752 21.9149 44.8373 21.9149 43.4312V35.7993C21.9149 34.3932 23.0527 33.2554 24.4589 33.2554H54.9864C56.3925 33.2554 57.5303 34.3932 57.5303 35.7993V43.4312C57.5303 44.8373 56.3925 45.9752 54.9864 45.9752Z" fill="#868686"/>
<path fill-rule="evenodd" clip-rule="evenodd" d="M73.6912 42.3828H6.30843V71.582C6.30843 72.8235 7.31303 73.8281 8.55452 73.8281H71.4452C72.6866 73.8281 73.6912 72.8235 73.6912 71.582V42.3828Z" fill="url(#paint2_linear_3123_12343)"/>
<path d="M76.0871 37.8906H3.9126C2.67111 37.8906 1.6665 38.8952 1.6665 40.1367C1.6665 41.3782 2.67111 42.3828 3.9126 42.3828H6.30843H73.6912H76.0871C77.3286 42.3828 78.3332 41.3782 78.3332 40.1367C78.3332 38.8952 77.3286 37.8906 76.0871 37.8906Z" fill="#409BF1"/>
<path fill-rule="evenodd" clip-rule="evenodd" d="M73.6913 42.3828V71.582C73.6913 72.8235 72.6867 73.8281 71.4452 73.8281H39.9999V42.3828H73.6913Z" fill="url(#paint3_linear_3123_12343)"/>
<path d="M46.7382 46.875L51.2303 55.8594L46.7382 64.8438H33.2616L28.7694 55.8594L33.2616 46.875H46.7382Z" fill="#C1E3FC"/>
<path d="M33.2616 46.875V64.8438H22.0311C20.7732 64.8438 19.785 63.8553 19.785 62.5977V49.1211C19.785 47.8631 20.7732 46.875 22.0311 46.875H33.2616Z" fill="#C1E3FC"/>
<path d="M39.9999 46.875V64.8438H46.7382L51.2303 55.8594L46.7382 46.875H39.9999Z" fill="#C1E3FC"/>
<path d="M60.2147 49.1211V62.5977C60.2147 63.8553 59.2266 64.8438 57.9686 64.8438H46.7382V46.875H57.9686C59.2266 46.875 60.2147 47.8631 60.2147 49.1211Z" fill="#C1E3FC"/>
<path d="M55.6665 33.5523L52.8825 27.9975C52.5288 27.2889 51.9846 26.6928 51.3111 26.2763C50.6375 25.8597 49.8612 25.639 49.0693 25.639C48.2773 25.639 47.501 25.8597 46.8274 26.2763C46.1539 26.6928 45.6098 27.2889 45.2561 27.9975L42.472 33.5523H55.6665Z" fill="#AA2B24"/>
<path d="M37.1944 33.5523L34.4104 27.9975C34.0567 27.2889 33.5126 26.6928 32.839 26.2763C32.1655 25.8597 31.3892 25.639 30.5972 25.639C29.8053 25.639 29.0289 25.8597 28.3554 26.2763C27.6819 26.6928 27.1377 27.2889 26.784 27.9975L24 33.5523H37.1944Z" fill="#559B38"/>
<path d="M43.6465 25.3585C43.2928 24.6499 42.7487 24.0539 42.0751 23.6373C41.4016 23.2207 40.6253 23 39.8333 23C39.0413 23 38.265 23.2207 37.5915 23.6373C36.9179 24.0539 36.3738 24.6499 36.0201 25.3585L31.9166 33.5523H47.75L43.6465 25.3585Z" fill="#F3A845"/>
<defs>
<linearGradient id="paint0_linear_3123_12343" x1="10.8007" y1="19.9219" x2="10.8007" y2="42.3828" gradientUnits="userSpaceOnUse">
<stop stop-color="#64B9F6"/>
<stop offset="1" stop-color="#409BF1"/>
</linearGradient>
<linearGradient id="paint1_linear_3123_12343" x1="69.1991" y1="19.9219" x2="69.1991" y2="42.3828" gradientUnits="userSpaceOnUse">
<stop stop-color="#64B9F6"/>
<stop offset="1" stop-color="#409BF1"/>
</linearGradient>
<linearGradient id="paint2_linear_3123_12343" x1="39.9998" y1="37.8906" x2="39.9998" y2="73.8281" gradientUnits="userSpaceOnUse">
<stop stop-color="#64B9F6"/>
<stop offset="1" stop-color="#409BF1"/>
</linearGradient>
<linearGradient id="paint3_linear_3123_12343" x1="59.1665" y1="37.8906" x2="59.1665" y2="73.8281" gradientUnits="userSpaceOnUse">
<stop stop-color="#64B9F6"/>
<stop offset="1" stop-color="#409BF1"/>
</linearGradient>
</defs>
</svg>
