<svg width="80" height="80" viewBox="0 0 80 80" fill="none" xmlns="http://www.w3.org/2000/svg">
<path d="M66.0538 13.9838C68.0764 15.1515 69.7026 17.9685 69.6961 20.2825L69.6308 43.2984C69.6242 45.6225 67.9873 46.5555 65.9647 45.3877L45.9348 33.8233C43.9207 32.6605 42.2945 29.8437 42.301 27.5195L42.3665 4.50366C42.373 2.18958 44.01 1.25678 46.0241 2.4195L66.0538 13.9838Z" fill="#64B9F6"/>
<path d="M68.6082 45.3366L62.9912 48.6108C62.3656 48.9695 61.5138 48.9169 60.5688 48.371L40.537 36.8046C38.6469 35.7127 37.1163 33.078 37.1296 30.9079L37.1962 7.89466C37.1962 6.81642 37.5821 6.07162 38.1944 5.71162L43.8112 2.43738C43.1989 2.79738 42.8262 3.55594 42.8262 4.62042L42.76 27.6337C42.7467 29.8031 44.2773 32.4521 46.1674 33.5433L66.199 45.0967C67.1309 45.642 67.9958 45.6953 68.6082 45.3366Z" fill="#409BF1"/>
<path d="M60.6533 16.9684C62.7947 18.2049 64.5312 21.2122 64.5242 23.673L64.4589 46.6889C64.4518 49.1497 62.7042 50.146 60.5626 48.9095L40.5328 37.3452C38.3914 36.1087 36.6549 33.1009 36.6618 30.6401L36.727 7.62422C36.7341 5.16342 38.4818 4.16758 40.6234 5.40406L60.6533 16.9684ZM63.983 46.414L64.0483 23.3981C64.0544 21.2404 62.5298 18.5994 60.6517 17.5151L40.6218 5.95094C38.7352 4.86166 37.2005 5.73638 37.1944 7.89414L37.1291 30.91C37.123 33.0778 38.6477 35.7188 40.5342 36.8081L60.5642 48.3724C62.4422 49.4565 63.977 48.5818 63.983 46.414Z" fill="#409BF1"/>
<path d="M70.1521 20.4061L70.0856 43.4193C70.0856 44.6438 69.6464 45.4958 68.9542 45.9085L63.324 49.1827C64.0161 48.7701 64.4553 47.9049 64.4553 46.6936L64.5219 23.6673C64.5352 21.2185 62.7917 18.2101 60.6486 16.9726L40.6168 5.40621C39.552 4.78029 38.567 4.72701 37.8616 5.13981L43.4917 1.86557C44.1971 1.45293 45.1688 1.50621 46.2469 2.13197L66.2785 13.6977C68.4219 14.9358 70.1654 17.9443 70.1521 20.4061Z" fill="#64B9F6"/>
<path d="M64.3262 51.4308V51.4444L64.2331 52.1763V52.1892L62.3209 61.3622C62.0281 63.6252 60.6971 65.6347 58.7139 66.7798L40.4523 77.4012C39.2944 78.0798 38.0033 78.4124 36.6989 78.3995C35.4477 78.3859 34.1966 78.0531 33.0785 77.4142L14.7105 66.8063C12.7006 65.6483 11.3697 63.6251 11.0768 61.3361L9.84766 51.4307L37.1734 67.2033L64.3262 51.4308Z" fill="#64B9F6"/>
<path d="M62.8613 53.9811L40.9418 66.7174C38.6127 68.0734 35.7383 68.0734 33.4093 66.7324L11.3129 53.9667C9.36711 52.846 9.35239 50.0159 11.3129 48.8807L33.2324 36.1452C35.5613 34.7884 38.4359 34.7884 40.7649 36.1302L62.8613 48.8959C64.8071 50.0159 64.8218 52.846 62.8613 53.9811Z" fill="#2B7EE5"/>
<path d="M37.1642 67.0709C35.9645 67.0709 34.7816 66.7544 33.7405 66.1555L11.6461 53.3904C10.9378 52.9822 10.5139 52.2478 10.5139 51.4257C10.5126 50.604 10.9363 49.868 11.6461 49.4568L33.5662 36.7208C34.6099 36.1125 35.8006 35.791 37.0094 35.791C38.2091 35.791 39.392 36.1075 40.4318 36.7067L62.5286 49.472C63.237 49.8795 63.6595 50.6133 63.6608 51.435C63.6621 52.2571 63.2384 52.9939 62.5274 53.4053L40.6072 66.1419C39.5635 66.7496 38.373 67.0709 37.1642 67.0709Z" fill="#409BF1"/>
<path d="M11.9396 52.1258L33.4639 64.5603C35.7331 65.8696 38.5339 65.8696 40.803 64.5477L62.1587 52.1384C62.8459 51.7363 63.2998 51.1141 63.4812 50.427C63.2996 49.7395 62.8459 49.1171 62.1587 48.715L40.6343 36.2805C38.3652 34.9705 35.5644 34.9705 33.2953 36.2937L11.9396 48.7024C11.2393 49.1045 10.7985 49.7134 10.6171 50.4011C10.7987 51.0881 11.2395 51.7237 11.9396 52.1258Z" fill="#64B9F6"/>
<path d="M64.2331 52.1893L62.3209 61.3623C62.0281 63.6253 60.6971 65.6348 58.7139 66.7799L40.4523 77.4013C39.2944 78.0799 38.0033 78.4125 36.6989 78.3996C36.7256 76.2568 36.8541 76.9196 37.3333 74.8301C38.1451 71.1965 40.9003 68.3617 43.5491 65.7393L44.8536 64.4349L62.862 53.9863C63.5809 53.5607 64.0468 52.9082 64.2331 52.1893Z" fill="#64B9F6"/>
<path d="M28.7523 41.1169C28.7733 38.3412 29.7618 36.3641 31.3602 35.4388L28.3949 37.1632C26.7965 38.0884 25.8082 40.0649 25.8082 42.8419C25.8027 44.2998 26.0675 45.8385 26.5416 47.3689L31.6299 50.3086C29.8642 47.4185 28.7523 44.0966 28.7523 41.1169Z" fill="#F7E791"/>
<path d="M44.0835 57.3745C45.7238 56.4058 46.7544 54.3873 46.7544 51.5066C46.7753 45.7439 42.6953 38.6783 37.6481 35.7753C35.1244 34.3038 32.8112 34.1777 31.1497 35.1442L28.1844 36.8482C29.8457 35.9014 32.1592 36.0281 34.6827 37.5002C39.7301 40.402 43.8099 47.4682 43.7889 53.231C43.7889 54.6855 43.5249 55.9185 43.054 56.9087L43.9721 57.4388L44.0835 57.3745Z" fill="#EDBC20"/>
<path d="M25.7983 42.8495C25.8143 37.2332 29.8016 34.961 34.689 37.7828C39.5765 40.6045 43.5514 47.4741 43.5355 53.0898C43.5314 54.545 43.2568 55.7706 42.7738 56.7466L43.0562 56.91C43.5247 55.921 43.7864 54.6874 43.7904 53.2369C43.8067 47.4673 39.7248 40.397 34.6896 37.4898C29.6544 34.5826 25.5459 36.9239 25.5295 42.6941C25.5255 44.142 25.7781 45.6705 26.2381 47.1941L26.5319 47.3636C26.0589 45.8373 25.7941 44.3028 25.7983 42.8495ZM36.0912 34.4258L36.0875 35.7093C36.0882 35.4689 35.9299 35.2284 35.6133 35.0457C34.9799 34.6801 33.9578 34.6799 33.3287 35.0455C33.0181 35.226 32.8624 35.4626 32.8616 35.7001L32.8653 34.4165C32.8659 34.1793 33.0216 33.9425 33.3323 33.762C33.9615 33.3964 34.9835 33.3964 35.617 33.7621C35.9335 33.945 36.0919 34.1853 36.0912 34.4258Z" fill="#DDC12A"/>
<path d="M35.8 33.6558C36.5306 34.0776 36.5344 34.7664 35.8055 35.1901C35.0795 35.612 33.8906 35.6118 33.16 35.1901C32.4261 34.7664 32.4221 34.0776 33.148 33.6558C33.877 33.2322 35.0661 33.232 35.8 33.6558ZM33.3429 35.0837C33.9728 35.4474 34.9951 35.4474 35.621 35.0835C36.2501 34.7179 36.2467 34.1259 35.6168 33.7621C34.9834 33.3965 33.9613 33.3963 33.3322 33.7619C32.7063 34.1259 32.7096 34.7181 33.3429 35.0837Z" fill="#CFD8DD"/>
<path d="M38.3841 28.5563L36.195 29.7183H32.9102C32.75 29.632 31.4384 28.925 31.5984 29.0112C31.4382 28.9248 30.5948 28.4699 30.755 28.5563L31.2424 27.8069L33.298 27.0762H35.9768L36.1464 27.1399C36.3124 27.2027 38.0968 27.8792 37.9307 27.8163L38.3841 28.5563Z" fill="#72D4E6"/>
<path d="M32.9103 29.7184L32.1515 31.5542C31.268 31.0259 30.1895 30.381 30.3863 30.4984L29.3923 29.9045L30.7571 28.5587C30.9191 28.6459 33.1515 29.8483 32.9103 29.7184Z" fill="#4FC9E0"/>
<path d="M36.8857 31.5542H32.1515L32.2193 31.3917L32.9102 29.7184H36.195C36.2574 29.8846 36.9483 31.7205 36.8857 31.5542Z" fill="#43ABBE"/>
<path d="M39.5644 29.9234C39.4015 30.0226 36.6431 31.7021 36.8857 31.5543L36.1948 29.7184L36.2393 29.6949C36.4289 29.5943 38.5446 28.4712 38.3839 28.5565L39.5644 29.9234Z" fill="#4FC9E0"/>
<path d="M36.8865 31.5537L39.5649 29.9249L34.4961 36.7441L36.8865 31.5537Z" fill="#3B97A8"/>
<path d="M36.8863 31.5537L34.4959 36.7441L33.6575 34.8913L33.2527 33.9953L33.0799 33.6097L32.9503 33.3249L32.1519 31.5537H36.8863Z" fill="#4FC9E0"/>
<path d="M29.3921 29.9056L32.1521 31.5536L34.4961 36.744L29.3921 29.9056Z" fill="#43ABBE"/>
<path d="M31.2417 27.8064L29.3921 29.9056L30.7569 28.5584L31.2417 27.8064Z" fill="#43ABBE"/>
<path d="M36.0068 34.7109C35.9329 34.8469 35.8071 34.9754 35.6211 35.0836C34.995 35.4474 33.9729 35.4474 33.343 35.0836C33.1556 34.9754 33.0284 34.8469 32.9531 34.7109H32.6846C32.7668 34.8865 32.9217 35.0524 33.1599 35.19C33.8905 35.6117 35.0795 35.6121 35.8054 35.19C36.0422 35.0525 36.1951 34.8866 36.2753 34.7109H36.0068Z" fill="#CFD8DD"/>
<path d="M36.35 34.4265L36.3463 35.71C36.3455 35.9864 36.1642 36.2627 35.8017 36.4734C35.0757 36.8953 33.8868 36.8952 33.1562 36.4734C32.7865 36.26 32.602 35.9792 32.6028 35.6992L32.6065 34.4156C32.6057 34.6956 32.7901 34.9764 33.1599 35.1899C33.8905 35.6116 35.0794 35.6118 35.8053 35.1899C36.1679 34.9792 36.3492 34.7028 36.35 34.4265Z" fill="#B0B8BC"/>
<path d="M25.3597 46.293C25.3597 46.293 29.458 53.0666 44.7413 58.0856C44.7413 58.0856 39.7343 50.3464 25.3597 46.293Z" fill="#409BF1"/>
</svg>
