<svg width="80" height="80" viewBox="0 0 80 80" fill="none" xmlns="http://www.w3.org/2000/svg">
<g clip-path="url(#clip0_3123_12373)">
<path d="M37.5487 26.5415C35.559 24.248 33.5282 21.5399 34.794 18.7799C39.8661 7.72167 38.3049 4.33426 35.9727 0.269413L35.9777 0.265198C34.5136 0.27965 33.1001 1.65521 32.5654 4.38665C30.8626 13.0681 19.0753 26.9508 18.4593 30.7991C17.7441 35.2666 19.4459 49.0617 13.4438 54.1657C43.0068 78.1527 39.4566 28.7404 37.5487 26.5415Z" fill="#FECAC0"/>
<path d="M31.7787 26.0717C34.0311 23.8712 36.5712 25.9168 36.5712 28.1621V38.683C36.5712 62.3497 19.9184 58.65 13.4428 54.1658C13.3678 54.3422 11.5643 71.4613 26.8741 67.5972C31.1434 56.8147 40.1557 62.1733 40.1557 42.2675V26.926C40.1557 25.4626 39.5745 24.0591 38.5398 23.0242C37.5051 21.9893 36.1017 21.4078 34.6382 21.4075C34.6382 21.4075 40.1567 14.9304 40.1567 8.15756C40.1567 2.86889 38.0184 0.245438 35.9787 0.26531L35.9737 0.269525C39.7836 12.061 26.2853 18.6937 31.3927 24.6556L31.7787 26.0717Z" fill="#FEB3A5"/>
<path d="M9.7349 52.7356L4.27457 58.1959C3.64757 58.823 3.64757 59.8395 4.27457 60.4665L22.9161 79.108C23.5431 79.735 24.5597 79.735 25.1867 79.108L30.647 73.6477C31.274 73.0207 31.274 72.0041 30.647 71.3771L12.0055 52.7356C11.3785 52.1086 10.3619 52.1086 9.7349 52.7356Z" fill="url(#paint0_linear_3123_12373)"/>
<path d="M24.4663 74.4806C25.3275 74.4806 26.0255 73.7825 26.0255 72.9213C26.0255 72.0602 25.3275 71.3621 24.4663 71.3621C23.6052 71.3621 22.9071 72.0602 22.9071 72.9213C22.9071 73.7825 23.6052 74.4806 24.4663 74.4806Z" fill="white"/>
<path d="M27.8714 38.3189C32.7783 26.8951 29.3016 20.6047 34.6372 20.6047C35.7011 20.6047 35.6982 22.2105 34.6372 22.2105C31.3355 22.2105 34.1079 27.8689 29.3469 38.9526C28.9317 39.9193 27.4465 39.3077 27.8714 38.3189Z" fill="#F4A290"/>
<path d="M50.9512 63.3371C52.0066 64.6122 52.8465 66.0512 53.4375 67.5973C68.7473 71.4614 66.944 54.3423 66.8688 54.1659C64.8414 52.4427 63.6949 49.7283 63.0349 46.717L50.9512 63.3371Z" fill="#FEB3A5"/>
<path d="M63.0349 46.7168C61.7408 40.8093 62.3268 33.7581 61.8531 30.7995C61.237 26.9512 49.4499 13.0685 47.747 4.38705C46.4648 -2.15051 40.1556 -0.9265 40.1556 8.15785C40.1556 14.9307 45.6741 21.4078 45.6741 21.4078C44.2105 21.4078 42.8069 21.9892 41.772 23.0241C40.7371 24.0591 40.1556 25.4627 40.1556 26.9263V42.2678C40.1556 58.8319 46.3957 57.9042 50.9509 63.3373C55.5618 58.9246 59.6497 53.2893 63.0349 46.7168Z" fill="#FECAC0"/>
<path d="M49.6529 73.6688L55.1132 79.1292C55.7402 79.7562 56.7568 79.7562 57.3838 79.1292L76.0253 60.4877C76.6523 59.8607 76.6523 58.8441 76.0253 58.2171L70.565 52.7568C69.938 52.1298 68.9214 52.1298 68.2944 52.7568L49.6529 71.3983C49.0259 72.0253 49.0259 73.0418 49.6529 73.6688Z" fill="url(#paint1_linear_3123_12373)"/>
<path d="M55.8454 74.4806C56.7065 74.4806 57.4046 73.7825 57.4046 72.9213C57.4046 72.0602 56.7065 71.3621 55.8454 71.3621C54.9842 71.3621 54.2861 72.0602 54.2861 72.9213C54.2861 73.7825 54.9842 74.4806 55.8454 74.4806Z" fill="white"/>
<path d="M50.9643 38.9526C46.1903 27.8382 48.9772 22.2105 45.6741 22.2105C44.6102 22.2105 44.6132 20.6047 45.6741 20.6047C51.0081 20.6047 47.5338 26.8972 52.4399 38.3189C52.8638 39.3055 51.381 39.9223 50.9643 38.9526Z" fill="#F4A290"/>
</g>
<defs>
<linearGradient id="paint0_linear_3123_12373" x1="4.74886" y1="59.3946" x2="22.9169" y2="52.2968" gradientUnits="userSpaceOnUse">
<stop offset="0.184144" stop-color="#64B9F6"/>
<stop offset="1" stop-color="#409BF1"/>
</linearGradient>
<linearGradient id="paint1_linear_3123_12373" x1="56.3119" y1="78.6549" x2="49.2141" y2="60.4869" gradientUnits="userSpaceOnUse">
<stop offset="0.184144" stop-color="#64B9F6"/>
<stop offset="1" stop-color="#409BF1"/>
</linearGradient>
<clipPath id="clip0_3123_12373">
<rect width="80" height="80" fill="white"/>
</clipPath>
</defs>
</svg>
