<svg width="80" height="80" viewBox="0 0 80 80" fill="none" xmlns="http://www.w3.org/2000/svg">
<path d="M33.8559 61.6129C34.5122 62.1217 34.6938 63.036 34.2818 63.757L31.6668 68.3333L30.0002 70.8333C27.5062 74.4438 24.2532 77.3669 20.0894 78.7519C17.3784 79.6698 14.5052 79.9939 11.664 79.7065C11.1431 79.6538 10.6739 79.3437 10.4561 78.8676C10.4386 78.8292 10.4215 78.7907 10.4049 78.7519C8.819 75.5213 8.12307 71.9264 8.38874 68.3374C8.6306 65.07 9.66152 61.915 11.3868 59.1409C11.7023 58.6337 12.2835 58.3641 12.8788 58.414L31.2834 59.9586C31.6044 59.9856 31.9106 60.1049 32.1652 60.3022L33.8559 61.6129Z" fill="#2B7EE5"/>
<path d="M32.3717 60.361C33.4325 61.0939 33.6977 62.5483 32.9639 63.6085L30.1084 67.7342L28.6809 69.8055C26.187 73.4161 22.5865 76.1177 18.4226 77.5027C15.7517 78.407 12.9233 78.7351 10.1232 78.4696C9.52266 78.4127 8.97573 78.0572 8.73811 77.5027C7.15226 74.2722 6.45632 70.6772 6.72199 67.0882C6.98766 63.4992 8.20533 60.0459 10.2496 57.0841L14.5354 50.8744C15.2677 49.8134 16.7216 49.5473 17.7822 50.2801L32.3717 60.361Z" fill="url(#paint0_linear_3123_12209)"/>
<path d="M51.2386 22.3627L46.6322 19.1816L25.9555 49.1229L30.5618 52.304L51.2386 22.3627Z" fill="url(#paint1_linear_3123_12209)"/>
<path d="M64.5927 12.8763L61.1379 10.4906L57.1617 16.2485C56.8484 16.7022 56.4488 17.0897 55.9857 17.389C55.5226 17.6883 55.0051 17.8934 54.4628 17.9926C53.9204 18.0919 53.3638 18.0834 52.8247 17.9675C52.2857 17.8517 51.7747 17.6308 51.321 17.3174C50.4048 16.6847 49.7774 15.7139 49.577 14.6186C49.3765 13.5233 49.6194 12.3932 50.2521 11.4769L54.2284 5.71897L50.7736 3.33325L47.1728 8.54749C46.1041 10.095 45.4875 11.9096 45.392 13.7878C45.2965 15.6661 45.7259 17.5338 46.6322 19.1817L51.2385 22.3625C53.1005 22.6262 54.9993 22.3663 56.7219 21.6117C58.4446 20.8571 59.923 19.6378 60.9917 18.0902L64.5927 12.8763Z" fill="#409BF1"/>
<path d="M61.1379 10.4906L54.2284 5.71897L51.8435 9.17325L58.7531 13.9448L61.1379 10.4906Z" fill="#409BF1"/>
<path d="M22.1167 59.9999C22.1167 59.9999 21.033 54.7394 22.2293 52.9661L28.727 43.3333L35.0001 47.768L28.5012 57.4009C27.3059 59.1742 22.1167 59.9999 22.1167 59.9999Z" fill="url(#paint2_linear_3123_12209)"/>
<path d="M77.0832 78.6706V79.8042H0C0 79.8042 10.8143 56.0444 30.3118 69.67C31.9672 67.204 34.2046 65.1838 36.8262 63.7879C39.4479 62.3921 42.373 61.6636 45.3431 61.6669H47.6102C50.5412 61.6515 53.4313 62.3542 56.0279 63.7138C58.6245 65.0733 60.8485 67.0483 62.5054 69.4659C63.8676 68.8008 65.3651 68.4594 66.881 68.4684C68.2213 68.4666 69.5488 68.7293 70.7874 69.2413C72.026 69.7534 73.1514 70.5048 74.0991 71.4526C75.0468 72.4003 75.7982 73.5257 76.3103 74.7643C76.8223 76.0029 77.085 77.3303 77.0832 78.6706Z" fill="#844E2B"/>
<defs>
<linearGradient id="paint0_linear_3123_12209" x1="13.3334" y1="54.1667" x2="21.6667" y2="66.6667" gradientUnits="userSpaceOnUse">
<stop stop-color="#64B9F6"/>
<stop offset="1" stop-color="#409BF1"/>
</linearGradient>
<linearGradient id="paint1_linear_3123_12209" x1="43.3336" y1="26.6666" x2="46.6915" y2="29.2023" gradientUnits="userSpaceOnUse">
<stop stop-color="#F3D351"/>
<stop offset="0.723408" stop-color="#DDA415"/>
</linearGradient>
<linearGradient id="paint2_linear_3123_12209" x1="25.156" y1="50.3645" x2="29.8018" y2="54.9026" gradientUnits="userSpaceOnUse">
<stop stop-color="#409BF1"/>
<stop offset="1" stop-color="#2B7EE5"/>
</linearGradient>
</defs>
</svg>
