<svg width="106" height="106" viewBox="0 0 106 106" fill="none" xmlns="http://www.w3.org/2000/svg">
<g filter="url(#filter0_d_3618_13527)">
<g filter="url(#filter1_d_3618_13527)">
<circle cx="52.9046" cy="54.4897" r="33.264" fill="#FDECC2"/>
</g>
<g filter="url(#filter2_i_3618_13527)">
<circle cx="52.8647" cy="54.4496" r="31.6479" fill="url(#paint0_linear_3618_13527)"/>
</g>
<path d="M92.4245 54.4496C92.4245 76.2979 74.7129 94.0095 52.8646 94.0095C31.0163 94.0095 13.3047 76.2979 13.3047 54.4496C13.3047 32.6012 31.0163 14.8896 52.8646 14.8896C74.7129 14.8896 92.4245 32.6012 92.4245 54.4496ZM14.985 54.4496C14.985 75.3699 31.9443 92.3292 52.8646 92.3292C73.7849 92.3292 90.7442 75.3699 90.7442 54.4496C90.7442 33.5292 73.7849 16.57 52.8646 16.57C31.9443 16.57 14.985 33.5292 14.985 54.4496Z" fill="url(#paint1_linear_3618_13527)"/>
<path d="M22.3473 27.1289L25.5442 23.932L28.7412 27.1289L25.5442 30.3258L22.3473 27.1289Z" fill="#E8E3D7"/>
<rect x="86.1113" y="68.7555" width="4.52113" height="4.52113" transform="rotate(-45 86.1113 68.7555)" fill="#E8E3D7"/>
<path d="M49.9512 36.0247C49.3978 35.5113 49.3178 34.6979 49.7978 34.1045C49.5311 35.2446 49.4311 35.4646 49.4911 34.7512" fill="white"/>
<path d="M68.0352 48.4578C67.4818 47.9444 67.4018 47.131 67.8818 46.5376C67.6151 47.6777 67.5151 47.8977 67.5751 47.1843" fill="white"/>
<path d="M55.139 52.189C55.0806 51.798 55.1973 51.3603 55.5767 51.1677C55.9443 50.9809 56.382 51.0335 56.6797 51.3311" fill="white"/>
<path d="M73.2249 61.2312C73.1665 60.8402 73.2833 60.4025 73.6626 60.2099C74.0303 60.0232 74.468 60.0757 74.7656 60.3733" fill="white"/>
<path d="M37.0391 42.0165C36.8033 42.4317 36.4957 42.8417 36.1472 43.1697C35.7679 43.5285 35.199 43.5798 34.7787 43.262" fill="white"/>
<path d="M33.6504 54.4496C33.4146 54.8648 33.1071 55.2748 32.7585 55.6028C32.3792 55.9616 31.8103 56.0129 31.39 55.6951" fill="white"/>
<path d="M50.0047 62.3616C49.277 62.3616 49.3054 61.2313 50.0332 61.2313L50.0047 62.3616Z" fill="white"/>
<path d="M55.659 70.2736C54.9313 70.2736 54.9597 69.1433 55.6875 69.1433L55.659 70.2736Z" fill="white"/>
<path d="M39.8329 32.9742C39.1051 32.9742 39.1336 31.8439 39.8613 31.8439L39.8329 32.9742Z" fill="white"/>
<path d="M62.4383 60.101C61.7106 60.101 61.739 58.9707 62.4668 58.9707L62.4383 60.101Z" fill="white"/>
<path d="M64.799 35.3033L64.8777 35.6324C64.886 35.6667 64.9132 35.6927 64.9477 35.6995L65.2239 35.7527C65.317 35.7708 65.322 35.902 65.2304 35.9269L64.9489 36.0037C64.9185 36.012 64.8948 36.0357 64.8863 36.0658L64.7819 36.4366C64.7573 36.5238 64.6335 36.5235 64.6095 36.436L64.5043 36.0522C64.4954 36.0194 64.4685 35.9946 64.4354 35.9881L64.2382 35.949C64.1442 35.9304 64.1412 35.7974 64.234 35.7743L64.4738 35.7152C64.506 35.7072 64.5312 35.6821 64.5392 35.6498L64.6252 35.3027C64.6477 35.2117 64.7772 35.2123 64.799 35.3033Z" fill="white"/>
<path d="M44.4553 70.3422L44.5339 70.6712C44.5422 70.7055 44.5694 70.7315 44.604 70.7383L44.8801 70.7915C44.9733 70.8096 44.9783 70.9409 44.8866 70.9657L44.6052 71.0426C44.5747 71.0508 44.5511 71.0745 44.5425 71.1046L44.4381 71.4754C44.4136 71.5626 44.2897 71.5623 44.2658 71.4748L44.1605 71.091C44.1516 71.0582 44.1247 71.0334 44.0916 71.0269L43.8944 70.9879C43.8004 70.9692 43.7975 70.8362 43.8903 70.8131L44.1301 70.754C44.1623 70.746 44.1874 70.7209 44.1954 70.6887L44.2814 70.3416C44.3039 70.2505 44.4334 70.2511 44.4553 70.3422Z" fill="white"/>
</g>
<defs>
<filter id="filter0_d_3618_13527" x="-0.00091362" y="4.72069e-05" width="105.812" height="105.731" filterUnits="userSpaceOnUse" color-interpolation-filters="sRGB">
<feFlood flood-opacity="0" result="BackgroundImageFix"/>
<feColorMatrix in="SourceAlpha" type="matrix" values="0 0 0 0 0 0 0 0 0 0 0 0 0 0 0 0 0 0 127 0" result="hardAlpha"/>
<feOffset dy="-1.584"/>
<feGaussianBlur stdDeviation="6.6528"/>
<feComposite in2="hardAlpha" operator="out"/>
<feColorMatrix type="matrix" values="0 0 0 0 1 0 0 0 0 0.827451 0 0 0 0 0.411765 0 0 0 0.5 0"/>
<feBlend mode="normal" in2="BackgroundImageFix" result="effect1_dropShadow_3618_13527"/>
<feBlend mode="normal" in="SourceGraphic" in2="effect1_dropShadow_3618_13527" result="shape"/>
</filter>
<filter id="filter1_d_3618_13527" x="15.839" y="17.4241" width="74.1305" height="74.1312" filterUnits="userSpaceOnUse" color-interpolation-filters="sRGB">
<feFlood flood-opacity="0" result="BackgroundImageFix"/>
<feColorMatrix in="SourceAlpha" type="matrix" values="0 0 0 0 0 0 0 0 0 0 0 0 0 0 0 0 0 0 127 0" result="hardAlpha"/>
<feOffset/>
<feGaussianBlur stdDeviation="1.9008"/>
<feComposite in2="hardAlpha" operator="out"/>
<feColorMatrix type="matrix" values="0 0 0 0 1 0 0 0 0 0.827451 0 0 0 0 0.411765 0 0 0 1 0"/>
<feBlend mode="normal" in2="BackgroundImageFix" result="effect1_dropShadow_3618_13527"/>
<feBlend mode="normal" in="SourceGraphic" in2="effect1_dropShadow_3618_13527" result="shape"/>
</filter>
<filter id="filter2_i_3618_13527" x="21.2168" y="22.8016" width="63.2949" height="64.8799" filterUnits="userSpaceOnUse" color-interpolation-filters="sRGB">
<feFlood flood-opacity="0" result="BackgroundImageFix"/>
<feBlend mode="normal" in="SourceGraphic" in2="BackgroundImageFix" result="shape"/>
<feColorMatrix in="SourceAlpha" type="matrix" values="0 0 0 0 0 0 0 0 0 0 0 0 0 0 0 0 0 0 127 0" result="hardAlpha"/>
<feOffset dy="1.584"/>
<feGaussianBlur stdDeviation="1.2672"/>
<feComposite in2="hardAlpha" operator="arithmetic" k2="-1" k3="1"/>
<feColorMatrix type="matrix" values="0 0 0 0 0 0 0 0 0 0 0 0 0 0 0 0 0 0 0.25 0"/>
<feBlend mode="normal" in2="shape" result="effect1_innerShadow_3618_13527"/>
</filter>
<linearGradient id="paint0_linear_3618_13527" x1="53.995" y1="23.3668" x2="22.7105" y2="56.9833" gradientUnits="userSpaceOnUse">
<stop stop-color="#C3971F"/>
<stop offset="1" stop-color="#DFBB77"/>
</linearGradient>
<linearGradient id="paint1_linear_3618_13527" x1="52.8646" y1="14.8896" x2="52.8646" y2="94.0095" gradientUnits="userSpaceOnUse">
<stop stop-color="#F5E2AE"/>
<stop offset="0.274038" stop-color="#FFFAEE"/>
<stop offset="0.5625" stop-color="#DBC896"/>
<stop offset="0.8125" stop-color="#FFFBF0"/>
</linearGradient>
</defs>
</svg>
