<svg width="80" height="80" viewBox="0 0 80 80" fill="none" xmlns="http://www.w3.org/2000/svg">
<circle cx="39.5603" cy="39.5599" r="35.0388" fill="#DBC896" fill-opacity="0.7"/>
<circle cx="39.562" cy="39.5599" r="31.6479" fill="url(#paint0_linear_3618_13550)"/>
<path d="M79.1198 39.5599C79.1198 61.4083 61.4083 79.1198 39.5599 79.1198C17.7116 79.1198 0 61.4083 0 39.5599C0 17.7116 17.7116 0 39.5599 0C61.4083 0 79.1198 17.7116 79.1198 39.5599ZM1.3279 39.5599C1.3279 60.6749 18.445 77.7919 39.5599 77.7919C60.6749 77.7919 77.7919 60.6749 77.7919 39.5599C77.7919 18.445 60.6749 1.3279 39.5599 1.3279C18.445 1.3279 1.3279 18.445 1.3279 39.5599Z" fill="#DBC896"/>
<path d="M9.04263 12.2393L12.2396 9.04234L15.4365 12.2393L12.2396 15.4362L9.04263 12.2393Z" fill="#E8E3D7"/>
<rect x="72.8066" y="53.8657" width="4.52113" height="4.52113" transform="rotate(-45 72.8066 53.8657)" fill="#E8E3D7"/>
<path d="M36.6484 21.135C36.095 20.6217 36.015 19.8082 36.4951 19.2148C36.2284 20.355 36.1284 20.575 36.1884 19.8616" fill="white" fill-opacity="0.4"/>
<path d="M54.7324 33.5681C54.179 33.0548 54.099 32.2413 54.5791 31.6479C54.3124 32.7881 54.2124 33.0081 54.2724 32.2947" fill="white" fill-opacity="0.4"/>
<path d="M41.8362 37.2994C41.7779 36.9083 41.8946 36.4706 42.2739 36.278C42.6416 36.0913 43.0793 36.1438 43.377 36.4415" fill="white" fill-opacity="0.4"/>
<path d="M59.9202 46.3416C59.8619 45.9506 59.9786 45.5129 60.3579 45.3203C60.7256 45.1335 61.1633 45.186 61.4609 45.4837" fill="white" fill-opacity="0.4"/>
<path d="M23.7363 27.1268C23.5006 27.542 23.193 27.952 22.8445 28.2801C22.4652 28.6389 21.8962 28.6901 21.476 28.3723" fill="white" fill-opacity="0.4"/>
<path d="M20.3477 39.5599C20.1119 39.9751 19.8043 40.3852 19.4558 40.7132C19.0765 41.072 18.5076 41.1232 18.0873 40.8055" fill="white" fill-opacity="0.4"/>
<path d="M36.702 47.472C35.9742 47.472 36.0027 46.3417 36.7305 46.3417L36.702 47.472Z" fill="white" fill-opacity="0.4"/>
<path d="M42.3544 55.3839C41.6266 55.3839 41.655 54.2537 42.3828 54.2537L42.3544 55.3839Z" fill="white" fill-opacity="0.4"/>
<path d="M26.5301 18.0845C25.8024 18.0845 25.8308 16.9542 26.5586 16.9542L26.5301 18.0845Z" fill="white" fill-opacity="0.4"/>
<path d="M49.1356 45.2113C48.4078 45.2113 48.4363 44.0811 49.1641 44.0811L49.1356 45.2113Z" fill="white" fill-opacity="0.4"/>
<path d="M51.4963 20.4137L51.5749 20.7427C51.5832 20.777 51.6104 20.8031 51.645 20.8099L51.9212 20.8631C52.0143 20.8811 52.0193 21.0124 51.9277 21.0372L51.6462 21.1141C51.6157 21.1224 51.5921 21.146 51.5835 21.1762L51.4792 21.5469C51.4546 21.6341 51.3307 21.6338 51.3068 21.5463L51.2015 21.1626C51.1927 21.1298 51.1658 21.1049 51.1326 21.0984L50.9354 21.0594C50.8414 21.0408 50.8385 20.9077 50.9313 20.8847L51.1711 20.8255C51.2033 20.8175 51.2284 20.7924 51.2364 20.7602L51.3225 20.4131C51.3449 20.322 51.4744 20.3226 51.4963 20.4137Z" fill="#F9E7B7" fill-opacity="0.4"/>
<path d="M31.1526 55.4525L31.2312 55.7816C31.2395 55.8159 31.2667 55.8419 31.3013 55.8487L31.5774 55.9019C31.6705 55.9199 31.6756 56.0512 31.5839 56.076L31.3024 56.1529C31.272 56.1612 31.2483 56.1848 31.2398 56.215L31.1354 56.5857C31.1109 56.673 30.987 56.6727 30.963 56.5852L30.8578 56.2014C30.8489 56.1686 30.822 56.1437 30.7889 56.1372L30.5917 56.0982C30.4977 56.0796 30.4947 55.9465 30.5876 55.9235L30.8273 55.8643C30.8596 55.8564 30.8847 55.8312 30.8927 55.799L30.9787 55.4519C31.0012 55.3609 31.1307 55.3614 31.1526 55.4525Z" fill="#F9E7B7" fill-opacity="0.4"/>
<defs>
<linearGradient id="paint0_linear_3618_13550" x1="40.6923" y1="8.47713" x2="9.4078" y2="42.0936" gradientUnits="userSpaceOnUse">
<stop stop-color="#214987"/>
<stop offset="1" stop-color="#2268D3"/>
</linearGradient>
</defs>
</svg>
