<svg width="53" height="53" viewBox="0 0 53 53" fill="none" xmlns="http://www.w3.org/2000/svg">
<path d="M26.72 52.1899C41.0794 52.1899 52.72 40.5493 52.72 26.1899C52.72 11.8305 41.0794 0.189941 26.72 0.189941C12.3606 0.189941 0.719971 11.8305 0.719971 26.1899C0.719971 40.5493 12.3606 52.1899 26.72 52.1899Z" fill="white"/>
<path d="M26.7199 50.4455C40.1159 50.4455 50.9755 39.5859 50.9755 26.1899C50.9755 12.7939 40.1159 1.93433 26.7199 1.93433C13.324 1.93433 2.46436 12.7939 2.46436 26.1899C2.46436 39.5859 13.324 50.4455 26.7199 50.4455Z" fill="#1F1F7A"/>
<path d="M26.6893 6.80958C26.6436 6.80958 26.6062 6.7722 26.6062 6.72651V3.77514C26.6062 3.72946 26.6436 3.69208 26.6893 3.69208C26.735 3.69208 26.7723 3.72946 26.7723 3.77514V6.72651C26.7723 6.7722 26.735 6.80958 26.6893 6.80958Z" fill="#FFE2C2"/>
<path d="M19.2431 8.30315C19.2107 8.30315 19.18 8.28403 19.1667 8.25164L18.0369 5.52454C18.0195 5.48217 18.0394 5.43318 18.0818 5.41574C18.1242 5.39829 18.1732 5.41821 18.1906 5.46058L19.3203 8.18767C19.3378 8.23004 19.3179 8.27905 19.2755 8.2965C19.2655 8.30065 19.2547 8.30315 19.2439 8.30315H19.2431Z" fill="#FFE2C2"/>
<path d="M12.9358 12.5321C12.9142 12.5321 12.8934 12.5238 12.8768 12.508L10.7902 10.4213C10.7578 10.3889 10.7578 10.3366 10.7902 10.3042C10.8226 10.2718 10.8749 10.2718 10.9073 10.3042L12.9939 12.3909C13.0263 12.4233 13.0263 12.4756 12.9939 12.508C12.9773 12.5246 12.9566 12.5321 12.935 12.5321H12.9358Z" fill="#FFE2C2"/>
<path d="M8.72682 18.8535C8.71602 18.8535 8.70521 18.8518 8.69524 18.8468L5.96814 17.7171C5.92578 17.6997 5.90586 17.6506 5.9233 17.6083C5.94075 17.5659 5.98974 17.546 6.03211 17.5634L8.75921 18.6931C8.80157 18.7106 8.82151 18.7596 8.80407 18.802C8.79078 18.8335 8.76005 18.8535 8.72765 18.8535H8.72682Z" fill="#FFE2C2"/>
<path d="M7.25734 26.3038H4.30597C4.26028 26.3038 4.2229 26.2664 4.2229 26.2207C4.2229 26.175 4.26028 26.1376 4.30597 26.1376H7.25734C7.30303 26.1376 7.34041 26.175 7.34041 26.2207C7.34041 26.2664 7.30303 26.3038 7.25734 26.3038Z" fill="#FFE2C2"/>
<path d="M6.02379 34.8796C5.99139 34.8796 5.96064 34.8605 5.94735 34.8281C5.92991 34.7857 5.94984 34.7367 5.99221 34.7193L8.71931 33.5896C8.76167 33.5721 8.81069 33.5921 8.82813 33.6344C8.84558 33.6768 8.82564 33.7258 8.78327 33.7432L6.05617 34.8729C6.0462 34.8771 6.03542 34.8796 6.02462 34.8796H6.02379Z" fill="#FFE2C2"/>
<path d="M18.1716 46.9933C18.1608 46.9933 18.1499 46.9916 18.14 46.9866C18.0976 46.9692 18.0777 46.9202 18.0951 46.8778L19.2248 44.1507C19.2423 44.1083 19.2913 44.0884 19.3337 44.1059C19.376 44.1233 19.396 44.1723 19.3785 44.2147L18.2488 46.9418C18.2355 46.9733 18.2048 46.9933 18.1724 46.9933H18.1716Z" fill="#FFE2C2"/>
<path d="M10.8924 42.1438C10.8708 42.1438 10.85 42.1355 10.8334 42.1197C10.801 42.0873 10.801 42.035 10.8334 42.0026L12.92 39.916C12.9524 39.8836 13.0048 39.8836 13.0372 39.916C13.0695 39.9484 13.0695 40.0007 13.0372 40.0331L10.9505 42.1197C10.9339 42.1363 10.9131 42.1438 10.8915 42.1438H10.8924Z" fill="#FFE2C2"/>
<path d="M26.7515 48.687C26.7058 48.687 26.6685 48.6496 26.6685 48.604V45.6526C26.6685 45.6069 26.7058 45.5695 26.7515 45.5695C26.7972 45.5695 26.8346 45.6069 26.8346 45.6526V48.604C26.8346 48.6496 26.7972 48.687 26.7515 48.687Z" fill="#FFE2C2"/>
<path d="M35.3266 46.9692C35.2942 46.9692 35.2634 46.95 35.2501 46.9177L34.1204 44.1906C34.103 44.1482 34.1229 44.0992 34.1653 44.0817C34.2077 44.0643 34.2567 44.0842 34.2741 44.1266L35.4038 46.8537C35.4213 46.8961 35.4013 46.9451 35.359 46.9625C35.349 46.9667 35.3382 46.9692 35.3274 46.9692H35.3266Z" fill="#FFE2C2"/>
<path d="M42.5916 42.1006C42.57 42.1006 42.5492 42.0923 42.5326 42.0765L40.4451 39.9899C40.4127 39.9575 40.4127 39.9051 40.4451 39.8727C40.4775 39.8404 40.5299 39.8404 40.5623 39.8727L42.6497 41.9594C42.6821 41.9918 42.6821 42.0441 42.6497 42.0765C42.6331 42.0931 42.6124 42.1006 42.5908 42.1006H42.5916Z" fill="#FFE2C2"/>
<path d="M47.4402 34.8214C47.4294 34.8214 47.4186 34.8198 47.4086 34.8148L44.6815 33.6851C44.6392 33.6676 44.6192 33.6186 44.6367 33.5763C44.6541 33.5339 44.7031 33.514 44.7455 33.5314L47.4726 34.6611C47.515 34.6785 47.5349 34.7276 47.5175 34.7699C47.5042 34.8015 47.4734 34.8214 47.441 34.8214H47.4402Z" fill="#FFE2C2"/>
<path d="M44.6899 18.7962C44.6575 18.7962 44.6267 18.7771 44.6134 18.7447C44.596 18.7023 44.6159 18.6533 44.6583 18.6358L47.3854 17.5061C47.4277 17.4887 47.4768 17.5086 47.4942 17.551C47.5117 17.5934 47.4917 17.6424 47.4493 17.6598L44.7222 18.7895C44.7123 18.7937 44.7015 18.7962 44.6907 18.7962H44.6899Z" fill="#FFE2C2"/>
<path d="M49.1348 26.2415H46.1834C46.1377 26.2415 46.1003 26.2041 46.1003 26.1584C46.1003 26.1127 46.1377 26.0753 46.1834 26.0753H49.1348C49.1805 26.0753 49.2179 26.1127 49.2179 26.1584C49.2179 26.2041 49.1805 26.2415 49.1348 26.2415Z" fill="#FFE2C2"/>
<path d="M40.4601 12.4889C40.4385 12.4889 40.4177 12.4805 40.4011 12.4648C40.3687 12.4324 40.3687 12.38 40.4011 12.3476L42.4878 10.261C42.5202 10.2286 42.5725 10.2286 42.6049 10.261C42.6373 10.2934 42.6373 10.3457 42.6049 10.3781L40.5183 12.4648C40.5017 12.4814 40.4809 12.4889 40.4593 12.4889H40.4601Z" fill="#FFE2C2"/>
<path d="M34.1396 8.27983C34.1288 8.27983 34.1179 8.27816 34.108 8.27318C34.0656 8.25573 34.0457 8.20672 34.0631 8.16436L35.1928 5.43728C35.2103 5.39491 35.2593 5.37497 35.3017 5.39242C35.344 5.40986 35.364 5.45886 35.3465 5.50122L34.2168 8.22832C34.2035 8.25989 34.1728 8.27983 34.1404 8.27983H34.1396Z" fill="#FFE2C2"/>
<path d="M26.72 48.7842C14.2616 48.7842 4.12573 38.6484 4.12573 26.19C4.12573 13.7316 14.2616 3.5957 26.72 3.5957C39.1784 3.5957 49.3142 13.7316 49.3142 26.19C49.3142 38.6484 39.1784 48.7842 26.72 48.7842ZM26.72 3.76184C14.353 3.76184 4.29187 13.8229 4.29187 26.19C4.29187 38.557 14.353 48.6181 26.72 48.6181C39.087 48.6181 49.1481 38.557 49.1481 26.19C49.1481 13.8229 39.087 3.76184 26.72 3.76184Z" fill="#FFE2C2"/>
<path d="M26.72 45.6816C15.9719 45.6816 7.22827 36.938 7.22827 26.1899C7.22827 15.4419 15.9719 6.69824 26.72 6.69824C37.468 6.69824 46.2117 15.4419 46.2117 26.1899C46.2117 36.938 37.468 45.6816 26.72 45.6816ZM26.72 6.86354C16.0633 6.86354 7.39441 15.5332 7.39441 26.1891C7.39441 36.8449 16.0641 45.5147 26.72 45.5147C37.3758 45.5147 46.0455 36.8449 46.0455 26.1891C46.0455 15.5332 37.3758 6.86354 26.72 6.86354Z" fill="#FFE2C2"/>
<path d="M17.1789 34.681L17.3733 35.1271C17.4555 35.3165 17.6067 35.4677 17.7961 35.5499L18.2422 35.7443L17.7961 35.9387C17.6067 36.0209 17.4555 36.1721 17.3733 36.3615L17.1789 36.8076L16.9845 36.3615C16.9023 36.1721 16.7511 36.0209 16.5617 35.9387L16.1157 35.7443L16.5617 35.5499C16.7511 35.4677 16.9023 35.3165 16.9845 35.1271L17.1789 34.681Z" fill="#F7B981"/>
<path d="M39.6086 35.5574L39.7665 35.9196C39.8338 36.0733 39.9567 36.1962 40.1104 36.2635L40.4726 36.4213L40.1104 36.5792C39.9567 36.6464 39.8338 36.7694 39.7665 36.9231L39.6086 37.2852L39.4508 36.9231C39.3835 36.7694 39.2606 36.6464 39.1069 36.5792L38.7448 36.4213L39.1069 36.2635C39.2606 36.1962 39.3835 36.0733 39.4508 35.9196L39.6086 35.5574Z" fill="#F7B981"/>
<path d="M33.416 24.7396L33.5547 25.0586C33.6137 25.194 33.7217 25.302 33.8571 25.361L34.1761 25.4997L33.8571 25.6384C33.7217 25.6974 33.6137 25.8054 33.5547 25.9408L33.416 26.2598L33.2773 25.9408C33.2183 25.8054 33.1103 25.6974 32.9749 25.6384L32.6559 25.4997L32.9749 25.361C33.1103 25.302 33.2183 25.194 33.2773 25.0586L33.416 24.7396Z" fill="#F7B981"/>
<path d="M41.1961 21.4501L41.3057 21.7027C41.3522 21.8098 41.4378 21.8954 41.5449 21.9419L41.7975 22.0516L41.5449 22.1612C41.4378 22.2077 41.3522 22.2933 41.3057 22.4004L41.1961 22.653L41.0864 22.4004C41.0399 22.2933 40.9543 22.2077 40.8472 22.1612L40.5947 22.0516L40.8472 21.9419C40.9543 21.8954 41.0399 21.8098 41.0864 21.7027L41.1961 21.4501Z" fill="#F7B981"/>
<path d="M12.2879 28.6412L12.4141 28.9311C12.4681 29.0541 12.5661 29.1529 12.6891 29.2061L12.979 29.3324L12.6891 29.4586C12.5661 29.5126 12.4673 29.6106 12.4141 29.7336L12.2879 30.0235L12.1616 29.7336C12.1076 29.6106 12.0096 29.5118 11.8866 29.4586L11.5967 29.3324L11.8866 29.2061C12.0096 29.1521 12.1084 29.0541 12.1616 28.9311L12.2879 28.6412Z" fill="#F7B981"/>
<path d="M24.0485 13.5272L24.2437 13.9758C24.3268 14.166 24.4788 14.318 24.669 14.4011L25.1176 14.5963L24.669 14.7915C24.4788 14.8746 24.3268 15.0266 24.2437 15.2168L24.0485 15.6654L23.8533 15.2168C23.7702 15.0266 23.6182 14.8746 23.428 14.7915L22.9794 14.5963L23.428 14.4011C23.6182 14.318 23.7702 14.166 23.8533 13.9758L24.0485 13.5272Z" fill="#F7B981"/>
<path d="M13.9301 20.8654C14.2705 20.8654 14.5465 20.5894 14.5465 20.249C14.5465 19.9086 14.2705 19.6326 13.9301 19.6326C13.5897 19.6326 13.3138 19.9086 13.3138 20.249C13.3138 20.5894 13.5897 20.8654 13.9301 20.8654Z" fill="#F7B981"/>
<path d="M37.0128 14.8829C37.3871 14.8829 37.6906 14.5794 37.6906 14.205C37.6906 13.8307 37.3871 13.5272 37.0128 13.5272C36.6384 13.5272 36.335 13.8307 36.335 14.205C36.335 14.5794 36.6384 14.8829 37.0128 14.8829Z" fill="#F7B981"/>
<path d="M18.0212 17.2079C18.0212 17.3317 17.9207 17.4313 17.7977 17.4313C17.6748 17.4313 17.5743 17.3308 17.5743 17.2079C17.5743 17.0849 17.6748 16.9844 17.7977 16.9844C17.9207 16.9844 18.0212 17.0849 18.0212 17.2079Z" fill="#F7B981"/>
<path d="M36.3134 34.5756C36.4492 34.5756 36.5593 34.4655 36.5593 34.3297C36.5593 34.1939 36.4492 34.0838 36.3134 34.0838C36.1776 34.0838 36.0675 34.1939 36.0675 34.3297C36.0675 34.4655 36.1776 34.5756 36.3134 34.5756Z" fill="#F7B981"/>
<path d="M33.416 17.6407C33.416 17.7911 33.2947 17.9123 33.1444 17.9123C32.994 17.9123 32.8727 17.7911 32.8727 17.6407C32.8727 17.4904 32.994 17.3691 33.1444 17.3691C33.2947 17.3691 33.416 17.4904 33.416 17.6407Z" fill="#F7B981"/>
<path d="M38.665 24.7263C38.1558 24.7263 37.6591 24.4655 37.3791 23.9961L36.0135 21.7035L31.488 24.502C31.1474 24.713 30.7354 24.7778 30.3467 24.6823C29.9571 24.5868 29.6223 24.3392 29.4171 23.9953L28.0515 21.7027L23.526 24.5012C23.1846 24.7122 22.7734 24.777 22.3847 24.6814C21.9951 24.5859 21.6604 24.3384 21.4552 23.9945L20.0895 21.7018L15.564 24.5004C14.8613 24.9348 13.9401 24.7172 13.5056 24.0152C13.0712 23.3125 13.2888 22.3913 13.9908 21.9568L19.8096 18.3584C20.1502 18.1474 20.5622 18.0826 20.951 18.1773C21.3405 18.2728 21.6753 18.5204 21.8805 18.8643L23.2461 21.1569L27.7716 18.3584C28.113 18.1474 28.5234 18.0826 28.9129 18.1773C29.3025 18.2728 29.6373 18.5204 29.8425 18.8643L31.2081 21.1569L35.7336 18.3584C36.075 18.1474 36.4853 18.0826 36.8749 18.1773C37.2645 18.2728 37.5993 18.5204 37.8044 18.8643L39.9484 22.4627C40.3712 23.1721 40.1386 24.09 39.4292 24.5128C39.1892 24.6557 38.9258 24.7238 38.665 24.7238V24.7263Z" fill="white"/>
<path d="M38.665 34.2425C38.1558 34.2425 37.6591 33.9817 37.3791 33.5123L36.0135 31.2197L31.488 34.0182C31.1474 34.2292 30.7354 34.294 30.3467 34.1993C29.9571 34.1038 29.6223 33.8562 29.4171 33.5123L28.0515 31.2197L23.526 34.0182C23.1855 34.2292 22.7734 34.294 22.3847 34.1993C21.9951 34.1038 21.6604 33.8562 21.4552 33.5123L20.0895 31.2197L15.564 34.0182C14.8621 34.4526 13.9401 34.235 13.5056 33.5331C13.0712 32.8303 13.2888 31.9091 13.9908 31.4747L19.8096 27.8762C20.151 27.6652 20.5622 27.6004 20.951 27.696C21.3405 27.7915 21.6753 28.039 21.8805 28.3829L23.2461 30.6756L27.7716 27.877C28.113 27.6661 28.5234 27.6013 28.9129 27.6968C29.3025 27.7923 29.6373 28.0399 29.8425 28.3838L31.2081 30.6764L35.7336 27.8779C36.075 27.6669 36.4862 27.6021 36.8749 27.6976C37.2645 27.7932 37.5993 28.0407 37.8044 28.3846L39.9484 31.983C40.3712 32.6924 40.1386 33.6103 39.4292 34.0332C39.1892 34.176 38.9258 34.2441 38.665 34.2441V34.2425Z" fill="white"/>
</svg>
