<svg width="52" height="52" viewBox="0 0 52 52" fill="none" xmlns="http://www.w3.org/2000/svg">
<path d="M26 52C40.3594 52 52 40.3594 52 26C52 11.6406 40.3594 0 26 0C11.6406 0 0 11.6406 0 26C0 40.3594 11.6406 52 26 52Z" fill="white"/>
<path d="M26 50.2556C39.396 50.2556 50.2556 39.396 50.2556 26C50.2556 12.604 39.396 1.74438 26 1.74438C12.604 1.74438 1.74438 12.604 1.74438 26C1.74438 39.396 12.604 50.2556 26 50.2556Z" fill="#1F1F7A"/>
<path d="M25.9683 6.62044C25.9226 6.62044 25.8853 6.58306 25.8853 6.53737V3.586C25.8853 3.54031 25.9226 3.50293 25.9683 3.50293C26.014 3.50293 26.0514 3.54031 26.0514 3.586V6.53737C26.0514 6.58306 26.014 6.62044 25.9683 6.62044Z" fill="#FFE2C2"/>
<path d="M18.5232 8.11394C18.4908 8.11394 18.4601 8.09483 18.4468 8.06243L17.3171 5.33534C17.2997 5.29298 17.3196 5.24397 17.362 5.22653C17.4043 5.20908 17.4533 5.22902 17.4708 5.27138L18.6005 7.99847C18.6179 8.04084 18.598 8.08985 18.5556 8.10729C18.5448 8.11144 18.5349 8.11394 18.5241 8.11394H18.5232Z" fill="#FFE2C2"/>
<path d="M12.2151 12.343C12.1935 12.343 12.1727 12.3347 12.1561 12.3189L10.0695 10.2322C10.0371 10.1998 10.0371 10.1475 10.0695 10.1151C10.1019 10.0827 10.1542 10.0827 10.1866 10.1151L12.2732 12.2018C12.3056 12.2342 12.3056 12.2865 12.2732 12.3189C12.2566 12.3355 12.2359 12.343 12.2143 12.343H12.2151Z" fill="#FFE2C2"/>
<path d="M8.00611 18.6635C7.99531 18.6635 7.98452 18.6619 7.97455 18.6569L5.24746 17.5272C5.20509 17.5097 5.18515 17.4607 5.2026 17.4184C5.22004 17.376 5.26822 17.3561 5.31142 17.3735L8.03851 18.5032C8.08087 18.5207 8.10081 18.5697 8.08337 18.612C8.07007 18.6436 8.03934 18.6635 8.00695 18.6635H8.00611Z" fill="#FFE2C2"/>
<path d="M3.58526 26.1146C3.53958 26.1146 3.5022 26.0772 3.5022 26.0316C3.5022 25.9859 3.53958 25.9485 3.58526 25.9485H6.53664C6.58233 25.9485 6.61971 25.9859 6.61971 26.0316C6.61971 26.0772 6.58233 26.1146 6.53664 26.1146H3.58526Z" fill="#FFE2C2"/>
<path d="M5.30295 34.6897C5.27055 34.6897 5.23982 34.6705 5.22653 34.6381C5.20908 34.5958 5.22902 34.5468 5.27138 34.5293L7.99847 33.3996C8.04084 33.3822 8.08985 33.4021 8.10729 33.4445C8.12474 33.4868 8.1048 33.5358 8.06243 33.5533L5.33534 34.683C5.32454 34.6872 5.31458 34.6897 5.30378 34.6897H5.30295Z" fill="#FFE2C2"/>
<path d="M17.4507 46.8034C17.4399 46.8034 17.4291 46.8017 17.4191 46.7967C17.3767 46.7793 17.3568 46.7303 17.3742 46.6879L18.5039 43.9608C18.5214 43.9185 18.5696 43.8985 18.6128 43.916C18.6551 43.9334 18.6751 43.9824 18.6576 44.0248L17.5279 46.7519C17.5146 46.7835 17.4839 46.8034 17.4515 46.8034H17.4507Z" fill="#FFE2C2"/>
<path d="M10.1724 41.9546C10.1508 41.9546 10.13 41.9463 10.1134 41.9306C10.081 41.8982 10.081 41.8458 10.1134 41.8134L12.2001 39.726C12.2324 39.6936 12.2848 39.6936 12.3172 39.726C12.3496 39.7584 12.3496 39.8107 12.3172 39.8431L10.2305 41.9306C10.2139 41.9472 10.1932 41.9546 10.1716 41.9546H10.1724Z" fill="#FFE2C2"/>
<path d="M26.0308 48.4979C25.9851 48.4979 25.9478 48.4605 25.9478 48.4148V45.4634C25.9478 45.4178 25.9851 45.3804 26.0308 45.3804C26.0765 45.3804 26.1139 45.4178 26.1139 45.4634V48.4148C26.1139 48.4605 26.0765 48.4979 26.0308 48.4979Z" fill="#FFE2C2"/>
<path d="M34.6058 46.7799C34.5734 46.7799 34.5426 46.7608 34.5293 46.7284L33.3996 44.0014C33.3822 43.959 33.4021 43.91 33.4445 43.8925C33.4868 43.8751 33.5359 43.895 33.5533 43.9374L34.683 46.6645C34.7005 46.7069 34.6805 46.7559 34.6382 46.7733C34.6274 46.7775 34.6174 46.7799 34.6066 46.7799H34.6058Z" fill="#FFE2C2"/>
<path d="M41.8707 41.9106C41.8491 41.9106 41.8283 41.9023 41.8117 41.8865L39.7242 39.7999C39.6919 39.7675 39.6919 39.7151 39.7242 39.6827C39.7566 39.6503 39.809 39.6503 39.8414 39.6827L41.9288 41.7694C41.9612 41.8018 41.9612 41.8541 41.9288 41.8865C41.9122 41.9031 41.8915 41.9106 41.8699 41.9106H41.8707Z" fill="#FFE2C2"/>
<path d="M46.7195 34.6323C46.7087 34.6323 46.6979 34.6306 46.6879 34.6256L43.9608 33.4959C43.9185 33.4785 43.8985 33.4295 43.916 33.3871C43.9334 33.3447 43.9816 33.3248 44.0248 33.3422L46.7519 34.472C46.7942 34.4894 46.8142 34.5384 46.7967 34.5808C46.7835 34.6123 46.7527 34.6323 46.7203 34.6323H46.7195Z" fill="#FFE2C2"/>
<path d="M43.969 18.6062C43.9366 18.6062 43.9058 18.5871 43.8925 18.5547C43.8751 18.5123 43.895 18.4633 43.9374 18.4458L46.6645 17.3161C46.7069 17.2987 46.755 17.3186 46.7733 17.361C46.7908 17.4033 46.7708 17.4524 46.7285 17.4698L44.0014 18.5995C43.9906 18.6037 43.9806 18.6062 43.9698 18.6062H43.969Z" fill="#FFE2C2"/>
<path d="M45.4627 26.0524C45.417 26.0524 45.3796 26.015 45.3796 25.9693C45.3796 25.9236 45.417 25.8862 45.4627 25.8862H48.4141C48.4598 25.8862 48.4971 25.9236 48.4971 25.9693C48.4971 26.015 48.4598 26.0524 48.4141 26.0524H45.4627Z" fill="#FFE2C2"/>
<path d="M39.74 12.2988C39.7184 12.2988 39.6976 12.2905 39.681 12.2747C39.6486 12.2423 39.6486 12.19 39.681 12.1576L41.7677 10.0709C41.8001 10.0385 41.8524 10.0385 41.8848 10.0709C41.9172 10.1033 41.9172 10.1557 41.8848 10.1881L39.7982 12.2747C39.7815 12.2913 39.7608 12.2988 39.7392 12.2988H39.74Z" fill="#FFE2C2"/>
<path d="M33.4187 8.09001C33.4079 8.09001 33.3971 8.08835 33.3871 8.08337C33.3447 8.06592 33.3248 8.01691 33.3422 7.97455L34.472 5.24746C34.4894 5.20509 34.5376 5.18515 34.5808 5.2026C34.6231 5.22004 34.6431 5.26905 34.6256 5.31142L33.4959 8.03851C33.4826 8.07007 33.4519 8.09001 33.4195 8.09001H33.4187Z" fill="#FFE2C2"/>
<path d="M26 48.5943C13.5416 48.5943 3.40576 38.4584 3.40576 26C3.40576 13.5416 13.5416 3.40576 26 3.40576C38.4584 3.40576 48.5943 13.5416 48.5943 26C48.5943 38.4584 38.4584 48.5943 26 48.5943ZM26 3.5719C13.633 3.5719 3.5719 13.633 3.5719 26C3.5719 38.367 13.633 48.4281 26 48.4281C38.367 48.4281 48.4281 38.367 48.4281 26C48.4281 13.633 38.367 3.5719 26 3.5719Z" fill="#FFE2C2"/>
<path d="M26 45.4924C15.2519 45.4924 6.5083 36.7479 6.5083 26.0007C6.5083 15.2535 15.2519 6.50903 26 6.50903C36.748 6.50903 45.4917 15.2527 45.4917 26.0007C45.4917 36.7488 36.748 45.4924 26 45.4924ZM26 6.67434C15.3433 6.67434 6.67443 15.344 6.67443 25.9999C6.67443 36.6557 15.3441 45.3255 26 45.3255C36.6558 45.3255 45.3256 36.6557 45.3256 25.9999C45.3256 15.344 36.6558 6.67434 26 6.67434Z" fill="#FFE2C2"/>
<path d="M12.9776 30.8511L13.1719 31.2971C13.2542 31.4865 13.4054 31.6377 13.5948 31.72L14.0408 31.9143L13.5948 32.1087C13.4054 32.1909 13.2542 32.3421 13.1719 32.5315L12.9776 32.9776L12.7832 32.5315C12.701 32.3421 12.5498 32.1909 12.3604 32.1087L11.9143 31.9143L12.3604 31.72C12.5498 31.6377 12.701 31.4865 12.7832 31.2971L12.9776 30.8511Z" fill="#F7B981"/>
<path d="M36.3992 35.6938L36.6384 36.2438C36.7398 36.4772 36.9267 36.6632 37.1601 36.7654L37.71 37.0046L37.1601 37.2439C36.9267 37.3452 36.7406 37.5321 36.6384 37.7655L36.3992 38.3154L36.1599 37.7655C36.0586 37.5321 35.8717 37.346 35.6383 37.2439L35.0884 37.0046L35.6383 36.7654C35.8717 36.6641 36.0578 36.4772 36.1599 36.2438L36.3992 35.6938Z" fill="#F7B981"/>
<path d="M30.6866 31.3511L30.866 31.7623C30.9424 31.9367 31.0812 32.0763 31.2564 32.1527L31.6676 32.3321L31.2564 32.5115C31.082 32.5879 30.9424 32.7267 30.866 32.9019L30.6866 33.3131L30.5072 32.9019C30.4307 32.7275 30.292 32.5879 30.1167 32.5115L29.7056 32.3321L30.1167 32.1527C30.2912 32.0763 30.4307 31.9375 30.5072 31.7623L30.6866 31.3511Z" fill="#F7B981"/>
<path d="M40.4986 29.8352L40.6374 30.1534C40.6963 30.2888 40.8043 30.3959 40.9389 30.4549L41.257 30.5936L40.9389 30.7323C40.8035 30.7913 40.6963 30.8993 40.6374 31.0339L40.4986 31.352L40.3599 31.0339C40.3009 30.8985 40.193 30.7913 40.0584 30.7323L39.7402 30.5936L40.0584 30.4549C40.1938 30.3959 40.3009 30.2879 40.3599 30.1534L40.4986 29.8352Z" fill="#F7B981"/>
<path d="M18.5671 36.2114L18.6934 36.5013C18.7474 36.6243 18.8454 36.7231 18.9683 36.7763L19.2582 36.9025L18.9683 37.0288C18.8454 37.0828 18.7465 37.1808 18.6934 37.3038L18.5671 37.5937L18.4408 37.3038C18.3868 37.1808 18.2888 37.082 18.1659 37.0288L17.876 36.9025L18.1659 36.7763C18.2888 36.7223 18.3877 36.6243 18.4408 36.5013L18.5671 36.2114Z" fill="#F7B981"/>
<path d="M22.969 12.6462L23.0952 12.9361C23.1492 13.0591 23.2472 13.1579 23.3702 13.2111L23.6601 13.3374L23.3702 13.4636C23.2472 13.5176 23.1484 13.6156 23.0952 13.7386L22.969 14.0285L22.8427 13.7386C22.7887 13.6156 22.6907 13.5168 22.5677 13.4636L22.2778 13.3374L22.5677 13.2111C22.6907 13.1571 22.7895 13.0591 22.8427 12.9361L22.969 12.6462Z" fill="#F7B981"/>
<path d="M21.0243 33.147C21.3647 33.147 21.6407 32.8711 21.6407 32.5307C21.6407 32.1903 21.3647 31.9143 21.0243 31.9143C20.6839 31.9143 20.408 32.1903 20.408 32.5307C20.408 32.8711 20.6839 33.147 21.0243 33.147Z" fill="#F7B981"/>
<path d="M28.0609 11.529C28.4352 11.529 28.7387 11.2255 28.7387 10.8512C28.7387 10.4768 28.4352 10.1733 28.0609 10.1733C27.6865 10.1733 27.3831 10.4768 27.3831 10.8512C27.3831 11.2255 27.6865 11.529 28.0609 11.529Z" fill="#F7B981"/>
<path d="M17.7482 27.2933C17.7482 27.417 17.6477 27.5167 17.5247 27.5167C17.4018 27.5167 17.3013 27.4162 17.3013 27.2933C17.3013 27.1703 17.4018 27.0698 17.5247 27.0698C17.6477 27.0698 17.7482 27.1703 17.7482 27.2933Z" fill="#F7B981"/>
<path d="M34.8965 27.7187C34.8965 27.9105 34.7412 28.0667 34.5485 28.0667C34.3558 28.0667 34.2004 27.9114 34.2004 27.7187C34.2004 27.5259 34.3558 27.3706 34.5485 27.3706C34.7412 27.3706 34.8965 27.5259 34.8965 27.7187Z" fill="#F7B981"/>
<path d="M28.7395 14.996C28.7395 15.1463 28.6183 15.2676 28.4679 15.2676C28.3176 15.2676 28.1963 15.1463 28.1963 14.996C28.1963 14.8456 28.3176 14.7244 28.4679 14.7244C28.6183 14.7244 28.7395 14.8456 28.7395 14.996Z" fill="#F7B981"/>
<path d="M25.9992 37.0338C25.1735 37.0338 24.5031 36.3643 24.5031 35.5386C24.5031 35.5237 24.5031 35.5079 24.5031 35.493C24.5006 30.3893 24.0322 25.922 21.7727 20.7336C21.2162 19.4552 20.3307 18.5057 19.3438 18.1278C18.9152 17.9641 18.2582 17.8354 17.5654 18.1527C17.1152 18.3587 14.9521 19.5756 16.5943 23.2754C16.9291 24.0305 16.5893 24.9135 15.8343 25.2483C15.0792 25.583 14.1962 25.2433 13.8614 24.4882C12.6287 21.7113 12.9452 19.6928 13.427 18.4883C13.9661 17.1418 15.0202 16.0287 16.3202 15.4331C17.5969 14.8483 19.0506 14.8134 20.4121 15.3342C22.1698 16.0062 23.6268 17.4998 24.5148 19.5391C25.1203 20.9288 25.6071 22.2678 25.9983 23.5778C26.3896 22.2678 26.8764 20.9296 27.4819 19.5391C28.3699 17.4998 29.8269 16.0062 31.5846 15.3342C32.9469 14.8134 34.3998 14.8483 35.6765 15.4331C36.9757 16.0287 38.0306 17.1418 38.5697 18.4883C39.0523 19.6928 39.368 21.7113 38.1353 24.4882C37.8005 25.2433 36.9167 25.583 36.1624 25.2483C35.4074 24.9135 35.0676 24.0297 35.4024 23.2754C37.0446 19.5756 34.8815 18.3587 34.4313 18.1527C33.7385 17.8354 33.0815 17.9641 32.6529 18.1278C31.666 18.5057 30.7805 19.4552 30.224 20.7336C27.9645 25.922 27.4969 30.3893 27.4936 35.493C27.4936 35.5079 27.4936 35.5229 27.4936 35.5386C27.4936 36.3643 26.8249 37.0338 25.9992 37.0338Z" fill="white"/>
</svg>
