<svg width="80" height="80" viewBox="0 0 80 80" fill="none" xmlns="http://www.w3.org/2000/svg">
<path d="M40 80C62.0914 80 80 62.0914 80 40C80 17.9086 62.0914 0 40 0C17.9086 0 0 17.9086 0 40C0 62.0914 17.9086 80 40 80Z" fill="#F3D351"/>
<path d="M40.0001 77.3162C60.6094 77.3162 77.3164 60.6091 77.3164 39.9999C77.3164 19.3907 60.6094 2.68359 40.0001 2.68359C19.3909 2.68359 2.68384 19.3907 2.68384 39.9999C2.68384 60.6091 19.3909 77.3162 40.0001 77.3162Z" fill="url(#paint0_linear_1709_2362)"/>
<path d="M39.951 10.1848C39.8808 10.1848 39.8232 10.1273 39.8232 10.057V5.51647C39.8232 5.44618 39.8808 5.38867 39.951 5.38867C40.0213 5.38867 40.0788 5.44618 40.0788 5.51647V10.057C40.0788 10.1273 40.0213 10.1848 39.951 10.1848Z" fill="white"/>
<path d="M28.4964 12.4831C28.4466 12.4831 28.3993 12.4537 28.3788 12.4039L26.6408 8.20837C26.614 8.14319 26.6446 8.0678 26.7098 8.04096C26.775 8.01412 26.8504 8.04479 26.8772 8.10997L28.6153 12.3055C28.6421 12.3707 28.6114 12.4461 28.5462 12.4729C28.5296 12.4793 28.5143 12.4831 28.4977 12.4831H28.4964Z" fill="white"/>
<path d="M18.7915 18.9893C18.7582 18.9893 18.7263 18.9765 18.7007 18.9522L15.4905 15.742C15.4407 15.6921 15.4407 15.6116 15.4905 15.5618C15.5403 15.512 15.6209 15.512 15.6707 15.5618L18.8809 18.772C18.9308 18.8219 18.9308 18.9024 18.8809 18.9522C18.8554 18.9778 18.8234 18.9893 18.7902 18.9893H18.7915Z" fill="white"/>
<path d="M12.3169 28.7121C12.3003 28.7121 12.2837 28.7096 12.2684 28.7019L8.07286 26.9639C8.00768 26.9371 7.97701 26.8617 8.00385 26.7965C8.03069 26.7313 8.10481 26.7006 8.17126 26.7275L12.3668 28.4655C12.432 28.4923 12.4626 28.5677 12.4358 28.6329C12.4153 28.6815 12.3681 28.7121 12.3182 28.7121H12.3169Z" fill="white"/>
<path d="M5.51476 40.1755C5.44447 40.1755 5.38696 40.118 5.38696 40.0477C5.38696 39.9774 5.44447 39.9199 5.51476 39.9199H10.0553C10.1256 39.9199 10.1831 39.9774 10.1831 40.0477C10.1831 40.118 10.1256 40.1755 10.0553 40.1755H5.51476Z" fill="white"/>
<path d="M8.15828 53.3684C8.10844 53.3684 8.06116 53.339 8.04071 53.2892C8.01388 53.224 8.04455 53.1486 8.10972 53.1217L12.3052 51.3837C12.3704 51.3569 12.4458 51.3876 12.4727 51.4527C12.4995 51.5179 12.4688 51.5933 12.4037 51.6202L8.20813 53.3582C8.19151 53.3646 8.17618 53.3684 8.15956 53.3684H8.15828Z" fill="white"/>
<path d="M26.8458 72.0046C26.8292 72.0046 26.8126 72.0021 26.7972 71.9944C26.732 71.9676 26.7014 71.8922 26.7282 71.827L28.4662 67.6315C28.4931 67.5663 28.5672 67.5356 28.6336 67.5624C28.6988 67.5893 28.7295 67.6647 28.7027 67.7299L26.9646 71.9254C26.9442 71.9739 26.8969 72.0046 26.8471 72.0046H26.8458Z" fill="white"/>
<path d="M15.6498 64.5462C15.6166 64.5462 15.5847 64.5334 15.5591 64.5092C15.5093 64.4593 15.5093 64.3788 15.5591 64.329L18.7693 61.1175C18.8192 61.0676 18.8997 61.0676 18.9495 61.1175C18.9994 61.1673 18.9994 61.2478 18.9495 61.2977L15.7393 64.5092C15.7137 64.5347 15.6818 64.5462 15.6486 64.5462H15.6498Z" fill="white"/>
<path d="M40.046 74.6116C39.9757 74.6116 39.9182 74.5541 39.9182 74.4838V69.9432C39.9182 69.8729 39.9757 69.8154 40.046 69.8154C40.1163 69.8154 40.1738 69.8729 40.1738 69.9432V74.4838C40.1738 74.5541 40.1163 74.6116 40.046 74.6116Z" fill="white"/>
<path d="M53.2383 71.9685C53.1885 71.9685 53.1412 71.9391 53.1208 71.8892L51.3828 67.6937C51.3559 67.6285 51.3866 67.5531 51.4518 67.5263C51.5169 67.4995 51.5923 67.5301 51.6192 67.5953L53.3572 71.7908C53.384 71.856 53.3534 71.9314 53.2882 71.9583C53.2716 71.9646 53.2562 71.9685 53.2396 71.9685H53.2383Z" fill="white"/>
<path d="M64.416 64.4775C64.3828 64.4775 64.3509 64.4648 64.3253 64.4405L61.1138 61.2303C61.064 61.1804 61.064 61.0999 61.1138 61.0501C61.1636 61.0002 61.2441 61.0002 61.294 61.0501L64.5055 64.2603C64.5553 64.3101 64.5553 64.3906 64.5055 64.4405C64.4799 64.466 64.448 64.4775 64.4148 64.4775H64.416Z" fill="white"/>
<path d="M71.8748 53.2795C71.8582 53.2795 71.8416 53.277 71.8262 53.2693L67.6307 51.5313C67.5655 51.5044 67.5349 51.429 67.5617 51.3639C67.5885 51.2987 67.6627 51.268 67.7291 51.2949L71.9246 53.0329C71.9898 53.0597 72.0205 53.1351 71.9937 53.2003C71.9732 53.2489 71.9259 53.2795 71.8761 53.2795H71.8748Z" fill="white"/>
<path d="M67.6439 28.6243C67.594 28.6243 67.5468 28.5949 67.5263 28.545C67.4995 28.4798 67.5301 28.4044 67.5953 28.3776L71.7908 26.6396C71.856 26.6128 71.9301 26.6434 71.9583 26.7086C71.9851 26.7738 71.9544 26.8492 71.8892 26.876L67.6937 28.614C67.6771 28.6204 67.6618 28.6243 67.6452 28.6243H67.6439Z" fill="white"/>
<path d="M69.941 40.0808C69.8707 40.0808 69.8132 40.0233 69.8132 39.953C69.8132 39.8827 69.8707 39.8252 69.941 39.8252H74.4816C74.5519 39.8252 74.6094 39.8827 74.6094 39.953C74.6094 40.0233 74.5519 40.0808 74.4816 40.0808H69.941Z" fill="white"/>
<path d="M61.1374 18.9209C61.1042 18.9209 61.0722 18.9081 61.0467 18.8839C60.9968 18.834 60.9968 18.7535 61.0467 18.7037L64.2569 15.4934C64.3067 15.4436 64.3872 15.4436 64.4371 15.4934C64.4869 15.5433 64.4869 15.6238 64.4371 15.6736L61.2269 18.8839C61.2013 18.9094 61.1693 18.9209 61.1361 18.9209H61.1374Z" fill="white"/>
<path d="M51.4124 12.446C51.3958 12.446 51.3792 12.4435 51.3639 12.4358C51.2987 12.409 51.268 12.3336 51.2949 12.2684L53.0329 8.07286C53.0597 8.00768 53.1338 7.97701 53.2003 8.00385C53.2655 8.03069 53.2961 8.10608 53.2693 8.17126L51.5313 12.3668C51.5108 12.4153 51.4636 12.446 51.4137 12.446H51.4124Z" fill="white"/>
<path d="M40.0001 74.76C20.8334 74.76 5.23975 59.1664 5.23975 39.9996C5.23975 20.8329 20.8334 5.23926 40.0001 5.23926C59.1669 5.23926 74.7605 20.8329 74.7605 39.9996C74.7605 59.1664 59.1669 74.76 40.0001 74.76ZM40.0001 5.49485C20.9739 5.49485 5.49534 20.9734 5.49534 39.9996C5.49534 59.0258 20.9739 74.5044 40.0001 74.5044C59.0263 74.5044 74.5049 59.0258 74.5049 39.9996C74.5049 20.9734 59.0263 5.49485 40.0001 5.49485Z" fill="white"/>
<path d="M39.9997 69.9881C23.4642 69.9881 10.0125 56.5351 10.0125 40.0009C10.0125 23.4667 23.4642 10.0137 39.9997 10.0137C56.5351 10.0137 69.9869 23.4654 69.9869 40.0009C69.9869 56.5364 56.5351 69.9881 39.9997 69.9881ZM39.9997 10.268C23.6048 10.268 10.268 23.606 10.268 39.9996C10.268 56.3932 23.6061 69.7312 39.9997 69.7312C56.3933 69.7312 69.7313 56.3932 69.7313 39.9996C69.7313 23.606 56.3933 10.268 39.9997 10.268Z" fill="white"/>
<path d="M19.9654 47.4639L20.2644 48.1501C20.3909 48.4415 20.6235 48.6741 20.9149 48.8006L21.6012 49.0996L20.9149 49.3987C20.6235 49.5252 20.3909 49.7578 20.2644 50.0492L19.9654 50.7354L19.6663 50.0492C19.5398 49.7578 19.3072 49.5252 19.0159 49.3987L18.3296 49.0996L19.0159 48.8006C19.3072 48.6741 19.5398 48.4415 19.6663 48.1501L19.9654 47.4639Z" fill="white"/>
<path d="M55.9988 54.9131L56.3668 55.7591C56.5227 56.1182 56.8103 56.4045 57.1694 56.5616L58.0154 56.9297L57.1694 57.2977C56.8103 57.4537 56.524 57.7412 56.3668 58.1003L55.9988 58.9463L55.6307 58.1003C55.4748 57.7412 55.1873 57.4549 54.8282 57.2977L53.9822 56.9297L54.8282 56.5616C55.1873 56.4057 55.4736 56.1182 55.6307 55.7591L55.9988 54.9131Z" fill="white"/>
<path d="M47.2102 48.2324L47.4862 48.865C47.6038 49.1334 47.8172 49.3481 48.0869 49.4657L48.7195 49.7417L48.0869 50.0177C47.8185 50.1353 47.6038 50.3487 47.4862 50.6184L47.2102 51.251L46.9341 50.6184C46.8166 50.35 46.6032 50.1353 46.3335 50.0177L45.7009 49.7417L46.3335 49.4657C46.6019 49.3481 46.8166 49.1347 46.9341 48.865L47.2102 48.2324Z" fill="white"/>
<path d="M62.3054 45.8994L62.5189 46.3889C62.6096 46.5972 62.7757 46.762 62.9828 46.8528L63.4722 47.0662L62.9828 47.2796C62.7745 47.3703 62.6096 47.5365 62.5189 47.7435L62.3054 48.233L62.092 47.7435C62.0013 47.5352 61.8352 47.3703 61.6281 47.2796L61.1387 47.0662L61.6281 46.8528C61.8364 46.762 62.0013 46.5959 62.092 46.3889L62.3054 45.8994Z" fill="white"/>
<path d="M28.565 55.71L28.7592 56.156C28.8423 56.3451 28.9931 56.4972 29.1822 56.579L29.6282 56.7732L29.1822 56.9675C28.9931 57.0505 28.841 57.2013 28.7592 57.3905L28.565 57.8365L28.3707 57.3905C28.2876 57.2013 28.1369 57.0493 27.9477 56.9675L27.5017 56.7732L27.9477 56.579C28.1369 56.4959 28.2889 56.3451 28.3707 56.156L28.565 55.71Z" fill="white"/>
<path d="M35.3367 19.4561L35.5309 19.9021C35.614 20.0912 35.7648 20.2433 35.9539 20.3251L36.4 20.5193L35.9539 20.7136C35.7648 20.7966 35.6127 20.9474 35.5309 21.1366L35.3367 21.5826L35.1424 21.1366C35.0594 20.9474 34.9086 20.7954 34.7194 20.7136L34.2734 20.5193L34.7194 20.3251C34.9086 20.242 35.0607 20.0912 35.1424 19.9021L35.3367 19.4561Z" fill="white"/>
<path d="M32.3445 50.9951C32.8682 50.9951 33.2927 50.5706 33.2927 50.0469C33.2927 49.5232 32.8682 49.0986 32.3445 49.0986C31.8208 49.0986 31.3962 49.5232 31.3962 50.0469C31.3962 50.5706 31.8208 50.9951 32.3445 50.9951Z" fill="white"/>
<path d="M43.1703 17.737C43.7462 17.737 44.2131 17.2701 44.2131 16.6942C44.2131 16.1183 43.7462 15.6514 43.1703 15.6514C42.5943 15.6514 42.1274 16.1183 42.1274 16.6942C42.1274 17.2701 42.5943 17.737 43.1703 17.737Z" fill="white"/>
<path d="M27.3042 41.9893C27.3042 42.1797 27.1496 42.333 26.9605 42.333C26.7713 42.333 26.6167 42.1784 26.6167 41.9893C26.6167 41.8001 26.7713 41.6455 26.9605 41.6455C27.1496 41.6455 27.3042 41.8001 27.3042 41.9893Z" fill="white"/>
<path d="M53.6864 42.6439C53.6864 42.9391 53.4474 43.1793 53.1509 43.1793C52.8545 43.1793 52.6155 42.9403 52.6155 42.6439C52.6155 42.3474 52.8545 42.1084 53.1509 42.1084C53.4474 42.1084 53.6864 42.3474 53.6864 42.6439Z" fill="white"/>
<path d="M44.214 23.0702C44.214 23.3015 44.0274 23.4881 43.7961 23.4881C43.5648 23.4881 43.3782 23.3015 43.3782 23.0702C43.3782 22.8389 43.5648 22.6523 43.7961 22.6523C44.0274 22.6523 44.214 22.8389 44.214 23.0702Z" fill="white"/>
<path d="M39.9985 56.9755C38.7282 56.9755 37.6969 55.9455 37.6969 54.6752C37.6969 54.6522 37.6969 54.6279 37.6969 54.6049C37.693 46.7532 36.9723 39.8803 33.4962 31.8982C32.64 29.9314 31.2777 28.4707 29.7595 27.8893C29.1001 27.6375 28.0892 27.4394 27.0234 27.9276C26.3307 28.2445 23.0029 30.1167 25.5295 35.8088C26.0445 36.9704 25.5218 38.3289 24.3601 38.8439C23.1985 39.3589 21.84 38.8362 21.325 37.6746C19.4285 33.4024 19.9154 30.2969 20.6566 28.4439C21.486 26.3723 23.1077 24.6599 25.1077 23.7436C27.072 22.8439 29.3084 22.7902 31.4029 23.5915C34.1071 24.6254 36.3486 26.9231 37.7148 30.0605C38.6464 32.1985 39.3953 34.2586 39.9972 36.2739C40.5991 34.2586 41.348 32.1998 42.2796 30.0605C43.6458 26.9231 45.8873 24.6254 48.5914 23.5915C50.6873 22.7902 52.9224 22.8439 54.8867 23.7436C56.8854 24.6599 58.5084 26.3723 59.3378 28.4439C60.0803 30.2969 60.5659 33.4024 58.6694 37.6746C58.1544 38.8362 56.7946 39.3589 55.6343 38.8439C54.4726 38.3289 53.9499 36.9691 54.4649 35.8088C56.9915 30.1167 53.6637 28.2445 52.971 27.9276C51.9052 27.4394 50.8943 27.6375 50.2349 27.8893C48.7167 28.4707 47.3544 29.9314 46.4982 31.8982C43.0221 39.8803 42.3026 46.7532 42.2975 54.6049C42.2975 54.6279 42.2975 54.6509 42.2975 54.6752C42.2975 55.9455 41.2688 56.9755 39.9985 56.9755Z" fill="white"/>
<defs>
<linearGradient id="paint0_linear_1709_2362" x1="40.0001" y1="2.68359" x2="40.0001" y2="77.3162" gradientUnits="userSpaceOnUse">
<stop stop-color="#3867B8"/>
<stop offset="1" stop-color="#192E52"/>
</linearGradient>
</defs>
</svg>
