<svg width="80" height="80" viewBox="0 0 80 80" fill="none" xmlns="http://www.w3.org/2000/svg">
<path d="M40 80C62.0914 80 80 62.0914 80 40C80 17.9086 62.0914 0 40 0C17.9086 0 0 17.9086 0 40C0 62.0914 17.9086 80 40 80Z" fill="#F3D351"/>
<path d="M39.9999 77.3162C60.6091 77.3162 77.3162 60.6091 77.3162 39.9999C77.3162 19.3907 60.6091 2.68359 39.9999 2.68359C19.3907 2.68359 2.68359 19.3907 2.68359 39.9999C2.68359 60.6091 19.3907 77.3162 39.9999 77.3162Z" fill="url(#paint0_linear_1709_1560)"/>
<path d="M39.952 10.1829C39.8817 10.1829 39.8242 10.1254 39.8242 10.0551V5.51451C39.8242 5.44423 39.8817 5.38672 39.952 5.38672C40.0223 5.38672 40.0798 5.44423 40.0798 5.51451V10.0551C40.0798 10.1254 40.0223 10.1829 39.952 10.1829Z" fill="white"/>
<path d="M28.4959 12.4822C28.4461 12.4822 28.3988 12.4528 28.3784 12.4029L26.6403 8.20737C26.6135 8.1422 26.6442 8.06682 26.7093 8.03999C26.7745 8.01315 26.8499 8.04379 26.8768 8.10897L28.6148 12.3045C28.6416 12.3697 28.6109 12.4451 28.5458 12.4719C28.5304 12.4783 28.5138 12.4822 28.4972 12.4822H28.4959Z" fill="white"/>
<path d="M18.7922 18.9883C18.759 18.9883 18.727 18.9755 18.7015 18.9512L15.4912 15.741C15.4414 15.6912 15.4414 15.6107 15.4912 15.5608C15.5411 15.511 15.6216 15.511 15.6714 15.5608L18.8817 18.7711C18.9315 18.8209 18.9315 18.9014 18.8817 18.9512C18.8561 18.9768 18.8242 18.9883 18.7909 18.9883H18.7922Z" fill="white"/>
<path d="M12.3179 28.7122C12.3013 28.7122 12.2847 28.7096 12.2694 28.7019L8.07381 26.9639C8.00864 26.9371 7.97799 26.8616 8.00483 26.7965C8.03167 26.7313 8.10704 26.7006 8.17222 26.7275L12.3678 28.4655C12.4329 28.4923 12.4636 28.5677 12.4368 28.6329C12.4163 28.6815 12.369 28.7122 12.3192 28.7122H12.3179Z" fill="white"/>
<path d="M10.0563 40.1745H5.51573C5.44545 40.1745 5.38794 40.117 5.38794 40.0467C5.38794 39.9765 5.44545 39.9189 5.51573 39.9189H10.0563C10.1266 39.9189 10.1841 39.9765 10.1841 40.0467C10.1841 40.117 10.1266 40.1745 10.0563 40.1745Z" fill="white"/>
<path d="M8.15928 53.3684C8.10944 53.3684 8.06214 53.339 8.04169 53.2892C8.01485 53.224 8.04553 53.1486 8.1107 53.1218L12.3062 51.3837C12.3714 51.3569 12.4468 51.3876 12.4737 51.4527C12.5005 51.5179 12.4698 51.5933 12.4046 51.6202L8.20911 53.3582C8.19377 53.3646 8.17718 53.3684 8.16056 53.3684H8.15928Z" fill="white"/>
<path d="M26.8482 72.0046C26.8316 72.0046 26.815 72.0021 26.7997 71.9944C26.7345 71.9675 26.7038 71.8921 26.7307 71.827L28.4687 67.6314C28.4955 67.5663 28.5709 67.5356 28.6361 67.5624C28.7013 67.5893 28.732 67.6647 28.7051 67.7298L26.9671 71.9254C26.9466 71.9739 26.8994 72.0046 26.8495 72.0046H26.8482Z" fill="white"/>
<path d="M15.6494 64.544C15.6161 64.544 15.5842 64.5312 15.5586 64.5069C15.5088 64.4571 15.5088 64.3766 15.5586 64.3267L18.7689 61.1165C18.8187 61.0666 18.8992 61.0666 18.949 61.1165C18.9989 61.1663 18.9989 61.2469 18.949 61.2967L15.7388 64.5069C15.7132 64.5325 15.6813 64.544 15.6481 64.544H15.6494Z" fill="white"/>
<path d="M40.0484 74.6106C39.9782 74.6106 39.9207 74.5531 39.9207 74.4828V69.9422C39.9207 69.872 39.9782 69.8145 40.0484 69.8145C40.1187 69.8145 40.1762 69.872 40.1762 69.9422V74.4828C40.1762 74.5531 40.1187 74.6106 40.0484 74.6106Z" fill="white"/>
<path d="M53.241 71.9675C53.1912 71.9675 53.1439 71.9381 53.1234 71.8883L51.3854 67.6927C51.3586 67.6275 51.3893 67.5522 51.4545 67.5253C51.5196 67.4985 51.595 67.5292 51.6218 67.5943L53.3599 71.7899C53.3867 71.855 53.356 71.9304 53.2909 71.9573C53.2755 71.9637 53.2589 71.9675 53.2423 71.9675H53.241Z" fill="white"/>
<path d="M64.417 64.4776C64.3838 64.4776 64.3518 64.4648 64.3263 64.4405L61.1148 61.2303C61.0649 61.1804 61.0649 61.0999 61.1148 61.0501C61.1646 61.0002 61.2451 61.0002 61.295 61.0501L64.5065 64.2603C64.5563 64.3102 64.5563 64.3907 64.5065 64.4405C64.4809 64.4661 64.449 64.4776 64.4157 64.4776H64.417Z" fill="white"/>
<path d="M71.876 53.2786C71.8594 53.2786 71.8428 53.276 71.8275 53.2683L67.6319 51.5303C67.5668 51.5035 67.5361 51.4281 67.5629 51.3629C67.5898 51.2977 67.6652 51.267 67.7303 51.2939L71.9259 53.0319C71.9911 53.0587 72.0217 53.1341 71.9949 53.1993C71.9745 53.2479 71.9271 53.2786 71.8773 53.2786H71.876Z" fill="white"/>
<path d="M67.6461 28.6243C67.5963 28.6243 67.549 28.5949 67.5285 28.545C67.5017 28.4799 67.5323 28.4045 67.5975 28.3776L71.7931 26.6396C71.8582 26.6128 71.9336 26.6434 71.9605 26.7086C71.9873 26.7738 71.9566 26.8492 71.8915 26.876L67.6959 28.6141C67.6806 28.6204 67.664 28.6243 67.6474 28.6243H67.6461Z" fill="white"/>
<path d="M74.4845 40.0788H69.944C69.8737 40.0788 69.8162 40.0213 69.8162 39.951C69.8162 39.8808 69.8737 39.8232 69.944 39.8232H74.4845C74.5548 39.8232 74.6123 39.8808 74.6123 39.951C74.6123 40.0213 74.5548 40.0788 74.4845 40.0788Z" fill="white"/>
<path d="M61.1381 18.9209C61.1049 18.9209 61.0729 18.9081 61.0474 18.8839C60.9975 18.834 60.9975 18.7535 61.0474 18.7037L64.2576 15.4934C64.3075 15.4436 64.388 15.4436 64.4378 15.4934C64.4876 15.5433 64.4876 15.6238 64.4378 15.6736L61.2276 18.8839C61.202 18.9094 61.1701 18.9209 61.1369 18.9209H61.1381Z" fill="white"/>
<path d="M51.4134 12.446C51.3968 12.446 51.3802 12.4435 51.3648 12.4358C51.2997 12.409 51.269 12.3335 51.2958 12.2684L53.0338 8.07286C53.0607 8.00769 53.1361 7.97701 53.2013 8.00385C53.2664 8.03068 53.2971 8.10606 53.2703 8.17124L51.5322 12.3668C51.5118 12.4153 51.4645 12.446 51.4147 12.446H51.4134Z" fill="white"/>
<path d="M40.0009 74.76C20.8341 74.76 5.24048 59.1664 5.24048 39.9996C5.24048 20.8329 20.8341 5.23926 40.0009 5.23926C59.1676 5.23926 74.7612 20.8329 74.7612 39.9996C74.7612 59.1664 59.1676 74.76 40.0009 74.76ZM40.0009 5.49485C20.9747 5.49485 5.49607 20.9734 5.49607 39.9996C5.49607 59.0258 20.9747 74.5044 40.0009 74.5044C59.0271 74.5044 74.5057 59.0258 74.5057 39.9996C74.5057 20.9734 59.0271 5.49485 40.0009 5.49485Z" fill="white"/>
<path d="M40.0004 69.9862C23.4649 69.9862 10.0132 56.5344 10.0132 39.9989C10.0132 23.4635 23.4649 10.0117 40.0004 10.0117C56.5359 10.0117 69.9876 23.4635 69.9876 39.9989C69.9876 56.5344 56.5359 69.9862 40.0004 69.9862ZM40.0004 10.266C23.6055 10.266 10.2688 23.604 10.2688 39.9976C10.2688 56.3913 23.6068 69.7293 40.0004 69.7293C56.394 69.7293 69.732 56.3913 69.732 39.9976C69.732 23.604 56.394 10.266 40.0004 10.266Z" fill="white"/>
<path d="M25.3216 53.0635L25.6206 53.7498C25.7471 54.0411 25.9797 54.2737 26.2711 54.4002L26.9573 54.6993L26.2711 54.9983C25.9797 55.1248 25.7471 55.3574 25.6206 55.6488L25.3216 56.3351L25.0225 55.6488C24.896 55.3574 24.6634 55.1248 24.372 54.9983L23.6858 54.6993L24.372 54.4002C24.6634 54.2737 24.896 54.0411 25.0225 53.7498L25.3216 53.0635Z" fill="white"/>
<path d="M59.8288 54.4111L60.0716 54.9683C60.1752 55.2048 60.3643 55.3939 60.6007 55.4974L61.1579 55.7402L60.6007 55.983C60.3643 56.0865 60.1752 56.2757 60.0716 56.5121L59.8288 57.0693L59.586 56.5121C59.4825 56.2757 59.2934 56.0865 59.057 55.983L58.4998 55.7402L59.057 55.4974C59.2934 55.3939 59.4825 55.2048 59.586 54.9683L59.8288 54.4111Z" fill="white"/>
<path d="M50.3017 37.7686L50.5151 38.2593C50.6058 38.4676 50.7719 38.6337 50.9802 38.7245L51.471 38.9379L50.9802 39.1513C50.7719 39.242 50.6058 39.4082 50.5151 39.6165L50.3017 40.1072L50.0882 39.6165C49.9975 39.4082 49.8314 39.242 49.6231 39.1513L49.1323 38.9379L49.6231 38.7245C49.8314 38.6337 49.9975 38.4676 50.0882 38.2593L50.3017 37.7686Z" fill="white"/>
<path d="M62.2709 32.708L62.4396 33.0965C62.5112 33.2614 62.6428 33.393 62.8077 33.4646L63.1962 33.6333L62.8077 33.8019C62.6428 33.8735 62.5112 34.0052 62.4396 34.17L62.2709 34.5585L62.1022 34.17C62.0307 34.0052 61.8991 33.8735 61.7342 33.8019L61.3457 33.6333L61.7342 33.4646C61.8991 33.393 62.0307 33.2614 62.1022 33.0965L62.2709 32.708Z" fill="white"/>
<path d="M17.7972 43.7715L17.9914 44.2175C18.0745 44.4066 18.2253 44.5587 18.4144 44.6405L18.8604 44.8348L18.4144 45.029C18.2253 45.1121 18.0732 45.2629 17.9914 45.452L17.7972 45.898L17.6029 45.452C17.5198 45.2629 17.369 45.1108 17.1799 45.029L16.7339 44.8348L17.1799 44.6405C17.369 44.5574 17.5211 44.4066 17.6029 44.2175L17.7972 43.7715Z" fill="white"/>
<path d="M35.8901 20.5186L36.1904 21.2086C36.3182 21.5013 36.5521 21.7352 36.8447 21.863L37.5348 22.1633L36.8447 22.4636C36.5521 22.5914 36.3182 22.8253 36.1904 23.1179L35.8901 23.808L35.5898 23.1179C35.462 22.8253 35.2281 22.5914 34.9355 22.4636L34.2454 22.1633L34.9355 21.863C35.2281 21.7352 35.462 21.5013 35.5898 21.2086L35.8901 20.5186Z" fill="white"/>
<path d="M20.3235 31.8086C20.8472 31.8086 21.2717 31.384 21.2717 30.8603C21.2717 30.3366 20.8472 29.9121 20.3235 29.9121C19.7998 29.9121 19.3752 30.3366 19.3752 30.8603C19.3752 31.384 19.7998 31.8086 20.3235 31.8086Z" fill="white"/>
<path d="M55.8353 22.6042C56.4112 22.6042 56.8781 22.1373 56.8781 21.5614C56.8781 20.9854 56.4112 20.5186 55.8353 20.5186C55.2594 20.5186 54.7925 20.9854 54.7925 21.5614C54.7925 22.1373 55.2594 22.6042 55.8353 22.6042Z" fill="white"/>
<path d="M26.6175 26.1807C26.6175 26.3711 26.4628 26.5244 26.2737 26.5244C26.0846 26.5244 25.9299 26.3698 25.9299 26.1807C25.9299 25.9915 26.0846 25.8369 26.2737 25.8369C26.4628 25.8369 26.6175 25.9915 26.6175 26.1807Z" fill="white"/>
<path d="M54.7591 52.9001C54.968 52.9001 55.1374 52.7307 55.1374 52.5218C55.1374 52.3129 54.968 52.1436 54.7591 52.1436C54.5502 52.1436 54.3809 52.3129 54.3809 52.5218C54.3809 52.7307 54.5502 52.9001 54.7591 52.9001Z" fill="white"/>
<path d="M50.3016 26.8476C50.3016 27.0789 50.115 27.2655 49.8837 27.2655C49.6524 27.2655 49.4658 27.0789 49.4658 26.8476C49.4658 26.6163 49.6524 26.4297 49.8837 26.4297C50.115 26.4297 50.3016 26.6163 50.3016 26.8476Z" fill="white"/>
<path d="M58.3768 37.7483C57.5934 37.7483 56.8292 37.347 56.3986 36.6249L54.2976 33.0978L47.3353 37.4032C46.8114 37.7278 46.1775 37.8275 45.5794 37.6805C44.98 37.5336 44.465 37.1527 44.1493 36.6236L42.0484 33.0965L35.0861 37.4019C34.5609 37.7265 33.9283 37.8262 33.3302 37.6792C32.7308 37.5323 32.2158 37.1514 31.9002 36.6224L29.7992 33.0952L22.8369 37.4007C21.7557 38.069 20.3385 37.7342 19.6701 36.6543C19.0017 35.5732 19.3366 34.1559 20.4164 33.4875L29.3685 27.9514C29.8925 27.6268 30.5264 27.5272 31.1244 27.6728C31.7238 27.8198 32.2388 28.2006 32.5545 28.7297L34.6554 32.2569L41.6177 27.9514C42.143 27.6268 42.7743 27.5272 43.3737 27.6728C43.973 27.8198 44.488 28.2006 44.8037 28.7297L46.9046 32.2569L53.8669 27.9514C54.3922 27.6268 55.0235 27.5272 55.6228 27.6728C56.2222 27.8198 56.7372 28.2006 57.0529 28.7297L60.3513 34.2658C61.0017 35.3572 60.6439 36.7693 59.5525 37.4198C59.1832 37.6396 58.7781 37.7444 58.3768 37.7444V37.7483Z" fill="white"/>
<path d="M58.3768 52.3888C57.5934 52.3888 56.8292 51.9875 56.3986 51.2655L54.2976 47.7383L47.3353 52.0437C46.8114 52.3683 46.1775 52.468 45.5794 52.3224C44.98 52.1754 44.465 51.7946 44.1493 51.2655L42.0484 47.7383L35.0861 52.0437C34.5621 52.3683 33.9283 52.468 33.3302 52.3224C32.7308 52.1754 32.2158 51.7946 31.9002 51.2655L29.7992 47.7383L22.8369 52.0437C21.757 52.7121 20.3385 52.3773 19.6701 51.2974C19.0017 50.2163 19.3366 48.799 20.4164 48.1307L29.3685 42.5945C29.8938 42.2699 30.5264 42.1703 31.1244 42.3172C31.7238 42.4642 32.2388 42.845 32.5545 43.3741L34.6554 46.9013L41.6177 42.5958C42.143 42.2712 42.7743 42.1716 43.3737 42.3185C43.973 42.4655 44.488 42.8463 44.8037 43.3754L46.9046 46.9025L53.8669 42.5971C54.3922 42.2725 55.0247 42.1728 55.6228 42.3198C56.2222 42.4668 56.7372 42.8476 57.0529 43.3767L60.3513 48.9128C61.0017 50.0041 60.6439 51.4163 59.5525 52.0668C59.1832 52.2866 58.7781 52.3913 58.3768 52.3913V52.3888Z" fill="white"/>
<defs>
<linearGradient id="paint0_linear_1709_1560" x1="39.9999" y1="2.68359" x2="39.9999" y2="77.3162" gradientUnits="userSpaceOnUse">
<stop stop-color="#3867B8"/>
<stop offset="1" stop-color="#192E52"/>
</linearGradient>
</defs>
</svg>
