<svg width="80" height="80" viewBox="0 0 80 80" fill="none" xmlns="http://www.w3.org/2000/svg">
<path d="M40 80C62.0914 80 80 62.0914 80 40C80 17.9086 62.0914 0 40 0C17.9086 0 0 17.9086 0 40C0 62.0914 17.9086 80 40 80Z" fill="#F3D351"/>
<path d="M39.9999 77.3162C60.6091 77.3162 77.3162 60.6091 77.3162 39.9999C77.3162 19.3907 60.6091 2.68359 39.9999 2.68359C19.3907 2.68359 2.68359 19.3907 2.68359 39.9999C2.68359 60.6091 19.3907 77.3162 39.9999 77.3162Z" fill="url(#paint0_linear_1709_254)"/>
<path d="M39.9525 10.1829C39.8822 10.1829 39.8247 10.1254 39.8247 10.0551V5.51451C39.8247 5.44423 39.8822 5.38672 39.9525 5.38672C40.0228 5.38672 40.0803 5.44423 40.0803 5.51451V10.0551C40.0803 10.1254 40.0228 10.1829 39.9525 10.1829Z" fill="white"/>
<path d="M28.4984 12.4822C28.4485 12.4822 28.4012 12.4528 28.3808 12.4029L26.6428 8.2074C26.6159 8.14222 26.6466 8.06682 26.7118 8.03998C26.777 8.01314 26.8524 8.04382 26.8792 8.109L28.6172 12.3045C28.6441 12.3697 28.6134 12.4451 28.5482 12.4719C28.5329 12.4783 28.5162 12.4822 28.4996 12.4822H28.4984Z" fill="white"/>
<path d="M18.7949 18.9883C18.7617 18.9883 18.7297 18.9755 18.7042 18.9512L15.4939 15.741C15.4441 15.6912 15.4441 15.6107 15.4939 15.5608C15.5438 15.511 15.6243 15.511 15.6741 15.5608L18.8843 18.771C18.9342 18.8209 18.9342 18.9014 18.8843 18.9512C18.8588 18.9768 18.8268 18.9883 18.7936 18.9883H18.7949Z" fill="white"/>
<path d="M12.3184 28.7121C12.3018 28.7121 12.2852 28.7096 12.2698 28.7019L8.07433 26.9639C8.00915 26.9371 7.97848 26.8617 8.00531 26.7965C8.03215 26.7313 8.10756 26.7006 8.17273 26.7275L12.3682 28.4655C12.4334 28.4923 12.4641 28.5677 12.4373 28.6329C12.4168 28.6815 12.3695 28.7121 12.3197 28.7121H12.3184Z" fill="white"/>
<path d="M10.0588 40.1745H5.51818C5.44789 40.1745 5.39038 40.117 5.39038 40.0467C5.39038 39.9765 5.44789 39.9189 5.51818 39.9189H10.0588C10.129 39.9189 10.1866 39.9765 10.1866 40.0467C10.1866 40.117 10.129 40.1745 10.0588 40.1745Z" fill="white"/>
<path d="M8.15999 53.3684C8.11015 53.3684 8.06287 53.339 8.04243 53.2892C8.01559 53.224 8.04623 53.1486 8.11141 53.1217L12.3069 51.3837C12.3721 51.3569 12.4475 51.3876 12.4744 51.4527C12.5012 51.5179 12.4705 51.5933 12.4054 51.6201L8.20982 53.3582C8.19448 53.3646 8.17788 53.3684 8.16127 53.3684H8.15999Z" fill="white"/>
<path d="M26.8494 72.0046C26.8328 72.0046 26.8162 72.0021 26.8009 71.9944C26.7357 71.9676 26.705 71.8922 26.7319 71.827L28.4699 67.6315C28.4967 67.5663 28.5721 67.5356 28.6373 67.5624C28.7025 67.5893 28.7331 67.6647 28.7063 67.7299L26.9683 71.9254C26.9478 71.9739 26.9006 72.0046 26.8507 72.0046H26.8494Z" fill="white"/>
<path d="M15.6513 64.544C15.6181 64.544 15.5861 64.5312 15.5606 64.5069C15.5107 64.457 15.5107 64.3765 15.5606 64.3267L18.7708 61.1165C18.8207 61.0666 18.9012 61.0666 18.951 61.1165C19.0008 61.1663 19.0008 61.2468 18.951 61.2967L15.7408 64.5069C15.7152 64.5324 15.6833 64.544 15.6501 64.544H15.6513Z" fill="white"/>
<path d="M40.0492 74.6106C39.9789 74.6106 39.9214 74.5531 39.9214 74.4828V69.9422C39.9214 69.872 39.9789 69.8145 40.0492 69.8145C40.1195 69.8145 40.177 69.872 40.177 69.9422V74.4828C40.177 74.5531 40.1195 74.6106 40.0492 74.6106Z" fill="white"/>
<path d="M53.2418 71.9675C53.1919 71.9675 53.1447 71.9381 53.1242 71.8883L51.3862 67.6928C51.3593 67.6276 51.39 67.5522 51.4552 67.5253C51.5204 67.4985 51.5958 67.5292 51.6226 67.5943L53.3606 71.7899C53.3874 71.855 53.3568 71.9305 53.2916 71.9573C53.2763 71.9637 53.2597 71.9675 53.243 71.9675H53.2418Z" fill="white"/>
<path d="M64.4184 64.4775C64.3852 64.4775 64.3533 64.4648 64.3277 64.4405L61.1175 61.2303C61.0676 61.1804 61.0676 61.0999 61.1175 61.0501C61.1673 61.0002 61.2478 61.0002 61.2977 61.0501L64.5079 64.2603C64.5577 64.3101 64.5577 64.3906 64.5079 64.4405C64.4823 64.466 64.4504 64.4775 64.4171 64.4775H64.4184Z" fill="white"/>
<path d="M71.8773 53.2786C71.8606 53.2786 71.844 53.276 71.8287 53.2683L67.6331 51.5303C67.568 51.5035 67.5373 51.4281 67.5642 51.3629C67.591 51.2977 67.6664 51.267 67.7315 51.2939L71.9271 53.0319C71.9923 53.0588 72.0229 53.1341 71.9961 53.1993C71.9756 53.2479 71.9284 53.2786 71.8785 53.2786H71.8773Z" fill="white"/>
<path d="M67.6475 28.6243C67.5977 28.6243 67.5504 28.5949 67.53 28.545C67.5031 28.4799 67.5338 28.4044 67.599 28.3776L71.7945 26.6396C71.8597 26.6128 71.9351 26.6434 71.9619 26.7086C71.9887 26.7738 71.9581 26.8492 71.8929 26.876L67.6974 28.614C67.682 28.6204 67.6654 28.6243 67.6488 28.6243H67.6475Z" fill="white"/>
<path d="M74.4853 40.0788H69.9447C69.8744 40.0788 69.8169 40.0213 69.8169 39.951C69.8169 39.8808 69.8744 39.8232 69.9447 39.8232H74.4853C74.5556 39.8232 74.6131 39.8808 74.6131 39.951C74.6131 40.0213 74.5556 40.0788 74.4853 40.0788Z" fill="white"/>
<path d="M61.1408 18.9199C61.1076 18.9199 61.0756 18.9071 61.0501 18.8829C61.0002 18.833 61.0002 18.7525 61.0501 18.7027L64.2603 15.4925C64.3101 15.4426 64.3906 15.4426 64.4405 15.4925C64.4903 15.5423 64.4903 15.6228 64.4405 15.6726L61.2303 18.8829C61.2047 18.9084 61.1728 18.9199 61.1395 18.9199H61.1408Z" fill="white"/>
<path d="M51.4161 12.446C51.3995 12.446 51.3829 12.4435 51.3675 12.4358C51.3024 12.409 51.2717 12.3336 51.2985 12.2684L53.0365 8.07286C53.0634 8.00769 53.1388 7.97701 53.2039 8.00385C53.2691 8.03068 53.2998 8.10609 53.273 8.17127L51.5349 12.3668C51.5145 12.4154 51.4672 12.446 51.4174 12.446H51.4161Z" fill="white"/>
<path d="M39.9999 74.76C20.8331 74.76 5.2395 59.1664 5.2395 39.9996C5.2395 20.8329 20.8331 5.23926 39.9999 5.23926C59.1667 5.23926 74.7603 20.8329 74.7603 39.9996C74.7603 59.1664 59.1667 74.76 39.9999 74.76ZM39.9999 5.49485C20.9737 5.49485 5.49509 20.9734 5.49509 39.9996C5.49509 59.0258 20.9737 74.5044 39.9999 74.5044C59.0261 74.5044 74.5047 59.0258 74.5047 39.9996C74.5047 20.9734 59.0261 5.49485 39.9999 5.49485Z" fill="white"/>
<path d="M40.0006 69.9861C23.4652 69.9861 10.0134 56.5344 10.0134 39.9989C10.0134 23.4635 23.4652 10.0117 40.0006 10.0117C56.5361 10.0117 69.9879 23.4635 69.9879 39.9989C69.9879 56.5344 56.5361 69.9861 40.0006 69.9861ZM40.0006 10.266C23.6057 10.266 10.269 23.6041 10.269 39.9977C10.269 56.3913 23.607 69.7293 40.0006 69.7293C56.3942 69.7293 69.7323 56.3913 69.7323 39.9977C69.7323 23.6041 56.3942 10.266 40.0006 10.266Z" fill="white"/>
<path d="M30.6421 51.4238L30.9412 52.1101C31.0677 52.4015 31.3003 52.6341 31.5917 52.7606L32.2779 53.0596L31.5917 53.3587C31.3003 53.4852 31.0677 53.7178 30.9412 54.0091L30.6421 54.6954L30.3431 54.0091C30.2166 53.7178 29.984 53.4852 29.6926 53.3587L29.0063 53.0596L29.6926 52.7606C29.984 52.6341 30.2166 52.4015 30.3431 52.1101L30.6421 51.4238Z" fill="white"/>
<path d="M61.7385 49.0986L62.1066 49.9446C62.2625 50.3037 62.55 50.59 62.9091 50.7472L63.7552 51.1153L62.9091 51.4833C62.55 51.6392 62.2638 51.9267 62.1066 52.2858L61.7385 53.1319L61.3705 52.2858C61.2146 51.9267 60.9271 51.6405 60.5679 51.4833L59.7219 51.1153L60.5679 50.7472C60.9271 50.5913 61.2133 50.3037 61.3705 49.9446L61.7385 49.0986Z" fill="white"/>
<path d="M55.248 40.4795L55.5241 41.1121C55.6416 41.3805 55.8551 41.5952 56.1247 41.7127L56.7573 41.9888L56.1247 42.2648C55.8564 42.3824 55.6416 42.5958 55.5241 42.8654L55.248 43.498L54.972 42.8654C54.8544 42.5971 54.641 42.3824 54.3714 42.2648L53.7388 41.9888L54.3714 41.7127C54.6398 41.5952 54.8544 41.3817 54.972 41.1121L55.248 40.4795Z" fill="white"/>
<path d="M62.1031 35.1924L62.3165 35.6818C62.4072 35.8902 62.5733 36.055 62.7804 36.1457L63.2698 36.3592L62.7804 36.5726C62.5721 36.6633 62.4072 36.8295 62.3165 37.0365L62.1031 37.5259L61.8896 37.0365C61.7989 36.8282 61.6328 36.6633 61.4257 36.5726L60.9363 36.3592L61.4257 36.1457C61.6341 36.055 61.7989 35.8889 61.8896 35.6818L62.1031 35.1924Z" fill="white"/>
<path d="M24.5603 58.6016L24.7546 59.0476C24.8377 59.2367 24.9884 59.3888 25.1776 59.4706L25.6236 59.6648L25.1776 59.8591C24.9884 59.9421 24.8364 60.0929 24.7546 60.2821L24.5603 60.7281L24.3661 60.2821C24.283 60.0929 24.1322 59.9409 23.9431 59.8591L23.4971 59.6648L23.9431 59.4706C24.1322 59.3875 24.2843 59.2367 24.3661 59.0476L24.5603 58.6016Z" fill="white"/>
<path d="M20.9541 35.1924L21.2085 35.7777C21.3171 36.0269 21.5151 36.225 21.7631 36.3323L22.3484 36.5866L21.7631 36.8409C21.5139 36.9496 21.3158 37.1477 21.2085 37.3956L20.9541 37.9809L20.6986 37.3956C20.5899 37.1464 20.3918 36.9483 20.1439 36.8409L19.5586 36.5866L20.1439 36.3323C20.3931 36.2237 20.5912 36.0256 20.6986 35.7777L20.9541 35.1924Z" fill="white"/>
<path d="M19.3863 28.6763C19.9163 28.6763 20.346 28.2466 20.346 27.7166C20.346 27.1865 19.9163 26.7568 19.3863 26.7568C18.8562 26.7568 18.4265 27.1865 18.4265 27.7166C18.4265 28.2466 18.8562 28.6763 19.3863 28.6763Z" fill="white"/>
<path d="M23.8081 32.0547C24.0552 32.0547 24.2554 31.8545 24.2554 31.6074C24.2554 31.3604 24.0552 31.1602 23.8081 31.1602C23.5611 31.1602 23.3608 31.3604 23.3608 31.6074C23.3608 31.8545 23.5611 32.0547 23.8081 32.0547Z" fill="white"/>
<path d="M56.1852 22.5847C56.7611 22.5847 57.228 22.1178 57.228 21.5418C57.228 20.9659 56.7611 20.499 56.1852 20.499C55.6092 20.499 55.1423 20.9659 55.1423 21.5418C55.1423 22.1178 55.6092 22.5847 56.1852 22.5847Z" fill="white"/>
<path d="M26.9622 42.3311C27.152 42.3311 27.306 42.1772 27.306 41.9873C27.306 41.7975 27.152 41.6436 26.9622 41.6436C26.7723 41.6436 26.6184 41.7975 26.6184 41.9873C26.6184 42.1772 26.7723 42.3311 26.9622 42.3311Z" fill="white"/>
<path d="M48.5824 18.8954C48.5824 19.1267 48.3958 19.3133 48.1645 19.3133C47.9332 19.3133 47.7466 19.1267 47.7466 18.8954C47.7466 18.6641 47.9332 18.4775 48.1645 18.4775C48.3958 18.4775 48.5824 18.6641 48.5824 18.8954Z" fill="white"/>
<path d="M52.2834 27.7169C52.2834 28.0377 52.024 28.2971 51.7032 28.2971C51.3825 28.2971 51.123 28.0377 51.123 27.7169C51.123 27.3961 51.3825 27.1367 51.7032 27.1367C52.024 27.1367 52.2834 27.3961 52.2834 27.7169Z" fill="white"/>
<path d="M59.9783 53.9576L55.7189 50.3806C54.9342 49.7225 53.738 50.2796 53.738 51.3033V52.6119C52.1866 52.3384 50.7285 51.4784 49.7381 50.2528C48.7591 49.0426 48.262 47.518 48.2582 45.7263V28.6336C48.2773 27.4822 48.2416 26.2554 47.8722 25.0656C47.4748 23.7851 46.7042 22.6221 45.7023 21.7889C44.2032 20.5429 42.0972 19.987 40.2058 20.3397C38.9035 20.5825 37.678 21.2074 36.6901 22.1084C36.5751 21.9972 36.4563 21.8899 36.3336 21.7889C34.8345 20.5429 32.7285 19.987 30.8371 20.3397C29.5349 20.5825 28.3093 21.2074 27.3214 22.1084C27.2064 21.9972 27.0876 21.8899 26.9649 21.7889C25.4658 20.5429 23.3598 19.987 21.4684 20.3397C20.2198 20.5723 19.3956 21.7736 19.6281 23.0221C19.8607 24.2707 21.062 25.095 22.3106 24.8624C22.8563 24.7601 23.577 24.9557 24.023 25.3263C24.3489 25.5972 24.6032 25.9883 24.74 26.4292C24.9189 27.0068 24.9316 27.8017 24.9189 28.5749C24.9189 28.5876 24.9189 28.6004 24.9189 28.6132V45.7237C24.9189 46.994 25.9489 48.024 27.2192 48.024C28.4895 48.024 29.5195 46.994 29.5195 45.7237V28.6311C29.5221 28.4956 29.5233 28.3589 29.5233 28.2221C29.5233 28.2209 29.5233 28.2183 29.5233 28.217C29.5233 27.1653 29.6933 26.4164 30.0448 25.9257C30.4371 25.3761 31.048 24.9787 31.6805 24.8611C32.2275 24.7601 32.9457 24.9544 33.393 25.3263C33.7176 25.5959 33.9732 25.9883 34.1099 26.4292C34.2889 27.0068 34.3016 27.8017 34.2888 28.5749C34.2888 28.5876 34.2888 28.6004 34.2888 28.6132V45.7237C34.2888 46.994 35.3189 48.024 36.5892 48.024C37.8595 48.024 38.8895 46.994 38.8895 45.7237V28.6324C38.892 28.4969 38.8933 28.3602 38.8933 28.2221C38.8933 28.2209 38.8933 28.2183 38.8933 28.217C38.8933 27.1653 39.0633 26.4164 39.4147 25.9257C39.8071 25.3761 40.4179 24.9787 41.0505 24.8611C41.5975 24.7589 42.3157 24.9544 42.763 25.3263C43.0889 25.5959 43.3431 25.9883 43.4799 26.4292C43.6588 27.0068 43.6716 27.8017 43.6588 28.5749C43.6588 28.5876 43.6588 28.6004 43.6588 28.6132V45.7288C43.6639 48.5608 44.5291 51.1244 46.1611 53.1435C47.8441 55.2266 50.3234 56.6847 52.9611 57.1448C53.0952 57.1678 53.2281 57.1793 53.3585 57.1793C53.4888 57.1793 53.6141 57.1678 53.738 57.1461V58.4547C53.738 59.4784 54.9342 60.0368 55.7189 59.3774L59.9783 55.8004C60.5521 55.3186 60.5521 54.4368 59.9783 53.955V53.9576Z" fill="white"/>
<defs>
<linearGradient id="paint0_linear_1709_254" x1="39.9999" y1="2.68359" x2="39.9999" y2="77.3162" gradientUnits="userSpaceOnUse">
<stop stop-color="#3867B8"/>
<stop offset="1" stop-color="#192E52"/>
</linearGradient>
</defs>
</svg>
