<svg width="600" height="366" viewBox="0 0 600 366" fill="none" xmlns="http://www.w3.org/2000/svg">
<path d="M6.06061 6.63641V5.12126C6.06061 2.61087 8.09568 0.575806 10.6061 0.575806H589.394C591.904 0.575806 593.939 2.61087 593.939 5.12126V6.63641H595.455C597.965 6.63641 600 8.67148 600 11.1819V355.121C600 357.632 597.965 359.667 595.455 359.667H593.939V361.182C593.939 363.692 591.904 365.727 589.394 365.727H10.6061C8.09568 365.727 6.06061 363.692 6.06061 361.182V359.667H4.54545C2.03507 359.667 0 357.632 0 355.121L0 11.1819C0 8.67147 2.03507 6.63641 4.54545 6.63641H6.06061Z" fill="white"/>
<path d="M19.4189 10.8019H580.575C582.407 10.8019 583.893 12.2872 583.893 14.1193V16.2941H586.452C588.284 16.2941 589.77 17.7794 589.77 19.6115V346.878C589.77 348.71 588.284 350.195 586.452 350.195H583.893V352.37C583.893 354.202 582.407 355.688 580.575 355.688H19.4189C17.5869 355.688 16.1016 354.202 16.1016 352.37V350.195H13.542C11.7099 350.195 10.2246 348.71 10.2246 346.878V19.6115C10.2246 17.7794 11.7099 16.2941 13.542 16.2941H16.1016V14.1193C16.1016 12.2872 17.5869 10.8019 19.4189 10.8019Z" stroke="#F4B869" stroke-width="2.27273"/>
</svg>
