<svg width="165" height="44" viewBox="0 0 165 44" fill="none" xmlns="http://www.w3.org/2000/svg">
<g opacity="0.8">
<path d="M39.748 23.455C39.2305 23.455 38.7455 23.13 38.5655 22.6125C36.4805 16.565 30.7805 12.5025 24.3805 12.5025C17.9805 12.5025 12.3155 16.5425 10.2155 22.555C9.98797 23.2075 9.27547 23.55 8.62297 23.3225C7.97047 23.095 7.62798 22.3825 7.85548 21.73C10.3055 14.715 16.9455 9.99997 24.3805 9.99997C31.8155 9.99997 38.498 14.74 40.9305 21.795C41.1555 22.4475 40.808 23.16 40.1555 23.385C40.0205 23.4325 39.883 23.4525 39.748 23.4525V23.455Z" fill="#F4B869"/>
<path d="M34.8534 25.3802C34.3259 25.3802 33.8334 25.0427 33.6634 24.5127C32.3609 20.4702 28.6309 17.7527 24.3809 17.7527C20.1309 17.7527 16.4859 20.4127 15.1434 24.3727C14.9209 25.0276 14.211 25.3777 13.5585 25.1552C12.9035 24.9327 12.5534 24.2252 12.7759 23.5702C14.4609 18.5952 19.1234 15.2527 24.3809 15.2527C29.6384 15.2527 34.4085 18.6652 36.0435 23.7477C36.256 24.4052 35.8934 25.1102 35.2359 25.3202C35.1084 25.3602 34.9784 25.3802 34.8534 25.3802Z" fill="#F4B869"/>
<path d="M30.6292 28.7525C29.9392 28.7525 29.3792 28.1925 29.3792 27.5025C29.3792 24.745 27.1367 22.5025 24.3792 22.5025C21.6217 22.5025 19.4342 24.7 19.3792 27.4C19.3667 28.09 18.7917 28.6425 18.1042 28.625C17.4142 28.6125 16.8642 28.04 16.8792 27.35C16.9592 23.2975 20.3242 20 24.3767 20C28.4292 20 31.8767 23.365 31.8767 27.5C31.8767 28.19 31.3167 28.75 30.6267 28.75L30.6292 28.7525Z" fill="#F4B869"/>
<path d="M39.748 45.2047C39.2305 45.2047 38.7455 44.8797 38.5655 44.3622C36.4805 38.3147 30.7805 34.2522 24.3805 34.2522C17.9805 34.2522 12.3155 38.2922 10.2155 44.3047C9.98797 44.9572 9.27547 45.2997 8.62297 45.0722C7.97047 44.8447 7.62798 44.1322 7.85548 43.4797C10.3055 36.4647 16.9455 31.7497 24.3805 31.7497C31.8155 31.7497 38.498 36.4897 40.9305 43.5447C41.1555 44.1972 40.808 44.9097 40.1555 45.1347C40.0205 45.1822 39.883 45.2022 39.748 45.2022V45.2047Z" fill="#F4B869"/>
<path d="M34.8534 47.1299C34.3259 47.1299 33.8334 46.7924 33.6634 46.2624C32.3609 42.2199 28.6309 39.5024 24.3809 39.5024C20.1309 39.5024 16.4859 42.1624 15.1434 46.1224C14.9209 46.7774 14.211 47.1274 13.5585 46.9049C12.9035 46.6824 12.5534 45.9749 12.7759 45.3199C14.4609 40.3449 19.1234 37.0024 24.3809 37.0024C29.6384 37.0024 34.4085 40.4149 36.0435 45.4974C36.256 46.1549 35.8934 46.8599 35.2359 47.0699C35.1084 47.1099 34.9784 47.1299 34.8534 47.1299Z" fill="#F4B869"/>
<path d="M30.6292 50.5022C29.9392 50.5022 29.3792 49.9422 29.3792 49.2522C29.3792 46.4947 27.1367 44.2522 24.3792 44.2522C21.6217 44.2522 19.4342 46.4497 19.3792 49.1497C19.3667 49.8397 18.7917 50.3897 18.1042 50.3747C17.4142 50.3622 16.8642 49.7897 16.8792 49.0997C16.9592 45.0472 20.3242 41.7497 24.3767 41.7497C28.4292 41.7497 31.8767 45.1147 31.8767 49.2497C31.8767 49.9397 31.3167 50.4997 30.6267 50.4997L30.6292 50.5022Z" fill="#F4B869"/>
<path d="M58.4628 34.2047C57.9453 34.2047 57.4603 33.8797 57.2803 33.3622C55.1953 27.3147 49.4953 23.2522 43.0953 23.2522C36.6953 23.2522 31.0303 27.2922 28.9303 33.3047C28.7028 33.9572 27.9903 34.2997 27.3378 34.0722C26.6853 33.8447 26.3428 33.1322 26.5703 32.4797C29.0203 25.4647 35.6603 20.7497 43.0953 20.7497C50.5303 20.7497 57.2128 25.4897 59.6453 32.5447C59.8703 33.1972 59.5228 33.9097 58.8703 34.1347C58.7353 34.1822 58.5978 34.2022 58.4628 34.2022V34.2047Z" fill="#F4B869"/>
<path d="M53.4995 35.5C52.972 35.5 52.5483 35.7924 52.3783 35.2624C51.0758 31.2199 47.3458 28.5024 43.0958 28.5024C38.8458 28.5024 35.2008 31.1624 33.8583 35.1224C33.6358 35.7774 32.9258 36.1274 32.2733 35.9049C31.6183 35.6824 31.2683 34.9749 31.4908 34.3199C33.1758 29.3449 37.8383 26.0024 43.0958 26.0024C48.3533 26.0024 53.1233 29.4149 54.7583 34.4974C54.9708 35.1549 54.5395 35.23 53.882 35.44C53.7545 35.48 53.6245 35.5 53.4995 35.5Z" fill="#F4B869"/>
<path d="M49.3415 38.8502C48.6515 38.8502 48.094 38.9422 48.094 38.2522C48.094 35.4947 45.8515 33.2522 43.094 33.2522C40.3365 33.2522 38.149 35.4497 38.094 38.1497C38.0815 38.8397 37.509 39.3822 36.819 39.3747C36.129 39.3622 35.5815 38.7897 35.594 38.0997C35.674 34.0472 39.039 30.7497 43.0915 30.7497C47.144 30.7497 50.4995 33.365 50.4995 37.5C50.4995 38.19 50.5643 37.6155 49.8607 38.2522L49.3415 38.8502Z" fill="#F4B869"/>
<path d="M20.9628 34.2047C20.4453 34.2047 19.9603 33.8797 19.7803 33.3622C17.6953 27.3147 11.9953 23.2522 5.59532 23.2522C-0.804684 23.2522 -6.46968 27.2922 -8.56968 33.3047C-8.79718 33.9572 -9.50968 34.2997 -10.1622 34.0722C-10.8147 33.8447 -11.1572 33.1322 -10.9297 32.4797C-8.47968 25.4647 -1.83968 20.7497 5.59532 20.7497C13.0303 20.7497 19.7128 25.4897 22.1453 32.5447C22.3703 33.1972 22.0228 33.9097 21.3703 34.1347C21.2353 34.1822 21.0978 34.2022 20.9628 34.2022V34.2047Z" fill="#F4B869"/>
<path d="M16.0683 36.1299C15.5408 36.1299 15.0483 35.7924 14.8783 35.2624C13.5758 31.2199 9.84579 28.5024 5.59579 28.5024C1.34579 28.5024 -2.29921 31.1624 -3.64171 35.1224C-3.86421 35.7774 -4.57421 36.1274 -5.22671 35.9049C-5.88171 35.6824 -6.23171 34.9749 -6.00921 34.3199C-4.32421 29.3449 0.338289 26.0024 5.59579 26.0024C10.8533 26.0024 15.6233 29.4149 17.2583 34.4974C17.4708 35.1549 17.1083 35.8599 16.4508 36.0699C16.3233 36.1099 16.1933 36.1299 16.0683 36.1299Z" fill="#F4B869"/>
<path d="M11.844 39.5022C11.154 39.5022 10.594 38.9422 10.594 38.2522C10.594 35.4947 8.35146 33.2522 5.59396 33.2522C2.83646 33.2522 0.64896 35.4497 0.59396 38.1497C0.58146 38.8397 0.00396585 39.3822 -0.681034 39.3747C-1.37103 39.3622 -1.91854 38.7897 -1.90604 38.0997C-1.82604 34.0472 1.53896 30.7497 5.59146 30.7497C9.64396 30.7497 13.0915 34.1147 13.0915 38.2497C13.0915 38.9397 12.5315 39.4997 11.8415 39.4997L11.844 39.5022Z" fill="#F4B869"/>
<path d="M94.748 34.455C94.2305 34.455 93.7455 34.13 93.5655 33.6125C91.4805 27.565 85.7805 23.5025 79.3805 23.5025C72.9805 23.5025 67.3155 27.5425 65.2155 33.555C64.988 34.2075 64.2755 34.55 63.623 34.3225C62.9705 34.095 62.628 33.3825 62.8555 32.73C65.3055 25.715 71.9455 21 79.3805 21C86.8155 21 93.498 25.74 95.9305 32.795C96.1555 33.4475 95.808 34.16 95.1555 34.385C95.0205 34.4325 94.883 34.4525 94.748 34.4525V34.455Z" fill="#F4B869"/>
<path d="M89.8534 36.3802C89.3259 36.3802 88.8334 36.0427 88.6634 35.5127C87.3609 31.4702 83.6309 28.7527 79.3809 28.7527C75.1309 28.7527 71.4859 31.4127 70.1434 35.3727C69.9209 36.0276 69.211 36.3777 68.5585 36.1552C67.9035 35.9327 67.5534 35.2252 67.7759 34.5702C69.4609 29.5952 74.1234 26.2527 79.3809 26.2527C84.6384 26.2527 89.4085 29.6652 91.0435 34.7477C91.256 35.4052 90.8934 36.1102 90.2359 36.3202C90.1084 36.3602 89.9784 36.3802 89.8534 36.3802Z" fill="#F4B869"/>
<path d="M85.6292 39.7525C84.9392 39.7525 84.3792 39.1925 84.3792 38.5025C84.3792 35.745 82.1367 33.5025 79.3792 33.5025C76.6217 33.5025 74.4342 35.7 74.3792 38.4C74.3667 39.09 73.7917 39.6425 73.1042 39.625C72.4142 39.6125 71.8642 39.04 71.8792 38.35C71.9592 34.2975 75.3242 31 79.3767 31C83.4292 31 86.8767 34.365 86.8767 38.5C86.8767 39.19 86.3167 39.75 85.6267 39.75L85.6292 39.7525Z" fill="#F4B869"/>
<path d="M94.748 56.2047C94.2305 56.2047 93.7455 55.8797 93.5655 55.3622C91.4805 49.3147 85.7805 45.2522 79.3805 45.2522C72.9805 45.2522 67.3155 49.2922 65.2155 55.3047C64.988 55.9572 64.2755 56.2997 63.623 56.0722C62.9705 55.8447 62.628 55.1322 62.8555 54.4797C65.3055 47.4647 71.9455 42.7497 79.3805 42.7497C86.8155 42.7497 93.498 47.4897 95.9305 54.5447C96.1555 55.1972 95.808 55.9097 95.1555 56.1347C95.0205 56.1822 94.883 56.2022 94.748 56.2022V56.2047Z" fill="#F4B869"/>
<path d="M113.463 45.2047C112.945 45.2047 112.46 44.8797 112.28 44.3622C110.195 38.3147 104.495 34.2522 98.0953 34.2522C91.6953 34.2522 86.0303 38.2922 83.9303 44.3047C83.7028 44.9572 82.9903 45.2997 82.3378 45.0722C81.6853 44.8447 81.3428 44.1322 81.5703 43.4797C84.0203 36.4647 90.6603 31.7497 98.0953 31.7497C105.53 31.7497 112.213 36.4897 114.645 43.5447C114.87 44.1972 114.523 44.9097 113.87 45.1347C113.735 45.1822 113.598 45.2022 113.463 45.2022V45.2047Z" fill="#F4B869"/>
<path d="M108.568 47.1299C108.041 47.1299 107.548 46.7924 107.378 46.2624C106.076 42.2199 102.346 39.5024 98.0958 39.5024C93.8458 39.5024 90.2008 42.1624 88.8583 46.1224C88.6358 46.7774 87.9258 47.1274 87.2733 46.9049C86.6183 46.6824 86.2683 45.9749 86.4908 45.3199C88.1758 40.3449 92.8383 37.0024 98.0958 37.0024C103.353 37.0024 108.123 40.4149 109.758 45.4974C109.971 46.1549 109.608 46.8599 108.951 47.0699C108.823 47.1099 108.693 47.1299 108.568 47.1299Z" fill="#F4B869"/>
<path d="M104.344 50.5022C103.654 50.5022 103.094 49.9422 103.094 49.2522C103.094 46.4947 100.851 44.2522 98.094 44.2522C95.3365 44.2522 93.149 46.4497 93.094 49.1497C93.0815 49.8397 92.509 50.3822 91.819 50.3747C91.129 50.3622 90.5815 49.7897 90.594 49.0997C90.674 45.0472 94.039 41.7497 98.0915 41.7497C102.144 41.7497 105.591 45.1147 105.591 49.2497C105.591 49.9397 105.031 50.4997 104.341 50.4997L104.344 50.5022Z" fill="#F4B869"/>
<path d="M75.9628 45.2047C75.4453 45.2047 74.9603 44.8797 74.7803 44.3622C72.6953 38.3147 66.9953 34.2522 60.5953 34.2522C54.1953 34.2522 48.5303 38.2922 46.4303 44.3047C46.2028 44.9572 45.4903 45.2997 44.8378 45.0722C44.1853 44.8447 43.8428 44.1322 44.0703 43.4797C46.5203 36.4647 53.1603 31.7497 60.5953 31.7497C68.0303 31.7497 74.7128 36.4897 77.1453 43.5447C77.3703 44.1972 77.0228 44.9097 76.3703 45.1347C76.2353 45.1822 76.0978 45.2022 75.9628 45.2022V45.2047Z" fill="#F4B869"/>
<path d="M71.0683 47.1299C70.5408 47.1299 70.0483 46.7924 69.8783 46.2624C68.5758 42.2199 64.8458 39.5024 60.5958 39.5024C56.3458 39.5024 52.7008 42.1624 51.3583 46.1224C51.1358 46.7774 50.4258 47.1274 49.7733 46.9049C49.1183 46.6824 48.7683 45.9749 48.9908 45.3199C50.6758 40.3449 55.3383 37.0024 60.5958 37.0024C65.8533 37.0024 70.6233 40.4149 72.2583 45.4974C72.4708 46.1549 72.1083 46.8599 71.4508 47.0699C71.3233 47.1099 71.1933 47.1299 71.0683 47.1299Z" fill="#F4B869"/>
<path d="M66.844 50.5022C66.154 50.5022 65.594 49.9422 65.594 49.2522C65.594 46.4947 63.3515 44.2522 60.594 44.2522C57.8365 44.2522 55.649 46.4497 55.594 49.1497C55.5815 49.8397 55.004 50.3822 54.319 50.3747C53.629 50.3622 53.0815 49.7897 53.094 49.0997C53.174 45.0472 56.539 41.7497 60.5915 41.7497C64.644 41.7497 68.0915 45.1147 68.0915 49.2497C68.0915 49.9397 67.5315 50.4997 66.8415 50.4997L66.844 50.5022Z" fill="#F4B869"/>
<path d="M144.748 55.455C144.23 55.455 143.745 55.13 143.565 54.6125C141.48 48.565 135.78 44.5025 129.38 44.5025C122.98 44.5025 117.315 48.5425 115.215 54.555C114.988 55.2075 114.275 55.55 113.623 55.3225C112.97 55.095 112.628 54.3825 112.855 53.73C115.305 46.715 121.945 42 129.38 42C136.815 42 143.498 46.74 145.93 53.795C146.155 54.4475 145.808 55.16 145.155 55.385C145.02 55.4325 144.883 55.4525 144.748 55.4525V55.455Z" fill="#F4B869"/>
<path d="M6.74797 0.454956C6.23047 0.454956 5.74547 0.129957 5.56547 -0.387543C3.48047 -6.43504 -2.21953 -10.4975 -8.61953 -10.4975C-15.0195 -10.4975 -20.6845 -6.45754 -22.7845 -0.445038C-23.012 0.207462 -23.7245 0.549979 -24.377 0.322479C-25.0295 0.0949793 -25.372 -0.617519 -25.1445 -1.27002C-22.6945 -8.28502 -16.0545 -13 -8.61953 -13C-1.18453 -13 5.49798 -8.26002 7.93048 -1.20502C8.15548 -0.552517 7.80797 0.159979 7.15547 0.384979C7.02047 0.432479 6.88297 0.452454 6.74797 0.452454V0.454956Z" fill="#F4B869"/>
<path d="M1.85345 2.38016C1.32595 2.38016 0.833447 2.04266 0.663446 1.51266C-0.639053 -2.52984 -4.36905 -5.24734 -8.61905 -5.24734C-12.8691 -5.24734 -16.5141 -2.58735 -17.8566 1.37265C-18.0791 2.02765 -18.789 2.37765 -19.4415 2.15515C-20.0965 1.93265 -20.4466 1.22516 -20.2241 0.57016C-18.5391 -4.40484 -13.8766 -7.74734 -8.61905 -7.74734C-3.36156 -7.74734 1.40845 -4.33485 3.04345 0.74765C3.25595 1.40515 2.89344 2.11016 2.23594 2.32016C2.10844 2.36016 1.97845 2.38016 1.85345 2.38016Z" fill="#F4B869"/>
<path d="M6.74797 22.2047C6.23047 22.2047 5.74547 21.8797 5.56547 21.3622C3.48047 15.3147 -2.21953 11.2522 -8.61953 11.2522C-15.0195 11.2522 -20.6845 15.2922 -22.7845 21.3047C-23.012 21.9572 -23.7245 22.2997 -24.377 22.0722C-25.0295 21.8447 -25.372 21.1322 -25.1445 20.4797C-22.6945 13.4647 -16.0545 8.74973 -8.61953 8.74973C-1.18453 8.74973 5.49798 13.4897 7.93048 20.5447C8.15548 21.1972 7.80797 21.9097 7.15547 22.1347C7.02047 22.1822 6.88297 22.2022 6.74797 22.2022V22.2047Z" fill="#F4B869"/>
<path d="M1.99951 23.5C1.47201 23.5 0.833447 23.7924 0.663446 23.2624C-0.639053 19.2199 -4.36905 16.5024 -8.61905 16.5024C-12.8691 16.5024 -16.5141 19.1624 -17.8566 23.1224C-18.0791 23.7774 -18.789 24.1274 -19.4415 23.9049C-20.0965 23.6824 -20.4466 22.9749 -20.2241 22.3199C-18.5391 17.3449 -13.8766 14.0024 -8.61905 14.0024C-3.36156 14.0024 1.40845 17.4149 3.04345 22.4974C3.25595 23.1549 3.0395 23.23 2.382 23.44C2.2545 23.48 2.12451 23.5 1.99951 23.5Z" fill="#F4B869"/>
<path d="M25.4628 11.2047C24.9453 11.2047 24.4603 10.8797 24.2803 10.3622C22.1953 4.31471 16.4953 0.252228 10.0953 0.252228C3.69532 0.252228 -1.96968 4.29222 -4.06968 10.3047C-4.29718 10.9572 -5.00968 11.2997 -5.66218 11.0722C-6.31468 10.8447 -6.65718 10.1322 -6.42968 9.47974C-3.97968 2.46474 2.66032 -2.25027 10.0953 -2.25027C17.5303 -2.25027 24.6602 3.30721 27.0927 10.3622C27.3177 11.0147 26.9702 11.7272 26.3177 11.9522C26.1827 11.9997 25.5978 11.2022 25.4628 11.2022V11.2047Z" fill="#F4B869"/>
<path d="M20.617 12.56C20.0895 12.56 19.5483 12.7924 19.3783 12.2624C18.0758 8.21992 14.3458 5.50241 10.0958 5.50241C5.84579 5.50241 2.20079 8.16241 0.858286 12.1224C0.635786 12.7774 -0.0742053 13.1274 -0.726705 12.9049C-1.38171 12.6824 -1.73171 11.9749 -1.50921 11.3199C0.175793 6.34492 4.83829 3.00241 10.0958 3.00241C15.3533 3.00241 20.1233 6.41491 21.7583 11.4974C21.9708 12.1549 21.657 12.29 20.9995 12.5C20.872 12.54 20.742 12.56 20.617 12.56Z" fill="#F4B869"/>
<path d="M15.752 15.2525C15.062 15.2525 15.094 15.9422 15.094 15.2522C15.094 12.4947 12.8515 10.2522 10.094 10.2522C7.33646 10.2522 5.14896 12.4497 5.09396 15.1497C5.08146 15.8397 4.50897 16.3822 3.81897 16.3747C3.12897 16.3622 2.58146 15.7897 2.59396 15.0997C2.67396 11.0472 6.03896 7.74973 10.0915 7.74973C14.144 7.74973 16.9995 9.86497 16.9995 14C16.9995 14.69 16.6895 14.5 15.9995 14.5L15.752 15.2525Z" fill="#F4B869"/>
</g>
</svg>
