<svg width="86" height="97" viewBox="0 0 86 97" fill="none" xmlns="http://www.w3.org/2000/svg">
<g filter="url(#filter0_d_623_11875)">
<g clip-path="url(#clip0_623_11875)">
<mask id="path-2-inside-1_623_11875" fill="white">
<path d="M42.9988 66.6773C55.6224 66.6774 65.8553 70.8314 65.8553 75.9557V81.5787C65.8553 86.7029 55.6223 90.857 42.9988 90.857C30.3751 90.857 20.1414 86.703 20.1414 81.5787V75.9557C20.1414 70.8314 30.3751 66.6773 42.9988 66.6773Z"/>
</mask>
<path d="M42.9988 66.6773C55.6224 66.6774 65.8553 70.8314 65.8553 75.9557V81.5787C65.8553 86.7029 55.6223 90.857 42.9988 90.857C30.3751 90.857 20.1414 86.703 20.1414 81.5787V75.9557C20.1414 70.8314 30.3751 66.6773 42.9988 66.6773Z" fill="#EE9328"/>
<path d="M42.9988 66.6773L42.9988 64.9842H42.9988V66.6773ZM42.9988 90.857V92.5501H42.9988L42.9988 90.857ZM42.9988 66.6773L42.9988 68.3705C49.1477 68.3705 54.6358 69.3853 58.524 70.9637C60.4725 71.7547 61.9367 72.6539 62.8867 73.5657C63.8323 74.4732 64.1621 75.2808 64.1621 75.9557H65.8553H67.5484C67.5484 74.0685 66.5991 72.4352 65.2315 71.1226C63.8684 69.8144 61.9854 68.7142 59.7977 67.8261C55.4136 66.0464 49.4735 64.9842 42.9988 64.9842L42.9988 66.6773ZM65.8553 75.9557H64.1621V81.5787H65.8553H67.5484V75.9557H65.8553ZM65.8553 81.5787H64.1621C64.1621 82.2536 63.8323 83.0612 62.8867 83.9687C61.9367 84.8805 60.4725 85.7797 58.524 86.5706C54.6358 88.149 49.1477 89.1639 42.9988 89.1639L42.9988 90.857L42.9988 92.5501C49.4735 92.5501 55.4135 91.4879 59.7977 89.7082C61.9854 88.8201 63.8684 87.72 65.2315 86.4118C66.5991 85.0992 67.5484 83.4659 67.5484 81.5787H65.8553ZM42.9988 90.857V89.1639C36.8499 89.1639 31.3615 88.1491 27.473 86.5707C25.5245 85.7797 24.0601 84.8805 23.11 83.9687C22.1644 83.0611 21.8345 82.2536 21.8345 81.5787H20.1414H18.4483C18.4483 83.466 19.3976 85.0992 20.7653 86.4118C22.1285 87.7201 24.0116 88.8202 26.1994 89.7083C30.5838 91.488 36.5241 92.5501 42.9988 92.5501V90.857ZM20.1414 81.5787H21.8345V75.9557H20.1414H18.4483V81.5787H20.1414ZM20.1414 75.9557H21.8345C21.8345 75.2808 22.1644 74.4732 23.11 73.5657C24.0601 72.6539 25.5245 71.7547 27.473 70.9637C31.3615 69.3853 36.8499 68.3705 42.9988 68.3705V66.6773V64.9842C36.5241 64.9842 30.5838 66.0464 26.1994 67.8261C24.0116 68.7142 22.1285 69.8143 20.7653 71.1225C19.3976 72.4351 18.4483 74.0684 18.4483 75.9557H20.1414Z" fill="#83140B" mask="url(#path-2-inside-1_623_11875)"/>
<mask id="path-4-inside-2_623_11875" fill="white">
<path d="M42.9988 20.5674C55.6224 20.5674 65.8553 24.7215 65.8553 29.8457V35.4687C65.8553 40.5929 55.6223 44.747 42.9988 44.747C30.3751 44.747 20.1414 40.593 20.1414 35.4687V29.8457C20.1414 24.7214 30.3751 20.5674 42.9988 20.5674Z"/>
</mask>
<path d="M42.9988 20.5674C55.6224 20.5674 65.8553 24.7215 65.8553 29.8457V35.4687C65.8553 40.5929 55.6223 44.747 42.9988 44.747C30.3751 44.747 20.1414 40.593 20.1414 35.4687V29.8457C20.1414 24.7214 30.3751 20.5674 42.9988 20.5674Z" fill="#F0932C"/>
<path d="M42.9988 20.5674L42.9988 18.8742H42.9988V20.5674ZM42.9988 44.747V46.4402H42.9988L42.9988 44.747ZM42.9988 20.5674L42.9988 22.2605C49.1477 22.2605 54.6358 23.2754 58.524 24.8537C60.4725 25.6447 61.9367 26.5439 62.8867 27.4557C63.8323 28.3632 64.1621 29.1708 64.1621 29.8457H65.8553H67.5484C67.5484 27.9585 66.5991 26.3252 65.2315 25.0126C63.8684 23.7044 61.9854 22.6043 59.7977 21.7162C55.4136 19.9365 49.4735 18.8743 42.9988 18.8742L42.9988 20.5674ZM65.8553 29.8457H64.1621V35.4687H65.8553H67.5484V29.8457H65.8553ZM65.8553 35.4687H64.1621C64.1621 36.1436 63.8323 36.9512 62.8867 37.8587C61.9367 38.7705 60.4725 39.6697 58.524 40.4606C54.6358 42.039 49.1477 43.0539 42.9988 43.0539L42.9988 44.747L42.9988 46.4402C49.4735 46.4401 55.4135 45.3779 59.7977 43.5982C61.9854 42.7101 63.8684 41.61 65.2315 40.3018C66.5991 38.9892 67.5484 37.3559 67.5484 35.4687H65.8553ZM42.9988 44.747V43.0539C36.8499 43.0539 31.3615 42.0391 27.473 40.4607C25.5245 39.6697 24.0601 38.7705 23.11 37.8587C22.1644 36.9512 21.8345 36.1436 21.8345 35.4687H20.1414H18.4483C18.4483 37.356 19.3976 38.9893 20.7653 40.3018C22.1285 41.6101 24.0116 42.7102 26.1994 43.5983C30.5838 45.378 36.5241 46.4402 42.9988 46.4402V44.747ZM20.1414 35.4687H21.8345V29.8457H20.1414H18.4483V35.4687H20.1414ZM20.1414 29.8457H21.8345C21.8345 29.1708 22.1644 28.3632 23.11 27.4557C24.0601 26.5439 25.5245 25.6447 27.473 24.8537C31.3615 23.2753 36.8499 22.2605 42.9988 22.2605V20.5674V18.8742C36.5241 18.8742 30.5838 19.9364 26.1994 21.7161C24.0116 22.6042 22.1285 23.7043 20.7653 25.0126C19.3976 26.3251 18.4483 27.9584 18.4483 29.8457H20.1414Z" fill="#810E08" mask="url(#path-4-inside-2_623_11875)"/>
<path d="M42.9988 21.6963C49.2198 21.6963 54.8044 22.5664 58.7937 23.9404C60.7937 24.6293 62.3312 25.4242 63.3465 26.2509C64.3704 27.0848 64.7272 27.8308 64.7273 28.4394C64.7273 29.0481 64.3707 29.7949 63.3465 30.6289C62.3312 31.4556 60.7937 32.2506 58.7937 32.9394C54.8044 34.3135 49.2198 35.1835 42.9988 35.1836C36.7778 35.1836 31.1933 34.3134 27.2039 32.9394C25.2037 32.2505 23.6655 31.4557 22.6502 30.6289C21.6261 29.7949 21.2703 29.0481 21.2703 28.4394C21.2705 27.8308 21.6263 27.0847 22.6502 26.2509C23.6655 25.4242 25.2037 24.6293 27.2039 23.9404C31.1933 22.5664 36.7778 21.6963 42.9988 21.6963Z" fill="#B52603" stroke="#810E08" stroke-width="2.2575"/>
<path d="M26.3151 12.6126C26.3477 12.5463 26.4345 12.5294 26.4896 12.5788L29.784 15.5476C29.8035 15.5651 29.8164 15.5892 29.8201 15.6152L35.2785 54.9979C35.2865 55.0564 35.2475 55.1113 35.1894 55.1226L34.2431 55.3058C34.1852 55.3169 34.1283 55.2806 34.1136 55.2235L24.3686 16.671C24.3623 16.6455 24.3652 16.6184 24.3767 16.5948L26.3151 12.6126Z" fill="#F0932C" stroke="#831200" stroke-width="1.11565"/>
<path d="M49.6431 7.52866C49.6849 7.47909 49.7626 7.48332 49.7991 7.53681L51.9734 10.764C51.9862 10.7831 51.992 10.8065 51.9895 10.8293L48.2443 45.5367C48.2387 45.5883 48.1937 45.6268 48.1419 45.6243L47.2964 45.5801C47.2445 45.5774 47.204 45.5343 47.2037 45.4824L47.1202 10.5751C47.1202 10.552 47.1283 10.5294 47.1431 10.5117L49.6431 7.52866Z" fill="#F0932C" stroke="#831200" stroke-width="0.979593"/>
<path d="M37.1825 6.58162C37.2167 6.51988 37.3009 6.50809 37.3508 6.55806L40.3309 9.54178C40.3486 9.55946 40.3597 9.58257 40.3619 9.60745L43.5801 47.2879C43.5849 47.3441 43.5446 47.3945 43.4888 47.4023L42.5806 47.5294C42.5388 47.5351 42.4991 47.5153 42.4773 47.4818L42.4621 47.4445L35.1317 10.3398C35.1269 10.3154 35.1303 10.2901 35.1423 10.2683L37.1825 6.58162Z" fill="#F0932C" stroke="#831200" stroke-width="1.06123"/>
<path d="M35.4428 11.8962C35.4998 11.8283 35.6058 11.8338 35.6554 11.9073L38.6143 16.299C38.6318 16.325 38.6394 16.3569 38.636 16.3881L33.5382 63.6289C33.5305 63.6991 33.4695 63.7514 33.399 63.7478L32.2482 63.6877C32.1776 63.684 32.1226 63.6256 32.1222 63.555L32.0084 16.042C32.0083 16.0106 32.0191 15.9797 32.0393 15.9556L35.4428 11.8962Z" fill="#F0932C" stroke="#831200" stroke-width="1.33333"/>
<path d="M43.4163 11.1661C43.4723 11.086 43.5891 11.0819 43.6505 11.1579L47.3225 15.6961C47.3441 15.7229 47.3558 15.7571 47.3552 15.7917L46.3122 68.1418C46.3106 68.2198 46.2487 68.2837 46.1707 68.2865L44.9019 68.3306C44.824 68.3333 44.7577 68.2738 44.7506 68.1961L40.0451 16.046C40.042 16.0116 40.0513 15.9767 40.071 15.9484L43.4163 11.1661Z" fill="#F0932C" stroke="#831200" stroke-width="1.46939"/>
<path d="M60.9392 11.9367C60.987 11.8872 61.0687 11.8972 61.103 11.9568L63.1531 15.5133C63.1653 15.5344 63.1694 15.5596 63.1651 15.5836L56.6566 51.8547C56.6469 51.9086 56.5973 51.9457 56.5429 51.9391L55.6559 51.8306C55.6014 51.824 55.5614 51.7759 55.5651 51.7211L58.0567 14.9587C58.0584 14.9344 58.0686 14.9109 58.0854 14.8933L60.9392 11.9367Z" fill="#F0932C" stroke="#831200" stroke-width="1.03401"/>
<path d="M55.65 13.6123C55.7168 13.5542 55.8207 13.5765 55.8582 13.6564L58.0907 18.4555C58.1039 18.4838 58.1074 18.5159 58.0993 18.5462L45.6466 64.4115C45.628 64.4797 45.5596 64.5218 45.4904 64.5072L44.364 64.2686C44.2948 64.254 44.2486 64.1876 44.2594 64.1177L51.6075 17.1713C51.6125 17.1405 51.628 17.1123 51.6515 17.0918L55.65 13.6123Z" fill="#F0932C" stroke="#831200" stroke-width="1.33333"/>
<mask id="path-14-inside-3_623_11875" fill="white">
<path fill-rule="evenodd" clip-rule="evenodd" d="M64.1629 37.437H21.8348V73.4255H21.8349V75.1124C21.8349 79.4603 31.3103 82.9849 42.9989 82.9849C54.6875 82.9849 64.163 79.4603 64.163 75.1124V68.9269H64.1629V37.437Z"/>
</mask>
<path fill-rule="evenodd" clip-rule="evenodd" d="M64.1629 37.437H21.8348V73.4255H21.8349V75.1124C21.8349 79.4603 31.3103 82.9849 42.9989 82.9849C54.6875 82.9849 64.163 79.4603 64.163 75.1124V68.9269H64.1629V37.437Z" fill="#BF2501"/>
<path d="M21.8348 75.1124L21.625 75.9326L21.6251 75.9326L21.8349 75.1125L22.0447 74.2923L22.0446 74.2923L21.8348 75.1124ZM21.8348 37.437V35.7439H20.1417V37.437H21.8348ZM64.1629 37.437H65.856V35.7439H64.1629V37.437ZM21.8348 73.4255H20.1417V75.1186H21.8348V73.4255ZM21.8349 73.4255H23.528V71.7324H21.8349V73.4255ZM64.163 68.9269H65.8561V67.2338H64.163V68.9269ZM64.1629 68.9269H62.4698V70.62H64.1629V68.9269ZM21.8348 37.437V39.1301H64.1629V37.437V35.7439H21.8348V37.437ZM21.8348 73.4255H23.5279V37.437H21.8348H20.1417V73.4255H21.8348ZM21.8349 73.4255V71.7324H21.8348V73.4255V75.1186H21.8349V73.4255ZM21.8349 75.1124H23.528V73.4255H21.8349H20.1418V75.1124H21.8349ZM42.9989 82.9849V81.2918C37.3026 81.2918 32.2206 80.4301 28.624 79.0922C26.8192 78.4209 25.4767 77.6622 24.6162 76.9054C23.7528 76.1461 23.528 75.5358 23.528 75.1124H21.8349H20.1418C20.1418 76.863 21.1014 78.3237 22.3799 79.4482C23.6613 80.5751 25.4182 81.5127 27.4434 82.266C31.5066 83.7774 37.0067 84.678 42.9989 84.678V82.9849ZM64.163 75.1124H62.4698C62.4698 75.5358 62.245 76.1461 61.3817 76.9054C60.5211 77.6622 59.1786 78.4209 57.3739 79.0922C53.7772 80.4301 48.6952 81.2918 42.9989 81.2918V82.9849V84.678C48.9912 84.678 54.4912 83.7774 58.5544 82.266C60.5796 81.5127 62.3365 80.5751 63.6179 79.4482C64.8964 78.3237 65.8561 76.863 65.8561 75.1124H64.163ZM64.163 68.9269H62.4698V75.1124H64.163H65.8561V68.9269H64.163ZM64.1629 68.9269V70.62H64.163V68.9269V67.2338H64.1629V68.9269ZM64.1629 37.437H62.4698V68.9269H64.1629H65.856V37.437H64.1629Z" fill="#810E08" mask="url(#path-14-inside-3_623_11875)"/>
<path d="M42.9986 44.7471C55.6222 44.7471 65.8557 40.593 65.8557 35.4688V28.7425L61.1671 31.6623L55.3063 33.4141L42.4125 34.582L28.9326 33.4141L20.1414 28.7425V35.4688C20.1414 40.593 30.3749 44.7471 42.9986 44.7471Z" fill="#F0932C"/>
<path d="M64.6836 28.7425V35.7499C64.6836 40.8741 55.6223 43.9252 42.9986 43.9252C30.375 43.9252 21.3136 40.8741 21.3136 35.7499V28.7425" stroke="#810E08" stroke-width="2.34432"/>
<path d="M64.6836 28.1588C64.6836 32.5066 55.6223 35.1662 42.9986 35.1662C30.375 35.1662 21.3136 32.5066 21.3136 28.1588" stroke="#810E08" stroke-width="2.2575"/>
<path d="M36.9724 57.8896C36.9293 57.8896 36.8861 57.8865 36.843 57.8804C36.8061 57.8804 36.766 57.8773 36.7229 57.8711C36.6859 57.6062 36.6582 57.3413 36.6397 57.0764C36.6212 56.8177 36.6089 56.5713 36.6028 56.3372C36.3071 56.4727 36.0021 56.5405 35.6879 56.5405C35.2937 56.5405 34.9209 56.4327 34.5698 56.217C34.2248 56.0014 33.9445 55.6718 33.7289 55.2283C33.5133 54.7847 33.4055 54.2272 33.4055 53.5557C33.4055 52.9027 33.5071 52.339 33.7104 51.8646C33.9137 51.3903 34.1786 50.9991 34.5051 50.6911C34.8316 50.383 35.1858 50.1551 35.5678 50.0073C35.9497 49.8594 36.3194 49.7855 36.6767 49.7855C36.997 49.7855 37.2897 49.8409 37.5546 49.9518C37.8195 50.0565 38.0289 50.2075 38.1829 50.4046C38.3431 50.5956 38.4232 50.8266 38.4232 51.0977C38.4232 51.3194 38.3616 51.5289 38.2384 51.726C38.1152 51.9232 37.9273 52.0833 37.6747 52.2066C37.4221 52.3236 37.1018 52.3821 36.7137 52.3821C36.7753 52.2035 36.8184 52.0433 36.843 51.9016C36.8677 51.7599 36.88 51.6367 36.88 51.532C36.88 51.2979 36.8307 51.1408 36.7321 51.0607C36.6336 50.9745 36.5196 50.9313 36.3902 50.9313C36.1376 50.9313 35.9097 51.0453 35.7064 51.2732C35.5031 51.5012 35.3429 51.8 35.2259 52.1696C35.1088 52.5331 35.0503 52.9243 35.0503 53.3432C35.0503 53.9407 35.1674 54.4089 35.4015 54.7478C35.6356 55.0866 35.9282 55.256 36.2793 55.256C36.4149 55.256 36.5566 55.2283 36.7044 55.1728V55.1636C36.7044 54.7016 36.7445 54.335 36.8245 54.0639C36.9108 53.7867 37.0186 53.5896 37.148 53.4725C37.2835 53.3555 37.4221 53.297 37.5638 53.297C37.7178 53.297 37.8626 53.3493 37.9981 53.4541C38.1398 53.5588 38.2569 53.6943 38.3493 53.8607C38.4417 54.0208 38.4879 54.1964 38.4879 54.3874C38.4879 54.5599 38.4386 54.7354 38.34 54.9141C38.2476 55.0866 38.0874 55.2437 37.8595 55.3854C37.8472 55.4347 37.8379 55.4839 37.8318 55.5332C37.8256 55.5825 37.8225 55.6318 37.8225 55.6811C37.8225 55.8474 37.8564 56.0353 37.9242 56.2448C37.9981 56.4542 38.1121 56.7468 38.2661 57.1226C38.2291 57.2643 38.1429 57.3937 38.0074 57.5108C37.878 57.6278 37.7209 57.7202 37.5361 57.788C37.3574 57.8557 37.1695 57.8896 36.9724 57.8896ZM39.817 56.5312C39.6445 56.5312 39.4905 56.4604 39.355 56.3187C39.2256 56.1708 39.1609 55.8998 39.1609 55.5055C39.1609 55.4377 39.1609 55.3792 39.1609 55.3299C39.1671 55.2745 39.1702 55.2344 39.1702 55.2098C39.1948 54.9634 39.2287 54.6584 39.2718 54.295C39.3211 53.9253 39.3766 53.5403 39.4382 53.1399C39.4998 52.7333 39.5614 52.3421 39.623 51.9663C39.6907 51.5905 39.7523 51.264 39.8078 50.9868C39.8632 50.7034 39.9094 50.5093 39.9464 50.4046C40.0142 50.2198 40.1343 50.075 40.3068 49.9703C40.4854 49.8594 40.6672 49.804 40.852 49.804C41.0122 49.804 41.1569 49.8502 41.2863 49.9426C41.4218 50.035 41.5142 50.1921 41.5635 50.4138C41.5266 50.5371 41.468 50.7558 41.388 51.0699C41.3079 51.378 41.2216 51.7568 41.1292 52.2066C41.0368 52.6563 40.9475 53.1522 40.8612 53.6943C40.7811 54.2364 40.7165 54.8032 40.6672 55.3946C40.661 55.4993 40.6518 55.6226 40.6395 55.7642C40.6271 55.8998 40.6179 56.0384 40.6117 56.1801C40.5378 56.2602 40.4269 56.3403 40.2791 56.4203C40.1312 56.4943 39.9772 56.5312 39.817 56.5312ZM43.7391 56.5497C43.3263 56.5497 42.9844 56.4758 42.7134 56.3279C42.4423 56.1739 42.2421 55.9768 42.1127 55.7365C41.9833 55.4901 41.9187 55.2252 41.9187 54.9418C41.9187 54.6892 41.9679 54.4397 42.0665 54.1933C42.1651 53.9469 42.3098 53.722 42.5008 53.5187C42.698 53.3154 42.9351 53.1553 43.2124 53.0382C42.9598 52.8781 42.7688 52.6871 42.6394 52.4653C42.5162 52.2374 42.4546 52.0002 42.4546 51.7538C42.4546 51.4334 42.5593 51.1223 42.7688 50.8204C42.9783 50.5186 43.2832 50.2691 43.6836 50.0719C44.0841 49.8748 44.5646 49.7762 45.1252 49.7762C45.5133 49.7762 45.8213 49.8255 46.0493 49.9241C46.2834 50.0165 46.4528 50.1397 46.5575 50.2937C46.6622 50.4416 46.7146 50.6017 46.7146 50.7742C46.7146 50.9714 46.653 51.1685 46.5298 51.3656C46.4066 51.5566 46.2279 51.7137 45.9938 51.8369C45.7659 51.9601 45.4856 52.0217 45.1529 52.0217C45.2515 51.7322 45.3008 51.4919 45.3008 51.301C45.3008 51.11 45.2607 50.9714 45.1806 50.8851C45.1006 50.7989 45.002 50.7558 44.8849 50.7558C44.7617 50.7558 44.6293 50.802 44.4876 50.8944C44.3521 50.9868 44.2381 51.1161 44.1457 51.2825C44.0533 51.4488 44.0071 51.6429 44.0071 51.8646C44.0071 51.9817 44.0255 52.1141 44.0625 52.262C44.0995 52.4037 44.158 52.5454 44.2381 52.6871C44.3736 52.6008 44.4968 52.5392 44.6077 52.5023C44.7248 52.4591 44.8295 52.4376 44.9219 52.4376C45.1129 52.4376 45.2515 52.5053 45.3377 52.6409C45.424 52.7702 45.4671 52.9181 45.4671 53.0844C45.4671 53.2816 45.4055 53.4695 45.2823 53.6481C45.1652 53.8268 44.9897 53.9161 44.7556 53.9161C44.5399 53.9161 44.2874 53.8144 43.9978 53.6112C43.659 53.8514 43.4896 54.1348 43.4896 54.4613C43.4896 54.7139 43.5666 54.9049 43.7206 55.0342C43.8808 55.1636 44.0841 55.2283 44.3305 55.2283C44.6447 55.2283 44.9958 55.1205 45.3839 54.9049C45.772 54.6831 46.117 54.3535 46.4189 53.9161L46.4928 53.9623C46.4805 54.3935 46.3912 54.7724 46.2248 55.0989C46.0647 55.4193 45.8521 55.6872 45.5872 55.9029C45.3285 56.1185 45.0389 56.2817 44.7186 56.3926C44.3983 56.4973 44.0717 56.5497 43.7391 56.5497ZM49.4883 56.5497C49.0755 56.5497 48.7182 56.4758 48.4163 56.3279C48.1206 56.1739 47.8742 55.9675 47.6771 55.7088C47.4861 55.4439 47.3413 55.1451 47.2428 54.8124C47.1504 54.4798 47.1042 54.1286 47.1042 53.759C47.1042 53.2908 47.175 52.8226 47.3167 52.3544C47.4646 51.8862 47.6771 51.4581 47.9543 51.0699C48.2377 50.6818 48.5827 50.3707 48.9893 50.1366C49.3959 49.8964 49.861 49.7762 50.3846 49.7762C50.7974 49.7762 51.1516 49.8532 51.4473 50.0073C51.7492 50.1551 51.9956 50.3615 52.1866 50.6264C52.3837 50.8851 52.5285 51.1808 52.6209 51.5135C52.7195 51.8462 52.7687 52.1973 52.7687 52.5669C52.7687 53.029 52.6948 53.4972 52.547 53.9715C52.4053 54.4397 52.1927 54.8679 51.9094 55.256C51.6321 55.6441 51.2902 55.9583 50.8836 56.1986C50.477 56.4327 50.0119 56.5497 49.4883 56.5497ZM49.8302 55.3761C50.0458 55.3761 50.2337 55.3022 50.3939 55.1544C50.554 55.0065 50.6865 54.8124 50.7912 54.5722C50.9021 54.3258 50.9853 54.0547 51.0407 53.759C51.0962 53.4633 51.1239 53.1645 51.1239 52.8627C51.1239 52.53 51.0869 52.2189 51.013 51.9293C50.9452 51.6336 50.8343 51.3964 50.6803 51.2178C50.5325 51.033 50.3384 50.9406 50.0982 50.9406C49.8887 50.9406 49.7008 51.0145 49.5345 51.1624C49.3681 51.304 49.2265 51.4981 49.1094 51.7445C48.9924 51.9848 48.903 52.2528 48.8414 52.5485C48.786 52.838 48.7583 53.1306 48.7583 53.4263C48.7583 53.7652 48.7983 54.0824 48.8784 54.3781C48.9585 54.6738 49.0786 54.9141 49.2388 55.0989C49.3989 55.2837 49.5961 55.3761 49.8302 55.3761ZM39.1904 71.788C38.6175 71.788 38.1801 71.6617 37.8782 71.4091C37.5825 71.1627 37.3915 70.8639 37.3053 70.5127C37.2314 70.5189 37.1574 70.5251 37.0835 70.5312C37.0096 70.5435 36.9326 70.5497 36.8525 70.5497C36.3104 70.5497 35.8637 70.4203 35.5126 70.1616C35.1614 69.9029 34.8996 69.5609 34.7271 69.1359C34.5608 68.7108 34.4776 68.2518 34.4776 67.759C34.4776 67.2908 34.5515 66.8226 34.6994 66.3544C34.8472 65.8862 35.0598 65.458 35.337 65.0699C35.6204 64.6818 35.9654 64.3707 36.372 64.1366C36.7786 63.8964 37.2437 63.7762 37.7673 63.7762C38.1739 63.7762 38.5251 63.8532 38.8208 64.0073C39.1226 64.1551 39.369 64.3615 39.56 64.6264C39.7572 64.8851 39.9019 65.1808 39.9943 65.5135C40.0929 65.8462 40.1422 66.1973 40.1422 66.5669C40.1422 67.0536 40.0621 67.5434 39.9019 68.0362C39.7479 68.5229 39.5169 68.9665 39.2089 69.3669C38.9008 69.7612 38.5251 70.063 38.0815 70.2725C38.2848 70.3156 38.5066 70.3495 38.7468 70.3741C38.9871 70.3926 39.2582 70.4019 39.56 70.4019C39.6648 70.4019 39.7726 70.4019 39.8834 70.4019C40.0005 70.4019 40.1175 70.3988 40.2346 70.3926L40.2716 70.4665C40.173 70.7684 40.0375 71.0302 39.865 71.252C39.6925 71.4738 39.4676 71.6524 39.1904 71.788ZM37.2221 69.3761C37.4316 69.3761 37.6133 69.3022 37.7673 69.1544C37.9275 69.0065 38.0599 68.8124 38.1647 68.5722C38.2756 68.3258 38.3587 68.0547 38.4142 67.759C38.4696 67.4633 38.4973 67.1645 38.4973 66.8626C38.4973 66.5238 38.4635 66.2096 38.3957 65.9201C38.3279 65.6305 38.2232 65.3964 38.0815 65.2178C37.946 65.033 37.7704 64.9406 37.5548 64.9406C37.3207 64.9406 37.1143 65.0145 36.9356 65.1623C36.7632 65.304 36.6153 65.495 36.4921 65.7353C36.375 65.9755 36.2857 66.2435 36.2241 66.5392C36.1625 66.8349 36.1317 67.1306 36.1317 67.4263C36.1317 67.7652 36.1717 68.0824 36.2518 68.3781C36.3319 68.6738 36.452 68.9141 36.6122 69.0989C36.7786 69.2837 36.9819 69.3761 37.2221 69.3761ZM41.8123 70.522C41.492 70.522 41.2332 70.3926 41.0361 70.1339C40.839 69.869 40.7404 69.5117 40.7404 69.0619C40.7404 68.7724 40.7743 68.4551 40.842 68.1101C40.9098 67.7652 40.9899 67.4202 41.0823 67.0752C41.1747 66.724 41.2548 66.4037 41.3226 66.1141C41.3903 65.8246 41.4242 65.5967 41.4242 65.4303C41.4242 65.2147 41.3595 65.1069 41.2301 65.1069C41.1439 65.1069 41.0484 65.1531 40.9437 65.2455C40.839 65.3379 40.7619 65.458 40.7127 65.6059L40.6203 65.5689C40.6387 65.2055 40.7281 64.8944 40.8882 64.6356C41.0484 64.3769 41.2455 64.1797 41.4796 64.0442C41.7137 63.9025 41.9448 63.8317 42.1727 63.8317C42.413 63.8317 42.6193 63.9179 42.7918 64.0904C42.9643 64.2568 43.0506 64.5309 43.0506 64.9128C43.0506 65.1716 43.0136 65.4611 42.9397 65.7815C42.8719 66.1018 42.7888 66.4283 42.6902 66.761C42.5978 67.0875 42.5146 67.3986 42.4407 67.6943C42.3729 67.99 42.339 68.2395 42.339 68.4428C42.339 68.5907 42.3637 68.7077 42.413 68.794C42.4622 68.8802 42.5454 68.9233 42.6625 68.9233C42.8288 68.9233 43.0013 68.8402 43.1799 68.6738C43.3586 68.5013 43.5311 68.2888 43.6974 68.0362C43.8638 67.7775 44.0147 67.5249 44.1502 67.2785C44.2488 66.4283 44.3905 65.7507 44.5753 65.2455C44.7601 64.7404 44.9603 64.3769 45.1759 64.1551C45.3977 63.9333 45.6041 63.8224 45.7951 63.8224C45.9984 63.8224 46.1678 63.9241 46.3033 64.1274C46.445 64.3245 46.5159 64.5833 46.5159 64.9036C46.5159 65.187 46.445 65.5073 46.3033 65.8646C46.1678 66.2158 45.9275 66.5731 45.5825 66.9366C45.5394 67.1522 45.5025 67.377 45.4717 67.6111C45.447 67.8452 45.4347 68.067 45.4347 68.2765C45.4347 68.5414 45.4624 68.7632 45.5179 68.9418C45.5795 69.1143 45.6842 69.2006 45.832 69.2006C45.9306 69.2006 46.023 69.1574 46.1093 69.0712C46.2017 68.9788 46.2787 68.8432 46.3403 68.6646L46.4142 68.7016C46.4142 69.2991 46.291 69.7519 46.0446 70.0599C45.8043 70.368 45.5179 70.522 45.1852 70.522C44.8833 70.522 44.6307 70.3741 44.4274 70.0784C44.2241 69.7766 44.104 69.2683 44.0671 68.5537C43.7282 69.2314 43.3524 69.7304 42.9397 70.0507C42.5269 70.3649 42.1511 70.522 41.8123 70.522ZM48.7836 70.5497C48.3708 70.5497 48.0289 70.4758 47.7579 70.3279C47.4868 70.1739 47.2866 69.9768 47.1572 69.7365C47.0279 69.4901 46.9632 69.2252 46.9632 68.9418C46.9632 68.6892 47.0125 68.4397 47.111 68.1933C47.2096 67.9469 47.3544 67.722 47.5453 67.5187C47.7425 67.3154 47.9797 67.1553 48.2569 67.0382C48.0043 66.878 47.8133 66.6871 47.6839 66.4653C47.5607 66.2374 47.4991 66.0002 47.4991 65.7538C47.4991 65.4334 47.6039 65.1223 47.8133 64.8204C48.0228 64.5186 48.3277 64.2691 48.7282 64.0719C49.1286 63.8748 49.6091 63.7762 50.1697 63.7762C50.5578 63.7762 50.8658 63.8255 51.0938 63.9241C51.3279 64.0165 51.4973 64.1397 51.602 64.2937C51.7068 64.4416 51.7591 64.6017 51.7591 64.7742C51.7591 64.9714 51.6975 65.1685 51.5743 65.3656C51.4511 65.5566 51.2724 65.7137 51.0383 65.8369C50.8104 65.9601 50.5301 66.0217 50.1974 66.0217C50.296 65.7322 50.3453 65.4919 50.3453 65.301C50.3453 65.11 50.3052 64.9714 50.2252 64.8851C50.1451 64.7989 50.0465 64.7558 49.9295 64.7558C49.8062 64.7558 49.6738 64.802 49.5321 64.8944C49.3966 64.9868 49.2826 65.1161 49.1902 65.2825C49.0978 65.4488 49.0516 65.6429 49.0516 65.8646C49.0516 65.9817 49.0701 66.1141 49.107 66.262C49.144 66.4037 49.2025 66.5454 49.2826 66.6871C49.4181 66.6008 49.5413 66.5392 49.6522 66.5023C49.7693 66.4591 49.874 66.4376 49.9664 66.4376C50.1574 66.4376 50.296 66.5053 50.3822 66.6409C50.4685 66.7702 50.5116 66.9181 50.5116 67.0844C50.5116 67.2816 50.45 67.4695 50.3268 67.6481C50.2098 67.8268 50.0342 67.9161 49.8001 67.9161C49.5845 67.9161 49.3319 67.8144 49.0423 67.6111C48.7035 67.8514 48.5341 68.1348 48.5341 68.4613C48.5341 68.7139 48.6111 68.9049 48.7651 69.0342C48.9253 69.1636 49.1286 69.2283 49.375 69.2283C49.6892 69.2283 50.0403 69.1205 50.4285 68.9049C50.8166 68.6831 51.1616 68.3535 51.4634 67.9161L51.5373 67.9623C51.525 68.3935 51.4357 68.7724 51.2694 69.0989C51.1092 69.4193 50.8967 69.6872 50.6317 69.9029C50.373 70.1185 50.0835 70.2817 49.7631 70.3926C49.4428 70.4973 49.1163 70.5497 48.7836 70.5497ZM50.0773 63.3696C49.9541 63.3696 49.8463 63.3512 49.7539 63.3142C49.6615 63.2711 49.6153 63.2095 49.6153 63.1294C49.6153 63.0246 49.6769 62.9384 49.8001 62.8706C49.9233 62.7967 50.0681 62.732 50.2344 62.6766C50.4007 62.6211 50.5455 62.5688 50.6687 62.5195C50.7919 62.4702 50.8535 62.4178 50.8535 62.3624C50.8535 62.2885 50.758 62.2515 50.5671 62.2515C50.4315 62.2515 50.2683 62.2823 50.0773 62.3439C49.8925 62.4055 49.7138 62.5164 49.5413 62.6766C49.2949 62.5102 49.1717 62.3347 49.1717 62.1499C49.1717 62.0082 49.2364 61.8788 49.3658 61.7617C49.4951 61.6447 49.6676 61.5523 49.8832 61.4845C50.0989 61.4106 50.3299 61.3736 50.5763 61.3736C50.9028 61.3736 51.18 61.4414 51.408 61.5769C51.6359 61.7063 51.7499 61.888 51.7499 62.1221C51.7499 62.3008 51.6883 62.4486 51.5651 62.5657C51.448 62.6827 51.3094 62.7813 51.1492 62.8614C50.9952 62.9415 50.8566 63.0123 50.7334 63.0739C50.6102 63.1355 50.5486 63.2033 50.5486 63.2772C50.4808 63.308 50.4038 63.3327 50.3176 63.3512C50.2375 63.3635 50.1574 63.3696 50.0773 63.3696Z" fill="white"/>
</g>
</g>
<defs>
<filter id="filter0_d_623_11875" x="-5.21566" y="-0.214111" width="96.4285" height="96.4285" filterUnits="userSpaceOnUse" color-interpolation-filters="sRGB">
<feFlood flood-opacity="0" result="BackgroundImageFix"/>
<feColorMatrix in="SourceAlpha" type="matrix" values="0 0 0 0 0 0 0 0 0 0 0 0 0 0 0 0 0 0 127 0" result="hardAlpha"/>
<feOffset/>
<feGaussianBlur stdDeviation="2.67857"/>
<feComposite in2="hardAlpha" operator="out"/>
<feColorMatrix type="matrix" values="0 0 0 0 0.144231 0 0 0 0 0.144231 0 0 0 0 0.144231 0 0 0 0.25 0"/>
<feBlend mode="normal" in2="BackgroundImageFix" result="effect1_dropShadow_623_11875"/>
<feBlend mode="normal" in="SourceGraphic" in2="effect1_dropShadow_623_11875" result="shape"/>
</filter>
<clipPath id="clip0_623_11875">
<rect x="0.141479" y="5.14303" width="85.7142" height="85.7142" rx="42.8571" fill="white"/>
</clipPath>
</defs>
</svg>
