<svg width="161" height="44" viewBox="0 0 161 44" fill="none" xmlns="http://www.w3.org/2000/svg">
<g opacity="0.8">
<path d="M122.252 19.545C122.77 19.545 123.255 19.87 123.435 20.3875C125.52 26.435 131.22 30.4975 137.62 30.4975C144.02 30.4975 149.685 26.4575 151.785 20.445C152.012 19.7925 152.725 19.45 153.377 19.6775C154.03 19.905 154.372 20.6175 154.145 21.27C151.695 28.285 145.055 33 137.62 33C130.185 33 123.502 28.26 121.07 21.205C120.845 20.5525 121.192 19.84 121.845 19.615C121.98 19.5675 122.117 19.5475 122.252 19.5475V19.545Z" fill="#F4B869"/>
<path d="M127.147 17.6198C127.674 17.6198 128.167 17.9573 128.337 18.4873C129.639 22.5298 133.369 25.2473 137.619 25.2473C141.869 25.2473 145.514 22.5873 146.857 18.6273C147.079 17.9723 147.789 17.6223 148.442 17.8448C149.097 18.0673 149.447 18.7748 149.224 19.4298C147.539 24.4048 142.877 27.7473 137.619 27.7473C132.362 27.7473 127.592 24.3348 125.957 19.2523C125.744 18.5948 126.107 17.8898 126.764 17.6798C126.892 17.6398 127.022 17.6198 127.147 17.6198Z" fill="#F4B869"/>
<path d="M131.371 14.2475C132.061 14.2475 132.621 14.8075 132.621 15.4975C132.621 18.255 134.863 20.4975 137.621 20.4975C140.378 20.4975 142.566 18.3 142.621 15.6C142.633 14.91 143.208 14.3575 143.896 14.375C144.586 14.3875 145.136 14.96 145.121 15.65C145.041 19.7025 141.676 23 137.623 23C133.571 23 130.123 19.635 130.123 15.5C130.123 14.81 130.683 14.25 131.373 14.25L131.371 14.2475Z" fill="#F4B869"/>
<path d="M122.252 -2.20477C122.77 -2.20477 123.255 -1.87977 123.435 -1.36227C125.52 4.68523 131.22 8.74771 137.62 8.74771C144.02 8.74771 149.685 4.70772 151.785 -1.30478C152.012 -1.95728 152.725 -2.2998 153.377 -2.0723C154.03 -1.8448 154.372 -1.1323 154.145 -0.479797C151.695 6.5352 145.055 11.2502 137.62 11.2502C130.185 11.2502 123.502 6.5102 121.07 -0.5448C120.845 -1.1973 121.192 -1.9098 121.845 -2.1348C121.98 -2.1823 122.117 -2.20227 122.252 -2.20227V-2.20477Z" fill="#F4B869"/>
<path d="M127.147 -4.12997C127.674 -4.12997 128.167 -3.79248 128.337 -3.26248C129.639 0.780018 133.369 3.49753 137.619 3.49753C141.869 3.49753 145.514 0.837533 146.857 -3.12247C147.079 -3.77747 147.789 -4.12747 148.442 -3.90497C149.097 -3.68247 149.447 -2.97498 149.224 -2.31998C147.539 2.65502 142.877 5.99753 137.619 5.99753C132.362 5.99753 127.592 2.58503 125.957 -2.49747C125.744 -3.15497 126.107 -3.85998 126.764 -4.06998C126.892 -4.10998 127.022 -4.12997 127.147 -4.12997Z" fill="#F4B869"/>
<path d="M131.371 -7.50229C132.061 -7.50229 132.621 -6.94229 132.621 -6.25229C132.621 -3.49479 134.863 -1.25229 137.621 -1.25229C140.378 -1.25229 142.566 -3.44978 142.621 -6.14978C142.633 -6.83978 143.208 -7.38979 143.896 -7.37479C144.586 -7.36229 145.136 -6.78979 145.121 -6.09979C145.041 -2.04729 141.676 1.25021 137.623 1.25021C133.571 1.25021 130.123 -2.11479 130.123 -6.24979C130.123 -6.93979 130.683 -7.49979 131.373 -7.49979L131.371 -7.50229Z" fill="#F4B869"/>
<path d="M103.537 8.79523C104.055 8.79523 104.54 9.12023 104.72 9.63773C106.805 15.6852 112.505 19.7477 118.905 19.7477C125.305 19.7477 130.97 15.7077 133.07 9.69522C133.297 9.04272 134.01 8.7002 134.662 8.9277C135.315 9.1552 135.657 9.8677 135.43 10.5202C132.98 17.5352 126.34 22.2502 118.905 22.2502C111.47 22.2502 104.787 17.5102 102.355 10.4552C102.13 9.8027 102.477 9.0902 103.13 8.8652C103.265 8.8177 103.402 8.79773 103.537 8.79773V8.79523Z" fill="#F4B869"/>
<path d="M108.5 7.49997C109.028 7.49997 109.452 7.20752 109.622 7.73752C110.924 11.78 114.654 14.4975 118.904 14.4975C123.154 14.4975 126.799 11.8375 128.142 7.87753C128.364 7.22253 129.074 6.87253 129.727 7.09503C130.382 7.31753 130.732 8.02502 130.509 8.68002C128.824 13.655 124.162 16.9975 118.904 16.9975C113.647 16.9975 108.877 13.585 107.242 8.50253C107.029 7.84503 107.46 7.76997 108.118 7.55997C108.245 7.51997 108.375 7.49997 108.5 7.49997Z" fill="#F4B869"/>
<path d="M112.659 4.14974C113.349 4.14974 113.906 4.05771 113.906 4.74771C113.906 7.50521 116.149 9.74771 118.906 9.74771C121.664 9.74771 123.851 7.55022 123.906 4.85022C123.919 4.16022 124.491 3.61771 125.181 3.62521C125.871 3.63771 126.419 4.21021 126.406 4.90021C126.326 8.95271 122.961 12.2502 118.909 12.2502C114.856 12.2502 111.5 9.63497 111.5 5.49997C111.5 4.80997 111.436 5.38445 112.139 4.74771L112.659 4.14974Z" fill="#F4B869"/>
<path d="M141.037 8.79523C141.555 8.79523 142.04 9.12023 142.22 9.63773C144.305 15.6852 150.005 19.7477 156.405 19.7477C162.805 19.7477 168.47 15.7077 170.57 9.69522C170.797 9.04272 171.51 8.7002 172.162 8.9277C172.815 9.1552 173.157 9.8677 172.93 10.5202C170.48 17.5352 163.84 22.2502 156.405 22.2502C148.97 22.2502 142.287 17.5102 139.855 10.4552C139.63 9.8027 139.977 9.0902 140.63 8.8652C140.765 8.8177 140.902 8.79773 141.037 8.79773V8.79523Z" fill="#F4B869"/>
<path d="M145.932 6.87003C146.459 6.87003 146.952 7.20752 147.122 7.73752C148.424 11.78 152.154 14.4975 156.404 14.4975C160.654 14.4975 164.299 11.8375 165.642 7.87753C165.864 7.22253 166.574 6.87253 167.227 7.09503C167.882 7.31753 168.232 8.02502 168.009 8.68002C166.324 13.655 161.662 16.9975 156.404 16.9975C151.147 16.9975 146.377 13.585 144.742 8.50253C144.529 7.84503 144.892 7.14002 145.549 6.93002C145.677 6.89002 145.807 6.87003 145.932 6.87003Z" fill="#F4B869"/>
<path d="M150.156 3.49771C150.846 3.49771 151.406 4.05771 151.406 4.74771C151.406 7.50521 153.649 9.74771 156.406 9.74771C159.164 9.74771 161.351 7.55022 161.406 4.85022C161.419 4.16022 161.996 3.61771 162.681 3.62521C163.371 3.63771 163.919 4.21021 163.906 4.90021C163.826 8.95271 160.461 12.2502 156.409 12.2502C152.356 12.2502 148.909 8.88521 148.909 4.75021C148.909 4.06021 149.469 3.50021 150.159 3.50021L150.156 3.49771Z" fill="#F4B869"/>
<path d="M67.252 8.54498C67.7695 8.54498 68.2545 8.86998 68.4345 9.38748C70.5195 15.435 76.2195 19.4975 82.6195 19.4975C89.0195 19.4975 94.6845 15.4575 96.7845 9.44498C97.012 8.79248 97.7245 8.44996 98.377 8.67746C99.0295 8.90496 99.372 9.61746 99.1445 10.27C96.6945 17.285 90.0545 22 82.6195 22C75.1845 22 68.502 17.26 66.0695 10.205C65.8445 9.55246 66.192 8.83996 66.8445 8.61496C66.9795 8.56746 67.117 8.54749 67.252 8.54749V8.54498Z" fill="#F4B869"/>
<path d="M72.1466 6.61978C72.6741 6.61978 73.1666 6.95727 73.3366 7.48727C74.6391 11.5298 78.3691 14.2473 82.6191 14.2473C86.8691 14.2473 90.5141 11.5873 91.8566 7.62729C92.0791 6.97229 92.789 6.62229 93.4415 6.84479C94.0965 7.06729 94.4466 7.77478 94.2241 8.42978C92.5391 13.4048 87.8766 16.7473 82.6191 16.7473C77.3616 16.7473 72.5915 13.3348 70.9565 8.25229C70.744 7.59479 71.1066 6.88978 71.7641 6.67978C71.8916 6.63978 72.0216 6.61978 72.1466 6.61978Z" fill="#F4B869"/>
<path d="M76.3708 3.24747C77.0608 3.24747 77.6208 3.80747 77.6208 4.49747C77.6208 7.25497 79.8633 9.49747 82.6208 9.49747C85.3783 9.49747 87.5658 7.29998 87.6208 4.59998C87.6333 3.90998 88.2083 3.35747 88.8958 3.37497C89.5858 3.38747 90.1358 3.95996 90.1208 4.64996C90.0408 8.70246 86.6758 12 82.6233 12C78.5708 12 75.1233 8.63497 75.1233 4.49997C75.1233 3.80997 75.6833 3.24997 76.3733 3.24997L76.3708 3.24747Z" fill="#F4B869"/>
<path d="M67.252 -13.2048C67.7695 -13.2048 68.2545 -12.8798 68.4345 -12.3623C70.5195 -6.31477 76.2195 -2.25229 82.6195 -2.25229C89.0195 -2.25229 94.6845 -6.29228 96.7845 -12.3048C97.012 -12.9573 97.7245 -13.2998 98.377 -13.0723C99.0295 -12.8448 99.372 -12.1323 99.1445 -11.4798C96.6945 -4.4648 90.0545 0.250214 82.6195 0.250214C75.1845 0.250214 68.502 -4.4898 66.0695 -11.5448C65.8445 -12.1973 66.192 -12.9098 66.8445 -13.1348C66.9795 -13.1823 67.117 -13.2023 67.252 -13.2023V-13.2048Z" fill="#F4B869"/>
<path d="M48.5372 -2.20477C49.0547 -2.20477 49.5397 -1.87977 49.7197 -1.36227C51.8047 4.68523 57.5047 8.74771 63.9047 8.74771C70.3047 8.74771 75.9697 4.70772 78.0697 -1.30478C78.2972 -1.95728 79.0097 -2.2998 79.6622 -2.0723C80.3147 -1.8448 80.6572 -1.1323 80.4297 -0.479797C77.9797 6.5352 71.3397 11.2502 63.9047 11.2502C56.4697 11.2502 49.7872 6.5102 47.3547 -0.5448C47.1297 -1.1973 47.4772 -1.9098 48.1297 -2.1348C48.2647 -2.1823 48.4022 -2.20227 48.5372 -2.20227V-2.20477Z" fill="#F4B869"/>
<path d="M53.4317 -4.12997C53.9592 -4.12997 54.4517 -3.79248 54.6217 -3.26248C55.9242 0.780018 59.6542 3.49753 63.9042 3.49753C68.1542 3.49753 71.7992 0.837533 73.1417 -3.12247C73.3642 -3.77747 74.0742 -4.12747 74.7267 -3.90497C75.3817 -3.68247 75.7317 -2.97498 75.5092 -2.31998C73.8242 2.65502 69.1617 5.99753 63.9042 5.99753C58.6467 5.99753 53.8767 2.58503 52.2417 -2.49747C52.0292 -3.15497 52.3917 -3.85998 53.0492 -4.06998C53.1767 -4.10998 53.3067 -4.12997 53.4317 -4.12997Z" fill="#F4B869"/>
<path d="M57.656 -7.50229C58.346 -7.50229 58.906 -6.94229 58.906 -6.25229C58.906 -3.49479 61.1485 -1.25229 63.906 -1.25229C66.6635 -1.25229 68.851 -3.44978 68.906 -6.14978C68.9185 -6.83978 69.491 -7.38229 70.181 -7.37479C70.871 -7.36229 71.4185 -6.78979 71.406 -6.09979C71.326 -2.04729 67.961 1.25021 63.9085 1.25021C59.856 1.25021 56.4085 -2.11479 56.4085 -6.24979C56.4085 -6.93979 56.9685 -7.49979 57.6585 -7.49979L57.656 -7.50229Z" fill="#F4B869"/>
<path d="M86.0372 -2.20477C86.5547 -2.20477 87.0397 -1.87977 87.2197 -1.36227C89.3047 4.68523 95.0047 8.74771 101.405 8.74771C107.805 8.74771 113.47 4.70772 115.57 -1.30478C115.797 -1.95728 116.51 -2.2998 117.162 -2.0723C117.815 -1.8448 118.157 -1.1323 117.93 -0.479797C115.48 6.5352 108.84 11.2502 101.405 11.2502C93.9697 11.2502 87.2872 6.5102 84.8547 -0.5448C84.6297 -1.1973 84.9772 -1.9098 85.6297 -2.1348C85.7647 -2.1823 85.9022 -2.20227 86.0372 -2.20227V-2.20477Z" fill="#F4B869"/>
<path d="M90.9317 -4.12997C91.4592 -4.12997 91.9517 -3.79248 92.1217 -3.26248C93.4242 0.780018 97.1542 3.49753 101.404 3.49753C105.654 3.49753 109.299 0.837533 110.642 -3.12247C110.864 -3.77747 111.574 -4.12747 112.227 -3.90497C112.882 -3.68247 113.232 -2.97498 113.009 -2.31998C111.324 2.65502 106.662 5.99753 101.404 5.99753C96.1467 5.99753 91.3767 2.58503 89.7417 -2.49747C89.5292 -3.15497 89.8917 -3.85998 90.5492 -4.06998C90.6767 -4.10998 90.8067 -4.12997 90.9317 -4.12997Z" fill="#F4B869"/>
<path d="M95.156 -7.50229C95.846 -7.50229 96.406 -6.94229 96.406 -6.25229C96.406 -3.49479 98.6485 -1.25229 101.406 -1.25229C104.164 -1.25229 106.351 -3.44978 106.406 -6.14978C106.419 -6.83978 106.996 -7.38229 107.681 -7.37479C108.371 -7.36229 108.919 -6.78979 108.906 -6.09979C108.826 -2.04729 105.461 1.25021 101.409 1.25021C97.356 1.25021 93.9085 -2.11479 93.9085 -6.24979C93.9085 -6.93979 94.4685 -7.49979 95.1585 -7.49979L95.156 -7.50229Z" fill="#F4B869"/>
<path d="M20.252 -10.455C20.7695 -10.455 21.2545 -10.13 21.4345 -9.61252C23.5195 -3.56502 29.2195 0.497467 35.6195 0.497467C42.0195 0.497467 47.6845 -3.54252 49.7845 -9.55502C50.012 -10.2075 50.7245 -10.55 51.377 -10.3225C52.0295 -10.095 52.372 -9.38254 52.1445 -8.73004C49.6945 -1.71504 43.0545 2.99997 35.6195 2.99997C28.1845 2.99997 21.502 -1.74004 19.0695 -8.79504C18.8445 -9.44754 19.192 -10.16 19.8445 -10.385C19.9795 -10.4325 20.117 -10.4525 20.252 -10.4525V-10.455Z" fill="#F4B869"/>
<path d="M155.252 42.545C155.77 42.545 156.255 42.87 156.435 43.3875C158.52 49.435 164.22 53.4975 170.62 53.4975C177.02 53.4975 182.685 49.4575 184.785 43.445C185.012 42.7925 185.725 42.45 186.377 42.6775C187.03 42.905 187.372 43.6175 187.145 44.27C184.695 51.285 178.055 56 170.62 56C163.185 56 156.502 51.26 154.07 44.205C153.845 43.5525 154.192 42.84 154.845 42.615C154.98 42.5675 155.117 42.5475 155.252 42.5475V42.545Z" fill="#F4B869"/>
<path d="M160.147 40.6198C160.674 40.6198 161.167 40.9573 161.337 41.4873C162.639 45.5298 166.369 48.2473 170.619 48.2473C174.869 48.2473 178.514 45.5873 179.857 41.6273C180.079 40.9723 180.789 40.6223 181.442 40.8448C182.097 41.0673 182.447 41.7748 182.224 42.4298C180.539 47.4048 175.877 50.7473 170.619 50.7473C165.362 50.7473 160.592 47.3348 158.957 42.2523C158.744 41.5948 159.107 40.8898 159.764 40.6798C159.892 40.6398 160.022 40.6198 160.147 40.6198Z" fill="#F4B869"/>
<path d="M155.252 20.7952C155.77 20.7952 156.255 21.1202 156.435 21.6377C158.52 27.6852 164.22 31.7477 170.62 31.7477C177.02 31.7477 182.685 27.7077 184.785 21.6952C185.012 21.0427 185.725 20.7002 186.377 20.9277C187.03 21.1552 187.372 21.8677 187.145 22.5202C184.695 29.5352 178.055 34.2502 170.62 34.2502C163.185 34.2502 156.502 29.5102 154.07 22.4552C153.845 21.8027 154.192 21.0902 154.845 20.8652C154.98 20.8177 155.117 20.7977 155.252 20.7977V20.7952Z" fill="#F4B869"/>
<path d="M160 19.5C160.528 19.5 161.167 19.2075 161.337 19.7375C162.639 23.78 166.369 26.4975 170.619 26.4975C174.869 26.4975 178.514 23.8375 179.857 19.8775C180.079 19.2225 180.789 18.8725 181.442 19.095C182.097 19.3175 182.447 20.025 182.224 20.68C180.539 25.655 175.877 28.9975 170.619 28.9975C165.362 28.9975 160.592 25.585 158.957 20.5025C158.744 19.845 158.96 19.77 159.618 19.56C159.745 19.52 159.875 19.5 160 19.5Z" fill="#F4B869"/>
<path d="M136.537 31.7952C137.055 31.7952 137.54 32.1202 137.72 32.6377C139.805 38.6852 145.505 42.7477 151.905 42.7477C158.305 42.7477 163.97 38.7077 166.07 32.6952C166.297 32.0427 167.01 31.7002 167.662 31.9277C168.315 32.1552 168.657 32.8677 168.43 33.5202C165.98 40.5352 159.34 45.2502 151.905 45.2502C144.47 45.2502 137.34 39.6927 134.907 32.6377C134.682 31.9852 135.03 31.2727 135.682 31.0477C135.817 31.0002 136.402 31.7977 136.537 31.7977V31.7952Z" fill="#F4B869"/>
<path d="M141.383 30.44C141.91 30.44 142.452 30.2075 142.622 30.7375C143.924 34.78 147.654 37.4975 151.904 37.4975C156.154 37.4975 159.799 34.8375 161.142 30.8775C161.364 30.2225 162.074 29.8725 162.727 30.095C163.382 30.3175 163.732 31.025 163.509 31.68C161.824 36.655 157.162 39.9975 151.904 39.9975C146.647 39.9975 141.877 36.585 140.242 31.5025C140.029 30.845 140.343 30.71 141 30.5C141.128 30.46 141.258 30.44 141.383 30.44Z" fill="#F4B869"/>
<path d="M146.248 27.7475C146.938 27.7475 146.906 27.0577 146.906 27.7477C146.906 30.5052 149.149 32.7477 151.906 32.7477C154.664 32.7477 156.851 30.5502 156.906 27.8502C156.919 27.1602 157.491 26.6177 158.181 26.6252C158.871 26.6377 159.419 27.2102 159.406 27.9002C159.326 31.9527 155.961 35.2502 151.909 35.2502C147.856 35.2502 145 33.135 145 29C145 28.31 145.31 28.5 146 28.5L146.248 27.7475Z" fill="#F4B869"/>
</g>
</svg>
