<svg width="53" height="53" viewBox="0 0 53 53" fill="none" xmlns="http://www.w3.org/2000/svg">
<path d="M26.1602 52.8101C40.5196 52.8101 52.1602 41.1695 52.1602 26.8101C52.1602 12.4507 40.5196 0.810059 26.1602 0.810059C11.8008 0.810059 0.160156 12.4507 0.160156 26.8101C0.160156 41.1695 11.8008 52.8101 26.1602 52.8101Z" fill="white"/>
<path d="M26.1602 51.0656C39.5562 51.0656 50.4158 40.206 50.4158 26.81C50.4158 13.414 39.5562 2.55444 26.1602 2.55444C12.7642 2.55444 1.90457 13.414 1.90457 26.81C1.90457 40.206 12.7642 51.0656 26.1602 51.0656Z" fill="#1F1F7A"/>
<path d="M26.1294 7.4305C26.0838 7.4305 26.0464 7.39312 26.0464 7.34743V4.39606C26.0464 4.35037 26.0838 4.31299 26.1294 4.31299C26.1751 4.31299 26.2125 4.35037 26.2125 4.39606V7.34743C26.2125 7.39312 26.1751 7.4305 26.1294 7.4305Z" fill="#FFE2C2"/>
<path d="M18.6833 8.92399C18.6509 8.92399 18.6202 8.90489 18.6069 8.87249L17.4772 6.1454C17.4597 6.10304 17.4796 6.05403 17.522 6.03658C17.5644 6.01914 17.6134 6.03907 17.6308 6.08144L18.7606 8.80853C18.778 8.8509 18.7581 8.89991 18.7157 8.91735C18.7057 8.9215 18.6949 8.92399 18.6841 8.92399H18.6833Z" fill="#FFE2C2"/>
<path d="M12.376 13.153C12.3544 13.153 12.3337 13.1447 12.317 13.1289L10.2304 11.0423C10.198 11.0099 10.198 10.9576 10.2304 10.9252C10.2628 10.8928 10.3151 10.8928 10.3475 10.9252L12.4342 13.0118C12.4666 13.0442 12.4666 13.0965 12.4342 13.1289C12.4175 13.1456 12.3968 13.153 12.3752 13.153H12.376Z" fill="#FFE2C2"/>
<path d="M8.167 19.4736C8.1562 19.4736 8.14539 19.4719 8.13543 19.4669L5.40835 18.3372C5.36598 18.3198 5.34604 18.2708 5.36349 18.2284C5.38093 18.186 5.42995 18.1661 5.47231 18.1836L8.19939 19.3133C8.24175 19.3307 8.26169 19.3797 8.24425 19.4221C8.23096 19.4537 8.20023 19.4736 8.16783 19.4736H8.167Z" fill="#FFE2C2"/>
<path d="M3.74618 26.9247C3.7005 26.9247 3.66312 26.8873 3.66312 26.8416C3.66312 26.7959 3.7005 26.7585 3.74618 26.7585H6.69756C6.74325 26.7585 6.78063 26.7959 6.78063 26.8416C6.78063 26.8873 6.74325 26.9247 6.69756 26.9247H3.74618Z" fill="#FFE2C2"/>
<path d="M5.464 35.4997C5.4316 35.4997 5.40087 35.4806 5.38758 35.4482C5.37014 35.4058 5.39006 35.3568 5.43242 35.3394L8.15952 34.2097C8.20189 34.1922 8.2509 34.2122 8.26835 34.2545C8.28579 34.2969 8.26585 34.3459 8.22349 34.3634L5.49639 35.4931C5.48642 35.4972 5.47563 35.4997 5.46483 35.4997H5.464Z" fill="#FFE2C2"/>
<path d="M17.6117 47.6134C17.6009 47.6134 17.5901 47.6118 17.5802 47.6068C17.5378 47.5894 17.5179 47.5403 17.5353 47.498L18.665 44.7709C18.6825 44.7285 18.7315 44.7086 18.7738 44.726C18.8162 44.7435 18.8361 44.7925 18.8187 44.8349L17.689 47.5619C17.6757 47.5935 17.645 47.6134 17.6126 47.6134H17.6117Z" fill="#FFE2C2"/>
<path d="M10.3334 42.7647C10.3118 42.7647 10.291 42.7564 10.2744 42.7406C10.242 42.7082 10.242 42.6559 10.2744 42.6235L12.3611 40.536C12.3935 40.5036 12.4458 40.5036 12.4782 40.536C12.5106 40.5684 12.5106 40.6207 12.4782 40.6531L10.3915 42.7406C10.3749 42.7572 10.3542 42.7647 10.3326 42.7647H10.3334Z" fill="#FFE2C2"/>
<path d="M26.1917 49.3079C26.1461 49.3079 26.1087 49.2706 26.1087 49.2249V46.2735C26.1087 46.2278 26.1461 46.1904 26.1917 46.1904C26.2374 46.1904 26.2748 46.2278 26.2748 46.2735V49.2249C26.2748 49.2706 26.2374 49.3079 26.1917 49.3079Z" fill="#FFE2C2"/>
<path d="M34.7667 47.59C34.7343 47.59 34.7036 47.5709 34.6903 47.5385L33.5606 44.8114C33.5432 44.7691 33.5631 44.72 33.6055 44.7026C33.6478 44.6852 33.6968 44.7051 33.7143 44.7475L34.844 47.4745C34.8614 47.5169 34.8415 47.5659 34.7991 47.5834C34.7892 47.5875 34.7784 47.59 34.7676 47.59H34.7667Z" fill="#FFE2C2"/>
<path d="M42.0318 42.7207C42.0102 42.7207 41.9894 42.7124 41.9728 42.6966L39.8862 40.6099C39.8538 40.5775 39.8538 40.5252 39.8862 40.4928C39.9186 40.4604 39.9709 40.4604 40.0033 40.4928L42.0899 42.5794C42.1223 42.6118 42.1223 42.6642 42.0899 42.6966C42.0733 42.7132 42.0526 42.7207 42.031 42.7207H42.0318Z" fill="#FFE2C2"/>
<path d="M46.8804 35.4423C46.8696 35.4423 46.8588 35.4407 46.8489 35.4357L44.1218 34.306C44.0794 34.2885 44.0595 34.2395 44.0769 34.1972C44.0944 34.1548 44.1434 34.1349 44.1857 34.1523L46.9128 35.282C46.9552 35.2995 46.9751 35.3485 46.9577 35.3908C46.9444 35.4224 46.9137 35.4423 46.8813 35.4423H46.8804Z" fill="#FFE2C2"/>
<path d="M44.1301 19.4162C44.0977 19.4162 44.0669 19.3971 44.0536 19.3647C44.0362 19.3223 44.0561 19.2733 44.0985 19.2559L46.8256 18.1262C46.8679 18.1087 46.917 18.1287 46.9344 18.171C46.9518 18.2134 46.9319 18.2624 46.8895 18.2799L44.1624 19.4096C44.1525 19.4137 44.1417 19.4162 44.1309 19.4162H44.1301Z" fill="#FFE2C2"/>
<path d="M45.6236 26.8624C45.5779 26.8624 45.5405 26.825 45.5405 26.7794C45.5405 26.7337 45.5779 26.6963 45.6236 26.6963H48.575C48.6207 26.6963 48.658 26.7337 48.658 26.7794C48.658 26.825 48.6207 26.8624 48.575 26.8624H45.6236Z" fill="#FFE2C2"/>
<path d="M39.9011 13.1088C39.8795 13.1088 39.8588 13.1005 39.8422 13.0848C39.8098 13.0524 39.8098 13 39.8422 12.9676L41.9288 10.881C41.9612 10.8486 42.0135 10.8486 42.0459 10.881C42.0783 10.9134 42.0783 10.9657 42.0459 10.9981L39.9593 13.0848C39.9427 13.1014 39.9219 13.1088 39.9003 13.1088H39.9011Z" fill="#FFE2C2"/>
<path d="M33.5797 8.90007C33.5689 8.90007 33.5581 8.89841 33.5481 8.89342C33.5058 8.87598 33.4858 8.82697 33.5033 8.78461L34.633 6.05751C34.6504 6.01515 34.6994 5.99521 34.7418 6.01266C34.7842 6.0301 34.8041 6.07911 34.7867 6.12148L33.657 8.84857C33.6437 8.88013 33.6129 8.90007 33.5805 8.90007H33.5797Z" fill="#FFE2C2"/>
<path d="M26.1602 49.4043C13.7018 49.4043 3.5659 39.2685 3.5659 26.8101C3.5659 14.3517 13.7018 4.21582 26.1602 4.21582C38.6186 4.21582 48.7544 14.3517 48.7544 26.8101C48.7544 39.2685 38.6186 49.4043 26.1602 49.4043ZM26.1602 4.38195C13.7931 4.38195 3.73204 14.443 3.73204 26.8101C3.73204 39.1771 13.7931 49.2382 26.1602 49.2382C38.5272 49.2382 48.5883 39.1771 48.5883 26.8101C48.5883 14.443 38.5272 4.38195 26.1602 4.38195Z" fill="#FFE2C2"/>
<path d="M26.1602 46.3025C15.4121 46.3025 6.66847 37.558 6.66847 26.8108C6.66847 16.0636 15.4121 7.31909 26.1602 7.31909C36.9082 7.31909 45.6519 16.0627 45.6519 26.8108C45.6519 37.5588 36.9082 46.3025 26.1602 46.3025ZM26.1602 7.48439C15.5035 7.48439 6.83461 16.1541 6.83461 26.81C6.83461 37.4658 15.5043 46.1355 26.1602 46.1355C36.816 46.1355 45.4857 37.4658 45.4857 26.81C45.4857 16.1541 36.816 7.48439 26.1602 7.48439Z" fill="#FFE2C2"/>
<path d="M37.8037 34.8601L37.998 35.3062C38.0803 35.4956 38.2315 35.6468 38.4209 35.729L38.8669 35.9234L38.4209 36.1177C38.2315 36.2 38.0803 36.3512 37.998 36.5406L37.8037 36.9866L37.6093 36.5406C37.5271 36.3512 37.3759 36.2 37.1865 36.1177L36.7404 35.9234L37.1865 35.729C37.3759 35.6468 37.5271 35.4956 37.6093 35.3062L37.8037 34.8601Z" fill="#F7B981"/>
<path d="M20.4177 37.9785L20.7242 38.6821C20.8547 38.9811 21.0931 39.2195 21.3913 39.3491L22.0949 39.6556L21.3913 39.9622C21.0922 40.0926 20.8538 40.331 20.7242 40.6292L20.4177 41.3328L20.1112 40.6292C19.9808 40.3301 19.7424 40.0917 19.4442 39.9622L18.7406 39.6556L19.4442 39.3491C19.7432 39.2187 19.9816 38.9803 20.1112 38.6821L20.4177 37.9785Z" fill="#F7B981"/>
<path d="M28.6281 22.1111L28.7593 22.4134C28.815 22.5414 28.9172 22.6444 29.0459 22.7L29.3483 22.8313L29.0459 22.9625C28.918 23.0182 28.815 23.1204 28.7593 23.2491L28.6281 23.5515L28.4969 23.2491C28.4412 23.1212 28.339 23.0182 28.2103 22.9625L27.9079 22.8313L28.2103 22.7C28.3382 22.6444 28.4412 22.5422 28.4969 22.4134L28.6281 22.1111Z" fill="#F7B981"/>
<path d="M39.6253 29.6526L39.764 29.9707C39.823 30.1061 39.931 30.2133 40.0656 30.2723L40.3837 30.411L40.0656 30.5497C39.9302 30.6087 39.823 30.7167 39.764 30.8512L39.6253 31.1694L39.4866 30.8512C39.4276 30.7158 39.3196 30.6087 39.1851 30.5497L38.8669 30.411L39.1851 30.2723C39.3205 30.2133 39.4276 30.1053 39.4866 29.9707L39.6253 29.6526Z" fill="#F7B981"/>
<path d="M15.1189 33.4421L15.2626 33.7727C15.3241 33.9131 15.4354 34.0253 15.5757 34.0859L15.9064 34.2296L15.5757 34.3733C15.4354 34.4348 15.3232 34.5461 15.2626 34.6865L15.1189 35.0171L14.9752 34.6865C14.9137 34.5461 14.8024 34.434 14.662 34.3733L14.3314 34.2296L14.662 34.0859C14.8024 34.0244 14.9145 33.9131 14.9752 33.7727L15.1189 33.4421Z" fill="#F7B981"/>
<path d="M23.129 13.4819L23.2553 13.7718C23.3093 13.8948 23.4073 13.9936 23.5303 14.0468L23.8202 14.1731L23.5303 14.2993C23.4073 14.3533 23.3085 14.4513 23.2553 14.5743L23.129 14.8642L23.0028 14.5743C22.9488 14.4513 22.8508 14.3525 22.7278 14.2993L22.4379 14.1731L22.7278 14.0468C22.8508 13.9928 22.9496 13.8948 23.0028 13.7718L23.129 13.4819Z" fill="#F7B981"/>
<path d="M34.0773 16.7258C34.4516 16.7258 34.7551 16.4223 34.7551 16.0479C34.7551 15.6736 34.4516 15.3701 34.0773 15.3701C33.7029 15.3701 33.3995 15.6736 33.3995 16.0479C33.3995 16.4223 33.7029 16.7258 34.0773 16.7258Z" fill="#F7B981"/>
<path d="M15.0092 19.0407C15.3836 19.0407 15.6871 18.7372 15.6871 18.3629C15.6871 17.9885 15.3836 17.6851 15.0092 17.6851C14.6349 17.6851 14.3314 17.9885 14.3314 18.3629C14.3314 18.7372 14.6349 19.0407 15.0092 19.0407Z" fill="#F7B981"/>
<path d="M18.4283 17.3455C18.543 17.3455 18.6359 17.2525 18.6359 17.1378C18.6359 17.0232 18.543 16.9302 18.4283 16.9302C18.3136 16.9302 18.2206 17.0232 18.2206 17.1378C18.2206 17.2525 18.3136 17.3455 18.4283 17.3455Z" fill="#F7B981"/>
<path d="M28.4512 16.455C28.4512 16.6053 28.3299 16.7266 28.1795 16.7266C28.0292 16.7266 27.9079 16.6053 27.9079 16.455C27.9079 16.3046 28.0292 16.1833 28.1795 16.1833C28.3299 16.1833 28.4512 16.3046 28.4512 16.455Z" fill="#F7B981"/>
<path d="M26.9925 24.1444C26.9925 24.2948 26.8712 24.4161 26.7209 24.4161C26.5705 24.4161 26.4492 24.2948 26.4492 24.1444C26.4492 23.9941 26.5705 23.8728 26.7209 23.8728C26.8712 23.8728 26.9925 23.9941 26.9925 24.1444Z" fill="#F7B981"/>
<path d="M36.5809 21.6615C32.6992 18.5656 28.8939 16.9956 25.2713 16.9956C21.6488 16.9956 17.267 18.1012 15.722 21.2162C15.717 21.2262 15.7137 21.2362 15.7087 21.247C15.3689 21.9123 15.177 22.6649 15.177 23.4615C15.177 26.1604 17.3725 28.3559 20.0714 28.3559C22.7702 28.3559 24.9657 26.1604 24.9657 23.4615C24.9657 22.1557 24.4506 20.9695 23.615 20.0907C24.1749 20.0217 24.7356 19.986 25.2722 19.986C28.2003 19.986 31.3784 21.3367 34.7169 23.9998C34.9927 24.2191 35.3216 24.3263 35.6481 24.3263C36.0875 24.3263 36.5228 24.1336 36.8177 23.7631C37.3327 23.1177 37.2264 22.1765 36.5809 21.6615ZM20.0714 25.3654C19.0214 25.3654 18.1674 24.5115 18.1674 23.4615C18.1674 22.4116 19.0214 21.5577 20.0714 21.5577C21.1213 21.5577 21.9753 22.4116 21.9753 23.4615C21.9753 24.5115 21.1213 25.3654 20.0714 25.3654Z" fill="white"/>
<path d="M37.1441 30.1585C37.1441 27.4596 34.9487 25.2642 32.2498 25.2642C29.551 25.2642 27.3555 27.4596 27.3555 30.1585C27.3555 31.4643 27.8705 32.6505 28.7062 33.5293C28.1463 33.5983 27.5856 33.634 27.0498 33.634C24.1217 33.634 20.9435 32.2833 17.6051 29.6202C16.9596 29.1052 16.0185 29.2115 15.5035 29.8569C14.9885 30.5024 15.0948 31.4435 15.7402 31.9585C19.6219 35.0544 23.4273 36.6244 27.0498 36.6244C30.6724 36.6244 35.0542 35.5188 36.5992 32.4038C36.6042 32.3946 36.6075 32.3847 36.6117 32.3747C36.9514 31.7085 37.1441 30.9559 37.1441 30.1585ZM32.2498 28.2546C33.2998 28.2546 34.1537 29.1085 34.1537 30.1585C34.1537 31.2084 33.2998 32.0624 32.2498 32.0624C31.1998 32.0624 30.3459 31.2084 30.3459 30.1585C30.3459 29.1085 31.1998 28.2546 32.2498 28.2546Z" fill="white"/>
</svg>
