<svg width="53" height="53" viewBox="0 0 53 53" fill="none" xmlns="http://www.w3.org/2000/svg">
<path d="M26.28 52.1899C40.6394 52.1899 52.28 40.5493 52.28 26.1899C52.28 11.8305 40.6394 0.189941 26.28 0.189941C11.9206 0.189941 0.280029 11.8305 0.280029 26.1899C0.280029 40.5493 11.9206 52.1899 26.28 52.1899Z" fill="white"/>
<path d="M26.28 50.4455C39.676 50.4455 50.5356 39.5859 50.5356 26.1899C50.5356 12.7939 39.676 1.93433 26.28 1.93433C12.884 1.93433 2.02441 12.7939 2.02441 26.1899C2.02441 39.5859 12.884 50.4455 26.28 50.4455Z" fill="#1F1F7A"/>
<path d="M26.2485 6.80958C26.2028 6.80958 26.1654 6.7722 26.1654 6.72651V3.77514C26.1654 3.72946 26.2028 3.69208 26.2485 3.69208C26.2942 3.69208 26.3315 3.72946 26.3315 3.77514V6.72651C26.3315 6.7722 26.2942 6.80958 26.2485 6.80958Z" fill="#FFE2C2"/>
<path d="M18.8031 8.30315C18.7707 8.30315 18.74 8.28403 18.7267 8.25164L17.597 5.52454C17.5796 5.48217 17.5995 5.43318 17.6419 5.41574C17.6842 5.39829 17.7332 5.41821 17.7507 5.46058L18.8804 8.18767C18.8978 8.23004 18.8779 8.27905 18.8355 8.2965C18.8247 8.30065 18.8148 8.30315 18.804 8.30315H18.8031Z" fill="#FFE2C2"/>
<path d="M12.4958 12.5321C12.4742 12.5321 12.4535 12.5238 12.4369 12.508L10.3502 10.4213C10.3178 10.3889 10.3178 10.3366 10.3502 10.3042C10.3826 10.2718 10.435 10.2718 10.4674 10.3042L12.554 12.3909C12.5864 12.4233 12.5864 12.4756 12.554 12.508C12.5374 12.5246 12.5166 12.5321 12.495 12.5321H12.4958Z" fill="#FFE2C2"/>
<path d="M8.28688 18.8535C8.27608 18.8535 8.26528 18.8518 8.25531 18.8468L5.52821 17.7171C5.48585 17.6997 5.46592 17.6506 5.48336 17.6083C5.50081 17.5659 5.54898 17.546 5.59217 17.5634L8.31927 18.6931C8.36164 18.7106 8.38157 18.7596 8.36412 18.802C8.35083 18.8335 8.3201 18.8535 8.28771 18.8535H8.28688Z" fill="#FFE2C2"/>
<path d="M6.81655 26.3038H3.86517C3.81948 26.3038 3.7821 26.2664 3.7821 26.2207C3.7821 26.175 3.81948 26.1376 3.86517 26.1376H6.81655C6.86223 26.1376 6.89961 26.175 6.89961 26.2207C6.89961 26.2664 6.86223 26.3038 6.81655 26.3038Z" fill="#FFE2C2"/>
<path d="M5.58383 34.8796C5.55144 34.8796 5.5207 34.8605 5.50741 34.8281C5.48996 34.7857 5.5099 34.7367 5.55227 34.7193L8.27936 33.5896C8.32172 33.5721 8.37074 33.5921 8.38818 33.6344C8.40562 33.6768 8.38568 33.7258 8.34332 33.7432L5.61623 34.8729C5.60626 34.8771 5.59546 34.8796 5.58467 34.8796H5.58383Z" fill="#FFE2C2"/>
<path d="M17.7308 46.9933C17.72 46.9933 17.7092 46.9916 17.6992 46.9866C17.6569 46.9692 17.6369 46.9202 17.6544 46.8778L18.7841 44.1507C18.8015 44.1083 18.8497 44.0884 18.8929 44.1059C18.9353 44.1233 18.9552 44.1723 18.9378 44.2147L17.8081 46.9418C17.7948 46.9733 17.764 46.9933 17.7316 46.9933H17.7308Z" fill="#FFE2C2"/>
<path d="M10.4524 42.1438C10.4308 42.1438 10.4101 42.1355 10.3934 42.1197C10.361 42.0873 10.361 42.035 10.3934 42.0026L12.4801 39.916C12.5125 39.8836 12.5648 39.8836 12.5972 39.916C12.6296 39.9484 12.6296 40.0007 12.5972 40.0331L10.5106 42.1197C10.4939 42.1363 10.4732 42.1438 10.4516 42.1438H10.4524Z" fill="#FFE2C2"/>
<path d="M26.3107 48.687C26.265 48.687 26.2277 48.6496 26.2277 48.604V45.6526C26.2277 45.6069 26.265 45.5695 26.3107 45.5695C26.3564 45.5695 26.3938 45.6069 26.3938 45.6526V48.604C26.3938 48.6496 26.3564 48.687 26.3107 48.687Z" fill="#FFE2C2"/>
<path d="M34.8866 46.9692C34.8542 46.9692 34.8235 46.95 34.8102 46.9177L33.6805 44.1906C33.6631 44.1482 33.683 44.0992 33.7254 44.0817C33.7677 44.0643 33.8159 44.0842 33.8342 44.1266L34.9639 46.8537C34.9813 46.8961 34.9614 46.9451 34.919 46.9625C34.9082 46.9667 34.8983 46.9692 34.8875 46.9692H34.8866Z" fill="#FFE2C2"/>
<path d="M42.1516 42.1006C42.13 42.1006 42.1092 42.0923 42.0926 42.0765L40.006 39.9899C39.9736 39.9575 39.9736 39.9051 40.006 39.8727C40.0384 39.8404 40.0907 39.8404 40.1231 39.8727L42.2098 41.9594C42.2422 41.9918 42.2422 42.0441 42.2098 42.0765C42.1931 42.0931 42.1724 42.1006 42.1508 42.1006H42.1516Z" fill="#FFE2C2"/>
<path d="M47.0003 34.8214C46.9895 34.8214 46.9787 34.8198 46.9687 34.8148L44.2416 33.6851C44.1992 33.6676 44.1793 33.6186 44.1967 33.5763C44.2142 33.5339 44.2624 33.514 44.3056 33.5314L47.0327 34.6611C47.075 34.6785 47.095 34.7276 47.0775 34.7699C47.0642 34.8015 47.0335 34.8214 47.0011 34.8214H47.0003Z" fill="#FFE2C2"/>
<path d="M44.2491 18.7962C44.2167 18.7962 44.186 18.7771 44.1727 18.7447C44.1552 18.7023 44.1752 18.6533 44.2175 18.6358L46.9446 17.5061C46.987 17.4887 47.0352 17.5086 47.0535 17.551C47.0709 17.5934 47.051 17.6424 47.0086 17.6598L44.2815 18.7895C44.2715 18.7937 44.2607 18.7962 44.2499 18.7962H44.2491Z" fill="#FFE2C2"/>
<path d="M48.694 26.2415H45.7426C45.6969 26.2415 45.6595 26.2041 45.6595 26.1584C45.6595 26.1127 45.6969 26.0753 45.7426 26.0753H48.694C48.7397 26.0753 48.7771 26.1127 48.7771 26.1584C48.7771 26.2041 48.7397 26.2415 48.694 26.2415Z" fill="#FFE2C2"/>
<path d="M40.0202 12.4889C39.9986 12.4889 39.9778 12.4805 39.9612 12.4648C39.9288 12.4324 39.9288 12.38 39.9612 12.3476L42.0478 10.261C42.0802 10.2286 42.1326 10.2286 42.165 10.261C42.1974 10.2934 42.1974 10.3457 42.165 10.3781L40.0783 12.4648C40.0617 12.4814 40.0409 12.4889 40.0193 12.4889H40.0202Z" fill="#FFE2C2"/>
<path d="M33.6995 8.27983C33.6887 8.27983 33.6779 8.27816 33.668 8.27318C33.6256 8.25573 33.6057 8.20672 33.6231 8.16436L34.7528 5.43728C34.7703 5.39491 34.8185 5.37497 34.8617 5.39242C34.904 5.40986 34.924 5.45886 34.9065 5.50122L33.7768 8.22832C33.7635 8.25989 33.7328 8.27983 33.7004 8.27983H33.6995Z" fill="#FFE2C2"/>
<path d="M26.28 48.7842C13.8216 48.7842 3.68579 38.6484 3.68579 26.19C3.68579 13.7316 13.8216 3.5957 26.28 3.5957C38.7384 3.5957 48.8743 13.7316 48.8743 26.19C48.8743 38.6484 38.7384 48.7842 26.28 48.7842ZM26.28 3.76184C13.913 3.76184 3.85193 13.8229 3.85193 26.19C3.85193 38.557 13.913 48.6181 26.28 48.6181C38.6471 48.6181 48.7082 38.557 48.7082 26.19C48.7082 13.8229 38.6471 3.76184 26.28 3.76184Z" fill="#FFE2C2"/>
<path d="M26.28 45.6816C15.532 45.6816 6.78833 36.938 6.78833 26.1899C6.78833 15.4419 15.532 6.69824 26.28 6.69824C37.0281 6.69824 45.7717 15.4419 45.7717 26.1899C45.7717 36.938 37.0281 45.6816 26.28 45.6816ZM26.28 6.86354C15.6233 6.86354 6.95446 15.5332 6.95446 26.1891C6.95446 36.8449 15.6242 45.5147 26.28 45.5147C36.9359 45.5147 45.6056 36.8449 45.6056 26.1891C45.6056 15.5332 36.9359 6.86354 26.28 6.86354Z" fill="#FFE2C2"/>
<path d="M13.2576 30.8716L13.4827 31.3883C13.5783 31.6076 13.7535 31.7828 13.9728 31.8783L14.4895 32.1035L13.9728 32.3286C13.7535 32.4241 13.5783 32.5994 13.4827 32.8187L13.2576 33.3353L13.0325 32.8187C12.937 32.5994 12.7617 32.4241 12.5424 32.3286L12.0258 32.1035L12.5424 31.8783C12.7617 31.7828 12.937 31.6076 13.0325 31.3883L13.2576 30.8716Z" fill="#F7B981"/>
<path d="M36.7357 38.2671L36.9043 38.655C36.9758 38.8195 37.1078 38.9516 37.2723 39.023L37.6602 39.1916L37.2723 39.3602C37.1078 39.4317 36.9758 39.5638 36.9043 39.7282L36.7357 40.1162L36.5671 39.7282C36.4956 39.5638 36.3635 39.4317 36.1991 39.3602L35.8112 39.1916L36.1991 39.023C36.3635 38.9516 36.4956 38.8195 36.5671 38.655L36.7357 38.2671Z" fill="#F7B981"/>
<path d="M39.2144 24.2072L39.3157 24.4406C39.3589 24.5394 39.4379 24.6183 39.5367 24.6615L39.7701 24.7629L39.5367 24.8642C39.4379 24.9074 39.3589 24.9863 39.3157 25.0852L39.2144 25.3186L39.1131 25.0852C39.0699 24.9863 38.991 24.9074 38.8921 24.8642L38.6587 24.7629L38.8921 24.6615C38.991 24.6183 39.0699 24.5394 39.1131 24.4406L39.2144 24.2072Z" fill="#F7B981"/>
<path d="M32.712 20.6477L32.8133 20.8811C32.8565 20.98 32.9354 21.0589 33.0343 21.1021L33.2677 21.2034L33.0343 21.3048C32.9354 21.348 32.8565 21.4269 32.8133 21.5257L32.712 21.7592L32.6106 21.5257C32.5674 21.4269 32.4885 21.348 32.3897 21.3048L32.1562 21.2034L32.3897 21.1021C32.4885 21.0589 32.5674 20.98 32.6106 20.8811L32.712 20.6477Z" fill="#F7B981"/>
<path d="M17.0388 34.5L17.165 34.7899C17.219 34.9128 17.3171 35.0117 17.44 35.0649L17.7299 35.1911L17.44 35.3174C17.3171 35.3714 17.2182 35.4694 17.165 35.5923L17.0388 35.8822L16.9125 35.5923C16.8585 35.4694 16.7605 35.3706 16.6376 35.3174L16.3477 35.1911L16.6376 35.0649C16.7605 35.0109 16.8594 34.9128 16.9125 34.7899L17.0388 34.5Z" fill="#F7B981"/>
<path d="M23.6078 9.85229L23.7573 10.1954C23.8204 10.3407 23.9367 10.457 24.0829 10.521L24.426 10.6705L24.0829 10.82C23.9375 10.8831 23.8212 10.9995 23.7573 11.1457L23.6078 11.4887L23.4582 11.1457C23.3951 11.0003 23.2788 10.884 23.1326 10.82L22.7896 10.6705L23.1326 10.521C23.278 10.4579 23.3943 10.3416 23.4582 10.1954L23.6078 9.85229Z" fill="#F7B981"/>
<path d="M12.8173 18.787C13.1384 18.787 13.3988 18.5267 13.3988 18.2056C13.3988 17.8844 13.1384 17.6241 12.8173 17.6241C12.4962 17.6241 12.2358 17.8844 12.2358 18.2056C12.2358 18.5267 12.4962 18.787 12.8173 18.787Z" fill="#F7B981"/>
<path d="M38.108 19.0985C38.4824 19.0985 38.7858 18.795 38.7858 18.4207C38.7858 18.0463 38.4824 17.7429 38.108 17.7429C37.7337 17.7429 37.4302 18.0463 37.4302 18.4207C37.4302 18.795 37.7337 19.0985 38.108 19.0985Z" fill="#F7B981"/>
<path d="M16.0229 21.4277C16.0229 21.5947 15.8875 21.7301 15.7206 21.7301C15.5536 21.7301 15.4182 21.5947 15.4182 21.4277C15.4182 21.2608 15.5536 21.1254 15.7206 21.1254C15.8875 21.1254 16.0229 21.2608 16.0229 21.4277Z" fill="#F7B981"/>
<path d="M33.06 38.2671C33.06 38.459 32.9047 38.6151 32.7119 38.6151C32.5192 38.6151 32.3639 38.4598 32.3639 38.2671C32.3639 38.0744 32.5192 37.919 32.7119 37.919C32.9047 37.919 33.06 38.0744 33.06 38.2671Z" fill="#F7B981"/>
<path d="M32.1562 15.4568C32.3062 15.4568 32.4278 15.3352 32.4278 15.1852C32.4278 15.0352 32.3062 14.9136 32.1562 14.9136C32.0061 14.9136 31.8845 15.0352 31.8845 15.1852C31.8845 15.3352 32.0061 15.4568 32.1562 15.4568Z" fill="#F7B981"/>
<path d="M32.7485 23.8881C31.5524 23.8881 30.3421 24.2553 29.3228 24.9032C29.3195 24.5992 29.3162 24.2935 29.3129 23.9662C29.3021 23.0051 29.2904 21.9161 29.278 20.1825C29.2614 17.693 28.6998 15.7309 27.6117 14.352C26.526 12.9773 24.9859 12.2554 23.1634 12.2696C21.615 12.2804 20.2228 12.9482 19.1729 14.1668C18.9976 13.94 18.8016 13.7315 18.5864 13.5446C17.6353 12.7206 16.2938 12.3534 15.0868 12.5885C14.2761 12.7463 13.7469 13.5305 13.9039 14.3412C14.0618 15.152 14.8467 15.6819 15.6566 15.5241C15.9623 15.4651 16.371 15.5831 16.6277 15.8049C16.8262 15.9777 16.9832 16.2302 17.0688 16.5168C17.1817 16.8964 17.1901 17.4147 17.1817 17.9189C17.1817 17.9273 17.1817 17.9347 17.1817 17.943V19.915C17.1651 20.2257 17.1568 20.5422 17.1593 20.8645C17.1593 20.9459 17.1685 21.0248 17.1817 21.1029V29.0026C17.1817 29.8283 17.8513 30.4978 18.677 30.4978C19.5026 30.4978 20.1722 29.8283 20.1722 29.0026V19.9765C20.281 18.1739 20.7603 17.0841 21.174 16.4669C21.7064 15.6711 22.3826 15.2658 23.1842 15.26C23.1925 15.26 23.2 15.26 23.2083 15.26C25.7244 15.26 26.2726 17.9464 26.2876 20.2033C26.2992 21.9435 26.3117 23.0359 26.3225 23.9995C26.3382 25.3941 26.349 26.4017 26.349 28.5141C26.349 29.2634 26.3997 29.9653 26.501 30.6182C26.5044 30.6432 26.5085 30.6672 26.5127 30.6913C26.7544 32.1865 27.2636 33.4209 28.0353 34.3812C26.3748 36.2842 23.7241 37.3525 21.2155 37.0759C20.3948 36.9853 19.6555 37.5768 19.5649 38.3983C19.4744 39.219 20.0658 39.9583 20.8865 40.0488C21.2678 40.0912 21.6491 40.1111 22.0304 40.1111C25.2501 40.1111 28.4033 38.6342 30.4575 36.148C31.1578 36.4122 31.9253 36.5492 32.7477 36.5492C34.3683 36.5492 35.8527 35.9694 36.9285 34.917C38.0756 33.7931 38.682 32.238 38.682 30.4197C38.682 26.5122 35.6135 23.8881 32.7477 23.8881H32.7485ZM32.7485 33.5596C30.9402 33.5596 29.8445 32.4748 29.4773 30.3283C29.4757 29.3016 29.7755 28.4768 30.3695 27.8745C31.0938 27.1394 32.1039 26.8785 32.7485 26.8785C33.7428 26.8785 35.6924 27.9476 35.6924 30.4197C35.6924 32.7348 34.1715 33.5596 32.7485 33.5596Z" fill="white"/>
</svg>
