<svg width="80" height="80" viewBox="0 0 80 80" fill="none" xmlns="http://www.w3.org/2000/svg">
<path d="M40 80C62.0914 80 80 62.0914 80 40C80 17.9086 62.0914 0 40 0C17.9086 0 0 17.9086 0 40C0 62.0914 17.9086 80 40 80Z" fill="#F3D351"/>
<path d="M39.9999 77.3162C60.6091 77.3162 77.3162 60.6091 77.3162 39.9999C77.3162 19.3907 60.6091 2.68359 39.9999 2.68359C19.3907 2.68359 2.68359 19.3907 2.68359 39.9999C2.68359 60.6091 19.3907 77.3162 39.9999 77.3162Z" fill="url(#paint0_linear_1709_1785)"/>
<path d="M39.9525 10.1848C39.8822 10.1848 39.8247 10.1273 39.8247 10.057V5.51647C39.8247 5.44618 39.8822 5.38867 39.9525 5.38867C40.0228 5.38867 40.0803 5.44618 40.0803 5.51647V10.057C40.0803 10.1273 40.0228 10.1848 39.9525 10.1848Z" fill="white"/>
<path d="M28.4984 12.4831C28.4485 12.4831 28.4012 12.4537 28.3808 12.4039L26.6428 8.20837C26.6159 8.14319 26.6466 8.0678 26.7118 8.04096C26.777 8.01412 26.8524 8.04479 26.8792 8.10997L28.6172 12.3055C28.6441 12.3707 28.6134 12.4461 28.5482 12.4729C28.5329 12.4793 28.5162 12.4831 28.4996 12.4831H28.4984Z" fill="white"/>
<path d="M18.7949 18.9893C18.7617 18.9893 18.7297 18.9765 18.7042 18.9522L15.4939 15.742C15.4441 15.6921 15.4441 15.6116 15.4939 15.5618C15.5438 15.512 15.6243 15.512 15.6741 15.5618L18.8843 18.772C18.9342 18.8219 18.9342 18.9024 18.8843 18.9522C18.8588 18.9778 18.8268 18.9893 18.7936 18.9893H18.7949Z" fill="white"/>
<path d="M12.3184 28.7121C12.3018 28.7121 12.2852 28.7096 12.2698 28.7019L8.07433 26.9639C8.00915 26.9371 7.97848 26.8617 8.00531 26.7965C8.03215 26.7313 8.10756 26.7006 8.17273 26.7275L12.3682 28.4655C12.4334 28.4923 12.4641 28.5677 12.4373 28.6329C12.4168 28.6815 12.3695 28.7121 12.3197 28.7121H12.3184Z" fill="white"/>
<path d="M5.51818 40.1755C5.44789 40.1755 5.39038 40.118 5.39038 40.0477C5.39038 39.9774 5.44789 39.9199 5.51818 39.9199H10.0588C10.129 39.9199 10.1866 39.9774 10.1866 40.0477C10.1866 40.118 10.129 40.1755 10.0588 40.1755H5.51818Z" fill="white"/>
<path d="M8.15999 53.3684C8.11015 53.3684 8.06287 53.339 8.04243 53.2892C8.01559 53.224 8.04623 53.1486 8.11141 53.1217L12.3069 51.3837C12.3721 51.3569 12.4475 51.3876 12.4744 51.4527C12.5012 51.5179 12.4705 51.5933 12.4054 51.6202L8.20982 53.3582C8.19448 53.3646 8.17788 53.3684 8.16127 53.3684H8.15999Z" fill="white"/>
<path d="M26.8494 72.0046C26.8328 72.0046 26.8162 72.0021 26.8009 71.9944C26.7357 71.9676 26.705 71.8922 26.7319 71.827L28.4699 67.6315C28.4967 67.5663 28.5721 67.5356 28.6373 67.5624C28.7025 67.5893 28.7331 67.6647 28.7063 67.7299L26.9683 71.9254C26.9478 71.9739 26.9006 72.0046 26.8507 72.0046H26.8494Z" fill="white"/>
<path d="M15.6513 64.5462C15.6181 64.5462 15.5861 64.5334 15.5606 64.5092C15.5107 64.4593 15.5107 64.3788 15.5606 64.329L18.7708 61.1175C18.8207 61.0676 18.9012 61.0676 18.951 61.1175C19.0008 61.1673 19.0008 61.2478 18.951 61.2977L15.7408 64.5092C15.7152 64.5347 15.6833 64.5462 15.6501 64.5462H15.6513Z" fill="white"/>
<path d="M40.0494 74.6116C39.9791 74.6116 39.9216 74.5541 39.9216 74.4838V69.9432C39.9216 69.8729 39.9791 69.8154 40.0494 69.8154C40.1197 69.8154 40.1772 69.8729 40.1772 69.9432V74.4838C40.1772 74.5541 40.1197 74.6116 40.0494 74.6116Z" fill="white"/>
<path d="M53.2418 71.9685C53.1919 71.9685 53.1447 71.9391 53.1242 71.8892L51.3862 67.6937C51.3593 67.6285 51.39 67.5531 51.4552 67.5263C51.5204 67.4995 51.5958 67.5301 51.6226 67.5953L53.3606 71.7908C53.3874 71.856 53.3568 71.9314 53.2916 71.9583C53.2763 71.9646 53.2597 71.9685 53.243 71.9685H53.2418Z" fill="white"/>
<path d="M64.4184 64.4775C64.3852 64.4775 64.3533 64.4648 64.3277 64.4405L61.1175 61.2303C61.0676 61.1804 61.0676 61.0999 61.1175 61.0501C61.1673 61.0002 61.2478 61.0002 61.2977 61.0501L64.5079 64.2603C64.5577 64.3101 64.5577 64.3906 64.5079 64.4405C64.4823 64.466 64.4504 64.4775 64.4171 64.4775H64.4184Z" fill="white"/>
<path d="M71.8773 53.2795C71.8606 53.2795 71.844 53.277 71.8287 53.2693L67.6331 51.5313C67.568 51.5044 67.5373 51.429 67.5642 51.3639C67.591 51.2987 67.6664 51.268 67.7315 51.2949L71.9271 53.0329C71.9923 53.0597 72.0229 53.1351 71.9961 53.2003C71.9756 53.2489 71.9284 53.2795 71.8785 53.2795H71.8773Z" fill="white"/>
<path d="M67.6475 28.6243C67.5977 28.6243 67.5504 28.5949 67.53 28.545C67.5031 28.4798 67.5338 28.4044 67.599 28.3776L71.7945 26.6396C71.8597 26.6128 71.9351 26.6434 71.9619 26.7086C71.9887 26.7738 71.9581 26.8492 71.8929 26.876L67.6974 28.614C67.682 28.6204 67.6654 28.6243 67.6488 28.6243H67.6475Z" fill="white"/>
<path d="M69.9447 40.0808C69.8744 40.0808 69.8169 40.0233 69.8169 39.953C69.8169 39.8827 69.8744 39.8252 69.9447 39.8252H74.4853C74.5556 39.8252 74.6131 39.8827 74.6131 39.953C74.6131 40.0233 74.5556 40.0808 74.4853 40.0808H69.9447Z" fill="white"/>
<path d="M61.1408 18.9209C61.1076 18.9209 61.0756 18.9081 61.0501 18.8839C61.0002 18.834 61.0002 18.7535 61.0501 18.7037L64.2603 15.4934C64.3101 15.4436 64.3906 15.4436 64.4405 15.4934C64.4903 15.5433 64.4903 15.6238 64.4405 15.6736L61.2303 18.8839C61.2047 18.9094 61.1728 18.9209 61.1395 18.9209H61.1408Z" fill="white"/>
<path d="M51.4161 12.446C51.3995 12.446 51.3829 12.4435 51.3675 12.4358C51.3024 12.409 51.2717 12.3336 51.2985 12.2684L53.0365 8.07286C53.0634 8.00768 53.1388 7.97701 53.2039 8.00385C53.2691 8.03069 53.2998 8.10608 53.273 8.17126L51.5349 12.3668C51.5145 12.4153 51.4672 12.446 51.4174 12.446H51.4161Z" fill="white"/>
<path d="M39.9999 74.76C20.8331 74.76 5.2395 59.1664 5.2395 39.9996C5.2395 20.8329 20.8331 5.23926 39.9999 5.23926C59.1667 5.23926 74.7603 20.8329 74.7603 39.9996C74.7603 59.1664 59.1667 74.76 39.9999 74.76ZM39.9999 5.49485C20.9737 5.49485 5.49509 20.9734 5.49509 39.9996C5.49509 59.0258 20.9737 74.5044 39.9999 74.5044C59.0261 74.5044 74.5047 59.0258 74.5047 39.9996C74.5047 20.9734 59.0261 5.49485 39.9999 5.49485Z" fill="white"/>
<path d="M40.0006 69.9881C23.4652 69.9881 10.0134 56.5351 10.0134 40.0009C10.0134 23.4667 23.4652 10.0137 40.0006 10.0137C56.5361 10.0137 69.9879 23.4654 69.9879 40.0009C69.9879 56.5364 56.5361 69.9881 40.0006 69.9881ZM40.0006 10.268C23.6057 10.268 10.269 23.606 10.269 39.9996C10.269 56.3932 23.607 69.7312 40.0006 69.7312C56.3942 69.7312 69.7323 56.3932 69.7323 39.9996C69.7323 23.606 56.3942 10.268 40.0006 10.268Z" fill="white"/>
<path d="M57.9131 52.3838L58.2122 53.0701C58.3387 53.3614 58.5713 53.594 58.8626 53.7205L59.5489 54.0196L58.8626 54.3186C58.5713 54.4451 58.3387 54.6777 58.2122 54.9691L57.9131 55.6554L57.6141 54.9691C57.4876 54.6777 57.255 54.4451 56.9636 54.3186L56.2773 54.0196L56.9636 53.7205C57.255 53.594 57.4876 53.3614 57.6141 53.0701L57.9131 52.3838Z" fill="white"/>
<path d="M31.1654 57.1816L31.6369 58.2641C31.8376 58.7241 32.2044 59.0909 32.6631 59.2903L33.7456 59.7618L32.6631 60.2334C32.2031 60.434 31.8363 60.8008 31.6369 61.2596L31.1654 62.342L30.6938 61.2596C30.4932 60.7995 30.1264 60.4328 29.6676 60.2334L28.5852 59.7618L29.6676 59.2903C30.1277 59.0896 30.4945 58.7229 30.6938 58.2641L31.1654 57.1816Z" fill="white"/>
<path d="M43.7967 32.7705L43.9986 33.2357C44.0842 33.4325 44.2414 33.591 44.4395 33.6766L44.9047 33.8785L44.4395 34.0804C44.2427 34.166 44.0842 34.3232 43.9986 34.5213L43.7967 34.9865L43.5948 34.5213C43.5092 34.3245 43.352 34.166 43.1539 34.0804L42.6887 33.8785L43.1539 33.6766C43.3507 33.591 43.5092 33.4338 43.5948 33.2357L43.7967 32.7705Z" fill="white"/>
<path d="M60.7156 44.3721L60.929 44.8615C61.0198 45.0698 61.1859 45.2347 61.3929 45.3254L61.8824 45.5388L61.3929 45.7523C61.1846 45.843 61.0198 46.0091 60.929 46.2162L60.7156 46.7056L60.5022 46.2162C60.4115 46.0079 60.2453 45.843 60.0383 45.7523L59.5488 45.5388L60.0383 45.3254C60.2466 45.2347 60.4115 45.0686 60.5022 44.8615L60.7156 44.3721Z" fill="white"/>
<path d="M23.0133 50.2031L23.2343 50.7117C23.3289 50.9277 23.5002 51.1002 23.7161 51.1935L24.2248 51.4146L23.7161 51.6357C23.5002 51.7303 23.3276 51.9015 23.2343 52.1175L23.0133 52.6261L22.7922 52.1175C22.6976 51.9015 22.5264 51.729 22.3104 51.6357L21.8018 51.4146L22.3104 51.1935C22.5264 51.099 22.6989 50.9277 22.7922 50.7117L23.0133 50.2031Z" fill="white"/>
<path d="M35.3367 19.4951L35.5309 19.9411C35.614 20.1303 35.7648 20.2823 35.9539 20.3641L36.3999 20.5584L35.9539 20.7526C35.7648 20.8357 35.6127 20.9865 35.5309 21.1756L35.3367 21.6216L35.1424 21.1756C35.0594 20.9865 34.9086 20.8344 34.7194 20.7526L34.2734 20.5584L34.7194 20.3641C34.9086 20.2811 35.0606 20.1303 35.1424 19.9411L35.3367 19.4951Z" fill="white"/>
<path d="M52.18 24.485C52.7559 24.485 53.2228 24.0182 53.2228 23.4422C53.2228 22.8663 52.7559 22.3994 52.18 22.3994C51.6041 22.3994 51.1372 22.8663 51.1372 23.4422C51.1372 24.0182 51.6041 24.485 52.18 24.485Z" fill="white"/>
<path d="M22.8446 28.0466C23.4205 28.0466 23.8874 27.5797 23.8874 27.0037C23.8874 26.4278 23.4205 25.9609 22.8446 25.9609C22.2686 25.9609 21.8018 26.4278 21.8018 27.0037C21.8018 27.5797 22.2686 28.0466 22.8446 28.0466Z" fill="white"/>
<path d="M28.1049 25.4388C28.2813 25.4388 28.4244 25.2957 28.4244 25.1193C28.4244 24.9428 28.2813 24.7998 28.1049 24.7998C27.9284 24.7998 27.7854 24.9428 27.7854 25.1193C27.7854 25.2957 27.9284 25.4388 28.1049 25.4388Z" fill="white"/>
<path d="M43.5245 24.0683C43.5245 24.2996 43.3379 24.4862 43.1066 24.4862C42.8753 24.4862 42.6887 24.2996 42.6887 24.0683C42.6887 23.837 42.8753 23.6504 43.1066 23.6504C43.3379 23.6504 43.5245 23.837 43.5245 24.0683Z" fill="white"/>
<path d="M41.2804 35.8993C41.2804 36.1306 41.0938 36.3172 40.8625 36.3172C40.6312 36.3172 40.4446 36.1306 40.4446 35.8993C40.4446 35.668 40.6312 35.4814 40.8625 35.4814C41.0938 35.4814 41.2804 35.668 41.2804 35.8993Z" fill="white"/>
<path d="M56.0311 32.0796C50.0593 27.3167 44.2049 24.9014 38.6318 24.9014C33.0586 24.9014 26.3174 26.6023 23.9404 31.3947C23.9327 31.41 23.9276 31.4253 23.92 31.4419C23.3973 32.4656 23.1021 33.6234 23.1021 34.849C23.1021 39.001 26.4797 42.3787 30.6318 42.3787C34.7839 42.3787 38.1615 39.001 38.1615 34.849C38.1615 32.84 37.3692 31.0151 36.0835 29.663C36.9449 29.557 37.8075 29.502 38.633 29.502C43.1378 29.502 48.0273 31.58 53.1634 35.6771C53.5877 36.0145 54.0937 36.1793 54.596 36.1793C55.272 36.1793 55.9417 35.8828 56.3953 35.3129C57.1877 34.3199 57.0241 32.872 56.0311 32.0796ZM30.6318 37.778C29.0164 37.778 27.7027 36.4643 27.7027 34.849C27.7027 33.2336 29.0164 31.9199 30.6318 31.9199C32.2471 31.9199 33.5608 33.2336 33.5608 34.849C33.5608 36.4643 32.2471 37.778 30.6318 37.778Z" fill="white"/>
<path d="M56.8978 45.1518C56.8978 40.9997 53.5201 37.6221 49.3681 37.6221C45.216 37.6221 41.8384 40.9997 41.8384 45.1518C41.8384 47.1607 42.6307 48.9856 43.9163 50.3377C43.055 50.4438 42.1924 50.4987 41.3681 50.4987C36.8633 50.4987 31.9738 48.4208 26.8377 44.3237C25.8447 43.5313 24.3968 43.6949 23.6045 44.6879C22.8122 45.6809 22.9757 47.1288 23.9687 47.9211C29.9406 52.684 35.7949 55.0994 41.3681 55.0994C46.9412 55.0994 53.6825 53.3984 56.0595 48.6061C56.0671 48.592 56.0722 48.5767 56.0786 48.5614C56.6013 47.5364 56.8978 46.3786 56.8978 45.1518ZM49.3681 42.2227C50.9834 42.2227 52.2971 43.5364 52.2971 45.1518C52.2971 46.7671 50.9834 48.0809 49.3681 48.0809C47.7527 48.0809 46.439 46.7671 46.439 45.1518C46.439 43.5364 47.7527 42.2227 49.3681 42.2227Z" fill="white"/>
<defs>
<linearGradient id="paint0_linear_1709_1785" x1="39.9999" y1="2.68359" x2="39.9999" y2="77.3162" gradientUnits="userSpaceOnUse">
<stop stop-color="#3867B8"/>
<stop offset="1" stop-color="#192E52"/>
</linearGradient>
</defs>
</svg>
