<svg width="28" height="28" viewBox="0 0 28 28" fill="none" xmlns="http://www.w3.org/2000/svg">
<path d="M23.3334 10.5L15.1667 2.33334H8.16675C7.23849 2.33334 6.34825 2.70209 5.69187 3.35847C5.0355 4.01485 4.66675 4.90509 4.66675 5.83334V22.1667C4.66675 23.0949 5.0355 23.9852 5.69187 24.6416C6.34825 25.2979 7.23849 25.6667 8.16675 25.6667H19.8334C20.7617 25.6667 21.6519 25.2979 22.3083 24.6416C22.9647 23.9852 23.3334 23.0949 23.3334 22.1667V10.5Z" fill="url(#paint0_radial_273_3638)"/>
<path d="M23.3333 10.5H17.4999C16.8811 10.5 16.2876 10.2542 15.85 9.81659C15.4124 9.37901 15.1666 8.78552 15.1666 8.16668V2.33334L23.3333 10.5ZM17.4999 21H10.4999C10.1905 21 9.89375 20.8771 9.67496 20.6583C9.45617 20.4395 9.33325 20.1428 9.33325 19.8333C9.33325 19.5239 9.45617 19.2272 9.67496 19.0084C9.89375 18.7896 10.1905 18.6667 10.4999 18.6667H17.4999C17.8093 18.6667 18.1061 18.7896 18.3249 19.0084C18.5437 19.2272 18.6666 19.5239 18.6666 19.8333C18.6666 20.1428 18.5437 20.4395 18.3249 20.6583C18.1061 20.8771 17.8093 21 17.4999 21ZM17.4999 16.3333H10.4999C10.1905 16.3333 9.89375 16.2104 9.67496 15.9916C9.45617 15.7728 9.33325 15.4761 9.33325 15.1667C9.33325 14.8573 9.45617 14.5605 9.67496 14.3417C9.89375 14.1229 10.1905 14 10.4999 14H17.4999C17.8093 14 18.1061 14.1229 18.3249 14.3417C18.5437 14.5605 18.6666 14.8573 18.6666 15.1667C18.6666 15.4761 18.5437 15.7728 18.3249 15.9916C18.1061 16.2104 17.8093 16.3333 17.4999 16.3333ZM11.6666 11.6667H10.4999C10.1905 11.6667 9.89375 11.5438 9.67496 11.325C9.45617 11.1062 9.33325 10.8094 9.33325 10.5C9.33325 10.1906 9.45617 9.89385 9.67496 9.67505C9.89375 9.45626 10.1905 9.33334 10.4999 9.33334H11.6666C11.976 9.33334 12.2728 9.45626 12.4915 9.67505C12.7103 9.89385 12.8333 10.1906 12.8333 10.5C12.8333 10.8094 12.7103 11.1062 12.4915 11.325C12.2728 11.5438 11.976 11.6667 11.6666 11.6667Z" fill="#64B9F6"/>
<defs>
<radialGradient id="paint0_radial_273_3638" cx="0" cy="0" r="1" gradientUnits="userSpaceOnUse" gradientTransform="translate(22.1667 25.0833) rotate(-124.019) scale(28.1515 22.5212)">
<stop stop-color="#96D2FA"/>
<stop offset="1" stop-color="#DCEEFD"/>
</radialGradient>
</defs>
</svg>
