<svg width="28" height="28" viewBox="0 0 28 28" fill="none" xmlns="http://www.w3.org/2000/svg">
<path d="M21.1167 4.55C17.8501 0.583336 11.9001 0.11667 7.9334 3.38334C3.96673 6.65 3.50006 12.6 6.76673 16.5667C7.70006 17.3833 8.16673 18.55 8.16673 19.8333V21C8.16673 20.3 8.6334 19.8333 9.3334 19.8333H18.6667C19.3667 19.8333 19.8334 20.3 19.8334 21V20.0667C19.8334 18.6667 20.4167 17.3833 21.2334 16.3333C24.0334 12.8333 24.0334 7.93334 21.1167 4.55Z" fill="url(#paint0_radial_273_3648)"/>
<path d="M16.3334 26.8333H11.6667C9.68341 26.8333 8.16675 25.3167 8.16675 23.3333V21C8.16675 20.3 8.63341 19.8333 9.33341 19.8333H18.6667C19.3667 19.8333 19.8334 20.3 19.8334 21V23.3333C19.8334 25.3167 18.3167 26.8333 16.3334 26.8333Z" fill="#64B9F6"/>
<path d="M15.1666 19.8333V16.3333C15.1666 15.6333 14.6999 15.1667 13.9999 15.1667C13.2999 15.1667 12.8333 15.6333 12.8333 16.3333V19.8333H15.1666Z" fill="#64B9F6"/>
<defs>
<radialGradient id="paint0_radial_273_3648" cx="0" cy="0" r="1" gradientUnits="userSpaceOnUse" gradientTransform="translate(13.961 11.1098) rotate(90) scale(9.89018 9.358)">
<stop stop-color="#FDFAE9"/>
<stop offset="1" stop-color="#96D2FA"/>
</radialGradient>
</defs>
</svg>
