<svg width="28" height="28" viewBox="0 0 28 28" fill="none" xmlns="http://www.w3.org/2000/svg">
<path d="M21.5016 9.60399C20.7945 7.95738 19.5652 6.58923 18.0033 5.71069C16.4414 4.83215 14.6338 4.49205 12.8594 4.74288C11.085 4.99371 9.44252 5.82152 8.18535 7.09857C6.92818 8.37561 6.12623 10.0309 5.90327 11.809C4.79266 12.0752 3.81848 12.7399 3.16573 13.6771C2.51298 14.6142 2.22711 15.7584 2.36242 16.8924C2.49773 18.0264 3.04479 19.0713 3.89971 19.8285C4.75464 20.5857 5.85788 21.0026 6.99993 21H19.8333C21.2337 21.0052 22.5891 20.505 23.6504 19.5912C24.7116 18.6774 25.4076 17.4114 25.6105 16.0256C25.8134 14.6399 25.5095 13.2275 24.7547 12.0479C23.9999 10.8682 22.8448 10.0005 21.5016 9.60399Z" fill="url(#paint0_radial_294_1607)"/>
<path d="M10.6664 24.8306C10.3368 24.8305 10.0146 24.7327 9.74059 24.5495C9.46656 24.3664 9.25298 24.1061 9.12686 23.8016C9.00073 23.4971 8.96772 23.162 9.03201 22.8387C9.09629 22.5154 9.25498 22.2185 9.48801 21.9854L16.1551 15.3183C16.4694 15.0147 16.8905 14.8467 17.3275 14.8505C17.7645 14.8543 18.1826 15.0296 18.4916 15.3386C18.8006 15.6477 18.9759 16.0657 18.9797 16.5027C18.9835 16.9397 18.8155 17.3608 18.5119 17.6751L11.8448 24.3422C11.6902 24.4972 11.5066 24.6201 11.3043 24.7039C11.1021 24.7878 10.8853 24.8308 10.6664 24.8306Z" fill="#F60404"/>
<path d="M17.3336 24.8306C17.1147 24.8308 16.8979 24.7878 16.6957 24.7039C16.4935 24.6201 16.3098 24.4972 16.1552 24.3422L9.48815 17.6751C9.18453 17.3608 9.01653 16.9397 9.02033 16.5027C9.02412 16.0657 9.19942 15.6477 9.50845 15.3386C9.81748 15.0296 10.2355 14.8543 10.6725 14.8505C11.1096 14.8467 11.5306 15.0147 11.845 15.3183L18.512 21.9854C18.7451 22.2185 18.9037 22.5154 18.968 22.8387C19.0323 23.162 18.9993 23.4971 18.8732 23.8016C18.7471 24.1061 18.5335 24.3664 18.2594 24.5495C17.9854 24.7327 17.6632 24.8305 17.3336 24.8306Z" fill="#F60404"/>
<defs>
<radialGradient id="paint0_radial_294_1607" cx="0" cy="0" r="1" gradientUnits="userSpaceOnUse" gradientTransform="translate(14.0007 12.8313) rotate(90) scale(8.16876 11.6711)">
<stop stop-color="#DCEEFD"/>
<stop offset="1" stop-color="#96D2FA"/>
</radialGradient>
</defs>
</svg>
