<svg width="91" height="76" viewBox="0 0 91 76" fill="none" xmlns="http://www.w3.org/2000/svg">
<path d="M67.5681 69.9972C73.4144 68.9304 78.694 65.0659 81.712 59.9307C82.5026 58.6708 83.0784 57.3099 83.5639 55.9489C83.7498 55.2558 84.0007 54.5735 84.0928 53.8767C84.1469 53.5302 84.2498 53.1854 84.2679 52.8425L84.3527 51.8154C84.4014 51.4707 84.3419 51.144 84.3455 50.8101C84.3365 50.4779 84.3419 50.1549 84.2841 49.7632C84.2137 49.0087 84.0946 48.2704 83.961 47.543C83.6813 46.0918 83.2679 44.702 82.6939 43.433C81.555 40.8826 79.7843 38.8465 77.4667 37.4549C76.8836 37.1119 76.2844 36.7834 75.6436 36.5145C75.3331 36.3629 75.0064 36.2419 74.6761 36.1228C74.3621 35.9965 73.9938 35.8845 73.6364 35.7708C72.1888 35.3124 70.5607 34.9044 68.8514 34.3954C67.1421 33.881 65.3263 33.289 63.4509 32.2926L62.7505 31.9118C62.5159 31.7692 62.2812 31.6067 62.0484 31.4515L61.3498 30.9768L60.6694 30.401C60.4455 30.2024 60.2163 30.0183 60.0033 29.8017L59.3806 29.1068C58.9528 28.6573 58.608 28.1195 58.2705 27.5762C57.9041 27.0473 57.6731 26.4589 57.424 25.8758C57.1496 25.291 57.0215 24.7008 56.8735 24.1069C56.5504 22.9283 56.4746 21.6594 56.5486 20.4482C56.7074 18.0097 57.5413 15.6343 59.0358 13.6109L59.0972 13.5279C60.4383 11.7138 62.996 11.3294 64.81 12.6723C66.624 14.0134 67.0085 16.5711 65.6656 18.3851C65.6223 18.4429 65.5699 18.5097 65.5248 18.5638C64.9779 19.2244 64.5934 20.136 64.4941 21.0565C64.449 21.5204 64.4346 21.9626 64.5609 22.4121C64.6097 22.6359 64.6223 22.8832 64.7234 23.0601C64.8028 23.2514 64.8389 23.4698 64.9689 23.6304C65.3443 24.3398 66.0428 25.0257 67.1313 25.6647C68.2088 26.3018 69.586 26.8451 71.0824 27.3523C72.5859 27.865 74.2122 28.3361 75.9559 28.9606C76.8132 29.271 77.7627 29.6338 78.6435 30.0833C79.5388 30.5057 80.407 31.0165 81.2499 31.5652C82.9322 32.6771 84.4791 34.0651 85.757 35.6589C87.0385 37.2491 88.0475 39.0307 88.784 40.8627C89.5258 42.6984 89.9988 44.5846 90.2839 46.4546C90.4211 47.3896 90.5294 48.3228 90.5817 49.2487C90.6269 49.6928 90.6214 50.2144 90.6142 50.7252C90.5962 51.2306 90.6341 51.7505 90.5583 52.2432L90.376 53.7287C90.3182 54.2251 90.1756 54.6926 90.0763 55.1745C89.8904 56.1456 89.5421 57.0445 89.2425 57.9651C88.5367 59.7502 87.7064 61.474 86.6487 63.0353C84.591 66.194 81.9268 68.9178 78.7843 70.9755C75.6598 73.0458 72.0065 74.5133 68.2684 75.0403C66.8858 75.2353 65.6728 74.2281 65.4779 72.8455C65.2883 71.4989 66.1963 70.2499 67.5229 70.0062L67.5644 69.999L67.5681 69.9972Z" fill="#231F20"/>
<path d="M32.6251 12.3204C34.7395 11.5541 35.6441 8.69923 34.6456 5.94378C33.647 3.18833 31.1235 1.57576 29.0091 2.34199C26.8947 3.10822 25.9901 5.9631 26.9887 8.71855C27.9872 11.474 30.5108 13.0866 32.6251 12.3204Z" fill="#231F20"/>
<path d="M29.08 13.5542C30.9068 12.2424 31.002 9.24918 29.2926 6.86852C27.5832 4.48787 24.7165 3.62133 22.8897 4.93305C21.0629 6.24476 20.9678 9.238 22.6772 11.6187C24.3866 13.9993 27.2533 14.8659 29.08 13.5542Z" fill="white"/>
<path d="M46.162 18.6757C46.162 25.7206 40.9619 26.7386 33.9152 26.7386C26.8685 26.7386 20.6484 25.7206 20.6484 18.6757C20.6484 11.6308 26.3594 5.9198 33.4043 5.9198C40.4492 5.9198 46.1602 11.6308 46.1602 18.6757H46.162Z" fill="#231F20"/>
<path d="M33.917 29.2531L50.4074 29.1249L50.6511 19.5855L42.6748 9.91614L33.917 29.2531Z" fill="#231F20"/>
<path d="M27.8144 13.2437C29.6412 11.932 29.7364 8.93876 28.027 6.55811C26.3175 4.17745 23.4509 3.31091 21.6241 4.62262C19.7973 5.93433 19.7022 8.92759 21.4116 11.3082C23.121 13.6889 25.9876 14.5554 27.8144 13.2437Z" fill="#231F20"/>
<path d="M81.5479 57.7701L81.6345 59.4235C81.6345 58.8676 81.6038 58.3171 81.5479 57.7701Z" fill="#231F20"/>
<path d="M22.7636 44.8554C18.5075 44.2995 14.2982 43.5739 10.1702 42.5956C11.1503 52.588 11.3994 61.5535 6.53131 70.1723C3.10182 70.212 0.795054 72.739 0.618164 75.257H12.5582C14.8523 75.257 16.9191 73.8744 17.7855 71.7517C19.8053 66.8024 23.2961 57.0428 22.7636 44.8554Z" fill="#231F20"/>
<path d="M33.3886 44.8554C29.1325 44.2995 22.7013 47.9275 18.5733 46.9474C19.5534 56.9399 21.6977 61.1058 17.7267 70.4755C14.2972 70.5152 11.4201 72.739 11.2432 75.257H23.1832C25.4773 75.257 27.5441 73.8743 28.4105 71.7517C30.4303 66.8024 33.9211 57.0427 33.3886 44.8554Z" fill="white"/>
<path d="M34.9785 44.8554C30.7223 44.2995 26.5131 43.5739 22.3851 42.5956C23.3652 52.588 23.6142 61.5535 18.7462 70.1723C15.3167 70.212 13.0099 72.739 12.833 75.257H24.7731C27.0672 75.257 29.1339 73.8744 30.0003 71.7517C32.0201 66.8024 35.511 57.0428 34.9785 44.8554Z" fill="#231F20"/>
<path d="M81.5583 61.2719L75.5441 68.6471L65.9939 68.2049L64.6834 71.7968L56.1386 72.452C37.2186 74.3328 26.358 66.4594 22.8148 63.2881C22.7083 63.196 22.6018 63.0949 22.4935 62.9957C15.5875 56.7522 9.32422 48.729 9.32422 38.7167C9.32422 26.2026 16.0153 15.2571 26.0222 9.24829C29.9842 11.4071 34.475 12.7753 38.7493 14.5857V20.914L40.7239 21.2064C40.7239 21.2064 34.8739 34.4695 46.6606 36.2366C48.8266 36.5579 52.3192 35.4604 54.2072 35.224C73.3348 32.8089 81.5583 48.0449 81.5583 61.2719Z" fill="#231F20"/>
<path d="M45.3044 27.9029C46.6601 27.9029 47.7592 26.8038 47.7592 25.4481C47.7592 24.0923 46.6601 22.9933 45.3044 22.9933C43.9487 22.9933 42.8496 24.0923 42.8496 25.4481C42.8496 26.8038 43.9487 27.9029 45.3044 27.9029Z" fill="white"/>
<path d="M45.3047 27.9029L51.1475 27.7369L50.9958 25.8398L46.5375 23.3273L45.3047 27.9029Z" fill="white"/>
<path d="M50.2718 19.8833L47.5859 20.7569L50.2718 21.4482V19.8833Z" fill="#E2BE74"/>
<path d="M40.0394 20.8453C38.2218 20.1504 36.2562 19.7605 34.2526 19.7118L34.249 19.663C36.2381 19.3797 38.3012 19.432 40.3265 19.8381L40.0376 20.8453H40.0394Z" fill="#E2BE74"/>
<path d="M40.6157 22.1557C38.5238 22.1359 36.3957 22.4662 34.3542 23.1485L34.3271 23.0853C36.2332 22.0673 38.3342 21.3543 40.5273 21.0042L40.6157 22.1557Z" fill="#E2BE74"/>
<path d="M40.6409 23.5168C38.7835 23.784 36.9623 24.7532 35.6555 26.2568L35.5508 26.1792C36.6266 24.4645 38.3575 23.1089 40.4008 22.4753L40.6409 23.5168Z" fill="#E2BE74"/>
<path d="M39.4424 21.6631C39.4424 22.95 40.4153 24.033 41.7419 24.3706V18.9556C40.4153 19.2931 39.4424 20.3761 39.4424 21.6631Z" fill="#231F20"/>
<path d="M37.9932 15.4828C38.1484 16.443 38.9805 17.1759 39.9841 17.1759C40.9877 17.1759 41.818 16.443 41.975 15.4828H37.9932Z" fill="white"/>
<path d="M40.9671 16.3311C41.5104 16.3311 41.9508 15.8907 41.9508 15.3474C41.9508 14.8041 41.5104 14.3636 40.9671 14.3636C40.4238 14.3636 39.9834 14.8041 39.9834 15.3474C39.9834 15.8907 40.4238 16.3311 40.9671 16.3311Z" fill="#231F20"/>
<path d="M45.5156 25.0636C46.2268 24.5546 46.7051 23.7297 46.7936 22.8579C46.9849 22.7839 47.2105 22.8886 47.3314 23.0565C47.4524 23.2225 47.4885 23.4355 47.5029 23.6413C47.5426 24.1882 47.4578 24.7441 47.2574 25.2532C47.9054 25.0781 48.409 24.459 48.4451 23.7875C48.7827 23.8796 48.9722 24.264 48.9614 24.6142C48.9505 24.9643 48.7863 25.2892 48.6256 25.5997C49.2971 25.3759 49.7917 24.6972 49.7971 23.9897C49.7989 23.6936 48.0823 23.0384 47.8206 22.9337C47.1636 22.6756 46.3242 22.3507 45.6113 22.3688C45.53 22.7153 45.7972 23.2857 45.7972 23.681C45.7972 24.1539 45.7033 24.6286 45.5174 25.0636H45.5156Z" fill="#231F20"/>
<path d="M49.1119 26.5167C48.935 26.9048 48.7581 27.2946 48.5199 27.6466C48.2816 27.9986 47.9748 28.3163 47.5957 28.5076C47.7672 28.421 48.2961 28.5401 48.5181 28.5076C48.7311 28.4751 49.0921 28.448 49.2184 28.2513C49.4603 27.8759 49.2148 26.9102 49.1137 26.5149L49.1119 26.5167Z" fill="#231F20"/>
<path d="M63.8823 72.7841C71.7725 72.7841 78.1688 66.3878 78.1688 58.4976C78.1688 50.6074 71.7725 44.2111 63.8823 44.2111C55.992 44.2111 49.5957 50.6074 49.5957 58.4976C49.5957 66.3878 55.992 72.7841 63.8823 72.7841Z" fill="#E2BE74"/>
<path d="M81.6337 59.4236C81.6337 68.1579 74.5527 75.2371 65.8201 75.2371H61.6307L62.8094 74.2065C56.1508 72.5892 51.2051 66.5822 51.2051 59.4236C51.2051 51.0249 58.0171 44.2111 66.423 44.2111C74.2657 44.2111 80.7222 50.1459 81.5489 57.7702C81.6048 58.3171 81.6355 58.8676 81.6355 59.4236H81.6337Z" fill="#231F20"/>
<path d="M59.2271 70.0171C53.785 67.0533 46.9693 69.0622 44.0055 74.5061C43.8738 74.748 43.7564 74.9916 43.6445 75.2389H64.0807C63.1096 73.0928 61.458 71.2318 59.2289 70.0189L59.2271 70.0171Z" fill="#E2BE74"/>
<path d="M60.6775 70.8059C55.2553 67.8529 48.4703 69.8384 45.4902 75.2353H65.1322C64.134 73.4249 62.6287 71.8672 60.6775 70.8059Z" fill="#231F20"/>
<path d="M35.267 33.5038C35.5775 33.1049 35.8681 32.8161 36.1533 32.6753C35.8645 32.5959 35.5775 32.5327 35.2941 32.4641C35.0107 32.3973 34.7273 32.3612 34.4512 32.2692C34.6967 32.8143 34.9746 33.1969 35.267 33.5038Z" fill="#E2BE74"/>
<path d="M33.4391 33.6843C33.8073 33.1229 34.1412 32.6446 34.4517 32.2692L33.6214 32.0454C33.3452 31.9858 33.0727 31.9027 32.8037 31.8125C32.977 32.5291 33.19 33.159 33.4391 33.6843Z" fill="#E2BE74"/>
<path d="M31.5904 33.6409L32.8033 31.8125L31.9965 31.5652C31.7257 31.4966 31.4676 31.3757 31.2041 31.2872C31.2889 32.1247 31.4135 32.9388 31.5904 33.6409Z" fill="#E2BE74"/>
<path d="M29.7513 33.3937C30.282 32.6464 30.7657 31.9425 31.2062 31.2873L30.421 31.0111L29.6521 30.6898C29.6394 31.6248 29.6719 32.5327 29.7513 33.3937Z" fill="#E2BE74"/>
<path d="M27.9443 32.9442C28.5508 32.1916 29.1284 31.4118 29.6519 30.6916C29.3974 30.5797 29.1356 30.4985 28.8902 30.3703L28.1411 30.0201C28.0292 31.0111 27.9642 31.9894 27.9443 32.9442Z" fill="#E2BE74"/>
<path d="M26.1864 32.3143C26.8759 31.5562 27.5275 30.7873 28.1394 30.0201C27.6322 29.809 27.1647 29.5129 26.6719 29.2765C26.468 30.2891 26.3037 31.3071 26.1846 32.3161L26.1864 32.3143Z" fill="#E2BE74"/>
<path d="M24.4971 31.5183C25.2642 30.7764 25.979 30.0472 26.6739 29.2747C26.4266 29.1574 26.201 29.0003 25.9609 28.8668L25.2516 28.457C24.9628 29.4642 24.7101 30.4876 24.4971 31.5183Z" fill="#E2BE74"/>
<path d="M22.8866 30.5653C23.7078 29.883 24.4984 29.1772 25.2511 28.457L24.5652 28.0058C24.3396 27.8524 24.0959 27.7224 23.8811 27.5527C23.5075 28.5491 23.188 29.5364 22.8848 30.5653H22.8866Z" fill="#E2BE74"/>
<path d="M21.374 29.4624C22.2314 28.8613 23.0707 28.2206 23.8811 27.5545C23.4479 27.2224 22.9732 26.9408 22.5563 26.587C22.1357 27.5184 21.7386 28.4805 21.374 29.4642V29.4624Z" fill="#E2BE74"/>
<path d="M19.9824 28.2151C20.8488 27.7188 21.7098 27.1736 22.5563 26.587L21.9047 26.0834C21.6791 25.9228 21.486 25.7297 21.273 25.5546C20.8434 26.3867 20.3922 27.2964 19.9824 28.2151Z" fill="#E2BE74"/>
<path d="M18.7305 26.8308C19.5698 26.4625 20.4217 26.0347 21.2737 25.5546L20.6365 25.0239L20.0283 24.459C19.6167 25.1864 19.1763 25.9806 18.7305 26.8308Z" fill="#E2BE74"/>
<path d="M17.6484 25.3145C18.3885 25.1123 19.2116 24.8073 20.0274 24.4589C19.8253 24.2694 19.605 24.0925 19.4155 23.8903L18.8199 23.2965L17.6484 25.3145Z" fill="#E2BE74"/>
<path d="M16.7539 23.6882C17.3676 23.6413 18.0643 23.5077 18.8206 23.2947C18.4001 22.9121 18.0535 22.4698 17.6402 22.0637C17.4218 22.5312 17.1167 23.0727 16.7539 23.6882Z" fill="#E2BE74"/>
<path d="M16.0781 21.9698C16.5041 22.0745 17.0059 22.1233 17.6376 22.0637C17.4265 21.8633 17.255 21.6341 17.0582 21.4193C16.8669 21.2009 16.6575 20.9879 16.4554 20.7677C16.4536 21.0908 16.3146 21.4915 16.0781 21.9698Z" fill="#E2BE74"/>
<path d="M35.3664 39.7364C35.6877 39.1282 35.9999 38.6372 36.3176 38.3177C35.9711 38.2563 35.6263 38.2058 35.2834 38.1607C34.9404 38.1155 34.5993 38.0867 34.2617 38.0271C34.6191 38.7347 34.9891 39.2888 35.3664 39.7382V39.7364Z" fill="#E2BE74"/>
<path d="M33.2513 40.1245C33.6069 39.3267 33.9408 38.6191 34.2621 38.0235C33.5834 37.9116 32.9102 37.8592 32.2441 37.7401C32.5564 38.6318 32.8939 39.435 33.2513 40.1245Z" fill="#E2BE74"/>
<path d="M31.1017 40.3177L32.2443 37.7402C31.5782 37.6373 30.914 37.5488 30.2588 37.4225C30.5061 38.4441 30.7894 39.4369 31.1017 40.3177Z" fill="#E2BE74"/>
<path d="M28.932 40.3195C29.4085 39.3159 29.8508 38.334 30.2587 37.4224C29.9302 37.3629 29.6017 37.3178 29.2768 37.2546L28.3057 37.056C28.4753 38.1805 28.6847 39.2726 28.932 40.3195Z" fill="#E2BE74"/>
<path d="M26.7584 40.1173C27.3125 39.0867 27.8269 38.056 28.3053 37.0561C27.6537 36.9478 27.0255 36.7582 26.3848 36.6265C26.4678 37.8069 26.5923 38.9748 26.7584 40.1191V40.1173Z" fill="#E2BE74"/>
<path d="M24.6002 39.722C25.2392 38.6824 25.8294 37.6661 26.3854 36.6265C26.0659 36.5579 25.7572 36.4532 25.4413 36.372C25.1291 36.2817 24.8096 36.2131 24.5027 36.1102C24.4865 37.3286 24.5244 38.5181 24.6002 39.722Z" fill="#E2BE74"/>
<path d="M22.4756 39.1264C23.194 38.1337 23.8708 37.1247 24.5026 36.1103C23.8907 35.9009 23.259 35.7403 22.6615 35.4966C22.555 36.6933 22.4882 37.9189 22.4756 39.1264Z" fill="#E2BE74"/>
<path d="M20.4102 38.3249C21.1971 37.4152 21.9516 36.4658 22.6628 35.4947L21.7513 35.1644L20.8614 34.7871C20.6773 35.9225 20.5239 37.1065 20.4102 38.3231V38.3249Z" fill="#E2BE74"/>
<path d="M18.4432 37.2889C19.2681 36.529 20.0785 35.6842 20.8619 34.7908C20.5623 34.6716 20.2645 34.5471 19.9775 34.4009L19.1002 33.9875C18.8601 35.0272 18.6363 36.1319 18.4414 37.2889H18.4432Z" fill="#E2BE74"/>
<path d="M16.6035 36.0417C17.4483 35.4262 18.2785 34.7493 19.1016 33.9858C18.811 33.845 18.5349 33.6789 18.2461 33.5309C17.9627 33.3757 17.663 33.2385 17.3941 33.0598C17.1143 34.0002 16.858 34.9785 16.6035 36.0417Z" fill="#E2BE74"/>
<path d="M14.9268 34.5923C15.7372 34.1663 16.5657 33.6519 17.3942 33.0598L16.5531 32.558C16.2607 32.4028 16.008 32.1952 15.7282 32.0201C15.4881 32.7855 15.1957 33.6699 14.9268 34.5941V34.5923Z" fill="#E2BE74"/>
<path d="M13.4629 32.9443C14.156 32.7511 14.9394 32.4208 15.7282 32.0183C15.4556 31.8324 15.165 31.6627 14.9015 31.4623L14.091 30.8667C13.9448 31.4587 13.7264 32.1519 13.4647 32.9424L13.4629 32.9443Z" fill="#E2BE74"/>
<path d="M12.2607 31.1158C12.777 31.1465 13.3852 31.0743 14.091 30.8685C13.9574 30.7656 13.8058 30.679 13.6777 30.5689L13.2805 30.2476C13.0134 30.0346 12.7372 29.8234 12.4521 29.6158C12.508 30.0003 12.4232 30.5057 12.2607 31.1122V31.1158Z" fill="#E2BE74"/>
<path d="M35.8362 44.9475C36.0709 44.4909 36.3091 44.1389 36.5636 43.9205C35.9824 43.8591 35.4102 43.8374 34.8398 43.8068C35.1738 44.2923 35.5077 44.6659 35.8362 44.9475Z" fill="#E2BE74"/>
<path d="M34.1317 45.4131C34.37 44.7922 34.6046 44.2471 34.8411 43.8067C34.2689 43.7562 33.7057 43.7417 33.1426 43.7002C33.4675 44.3608 33.7978 44.9204 34.1335 45.4131H34.1317Z" fill="#E2BE74"/>
<path d="M32.3958 45.7489C32.6539 44.9981 32.9012 44.314 33.1412 43.7021C32.5781 43.6551 32.0185 43.6371 31.459 43.5865C31.7586 44.3771 32.0727 45.0937 32.3958 45.7489Z" fill="#E2BE74"/>
<path d="M30.6391 45.9655L31.4567 43.5847C30.8972 43.5269 30.3412 43.5125 29.7871 43.4475C30.0542 44.3392 30.3394 45.1803 30.6391 45.9655Z" fill="#E2BE74"/>
<path d="M28.8726 46.072L29.7895 43.4493C29.2354 43.3916 28.6812 43.3591 28.1289 43.2887C28.3563 44.2508 28.6054 45.1875 28.8726 46.072Z" fill="#E2BE74"/>
<path d="M27.0993 46.072C27.4621 45.1207 27.805 44.1894 28.1281 43.2887C27.5758 43.2273 27.0253 43.1786 26.4766 43.101C26.6643 44.1081 26.8701 45.1153 27.0993 46.072Z" fill="#E2BE74"/>
<path d="M25.3286 45.9673C25.7329 45.0017 26.1155 44.0414 26.4783 43.101C25.9278 43.036 25.3791 42.9692 24.834 42.8844C24.9784 43.9169 25.1444 44.9547 25.3304 45.9673H25.3286Z" fill="#E2BE74"/>
<path d="M23.5652 45.7615C24.0074 44.8013 24.4298 43.841 24.8323 42.8843C24.2836 42.8121 23.7385 42.7309 23.1934 42.6353C23.298 43.6713 23.4226 44.7164 23.5652 45.7615Z" fill="#E2BE74"/>
<path d="M21.8185 45.4529C22.2932 44.5323 22.7535 43.5829 23.1939 42.6353C22.647 42.5559 22.1037 42.4566 21.5586 42.3573C21.629 43.3699 21.7156 44.406 21.8185 45.4529Z" fill="#E2BE74"/>
<path d="M20.0925 45.0378C20.5907 44.1822 21.0835 43.2725 21.5582 42.3574C21.0113 42.2725 20.4698 42.157 19.9229 42.0577C19.968 43.018 20.0239 44.0162 20.0925 45.0396V45.0378Z" fill="#E2BE74"/>
<path d="M18.3981 44.518C18.9107 43.749 19.4233 42.9187 19.9233 42.0577C19.3746 41.9657 18.8349 41.8393 18.2861 41.7365L18.3963 44.518H18.3981Z" fill="#E2BE74"/>
<path d="M16.741 43.888C17.2537 43.2346 17.7717 42.5126 18.2861 41.7346C17.7356 41.6389 17.1959 41.4981 16.6436 41.3953L16.741 43.888Z" fill="#E2BE74"/>
<path d="M15.1328 43.1461C15.6238 42.6389 16.1292 42.0577 16.6436 41.3953C16.0913 41.2888 15.548 41.148 14.9902 41.0415C15.0552 41.6624 15.0985 42.37 15.1328 43.1461Z" fill="#E2BE74"/>
<path d="M13.5819 42.2923C14.0277 41.9638 14.4952 41.5558 14.9898 41.0432C14.4357 40.9223 13.8833 40.7923 13.3184 40.6804C13.4393 41.1172 13.5223 41.6623 13.5819 42.2923Z" fill="#E2BE74"/>
<path d="M12.1094 41.3086C12.4704 41.2075 12.8729 41.0053 13.3187 40.6786C12.7556 40.5613 12.196 40.4259 11.6094 40.3357C11.835 40.5252 11.992 40.8627 12.1076 41.3086H12.1094Z" fill="#E2BE74"/>
<path d="M36.1244 51.5556C36.2399 51.0177 36.3789 50.5827 36.5702 50.2975C35.9818 50.3498 35.4258 50.4671 34.8555 50.5285C35.3031 50.987 35.7309 51.3335 36.1226 51.5556H36.1244Z" fill="#E2BE74"/>
<path d="M34.5507 52.4094C34.6409 51.691 34.7384 51.0574 34.8575 50.5286C34.2944 50.6116 33.7384 50.6946 33.1807 50.7614C33.6409 51.3913 34.103 51.9473 34.5507 52.4094Z" fill="#E2BE74"/>
<path d="M32.8951 53.0934L33.1803 50.7614C32.6279 50.8498 32.0684 50.8931 31.5215 50.9744C31.9709 51.7433 32.4312 52.4526 32.8951 53.0952V53.0934Z" fill="#E2BE74"/>
<path d="M31.1842 53.6367L31.5217 50.9744C30.9658 51.0177 30.4224 51.1043 29.8701 51.1404C30.2925 52.0249 30.7329 52.8624 31.1842 53.6367Z" fill="#E2BE74"/>
<path d="M29.4333 54.0429C29.5993 53.0393 29.7437 52.0682 29.8719 51.1387C29.3232 51.1928 28.7763 51.2379 28.2275 51.2722C28.6066 52.2217 29.0109 53.1512 29.4351 54.0429H29.4333Z" fill="#E2BE74"/>
<path d="M27.6516 54.2992C27.8682 53.2812 28.0595 52.2686 28.2255 51.2722C27.6786 51.3246 27.1299 51.3282 26.583 51.3697C26.9133 52.357 27.2689 53.3389 27.6497 54.2992H27.6516Z" fill="#E2BE74"/>
<path d="M25.8537 54.4237C26.1227 53.4021 26.3664 52.3804 26.583 51.3696C26.0343 51.375 25.4891 51.4184 24.9404 51.4129C25.2184 52.4201 25.5234 53.4273 25.8537 54.4237Z" fill="#E2BE74"/>
<path d="M24.0532 54.4093C24.3745 53.4255 24.6723 52.422 24.9412 51.413C24.3925 51.4274 23.8456 51.4328 23.2969 51.431C23.5243 52.3967 23.7752 53.3967 24.0532 54.4111V54.4093Z" fill="#E2BE74"/>
<path d="M22.2628 54.2324C22.6292 53.3443 22.9758 52.4057 23.2989 51.4292C22.7483 51.4454 22.1996 51.413 21.6455 51.4256C21.8314 52.3137 22.0354 53.2541 22.2628 54.2324Z" fill="#E2BE74"/>
<path d="M20.4931 53.9038C20.892 53.1403 21.2783 52.3082 21.6447 51.4274L19.9805 51.3931L20.4931 53.9038Z" fill="#E2BE74"/>
<path d="M18.7641 53.4165C19.1738 52.828 19.5817 52.1458 19.9806 51.3931L18.293 51.3516C18.4536 51.9382 18.607 52.6349 18.7641 53.4165Z" fill="#E2BE74"/>
<path d="M17.0996 52.7324C17.4804 52.4021 17.8848 51.931 18.2927 51.3498C18.0075 51.3462 17.7223 51.3462 17.4353 51.3335C17.2927 51.3281 17.1483 51.3245 17.0021 51.3281H16.7837L16.6736 51.3317H16.6176L16.5906 51.3353H16.5761H16.5689H16.5653C16.5545 51.3769 16.5888 51.2451 16.54 51.4274L16.5653 51.3371V51.3407V51.3444L16.5725 51.3516L16.5816 51.366L16.6014 51.3967L16.6393 51.4617L16.7115 51.6043C16.7584 51.7036 16.8054 51.8119 16.8487 51.931C16.9371 52.1656 17.0184 52.4364 17.0978 52.7342L17.0996 52.7324Z" fill="#E2BE74"/>
<mask id="mask0_978_8058" style="mask-type:luminance" maskUnits="userSpaceOnUse" x="20" y="18" width="62" height="51">
<path d="M20.6504 18.2426V43.0468C20.6504 55.9706 31.5219 66.62 45.3644 67.2572L75.5475 68.6453L81.56 61.2719C81.56 48.0466 73.3328 32.8053 54.2071 35.2203C52.319 35.4586 48.83 36.556 46.664 36.2311C34.8738 34.4695 40.7255 21.2028 40.7255 21.2028L20.6504 18.2426Z" fill="white"/>
</mask>
<g mask="url(#mask0_978_8058)">
<path d="M45.0039 44.814C45.9768 44.7183 47.0111 44.5125 48.0507 44.2003C47.9063 43.9963 47.7457 43.796 47.6067 43.583C47.4786 43.3628 47.3197 43.1534 47.2078 42.9205C46.4912 43.4674 45.7764 44.0848 45.0039 44.8158V44.814Z" fill="#E2BE74"/>
<path d="M44.5166 42.9042C45.3433 42.9981 46.2566 43.0035 47.2079 42.9187C47.0869 42.6895 46.957 42.4602 46.8577 42.2165C46.744 41.9783 46.6447 41.7328 46.558 41.4801C45.9209 41.8862 45.2368 42.3555 44.5166 42.9042Z" fill="#E2BE74"/>
<path d="M44.3281 40.9856C44.9996 41.213 45.7324 41.3863 46.5555 41.4819C46.4562 41.2328 46.3858 40.9747 46.31 40.7166C46.2252 40.4585 46.1855 40.1914 46.1187 39.926C45.5934 40.2293 44.9689 40.5812 44.3281 40.9874V40.9856Z" fill="#E2BE74"/>
<path d="M44.4258 39.0957C44.9185 39.4116 45.4727 39.6932 46.1207 39.9242C46.0142 39.3899 45.9456 38.8412 45.9185 38.2853L44.4258 39.0957Z" fill="#E2BE74"/>
<path d="M44.8027 37.2727C45.0753 37.6247 45.4724 37.9712 45.9182 38.2853C45.9182 38.0091 45.8893 37.7258 45.911 37.4478C45.9218 37.168 45.9273 36.8846 45.9652 36.6049C45.6348 36.816 45.2612 37.0363 44.8027 37.2727Z" fill="#E2BE74"/>
<path d="M45.4326 35.5543C45.5193 35.8972 45.6944 36.2528 45.9633 36.6048C45.9868 36.3214 46.0265 36.0398 46.0824 35.7601C46.1239 35.4767 46.1979 35.2005 46.2665 34.9189C46.0553 35.141 45.7647 35.3431 45.4326 35.5543Z" fill="#E2BE74"/>
<path d="M46.3029 33.9804C46.2235 34.2692 46.1837 34.5778 46.2668 34.919C46.3263 34.6338 46.4346 34.3684 46.5195 34.0869C46.6133 33.8107 46.7325 33.5454 46.8408 33.271C46.727 33.5417 46.5375 33.7674 46.3029 33.9786V33.9804Z" fill="#E2BE74"/>
<path d="M52.7021 43.2959C53.657 43.0234 54.6479 42.6227 55.6082 42.1281C55.4259 41.944 55.2237 41.7707 55.0504 41.574C54.8754 41.379 54.6931 41.1841 54.5378 40.9729C53.9187 41.657 53.3104 42.4241 52.7021 43.2959Z" fill="#E2BE74"/>
<path d="M51.7977 41.4477C52.684 41.3899 53.5919 41.2383 54.5377 40.9711C54.3662 40.7672 54.2218 40.5452 54.072 40.3232C53.9222 40.1011 53.7976 39.8665 53.6641 39.6318C53.0666 40.1481 52.4295 40.7545 51.7959 41.4459L51.7977 41.4477Z" fill="#E2BE74"/>
<path d="M51.243 39.4909C51.9867 39.6299 52.8206 39.675 53.6635 39.6335C53.5498 39.3917 53.4162 39.1534 53.3242 38.9007C53.2159 38.6516 53.1292 38.3953 53.048 38.1354C52.4812 38.5144 51.8675 38.9639 51.2412 39.4909H51.243Z" fill="#E2BE74"/>
<path d="M51.0624 37.4892C51.3548 37.6318 51.6779 37.7564 52.0064 37.8647C52.3367 37.973 52.6778 38.065 53.0478 38.1354C52.8908 37.6138 52.7735 37.0741 52.7284 36.5236C52.2103 36.7889 51.6706 37.1048 51.0605 37.4892H51.0624Z" fill="#E2BE74"/>
<path d="M51.2871 35.5164C51.6914 35.8973 52.1607 36.2366 52.7311 36.5236C52.6968 36.2474 52.6968 35.9713 52.6932 35.6915C52.6878 35.5507 52.7076 35.4135 52.7131 35.2727C52.7221 35.1337 52.7257 34.9912 52.751 34.8522C52.5271 34.9424 52.3069 35.0453 52.0632 35.1554C51.8232 35.2655 51.5524 35.3846 51.2889 35.5164H51.2871Z" fill="#E2BE74"/>
<path d="M51.9188 33.6681C52.1029 34.076 52.3863 34.4803 52.7491 34.854C52.7852 34.5742 52.8285 34.2944 52.8989 34.0182C52.9512 33.7367 53.0578 33.4713 53.139 33.1934C52.8032 33.3468 52.3682 33.4858 51.917 33.6681H51.9188Z" fill="#E2BE74"/>
<path d="M60.0303 41.5035C60.958 41.3321 61.9652 41.0432 62.9977 40.666C62.6367 40.2743 62.2739 39.8754 61.967 39.4476C61.3642 40.0397 60.7144 40.7256 60.0303 41.5035Z" fill="#E2BE74"/>
<path d="M59.411 39.6408C60.1962 39.6769 61.0463 39.6155 61.9668 39.4477C61.6564 39.0217 61.3622 38.5777 61.1347 38.1066C60.6113 38.5307 60.0337 39.0379 59.4092 39.6408H59.411Z" fill="#E2BE74"/>
<path d="M59.1279 37.6878C59.4113 37.8033 59.7272 37.8954 60.0665 37.9658C60.4041 38.0362 60.7524 38.0849 61.1369 38.1084C61.0214 37.8737 60.9095 37.6337 60.8246 37.3864C60.729 37.1391 60.6604 36.8864 60.5936 36.6283C60.1784 36.9135 59.6766 37.2619 59.1279 37.6914V37.6878Z" fill="#E2BE74"/>
<path d="M59.2959 35.7438C59.6154 36.0886 60.0558 36.3936 60.5937 36.6247C60.5377 36.3666 60.4908 36.1012 60.4655 35.8323C60.4439 35.5633 60.4294 35.289 60.4457 35.0128C60.1352 35.2258 59.7598 35.4587 59.2959 35.742V35.7438Z" fill="#E2BE74"/>
<path d="M59.9492 33.9731C59.9691 34.141 60.0304 34.3196 60.1117 34.4947C60.1893 34.668 60.3012 34.8431 60.4456 35.0146C60.451 34.7366 60.4889 34.4586 60.5376 34.1807C60.5828 33.9009 60.6586 33.6247 60.7362 33.3431C60.5557 33.5724 60.2868 33.7673 59.9492 33.9731Z" fill="#E2BE74"/>
</g>
<path d="M69.2141 63.5895C69.3567 63.2122 69.4271 62.788 69.3982 62.4108C69.3621 62.0227 69.2267 61.6798 69.0029 61.4072C68.5769 60.9054 68.0516 60.6906 67.678 60.5517C67.9054 60.734 68.1925 60.9379 68.5318 61.1437C68.1275 61.0769 67.7087 60.8513 67.373 60.4686C67.6744 60.8711 68.0571 61.2791 68.474 61.7538C68.2231 61.6094 68.0011 61.4361 67.8008 61.2231C67.5986 61.0047 67.4253 60.7574 67.2773 60.4903C67.5535 61.0282 67.8423 61.6076 68.0607 62.2267C67.6762 61.7249 67.4037 61.1148 67.1816 60.5119C67.2791 60.8242 67.3622 61.1401 67.4181 61.4614L68.604 65.2302C68.6292 64.9974 68.7538 64.7176 68.8765 64.4252C68.9975 64.1237 69.1328 63.844 69.2141 63.5913V63.5895Z" fill="#E2BE74"/>
<path d="M71.6251 60.9795C71.8544 60.8676 72.1594 60.7177 72.4392 60.5643C72.719 60.4127 73.0024 60.2683 73.2334 60.2304L73.2135 60.2142L69.3563 59.3532C69.6505 59.4615 69.9375 59.595 70.2082 59.7593C69.5711 59.6005 68.9628 59.3784 68.3888 59.1853C68.6704 59.299 68.9393 59.4398 69.1866 59.6077C69.423 59.7719 69.6397 59.9633 69.8292 60.1835C69.2985 59.8477 68.8075 59.5427 68.3545 59.3117C68.5747 59.4506 68.7606 59.6077 68.9285 59.7882C69.0819 59.9596 69.2137 60.1546 69.3057 60.3495C68.9808 60.0156 68.6776 59.7485 68.4032 59.5409C68.4375 59.6365 68.4809 59.7394 68.5476 59.8568C68.6054 59.9705 68.674 60.0896 68.7588 60.2178C68.9303 60.4723 69.1288 60.7358 69.4267 60.9434C69.7173 61.1455 70.0765 61.261 70.4555 61.2574C70.8454 61.2647 71.2443 61.1491 71.6216 60.9813L71.6251 60.9795Z" fill="#E2BE74"/>
<path d="M69.5674 61.4956C69.7533 61.7844 69.8778 62.1454 69.8959 62.5064C69.9067 62.6887 69.9049 62.8837 69.8778 63.0678C69.8508 63.2519 69.8074 63.4342 69.7569 63.6129C69.7208 63.7501 69.6468 63.9468 69.571 64.1724C70.2533 64.1724 71.0547 63.8114 71.5908 63.1779C72.0799 62.6129 72.3218 61.8729 72.2911 61.252C72.0547 61.3584 71.8272 61.4523 71.6883 61.5083C71.0042 61.7898 70.1811 61.8422 69.5674 61.492V61.4956Z" fill="#E2BE74"/>
<path d="M63.6795 63.456C63.8763 63.4289 64.082 63.3657 64.2698 63.2953C64.4575 63.2267 64.6344 63.1365 64.7932 63.021C65.1109 62.7971 65.3347 62.5174 65.4611 62.1798C65.5766 61.8712 65.6037 61.5788 65.6073 61.3062C65.6073 61.1708 65.6 61.0463 65.5874 60.9326C65.5766 60.8153 65.5639 60.6997 65.5423 60.6059C65.5206 60.7485 65.5008 60.9091 65.4845 61.086C65.4701 61.2593 65.4629 61.4398 65.4575 61.6401C65.3076 61.2683 65.3058 60.7737 65.4629 60.3044C65.2734 60.7521 65.0946 61.3116 64.9015 61.8928C64.8925 61.6185 64.9412 61.3225 65.0261 61.0463C65.1091 60.7719 65.2408 60.494 65.4015 60.2286C65.0694 60.7394 64.7102 61.2791 64.286 61.7755C64.5369 61.1817 64.9178 60.6546 65.3311 60.16C65.1073 60.4019 64.878 60.6275 64.6289 60.8351L61.9521 63.743C62.1597 63.6545 62.472 63.6148 62.7879 63.5769C63.0983 63.548 63.4268 63.4993 63.6777 63.456H63.6795Z" fill="#E2BE74"/>
<path d="M67.1437 64.2357C67.3567 64.3855 67.6382 64.5732 67.9126 64.7356C68.187 64.9089 68.4541 65.0804 68.6003 65.2537L68.6057 65.2284L67.4198 61.4596C67.4758 61.7754 67.5065 62.0931 67.4974 62.4054C67.3151 61.7736 67.2069 61.1383 67.0823 60.5444C67.1671 61.1419 67.1328 61.752 66.9397 62.2845C66.965 61.6563 66.9884 61.0932 66.9578 60.5715C66.9415 61.095 66.7827 61.557 66.5354 61.918C66.6617 61.4596 66.7448 61.0841 66.7863 60.7304C66.6563 60.8856 66.5155 61.113 66.3766 61.3783C66.2412 61.6527 66.1112 61.9668 66.0805 62.3224C66.0498 62.6816 66.1311 63.0335 66.3242 63.3693C66.4199 63.5407 66.5408 63.6996 66.6798 63.8422C66.8188 63.9848 66.9794 64.131 67.1455 64.2393L67.1437 64.2357Z" fill="#E2BE74"/>
<path d="M65.669 62.7177C65.512 63.0245 65.2683 63.2934 64.9579 63.51C64.6564 63.7068 64.2846 63.8656 63.9308 63.9378C63.799 63.9667 63.577 64.0245 63.3496 64.0588C63.6962 64.6472 64.4146 65.158 65.2232 65.3078C65.9488 65.4594 66.7159 65.288 67.2376 64.9522C67.0264 64.8114 66.8314 64.6508 66.7141 64.5587C66.4271 64.3439 66.16 64.0407 65.9723 63.7357C65.7864 63.4072 65.678 63.0624 65.669 62.7177Z" fill="#E2BE74"/>
<path d="M61.0247 58.5933C61.2936 58.9055 61.6041 59.1817 61.9597 59.3424C62.3026 59.5084 62.6726 59.5589 63.0246 59.4994C63.3513 59.4452 63.6184 59.3225 63.8495 59.1907C64.0895 59.0554 64.2664 58.9164 64.4289 58.7846C64.1473 58.8893 63.8405 59.0337 63.4867 59.225C63.6202 59.068 63.7773 58.9272 63.9812 58.8117C64.1708 58.698 64.4054 58.6131 64.6509 58.5626C64.409 58.5933 64.1401 58.6384 63.8621 58.6925C63.5805 58.7503 63.2899 58.8099 62.9921 58.8694C63.2304 58.725 63.4975 58.6204 63.7881 58.5554C64.0751 58.4904 64.3657 58.4651 64.6816 58.4705C64.0697 58.438 63.4289 58.3983 62.7809 58.2774C63.4253 58.1998 64.0733 58.2648 64.7105 58.3749C64.391 58.3027 64.0751 58.2142 63.7665 58.1023L59.9092 57.2413C60.0987 57.3785 60.29 57.6276 60.4741 57.8803C60.6564 58.133 60.8658 58.3947 61.0228 58.5897L61.0247 58.5933Z" fill="#E2BE74"/>
<path d="M62.0857 61.9849C62.0496 62.252 62.0515 62.5715 62.0334 62.9018C62.019 63.2249 62.0117 63.5354 61.9287 63.7538L61.954 63.7447L64.6308 60.8369C64.3871 61.039 64.129 61.2232 63.8492 61.3766C64.3059 60.9055 64.8041 60.4903 65.2607 60.086C65.0189 60.2755 64.7589 60.4416 64.499 60.5643C64.2373 60.6889 63.9503 60.7882 63.6778 60.8333C64.2229 60.5517 64.7445 60.2719 65.1705 59.9958C64.7138 60.2376 64.2174 60.3387 63.7951 60.2972C64.2409 60.1871 64.6272 60.0571 64.9485 59.9236C64.7445 59.8893 64.4828 59.8748 64.1795 59.8911C63.8835 59.9073 63.5388 59.9542 63.2157 60.1077C62.8962 60.2593 62.6291 60.5084 62.4287 60.8441C62.2428 61.1708 62.1218 61.586 62.0912 61.9867L62.0857 61.9849Z" fill="#E2BE74"/>
<path d="M62.6652 59.9488C62.3078 59.9705 61.9631 59.891 61.6238 59.7304C61.4505 59.651 61.3025 59.5481 61.1508 59.4326C61.001 59.3171 60.8548 59.1889 60.7375 59.0535C60.6436 58.9488 60.4974 58.7846 60.3404 58.6095C60.0065 59.2033 59.9216 60.0824 60.2014 60.8621C60.4469 61.5661 60.9505 62.1491 61.5154 62.4253C61.5443 62.1653 61.5624 61.9325 61.5931 61.7791C61.6219 61.5968 61.6617 61.4127 61.7158 61.2376C61.7736 61.0589 61.8512 60.882 61.9396 60.7231C62.1111 60.4055 62.3764 60.1311 62.667 59.9506L62.6652 59.9488Z" fill="#E2BE74"/>
<path d="M63.9122 53.8695C63.7696 54.2467 63.6992 54.6709 63.7281 55.0482C63.7642 55.4362 63.8996 55.7792 64.1234 56.0518C64.5494 56.5553 65.0746 56.7701 65.4482 56.9073C65.2208 56.725 64.9338 56.521 64.5945 56.3153C64.9988 56.3821 65.4176 56.6077 65.7533 56.9903C65.4519 56.5878 65.0692 56.1817 64.6522 55.7052C64.9031 55.8496 65.1252 56.0229 65.3255 56.2359C65.5277 56.4543 65.7009 56.7015 65.8489 56.9687C65.5728 56.4308 65.284 55.8514 65.0656 55.2323C65.45 55.7341 65.7226 56.3442 65.9446 56.947C65.8471 56.6348 65.7641 56.3189 65.7082 55.9976L64.5223 52.2288C64.497 52.4616 64.3725 52.7414 64.2497 53.0338C64.1288 53.3352 63.9934 53.615 63.9122 53.8677V53.8695Z" fill="#E2BE74"/>
<path d="M61.5008 56.4796C61.2716 56.5915 60.9666 56.7413 60.6868 56.8947C60.407 57.0464 60.1236 57.1908 59.8926 57.2287L59.9125 57.2449L63.7697 58.1059C63.4755 57.9976 63.1885 57.864 62.9178 57.6998C63.5549 57.8586 64.1632 58.0824 64.7372 58.2738C64.4556 58.16 64.1867 58.0192 63.9394 57.8514C63.7029 57.6871 63.4863 57.4958 63.2968 57.2756C63.8275 57.6113 64.3184 57.9164 64.7715 58.1474C64.5513 58.0084 64.3654 57.8514 64.1975 57.6709C64.0441 57.4994 63.9123 57.3045 63.8203 57.1095C64.1452 57.4435 64.4484 57.7106 64.7227 57.9182C64.6885 57.8225 64.6451 57.7196 64.5784 57.6023C64.5206 57.4886 64.452 57.3694 64.3672 57.2413C64.1957 56.9868 63.9972 56.7233 63.6993 56.5157C63.4087 56.3135 63.0495 56.198 62.6705 56.2016C62.2806 56.1944 61.8817 56.3099 61.5044 56.4778L61.5008 56.4796Z" fill="#E2BE74"/>
<path d="M63.5584 55.9633C63.3724 55.6745 63.2479 55.3135 63.2298 54.9525C63.219 54.7702 63.2208 54.5753 63.2479 54.3912C63.275 54.207 63.3183 54.0247 63.3688 53.846C63.4049 53.7089 63.4789 53.5121 63.5547 53.2865C62.8725 53.2865 62.071 53.6475 61.535 54.281C61.0458 54.846 60.8039 55.5861 60.8346 56.207C61.0711 56.1005 61.2985 56.0066 61.4375 55.9507C62.1216 55.6691 62.9447 55.6167 63.5584 55.9669V55.9633Z" fill="#E2BE74"/>
<path d="M69.4463 54.0032C69.2496 54.0302 69.0438 54.0934 68.8561 54.1638C68.6683 54.2324 68.4914 54.3227 68.3326 54.4382C68.0149 54.662 67.7911 54.9418 67.6648 55.2793C67.5493 55.588 67.5222 55.8804 67.5186 56.1529C67.5186 56.2883 67.5258 56.4128 67.5384 56.5266C67.5493 56.6439 67.5619 56.7594 67.5836 56.8533C67.6052 56.7107 67.6251 56.55 67.6413 56.3731C67.6557 56.1999 67.663 56.0194 67.6684 55.819C67.8182 56.1908 67.82 56.6854 67.663 57.1547C67.8525 56.7071 68.0312 56.1475 68.2243 55.5663C68.2333 55.8407 68.1846 56.1367 68.0998 56.4129C68.0168 56.6872 67.885 56.9652 67.7243 57.2305C68.0564 56.7197 68.4157 56.18 68.8398 55.6836C68.5889 56.2775 68.2081 56.8045 67.7947 57.2991C68.0185 57.0572 68.2478 56.8316 68.4969 56.624L71.1737 53.7162C70.9661 53.8046 70.6538 53.8443 70.338 53.8822C70.0275 53.9111 69.699 53.9599 69.4481 54.0032H69.4463Z" fill="#E2BE74"/>
<path d="M65.9826 53.2233C65.7696 53.0753 65.488 52.8858 65.2136 52.7234C64.9393 52.5501 64.6721 52.3786 64.5259 52.2053L64.5205 52.2306L65.7064 55.9994C65.6504 55.6836 65.6198 55.3659 65.6288 55.0536C65.8111 55.6854 65.9194 56.3207 66.0439 56.9146C65.9591 56.3171 65.9934 55.707 66.1865 55.1745C66.1612 55.8027 66.1378 56.3658 66.1685 56.8875C66.1847 56.364 66.3436 55.902 66.5909 55.541C66.4645 55.9994 66.3815 56.3749 66.34 56.7287C66.4699 56.5734 66.6107 56.346 66.7497 56.0807C66.885 55.8063 67.015 55.4922 67.0457 55.1366C67.0764 54.7775 66.9952 54.4255 66.802 54.0897C66.7064 53.9183 66.5854 53.7594 66.4464 53.6168C66.3075 53.4742 66.1468 53.328 65.9808 53.2197L65.9826 53.2233Z" fill="#E2BE74"/>
<path d="M67.4572 54.7414C67.6142 54.4345 67.8579 54.1656 68.1684 53.949C68.4698 53.7522 68.8416 53.5934 69.1954 53.5212C69.3272 53.4923 69.5492 53.4346 69.7766 53.4003C69.4301 52.8118 68.7117 52.301 67.903 52.1512C67.1774 51.9996 66.4103 52.1711 65.8887 52.5068C66.0999 52.6476 66.2948 52.8082 66.4121 52.9003C66.6991 53.1151 66.9663 53.4183 67.154 53.7234C67.3399 54.0519 67.4482 54.3966 67.4572 54.7414Z" fill="#E2BE74"/>
<path d="M72.0999 58.8658C71.8309 58.5518 71.5205 58.2774 71.1649 58.1168C70.8219 57.9507 70.4519 57.9002 70.0999 57.9597C69.7732 58.0139 69.5061 58.1366 69.275 58.2684C69.035 58.4038 68.8581 58.5427 68.6956 58.6745C68.9772 58.5698 69.2841 58.4254 69.6378 58.2323C69.5043 58.3893 69.3472 58.5301 69.1433 58.6456C68.9537 58.7594 68.7191 58.8442 68.4736 58.8947C68.7155 58.864 68.9844 58.8189 69.2624 58.7648C69.544 58.707 69.8346 58.6474 70.1324 58.5879C69.8942 58.7323 69.627 58.837 69.3364 58.9019C69.0494 58.9669 68.7588 58.9922 68.4429 58.9868C69.0548 59.0193 69.6956 59.059 70.3436 59.1799C69.6992 59.2575 69.0512 59.1925 68.4141 59.0824C68.7335 59.1546 69.0494 59.2431 69.3581 59.355L73.2153 60.216C73.0258 60.0788 72.8345 59.8297 72.6504 59.577C72.4681 59.3243 72.2587 59.0626 72.1017 58.8676L72.0999 58.8658Z" fill="#E2BE74"/>
<path d="M71.0402 55.4742C71.0763 55.2071 71.0745 54.8876 71.0926 54.5573C71.107 54.2342 71.1142 53.9237 71.1972 53.7053L71.172 53.7143L68.4952 56.6222C68.7389 56.42 68.997 56.2359 69.2767 56.0825C68.8201 56.5536 68.3219 56.9687 67.8652 57.3731C68.1071 57.1835 68.367 57.0175 68.6269 56.8947C68.8887 56.7702 69.1757 56.6709 69.4482 56.6258C68.9031 56.9074 68.3815 57.1871 67.9555 57.4633C68.4121 57.2232 68.9085 57.1204 69.3309 57.1619C68.8851 57.272 68.4988 57.4019 68.1775 57.5355C68.3815 57.5698 68.6432 57.5843 68.9464 57.568C69.2424 57.5518 69.5872 57.5048 69.9103 57.3514C70.2298 57.1998 70.4969 56.9507 70.6973 56.615C70.8832 56.2883 71.0041 55.8731 71.0348 55.4724L71.0402 55.4742Z" fill="#E2BE74"/>
<path d="M70.4608 57.5103C70.8182 57.4886 71.1629 57.568 71.5023 57.7287C71.6756 57.8081 71.8236 57.911 71.9752 58.0265C72.125 58.142 72.2712 58.2702 72.3885 58.4055C72.4824 58.5102 72.6286 58.6745 72.7856 58.8496C73.1196 58.2557 73.2044 57.3767 72.9246 56.5969C72.6791 55.893 72.1755 55.31 71.6106 55.0338C71.5817 55.2937 71.5636 55.5266 71.5329 55.68C71.5041 55.8623 71.4644 56.0446 71.4102 56.2215C71.3525 56.4002 71.2748 56.5771 71.1864 56.7359C71.0149 57.0536 70.7496 57.328 70.459 57.5085L70.4608 57.5103Z" fill="#E2BE74"/>
<path d="M67.2322 58.8784C67.1492 59.2485 66.7828 59.4813 66.4146 59.3983C66.0445 59.3153 65.8117 58.9488 65.8947 58.5806C65.9778 58.2124 66.3442 57.9777 66.7124 58.0608C67.0824 58.1438 67.3153 58.5102 67.2322 58.8784Z" fill="#E2BE74"/>
<path d="M65.9681 50.1152C66.1107 49.534 66.1793 49.1206 65.8183 48.3174C65.6288 48.9004 65.7082 49.5773 65.9681 50.1152Z" fill="#E2BE74"/>
<path d="M65.2286 50.1982C65.3188 49.6044 65.3549 49.1856 64.9253 48.4203C64.7882 49.0214 64.9254 49.6874 65.2286 50.1982Z" fill="#E2BE74"/>
<path d="M64.4971 50.3426C64.535 49.7397 64.5332 49.3192 64.0422 48.5972C63.9574 49.2109 64.1523 49.8625 64.4971 50.3426Z" fill="#E2BE74"/>
<path d="M63.783 50.5483C63.7685 49.9419 63.7306 49.5231 63.1783 48.8499C63.1476 49.4708 63.3985 50.1043 63.783 50.5483Z" fill="#E2BE74"/>
<path d="M63.0878 50.8137C63.0535 50.5087 63.0192 50.2614 62.9163 50.0051C62.8134 49.7488 62.642 49.4798 62.3369 49.1748C62.3604 49.7975 62.6654 50.4076 63.086 50.8137H63.0878Z" fill="#E2BE74"/>
<path d="M62.4164 51.1386C62.3045 50.5574 62.1944 50.1513 61.5283 49.5701C61.6077 50.191 61.9633 50.7722 62.4164 51.1386Z" fill="#E2BE74"/>
<path d="M61.7804 51.5285C61.618 50.9581 61.4754 50.5646 60.7588 50.0411C60.8869 50.6458 61.2895 51.1927 61.7804 51.5285Z" fill="#E2BE74"/>
<path d="M61.1795 51.9689C60.9665 51.4111 60.7914 51.0321 60.0352 50.5736C60.2084 51.1584 60.6597 51.671 61.1795 51.9689Z" fill="#E2BE74"/>
<path d="M60.6183 52.4599C60.3584 51.922 60.149 51.5574 59.3584 51.1675C59.584 51.7379 60.075 52.209 60.6183 52.4599Z" fill="#E2BE74"/>
<path d="M60.1009 52.9942C59.794 52.478 59.5558 52.1332 58.7363 51.8156C59.0107 52.3661 59.5413 52.7921 60.1009 52.9942Z" fill="#E2BE74"/>
<path d="M59.6292 53.5718C59.2772 53.0826 59.0101 52.7595 58.1689 52.514C58.4902 53.0393 59.057 53.4201 59.6292 53.5718Z" fill="#E2BE74"/>
<path d="M59.209 54.1873C58.8155 53.7288 58.5195 53.431 57.6621 53.2595C58.0303 53.7577 58.626 54.088 59.209 54.1873Z" fill="#E2BE74"/>
<path d="M58.8426 54.8352C58.4094 54.4129 58.0881 54.1385 57.2217 54.0428C57.6332 54.5085 58.2559 54.7847 58.8426 54.8352Z" fill="#E2BE74"/>
<path d="M58.5319 55.5121C58.0626 55.1277 57.7196 54.884 56.8496 54.8641C57.3009 55.2919 57.9453 55.5157 58.5319 55.5121Z" fill="#E2BE74"/>
<path d="M58.2788 56.2125C57.7897 55.875 57.4269 55.6602 56.5479 55.7125C57.037 56.1006 57.6994 56.2667 58.2788 56.2125Z" fill="#E2BE74"/>
<path d="M58.0949 56.9344C57.5787 56.6402 57.2033 56.4597 56.3242 56.5861C56.8386 56.929 57.5083 57.0373 58.0949 56.9344Z" fill="#E2BE74"/>
<path d="M57.9758 57.669C57.4343 57.4199 57.0426 57.2719 56.1816 57.4741C56.7159 57.7701 57.3946 57.8207 57.9758 57.669Z" fill="#E2BE74"/>
<path d="M57.9184 58.4128C57.3535 58.2106 56.9509 58.0969 56.1152 58.3713C56.6766 58.6204 57.3571 58.6131 57.9184 58.4128Z" fill="#E2BE74"/>
<path d="M57.9216 59.1582C57.3386 59.0047 56.9271 58.9253 56.1221 59.2701C56.7051 59.4704 57.3838 59.4054 57.9216 59.1582Z" fill="#E2BE74"/>
<path d="M57.9865 59.9001C57.389 59.7972 56.9702 59.7539 56.2031 60.1655C56.8042 60.3153 57.4756 60.1925 57.9865 59.9001Z" fill="#E2BE74"/>
<path d="M58.1128 60.6348C57.5082 60.5842 57.0876 60.577 56.3584 61.0517C56.9739 61.1492 57.6309 60.9687 58.1128 60.6348Z" fill="#E2BE74"/>
<path d="M58.301 61.3549C57.7089 61.3531 57.2884 61.382 56.5898 61.9235C57.2144 61.9668 57.8533 61.7286 58.301 61.3549Z" fill="#E2BE74"/>
<path d="M58.5593 62.0553C57.9673 62.104 57.5539 62.169 56.9023 62.7701C57.5215 62.7611 58.1334 62.4704 58.5593 62.0553Z" fill="#E2BE74"/>
<path d="M58.8765 62.7285C58.2898 62.8296 57.8819 62.9289 57.2881 63.5841C57.8964 63.5263 58.4848 63.1834 58.8765 62.7285Z" fill="#E2BE74"/>
<path d="M59.2482 63.3729C58.6706 63.5245 58.2735 63.6599 57.7393 64.3621C58.3421 64.2501 58.8981 63.8585 59.2482 63.3729Z" fill="#E2BE74"/>
<path d="M59.6746 63.9847C59.1096 64.1869 58.7252 64.3566 58.2559 65.0984C58.8479 64.9342 59.3695 64.4956 59.6746 63.9847Z" fill="#E2BE74"/>
<path d="M60.1507 64.557C59.6037 64.8079 59.2355 65.0101 58.833 65.788C59.4106 65.5732 59.8925 65.0913 60.1507 64.557Z" fill="#E2BE74"/>
<path d="M60.6744 65.0876C60.1491 65.3873 59.7989 65.6183 59.4668 66.427C60.0263 66.1616 60.465 65.64 60.6744 65.0876Z" fill="#E2BE74"/>
<path d="M61.2398 65.5731C60.7416 65.9179 60.4113 66.1796 60.1514 67.0099C60.6875 66.6958 61.0791 66.1381 61.2398 65.5731Z" fill="#E2BE74"/>
<path d="M61.8439 66.0082C61.3764 66.3944 61.0696 66.6832 60.8818 67.5334C61.389 67.1724 61.732 66.584 61.8439 66.0082Z" fill="#E2BE74"/>
<path d="M62.4849 66.3909C62.0571 66.806 61.7773 67.1201 61.6582 67.9937C62.1347 67.5894 62.4253 66.9721 62.4849 66.3909Z" fill="#E2BE74"/>
<path d="M63.1566 66.7139C62.7685 67.1615 62.5176 67.4972 62.4707 68.3835C62.9093 67.9413 63.144 67.3041 63.1566 66.7139Z" fill="#E2BE74"/>
<path d="M63.8545 66.972C63.5061 67.454 63.2841 67.8096 63.3166 68.694C63.7101 68.2283 63.8906 67.5713 63.8545 66.972Z" fill="#E2BE74"/>
<path d="M64.5711 67.1724C64.2643 67.685 64.0748 68.0586 64.1831 68.934C64.535 68.4341 64.6596 67.7626 64.5711 67.1724Z" fill="#E2BE74"/>
<path d="M65.3029 67.3096C65.0412 67.8511 64.8841 68.2391 65.0683 69.0983C65.3769 68.5658 65.4419 67.8872 65.3029 67.3096Z" fill="#E2BE74"/>
<path d="M66.0442 67.3854C65.8294 67.9485 65.7066 68.351 65.9647 69.1868C66.2265 68.6272 66.2337 67.9449 66.0442 67.3854Z" fill="#E2BE74"/>
<path d="M66.7901 67.3998C66.6241 67.9828 66.5356 68.3961 66.8641 69.2012C67.0771 68.6181 67.0266 67.9377 66.7901 67.3998Z" fill="#E2BE74"/>
<path d="M67.5356 67.3547C67.42 67.9432 67.3659 68.3601 67.7612 69.1435C67.9236 68.5406 67.8153 67.8674 67.5356 67.3547Z" fill="#E2BE74"/>
<path d="M68.2722 67.241C68.2054 67.8294 68.1892 68.2481 68.653 69.0062C68.7631 68.3944 68.5971 67.7355 68.2722 67.241Z" fill="#E2BE74"/>
<path d="M68.9932 67.0605C68.9788 67.6562 68.9968 68.0731 69.5239 68.7843C69.5853 68.1778 69.3614 67.5335 68.9932 67.0605Z" fill="#E2BE74"/>
<path d="M69.6973 66.8186C69.7352 67.4161 69.7911 67.8312 70.3759 68.49C70.3832 67.8781 70.1052 67.2554 69.6973 66.8186Z" fill="#E2BE74"/>
<path d="M70.3779 66.519C70.4682 67.1129 70.5602 67.5226 71.1974 68.1255C71.1505 67.5118 70.8202 66.9161 70.3779 66.519Z" fill="#E2BE74"/>
<path d="M71.0312 66.1616C71.1738 66.7464 71.3002 67.1472 71.9861 67.6905C71.885 67.0822 71.5042 66.5172 71.0312 66.1616Z" fill="#E2BE74"/>
<path d="M71.6523 65.7501C71.8455 66.3223 72.0061 66.7122 72.7353 67.1923C72.5819 66.5931 72.1541 66.0624 71.6523 65.7501Z" fill="#E2BE74"/>
<path d="M72.2373 65.288C72.481 65.8439 72.6741 66.2175 73.4394 66.6309C73.2337 66.0461 72.7608 65.5533 72.2373 65.288Z" fill="#E2BE74"/>
<path d="M72.7803 64.7772C72.9265 65.0462 73.0528 65.2646 73.2442 65.4631C73.4373 65.6617 73.6954 65.844 74.0925 66.0136C73.8362 65.4469 73.3236 64.9956 72.7803 64.7772Z" fill="#E2BE74"/>
<path d="M73.2783 64.223C73.6032 64.7212 73.8577 65.0569 74.6916 65.3421C74.3848 64.797 73.8361 64.3927 73.2783 64.223Z" fill="#E2BE74"/>
<path d="M73.7246 63.6256C74.0892 64.0931 74.369 64.4036 75.23 64.6202C74.8798 64.1057 74.3022 63.752 73.7246 63.6256Z" fill="#E2BE74"/>
<path d="M74.1143 62.9902C74.5204 63.4252 74.8254 63.7122 75.699 63.8512C75.3164 63.3747 74.7081 63.0697 74.1143 62.9902Z" fill="#E2BE74"/>
<path d="M74.4502 62.3242C74.8942 62.7249 75.2245 62.983 76.1036 63.0462C75.6812 62.604 75.0476 62.3531 74.4502 62.3242Z" fill="#E2BE74"/>
<path d="M74.7266 61.6329C75.2049 61.9939 75.5569 62.2231 76.4359 62.2087C75.9738 61.8026 75.3222 61.6076 74.7266 61.6329Z" fill="#E2BE74"/>
<path d="M74.9424 60.9216C75.4532 61.2411 75.8232 61.4379 76.695 61.3476C76.1969 60.983 75.5308 60.8458 74.9424 60.9216Z" fill="#E2BE74"/>
<path d="M75.0977 60.1942C75.6374 60.4686 76.0236 60.6328 76.881 60.4668C76.3503 60.1455 75.6734 60.0661 75.0977 60.1942Z" fill="#E2BE74"/>
<path d="M75.1934 59.4561C75.7565 59.6835 76.1572 59.8135 76.9929 59.5734C76.4352 59.299 75.7529 59.2774 75.1934 59.4561Z" fill="#E2BE74"/>
<path d="M75.2285 58.7106C75.7953 58.8893 76.2032 58.985 77.0299 58.6763C76.4469 58.4507 75.7664 58.4868 75.2285 58.7106Z" fill="#E2BE74"/>
<path d="M75.1885 57.9651C75.7679 58.095 76.1812 58.1564 76.9827 57.7774C76.6939 57.6889 76.3726 57.6691 76.0639 57.7034C75.7571 57.7395 75.4592 57.8297 75.1885 57.9651Z" fill="#E2BE74"/>
<path d="M75.0869 57.2268C75.679 57.3063 76.0977 57.3315 76.8594 56.8857C76.2602 56.7594 75.5959 56.9128 75.0869 57.2268Z" fill="#E2BE74"/>
<path d="M74.9229 56.4995C75.5221 56.5266 75.9409 56.5157 76.6574 56.0067C76.0474 55.9345 75.3994 56.1439 74.9229 56.4995Z" fill="#E2BE74"/>
<path d="M74.7012 55.7901C75.3022 55.763 75.721 55.7179 76.387 55.1475C75.7697 55.1277 75.1416 55.393 74.7012 55.7901Z" fill="#E2BE74"/>
<path d="M74.418 55.1024C75.0172 55.023 75.4306 54.94 76.0407 54.3173C75.4233 54.3534 74.8205 54.671 74.418 55.1024Z" fill="#E2BE74"/>
<path d="M74.0762 54.4399C74.6682 54.3082 75.0725 54.189 75.6249 53.5176C75.0093 53.6078 74.4372 53.976 74.0762 54.4399Z" fill="#E2BE74"/>
<path d="M73.6797 53.81C73.9721 53.718 74.2086 53.6368 74.4396 53.4869C74.6706 53.3353 74.9017 53.1169 75.1435 52.7595C74.5371 52.9039 73.9974 53.3191 73.6797 53.8118V53.81Z" fill="#E2BE74"/>
<path d="M73.2314 53.2144C73.782 52.9924 74.1592 52.8065 74.5996 52.0411C74.0058 52.2379 73.504 52.6982 73.2314 53.2144Z" fill="#E2BE74"/>
<path d="M72.7285 52.6621C73.2574 52.3931 73.6166 52.1783 73.9938 51.3751C73.4234 51.6188 72.965 52.1188 72.7285 52.6621Z" fill="#E2BE74"/>
<path d="M72.1797 52.1567C72.6851 51.8426 73.0244 51.5971 73.3295 50.7668C72.788 51.0502 72.3728 51.5899 72.1797 52.1567Z" fill="#E2BE74"/>
<path d="M71.5908 51.7C72.0691 51.3408 72.385 51.0683 72.6179 50.2163C72.1016 50.5448 71.7334 51.1188 71.5908 51.7Z" fill="#E2BE74"/>
<path d="M70.9668 51.2956C71.4144 50.8949 71.7068 50.5953 71.8621 49.7289C71.3747 50.1025 71.057 50.7054 70.9668 51.2956Z" fill="#E2BE74"/>
<path d="M70.3096 50.9437C70.7211 50.505 70.9864 50.1801 71.0659 49.3065C70.611 49.7235 70.3475 50.3516 70.3096 50.9437Z" fill="#E2BE74"/>
<path d="M69.6257 50.6513C69.9993 50.1766 70.2358 49.8282 70.2376 48.9546C69.8206 49.4113 69.6113 50.061 69.6257 50.6513Z" fill="#E2BE74"/>
<path d="M68.9199 50.4166C69.2502 49.9094 69.4578 49.5412 69.3838 48.6748C69.0065 49.1694 68.8549 49.8336 68.9199 50.4166Z" fill="#E2BE74"/>
<path d="M68.1954 50.2416C68.3398 49.9708 68.4518 49.747 68.5131 49.4781C68.5727 49.2091 68.5853 48.8896 68.5059 48.4655C68.1738 48.9925 68.0781 49.6676 68.1954 50.2416Z" fill="#E2BE74"/>
<path d="M67.4597 50.1297C67.6962 49.5864 67.8369 49.1929 67.6167 48.3319C67.3297 48.8897 67.2954 49.5665 67.4597 50.1297Z" fill="#E2BE74"/>
<path d="M66.7144 50.0917C66.9057 49.5286 67.0104 49.1225 66.718 48.2867C66.4797 48.8481 66.5014 49.5286 66.7144 50.0917Z" fill="#E2BE74"/>
<path d="M63.366 17.2643C63.2379 16.8835 63.0448 16.5026 62.7253 16.2174C62.413 15.9394 61.9816 15.7806 61.5376 15.7644C61.0936 15.7463 60.6549 15.8763 60.2344 16.0893C61.4148 16.0622 62.5195 16.5748 63.366 17.2643Z" fill="#E2BE74"/>
<path d="M62.8371 19.4682C62.6367 19.1253 62.3786 18.7895 62.0194 18.5639C61.6638 18.3455 61.2126 18.2607 60.7722 18.3221C60.3263 18.3816 59.9148 18.5874 59.543 18.8816C60.6982 18.6343 61.875 18.9556 62.8371 19.47V19.4682Z" fill="#E2BE74"/>
<path d="M62.7649 21.663C62.4941 21.3832 62.171 21.1161 61.7739 20.9717C61.3804 20.8327 60.9202 20.8417 60.5032 20.9951C60.079 21.1468 59.718 21.4392 59.4238 21.8182C60.496 21.311 61.7162 21.3886 62.7667 21.663H62.7649Z" fill="#E2BE74"/>
<path d="M63.2123 23.7369C62.8856 23.5438 62.4994 23.3777 62.0806 23.338C61.6655 23.3055 61.2232 23.4246 60.8568 23.6792C60.4814 23.9355 60.216 24.3127 60.0283 24.7621C60.929 23.9842 62.1329 23.7568 63.2123 23.7369Z" fill="#E2BE74"/>
<path d="M64.2012 25.5853C63.833 25.4914 63.4124 25.4391 63.0027 25.5185C62.5948 25.6015 62.2031 25.8398 61.9215 26.1863C61.6309 26.5383 61.4847 26.9715 61.4287 27.457C62.0767 26.4589 63.1687 25.9047 64.2012 25.5853Z" fill="#E2BE74"/>
<path d="M65.6974 27.1755C65.3094 27.1484 64.8996 27.1755 64.508 27.365C64.1289 27.551 63.813 27.8831 63.6325 28.2856C63.4502 28.6863 63.3943 29.152 63.434 29.6339C63.8563 28.5166 64.7588 27.699 65.6974 27.1755Z" fill="#E2BE74"/>
<path d="M67.5692 28.5022C67.1666 28.5437 66.7587 28.6412 66.4049 28.9011C66.0638 29.1538 65.8165 29.54 65.71 29.9642C65.6035 30.3884 65.6288 30.8505 65.7461 31.3053C65.9772 30.1465 66.71 29.1754 67.5692 28.5004V28.5022Z" fill="#E2BE74"/>
<path d="M69.6851 29.5942C69.2753 29.6827 68.8728 29.8307 68.5551 30.1339C68.2519 30.4227 68.0606 30.8415 68.01 31.2801C67.9595 31.7151 68.0407 32.1645 68.2014 32.5923C68.3043 31.4263 68.8927 30.3631 69.6851 29.5924V29.5942Z" fill="#E2BE74"/>
<path d="M71.9644 30.5273C71.5456 30.6428 71.1539 30.8143 70.8651 31.1338C70.5836 31.4461 70.4301 31.8793 70.4121 32.3215C70.394 32.7655 70.5041 33.2113 70.6846 33.6193C70.7189 32.4551 71.2063 31.3432 71.9644 30.5255V30.5273Z" fill="#E2BE74"/>
<path d="M74.3521 31.3866C73.9298 31.5039 73.5399 31.6862 73.2583 32.0183C72.9857 32.3414 72.8522 32.7818 72.8468 33.2204C72.8431 33.6609 72.9623 34.1013 73.1464 34.5074C73.1608 33.3432 73.6049 32.2151 74.3521 31.3848V31.3866Z" fill="#E2BE74"/>
<path d="M76.8107 32.2673C76.3775 32.3756 75.9768 32.5507 75.6898 32.881C75.4136 33.2005 75.28 33.6409 75.271 34.0814C75.262 34.5218 75.3721 34.9604 75.54 35.3665C75.5851 34.2095 76.0345 33.0814 76.8107 32.2691V32.2673Z" fill="#E2BE74"/>
<path d="M79.297 33.2836C78.8475 33.3576 78.4306 33.5038 78.1292 33.816C77.8349 34.1229 77.6833 34.5543 77.6508 34.9947C77.6183 35.4351 77.6978 35.881 77.8295 36.2925C77.9613 35.1445 78.4559 34.0381 79.297 33.2836Z" fill="#E2BE74"/>
<path d="M81.7514 34.5525C81.2875 34.5597 80.8543 34.6572 80.5168 34.9496C80.1919 35.2276 79.9988 35.6445 79.9248 36.0741C79.8544 36.4983 79.885 36.9495 79.9536 37.3737C80.2262 36.2492 80.8164 35.1897 81.7514 34.5525Z" fill="#E2BE74"/>
<path d="M84.0759 36.1933C83.621 36.1012 83.1445 36.168 82.7745 36.39C82.4098 36.6139 82.1608 37.0001 82.0218 37.4135C81.8774 37.8322 81.8575 38.2546 81.8467 38.6842C82.3051 37.6283 83.047 36.6554 84.0777 36.1933H84.0759Z" fill="#E2BE74"/>
<path d="M86.1037 38.278C85.6506 38.1156 85.2066 38.0452 84.786 38.204C84.3835 38.352 84.0676 38.6859 83.851 39.0632C83.6398 39.4368 83.5027 39.8664 83.416 40.2743C84.0748 39.3357 84.9846 38.5325 86.1037 38.278Z" fill="#E2BE74"/>
<path d="M87.6627 40.7202C87.2458 40.4801 86.8288 40.3231 86.3884 40.3935C85.9642 40.4603 85.587 40.722 85.3 41.0487C85.0148 41.3754 84.7928 41.7725 84.6357 42.1552C85.4606 41.361 86.5129 40.7581 87.6609 40.7184L87.6627 40.7202Z" fill="#E2BE74"/>
<path d="M88.733 43.379C88.3702 43.0721 87.975 42.8501 87.5399 42.8375C87.1122 42.8266 86.6952 43.0162 86.3505 43.2869C86.0039 43.5595 85.7241 43.9096 85.5039 44.2634C86.4497 43.6226 87.5977 43.2219 88.733 43.379Z" fill="#E2BE74"/>
<path d="M89.3364 46.155C89.0367 45.7958 88.6721 45.516 88.248 45.433C87.8328 45.3518 87.387 45.4691 87.0007 45.6803C86.6144 45.8933 86.2859 46.1929 86.0098 46.5106C87.0458 46.0268 88.2498 45.8211 89.3364 46.155Z" fill="#E2BE74"/>
<path d="M89.5002 48.978C89.2656 48.5791 88.9407 48.2488 88.5346 48.1008C88.1357 47.9564 87.6772 48.0033 87.2656 48.1531C86.8505 48.3048 86.4877 48.552 86.1592 48.8228C87.262 48.5015 88.4822 48.4835 89.5002 48.978Z" fill="#E2BE74"/>
<path d="M89.2421 51.7811C89.0634 51.3552 88.7999 50.9833 88.4154 50.7776C88.0418 50.5754 87.5815 50.5537 87.1519 50.6404C86.7187 50.7288 86.3271 50.9202 85.957 51.144C87.1032 50.9833 88.3035 51.1494 89.2421 51.7811Z" fill="#E2BE74"/>
<path d="M88.6141 54.4959C88.4878 54.0537 88.2802 53.6548 87.921 53.3985C87.5763 53.1494 87.1232 53.0663 86.6864 53.097C86.2514 53.1295 85.8272 53.2685 85.4355 53.4472C86.5907 53.4291 87.7586 53.754 88.6141 54.4959Z" fill="#E2BE74"/>
<path d="M87.6772 57.0933C87.5941 56.6402 87.4407 56.2269 87.1122 55.929C86.7963 55.642 86.3577 55.5049 85.9209 55.4868C85.4859 55.4688 85.0419 55.5572 84.6357 55.6944C85.7855 55.8027 86.9064 56.263 87.6772 57.0933Z" fill="#E2BE74"/>
<path d="M86.4837 59.5572C86.4404 59.0987 86.3321 58.6745 86.0361 58.3478C85.7509 58.0301 85.3285 57.8496 84.8971 57.7846C84.4657 57.7233 84.0127 57.7666 83.5957 57.8677C84.7292 58.0843 85.796 58.6583 86.4855 59.5572H86.4837Z" fill="#E2BE74"/>
<path d="M85.0813 61.8855C85.0776 61.4289 85 60.9939 84.7383 60.6437C84.482 60.3026 84.0795 60.0842 83.6535 59.9813C83.2239 59.8784 82.7727 59.8856 82.3467 59.9524C83.4568 60.2647 84.4694 60.9325 85.0813 61.8838V61.8855Z" fill="#E2BE74"/>
</svg>
