<svg width="91" height="95" viewBox="0 0 91 95" fill="none" xmlns="http://www.w3.org/2000/svg">
<path d="M15.2759 10.9956C15.8652 11.7806 16.3708 12.6817 16.7276 13.693C17.0864 14.7022 17.2923 15.8195 17.3168 16.9694C17.3718 19.2814 16.7235 21.6464 15.7612 23.777L15.5532 24.2357C14.6419 26.2521 12.2687 27.1471 10.2523 26.2358C8.23592 25.3244 7.34087 22.9512 8.25222 20.9348C8.63348 20.0908 9.27367 19.4424 10.0362 19.0408C11.443 18.2986 12.7356 17.369 13.7163 16.0539C14.7031 14.7532 15.2902 12.9753 15.2759 10.9956Z" fill="#231F20"/>
<path d="M89.2194 35.4432C89.1521 35.5492 89.0236 35.5859 88.9033 35.5635C87.2845 35.1639 85.7411 34.171 84.5811 32.86C83.4067 31.5572 82.5565 30.0281 81.8409 28.5459L79.8306 24.2542C79.1537 22.8983 78.4381 21.6424 77.6328 20.5496C76.0282 18.4557 73.8079 16.7472 71.3981 15.7992C70.1931 15.3241 68.9433 15.0244 67.7098 14.9266C67.402 14.8899 67.1084 14.8899 66.7903 14.8817L65.8117 14.8898C65.1715 14.9347 64.5395 14.9734 63.936 15.0999C61.5118 15.528 59.5015 16.6657 57.8297 18.3599C56.1497 20.046 54.8714 22.3499 53.8765 24.8658C51.911 29.9323 51.1139 35.851 51.069 41.58C51.069 41.9042 51.0384 42.2202 50.9711 42.5281C54.0273 46.4202 55.8133 51.1033 55.8133 56.1474C55.8133 69.6321 43.0523 78.3726 27.3453 77.7487C15.985 77.3042 0.56543 69.6321 0.56543 56.1474C0.56543 50.8465 2.65113 47.3682 3.96821 45.7127C3.98248 45.6821 4.02935 45.6373 4.09663 45.5537C4.15779 45.4864 4.23121 45.3947 4.32296 45.2825C4.37597 45.2214 4.42083 45.1622 4.48199 45.095C7.16304 41.7982 19.1778 25.7445 15.2327 7.14233C15.247 7.20962 16.6456 7.50118 16.7516 7.53584C18.0809 7.96399 19.3592 8.55523 20.5642 9.25659C24.7784 11.7093 28.0222 15.5362 30.1996 19.8646C31.2007 21.8545 31.9877 23.9504 32.5993 26.0911C33.2334 28.3094 33.3231 31.231 35.1071 32.9048C36.1224 33.859 37.6617 34.1893 39.0013 33.806C40.0268 33.5124 40.9218 32.8192 41.5069 31.9324C42.1023 31.0292 42.1328 29.6794 42.4203 28.6335C43.1482 26.0014 44.1044 23.4407 45.3195 20.9941C46.9302 17.7483 49.1056 14.5718 52.1781 12.0274C53.6991 10.7633 55.4525 9.69291 57.3363 8.96301C59.2182 8.2168 61.206 7.80292 63.1408 7.68263C64.1195 7.60719 65.0675 7.65206 66.0176 7.69691L67.4101 7.84778C67.8852 7.91506 68.3745 7.9905 68.8414 8.10468C70.7395 8.5104 72.5296 9.21989 74.179 10.1231C75.8121 11.0487 77.3106 12.1701 78.6216 13.4729C79.276 14.1212 79.8938 14.8063 80.4443 15.5443C80.9948 16.2742 81.5126 17.0877 81.9347 17.8849C82.8012 19.4894 83.3802 21.145 83.8165 22.7495C84.2752 24.3459 84.5994 25.9341 84.9378 27.4408C85.2844 28.9312 85.6678 30.3624 86.2998 31.6653C86.9318 32.9681 87.8656 34.1281 89.146 35.0313C89.2806 35.1211 89.3193 35.3107 89.2214 35.4452L89.2194 35.4432Z" fill="#231F20"/>
<path d="M45.5477 50.3348C45.7618 49.2705 45.9534 48.247 46.4591 47.195C46.5732 46.9361 46.6792 46.6812 46.8118 46.4304L47.2807 45.7005L47.772 44.9951C47.9433 44.7688 48.1554 44.5731 48.349 44.3671C49.9332 42.7075 51.9211 41.8288 53.7193 41.4312C55.542 41.0316 57.2587 41.0724 58.8938 41.2783C60.5289 41.5046 62.0886 41.9083 63.5708 42.5546C66.6332 43.8513 69.0023 46.1022 70.5742 48.6915C71.3551 49.9882 71.9463 51.3929 72.297 52.8099C72.6477 54.1861 72.8557 55.4991 73.7099 56.494L73.716 56.5002C73.818 56.6184 73.8037 56.7978 73.6854 56.8977C73.5855 56.9833 73.4408 56.9874 73.3368 56.914C72.085 56.0231 71.4693 54.5429 70.8372 53.3685C70.2195 52.1901 69.4366 51.1544 68.5395 50.2491C66.7453 48.4489 64.4618 47.2398 62.213 46.9095C59.9051 46.5405 57.3729 46.8198 55.6867 47.6884C54.8569 48.1308 54.3493 48.6935 54.174 49.1828C53.9925 49.6721 54.0088 50.1614 54.0903 50.8506C54.3697 53.2339 52.6632 55.3931 50.2778 55.6724C47.8923 55.9517 45.7353 54.2452 45.456 51.8598C45.403 51.399 45.4233 50.9444 45.5069 50.5121L45.5436 50.3307L45.5477 50.3348Z" fill="#231F20"/>
<path d="M42.7468 43.6677C46.0456 38.9825 51.004 36.0895 56.2234 35.2474C58.8392 34.8458 61.5549 34.9844 64.0178 35.6817C66.4949 36.3463 68.7539 37.5268 70.7112 39.0294C72.6481 40.5565 74.2934 42.4465 75.4392 44.5689C76.5728 46.6689 77.2232 48.773 77.9123 50.7424C78.5994 52.7201 79.311 54.5754 80.4874 56.1861C81.6291 57.7947 83.2132 59.1566 85.2154 59.6194H85.2195C85.3724 59.6561 85.4662 59.807 85.4315 59.9579C85.4009 60.0925 85.2786 60.1801 85.1481 60.176C82.9115 60.1026 80.7789 58.9079 79.1702 57.3502C77.5086 55.8028 76.2915 53.8292 75.2252 51.9759C74.1527 50.1084 73.1598 48.2938 71.9671 46.8524C70.8009 45.4293 69.3493 44.3222 67.7712 43.5046C66.1789 42.7177 64.4704 42.2243 62.7884 42.1182C61.1023 41.9857 59.4997 42.2528 57.9992 42.7951C54.996 43.9083 52.529 46.2897 51.4668 48.8688C50.3883 51.4846 47.3932 52.7323 44.7774 51.6538C42.1616 50.5753 40.9139 47.5802 41.9924 44.9644C42.1372 44.6137 42.3166 44.2875 42.5245 43.9878L42.7508 43.6677H42.7468Z" fill="#231F20"/>
<path d="M39.7904 40.8991C40.5489 38.95 41.4541 37.5412 42.4348 36.2282C43.4175 34.9315 44.4756 33.7714 45.6113 32.699C47.8907 30.5725 50.5106 28.811 53.477 27.5449C54.9593 26.921 56.5291 26.4235 58.1683 26.1401C59.8075 25.8608 61.5059 25.7996 63.1736 25.9668C66.5356 26.2686 69.651 27.6468 72.1282 29.4328C72.7643 29.8671 73.329 30.3686 73.908 30.8437L74.7134 31.6082L75.113 31.9915L75.5289 32.436C76.6278 33.6307 77.4698 34.9091 78.1569 36.1711C79.5188 38.7094 80.3772 41.1948 81.2743 43.5537C82.1571 45.9126 83.0685 48.1655 84.4589 50.0453C85.146 50.9872 85.9697 51.817 86.9585 52.4674C87.9453 53.1157 89.0972 53.5806 90.3327 53.8456C90.4856 53.8783 90.5835 54.0291 90.5509 54.182C90.5244 54.3084 90.4163 54.3961 90.294 54.4063C88.9769 54.5042 87.5987 54.3553 86.2796 53.8986C84.9605 53.4501 83.7005 52.7243 82.624 51.8149C80.473 49.9739 78.9052 47.6741 77.4658 45.4946C76.0386 43.3029 74.7378 41.1315 73.2882 39.3884C72.5726 38.5137 71.8182 37.7695 71.0496 37.217L70.7621 37.009L70.4155 36.7889L69.7305 36.3464C69.2616 36.0936 68.813 35.8041 68.3421 35.6002C64.5682 33.7857 60.986 34.2179 57.7218 36.2261C56.0928 37.2129 54.5759 38.5892 53.3037 40.1407C52.6635 40.9073 52.0825 41.7228 51.6135 42.5302C51.1507 43.3253 50.7939 44.1653 50.6859 44.6261C49.9539 47.7333 46.8407 49.6599 43.7335 48.928C40.6264 48.1961 38.6997 45.0828 39.4316 41.9756C39.4928 41.7208 39.5682 41.472 39.66 41.2335L39.7904 40.8991Z" fill="#231F20"/>
<path d="M90.2385 47.972C89.4535 47.8659 88.6543 47.6723 87.8959 47.3358C87.1517 46.9872 86.43 46.5509 85.7796 46.031C84.487 44.983 83.4084 43.7088 82.495 42.3856C81.5572 41.0685 80.7743 39.6944 80.0199 38.3426L77.8465 34.3547C77.1309 33.0662 76.3929 31.8347 75.6324 30.7276C74.8678 29.6185 74.038 28.6562 73.1776 27.963C71.4039 26.442 69.2529 25.5715 67.0449 25.4451C64.8531 25.3085 62.5207 25.8284 60.5451 26.9314C58.5695 28.0221 56.8304 29.6104 55.3319 31.5799C52.3124 35.5372 50.2674 40.7179 48.5874 46.0759C47.6618 49.0281 44.52 50.6714 41.5678 49.7457C38.6156 48.8201 36.9743 45.6783 37.8979 42.7281C37.9081 42.6935 37.9285 42.6323 37.9407 42.5976C38.9826 39.5374 40.2446 36.4914 41.843 33.529C43.4292 30.5666 45.3722 27.6755 47.829 25.0577C50.298 22.4704 53.3583 20.1339 56.9445 18.7842C58.7224 18.091 60.5818 17.671 62.4657 17.4549C64.3536 17.2409 66.2946 17.3041 68.1846 17.6812C71.9788 18.3928 75.4999 20.4214 77.9791 23.2105C79.2513 24.6723 80.1504 26.23 80.8721 27.753C81.6122 29.276 82.1383 30.801 82.6276 32.2894C83.6123 35.262 84.3096 38.1652 85.3311 40.8606C86.3607 43.5151 87.6818 46.1044 90.3955 47.4337L90.4057 47.4378C90.5463 47.5071 90.6054 47.6763 90.5361 47.817C90.4811 47.9291 90.3608 47.9883 90.2425 47.974L90.2385 47.972Z" fill="#231F20"/>
<path d="M14.9864 9.34644L8.71094 12.1885L17.3209 14.8798L18.8643 10.9958L14.9864 9.34644Z" fill="#231F20"/>
<path d="M13.5484 2.54489C13.9867 1.49286 14.8491 0.463258 15.9888 0.428599C17.1245 0.393939 18.0745 1.40722 18.362 2.50614C18.6495 3.60507 18.4354 4.76516 18.2173 5.8804C18.4028 5.2239 18.5986 4.54904 19.0165 4.00875C19.4345 3.46846 20.1317 3.0872 20.7964 3.24215C21.5406 3.41749 22.0054 4.21059 22.0523 4.97311C22.0992 5.73563 21.8219 6.47572 21.5487 7.1893C21.9361 6.0965 23.5162 5.66223 24.4092 6.40028C25.3022 7.14037 25.1697 8.77347 24.1686 9.35861C24.7619 8.83667 25.8099 9.16901 26.1483 9.8826C26.4867 10.5982 26.2156 11.4933 25.663 12.058C25.1105 12.6228 24.3317 12.9123 23.559 13.0815C19.2346 14.0214 14.3415 11.3261 13.2385 6.95894C12.8715 5.50526 12.9673 3.92925 13.5463 2.54285L13.5484 2.54489Z" fill="#231F20"/>
<path d="M10.5929 71.6793C16.326 78.3258 35.8334 77.3288 38.6633 86.5993C42.2149 79.541 43.9011 76.5602 48.47 71.457C45.2589 72.8108 37.7438 74.6702 34.2778 75.0596C27.6781 75.7997 17.1966 72.3725 10.5908 71.6793H10.5929Z" fill="#231F20"/>
<path d="M43.9162 72.276L34.6895 92.9316L35.717 93.3907L44.9438 72.735L43.9162 72.276Z" fill="#231F20"/>
<path d="M27.3088 91.739C28.2344 92.0041 29.16 92.1611 30.0877 92.2814C31.0133 92.4017 31.939 92.4791 32.8666 92.5199C33.7923 92.5586 34.7179 92.5648 35.6455 92.5097C36.5712 92.4628 37.4968 92.3711 38.4245 92.1631C38.9709 92.0408 39.5111 92.3833 39.6335 92.9297C39.7558 93.4761 39.4133 94.0164 38.8669 94.1387C38.718 94.1713 38.5631 94.1693 38.4245 94.1387C37.4988 93.9308 36.5732 93.839 35.6455 93.7921C34.7199 93.7371 33.7943 93.7432 32.8666 93.7819C31.941 93.8227 31.0154 93.8981 30.0877 94.0205C29.1621 94.1407 28.2365 94.2977 27.3088 94.5628C26.528 94.7871 25.7145 94.3365 25.4902 93.5556C25.2659 92.7748 25.7165 91.9613 26.4974 91.737C26.7706 91.6595 27.054 91.6656 27.3088 91.737V91.739Z" fill="#231F20"/>
<path d="M13.0918 50.3653C13.049 50.8689 13.0225 51.3766 13.0225 51.8904C13.0225 61.8846 21.1247 69.9869 31.119 69.9869C35.9612 69.9869 40.3549 68.0806 43.6027 64.9837C40.467 67.1183 36.6789 68.3661 32.6012 68.3661C22.3195 68.3661 13.8951 60.4391 13.0918 50.3633V50.3653Z" fill="#E2BE74"/>
<path d="M17.4858 28.7458C17.1677 28.9375 16.9414 29.2229 16.8191 29.543C16.4398 29.1699 15.8853 28.9946 15.3266 29.123C14.4642 29.3249 13.9259 30.1913 14.1298 31.0538C14.2134 31.4146 14.4153 31.7164 14.6824 31.9345C14.2114 32.1812 13.8709 32.6542 13.822 33.2231C13.7486 34.1079 14.4051 34.8847 15.2879 34.9602C15.6569 34.9907 16.0076 34.8929 16.2951 34.7053C16.3827 35.2293 16.7293 35.7002 17.2553 35.9204C18.0729 36.265 19.0149 35.8817 19.3594 35.0621C19.5042 34.7196 19.5184 34.3567 19.4308 34.0243C19.9568 34.1018 20.5114 33.9183 20.8845 33.4881C21.4635 32.8153 21.3901 31.802 20.7173 31.223C20.4379 30.9804 20.0954 30.854 19.7529 30.8356C19.9894 30.3585 19.9874 29.7754 19.6897 29.2881C19.2289 28.5297 18.2422 28.2851 17.4837 28.7458H17.4858ZM18.5316 30.6052C18.6417 30.7887 18.658 31.0171 18.5745 31.2169C18.5683 31.2291 18.5623 31.2413 18.5561 31.2556L18.4012 31.5676L18.7478 31.5859C18.8986 31.5941 19.0393 31.6511 19.1535 31.749C19.3757 31.9407 19.4471 32.2505 19.3349 32.5217C19.3084 32.5869 19.2697 32.6461 19.2228 32.7011C19.072 32.8765 18.8436 32.9601 18.6112 32.9275L18.2666 32.8765L18.3563 33.2129C18.3951 33.3576 18.3849 33.5085 18.3257 33.6471C18.2564 33.8143 18.1259 33.9428 17.9587 34.0101C17.7915 34.0773 17.608 34.0773 17.4429 34.008C17.2288 33.9183 17.078 33.7267 17.0392 33.4963L16.9822 33.1538L16.6906 33.3434C16.5642 33.4249 16.4174 33.4637 16.2686 33.4494C15.8975 33.4188 15.6202 33.0906 15.6529 32.7195C15.659 32.6502 15.6753 32.5809 15.7038 32.5156C15.765 32.3709 15.8751 32.2506 16.0157 32.1792L16.3236 32.0181L16.0545 31.8C15.9363 31.7042 15.8547 31.5777 15.8221 31.4309C15.7894 31.2903 15.8017 31.1476 15.8567 31.015C15.9403 30.8152 16.1156 30.6684 16.3236 30.6195C16.5499 30.5665 16.7844 30.6317 16.9495 30.7948L17.1983 31.0395L17.3247 30.7153L17.3328 30.6949C17.3879 30.5624 17.4816 30.4544 17.604 30.3789C17.7569 30.2851 17.9404 30.2566 18.1157 30.2994C18.2911 30.3422 18.4379 30.4523 18.5316 30.6052Z" fill="#E2BE74"/>
<path d="M17.6793 31.5697C17.9301 31.6757 18.0484 31.9652 17.9423 32.2159C17.8363 32.4667 17.5468 32.585 17.296 32.479C17.0452 32.3729 16.927 32.0834 17.033 31.8327C17.1391 31.5819 17.4286 31.4636 17.6793 31.5697Z" fill="#E2BE74"/>
<path d="M24.0042 59.6989C27.9086 62.1904 32.7222 63.22 37.3055 62.5431C34.7264 63.3994 32.0025 63.9295 29.295 63.7093C26.5874 63.4891 23.8901 62.4676 21.9593 60.5552C20.1651 58.7774 19.5718 56.5693 18.6299 54.3735C19.5147 56.5286 22.0796 58.4695 24.0042 59.6989Z" fill="#E2BE74"/>
<path d="M24.7236 55.2688C25.1029 56.5166 25.902 57.642 26.9949 58.3576C28.7523 59.5075 31.1744 59.5401 32.9625 58.4392C29.9185 58.9122 26.6992 57.6155 24.7236 55.2688Z" fill="#E2BE74"/>
<path d="M11.4301 51.3521C11.375 51.3521 11.3281 51.3072 11.3281 51.2501C11.3281 51.193 11.373 51.1482 11.4301 51.1482C11.4872 51.1482 11.532 51.193 11.532 51.2501C11.532 51.3072 11.4872 51.3521 11.4301 51.3521Z" fill="#E2BE74"/>
<path d="M11.2838 54.7222C11.0963 54.7222 10.9434 54.5693 10.9434 54.3818C10.9434 54.1942 11.0963 54.0413 11.2838 54.0413C11.4714 54.0413 11.6243 54.1942 11.6243 54.3818C11.6243 54.5693 11.4714 54.7222 11.2838 54.7222Z" fill="#E2BE74"/>
<path d="M11.679 58.0089C11.3936 58.0089 11.1611 57.7764 11.1611 57.491C11.1611 57.2056 11.3936 56.9731 11.679 56.9731C11.9644 56.9731 12.1968 57.2056 12.1968 57.491C12.1968 57.7764 11.9644 58.0089 11.679 58.0089Z" fill="#E2BE74"/>
<path d="M12.5883 61.1301C12.2376 61.1301 11.9521 60.8447 11.9521 60.494C11.9521 60.1433 12.2376 59.8579 12.5883 59.8579C12.939 59.8579 13.2244 60.1433 13.2244 60.494C13.2244 60.8447 12.939 61.1301 12.5883 61.1301Z" fill="#E2BE74"/>
<path d="M13.981 64.013C13.5895 64.013 13.2715 63.695 13.2715 63.3035C13.2715 62.9121 13.5895 62.594 13.981 62.594C14.3724 62.594 14.6905 62.9121 14.6905 63.3035C14.6905 63.695 14.3724 64.013 13.981 64.013Z" fill="#E2BE74"/>
<path d="M15.83 66.578C15.4202 66.578 15.0879 66.2457 15.0879 65.8359C15.0879 65.4261 15.4202 65.0938 15.83 65.0938C16.2398 65.0938 16.5722 65.4261 16.5722 65.8359C16.5722 66.2457 16.2398 66.578 15.83 66.578Z" fill="#E2BE74"/>
<path d="M18.0976 68.7453C18.5075 68.7453 18.8397 68.413 18.8397 68.0031C18.8397 67.5933 18.5075 67.261 18.0976 67.261C17.6878 67.261 17.3555 67.5933 17.3555 68.0031C17.3555 68.413 17.6878 68.7453 18.0976 68.7453Z" fill="#E2BE74"/>
<path d="M20.7115 70.4395C20.32 70.4395 20.002 70.1215 20.002 69.73C20.002 69.3386 20.32 69.0205 20.7115 69.0205C21.1029 69.0205 21.421 69.3386 21.421 69.73C21.421 70.1215 21.1029 70.4395 20.7115 70.4395Z" fill="#E2BE74"/>
<path d="M23.5824 71.6301C23.2317 71.6301 22.9463 71.3447 22.9463 70.994C22.9463 70.6433 23.2317 70.3579 23.5824 70.3579C23.9331 70.3579 24.2185 70.6433 24.2185 70.994C24.2185 71.3447 23.9331 71.6301 23.5824 71.6301Z" fill="#E2BE74"/>
<path d="M26.6243 72.2803C26.3388 72.2803 26.1064 72.0479 26.1064 71.7625C26.1064 71.4771 26.3388 71.2446 26.6243 71.2446C26.9097 71.2446 27.1421 71.4771 27.1421 71.7625C27.1421 72.0479 26.9097 72.2803 26.6243 72.2803Z" fill="#E2BE74"/>
<path d="M29.7496 72.356C29.5621 72.356 29.4092 72.2031 29.4092 72.0155C29.4092 71.828 29.5621 71.675 29.7496 71.675C29.9372 71.675 30.0901 71.828 30.0901 72.0155C30.0901 72.2031 29.9372 72.356 29.7496 72.356Z" fill="#E2BE74"/>
<path d="M32.8754 71.8238C32.8203 71.8238 32.7734 71.7789 32.7734 71.7218C32.7734 71.6647 32.8183 71.6199 32.8754 71.6199C32.9325 71.6199 32.9773 71.6647 32.9773 71.7218C32.9773 71.7789 32.9325 71.8238 32.8754 71.8238Z" fill="#E2BE74"/>
<path d="M45.7764 26.03C46.1923 25.4245 46.6694 25.1553 47.1057 25.086C47.5542 25.0167 48.015 25.1166 48.3942 25.3817C48.7897 25.6549 49.0242 26.0585 49.2974 26.4826C48.2311 25.8383 46.9793 25.7425 45.7764 26.03Z" fill="#E2BE74"/>
<path d="M46.3232 23.6466C46.8431 23.1185 47.2693 22.8902 47.7137 22.882C48.1562 22.8698 48.5822 23.0247 48.9003 23.3306C49.2367 23.6506 49.4508 24.0931 49.618 24.5437C48.7127 23.7689 47.5261 23.5242 46.3232 23.6466Z" fill="#E2BE74"/>
<path d="M47.1729 21.3752C47.4379 21.1366 47.7193 20.9939 47.9517 20.8981C48.1923 20.8043 48.4104 20.7737 48.6225 20.7941C49.0425 20.8288 49.4278 21.0286 49.6969 21.369C49.9783 21.7238 50.0843 22.1723 50.1944 22.6453C49.7989 22.2029 49.3565 21.8971 48.8345 21.6892C48.3187 21.4832 47.7396 21.3833 47.1729 21.3752Z" fill="#E2BE74"/>
<path d="M48.3105 19.2528C48.91 18.8613 49.3605 18.739 49.7703 18.8307C50.172 18.9123 50.5166 19.1467 50.7225 19.5056C50.9203 19.8705 51.0058 20.3496 51.0323 20.8247C50.4268 19.8787 49.4197 19.4016 48.3105 19.2528Z" fill="#E2BE74"/>
<path d="M49.6787 17.2895C50.323 16.9817 50.7837 16.9144 51.1548 17.0326C51.5259 17.1468 51.8256 17.4078 51.9805 17.785C52.1375 18.1744 52.1294 18.6352 52.0804 19.1C51.6441 18.1214 50.7348 17.5566 49.6808 17.2916L49.6787 17.2895Z" fill="#E2BE74"/>
<path d="M51.2852 15.53C51.6114 15.4057 51.8805 15.3302 52.121 15.3139C52.3657 15.3017 52.5676 15.3364 52.7409 15.4138C53.0895 15.5627 53.3423 15.846 53.434 16.2212C53.5197 16.6024 53.4504 17.053 53.3545 17.5199C53.0548 16.5087 52.2576 15.8807 51.2871 15.53H51.2852Z" fill="#E2BE74"/>
<path d="M53.0713 13.9661C53.7503 13.801 54.1927 13.8193 54.5046 13.9967C54.8186 14.1679 55.0225 14.4636 55.0633 14.8428C55.102 15.2322 54.9715 15.6624 54.7962 16.0865C54.6616 15.0936 53.9725 14.4085 53.0693 13.9661H53.0713Z" fill="#E2BE74"/>
<path d="M55.043 12.6451C55.7076 12.5208 56.1622 12.6207 56.4375 12.8184C56.7209 13.0182 56.8779 13.322 56.8595 13.6809C56.8493 13.8664 56.7943 14.056 56.7107 14.2456C56.6251 14.4291 56.5313 14.6493 56.4192 14.8471C56.4192 13.8582 55.8483 13.1446 55.043 12.6451Z" fill="#E2BE74"/>
<path d="M57.1592 11.5808C57.8442 11.5645 58.2561 11.6644 58.4987 11.8826C58.7495 12.1089 58.8575 12.4086 58.7862 12.747C58.7128 13.1038 58.4681 13.4667 58.1847 13.8194C58.3376 12.8979 57.883 12.1537 57.1612 11.5808H57.1592Z" fill="#E2BE74"/>
<path d="M59.3956 10.8062C59.7259 10.8143 59.9991 10.8897 60.2091 10.9652C60.4191 11.0447 60.5679 11.1426 60.6719 11.2628C60.8839 11.4973 60.9451 11.797 60.8228 12.1069C60.6984 12.4372 60.3885 12.7022 60.0643 13.0325C60.3498 12.1599 60.0134 11.4137 59.3936 10.8062H59.3956Z" fill="#E2BE74"/>
<path d="M61.7178 10.3574C62.3743 10.5022 62.7352 10.6673 62.9064 10.9344C63.0797 11.1872 63.1001 11.4727 62.9329 11.7397C62.7576 12.0089 62.4191 12.2861 62.046 12.5226C62.4619 11.7561 62.2397 11.016 61.7178 10.3574Z" fill="#E2BE74"/>
<path d="M64.0684 10.2271C64.3803 10.329 64.6208 10.4595 64.7982 10.5716C64.9756 10.6899 65.0939 10.8081 65.1611 10.9345C65.2998 11.1833 65.2814 11.4503 65.0796 11.6869C64.9756 11.8071 64.8288 11.9132 64.6576 12.009C64.4863 12.1089 64.2906 12.1823 64.0887 12.2802C64.3476 11.9438 64.4517 11.6175 64.4333 11.2668C64.415 10.9243 64.2763 10.5553 64.0684 10.2271Z" fill="#E2BE74"/>
<path d="M66.3976 10.439C66.9889 10.7081 67.2906 10.965 67.3926 11.228C67.5006 11.4828 67.4517 11.7275 67.2233 11.911C66.9889 12.0884 66.5913 12.225 66.1611 12.3432C66.7646 11.7968 66.7259 11.122 66.3956 10.441L66.3976 10.439Z" fill="#E2BE74"/>
<path d="M68.668 10.9263C69.2124 11.2831 69.4835 11.5563 69.561 11.7989C69.6426 12.0435 69.5712 12.2617 69.3245 12.4085C69.0697 12.5573 68.6639 12.6185 68.2256 12.6531C68.8821 12.2495 68.9127 11.6154 68.666 10.9283L68.668 10.9263Z" fill="#E2BE74"/>
<path d="M70.8416 11.7092C71.3554 12.0803 71.5837 12.4004 71.6387 12.6369C71.6958 12.8775 71.6041 13.0691 71.3513 13.1649C71.2208 13.2139 71.0536 13.2322 70.8681 13.2363C70.6805 13.2424 70.4644 13.2506 70.2422 13.2404C70.9395 12.9366 71.021 12.3637 70.8416 11.7092Z" fill="#E2BE74"/>
<path d="M72.9031 12.7327C73.3557 13.1792 73.5699 13.4809 73.6045 13.7072C73.6433 13.9335 73.5413 14.0987 73.2824 14.1537C73.0153 14.2108 72.6157 14.1517 72.1875 14.062C72.8889 13.8989 73.0153 13.3769 72.9031 12.7327Z" fill="#E2BE74"/>
<path d="M74.8155 13.9968C75.2375 14.4535 75.3925 14.8103 75.4129 15.0183C75.4312 15.2385 75.3211 15.3751 75.0724 15.3812C74.8094 15.3914 74.4526 15.2425 74.0244 15.1182C74.7298 15.057 74.8848 14.5983 74.8155 13.9968Z" fill="#E2BE74"/>
<path d="M76.5546 15.481C76.9032 16.0009 77.0663 16.3149 77.0582 16.527C77.0582 16.739 76.944 16.8491 76.7116 16.8063C76.4649 16.7675 76.104 16.6004 75.7207 16.3944C76.3874 16.4678 76.5668 16.0601 76.5526 15.479L76.5546 15.481Z" fill="#E2BE74"/>
<path d="M78.0938 17.1631C78.2529 17.4241 78.3344 17.6626 78.3997 17.8379C78.4608 18.0174 78.4853 18.1499 78.4792 18.2478C78.469 18.4435 78.3589 18.5271 78.1387 18.4496C78.0265 18.4088 77.8919 18.3313 77.7431 18.2294C77.5922 18.1295 77.4414 17.9949 77.2559 17.8767C77.58 17.9562 77.7655 17.9317 77.8981 17.7951C78.0265 17.6626 78.0918 17.4281 78.0938 17.1631Z" fill="#E2BE74"/>
<path d="M79.3858 19.0347C79.6182 19.6035 79.7079 19.9399 79.6671 20.1295C79.6386 20.3171 79.5346 20.3742 79.3491 20.258C79.1697 20.1295 78.874 19.8645 78.5723 19.5546C79.1309 19.8441 79.3225 19.5485 79.3837 19.0347H79.3858Z" fill="#E2BE74"/>
<path d="M52.5371 22.9374C52.9 22.864 53.2221 22.8701 53.4892 22.9088C53.7563 22.9516 53.9745 23.0373 54.16 23.1657C54.5311 23.4185 54.79 23.8018 54.8756 24.2524C54.9674 24.7254 54.8532 25.1821 54.7431 25.6836C54.4393 24.4726 53.6055 23.5633 52.5392 22.9353L52.5371 22.9374Z" fill="#E2BE74"/>
<path d="M54.6191 21.602C55.3552 21.551 55.8363 21.6937 56.1605 21.9832C56.4847 22.2646 56.6783 22.654 56.6926 23.0903C56.6987 23.3166 56.6559 23.5327 56.5927 23.7611C56.5315 23.9935 56.4439 24.2239 56.346 24.4502C56.24 23.2697 55.5652 22.3176 54.6191 21.604V21.602Z" fill="#E2BE74"/>
<path d="M56.8447 20.5518C57.5807 20.6069 58.0211 20.77 58.2943 21.0738C58.5716 21.3755 58.7021 21.765 58.6491 22.1707C58.5941 22.6009 58.3657 23.0229 58.1007 23.4225C58.1843 22.3032 57.6643 21.3327 56.8447 20.5498V20.5518Z" fill="#E2BE74"/>
<path d="M59.1816 19.8098C59.8973 19.9464 60.3091 20.1686 60.5313 20.4745C60.7576 20.7803 60.831 21.1554 60.7189 21.5408C60.6006 21.9383 60.3071 22.2931 59.9849 22.6397C60.2377 21.604 59.8667 20.6376 59.1816 19.8098Z" fill="#E2BE74"/>
<path d="M61.5918 19.406C62.2707 19.5854 62.652 19.8811 62.8273 20.1828C63.0088 20.4947 63.0271 20.8515 62.862 21.19C62.6907 21.5468 62.3441 21.8077 61.9772 22.1258C62.3768 21.1675 62.1464 20.2399 61.5918 19.406Z" fill="#E2BE74"/>
<path d="M64.0176 19.3306C64.6618 19.5915 65.0003 19.8831 65.1328 20.2032C65.2694 20.5172 65.2429 20.8454 65.0329 21.1308C64.8148 21.4142 64.4355 21.6507 64.0257 21.8832C64.5558 21.0595 64.4498 20.1767 64.0176 19.3306Z" fill="#E2BE74"/>
<path d="M66.4195 19.5813C67.0168 19.934 67.3206 20.2195 67.4123 20.5314C67.5082 20.8413 67.4429 21.1369 67.2023 21.3653C66.9495 21.6058 66.5397 21.7791 66.1055 21.9198C66.7355 21.249 66.7375 20.4254 66.4215 19.5813H66.4195Z" fill="#E2BE74"/>
<path d="M68.7538 20.1523C69.2982 20.5683 69.5571 20.8924 69.6183 21.1799C69.6815 21.4694 69.5877 21.7283 69.3206 21.9098C69.0434 22.0953 68.6233 22.1748 68.1748 22.2381C68.8762 21.7263 68.9659 20.9719 68.7538 20.1523Z" fill="#E2BE74"/>
<path d="M70.9682 21.0453C71.4739 21.4734 71.6757 21.8506 71.7104 22.1156C71.743 22.3929 71.6268 22.6151 71.3516 22.7314C71.0641 22.8537 70.6523 22.8394 70.1895 22.8537C70.9438 22.4724 71.0947 21.8098 70.9682 21.0432V21.0453Z" fill="#E2BE74"/>
<path d="M73.0374 22.2073C73.4819 22.6905 73.6511 23.0615 73.6633 23.3103C73.6735 23.5672 73.5451 23.7507 73.2657 23.8139C72.9762 23.8791 72.5746 23.8016 72.124 23.7323C72.8886 23.5142 73.0884 22.9331 73.0374 22.2073Z" fill="#E2BE74"/>
<path d="M74.9214 23.6284C75.2924 24.1646 75.4454 24.5133 75.429 24.7579C75.4188 24.9985 75.2843 25.1433 75.0192 25.1494C74.7501 25.1453 74.3525 25.025 73.9346 24.866C74.6787 24.8109 74.9071 24.3094 74.9214 23.6284Z" fill="#E2BE74"/>
<path d="M76.5849 25.2798C76.903 25.8364 77.009 26.2013 76.9907 26.4154C76.9682 26.6376 76.8398 26.7457 76.589 26.7029C76.326 26.6621 75.9835 26.4541 75.5859 26.2441C76.2975 26.3237 76.534 25.9016 76.5849 25.2798Z" fill="#E2BE74"/>
<path d="M78.0159 27.1189C78.2707 27.6979 78.3523 28.0568 78.3196 28.2586C78.2891 28.4625 78.1687 28.542 77.9465 28.4523C77.7243 28.3565 77.4063 28.1077 77.0576 27.8305C77.7019 28.0425 77.9282 27.6918 78.0159 27.1189Z" fill="#E2BE74"/>
<path d="M79.1968 29.115C79.3844 29.7144 79.4435 30.0671 79.4068 30.2506C79.3681 30.4402 79.2621 30.4912 79.0786 30.3627C78.8808 30.2323 78.6198 29.9326 78.3242 29.6043C78.6117 29.7613 78.7911 29.7776 78.9297 29.6797C79.0623 29.5839 79.154 29.3719 79.1968 29.115Z" fill="#E2BE74"/>
<path d="M80.1017 31.2373C80.2383 31.8408 80.2506 32.1996 80.218 32.3668C80.1813 32.5401 80.0956 32.5687 79.9468 32.4117C79.7959 32.2465 79.5982 31.906 79.3535 31.537C79.8143 31.955 79.9896 31.7164 80.1017 31.2373Z" fill="#E2BE74"/>
<path d="M48.252 34.3156C48.9615 34.0465 49.4549 34.0159 49.8769 34.1954C50.2948 34.3666 50.6313 34.6867 50.8107 35.1047C50.9962 35.5369 51.0268 36.0344 51.0084 36.5176C50.4559 35.4288 49.4426 34.7071 48.254 34.3177L48.252 34.3156Z" fill="#E2BE74"/>
<path d="M49.9785 32.5806C50.6901 32.391 51.1794 32.4237 51.5566 32.6418C51.9317 32.8498 52.2049 33.1923 52.315 33.6143C52.419 34.0425 52.368 34.5298 52.2763 35.0028C51.9174 33.8814 51.055 33.0863 49.9785 32.5786V32.5806Z" fill="#E2BE74"/>
<path d="M51.9072 31.1066C52.6167 30.9904 53.0979 31.0903 53.4262 31.3288C53.7565 31.5633 53.9705 31.916 54.0133 32.3319C54.0521 32.758 53.9134 33.2025 53.7564 33.6612C53.5831 32.5419 52.8675 31.6999 51.9093 31.1066H51.9072Z" fill="#E2BE74"/>
<path d="M53.9951 29.9039C54.7005 29.8652 55.1593 30.0181 55.4407 30.2668C55.7281 30.5197 55.8851 30.8744 55.8627 31.274C55.8423 31.692 55.6282 32.0814 55.406 32.5116C55.406 31.4249 54.8351 30.5604 53.9951 29.9019V29.9039Z" fill="#E2BE74"/>
<path d="M56.209 28.9844C56.5576 29.0048 56.841 29.0721 57.0632 29.1516C57.2855 29.2331 57.4506 29.3412 57.5709 29.4757C57.8176 29.7469 57.9175 30.0894 57.838 30.4625C57.7544 30.8499 57.4934 31.2128 57.2039 31.5798C57.2834 31.066 57.2243 30.6073 57.0449 30.171C56.8675 29.7408 56.5678 29.331 56.211 28.9844H56.209Z" fill="#E2BE74"/>
<path d="M58.5166 28.3665C59.2016 28.5051 59.587 28.6865 59.7888 28.9781C59.9927 29.2574 60.0436 29.5897 59.9091 29.92C59.7684 30.2564 59.4606 30.5888 59.118 30.8885C59.4361 29.969 59.1282 29.1147 58.5166 28.3665Z" fill="#E2BE74"/>
<path d="M60.8799 28.0688C61.5343 28.2625 61.8911 28.499 62.0502 28.7886C62.2133 29.0699 62.2153 29.3798 62.0359 29.6673C61.8484 29.9527 61.4977 30.2137 61.1144 30.4624C61.5609 29.6469 61.3774 28.8273 60.8799 28.0688Z" fill="#E2BE74"/>
<path d="M63.2551 28.0994C63.8749 28.3542 64.1909 28.6437 64.3112 28.9169C64.4355 29.1942 64.3989 29.4756 64.1807 29.7162C63.9564 29.9608 63.5711 30.128 63.1572 30.3176C63.7159 29.6244 63.6404 28.8558 63.2551 28.1014V28.0994Z" fill="#E2BE74"/>
<path d="M65.5859 28.4583C66.1609 28.7845 66.4402 29.0923 66.5278 29.3513C66.6175 29.6183 66.5503 29.8691 66.3077 30.0567C66.0549 30.2565 65.6552 30.3401 65.2148 30.4563C65.8571 29.9038 65.8714 29.1963 65.5859 28.4583Z" fill="#E2BE74"/>
<path d="M67.8299 29.125C68.3498 29.5246 68.6006 29.8243 68.6597 30.0771C68.7189 30.3401 68.6312 30.5542 68.3743 30.6806C68.1052 30.8193 67.6954 30.856 67.2529 30.8784C67.9441 30.489 68.0236 29.8467 67.8299 29.125Z" fill="#E2BE74"/>
<path d="M69.9502 30.083C70.4191 30.5275 70.6434 30.8292 70.6719 31.082C70.7086 31.3267 70.6047 31.5081 70.3457 31.5815C70.0827 31.6468 69.6647 31.6345 69.2305 31.5795C69.9441 31.3348 70.0725 30.7701 69.9502 30.085V30.083Z" fill="#E2BE74"/>
<path d="M71.9156 31.3003C72.3397 31.7713 72.5211 32.1016 72.5354 32.3319C72.5558 32.5603 72.4436 32.7071 72.1888 32.7275C71.9298 32.7417 71.5384 32.6459 71.1123 32.5338C71.8259 32.4278 71.9829 31.9405 71.9156 31.3003Z" fill="#E2BE74"/>
<path d="M73.7003 32.7542C74.0754 33.2537 74.208 33.6084 74.2161 33.8103C74.2222 34.0223 74.1121 34.1344 73.8695 34.1079C73.6187 34.0814 73.2701 33.9041 72.8623 33.7308C73.5514 33.7593 73.7227 33.3474 73.7003 32.7542Z" fill="#E2BE74"/>
<path d="M75.2698 34.4238C75.4329 34.6868 75.5206 34.9213 75.592 35.0946C75.6572 35.272 75.6878 35.4025 75.6837 35.4983C75.6796 35.692 75.5756 35.7735 75.3554 35.7022C75.123 35.6308 74.8151 35.3943 74.4502 35.1537C74.7744 35.2292 74.964 35.1965 75.0924 35.0579C75.2168 34.9233 75.2718 34.6909 75.2718 34.4238H75.2698Z" fill="#E2BE74"/>
<path d="M53.889 40.9338C53.4731 40.9338 53.1367 40.5975 53.1367 40.1815C53.1367 39.7656 53.4731 39.4292 53.889 39.4292C54.305 39.4292 54.6414 39.7656 54.6414 40.1815C54.6414 40.5975 54.305 40.9338 53.889 40.9338Z" fill="#E2BE74"/>
<path d="M55.9661 40.0203C55.5788 40.0203 55.2627 39.7063 55.2627 39.3169C55.2627 38.9275 55.5767 38.6135 55.9661 38.6135C56.3555 38.6135 56.6695 38.9275 56.6695 39.3169C56.6695 39.7063 56.3555 40.0203 55.9661 40.0203Z" fill="#E2BE74"/>
<path d="M58.1603 39.4801C57.7994 39.4801 57.5078 39.1886 57.5078 38.8277C57.5078 38.4668 57.7994 38.1753 58.1603 38.1753C58.5211 38.1753 58.8127 38.4668 58.8127 38.8277C58.8127 39.1886 58.5211 39.4801 58.1603 39.4801Z" fill="#E2BE74"/>
<path d="M60.4052 39.2803C60.0729 39.2803 59.8037 39.0112 59.8037 38.6789C59.8037 38.3465 60.0729 38.0774 60.4052 38.0774C60.7375 38.0774 61.0066 38.3465 61.0066 38.6789C61.0066 39.0112 60.7375 39.2803 60.4052 39.2803Z" fill="#E2BE74"/>
<path d="M62.6522 39.4028C62.3484 39.4028 62.0996 39.1561 62.0996 38.8523C62.0996 38.5485 62.3463 38.2998 62.6522 38.2998C62.958 38.2998 63.2026 38.5465 63.2026 38.8523C63.2026 39.1581 62.956 39.4028 62.6522 39.4028Z" fill="#E2BE74"/>
<path d="M64.8512 39.8349C65.1281 39.8349 65.3527 39.6103 65.3527 39.3333C65.3527 39.0563 65.1281 38.8318 64.8512 38.8318C64.5742 38.8318 64.3496 39.0563 64.3496 39.3333C64.3496 39.6103 64.5742 39.8349 64.8512 39.8349Z" fill="#E2BE74"/>
<path d="M66.9613 40.5628C66.7126 40.5628 66.5107 40.361 66.5107 40.1122C66.5107 39.8635 66.7126 39.6616 66.9613 39.6616C67.21 39.6616 67.4119 39.8635 67.4119 40.1122C67.4119 40.361 67.21 40.5628 66.9613 40.5628Z" fill="#E2BE74"/>
<path d="M68.9494 41.5678C69.1701 41.5678 69.349 41.3889 69.349 41.1682C69.349 40.9475 69.1701 40.7686 68.9494 40.7686C68.7287 40.7686 68.5498 40.9475 68.5498 41.1682C68.5498 41.3889 68.7287 41.5678 68.9494 41.5678Z" fill="#E2BE74"/>
<path d="M70.7804 42.83C70.5867 42.83 70.4297 42.673 70.4297 42.4793C70.4297 42.2856 70.5867 42.1287 70.7804 42.1287C70.974 42.1287 71.131 42.2856 71.131 42.4793C71.131 42.673 70.974 42.83 70.7804 42.83Z" fill="#E2BE74"/>
<path d="M72.4315 44.3101C72.2664 44.3101 72.1318 44.1756 72.1318 44.0104C72.1318 43.8453 72.2664 43.7107 72.4315 43.7107C72.5967 43.7107 72.7312 43.8453 72.7312 44.0104C72.7312 44.1756 72.5967 44.3101 72.4315 44.3101Z" fill="#E2BE74"/>
<path d="M73.8894 45.9738C73.7507 45.9738 73.6406 45.8616 73.6406 45.725C73.6406 45.5884 73.7528 45.4763 73.8894 45.4763C74.026 45.4763 74.1381 45.5884 74.1381 45.725C74.1381 45.8616 74.026 45.9738 73.8894 45.9738Z" fill="#E2BE74"/>
<path d="M75.1578 47.7985C75.0477 47.7985 74.958 47.7088 74.958 47.5987C74.958 47.4886 75.0477 47.3989 75.1578 47.3989C75.2679 47.3989 75.3576 47.4886 75.3576 47.5987C75.3576 47.7088 75.2679 47.7985 75.1578 47.7985Z" fill="#E2BE74"/>
<path d="M53.8949 45.9634C54.3104 45.9634 54.6473 45.6266 54.6473 45.2111C54.6473 44.7956 54.3104 44.4587 53.8949 44.4587C53.4794 44.4587 53.1426 44.7956 53.1426 45.2111C53.1426 45.6266 53.4794 45.9634 53.8949 45.9634Z" fill="#E2BE74"/>
<path d="M56.2379 45.2844C55.8709 45.2844 55.5732 44.9867 55.5732 44.6197C55.5732 44.2527 55.8709 43.9551 56.2379 43.9551C56.6049 43.9551 56.9026 44.2527 56.9026 44.6197C56.9026 44.9867 56.6049 45.2844 56.2379 45.2844Z" fill="#E2BE74"/>
<path d="M58.6493 45.0297C58.9679 45.0297 59.2263 44.7714 59.2263 44.4527C59.2263 44.134 58.9679 43.8757 58.6493 43.8757C58.3306 43.8757 58.0723 44.134 58.0723 44.4527C58.0723 44.7714 58.3306 45.0297 58.6493 45.0297Z" fill="#E2BE74"/>
<path d="M61.0597 45.1337C60.7905 45.1337 60.5703 44.9155 60.5703 44.6444C60.5703 44.3732 60.7885 44.155 61.0597 44.155C61.3308 44.155 61.549 44.3732 61.549 44.6444C61.549 44.9155 61.3308 45.1337 61.0597 45.1337Z" fill="#E2BE74"/>
<path d="M63.4104 45.6087C63.1882 45.6087 63.0088 45.4293 63.0088 45.2071C63.0088 44.9849 63.1882 44.8054 63.4104 44.8054C63.6327 44.8054 63.8121 44.9849 63.8121 45.2071C63.8121 45.4293 63.6327 45.6087 63.4104 45.6087Z" fill="#E2BE74"/>
<path d="M65.6245 46.4937C65.7979 46.4937 65.9385 46.3531 65.9385 46.1797C65.9385 46.0063 65.7979 45.8657 65.6245 45.8657C65.4511 45.8657 65.3105 46.0063 65.3105 46.1797C65.3105 46.3531 65.4511 46.4937 65.6245 46.4937Z" fill="#E2BE74"/>
<path d="M67.5964 47.825C67.472 47.825 67.3721 47.7251 67.3721 47.6007C67.3721 47.4764 67.472 47.3765 67.5964 47.3765C67.7207 47.3765 67.8206 47.4764 67.8206 47.6007C67.8206 47.7251 67.7207 47.825 67.5964 47.825Z" fill="#E2BE74"/>
<mask id="mask0_978_9040" style="mask-type:luminance" maskUnits="userSpaceOnUse" x="0" y="7" width="90" height="71">
<path d="M89.2194 35.4432C89.1521 35.5492 89.0236 35.5859 88.9033 35.5635C87.2845 35.1639 85.7411 34.171 84.5811 32.86C83.4067 31.5572 82.5565 30.0281 81.8409 28.5459L79.8306 24.2542C79.1537 22.8983 78.4381 21.6424 77.6328 20.5496C76.0282 18.4557 73.8079 16.7472 71.3981 15.7992C70.1931 15.3241 68.9433 15.0244 67.7098 14.9266C67.402 14.8899 67.1084 14.8899 66.7903 14.8817L65.8117 14.8898C65.1715 14.9347 64.5395 14.9734 63.936 15.0999C61.5118 15.528 59.5015 16.6657 57.8297 18.3599C56.1497 20.046 54.8714 22.3499 53.8765 24.8658C51.911 29.9323 51.1139 35.851 51.069 41.58C51.069 41.9042 51.0384 42.2202 50.9711 42.5281C54.0273 46.4202 55.8133 51.1033 55.8133 56.1474C55.8133 69.6321 43.0523 78.3726 27.3453 77.7487C15.985 77.3042 0.56543 69.6321 0.56543 56.1474C0.56543 50.8465 2.65113 47.3682 3.96821 45.7127C3.98248 45.6821 4.02935 45.6373 4.09663 45.5537C4.15779 45.4864 4.23121 45.3947 4.32296 45.2825C4.37597 45.2214 4.42083 45.1622 4.48199 45.095C7.16304 41.7982 19.1778 25.7445 15.2327 7.14233C15.247 7.20962 16.6456 7.50118 16.7516 7.53584C18.0809 7.96399 19.3592 8.55523 20.5642 9.25659C24.7784 11.7093 28.0222 15.5362 30.1996 19.8646C31.2007 21.8545 31.9877 23.9504 32.5993 26.0911C33.2334 28.3094 33.3231 31.231 35.1071 32.9048C36.1224 33.859 37.6617 34.1893 39.0013 33.806C40.0268 33.5124 40.9218 32.8192 41.5069 31.9324C42.1023 31.0292 42.1328 29.6794 42.4203 28.6335C43.1482 26.0014 44.1044 23.4407 45.3195 20.9941C46.9302 17.7483 49.1056 14.5718 52.1781 12.0274C53.6991 10.7633 55.4525 9.69291 57.3363 8.96301C59.2182 8.2168 61.206 7.80292 63.1408 7.68263C64.1195 7.60719 65.0675 7.65206 66.0176 7.69691L67.4101 7.84778C67.8852 7.91506 68.3745 7.9905 68.8414 8.10468C70.7395 8.5104 72.5296 9.21989 74.179 10.1231C75.8121 11.0487 77.3106 12.1701 78.6216 13.4729C79.276 14.1212 79.8938 14.8063 80.4443 15.5443C80.9948 16.2742 81.5126 17.0877 81.9347 17.8849C82.8012 19.4894 83.3802 21.145 83.8165 22.7495C84.2752 24.3459 84.5994 25.9341 84.9378 27.4408C85.2844 28.9312 85.6678 30.3624 86.2998 31.6653C86.9318 32.9681 87.8656 34.1281 89.146 35.0313C89.2806 35.1211 89.3193 35.3107 89.2214 35.4452L89.2194 35.4432Z" fill="white"/>
</mask>
<g mask="url(#mask0_978_9040)">
<path d="M35.6228 19.3283C34.8582 19.0266 34.0386 19.1081 33.3699 19.4771C33.27 19.5322 33.1742 19.5933 33.0824 19.6606C33.1415 19.5526 33.1905 19.4425 33.2353 19.3303C33.6349 18.2967 33.3576 17.0815 32.4544 16.3353C31.327 15.4036 29.6592 15.5626 28.7275 16.6901C28.595 16.8511 28.4889 17.0224 28.4013 17.2018C28.0873 17.8339 28.0445 18.5556 28.2585 19.208C27.4063 18.2926 25.9975 18.0826 24.9027 18.7778C23.6692 19.5607 23.3042 21.1979 24.0871 22.4314C24.5948 23.2286 25.4552 23.6587 26.336 23.6567C25.2003 24.1827 24.5662 25.459 24.8904 26.7149C24.9067 26.7781 24.9271 26.8393 24.9475 26.8984C25.3838 28.2033 26.7621 28.9658 28.1138 28.6172L28.1546 28.6029C29.0476 28.3582 29.7082 27.6814 29.9732 26.8577C30.0527 27.5101 30.3708 28.0912 30.8418 28.5132C31.2679 28.8945 31.8204 29.1411 32.434 29.1778C33.8938 29.2696 35.1498 28.1584 35.2415 26.7007C35.2864 25.9728 35.0295 25.298 34.583 24.7923C34.4525 24.6435 34.3057 24.5049 34.1426 24.3887C34.3159 24.4233 34.4892 24.4376 34.6625 24.4356C35.7125 24.4294 36.7013 23.8015 37.1091 22.7637C37.6473 21.4038 36.9806 19.8666 35.6207 19.3283H35.6228ZM33.3699 22.5843C33.3699 22.7127 33.274 22.8147 33.1558 22.8126C33.0375 22.8086 32.9417 22.7189 32.9417 22.6088C32.9499 22.5007 33.0151 22.4008 33.1354 22.3824C33.2496 22.3661 33.378 22.4538 33.3699 22.5843ZM32.8683 23.3998C32.8887 23.2938 33.0009 23.2225 33.1171 23.2408C33.2333 23.2592 33.3087 23.3754 33.2843 23.5038C33.2659 23.6343 33.1354 23.6995 33.0212 23.6608C32.9112 23.6221 32.8541 23.5099 32.8683 23.4019V23.3998ZM32.9316 24.352C32.8602 24.46 32.7236 24.4906 32.6278 24.4213C32.5319 24.3519 32.5034 24.2235 32.5646 24.1318C32.6318 24.0461 32.7541 24.0074 32.8561 24.0563C32.9662 24.1093 33.009 24.2459 32.9295 24.352H32.9316ZM32.8948 21.5588C33.0008 21.5078 33.1273 21.5649 33.1762 21.6852C33.2231 21.8055 33.1721 21.9278 33.0539 21.9604C32.9458 21.989 32.8153 21.936 32.7746 21.834C32.7338 21.7341 32.7868 21.6098 32.8948 21.5588ZM32.7337 20.8737C32.8051 20.9818 32.7827 21.1204 32.6828 21.1836C32.5829 21.2468 32.4544 21.2244 32.3953 21.1347C32.3362 21.0429 32.3321 20.9267 32.4218 20.8432C32.5054 20.7657 32.6624 20.7636 32.7337 20.8737ZM32.3423 25.0635C32.2546 25.1593 32.1119 25.1451 32.0385 25.0452C31.9712 24.9534 31.9835 24.827 32.0569 24.7434C32.1344 24.6659 32.2669 24.67 32.3525 24.7516C32.4402 24.8311 32.4341 24.9718 32.3423 25.0615V25.0635ZM29.0945 17.7625C29.4472 16.8695 30.4564 16.4311 31.3494 16.7859C32.2322 17.1345 32.6685 18.1254 32.3382 19.0082C32.2506 18.4149 31.8591 17.8828 31.2597 17.6463C30.3667 17.2936 29.3575 17.7299 29.0048 18.6229C29.0007 18.6331 28.9966 18.6433 28.9946 18.6535C28.9518 18.3619 28.9803 18.0561 29.0965 17.7605L29.0945 17.7625ZM32.1201 20.5373C32.0447 20.627 31.908 20.6515 31.8163 20.5924C31.7266 20.5312 31.7021 20.4007 31.7613 20.2967C31.8204 20.1948 31.957 20.1703 32.063 20.2417C32.1711 20.3151 32.1955 20.4476 32.1181 20.5373H32.1201ZM31.3779 20.1071C31.3311 20.2152 31.2108 20.2702 31.1129 20.2274C31.015 20.1805 30.9437 20.0908 30.9722 19.9685C30.9967 19.8584 31.1272 19.7667 31.2454 19.8197C31.3657 19.8686 31.4248 19.997 31.3779 20.1051V20.1071ZM30.5481 19.889C30.5359 20.0072 30.4381 20.1031 30.328 20.1031C30.2199 20.1031 30.1241 20.0072 30.1159 19.889C30.1078 19.7707 30.2057 19.6749 30.3361 19.6749C30.4646 19.6749 30.5604 19.7707 30.5481 19.889ZM29.541 20.1968C29.439 20.2335 29.3228 20.1805 29.28 20.0684C29.2372 19.9583 29.2983 19.8258 29.4207 19.785C29.5471 19.7605 29.6694 19.8339 29.6918 19.9502C29.7143 20.0664 29.647 20.1765 29.5389 20.1968H29.541ZM28.5889 20.1826C28.6969 20.1112 28.8315 20.1398 28.8865 20.2437C28.9416 20.3477 28.915 20.4803 28.8233 20.5414C28.7316 20.6005 28.599 20.574 28.5256 20.4802C28.4522 20.3885 28.4808 20.2539 28.5889 20.1826ZM28.4421 24.6802C28.5175 24.7577 28.5195 24.8963 28.4441 24.9881C28.3707 25.0798 28.2362 25.0798 28.1444 24.9881C28.0527 24.8963 28.0527 24.7597 28.1403 24.6802C28.23 24.6027 28.3646 24.6007 28.44 24.6802H28.4421ZM27.8936 20.7881C27.9853 20.6964 28.1281 20.6902 28.2117 20.7738C28.2952 20.8574 28.3014 20.9859 28.2239 21.0613C28.1648 21.153 28.0363 21.1714 27.9385 21.1041C27.8406 21.0368 27.8202 20.8962 27.8936 20.7881ZM27.4308 23.1409C27.5491 23.1266 27.6612 23.2021 27.6816 23.3081C27.702 23.4161 27.6265 23.5303 27.5124 23.565C27.4002 23.5996 27.286 23.5242 27.2616 23.3978C27.2371 23.2714 27.3126 23.1552 27.4308 23.1409ZM27.1963 22.4763C27.2147 22.3498 27.3329 22.2622 27.4471 22.2846C27.5653 22.305 27.6388 22.409 27.6225 22.515C27.6225 22.623 27.5266 22.7127 27.4084 22.7127C27.2901 22.7127 27.1943 22.6067 27.1963 22.4763ZM27.6693 23.9646C27.7835 23.9136 27.8854 23.9666 27.9507 24.0543C28.0098 24.144 27.9793 24.2725 27.8814 24.3377C27.7835 24.405 27.6469 24.3703 27.5756 24.2623C27.5001 24.1562 27.5674 24.0094 27.6693 23.9646ZM27.4288 21.5853C27.4777 21.465 27.6041 21.412 27.7081 21.467C27.8141 21.52 27.8651 21.6485 27.8243 21.7484C27.7835 21.8483 27.6571 21.9013 27.545 21.8666C27.4328 21.832 27.3798 21.7056 27.4288 21.5853ZM25.9873 22.7474C25.9873 22.7474 26.0056 22.7617 26.0138 22.7678C25.7223 22.7189 25.4409 22.5965 25.1962 22.3947C24.4561 21.783 24.3522 20.6882 24.9638 19.9481C25.5673 19.2162 26.6438 19.1081 27.3839 19.6953C26.7926 19.5954 26.1647 19.8034 25.7549 20.3008C25.1432 21.0409 25.2472 22.1358 25.9873 22.7474ZM28.3972 27.5345C27.5878 28.0504 26.5133 27.8098 25.9975 26.9983C25.4878 26.1971 25.7182 25.141 26.5052 24.6191C26.2279 25.1512 26.232 25.8117 26.5765 26.3561C27.0923 27.1655 28.1648 27.4041 28.9762 26.8903C28.9864 26.8842 28.9946 26.878 29.0027 26.8699C28.8661 27.1329 28.6623 27.3633 28.3952 27.5325L28.3972 27.5345ZM29.1862 25.4183C29.1434 25.5283 29.0109 25.5773 28.8906 25.5284C28.7703 25.4794 28.7438 25.3224 28.8029 25.2287C28.8682 25.1247 28.9823 25.1063 29.0843 25.1471C29.1862 25.1879 29.2311 25.3102 29.1862 25.4203V25.4183ZM29.7693 25.8077C29.6429 25.7832 29.5634 25.669 29.594 25.5549C29.6246 25.4407 29.7347 25.3632 29.8407 25.3856C29.9467 25.404 30.0262 25.5222 30.016 25.6344C30.0058 25.7587 29.8957 25.8301 29.7693 25.8077ZM30.1098 24.4947C29.908 23.7118 29.1985 23.1939 28.4257 23.198C28.493 23.1674 28.5603 23.1327 28.6235 23.092C29.3065 22.6577 29.5797 21.8238 29.3371 21.0898C29.3881 21.1449 29.4411 21.1979 29.5002 21.2448C30.1241 21.7606 31.0008 21.7627 31.6246 21.3019C31.59 21.3671 31.5553 21.4344 31.5268 21.5058C31.2291 22.2581 31.4982 23.094 32.1282 23.5446C32.0548 23.5303 31.9815 23.5201 31.904 23.514C31.0966 23.4651 30.385 23.9789 30.1506 24.7169C30.1424 24.6435 30.1302 24.5701 30.1098 24.4947ZM31.5737 25.5691C31.4534 25.6181 31.3249 25.5671 31.2842 25.455C31.2454 25.3449 31.2944 25.2205 31.3943 25.1797C31.4983 25.1451 31.6206 25.1797 31.6776 25.2796C31.7368 25.3836 31.698 25.5243 31.5737 25.5671V25.5691ZM30.6888 25.826C30.5624 25.8586 30.4523 25.7506 30.4462 25.6344C30.4401 25.5121 30.5257 25.4305 30.6318 25.402C30.7398 25.3816 30.8458 25.459 30.8723 25.5732C30.8988 25.6894 30.8153 25.8016 30.6888 25.826ZM34.2731 26.0768C34.5116 27.0065 33.953 27.9545 33.0233 28.1931C32.1038 28.4296 31.17 27.8852 30.9172 26.9759C31.3392 27.4061 31.9672 27.6039 32.591 27.4449C33.5207 27.2063 34.0794 26.2583 33.8409 25.3286C33.8388 25.3163 33.8347 25.3061 33.8307 25.2959C34.0366 25.5059 34.1935 25.773 34.2731 26.0768ZM36.3302 21.8809C36.2711 22.829 35.4637 23.5487 34.5197 23.5079C35.058 23.2408 35.4434 22.7026 35.4821 22.0603C35.5412 21.1021 34.8133 20.2784 33.8551 20.2172C33.8429 20.2172 33.8327 20.2172 33.8225 20.2172C34.0875 20.0867 34.3873 20.0195 34.7033 20.0378C35.6615 20.0969 36.3894 20.9227 36.3302 21.8809Z" fill="#E2BE74"/>
</g>
<path d="M16.7256 27.922C16.4545 26.2481 16.8928 24.3337 18.1161 22.7822L18.1711 22.7128C18.5606 22.2174 19.2782 22.1338 19.7737 22.5232C20.2691 22.9126 20.3527 23.6303 19.9633 24.1257C19.8613 24.2562 19.7308 24.3602 19.5922 24.4316C18.3791 25.0595 17.3149 26.3338 16.9173 27.9281C16.9051 27.9811 16.852 28.0117 16.799 27.9995C16.7603 27.9893 16.7318 27.9587 16.7256 27.92V27.922Z" fill="#E2BE74"/>
<path d="M17.5225 27.9342C17.8222 26.9229 18.6377 25.9606 19.8243 25.4856L19.8997 25.455C20.2993 25.296 20.7519 25.4897 20.913 25.8893C21.072 26.2889 20.8784 26.7415 20.4787 26.9026C20.3523 26.9535 20.2198 26.9678 20.0934 26.9515C19.2636 26.8475 18.2524 27.1717 17.5225 27.9342Z" fill="#E2BE74"/>
<path d="M14.5055 35.8123C13.2679 36.8949 12.6196 38.42 12.6135 39.788C12.6114 40.418 12.0977 40.9257 11.4677 40.9236C10.8377 40.9216 10.33 40.4078 10.332 39.7778C10.332 39.6127 10.3687 39.4536 10.434 39.313L10.4727 39.2273C11.2964 37.4311 12.799 36.1671 14.4138 35.6472C14.4647 35.6309 14.5198 35.6594 14.5361 35.7104C14.5483 35.7491 14.5361 35.7899 14.5075 35.8143L14.5055 35.8123Z" fill="#E2BE74"/>
<path d="M14.7859 36.3506C14.4393 37.3476 14.6126 38.3935 15.0835 39.0867C15.3262 39.4414 15.2324 39.9267 14.8776 40.1693C14.5208 40.4119 14.0376 40.3181 13.795 39.9634C13.7196 39.8512 13.6768 39.7269 13.6645 39.6005L13.6564 39.5148C13.5381 38.2426 14.0234 37.0784 14.7859 36.3506Z" fill="#E2BE74"/>
<path d="M30.6521 39.1845C30.5501 39.1335 30.0588 38.7421 29.5266 38.4444C29.0026 38.1406 28.4746 37.9429 28.4746 37.9429C28.4746 37.9429 29.0251 38.0693 29.6306 38.106C30.23 38.1508 30.8641 38.0978 30.9742 38.11C31.1944 38.1345 31.3412 38.4363 31.2413 38.7767C31.1883 38.9419 31.0904 39.0744 30.9824 39.1478C30.8682 39.2192 30.7499 39.2334 30.65 39.1845H30.6521Z" fill="#E2BE74"/>
<path d="M29.6536 40.4384C29.5884 40.3527 29.305 39.7757 28.9584 39.2844C28.6241 38.789 28.2285 38.373 28.2285 38.373C28.2285 38.373 28.3386 38.4627 28.516 38.5871C28.6933 38.7135 28.9401 38.8746 29.199 39.0214C29.7169 39.3211 30.3183 39.5556 30.41 39.6126C30.5976 39.7289 30.5976 40.0673 30.3591 40.3242C30.1226 40.5831 29.7882 40.6137 29.6536 40.4363V40.4384Z" fill="#E2BE74"/>
<path d="M28.2057 41.1357C28.1833 41.0276 28.1792 40.3854 28.0834 39.7962C27.9937 39.1947 27.8184 38.6565 27.8184 38.6565C27.8184 38.6565 27.8795 38.787 27.9856 38.9766C28.0895 39.1662 28.2404 39.4149 28.4116 39.6616C28.7521 40.1632 29.1884 40.6219 29.2476 40.7177C29.3679 40.9073 29.2211 41.2091 28.8928 41.3416C28.5646 41.4741 28.2485 41.3498 28.2057 41.1357Z" fill="#E2BE74"/>
<path d="M26.6013 41.1356C26.6278 41.0316 26.901 40.4506 27.0702 39.8736C27.2476 39.3027 27.3251 38.7339 27.3251 38.7339C27.3251 38.7339 27.3251 39.3027 27.425 39.9001C27.5147 40.4913 27.7063 41.103 27.7165 41.2131C27.741 41.4292 27.48 41.6474 27.1293 41.6188C26.7807 41.5944 26.5442 41.3538 26.6013 41.1376V41.1356Z" fill="#E2BE74"/>
<path d="M25.1543 40.4385C25.2257 40.3529 25.7252 39.9492 26.1248 39.5067C26.5387 39.0623 26.8506 38.5913 26.8506 38.5913C26.8506 38.5913 26.7874 38.7198 26.7038 38.9216C26.6202 39.1194 26.5203 39.3926 26.4327 39.6821C26.2532 40.2611 26.1635 40.8891 26.1268 40.993C26.0534 41.2051 25.7252 41.2764 25.4194 41.1031C25.1135 40.9298 25.0116 40.6057 25.1543 40.4385Z" fill="#E2BE74"/>
<path d="M24.155 39.1846C24.257 39.1377 24.8727 38.995 25.4334 38.7646C25.9961 38.5444 26.4813 38.2549 26.4813 38.2549C26.4813 38.2549 26.0389 38.6076 25.6332 39.0582C25.2254 39.4965 24.8686 40.0286 24.7911 40.1061C24.6362 40.2631 24.3059 40.1897 24.1061 39.9002C24.0082 39.7575 23.9695 39.5964 23.9776 39.468C23.9919 39.3354 24.0551 39.2335 24.155 39.1846Z" fill="#E2BE74"/>
<path d="M23.7941 37.6186C23.9042 37.6186 24.5342 37.7593 25.1315 37.796C25.4272 37.8184 25.7228 37.8204 25.9409 37.8123C26.1591 37.8062 26.2998 37.7919 26.2998 37.7919C26.2998 37.7919 26.1611 37.8225 25.9511 37.8816C25.7391 37.9407 25.4618 38.0325 25.1866 38.1446C24.628 38.3628 24.0713 38.689 23.9694 38.7236C23.7614 38.7991 23.4964 38.585 23.4434 38.2384C23.3843 37.8918 23.5779 37.6104 23.7941 37.6186Z" fill="#E2BE74"/>
<path d="M24.1544 36.0527C24.2563 36.1037 24.7477 36.4951 25.2798 36.7928C25.8038 37.0966 26.3319 37.2943 26.3319 37.2943C26.3319 37.2943 25.7814 37.1679 25.1759 37.1313C24.5764 37.0864 23.9424 37.1394 23.8323 37.1272C23.6121 37.1027 23.4653 36.801 23.5652 36.4605C23.6182 36.2953 23.716 36.1628 23.8241 36.0894C23.9383 36.018 24.0565 36.0038 24.1564 36.0527H24.1544Z" fill="#E2BE74"/>
<path d="M25.154 34.7991C25.2192 34.8847 25.5026 35.4617 25.8492 35.9531C26.1836 36.4485 26.5791 36.8644 26.5791 36.8644C26.5791 36.8644 26.469 36.7747 26.2916 36.6503C26.1143 36.5239 25.8676 36.3629 25.6086 36.2161C25.0908 35.9164 24.4893 35.6819 24.3976 35.6248C24.21 35.5086 24.21 35.1702 24.4485 34.9133C24.685 34.6544 25.0194 34.6238 25.154 34.8011V34.7991Z" fill="#E2BE74"/>
<path d="M26.6011 34.1018C26.6235 34.2098 26.6276 34.8521 26.7234 35.4413C26.8131 36.0428 26.9885 36.581 26.9885 36.581C26.9885 36.581 26.9273 36.4505 26.8213 36.2609C26.7173 36.0713 26.5664 35.8226 26.3952 35.5759C26.0547 35.0743 25.6184 34.6156 25.5592 34.5198C25.439 34.3301 25.5857 34.0284 25.914 33.8959C26.2422 33.7634 26.5583 33.8877 26.6011 34.1018Z" fill="#E2BE74"/>
<path d="M28.2057 34.1017C28.1792 34.2057 27.906 34.7867 27.7368 35.3637C27.5594 35.9346 27.4819 36.5034 27.4819 36.5034C27.4819 36.5034 27.4819 35.9346 27.382 35.3372C27.2923 34.746 27.1006 34.1343 27.0905 34.0242C27.066 33.8081 27.327 33.59 27.6777 33.6185C28.0263 33.643 28.2628 33.8836 28.2057 34.0997V34.1017Z" fill="#E2BE74"/>
<path d="M29.6533 34.7989C29.582 34.8845 29.0825 35.2882 28.6829 35.7286C28.269 36.1731 27.957 36.6441 27.957 36.6441C27.957 36.6441 28.0202 36.5156 28.1038 36.3138C28.1874 36.116 28.2873 35.8428 28.375 35.5533C28.5544 34.9743 28.6441 34.3463 28.6808 34.2423C28.7542 34.0303 29.0825 33.9589 29.3883 34.1322C29.6941 34.3055 29.7961 34.6297 29.6533 34.7969V34.7989Z" fill="#E2BE74"/>
<path d="M30.6524 36.0529C30.5505 36.0998 29.9348 36.2425 29.3741 36.4729C28.8114 36.6931 28.3262 36.9826 28.3262 36.9826C28.3262 36.9826 28.7686 36.6299 29.1743 36.1793C29.5821 35.741 29.9389 35.2088 30.0164 35.1313C30.1713 34.9744 30.5016 35.0478 30.7014 35.3373C30.7992 35.48 30.838 35.641 30.8298 35.7695C30.8156 35.902 30.7523 36.004 30.6524 36.0529Z" fill="#E2BE74"/>
<path d="M31.0135 37.6187C30.9034 37.6187 30.2734 37.478 29.6761 37.4413C29.3804 37.4189 29.0848 37.4168 28.8666 37.425C28.6485 37.4311 28.5078 37.4454 28.5078 37.4454C28.5078 37.4454 28.6465 37.4148 28.8565 37.3557C29.0685 37.2966 29.3458 37.2048 29.621 37.0927C30.1797 36.8745 30.7363 36.5483 30.8382 36.5136C31.0462 36.4382 31.3112 36.6523 31.3642 36.9989C31.4233 37.3455 31.2296 37.6268 31.0135 37.6187Z" fill="#E2BE74"/>
<path d="M27.4185 43.2845C27.2371 43.2845 27.0801 43.1336 27.0801 42.9522C27.0801 42.7646 27.231 42.6137 27.4185 42.6137C27.6 42.6137 27.7488 42.7646 27.757 42.944C27.757 43.1316 27.6061 43.2824 27.4185 43.2824V43.2845ZM25.6713 43.0133C25.4898 42.9603 25.394 42.7727 25.4531 42.5913C25.5061 42.418 25.6937 42.3201 25.8751 42.3813V42.3731C26.0484 42.4343 26.1463 42.6219 26.0933 42.7952C26.0485 42.9379 25.9118 43.0296 25.7691 43.0296C25.7385 43.0296 25.7018 43.0296 25.6713 43.0133ZM28.7438 42.787C28.6826 42.6137 28.7825 42.4261 28.9619 42.365C29.1352 42.312 29.3228 42.4017 29.3839 42.5831C29.4451 42.7564 29.3472 42.944 29.1658 43.0052C29.1352 43.0133 29.0985 43.0215 29.0679 43.0215C28.9252 43.0215 28.7886 42.9318 28.7438 42.787ZM24.0912 42.2141C23.9403 42.1081 23.9036 41.8981 24.0158 41.7472C24.1218 41.5963 24.3317 41.5596 24.4826 41.6718C24.6335 41.7778 24.6641 41.9878 24.5581 42.1387C24.4908 42.2284 24.3929 42.2814 24.2869 42.2814C24.2196 42.2814 24.1503 42.259 24.0912 42.2141ZM30.2729 42.1244C30.1669 41.9735 30.1974 41.7635 30.3483 41.6575C30.4992 41.5454 30.7092 41.576 30.8152 41.7248C30.9273 41.8757 30.8906 42.0857 30.7479 42.1998C30.6867 42.2386 30.6113 42.261 30.544 42.261C30.4462 42.261 30.3402 42.2162 30.2729 42.1265V42.1244ZM22.8332 40.9725C22.7211 40.8216 22.7578 40.6116 22.9005 40.4974C23.0514 40.3914 23.2614 40.422 23.3755 40.5729C23.4816 40.7237 23.451 40.9256 23.3001 41.0397C23.239 41.0846 23.1716 41.107 23.1044 41.107C22.9983 41.107 22.9005 41.0622 22.8332 40.9704V40.9725ZM31.5227 41.0173C31.3718 40.9032 31.3412 40.6931 31.4472 40.5504C31.5614 40.3996 31.7714 40.3629 31.9223 40.475C32.0731 40.5871 32.1037 40.791 31.9977 40.9419H31.9896C31.9284 41.0316 31.8244 41.0846 31.7184 41.0846C31.6511 41.0846 31.5818 41.0622 31.5227 41.0173ZM22.0218 39.3985C21.9627 39.2171 22.0605 39.0295 22.2318 38.9703C22.4133 38.9173 22.6008 39.0071 22.6599 39.1885C22.7129 39.3618 22.6232 39.5494 22.4418 39.6105C22.4112 39.6187 22.3745 39.6248 22.3357 39.6248C22.1991 39.6248 22.0646 39.5351 22.0198 39.3985H22.0218ZM32.3749 39.58C32.2016 39.527 32.1038 39.3312 32.1649 39.1579C32.2179 38.9846 32.4055 38.8868 32.5869 38.9398C32.7602 38.9989 32.8581 39.1885 32.7969 39.3679C32.7521 39.5045 32.6236 39.5942 32.4809 39.5942C32.4442 39.5942 32.4137 39.5942 32.3749 39.58ZM21.7363 37.6533C21.7363 37.4657 21.8872 37.3148 22.0666 37.3148C22.2542 37.3148 22.4051 37.4575 22.4051 37.6451C22.4051 37.8327 22.2624 37.9836 22.0748 37.9836C21.8872 37.9836 21.7363 37.8327 21.7363 37.6533ZM32.4055 37.6145V37.584V37.5615C32.4055 37.374 32.5482 37.2231 32.7378 37.2231C32.9192 37.2149 33.0681 37.3658 33.0763 37.5534V37.584V37.6145C33.0763 37.8021 32.9254 37.953 32.7378 37.953C32.5563 37.953 32.4055 37.8021 32.4055 37.6145ZM22.2196 36.3199C22.0463 36.2669 21.9484 36.0793 22.0014 35.8979C22.0625 35.7246 22.2501 35.6267 22.4234 35.6797C22.6049 35.7327 22.7027 35.9203 22.6416 36.1017C22.5967 36.2445 22.4683 36.3362 22.3256 36.3362C22.2868 36.3362 22.2583 36.328 22.2196 36.3199ZM32.1425 36.0181C32.0813 35.8448 32.1792 35.6573 32.3525 35.5961C32.5258 35.5349 32.7215 35.6267 32.7806 35.8082C32.8418 35.9815 32.7439 36.169 32.5706 36.2302C32.5339 36.2465 32.4952 36.2526 32.4585 36.2526C32.3219 36.2526 32.1873 36.1629 32.1425 36.0181ZM22.874 34.7847C22.7231 34.6786 22.6925 34.4686 22.7985 34.3178C22.9046 34.1669 23.1146 34.1302 23.2654 34.2423C23.4163 34.3484 23.453 34.5584 23.3409 34.7092C23.2818 34.7989 23.1757 34.8438 23.0697 34.8438C23.0024 34.8438 22.9352 34.8295 22.874 34.7826V34.7847ZM31.4187 34.6419C31.3045 34.4911 31.3351 34.2811 31.486 34.1669C31.6368 34.0609 31.8469 34.0915 31.9529 34.2362H31.961C32.0671 34.3871 32.0364 34.5971 31.8856 34.7113C31.8244 34.7561 31.7571 34.7785 31.6899 34.7785C31.5838 34.7785 31.486 34.7255 31.4187 34.644V34.6419ZM23.9729 33.5267C23.8608 33.3758 23.8893 33.1658 24.0402 33.0517C24.1911 32.9457 24.4011 32.9762 24.5071 33.1271C24.6192 33.278 24.5907 33.488 24.4398 33.594C24.3786 33.6388 24.3114 33.6613 24.2359 33.6613C24.1381 33.6613 24.032 33.6164 23.9729 33.5267ZM30.3055 33.5491V33.541C30.1546 33.4349 30.1179 33.225 30.2301 33.0741C30.3361 32.9232 30.5461 32.8926 30.6969 32.9987C30.8478 33.1047 30.8784 33.3147 30.7724 33.4655C30.7051 33.5552 30.6072 33.6083 30.5012 33.6083C30.4339 33.6083 30.3646 33.5858 30.3055 33.5471V33.5491ZM25.396 32.6602C25.343 32.4869 25.4327 32.2993 25.6142 32.2382C25.7875 32.177 25.9751 32.2749 26.0362 32.4482C26.0974 32.6215 25.9995 32.8172 25.8262 32.8702V32.8784C25.7875 32.8865 25.7508 32.8947 25.7202 32.8947C25.5775 32.8947 25.449 32.805 25.396 32.6602ZM28.9048 32.8478C28.7315 32.7948 28.6337 32.599 28.6867 32.4257C28.7478 32.2443 28.9354 32.1546 29.1087 32.2076C29.2902 32.2606 29.388 32.4482 29.3268 32.6296C29.282 32.7723 29.1536 32.8641 29.0109 32.8641C28.9742 32.8641 28.9436 32.8559 28.9048 32.8478ZM27.023 32.283C27.023 32.1036 27.1739 31.9527 27.3614 31.9446V31.9527C27.5429 31.9446 27.6917 32.0955 27.6917 32.283C27.6917 32.4645 27.549 32.6154 27.3614 32.6215C27.18 32.6215 27.0312 32.4706 27.023 32.283Z" fill="#E2BE74"/>
</svg>
