<svg width="20" height="20" viewBox="0 0 20 20" fill="none" xmlns="http://www.w3.org/2000/svg">
<path d="M9.57339 4.48331C9.64502 4.33823 9.75581 4.21608 9.89323 4.13067C10.0307 4.04526 10.1892 4 10.351 4C10.5128 4 10.6714 4.04526 10.8088 4.13067C10.9462 4.21608 11.057 4.33823 11.1287 4.48331L12.5943 7.45316L15.8716 7.92919C16.0318 7.95229 16.1823 8.01978 16.3062 8.12401C16.43 8.22823 16.5222 8.36504 16.5724 8.51895C16.6225 8.67286 16.6286 8.83774 16.5898 8.99491C16.5511 9.15209 16.4692 9.29529 16.3534 9.40833L13.981 11.721L14.5408 14.9847C14.568 15.1442 14.5501 15.3081 14.489 15.4579C14.428 15.6077 14.3263 15.7374 14.1954 15.8325C14.0645 15.9275 13.9096 15.984 13.7482 15.9956C13.5869 16.0073 13.4255 15.9735 13.2823 15.8983L10.351 14.3584L7.41972 15.9002C7.27639 15.9756 7.11478 16.0094 6.95323 15.9977C6.79167 15.9861 6.63661 15.9294 6.50562 15.8341C6.37463 15.7388 6.27294 15.6087 6.21208 15.4586C6.15121 15.3085 6.1336 15.1444 6.16125 14.9847L6.72014 11.721L4.34966 9.40929C4.23381 9.29632 4.15188 9.15319 4.11313 8.99609C4.07438 8.83898 4.08035 8.67417 4.13038 8.52028C4.1804 8.36639 4.27248 8.22957 4.39621 8.12529C4.51993 8.021 4.67037 7.95341 4.8305 7.93015L8.10678 7.45413L9.57339 4.48331Z" fill="#616161"/>
</svg>
