<svg width="28" height="29" viewBox="0 0 28 29" fill="none" xmlns="http://www.w3.org/2000/svg">
<path d="M0.437505 11.7767V21.0823C0.437505 21.2366 0.498809 21.3846 0.607932 21.4937C0.717055 21.6028 0.865057 21.6642 1.01938 21.6642H3.08438C3.0838 21.7185 3.09401 21.7725 3.11442 21.8229C3.13483 21.8733 3.16503 21.9191 3.20327 21.9578C3.24152 21.9964 3.28705 22.0271 3.33723 22.0481C3.38742 22.069 3.44125 22.0798 3.49563 22.0798H5.87125C6.05568 22.0786 6.23808 22.0412 6.40802 21.9695C6.57797 21.8979 6.73215 21.7935 6.86174 21.6623C6.99134 21.531 7.09382 21.3756 7.16333 21.2048C7.23285 21.0339 7.26803 20.8511 7.26688 20.6667V10.7704H3.5C3.39226 10.7768 3.29067 10.8227 3.21475 10.8994C3.13884 10.9761 3.09396 11.0782 3.08875 11.186H1.01938C0.942225 11.186 0.865839 11.2014 0.794666 11.2311C0.723493 11.2609 0.658955 11.3046 0.604807 11.3595C0.550659 11.4145 0.507983 11.4797 0.47926 11.5513C0.450538 11.6229 0.436345 11.6995 0.437505 11.7767ZM4.69438 19.446C4.6938 19.3834 4.70557 19.3213 4.729 19.2632C4.75243 19.2051 4.78708 19.1522 4.83095 19.1075C4.87483 19.0628 4.92708 19.0272 4.98472 19.0027C5.04236 18.9783 5.10426 18.9654 5.16688 18.9648C5.22951 18.9654 5.2914 18.9783 5.34904 19.0027C5.40668 19.0272 5.45893 19.0628 5.50281 19.1075C5.54668 19.1522 5.58133 19.2051 5.60476 19.2632C5.62819 19.3213 5.63996 19.3834 5.63938 19.446V20.4785C5.64173 20.6043 5.59432 20.7259 5.50747 20.8168C5.42061 20.9078 5.30135 20.9607 5.17563 20.9642C5.11301 20.9636 5.05111 20.9507 4.99347 20.9262C4.93583 20.9017 4.88358 20.8661 4.8397 20.8214C4.79583 20.7767 4.76118 20.7238 4.73775 20.6657C4.71432 20.6077 4.70255 20.5455 4.70313 20.4829L4.69438 19.446ZM27.5625 12.236C27.5478 12.7754 27.3243 13.288 26.9391 13.6659C26.5539 14.0437 26.0371 14.2573 25.4975 14.2617H20.8775C21.0802 14.4924 21.2339 14.7618 21.3295 15.0537C21.425 15.3456 21.4604 15.6538 21.4334 15.9597C21.4064 16.2656 21.3176 16.5629 21.1724 16.8335C21.0273 17.1041 20.8287 17.3425 20.5888 17.5342C20.8652 18.0179 20.9403 18.5909 20.7979 19.1295C20.6555 19.6681 20.3069 20.1291 19.8275 20.4129C20.265 22.6792 18.8125 23.7029 16.4763 23.7029H15.7369C12.705 23.7029 12.1144 22.0929 9.61188 21.8873C9.46721 21.8732 9.33293 21.8058 9.23511 21.6983C9.13729 21.5908 9.0829 21.4508 9.08251 21.3054V12.5029C9.08251 11.6542 9.5725 11.256 10.395 10.8885C11.7075 10.2892 14.8006 8.62666 15.3606 7.31853C15.4901 6.9302 15.7376 6.59201 16.0686 6.35121C16.3996 6.1104 16.7976 5.97902 17.2069 5.9754C17.5739 5.97491 17.9353 6.06549 18.2587 6.23904C18.5821 6.41259 18.8574 6.66368 19.0599 6.96979C19.2624 7.27591 19.3857 7.62749 19.4189 7.99301C19.4521 8.35854 19.3941 8.72658 19.25 9.06415C19.074 9.46968 18.8555 9.85538 18.5981 10.2148H25.4888C26.0268 10.2243 26.5409 10.4387 26.9263 10.8143C27.3116 11.1899 27.5392 11.6984 27.5625 12.236Z" fill="#2D2D98"/>
</svg>
