<svg width="91" height="65" viewBox="0 0 91 65" fill="none" xmlns="http://www.w3.org/2000/svg">
<path d="M23.5925 18.7874C23.1109 20.124 22.0661 21.328 20.4234 22.0891C17.9849 23.2216 14.9649 22.7666 12.7774 21.2076C10.5878 19.6424 9.21039 17.0937 8.78187 14.4389C8.34926 11.7841 8.81245 9.03751 9.77765 6.52759C9.72051 8.25392 11.1367 9.64151 12.7651 10.3455C12.8569 12.2086 13.4017 13.9737 14.3669 15.4368C15.8851 17.7386 18.54 19.2282 21.1274 19.2282C21.2825 19.2282 21.4376 19.2241 21.5927 19.2139C22.3048 19.1649 22.9742 19.0201 23.5925 18.7895V18.7874Z" fill="#231F20"/>
<path d="M72.0971 63.3886C71.6992 63.8906 71.0952 64.1783 70.4605 64.1783H65.9835C65.2938 64.1783 64.8448 63.462 65.1346 62.8356C66.3242 60.3114 66.8793 57.4443 66.5998 54.6957C65.3693 55.3119 64.1673 55.8445 63.043 56.2853C60.08 57.4505 56.9947 58.283 53.8502 58.7973C48.8181 59.6176 43.6472 59.6237 38.611 58.8625C37.1867 58.6462 35.8052 58.3932 34.4686 58.1014C33.5096 59.8604 32.4709 61.4827 31.3751 62.9192C30.7711 63.711 29.8284 64.1783 28.8326 64.1783H25.2003C24.5086 64.1783 24.0637 63.462 24.3514 62.8315C25.3881 60.5583 25.8451 58.0137 25.6635 55.5201C12.8364 50.7206 5.13932 42.9827 1.95601 39.2852C0.937755 38.1016 0.384766 36.5957 0.384766 35.0367V28.6517C0.384766 27.4151 1.37443 26.4091 2.61103 26.3887C5.89637 26.3315 10.0408 25.2174 12.0916 23.7237C12.8221 23.1951 13.5037 22.6115 14.1526 21.9953C15.4667 20.7464 16.6482 19.3527 17.8318 17.9508C18.797 16.802 19.7642 15.647 20.8008 14.5655C21.2701 14.0778 21.7517 13.6044 22.2496 13.1473C23.4168 12.0699 24.6636 11.0802 25.9696 10.1823C27.5041 9.12327 29.1203 8.18868 30.8017 7.37653C37.0704 4.34217 44.2267 3.00355 51.2096 3.34433C60.9779 3.81978 70.534 7.31734 76.3741 14.7859C77.9903 16.8489 79.3207 19.216 80.29 21.9055C80.3145 21.9749 80.3411 22.0443 80.3655 22.1116C80.5308 22.5748 80.6777 23.0441 80.8124 23.5237C80.841 23.6176 80.8695 23.7155 80.894 23.8114C81.1226 24.5664 81.3144 25.3459 81.4756 26.1438C83.9059 38.1486 79.0983 54.5692 72.0991 63.3865L72.0971 63.3886Z" fill="#231F20"/>
<path d="M21.5624 18.7608C18.879 18.9404 16.2242 17.4324 14.7427 15.1877C13.2613 12.9431 12.892 10.0699 13.445 7.43759C13.998 4.80523 15.4162 2.4096 17.218 0.411865C16.4344 2.27696 17.6914 4.42365 19.3157 5.62963C20.94 6.83562 22.9275 7.48248 24.5376 8.70683C28.935 12.0473 27.123 18.3853 21.5624 18.7588V18.7608Z" fill="#231F20"/>
<path d="M71.2749 17.9201C71.9503 18.5772 72.4666 19.32 73.1298 19.8974C73.7725 20.4913 74.501 20.9565 75.2866 21.2748C76.8579 21.9299 78.6148 22.0176 80.3391 21.9013C80.5554 21.889 80.7718 21.8646 80.9881 21.8421C81.0921 21.8299 81.2145 21.8258 81.3023 21.8054C81.3921 21.7829 81.4798 21.7707 81.5716 21.7442C81.9308 21.6462 82.2961 21.5095 82.643 21.3279C83.3408 20.9749 83.9958 20.4953 84.5162 19.9546C85.0447 19.3975 85.3529 18.8588 85.4998 18.1956C85.6406 17.5426 85.6161 16.8223 85.3733 16.1958C85.2529 15.8836 85.0815 15.5979 84.8591 15.3592C84.6632 15.1429 84.3856 14.9572 84.0836 14.847C83.7837 14.7348 83.4633 14.696 83.1939 14.7429C82.9266 14.7878 82.7164 14.9062 82.5593 15.1021C82.4001 15.2939 82.3042 15.5877 82.3001 15.8979C82.2961 16.2121 82.3736 16.5101 82.5491 16.808C82.8878 17.3998 83.5612 17.8854 84.2979 18.1282C85.7875 18.618 87.6567 18.2282 88.7831 16.9978C89.9054 15.7693 90.289 13.8022 89.6014 12.1616L89.7973 12.0657C90.7094 13.7063 90.5563 15.902 89.3626 17.4814C88.1464 19.0649 85.9671 19.8036 83.9591 19.3159C82.9613 19.0628 81.992 18.5302 81.3268 17.5957C80.6677 16.6549 80.4963 15.2796 81.2227 14.1654C81.5839 13.6104 82.1961 13.2125 82.8144 13.0676C83.4347 12.9166 84.0489 12.9615 84.6141 13.1166C85.1773 13.2798 85.712 13.5471 86.1773 13.9553C86.616 14.3389 86.9751 14.8103 87.2384 15.3204C87.7648 16.3427 87.9342 17.5181 87.7179 18.6425C87.6179 19.2057 87.4037 19.7566 87.1078 20.2607C86.8099 20.7647 86.4364 21.1748 86.0487 21.5401C85.261 22.2604 84.3591 22.7747 83.3878 23.1297C82.9001 23.3011 82.3899 23.4317 81.8533 23.4827C81.7206 23.4991 81.5819 23.5011 81.4472 23.5093L81.084 23.5195C80.8473 23.5256 80.6106 23.5297 80.3738 23.5195C79.425 23.5052 78.4699 23.4195 77.5272 23.2195C76.5865 23.0134 75.6601 22.691 74.8132 22.2155C73.9664 21.7421 73.2196 21.0953 72.6237 20.3607C72.3278 19.9913 72.0625 19.6056 71.8217 19.2138C71.5789 18.822 71.3626 18.4241 71.1055 18.067L71.2667 17.9181L71.2749 17.9201Z" fill="#231F20"/>
<path d="M44.5762 27.2007C44.9272 27.7292 45.3904 28.2638 45.9149 28.874C45.6169 28.6781 45.3537 28.4455 45.119 28.1659C44.8783 27.8782 44.6742 27.5558 44.4946 27.2109C44.8354 27.9027 45.2129 28.6413 45.5108 29.4229C45.0415 28.774 44.7007 27.9945 44.413 27.2252C44.6762 27.9986 44.8885 28.8209 44.9109 29.6208C44.6742 28.8148 44.515 28.0067 44.3293 27.2558C44.4824 28.0088 44.4946 28.776 44.3089 29.4555C44.311 28.6536 44.3028 27.9373 44.2232 27.2803C44.262 27.9394 44.1253 28.523 43.8763 28.9882C44.0008 28.4006 44.0681 27.919 44.0845 27.4701C43.9783 27.666 43.8498 27.9557 43.7131 28.3006C43.5784 28.6597 43.4376 29.0556 43.4008 29.5147C43.3825 29.7412 43.3947 29.9677 43.4376 30.1963C43.4805 30.4167 43.558 30.6329 43.6641 30.8452C43.7702 31.0594 43.9069 31.2635 44.0681 31.4431C44.2273 31.6226 44.411 31.8104 44.6028 31.9491C44.8476 32.1409 45.1782 32.3817 45.5006 32.5919C45.8251 32.8164 46.1454 33.0388 46.325 33.2612C46.3352 32.9674 46.4679 32.6083 46.5985 32.2389C46.725 31.8573 46.8678 31.5022 46.9433 31.186C47.0066 30.9472 47.0617 30.7146 47.078 30.4656C47.0943 30.2167 47.0862 29.9739 47.0515 29.7453C46.9739 29.276 46.7678 28.8536 46.474 28.5128C46.2005 28.1945 45.8924 27.9659 45.6169 27.7843C45.4945 27.7088 45.3639 27.6272 45.2211 27.5394C45.0946 27.4619 44.9905 27.4149 44.8843 27.3517C45.0211 27.4864 45.1639 27.6047 45.3333 27.7414C45.5006 27.872 45.6965 28.0251 45.8985 28.1557C45.6659 28.0945 45.4272 27.9822 45.2047 27.8272C44.9721 27.6557 44.7701 27.468 44.5762 27.2048V27.2007Z" fill="#E2BE74"/>
<path d="M42.0576 34.6466C42.4923 34.061 42.735 33.5162 42.833 32.8917C42.9371 32.2612 42.8799 31.5511 42.8391 30.5757C42.2392 31.7796 41.5822 33.2346 42.0576 34.6466Z" fill="#E2BE74"/>
<path d="M42.952 27.0866C42.6785 27.6396 42.4316 28.3334 42.1725 29.0782C42.1867 28.7354 42.2663 28.3722 42.3888 28.0355C42.5132 27.6906 42.6949 27.3437 42.905 27.0152C42.4745 27.658 42.0235 28.3538 41.495 29.0027C41.8297 28.264 42.3214 27.5967 42.8479 26.9539C42.3051 27.5702 41.7154 28.1477 41.0175 28.5823C41.595 27.9742 42.2194 27.4294 42.7826 26.8887C42.4847 27.1519 42.1807 27.3722 41.8603 27.5559C41.5379 27.7396 41.1971 27.8865 40.8645 27.9742C41.2073 27.7763 41.5338 27.5865 41.8419 27.3947C42.1541 27.1988 42.4439 27.005 42.7051 26.8111C42.4316 26.9886 42.1419 27.1315 41.8705 27.2172C41.7317 27.2621 41.5909 27.2988 41.4522 27.3274C41.3195 27.3498 41.1889 27.3621 41.0583 27.3661C41.3379 27.2764 41.5909 27.1845 41.8235 27.0886C42.0623 26.9886 42.2786 26.8866 42.4704 26.7866C42.3602 26.7866 42.2194 26.807 42.0745 26.8193C41.9276 26.8335 41.7419 26.8642 41.5664 26.8887C41.2052 26.9458 40.7706 27.0315 40.3584 27.2253C39.9503 27.4192 39.6013 27.7171 39.334 28.1191C39.0871 28.5068 38.9136 29.0027 38.8565 29.4802C38.8014 29.7985 38.781 30.1862 38.7484 30.5801C38.7076 30.98 38.6933 31.3494 38.5811 31.6248C38.8402 31.4861 39.2096 31.429 39.6034 31.3473C39.7911 31.3126 39.985 31.2779 40.1727 31.2433C40.3564 31.2086 40.5339 31.1616 40.687 31.1229C41.1563 31.0147 41.6297 30.7902 41.9888 30.4984C42.3582 30.1903 42.6173 29.8128 42.7643 29.3863C42.903 28.9905 42.9479 28.6068 42.9704 28.2762C42.9867 27.9538 42.9928 27.6498 42.9806 27.4335C42.901 27.7722 42.8214 28.2232 42.7908 28.7088C42.7234 28.4905 42.7092 28.2089 42.7296 27.9477C42.7602 27.6661 42.8316 27.3825 42.954 27.0927L42.952 27.0866Z" fill="#E2BE74"/>
<path d="M35.2441 28.617C35.9706 28.7027 36.5522 28.6456 37.1439 28.419C37.7377 28.1966 38.3417 27.7844 39.16 27.2661C38.4723 27.3069 37.7582 27.3661 37.0664 27.5538C36.3808 27.7416 35.7176 28.064 35.2441 28.617Z" fill="#E2BE74"/>
<path d="M42.2398 25.6131C41.9317 25.6356 41.595 25.6784 41.2359 25.7355C40.8869 25.7927 40.5156 25.8641 40.1279 25.9376C40.2829 25.858 40.4421 25.7886 40.6074 25.7335C40.7808 25.6764 40.9584 25.6335 41.14 25.6009C41.5012 25.5356 41.8766 25.5172 42.2786 25.5335C41.5011 25.4825 40.6727 25.4417 39.8483 25.3111C40.6645 25.2295 41.4889 25.3213 42.3031 25.4539C41.4869 25.2907 40.6992 25.0724 39.9809 24.6887C40.7971 24.8846 41.5807 25.1519 42.3255 25.3662C41.5827 25.1193 40.9257 24.752 40.4237 24.252C41.0971 24.6459 41.7644 25.0111 42.35 25.2601C41.7725 24.9723 41.3113 24.5561 41.0481 24.1153C41.4705 24.503 41.8929 24.8193 42.2541 25.0458C42.2072 24.956 42.1113 24.8397 42.0296 24.7193C41.9439 24.5989 41.8358 24.4602 41.7154 24.3112C41.4889 24.0276 41.2012 23.697 40.8257 23.4358C40.4584 23.1807 40.0115 23.0175 39.5401 22.993C39.3075 22.9807 39.0647 22.9991 38.8178 23.042C38.579 23.0889 38.3464 23.1664 38.1158 23.2542C37.8159 23.3664 37.473 23.5439 37.1057 23.7113C36.7609 23.8827 36.4099 24.052 36.1201 24.0929C36.3589 24.2459 36.6241 24.5418 36.8751 24.8397C37.1159 25.1376 37.4016 25.4397 37.6098 25.6641C37.9567 26.0151 38.3586 26.3151 38.8096 26.4783C39.2442 26.6477 39.7177 26.6803 40.1605 26.5967C40.5747 26.5191 40.9196 26.3681 41.2175 26.2232C41.5256 26.0722 41.7583 25.9294 41.9623 25.8049C41.6032 25.909 41.2114 26.0641 40.7543 26.2824C40.9298 26.111 41.1298 25.962 41.391 25.8457C41.6338 25.7294 41.9317 25.6478 42.2398 25.607V25.6131Z" fill="#E2BE74"/>
<path d="M37.0586 19.7097C37.3422 20.3729 37.6871 20.8524 38.183 21.2565C38.6707 21.6585 39.3216 21.9707 40.1888 22.4257C39.4399 21.2953 38.5074 19.9995 37.0586 19.7097Z" fill="#E2BE74"/>
<path d="M43.1563 24.2641C42.8053 23.7356 42.3421 23.201 41.8177 22.5909C42.1156 22.7868 42.3789 23.0194 42.6135 23.299C42.8543 23.5867 43.0584 23.9091 43.238 24.254C42.8972 23.5622 42.5196 22.8235 42.2217 22.042C42.6911 22.6909 43.0319 23.4704 43.3196 24.2397C43.0563 23.4663 42.8441 22.6439 42.8217 21.844C43.0584 22.65 43.2175 23.4581 43.4032 24.2091C43.2502 23.4561 43.238 22.6888 43.4237 22.0093C43.4216 22.8113 43.4298 23.5275 43.5093 24.1846C43.4706 23.5255 43.6073 22.9419 43.8562 22.4766C43.7318 23.0643 43.6645 23.5459 43.6481 23.9948C43.7543 23.7989 43.8828 23.5091 44.0195 23.1643C44.1542 22.8051 44.295 22.4093 44.3317 21.9501C44.3501 21.7236 44.3378 21.4971 44.295 21.2686C44.2521 21.0482 44.1746 20.8319 44.0685 20.6197C43.9624 20.4054 43.8256 20.2014 43.6644 20.0218C43.5053 19.8422 43.3216 19.6545 43.1298 19.5157C42.885 19.3239 42.5543 19.0831 42.2319 18.8729C41.9075 18.6485 41.5871 18.426 41.4075 18.2036C41.3973 18.4975 41.2647 18.8566 41.1341 19.2259C41.0076 19.6075 40.8648 19.9626 40.7893 20.2789C40.726 20.5176 40.6709 20.7503 40.6546 20.9992C40.6382 21.2482 40.6464 21.491 40.6811 21.7195C40.7587 22.1889 40.9647 22.6113 41.2586 22.9521C41.532 23.2704 41.8402 23.4989 42.1157 23.6805C42.2381 23.756 42.3687 23.8377 42.5115 23.9254C42.638 24.003 42.7421 24.0499 42.8482 24.1131C42.7115 23.9785 42.5686 23.8601 42.3993 23.7234C42.2319 23.5928 42.036 23.4398 41.834 23.3092C42.0667 23.3704 42.3054 23.4826 42.5278 23.6377C42.7604 23.8091 42.9625 23.9968 43.1563 24.2601V24.2641Z" fill="#E2BE74"/>
<path d="M45.6742 16.8203C45.2396 17.406 44.9968 17.9508 44.8988 18.5752C44.7947 19.2058 44.8519 19.9159 44.8927 20.8913C45.4926 19.6874 46.1497 18.2324 45.6742 16.8203Z" fill="#E2BE74"/>
<path d="M44.78 24.3786C45.0535 23.8256 45.3004 23.1318 45.5596 22.387C45.5453 22.7298 45.4657 23.093 45.3432 23.4297C45.2188 23.7746 45.0371 24.1215 44.827 24.45C45.2575 23.8072 45.7085 23.1114 46.237 22.4625C45.9024 23.2012 45.4106 23.8685 44.8841 24.5112C45.4269 23.895 46.0166 23.3175 46.7145 22.8829C46.137 23.4909 45.5126 24.0358 44.9494 24.5765C45.2473 24.3133 45.5514 24.0929 45.8718 23.9092C46.1942 23.7256 46.5349 23.5787 46.8676 23.4909C46.5247 23.6889 46.1983 23.8786 45.8902 24.0705C45.5779 24.2664 45.2881 24.4602 45.029 24.6541C45.3024 24.4765 45.5922 24.3337 45.8636 24.248C46.0024 24.2031 46.1432 24.1664 46.2819 24.1378C46.4146 24.1153 46.5452 24.1031 46.6757 24.099C46.3962 24.1888 46.1432 24.2806 45.9105 24.3766C45.6718 24.4765 45.4555 24.5786 45.2637 24.6786C45.3739 24.6786 45.5147 24.6582 45.6595 24.6459C45.8065 24.6316 45.9922 24.601 46.1676 24.5765C46.5288 24.5194 46.9635 24.4337 47.3757 24.2398C47.7838 24.046 48.1327 23.748 48.4 23.346C48.6469 22.9583 48.8204 22.4625 48.8775 21.985C48.9326 21.6667 48.9531 21.2789 48.9857 20.8851C49.0265 20.4852 49.0408 20.1158 49.153 19.8403C48.8939 19.9791 48.5245 20.0362 48.1307 20.1178C47.943 20.1525 47.7491 20.1872 47.5614 20.2219C47.3777 20.2566 47.2002 20.3035 47.0471 20.3423C46.5778 20.4505 46.1044 20.6749 45.7452 20.9667C45.3759 21.2749 45.1168 21.6524 44.9698 22.0788C44.8311 22.4747 44.7862 22.8584 44.7637 23.1889C44.7474 23.5114 44.7413 23.8154 44.7535 24.0317C44.8331 23.693 44.9127 23.242 44.9433 22.7563C45.0106 22.9747 45.0249 23.2563 45.0045 23.5175C44.9739 23.7991 44.9025 24.0827 44.78 24.3725V24.3786Z" fill="#E2BE74"/>
<path d="M52.4891 22.8482C51.7627 22.7625 51.1811 22.8196 50.5893 23.0461C49.9955 23.2685 49.3915 23.6807 48.5732 24.1991C49.2609 24.1562 49.9751 24.0991 50.6669 23.9113C51.3525 23.7236 52.0157 23.4012 52.4891 22.8482Z" fill="#E2BE74"/>
<path d="M45.492 25.854C45.8001 25.8315 46.1368 25.7887 46.496 25.7315C46.8449 25.6744 47.2163 25.603 47.604 25.5295C47.4489 25.6091 47.2897 25.6785 47.1245 25.7336C46.951 25.7907 46.7735 25.8336 46.5919 25.8662C46.2307 25.9315 45.8552 25.9499 45.4532 25.9335C46.2307 25.9846 47.0592 26.0254 47.8835 26.156C47.0673 26.2376 46.243 26.1458 45.4288 26.0131C46.245 26.1764 47.0326 26.3947 47.7509 26.7783C46.9347 26.5824 46.1511 26.3151 45.4063 26.1009C46.1511 26.3478 46.8062 26.7151 47.3081 27.215C46.6347 26.8212 45.9675 26.4559 45.3818 26.207C45.9593 26.4947 46.4205 26.911 46.6837 27.3517C46.2613 26.964 45.8389 26.6477 45.4777 26.4212C45.5247 26.511 45.6205 26.6273 45.7022 26.7477C45.7879 26.8681 45.896 27.0069 46.0164 27.1558C46.2429 27.4395 46.5307 27.7701 46.9061 28.0313C47.2755 28.2863 47.7203 28.4496 48.1917 28.4741C48.4243 28.4863 48.6671 28.4679 48.9141 28.4251C49.1528 28.3782 49.3855 28.3006 49.6161 28.2129C49.916 28.1007 50.2588 27.9231 50.6282 27.7558C50.973 27.5844 51.324 27.415 51.6137 27.3742C51.375 27.2212 51.1097 26.9232 50.8587 26.6273C50.6179 26.3294 50.3323 26.0274 50.1242 25.8029C49.7773 25.452 49.3752 25.152 48.9243 24.9887C48.4896 24.8194 48.0162 24.7867 47.5734 24.8704C47.1592 24.9479 46.8143 25.0989 46.5164 25.2438C46.2082 25.3948 45.9756 25.5377 45.7716 25.6622C46.1307 25.5581 46.5225 25.403 46.9796 25.1846C46.8041 25.356 46.6041 25.505 46.3429 25.6213C46.1001 25.7376 45.8022 25.8193 45.494 25.8601L45.492 25.854Z" fill="#E2BE74"/>
<path d="M50.6732 31.7575C50.3896 31.0943 50.0447 30.6148 49.5489 30.2108C49.0612 29.8088 48.4102 29.4966 47.543 29.0415C48.2919 30.172 49.2244 31.4678 50.6732 31.7575Z" fill="#E2BE74"/>
<path d="M43.866 26.252C44.1522 26.252 44.3843 26.0199 44.3843 25.7336C44.3843 25.4474 44.1522 25.2153 43.866 25.2153C43.5797 25.2153 43.3477 25.4474 43.3477 25.7336C43.3477 26.0199 43.5797 26.252 43.866 26.252Z" fill="#E2BE74"/>
<path d="M68.592 32.1756C68.2431 32.1246 67.9166 32.0429 67.6166 31.9225C67.4656 31.8613 67.3105 31.7675 67.1657 31.6634C67.0187 31.5552 66.8779 31.4348 66.7351 31.2594C66.9861 31.6185 67.2269 31.8838 67.4983 32.196C67.7676 32.5021 68.0594 32.8306 68.3859 33.2387C67.9676 32.9979 67.6166 32.7286 67.3227 32.4368C67.0228 32.1266 66.7698 31.7613 66.5412 31.29C66.9555 32.2348 67.2636 32.951 67.5493 34.0284C66.9432 33.1265 66.6433 32.3796 66.3453 31.3226C66.4596 31.8593 66.527 32.3245 66.5494 32.7939C66.5617 33.0285 66.5617 33.2653 66.5494 33.5122C66.5372 33.753 66.5127 34.0039 66.4739 34.2753C66.2617 33.1775 66.2331 32.4001 66.1331 31.3736C66.1433 31.8899 66.0882 32.3245 65.976 32.7449C65.8638 33.1591 65.6964 33.5407 65.4679 33.9897C65.6311 32.9306 65.8046 32.2878 65.874 31.4083C65.7944 31.8572 65.6454 32.1694 65.4618 32.4776C65.3699 32.6163 65.2679 32.749 65.1557 32.8816C65.0434 33.0184 64.923 33.151 64.7945 33.2795C64.9618 32.9041 65.1046 32.5817 65.2454 32.2674C65.3699 31.9797 65.472 31.7328 65.5536 31.4063C65.5311 31.4552 65.4985 31.5246 65.4597 31.6083C65.4189 31.6879 65.3679 31.7818 65.3067 31.8899C65.1842 32.1042 65.0189 32.3674 64.8332 32.6143C64.4639 33.1387 63.9783 33.6203 63.8497 33.9876C63.6212 34.6467 63.6824 35.2467 64.0721 35.7568C64.4557 36.2506 65.1638 36.6649 66.0556 36.8118C67.0452 36.9955 68.1941 36.72 68.994 36.1037C69.1716 35.9629 69.3368 35.8201 69.4858 35.6752C69.6307 35.5242 69.7552 35.363 69.8654 35.2079C70.0898 34.9038 70.2163 34.5651 70.2755 34.259C70.3367 33.955 70.3061 33.6489 70.202 33.3673C70.098 33.0857 69.9163 32.8286 69.6674 32.5816C69.3695 32.2898 69.0491 32.0858 68.7512 31.9287C68.4471 31.7654 68.1574 31.6348 67.9166 31.5369C67.4207 31.3226 67.0881 31.1981 66.9738 31.1206C67.2003 31.3287 67.4207 31.4614 67.6738 31.6165C67.8105 31.7001 67.9492 31.7838 68.0921 31.8695C68.241 31.9572 68.4043 32.0572 68.592 32.1776V32.1756Z" fill="#E2BE74"/>
<path d="M63.3534 32.7633C63.1024 32.1062 62.9412 31.5063 63.2187 30.6962C62.8779 31.4553 62.7147 32.1368 62.3331 33.1102C62.3433 32.1348 62.5065 31.4165 63.1003 30.537C62.4882 31.3716 62.0209 31.9981 61.2312 32.7837C61.7209 31.796 62.1943 31.1839 62.9677 30.3901C62.1535 31.1226 61.5005 31.5553 60.4762 31.9817C61.3189 31.2471 61.978 30.8329 62.8249 30.2248C62.3698 30.5044 61.9719 30.6676 61.5576 30.7798C61.3515 30.8349 61.1373 30.8798 60.9169 30.9104C60.7027 30.937 60.4761 30.9553 60.2292 30.9655C60.7251 30.7758 61.1332 30.635 61.5128 30.4962C61.8964 30.3574 62.2678 30.2126 62.6596 30.0228C62.4494 30.0983 62.2515 30.1473 62.0597 30.1779C61.8781 30.2024 61.7046 30.2064 61.5332 30.2003C61.1781 30.1922 60.8741 30.1126 60.4965 30.0309C60.9047 29.9881 61.2557 29.9514 61.5964 29.9167C61.9025 29.882 62.1902 29.8351 62.4984 29.7473C62.3963 29.7575 62.2045 29.7738 61.9495 29.7799C61.7107 29.7799 61.4108 29.7636 61.0883 29.733C60.7802 29.6963 60.4557 29.6412 60.1558 29.6004C59.8538 29.5596 59.6048 29.5269 59.413 29.5657C58.7253 29.6983 58.2315 30.0493 57.9927 30.639C57.7356 31.2267 57.7703 32.0328 58.0683 32.8918C58.407 33.8468 59.2232 34.6876 60.1537 35.0753C60.9822 35.4385 61.8005 35.4752 62.3902 35.2691C62.9942 35.0467 63.3677 34.5815 63.5391 33.904C63.7411 33.0898 63.6248 32.398 63.5738 31.8614C63.537 31.6063 63.5146 31.3696 63.4922 31.2002C63.482 31.1186 63.4738 31.0451 63.4656 30.9859C63.4615 30.9227 63.4615 30.8737 63.4615 30.8411C63.3452 31.4288 63.4003 31.8858 63.3534 32.7715V32.7633Z" fill="#E2BE74"/>
<path d="M60.2253 28.5209C60.3314 28.3821 60.462 28.2515 60.5722 28.1332C60.6865 28.0128 60.7987 27.9026 60.9416 27.8026C61.0783 27.7026 61.2211 27.6128 61.3803 27.5394C61.5537 27.4659 61.7415 27.4067 61.9557 27.3659C61.1028 27.4496 60.4681 27.6536 59.4152 27.8108C59.8478 27.57 60.2212 27.3965 60.6456 27.2904C61.064 27.1843 61.4864 27.1435 62.023 27.1843C60.9864 27.07 60.2192 26.9823 59.1397 26.6925C60.2457 26.6211 61.0252 26.7292 62.0904 26.9986C61.0354 26.6558 60.3436 26.313 59.4682 25.6396C60.5252 26.0028 61.215 26.3681 62.1618 26.7945C61.7047 26.5456 61.3394 26.2742 61.0476 25.9763C60.7497 25.6743 60.4783 25.3274 60.2253 24.9172C61.0375 25.5763 61.5354 26.0599 62.2536 26.5538C61.919 26.2681 61.6864 25.9661 61.5394 25.6681C61.4619 25.5171 61.3925 25.358 61.3313 25.1947C61.2782 25.0356 61.2272 24.8682 61.1721 24.6866C61.4109 25.0172 61.617 25.3029 61.8169 25.5804C62.0087 25.8334 62.1822 26.0538 62.4108 26.2763C62.3516 26.1946 62.2455 26.0375 62.1149 25.8212C61.9802 25.6028 61.8618 25.3457 61.7272 25.0499C61.466 24.4744 61.2844 23.801 61.0293 23.5072C60.5681 22.9766 60.0355 22.7419 59.3927 22.8154C59.0724 22.8501 58.7581 22.9868 58.4194 23.1786C58.2521 23.2745 58.101 23.4031 57.9419 23.5398C57.7847 23.6786 57.6215 23.8296 57.4848 24.0071C57.3297 24.203 57.1705 24.4132 57.0522 24.6438C56.9359 24.8764 56.8339 25.1192 56.7522 25.3702C56.6869 25.6253 56.6379 25.8845 56.6094 26.1416C56.5889 26.4007 56.6033 26.6599 56.6277 26.9088C56.7481 27.8067 57.095 28.529 57.5848 28.9351C57.8296 29.1392 58.097 29.2677 58.3867 29.3187C58.6847 29.3698 58.9989 29.3412 59.3376 29.2494C59.7376 29.1392 60.0702 28.9637 60.3702 28.7841C60.6722 28.6025 60.8987 28.4209 61.1252 28.2597C61.5496 27.9352 61.8435 27.7087 61.9537 27.6475C61.6802 27.7434 61.4292 27.8659 61.1742 28.0108C60.9232 28.1556 60.6171 28.3209 60.2274 28.525L60.2253 28.5209Z" fill="#E2BE74"/>
<path d="M62.3398 23.6908C62.6887 23.7418 63.0152 23.8235 63.3152 23.9439C63.4662 24.0051 63.6213 24.0989 63.7662 24.203C63.9131 24.3112 64.0539 24.4316 64.1968 24.607C63.9458 24.2479 63.705 23.9826 63.4336 23.6704C63.1642 23.3643 62.8724 23.0358 62.5459 22.6277C62.9642 22.8685 63.3152 23.1378 63.609 23.4296C63.909 23.7398 64.1621 24.1051 64.3906 24.5764C63.9764 23.6316 63.6682 22.9154 63.3826 21.838C63.9886 22.7399 64.2886 23.4868 64.5865 24.5438C64.4722 24.0071 64.4049 23.5419 64.3824 23.0725C64.3702 22.8379 64.3702 22.6011 64.3824 22.3542C64.3947 22.1134 64.4192 21.8624 64.458 21.5911C64.6702 22.6889 64.6987 23.4664 64.7987 24.4928C64.7885 23.9765 64.8436 23.5419 64.9558 23.1215C65.0681 22.7073 65.2354 22.3257 65.464 21.8767C65.3007 22.9358 65.1273 23.5786 65.0579 24.4581C65.1375 24.0092 65.2864 23.6969 65.4701 23.3888C65.5619 23.2501 65.6639 23.1174 65.7762 22.9848C65.8884 22.8481 66.0088 22.7154 66.1374 22.5869C65.97 22.9623 65.8272 23.2848 65.6864 23.599C65.5619 23.8867 65.4599 24.1336 65.3783 24.4601C65.4007 24.4112 65.4334 24.3418 65.4721 24.2581C65.5129 24.1785 65.5639 24.0847 65.6252 23.9765C65.7476 23.7622 65.9129 23.499 66.0985 23.2521C66.4679 22.7277 66.9536 22.2461 67.0821 21.8788C67.3107 21.2197 67.2495 20.6197 66.8597 20.1096C66.4761 19.6158 65.768 19.2015 64.8762 19.0546C63.8866 18.871 62.7377 19.1464 61.9378 19.7627C61.7603 19.9035 61.595 20.0463 61.4461 20.1912C61.3012 20.3422 61.1767 20.5034 61.0665 20.6585C60.842 20.9626 60.7155 21.3013 60.6563 21.6074C60.5951 21.9114 60.6257 22.2175 60.7298 22.4991C60.8339 22.7807 61.0155 23.0378 61.2644 23.2847C61.5623 23.5766 61.8827 23.7806 62.1806 23.9377C62.4847 24.101 62.7745 24.2316 63.0152 24.3295C63.5111 24.5438 63.8437 24.6683 63.958 24.7458C63.7315 24.5377 63.5111 24.405 63.2581 24.2499C63.1213 24.1663 62.9826 24.0826 62.8418 23.9969C62.6928 23.9092 62.5296 23.8092 62.3418 23.6888L62.3398 23.6908Z" fill="#E2BE74"/>
<path d="M67.5777 23.101C67.8287 23.758 67.9899 24.358 67.7124 25.1681C68.0531 24.409 68.2164 23.7275 68.598 22.7541C68.5878 23.7295 68.4245 24.4478 67.8307 25.3273C68.4429 24.4927 68.9102 23.8662 69.6999 23.0806C69.2102 24.0682 68.7367 24.6804 67.9634 25.4742C68.7776 24.7416 69.4305 24.309 70.4549 23.8825C69.6121 24.6171 68.953 25.0314 68.1062 25.6395C68.5612 25.3599 68.9591 25.1967 69.3734 25.0844C69.5795 25.0293 69.7938 24.9844 70.0142 24.9538C70.2284 24.9273 70.4549 24.909 70.7018 24.8987C70.2059 25.0885 69.7978 25.2293 69.4183 25.3681C69.0346 25.5068 68.6633 25.6517 68.2715 25.8415C68.4817 25.766 68.6796 25.717 68.8714 25.6864C69.053 25.6619 69.2265 25.6578 69.3979 25.664C69.753 25.6721 70.057 25.7517 70.4345 25.8333C70.0264 25.8762 69.6754 25.9129 69.3346 25.9476C69.0285 25.9823 68.7408 26.0292 68.4327 26.117C68.5347 26.1068 68.7265 26.0904 68.9816 26.0843C69.2204 26.0843 69.5203 26.1006 69.8427 26.1312C70.1509 26.168 70.4753 26.2231 70.7753 26.2639C71.0773 26.3047 71.3262 26.3374 71.518 26.2986C72.2057 26.1659 72.6995 25.815 72.9383 25.2252C73.1954 24.6375 73.1607 23.8315 72.8628 22.9724C72.5241 22.0174 71.7078 21.1767 70.7773 20.789C69.9489 20.4258 69.1306 20.389 68.5409 20.5951C67.9368 20.8176 67.5634 21.2828 67.392 21.9603C67.192 22.7745 67.3063 23.4663 67.3573 24.0029C67.394 24.258 67.4165 24.4947 67.4389 24.6641C67.4491 24.7457 67.4573 24.8191 67.4655 24.8783C67.4696 24.9416 67.4696 24.9906 67.4696 25.0232C67.5859 24.4355 67.5307 23.9784 67.5777 23.0928V23.101Z" fill="#E2BE74"/>
<path d="M70.706 27.3454C70.5999 27.4842 70.4713 27.6148 70.3591 27.7331C70.2448 27.8535 70.1326 27.9637 69.9897 28.0637C69.853 28.1637 69.7102 28.2535 69.551 28.3269C69.3776 28.4004 69.1898 28.4596 68.9756 28.5004C69.8306 28.4167 70.4631 28.2127 71.5161 28.0556C71.0835 28.2963 70.71 28.4698 70.2856 28.5759C69.8673 28.682 69.4449 28.7228 68.9082 28.682C69.9448 28.7963 70.7121 28.884 71.7916 29.1738C70.6856 29.2452 69.9061 29.1371 68.8409 28.8677C69.8959 29.2105 70.5856 29.5533 71.463 30.2267C70.406 29.8635 69.7163 29.4982 68.7695 29.0718C69.2265 29.3207 69.5918 29.5921 69.8836 29.89C70.1815 30.192 70.4529 30.5389 70.706 30.9491C69.8938 30.29 69.3959 29.8064 68.6776 29.3126C69.0123 29.5982 69.2449 29.9002 69.3918 30.1982C69.4694 30.3492 69.5388 30.5083 69.6 30.6716C69.653 30.8307 69.7041 30.9981 69.7592 31.1797C69.5204 30.8491 69.3143 30.5634 69.1143 30.2859C68.9225 30.0329 68.7491 29.8125 68.5205 29.5901C68.5797 29.6717 68.6858 29.8288 68.8164 30.0451C68.9511 30.2635 69.0694 30.5206 69.2041 30.8165C69.4653 31.3919 69.6469 32.0653 69.902 32.3591C70.3632 32.8897 70.8958 33.1244 71.5385 33.0509C71.8589 33.0162 72.1732 32.8795 72.5119 32.6877C72.6792 32.5918 72.8302 32.4632 72.9894 32.3265C73.1465 32.1877 73.3097 32.0367 73.4465 31.8592C73.6015 31.6633 73.7607 31.4531 73.8791 31.2225C73.9954 30.9899 74.0974 30.7471 74.179 30.4961C74.2443 30.241 74.2933 29.9819 74.3219 29.7247C74.3423 29.4656 74.328 29.2064 74.3035 28.9575C74.1832 28.0617 73.8362 27.3373 73.3465 26.9312C73.1016 26.7271 72.8343 26.5986 72.5445 26.5476C72.2466 26.4965 71.9324 26.5251 71.5936 26.6169C71.1937 26.7271 70.8611 26.9026 70.5611 27.0822C70.2591 27.2638 70.0326 27.4454 69.8061 27.6066C69.3816 27.9311 69.0878 28.1576 68.9776 28.2188C69.251 28.1229 69.502 28.0005 69.7571 27.8556C70.0081 27.7107 70.3142 27.5454 70.7039 27.3413L70.706 27.3454Z" fill="#E2BE74"/>
<path d="M66.5713 27.9332C66.5713 28.5433 66.0755 29.0391 65.4654 29.0391C64.8552 29.0391 64.3594 28.5433 64.3594 27.9332C64.3594 27.323 64.8552 26.8271 65.4654 26.8271C66.0755 26.8271 66.5713 27.323 66.5713 27.9332Z" fill="#E2BE74"/>
<path d="M75.542 31.1269C75.2298 31.4085 74.9605 31.6779 74.4707 31.8248C74.9421 31.7452 75.3115 31.6493 75.889 31.6493C75.3788 31.8554 74.9911 31.9982 74.4156 31.986C74.9748 32.035 75.387 32.1186 75.9604 32.3064C75.3727 32.3268 74.9319 32.29 74.3565 32.1513C74.9177 32.3492 75.289 32.5635 75.7788 32.9043C75.1952 32.7451 74.8095 32.5757 74.2994 32.3349C74.7891 32.6431 75.0686 32.9634 75.4074 33.3756C74.9095 33.0859 74.6401 32.8451 74.234 32.5573C74.6075 32.9246 74.7136 33.2634 74.9177 33.6572C74.5422 33.3226 74.3912 33.0838 74.1279 32.8226C74.1973 32.9349 74.385 33.2409 74.5748 33.5491C74.7646 33.8592 74.9707 34.1857 75.1523 34.2878C75.4829 34.4735 75.8032 34.4918 76.1134 34.3755C76.4256 34.2612 76.6909 33.998 76.948 33.6613C77.2051 33.2756 77.3663 32.7879 77.3214 32.3166C77.3051 32.1064 77.2827 31.9125 77.2214 31.733C77.1602 31.5554 77.0827 31.3983 76.9827 31.2677C76.7848 31.0085 76.5052 30.8596 76.1236 30.8453C75.6727 30.829 75.3033 31.0065 75.0339 31.182C74.7727 31.3595 74.5769 31.5391 74.5055 31.5881C74.8483 31.4493 75.0686 31.2718 75.542 31.1289V31.1269Z" fill="#E2BE74"/>
<path d="M73.7405 35.6589C73.314 35.7507 72.9712 35.8854 72.4631 35.7854C72.9284 35.9426 73.2855 36.0119 73.7977 36.2792C73.2651 36.2384 72.8467 36.1792 72.3345 35.8976C72.81 36.2017 73.1385 36.4649 73.5609 36.8955C73.0242 36.6363 72.659 36.4098 72.2101 36.0181C72.6141 36.4507 72.8569 36.822 73.1283 37.3465C72.6835 36.9343 72.4243 36.6098 72.0815 36.1588C72.3733 36.6547 72.459 37.0526 72.5794 37.5893C72.2733 37.0996 72.1366 36.7486 71.9182 36.316C72.0733 36.8037 72.0346 37.1751 72.0121 37.5975C71.8448 37.1322 71.8244 36.8608 71.7061 36.4996C71.7122 36.5649 71.7224 36.6853 71.7346 36.8343C71.7428 36.9833 71.7529 37.1608 71.7631 37.3383C71.7876 37.7015 71.8203 38.0974 71.9264 38.2708C72.1284 38.5953 72.3958 38.7626 72.7223 38.7994C73.0467 38.8361 73.4344 38.7524 73.8037 38.5504C74.2363 38.3443 74.573 37.9525 74.773 37.5322C74.9281 37.1363 75.0118 36.771 74.9526 36.4486C74.8894 36.1242 74.7077 35.8609 74.3792 35.6711C73.9854 35.4446 73.5915 35.4426 73.265 35.4712C72.9365 35.4977 72.6916 35.5773 72.6059 35.5895C72.961 35.612 73.2528 35.565 73.7405 35.661V35.6589Z" fill="#E2BE74"/>
<path d="M70.0222 38.7221C69.6263 38.5915 69.2691 38.5017 68.9018 38.1426C69.1998 38.518 69.463 38.7895 69.7487 39.2874C69.3222 38.9568 69.008 38.6792 68.7366 38.1691C68.9672 38.6833 69.0957 39.0833 69.2141 39.6751C68.908 39.1669 68.7264 38.7731 68.5652 38.2018C68.6672 38.7874 68.6631 39.22 68.6039 39.8118C68.457 39.2261 68.4183 38.8058 68.3795 38.2426C68.3509 38.82 68.204 39.2119 68.0122 39.7179C68.0203 39.1445 68.0979 38.7772 68.153 38.2916C68.0122 38.7935 67.7693 39.0649 67.5244 39.4261C67.6326 38.9384 67.7673 38.6915 67.8673 38.3303C67.802 38.4466 67.6245 38.7588 67.4469 39.0731C67.2694 39.3975 67.0878 39.7404 67.0919 39.9485C67.1 40.7035 67.6816 41.1035 68.5141 41.1933C68.9753 41.2443 69.4773 41.1239 69.8752 40.8647C70.2323 40.6382 70.5037 40.3403 70.6303 40.0342C70.7588 39.7302 70.7425 39.4139 70.5588 39.0813C70.3405 38.6854 70.0017 38.4568 69.7222 38.3099C69.4446 38.1691 69.1998 38.0936 69.1222 38.0569C69.4079 38.2813 69.663 38.3875 70.0201 38.7221H70.0222Z" fill="#E2BE74"/>
<path d="M65.1534 39.4667C64.8248 39.181 64.5044 38.9647 64.2596 38.5035C64.431 38.9606 64.5881 39.3075 64.6718 39.8748C64.3922 39.4116 64.178 39.0443 64.08 38.4729C64.1351 39.0361 64.1208 39.4545 64.0351 40.0524C63.9147 39.4688 63.8658 39.0402 63.8943 38.4464C63.8005 39.0341 63.6535 39.4443 63.4148 39.9871C63.4556 39.383 63.5454 38.9729 63.6903 38.428C63.474 38.9668 63.2087 39.2932 62.8781 39.7218C63.0536 39.1749 63.2372 38.8484 63.4454 38.4015C63.1474 38.8341 62.8312 39.0259 62.4924 39.3014C62.7353 38.8668 62.9393 38.6688 63.1475 38.3525C63.0515 38.4423 62.7863 38.6831 62.519 38.9402C62.2537 39.2014 61.9864 39.4789 61.9313 39.6789C61.7231 40.4074 62.1802 40.9502 62.921 41.2787C63.3311 41.4583 63.8127 41.5053 64.2433 41.3951C65.0207 41.2032 65.5513 40.7645 65.5043 40.0095C65.4411 39.1157 64.6432 38.6301 64.5228 38.5035C64.7289 38.8096 64.9493 39.0178 65.1554 39.4687L65.1534 39.4667Z" fill="#E2BE74"/>
<path d="M60.2375 38.6547C60.0294 38.2772 59.8111 37.9732 59.7682 37.4589C59.7478 37.9446 59.7723 38.316 59.6539 38.8812C59.5519 38.3507 59.4947 37.9324 59.6233 37.3692C59.4621 37.9079 59.2968 38.2956 58.9969 38.818C59.0969 38.2364 59.2193 37.8181 59.4723 37.2794C59.1662 37.7875 58.8785 38.114 58.4459 38.5221C58.7214 37.9814 58.9642 37.6447 59.305 37.1896C58.905 37.6079 58.5438 37.8059 58.0643 38.0589C58.4479 37.6385 58.752 37.4039 59.1091 37.0753C58.6765 37.3651 58.3214 37.4079 57.897 37.5181C58.303 37.2263 58.5663 37.1263 58.8724 36.9243C58.7479 36.9692 58.4133 37.0876 58.0766 37.2059C57.7337 37.3263 57.3664 37.461 57.2276 37.6161C56.7175 38.1711 56.8849 38.8731 57.4685 39.4995C57.7909 39.8505 58.25 40.0832 58.7112 40.1485C59.5478 40.2648 60.2089 40.0056 60.3926 39.273C60.5069 38.8343 60.4048 38.4486 60.2906 38.1405C60.1702 37.8405 60.0314 37.6161 59.9947 37.5385C60.0661 37.8956 60.1947 38.1568 60.2355 38.6506L60.2375 38.6547Z" fill="#E2BE74"/>
<path d="M56.2179 35.9245C56.2179 35.4959 56.1771 35.1246 56.3913 34.6552C56.1383 35.0674 55.9709 35.4082 55.5975 35.8408C55.7648 35.3307 55.922 34.9348 56.3056 34.5083C55.9016 34.9001 55.569 35.1552 55.0527 35.4674C55.4261 35.0082 55.7383 34.7022 56.2199 34.3573C55.7036 34.6511 55.2955 34.796 54.716 34.9409C55.218 34.6042 55.5975 34.4267 56.1158 34.1961C55.5608 34.3675 55.1507 34.3593 54.6058 34.3512C55.1466 34.1696 55.524 34.1124 55.9975 34.0002C55.4771 34.041 55.1445 33.9063 54.7221 33.7961C55.22 33.7349 55.4955 33.7778 55.8648 33.7492C55.7342 33.7268 55.3832 33.6676 55.0323 33.6084C54.6752 33.5472 54.2875 33.488 54.0916 33.5574C53.3753 33.7961 53.1856 34.494 53.3896 35.3205C53.4998 35.7775 53.7834 36.2081 54.1589 36.4897C54.8364 37.0019 55.5465 37.0998 56.0546 36.5448C56.3627 36.2142 56.4688 35.8224 56.5096 35.5062C56.5607 35.1797 56.5362 34.9266 56.5485 34.8389C56.4423 35.1797 56.4178 35.4755 56.2179 35.9224V35.9245Z" fill="#E2BE74"/>
<path d="M21.6299 49.2368C21.5055 49.4715 21.3463 49.5776 21.1729 49.5286C21.3463 49.5796 21.5218 49.6225 21.7014 49.6633L21.9707 49.7184C22.0625 49.7409 22.1503 49.7429 22.2421 49.7531C22.0034 49.4756 21.8034 49.2878 21.6299 49.2368Z" fill="#E2BE74"/>
<path d="M22.4891 48.6798C22.4503 49.143 22.3646 49.5083 22.2422 49.7531C22.4238 49.7715 22.6074 49.7899 22.7911 49.8001C22.9768 49.8143 23.1584 49.8062 23.3441 49.8021C23.0074 49.3328 22.7299 48.9655 22.4891 48.6777V48.6798Z" fill="#E2BE74"/>
<path d="M23.2803 48.1002C23.3231 48.4348 23.3455 48.7348 23.3537 49.0185C23.3639 49.3021 23.3599 49.5633 23.3415 49.802C23.5252 49.7939 23.7149 49.7939 23.8986 49.7735C24.0822 49.7531 24.2659 49.7245 24.4516 49.698L23.2803 48.0981V48.1002Z" fill="#E2BE74"/>
<path d="M24.0107 47.4984C24.225 48.3024 24.374 49.0472 24.4515 49.7002C24.6393 49.6777 24.8229 49.643 25.0025 49.5961C25.1841 49.5532 25.3677 49.5104 25.5514 49.4614C24.9698 48.7533 24.4576 48.0922 24.0107 47.4963V47.4984Z" fill="#E2BE74"/>
<path d="M24.6924 46.8779C25.0474 47.784 25.3352 48.6532 25.5535 49.4634C25.7331 49.4103 25.9106 49.3491 26.0902 49.2878C26.2698 49.2266 26.4514 49.1675 26.6207 49.0899C25.9167 48.3267 25.2678 47.5779 24.6944 46.88L24.6924 46.8779Z" fill="#E2BE74"/>
<path d="M25.3291 46.2412C25.827 47.2187 26.2575 48.1716 26.6187 49.0878C26.7922 49.0144 26.9656 48.9368 27.1391 48.8593C27.3166 48.7858 27.4758 48.6899 27.6451 48.6001C26.8065 47.792 26.0392 47.0126 25.3291 46.2412Z" fill="#E2BE74"/>
<path d="M25.9248 45.5884C26.2472 46.1026 26.5492 46.6046 26.8349 47.1086C27.1206 47.6106 27.3899 48.1105 27.643 48.6023C27.8083 48.5125 27.9776 48.4228 28.1409 48.3228C28.3 48.2207 28.4612 48.1187 28.6184 48.0126C27.6552 47.1964 26.7574 46.3842 25.9248 45.5884Z" fill="#E2BE74"/>
<path d="M26.4806 44.9087C27.2621 45.9514 27.9763 46.986 28.6191 48.0124C28.7783 47.9083 28.9374 47.8002 29.0843 47.6839L29.5353 47.3329C28.4558 46.531 27.4356 45.7188 26.4785 44.9107L26.4806 44.9087Z" fill="#E2BE74"/>
<path d="M27.0029 44.219C27.9049 45.2454 28.7578 46.2922 29.5373 47.3329C29.6863 47.2146 29.8251 47.084 29.9679 46.9575C30.1087 46.8289 30.2535 46.7044 30.3862 46.5657C29.2108 45.8045 28.0742 45.0128 27.005 44.219H27.0029Z" fill="#E2BE74"/>
<path d="M27.4922 43.5129C28.5084 44.5108 29.4736 45.529 30.3837 46.5656L30.7796 46.1514C30.9143 46.0147 31.0367 45.8698 31.1571 45.7208C29.8919 45.0128 28.6696 44.2761 27.4922 43.5129Z" fill="#E2BE74"/>
<path d="M27.9512 42.7927C29.0633 43.7396 30.1346 44.717 31.159 45.721L31.5222 45.2761C31.6385 45.1251 31.7467 44.968 31.8589 44.8109C30.5162 44.1701 29.2163 43.4988 27.9532 42.7927H27.9512Z" fill="#E2BE74"/>
<path d="M28.3721 42.0562C29.5801 42.9438 30.7351 43.858 31.8574 44.8109C31.9676 44.6538 32.0818 44.5008 32.1798 44.3355L32.4777 43.8437C31.0779 43.2887 29.7066 42.6908 28.3721 42.0562Z" fill="#E2BE74"/>
<path d="M28.7599 41.3071C30.0291 42.1091 31.2779 42.96 32.4778 43.8436C32.5798 43.6803 32.6656 43.5089 32.7533 43.3375L33.0125 42.8233C31.5718 42.3642 30.1495 41.8581 28.7578 41.3071H28.7599Z" fill="#E2BE74"/>
<path d="M29.1183 40.5359C30.4324 41.2542 31.7343 42.0173 33.0138 42.8234L33.2382 42.303C33.3117 42.1296 33.3872 41.9541 33.4463 41.7766C31.9996 41.4113 30.5487 40.997 29.1162 40.5379L29.1183 40.5359Z" fill="#E2BE74"/>
<path d="M29.4551 39.7422C30.7917 40.3748 32.1262 41.0543 33.4485 41.7766L33.6362 41.2441C33.6995 41.0665 33.7444 40.8849 33.7995 40.7053C32.3507 40.4299 30.908 40.1136 29.4571 39.7442L29.4551 39.7422Z" fill="#E2BE74"/>
<path d="M29.7656 38.928C31.1104 39.4769 32.451 40.0666 33.7978 40.7033C33.8468 40.5217 33.9039 40.3421 33.9447 40.1605L34.0651 39.6136C32.6408 39.43 31.2063 39.2014 29.7677 38.928H29.7656Z" fill="#E2BE74"/>
<path d="M30.0527 38.0933C31.3791 38.5585 32.7218 39.0646 34.0645 39.6135C34.1461 39.2503 34.1911 38.8809 34.2482 38.5157C32.8708 38.4177 31.4689 38.2769 30.0527 38.0953V38.0933Z" fill="#E2BE74"/>
<path d="M30.3203 37.2403C31.6018 37.624 32.9159 38.0504 34.2464 38.5136C34.2688 38.33 34.2852 38.1463 34.3015 37.9627C34.3178 37.779 34.3362 37.5954 34.3423 37.4117C33.0404 37.3934 31.6916 37.3362 30.3224 37.2383L30.3203 37.2403Z" fill="#E2BE74"/>
<path d="M30.5762 36.3689C31.7944 36.6811 33.0534 37.028 34.3431 37.4137L34.3594 36.8647C34.3676 36.6831 34.3594 36.4995 34.3553 36.3179C33.1392 36.3689 31.8821 36.3893 30.5762 36.3689Z" fill="#E2BE74"/>
<path d="M30.8145 35.4773C31.947 35.7263 33.1305 36.0038 34.3549 36.318C34.3508 35.9548 34.3284 35.5916 34.2916 35.2324C33.1877 35.3426 32.0245 35.4263 30.8145 35.4793V35.4773Z" fill="#E2BE74"/>
<path d="M31.0371 34.5653C32.0676 34.7612 33.1532 34.9815 34.2898 35.2305C34.2633 34.8693 34.2021 34.5122 34.151 34.1592C33.1777 34.3183 32.137 34.4551 31.0371 34.5673V34.5653Z" fill="#E2BE74"/>
<path d="M31.2529 33.6345C32.1487 33.7895 33.1242 33.963 34.1506 34.1589C34.1241 33.9814 34.0853 33.8059 34.0506 33.6304C34.0118 33.4549 33.9812 33.2794 33.9343 33.106C33.1221 33.2978 32.2202 33.4773 31.2529 33.6345Z" fill="#E2BE74"/>
<path d="M31.4648 32.6816L33.934 33.104C33.8421 32.7571 33.7565 32.4122 33.6381 32.0735C33.0076 32.2837 32.279 32.4898 31.4648 32.6816Z" fill="#E2BE74"/>
<path d="M31.6777 31.7083C32.2369 31.8266 32.8939 31.945 33.6388 32.0735C33.5816 31.9042 33.5265 31.7348 33.4673 31.5675C33.4041 31.4001 33.3347 31.2349 33.2694 31.0696C32.8388 31.2818 32.3124 31.4961 31.6777 31.7083Z" fill="#E2BE74"/>
<path d="M31.8956 30.7104C32.2486 30.8349 32.7057 30.9512 33.2689 31.0696C33.1363 30.739 32.9832 30.4145 32.8179 30.0962C32.6302 30.29 32.316 30.4982 31.8936 30.7104H31.8956Z" fill="#E2BE74"/>
<path d="M32.1309 29.6881C32.2329 29.8391 32.4717 29.9717 32.8206 30.0962C32.7431 29.9371 32.6492 29.7799 32.5614 29.6228C32.4696 29.4677 32.3737 29.3126 32.2717 29.1616C32.3717 29.3126 32.3166 29.4922 32.1309 29.6861V29.6881Z" fill="#E2BE74"/>
<path d="M22.2686 45.1703C22.0911 45.1703 21.9482 45.0274 21.9482 44.8499C21.9482 44.6724 22.0911 44.5295 22.2686 44.5295C22.4462 44.5295 22.589 44.6724 22.589 44.8499C22.589 45.0274 22.4462 45.1703 22.2686 45.1703Z" fill="#E2BE74"/>
<path d="M23.6235 43.5602C23.3276 43.5602 23.0889 43.3215 23.0889 43.0256C23.0889 42.7297 23.3276 42.491 23.6235 42.491C23.9194 42.491 24.1581 42.7297 24.1581 43.0256C24.1581 43.3215 23.9194 43.5602 23.6235 43.5602Z" fill="#E2BE74"/>
<path d="M24.7396 41.7175C24.3703 41.7175 24.0703 41.4175 24.0703 41.0482C24.0703 40.6789 24.3703 40.3789 24.7396 40.3789C25.109 40.3789 25.4089 40.6789 25.4089 41.0482C25.4089 41.4175 25.109 41.7175 24.7396 41.7175Z" fill="#E2BE74"/>
<path d="M25.6107 39.6893C26.0187 39.6893 26.3495 39.3586 26.3495 38.9506C26.3495 38.5426 26.0187 38.2119 25.6107 38.2119C25.2028 38.2119 24.8721 38.5426 24.8721 38.9506C24.8721 39.3586 25.2028 39.6893 25.6107 39.6893Z" fill="#E2BE74"/>
<path d="M26.2296 37.5181C25.8133 37.5181 25.4746 37.1814 25.4746 36.7631C25.4746 36.3447 25.8113 36.0081 26.2296 36.0081C26.6479 36.0081 26.9846 36.3447 26.9846 36.7631C26.9846 37.1814 26.6479 37.5181 26.2296 37.5181Z" fill="#E2BE74"/>
<path d="M26.5882 35.2368C26.1944 35.2368 25.874 34.9164 25.874 34.5226C25.874 34.1287 26.1944 33.8083 26.5882 33.8083C26.9821 33.8083 27.3024 34.1287 27.3024 34.5226C27.3024 34.9164 26.9821 35.2368 26.5882 35.2368Z" fill="#E2BE74"/>
<path d="M26.6796 32.8656C26.3409 32.8656 26.0654 32.5902 26.0654 32.2514C26.0654 31.9127 26.3409 31.6372 26.6796 31.6372C27.0184 31.6372 27.2939 31.9127 27.2939 32.2514C27.2939 32.5902 27.0184 32.8656 26.6796 32.8656Z" fill="#E2BE74"/>
<path d="M26.4947 30.4353C26.2478 30.4353 26.0479 30.2353 26.0479 29.9884C26.0479 29.7415 26.2478 29.5415 26.4947 29.5415C26.7416 29.5415 26.9416 29.7415 26.9416 29.9884C26.9416 30.2353 26.7416 30.4353 26.4947 30.4353Z" fill="#E2BE74"/>
<path d="M26.0206 27.9517C25.9186 27.9517 25.835 27.8681 25.835 27.766C25.835 27.664 25.9186 27.5803 26.0206 27.5803C26.1227 27.5803 26.2063 27.664 26.2063 27.766C26.2063 27.8681 26.1227 27.9517 26.0206 27.9517Z" fill="#E2BE74"/>
<path d="M29.4368 30.9084C29.2572 30.9084 29.1123 30.7636 29.1123 30.584C29.1123 30.4044 29.2572 30.2595 29.4368 30.2595C29.6163 30.2595 29.7612 30.4044 29.7612 30.584C29.7612 30.7636 29.6163 30.9084 29.4368 30.9084Z" fill="#E2BE74"/>
<path d="M29.4412 29.5657C29.1677 29.5657 28.9453 29.3433 28.9453 29.0698C28.9453 28.7964 29.1677 28.574 29.4412 28.574C29.7146 28.574 29.937 28.7964 29.937 29.0698C29.937 29.3433 29.7146 29.5657 29.4412 29.5657Z" fill="#E2BE74"/>
<path d="M29.2556 28.1291C29.5666 28.1291 29.8188 27.8769 29.8188 27.5659C29.8188 27.2548 29.5666 27.0027 29.2556 27.0027C28.9445 27.0027 28.6924 27.2548 28.6924 27.5659C28.6924 27.8769 28.9445 28.1291 29.2556 28.1291Z" fill="#E2BE74"/>
<path d="M28.8816 26.6395C28.5817 26.6395 28.3389 26.3967 28.3389 26.0968C28.3389 25.7968 28.5817 25.554 28.8816 25.554C29.1816 25.554 29.4244 25.7968 29.4244 26.0968C29.4244 26.3967 29.1816 26.6395 28.8816 26.6395Z" fill="#E2BE74"/>
<path d="M28.3307 25.1111C28.096 25.1111 27.9062 24.9213 27.9062 24.6866C27.9062 24.452 28.096 24.2622 28.3307 24.2622C28.5654 24.2622 28.7551 24.452 28.7551 24.6866C28.7551 24.9213 28.5654 25.1111 28.3307 25.1111Z" fill="#E2BE74"/>
<path d="M27.6026 23.5419C27.5005 23.5419 27.4189 23.4602 27.4189 23.3582C27.4189 23.2562 27.5005 23.1746 27.6026 23.1746C27.7046 23.1746 27.7862 23.2562 27.7862 23.3582C27.7862 23.4602 27.7046 23.5419 27.6026 23.5419Z" fill="#E2BE74"/>
<path d="M16.8672 31.2288C15.749 31.2288 14.8389 30.3187 14.8389 29.2005C14.8389 28.0822 15.749 27.1721 16.8672 27.1721C17.9854 27.1721 18.8956 28.0822 18.8956 29.2005C18.8956 30.3187 17.9854 31.2288 16.8672 31.2288ZM16.8672 27.5517C15.9571 27.5517 15.2184 28.2924 15.2184 29.2005C15.2184 30.1085 15.9591 30.8493 16.8672 30.8493C17.7753 30.8493 18.516 30.1085 18.516 29.2005C18.516 28.2924 17.7753 27.5517 16.8672 27.5517Z" fill="#E2BE74"/>
<path d="M16.2343 30.4901C16.9003 30.4901 17.4403 29.9502 17.4403 29.2841C17.4403 28.6181 16.9003 28.0781 16.2343 28.0781C15.5682 28.0781 15.0283 28.6181 15.0283 29.2841C15.0283 29.9502 15.5682 30.4901 16.2343 30.4901Z" fill="#E2BE74"/>
<path d="M7.28223 26.0764C7.91277 26.3907 8.39844 26.9661 8.72289 27.5987C9.04735 28.2374 9.21878 28.9434 9.26368 29.6495C9.30653 30.3535 9.22691 31.0473 9.06774 31.7085C8.90245 32.3716 8.6678 33.0022 8.3209 33.6103C8.20255 32.9206 8.1944 32.2533 8.18011 31.6064C8.17195 30.9596 8.16583 30.3331 8.13114 29.7189C8.09441 29.1087 8.02091 28.5068 7.88827 27.9068C7.75768 27.3049 7.56791 26.7151 7.28427 26.0764H7.28223Z" fill="#E2BE74"/>
<path d="M9.69629 25.7336C10.2309 25.9826 10.6533 26.4458 10.9614 26.956C11.2675 27.4702 11.4634 28.0436 11.5675 28.6272C11.6716 29.2108 11.6818 29.8087 11.5981 30.3923C11.5083 30.9718 11.3349 31.5473 11.0125 32.0391C11.0308 31.4555 11.0349 30.9086 11.0043 30.3637C10.9757 29.8209 10.9145 29.2863 10.8227 28.7598C10.7288 28.2334 10.6044 27.7171 10.4268 27.2131C10.2513 26.707 10.0207 26.2234 9.69833 25.7357L9.69629 25.7336Z" fill="#E2BE74"/>
<path d="M23.2824 12.5514C23.311 13.1003 23.2212 13.641 23.0355 14.1593C22.8478 14.6756 22.5559 15.1531 22.1376 15.498C21.8764 15.7143 21.5642 15.8796 21.203 15.9734C20.8459 16.0632 20.4541 16.0795 20.0297 16.0061C18.7196 15.7694 17.8177 14.8083 17.3055 13.6737C16.7852 12.535 16.6484 11.2189 16.6668 10.1557C16.6668 9.65169 16.6219 8.87219 16.6117 8.11105C16.6056 7.33971 16.679 6.59284 16.726 6.10718C16.8607 6.58672 17.2361 7.20093 17.7136 7.68863C17.9646 7.9335 18.2074 8.15593 18.4646 8.33346C18.7094 8.51508 18.9502 8.65588 19.1523 8.74771C20.0664 9.16603 21.1051 9.56802 21.8968 10.119C22.6947 10.6781 23.2293 11.3739 23.2844 12.5493L23.2824 12.5514ZM20.4317 11.9943C20.2419 11.9453 19.9705 11.827 19.7093 11.68C19.442 11.5372 19.1931 11.3637 19.0421 11.2229C19.1339 11.4086 19.2318 11.7004 19.3277 11.9902C19.4175 12.284 19.5012 12.582 19.5359 12.7799C19.6012 13.2003 19.7175 13.7023 19.9522 14.1308C20.0746 14.341 20.2195 14.5348 20.4031 14.6838C20.5908 14.8287 20.8092 14.9327 21.0643 14.9674C21.3989 15.0062 21.6907 14.9184 21.9172 14.747C22.2764 14.4736 22.4723 13.9961 22.4192 13.5227C22.3641 13.0023 22.0907 12.6922 21.7112 12.4677C21.3357 12.2432 20.8521 12.1106 20.4297 11.9963L20.4317 11.9943Z" fill="#E2BE74"/>
<path d="M49.2448 37.1486C49.0714 37.1486 48.9326 37.0078 48.9326 36.8364C48.9326 36.665 49.0734 36.5242 49.2448 36.5242C49.4162 36.5242 49.557 36.665 49.557 36.8364C49.557 37.0078 49.4162 37.1486 49.2448 37.1486Z" fill="#E2BE74"/>
<path d="M50.1328 39.4483C49.843 39.4483 49.6084 39.2136 49.6084 38.9239C49.6084 38.6341 49.843 38.3994 50.1328 38.3994C50.4226 38.3994 50.6572 38.6341 50.6572 38.9239C50.6572 39.2136 50.4226 39.4483 50.1328 39.4483Z" fill="#E2BE74"/>
<path d="M51.331 41.5135C50.9678 41.5135 50.6719 41.2176 50.6719 40.8544C50.6719 40.4912 50.9678 40.1953 51.331 40.1953C51.6942 40.1953 51.9901 40.4912 51.9901 40.8544C51.9901 41.2176 51.6942 41.5135 51.331 41.5135Z" fill="#E2BE74"/>
<path d="M52.8059 43.3132C52.3998 43.3132 52.0713 42.9847 52.0713 42.5786C52.0713 42.1725 52.3998 41.844 52.8059 41.844C53.212 41.844 53.5406 42.1725 53.5406 42.5786C53.5406 42.9847 53.212 43.3132 52.8059 43.3132Z" fill="#E2BE74"/>
<path d="M54.5344 44.809C54.1161 44.809 53.7773 44.4703 53.7773 44.052C53.7773 43.6337 54.1161 43.2949 54.5344 43.2949C54.9527 43.2949 55.2914 43.6337 55.2914 44.052C55.2914 44.4703 54.9527 44.809 54.5344 44.809Z" fill="#E2BE74"/>
<path d="M56.4745 45.9578C56.8757 45.9578 57.201 45.6325 57.201 45.2313C57.201 44.8301 56.8757 44.5049 56.4745 44.5049C56.0733 44.5049 55.748 44.8301 55.748 45.2313C55.748 45.6325 56.0733 45.9578 56.4745 45.9578Z" fill="#E2BE74"/>
<path d="M58.5744 46.7351C58.9282 46.7351 59.2151 46.4482 59.2151 46.0944C59.2151 45.7405 58.9282 45.4536 58.5744 45.4536C58.2205 45.4536 57.9336 45.7405 57.9336 46.0944C57.9336 46.4482 58.2205 46.7351 58.5744 46.7351Z" fill="#E2BE74"/>
<path d="M60.7828 47.1208C60.5114 47.1208 60.291 46.9004 60.291 46.629C60.291 46.3576 60.5114 46.1372 60.7828 46.1372C61.0542 46.1372 61.2746 46.3576 61.2746 46.629C61.2746 46.9004 61.0542 47.1208 60.7828 47.1208Z" fill="#E2BE74"/>
<path d="M63.0455 47.0841C62.9006 47.0841 62.7822 46.9657 62.7822 46.8209C62.7822 46.676 62.9006 46.5576 63.0455 46.5576C63.1904 46.5576 63.3087 46.676 63.3087 46.8209C63.3087 46.9657 63.1904 47.0841 63.0455 47.0841Z" fill="#E2BE74"/>
<path d="M57.0196 15.7101C57.2278 15.9917 57.5012 16.2672 57.8379 16.5019C58.8562 17.212 60.4274 16.7182 60.4274 16.7182C60.4274 16.7182 60.3478 15.0735 59.3296 14.3634C58.9908 14.1267 58.6399 13.9654 58.3032 13.8675C58.5848 13.6593 58.8603 13.3859 59.0949 13.0492C59.8051 12.031 59.3112 10.4597 59.3112 10.4597C59.3112 10.4597 57.6665 10.5393 56.9564 11.5576C56.7197 11.8963 56.5585 12.2473 56.4605 12.5839C56.2524 12.3023 55.9789 12.0269 55.6422 11.7922C54.624 11.0821 53.0527 11.5759 53.0527 11.5759C53.0527 11.5759 53.1323 13.2206 54.1506 13.9308C54.4893 14.1675 54.8403 14.3287 55.177 14.4266C54.8954 14.6347 54.6199 14.9082 54.3852 15.2449C53.6751 16.2631 54.1689 17.8344 54.1689 17.8344C54.1689 17.8344 55.8136 17.7548 56.5238 16.7366C56.7605 16.3978 56.9217 16.0468 57.0196 15.7101ZM59.3296 15.6795C59.4316 15.7509 59.4561 15.8918 59.3847 15.9917C59.3133 16.0938 59.1745 16.1183 59.0725 16.0468C58.9704 15.9754 58.9459 15.8367 59.0174 15.7346C59.0888 15.6326 59.2276 15.6081 59.3296 15.6795ZM58.348 11.9779C58.246 11.9065 58.2215 11.7677 58.2929 11.6657C58.3644 11.5637 58.5031 11.5392 58.6052 11.6106C58.7072 11.682 58.7317 11.8208 58.6603 11.9228C58.5888 12.0248 58.448 12.0493 58.348 11.9779ZM54.2771 12.7023C54.1751 12.6309 54.1506 12.4901 54.222 12.3901C54.2934 12.2881 54.4342 12.2636 54.5342 12.335C54.6362 12.4064 54.6607 12.5452 54.5893 12.6472C54.5179 12.7492 54.3791 12.7737 54.2771 12.7023ZM56.7401 14.147C56.03 14.2736 55.2953 13.7124 54.7872 12.7839C55.8341 12.9411 56.6136 13.4369 56.7401 14.147C56.6136 13.4369 57.1747 12.7023 58.1032 12.1942C57.9461 13.241 57.4502 14.0205 56.7401 14.147C57.4502 14.0205 58.1848 14.5817 58.6929 15.5102C57.6461 15.353 56.8666 14.8572 56.7401 14.147C56.8666 14.8572 56.3055 15.5918 55.377 16.0999C55.5341 15.0531 56.03 14.2736 56.7401 14.147ZM55.0015 16.7733C54.8995 16.7019 54.875 16.5631 54.9464 16.4611C55.0178 16.359 55.1586 16.3346 55.2586 16.406C55.3606 16.4774 55.3851 16.6162 55.3137 16.7182C55.2423 16.8202 55.1035 16.8447 55.0015 16.7733Z" fill="#E2BE74"/>
<path d="M47.0737 52.0857C47.141 51.6144 47.1145 51.1083 46.9819 50.6818C46.8411 50.2431 46.5962 49.8839 46.2677 49.6289C45.9636 49.3901 45.6351 49.2493 45.3371 49.1555C45.1902 49.1106 45.0474 49.0759 44.9066 49.0432C44.7658 49.0106 44.6474 49.0003 44.525 48.982C44.6882 49.0656 44.8494 49.133 45.0413 49.2126C45.231 49.2901 45.4433 49.3717 45.6616 49.4432C45.4249 49.4595 45.1596 49.4228 44.9086 49.3473C44.6434 49.2595 44.4005 49.1473 44.1516 48.9636C44.6026 49.3493 45.1474 49.7207 45.7493 50.1594C45.4228 50.0574 45.1229 49.9166 44.8372 49.7207C44.5474 49.5207 44.2863 49.2799 44.0455 49.0106C44.5005 49.5574 44.9821 50.1533 45.3943 50.8083C44.8229 50.3288 44.3516 49.6982 43.9414 49.0595C44.1332 49.3942 44.3108 49.737 44.4577 50.0921L46.7921 54.1284C46.7594 53.8529 46.8329 53.4999 46.9003 53.1305C46.9635 52.753 47.0451 52.3959 47.0737 52.0837V52.0857Z" fill="#E2BE74"/>
<path d="M49.1796 48.4596C49.4142 48.2719 49.7285 48.0188 50.0121 47.7719C50.2958 47.525 50.5856 47.2862 50.8406 47.1842C50.8325 47.1801 50.8222 47.174 50.8141 47.1699H46.1513C46.5186 47.2189 46.8819 47.2985 47.2369 47.4189C46.4635 47.4005 45.7044 47.2985 44.9943 47.2271C45.3473 47.2862 45.6922 47.3781 46.0228 47.5087C46.337 47.6372 46.637 47.8025 46.9125 48.0045C46.2146 47.7556 45.5718 47.5291 44.9902 47.3801C45.278 47.4842 45.533 47.6168 45.7738 47.7821C45.9942 47.9413 46.1962 48.1311 46.3533 48.331C45.8922 48.029 45.4739 47.8005 45.1066 47.6311C45.1698 47.7331 45.2474 47.8393 45.3535 47.9576C45.4494 48.0719 45.5575 48.1943 45.6901 48.3188C45.9534 48.5677 46.2493 48.8208 46.6452 48.982C47.0308 49.1391 47.4757 49.1799 47.9124 49.0779C48.3633 48.9861 48.7939 48.7493 49.1857 48.4596H49.1796Z" fill="#E2BE74"/>
<path d="M46.9414 49.5818C47.2312 49.8654 47.4658 50.2491 47.5801 50.6613C47.6393 50.8674 47.6862 51.0939 47.7046 51.3122C47.7209 51.5305 47.7189 51.753 47.7046 51.9713C47.6985 52.1386 47.6638 52.3835 47.6331 52.6651C48.4188 52.4896 49.2493 51.8672 49.7044 51C50.1227 50.2246 50.2104 49.3104 50.0166 48.6023C49.7717 48.7859 49.5329 48.9533 49.3881 49.0533C49.2187 49.1778 49.0146 49.2859 48.8167 49.3798C48.6147 49.4736 48.4147 49.5512 48.1963 49.5981C47.7658 49.6961 47.3475 49.6981 46.9414 49.5797V49.5818Z" fill="#E2BE74"/>
<path d="M40.6642 53.3549C40.8826 53.2732 41.105 53.1467 41.3029 53.0182C41.5008 52.8896 41.6825 52.7427 41.8355 52.5692C42.1436 52.2305 42.3293 51.8489 42.3885 51.4286C42.4436 51.0429 42.3987 50.698 42.3314 50.3838C42.2967 50.2287 42.2559 50.0858 42.211 49.9593C42.1682 49.8267 42.1232 49.6981 42.0763 49.5941C42.0885 49.7655 42.1049 49.9532 42.1314 50.1613C42.1579 50.3634 42.1967 50.5735 42.2416 50.8062C41.9722 50.4164 41.8437 49.8471 41.9049 49.2676C41.8008 49.8308 41.7396 50.5225 41.6661 51.2408C41.5845 50.9286 41.5662 50.5735 41.5927 50.2348C41.6172 49.8981 41.6988 49.543 41.8151 49.1961C41.5641 49.8695 41.2887 50.5837 40.9275 51.2653C41.0642 50.5164 41.3682 49.8124 41.7171 49.137C41.5213 49.4716 41.3152 49.792 41.0805 50.0961L38.7461 54.1323C38.9624 53.9773 39.3113 53.8507 39.6664 53.7262C40.0174 53.612 40.3826 53.4732 40.6601 53.3589L40.6642 53.3549Z" fill="#E2BE74"/>
<path d="M44.8562 53.363C45.1398 53.4793 45.5132 53.6242 45.8703 53.7405C46.2295 53.869 46.5845 53.9996 46.7947 54.1608C46.7947 54.1506 46.7947 54.1404 46.7947 54.1302L44.4603 50.0939C44.6052 50.4429 44.7215 50.802 44.7908 51.1632C44.4195 50.4817 44.1297 49.7777 43.8359 49.1267C44.0889 49.794 44.2052 50.5041 44.1195 51.1673C43.9868 50.4368 43.8685 49.7838 43.6992 49.19C43.8134 49.798 43.7501 50.3694 43.5604 50.849C43.5889 50.2878 43.5869 49.8348 43.5441 49.4165C43.4339 49.6287 43.3298 49.9266 43.238 50.2674C43.1523 50.6184 43.0829 51.0122 43.14 51.4305C43.1971 51.8509 43.3829 52.2366 43.6889 52.5733C43.7644 52.6569 43.8481 52.7406 43.9379 52.8181C44.0256 52.8895 44.1215 52.9589 44.2195 53.0242C44.4174 53.1507 44.6399 53.2813 44.8582 53.363H44.8562Z" fill="#E2BE74"/>
<path d="M42.7658 51.9917C42.6637 52.3855 42.4515 52.7569 42.1515 53.0855C41.8556 53.3895 41.4679 53.6691 41.0782 53.8425C40.9333 53.9099 40.6945 54.0343 40.4395 54.1323C40.9884 54.72 41.9495 55.124 42.9188 55.0893C43.7942 55.0771 44.6329 54.6832 45.1471 54.1629C44.8675 54.0547 44.6023 53.9201 44.4431 53.8446C44.0574 53.6711 43.6718 53.3895 43.3759 53.0875C43.0759 52.7569 42.8657 52.3876 42.7637 51.9937L42.7658 51.9917Z" fill="#E2BE74"/>
<path d="M36.3588 48.4371C36.7485 48.7289 37.1771 48.9656 37.6281 49.0595C38.0647 49.1615 38.5055 49.1248 38.8952 48.9677C39.2585 48.8228 39.5319 48.6106 39.7666 48.3984C40.0074 48.1821 40.1767 47.9739 40.3298 47.7821C40.0319 47.976 39.7156 48.2208 39.3585 48.533C39.4727 48.3167 39.6156 48.1147 39.8217 47.9311C40.0115 47.7515 40.2604 47.5923 40.5298 47.4719C40.2584 47.5699 39.9625 47.6903 39.6543 47.825C39.338 47.9658 39.0197 48.1086 38.6994 48.2535C38.8198 48.1392 38.9483 48.0351 39.085 47.9413C39.2258 47.8454 39.3788 47.7617 39.536 47.6862C39.8502 47.5372 40.1787 47.4332 40.544 47.3597C39.8318 47.4801 39.0809 47.5985 38.3055 47.625C39.0279 47.3699 39.791 47.2781 40.5522 47.2414C40.1665 47.2414 39.7788 47.2209 39.3952 47.1699H34.7324C34.9855 47.2801 35.2691 47.5168 35.5466 47.7597C35.8221 48.0045 36.1302 48.2514 36.3608 48.4371H36.3588Z" fill="#E2BE74"/>
<path d="M38.4502 52.0692C38.4788 52.3855 38.5604 52.7549 38.6257 53.1385C38.693 53.514 38.7645 53.8731 38.7236 54.1466C38.7318 54.1425 38.742 54.1364 38.7502 54.1302L41.0846 50.094C40.8561 50.3898 40.6051 50.6674 40.3214 50.9163C40.7255 50.2572 41.1927 49.6511 41.6151 49.0675C41.3846 49.3471 41.1295 49.6063 40.8601 49.8144C40.5908 50.0246 40.2867 50.2123 39.9847 50.3347C40.5397 49.8695 41.0683 49.4144 41.4886 48.9859C41.2601 49.1777 40.9989 49.3512 40.7499 49.4614C40.6234 49.5185 40.4928 49.5675 40.3622 49.6083C40.2337 49.6471 40.1092 49.6695 39.9827 49.6879C40.2296 49.5634 40.4479 49.4471 40.654 49.3247C40.8622 49.2002 41.0479 49.0798 41.2131 48.9614C40.9683 48.9737 40.6643 49.0247 40.3174 49.1206C39.9807 49.2145 39.5949 49.3593 39.2623 49.6185C38.9338 49.8736 38.689 50.2307 38.5441 50.6694C38.4135 51.0938 38.3808 51.6019 38.4481 52.0733L38.4502 52.0692Z" fill="#E2BE74"/>
<path d="M38.5954 49.5736C38.1893 49.6899 37.773 49.6859 37.3404 49.5899C37.12 49.543 36.9221 49.4634 36.718 49.3696C36.516 49.2757 36.3161 49.1655 36.1447 49.039C36.012 48.9472 35.8018 48.7982 35.5733 48.6309C35.3427 49.4002 35.4692 50.4347 35.9916 51.2591C36.4548 52.006 37.1853 52.5488 37.9057 52.7222C37.873 52.4141 37.8343 52.1427 37.8281 51.957C37.8159 51.7407 37.8139 51.5183 37.8281 51.302C37.8486 51.0816 37.8934 50.8592 37.9546 50.651C38.0689 50.2409 38.3056 49.8573 38.5954 49.5736Z" fill="#E2BE74"/>
<path d="M38.4683 42.2541C38.401 42.7254 38.4275 43.2315 38.5601 43.658C38.7009 44.0967 38.9458 44.4559 39.2743 44.7109C39.5784 44.9497 39.9069 45.0905 40.2048 45.1843C40.3518 45.2292 40.4946 45.2639 40.6354 45.2966C40.7762 45.3292 40.8946 45.3394 41.017 45.3578C40.8537 45.2741 40.6925 45.2068 40.5007 45.1272C40.3109 45.0497 40.0987 44.9681 39.8804 44.8966C40.1171 44.8803 40.3824 44.917 40.6334 44.9925C40.8987 45.0803 41.1415 45.1925 41.3904 45.3762C40.9395 44.9905 40.3946 44.6191 39.7926 44.1804C40.1191 44.2824 40.4191 44.4232 40.7048 44.6191C40.9945 44.8191 41.2558 45.0599 41.4966 45.3292C41.0415 44.7824 40.5599 44.1865 40.1477 43.5315C40.7191 44.011 41.1905 44.6416 41.6006 45.2803C41.4088 44.9456 41.2313 44.6028 41.0844 44.2477L38.7499 40.2114C38.7805 40.4869 38.7091 40.8399 38.6418 41.2093C38.5785 41.5868 38.4969 41.9439 38.4683 42.2561V42.2541Z" fill="#E2BE74"/>
<path d="M36.3612 45.8781C36.1265 46.0658 35.8123 46.3189 35.5287 46.5658C35.245 46.8127 34.9553 47.0514 34.7002 47.1535C34.7084 47.1575 34.7185 47.1637 34.7267 47.1678H39.3895C39.0222 47.1188 38.6589 47.0392 38.3039 46.9188C39.0793 46.9371 39.8363 47.0392 40.5465 47.1106C40.1934 47.0514 39.8486 46.9596 39.518 46.829C39.2037 46.7005 38.9038 46.5352 38.6283 46.3331C39.3262 46.5821 39.969 46.8086 40.5505 46.9576C40.2628 46.8535 40.0078 46.7209 39.767 46.5556C39.5466 46.3964 39.3446 46.2066 39.1874 46.0066C39.6486 46.3087 40.067 46.5372 40.4343 46.7066C40.371 46.6045 40.2934 46.4984 40.1873 46.3801C40.0914 46.2658 39.9833 46.1434 39.8506 46.0189C39.5874 45.7699 39.2915 45.5169 38.8957 45.3557C38.51 45.1986 38.0651 45.1578 37.6285 45.2598C37.1775 45.3516 36.7469 45.5883 36.3571 45.8781H36.3612Z" fill="#E2BE74"/>
<path d="M38.5991 44.7557C38.3093 44.472 38.0747 44.0884 37.9604 43.6762C37.9012 43.4701 37.8543 43.2436 37.8359 43.0253C37.8196 42.8069 37.8216 42.5845 37.8359 42.3662C37.842 42.1988 37.8767 41.954 37.9073 41.6724C37.1217 41.8479 36.2912 42.4702 35.8362 43.3375C35.4179 44.1129 35.3301 45.0271 35.524 45.7352C35.7688 45.5515 36.0075 45.3842 36.1524 45.2842C36.3218 45.1597 36.5238 45.0516 36.7238 44.9577C36.9258 44.8638 37.1258 44.7863 37.3441 44.7394C37.7747 44.6414 38.193 44.6394 38.5991 44.7577V44.7557Z" fill="#E2BE74"/>
<path d="M44.876 40.985C44.6576 41.0666 44.4352 41.1931 44.2373 41.3217C44.0393 41.4503 43.8577 41.5972 43.7047 41.7706C43.3965 42.1094 43.2109 42.4909 43.1517 42.9113C43.0966 43.297 43.1415 43.6418 43.2088 43.9561C43.2435 44.1112 43.2843 44.254 43.3292 44.3805C43.3721 44.5132 43.417 44.6417 43.4639 44.7458C43.4516 44.5744 43.4353 44.3867 43.4088 44.1785C43.3823 43.9765 43.3435 43.7663 43.2986 43.5337C43.568 43.9234 43.6965 44.4928 43.6353 45.0723C43.7394 44.5091 43.8006 43.8173 43.8741 43.099C43.9557 43.4112 43.9741 43.7663 43.9475 44.1051C43.923 44.4418 43.8414 44.7968 43.7251 45.1437C43.9761 44.4703 44.2516 43.7561 44.6128 43.0746C44.476 43.8234 44.172 44.5275 43.823 45.2029C44.0189 44.8682 44.2251 44.5479 44.4597 44.2438L46.7941 40.2075C46.5778 40.3626 46.2289 40.4891 45.8738 40.6136C45.5229 40.7279 45.1576 40.8666 44.88 40.9809L44.876 40.985Z" fill="#E2BE74"/>
<path d="M40.6866 40.9768C40.403 40.8605 40.0295 40.7156 39.6724 40.5993C39.3132 40.4707 38.9582 40.3402 38.748 40.179C38.748 40.1892 38.748 40.1993 38.748 40.2095L41.0825 44.2458C40.9376 43.8969 40.8212 43.5377 40.7519 43.1766C41.1233 43.8581 41.4131 44.5621 41.7069 45.2131C41.4539 44.5458 41.3375 43.8357 41.4232 43.1725C41.5559 43.903 41.6742 44.556 41.8436 45.1498C41.7293 44.5417 41.7926 43.9704 41.9823 43.4908C41.9538 44.052 41.9558 44.505 41.9987 44.9233C42.1089 44.7111 42.2129 44.4111 42.3048 44.0724C42.3905 43.7214 42.4599 43.3276 42.4027 42.9093C42.3456 42.4889 42.1599 42.1032 41.8538 41.7665C41.7783 41.6828 41.6947 41.5992 41.6049 41.5217C41.5171 41.4482 41.4212 41.3808 41.3232 41.3156C41.1253 41.189 40.9029 41.0584 40.6846 40.9768H40.6866Z" fill="#E2BE74"/>
<path d="M42.774 42.346C42.876 41.9522 43.0882 41.5808 43.3882 41.2523C43.6841 40.9482 44.0718 40.6687 44.4615 40.4952C44.6064 40.4279 44.8452 40.3034 45.1002 40.2055C44.5513 39.6178 43.5902 39.2137 42.6209 39.2484C41.7455 39.2607 40.9068 39.6545 40.3926 40.1748C40.6721 40.283 40.9375 40.4177 41.0966 40.4932C41.4823 40.6666 41.868 40.9482 42.1638 41.2502C42.4638 41.5808 42.674 41.9502 42.776 42.344L42.774 42.346Z" fill="#E2BE74"/>
<path d="M49.1836 45.9025C48.7939 45.6107 48.3654 45.374 47.9144 45.2801C47.4777 45.1781 47.037 45.2148 46.6472 45.3719C46.284 45.5168 46.0105 45.729 45.7759 45.9413C45.5351 46.1576 45.3657 46.3657 45.2127 46.5575C45.5106 46.3636 45.8269 46.1188 46.184 45.8066C46.0697 46.0229 45.9269 46.2249 45.7208 46.4085C45.531 46.5881 45.2821 46.7473 45.0127 46.8677C45.2841 46.7697 45.58 46.6493 45.8881 46.5147C46.2044 46.3739 46.5227 46.231 46.8431 46.0861C46.7227 46.2004 46.5941 46.3045 46.4574 46.3984C46.3166 46.4943 46.1636 46.5779 46.0064 46.6534C45.6922 46.8024 45.3637 46.9065 44.9984 46.9799C45.7106 46.8595 46.4615 46.7412 47.2369 46.7146C46.5146 46.9697 45.7514 47.0615 44.9902 47.0983C45.3759 47.0983 45.7637 47.1187 46.1473 47.1697H50.81C50.557 47.0595 50.2733 46.8228 49.9958 46.58C49.7203 46.3351 49.4122 46.0882 49.1816 45.9025H49.1836Z" fill="#E2BE74"/>
<path d="M47.0898 42.2682C47.0612 41.952 46.9795 41.5826 46.9142 41.199C46.8469 40.8235 46.7755 40.4644 46.8163 40.1909C46.8081 40.195 46.798 40.2011 46.7898 40.2072L44.4554 44.2435C44.6839 43.9476 44.9349 43.6701 45.2186 43.4212C44.8145 44.0803 44.3472 44.6863 43.9248 45.2699C44.1554 44.9904 44.4105 44.7312 44.6798 44.5231C44.9492 44.3129 45.2532 44.1252 45.5552 44.0027C45.0002 44.468 44.4717 44.923 44.0513 45.3516C44.2799 45.1598 44.5411 44.9863 44.79 44.8761C44.9165 44.819 45.0472 44.77 45.1778 44.7292C45.3063 44.6904 45.4308 44.668 45.5573 44.6496C45.3104 44.7741 45.092 44.8904 44.8859 45.0128C44.6778 45.1373 44.4921 45.2577 44.3268 45.3761C44.5717 45.3638 44.8757 45.3128 45.2226 45.2169C45.5593 45.123 45.945 44.9781 46.2776 44.719C46.6061 44.4639 46.851 44.1068 46.9959 43.6681C47.1265 43.2436 47.1591 42.7355 47.0918 42.2642L47.0898 42.2682Z" fill="#E2BE74"/>
<path d="M46.9473 44.7639C47.3533 44.6476 47.7696 44.6516 48.2022 44.7475C48.4226 44.7945 48.6205 44.8741 48.8246 44.9679C49.0266 45.0618 49.2266 45.172 49.398 45.2985C49.5307 45.3903 49.7408 45.5393 49.9694 45.7066C50.2 44.9373 50.0734 43.9027 49.5511 43.0783C49.0878 42.3315 48.3573 41.7887 47.637 41.6152C47.6696 41.9234 47.7084 42.1948 47.7145 42.3805C47.7268 42.5968 47.7288 42.8192 47.7145 43.0355C47.6941 43.2559 47.6492 43.4783 47.588 43.6864C47.4737 44.0966 47.237 44.4802 46.9473 44.7639Z" fill="#E2BE74"/>
<path d="M42.77 47.978C43.2163 47.978 43.578 47.6162 43.578 47.1699C43.578 46.7236 43.2163 46.3618 42.77 46.3618C42.3237 46.3618 41.9619 46.7236 41.9619 47.1699C41.9619 47.6162 42.3237 47.978 42.77 47.978Z" fill="#E2BE74"/>
<path d="M51.7363 55.8342C53.3912 55.9281 55.0441 55.7016 56.5807 55.1915C57.3479 54.9343 58.1009 54.6181 58.76 54.2038C59.4171 53.7916 59.9884 53.259 60.2925 52.6469C60.6047 52.0367 60.6027 51.3654 60.3313 50.8062C60.2027 50.5287 60.0048 50.3022 59.7864 50.1471C59.5681 50.0002 59.3212 49.9186 59.0519 49.9084C58.7866 49.8941 58.5213 49.9614 58.3213 50.0737C58.2193 50.1288 58.1377 50.2022 58.0724 50.2757C58.0071 50.3512 57.9622 50.4226 57.9275 50.5185C57.8561 50.7022 57.8377 50.9327 57.8866 51.1266C57.9274 51.3266 58.0397 51.4531 58.1315 51.5143C58.658 51.8653 58.8008 52.5795 58.4478 53.106C58.0968 53.6325 57.3826 53.7753 56.8562 53.4223C56.7909 53.3794 56.7317 53.3304 56.6786 53.2774L56.5766 53.1733C56.0726 52.6611 55.8093 51.9959 55.7685 51.3715C55.7196 50.743 55.8563 50.1267 56.1726 49.5778C56.3256 49.3064 56.546 49.0493 56.7868 48.8493C57.0276 48.6493 57.2969 48.4881 57.5745 48.382C58.1315 48.1657 58.7172 48.1188 59.2702 48.2167C59.8232 48.3065 60.3639 48.5657 60.7843 48.9432C61.1945 49.3227 61.4904 49.7921 61.6536 50.2879C61.823 50.7838 61.8719 51.3082 61.8046 51.8184C61.7332 52.3367 61.5413 52.806 61.274 53.2162C60.7312 54.0365 59.9558 54.567 59.1722 54.9486C58.3764 55.3282 57.5561 55.5608 56.7296 55.7383C55.0727 56.0852 53.3708 56.1138 51.7363 55.8322V55.8342Z" fill="#E2BE74"/>
<path d="M56.7932 55.575C58.6543 55.0057 60.3112 53.8813 61.5274 52.4284C62.1334 51.6979 62.6212 50.8694 63.1823 50.0552C63.4639 49.6491 63.7638 49.2451 64.1067 48.8655C64.4495 48.4819 64.8372 48.137 65.2474 47.8289C65.6616 47.5208 66.1126 47.2453 66.6125 47.0372C67.1104 46.8311 67.6594 46.6903 68.2328 46.6821C68.8205 46.6658 69.4122 46.8168 69.9346 47.0882C70.457 47.3616 70.9324 47.7738 71.2589 48.3329C71.4201 48.6125 71.5324 48.9329 71.5854 49.2655C71.6426 49.596 71.6242 49.9634 71.5365 50.2878C71.363 50.949 70.9692 51.5142 70.4325 51.9141C69.9019 52.3121 69.1796 52.5549 68.4389 52.4549C67.7063 52.3549 67.0778 51.9692 66.6227 51.455L66.5962 51.4265C66.2493 51.0326 66.2881 50.4327 66.6819 50.0878C67.0757 49.7409 67.6757 49.7797 68.0205 50.1735C68.041 50.198 68.0634 50.2246 68.0818 50.249C68.245 50.4796 68.4878 50.649 68.7184 50.7041C68.9429 50.7612 69.2204 50.7143 69.4816 50.5592C69.7428 50.4041 69.9571 50.1429 70.055 49.8715C70.106 49.7328 70.1285 49.6042 70.1162 49.4532C70.106 49.3063 70.0734 49.1532 70.004 49.0063C69.7326 48.4023 68.9694 47.9085 68.2124 47.8697C67.4084 47.8146 66.5493 48.1268 65.782 48.6125C65.3943 48.8594 65.029 49.1328 64.6964 49.4491C64.3597 49.7654 64.0496 50.1164 63.7455 50.4857C63.1395 51.2244 62.5722 52.0346 61.8743 52.7488C60.4765 54.167 58.6889 55.1607 56.7871 55.577L56.7932 55.575Z" fill="#E2BE74"/>
<path d="M46.8433 6.2439C46.6209 6.31736 46.3985 6.35205 46.1699 6.34797L47.5289 6.37041C47.2983 6.29083 47.0698 6.24798 46.8413 6.2439H46.8433Z" fill="#E2BE74"/>
<path d="M48.1984 6.0542C47.976 6.195 47.7536 6.29092 47.5332 6.36846C47.7597 6.36846 47.9842 6.38479 48.2107 6.39907L48.8861 6.43987C48.6596 6.27254 48.429 6.14399 48.1984 6.0542Z" fill="#E2BE74"/>
<path d="M49.5613 5.91748C49.3327 6.1195 49.1083 6.30314 48.8838 6.4419C49.1083 6.45618 49.3327 6.46435 49.5572 6.49291L50.2286 6.56433C50.0102 6.3113 49.7878 6.09501 49.5592 5.91748H49.5613Z" fill="#E2BE74"/>
<path d="M50.9345 5.83383C50.6937 6.11135 50.459 6.36029 50.2305 6.56435C50.4529 6.58884 50.6774 6.60927 50.8998 6.63783L51.565 6.73782C51.363 6.39704 51.1529 6.09706 50.9366 5.83179L50.9345 5.83383Z" fill="#E2BE74"/>
<path d="M52.3144 5.80722C52.0533 6.15616 51.8043 6.46634 51.5635 6.73774L52.2267 6.83772C52.4471 6.8765 52.6654 6.92343 52.8837 6.96424C52.7939 6.75202 52.7021 6.54796 52.6083 6.35615C52.5124 6.16433 52.4165 5.97659 52.3144 5.80518V5.80722Z" fill="#E2BE74"/>
<path d="M53.7 5.83984C53.4143 6.25204 53.145 6.62751 52.8838 6.96625L53.5389 7.09481C53.7572 7.13562 53.9714 7.19684 54.1878 7.24785C54.0388 6.74179 53.8756 6.26225 53.698 5.83984H53.7Z" fill="#E2BE74"/>
<path d="M55.0873 5.93173C54.771 6.40719 54.4731 6.84593 54.1895 7.24792L54.8363 7.40503C55.0526 7.45196 55.2628 7.52338 55.4771 7.58256C55.3648 6.99487 55.2363 6.43371 55.0873 5.92969V5.93173Z" fill="#E2BE74"/>
<path d="M56.4744 6.08057L55.4766 7.58244L56.1132 7.76814C56.3254 7.82527 56.5336 7.90281 56.7438 7.97219C56.6764 7.30492 56.5887 6.66621 56.4764 6.08057H56.4744Z" fill="#E2BE74"/>
<path d="M57.8604 6.29077L56.7422 7.97221L57.3687 8.18444C57.5788 8.24974 57.7808 8.33749 57.9869 8.41503C57.9706 7.6743 57.9298 6.956 57.8604 6.29077Z" fill="#E2BE74"/>
<path d="M59.2423 6.56226L57.9873 8.41512L58.6015 8.65184C58.8076 8.72734 59.0056 8.82323 59.2056 8.90893C59.2443 8.09678 59.2586 7.30095 59.2423 6.56226Z" fill="#E2BE74"/>
<path d="M60.6131 6.89282C60.1152 7.59478 59.6458 8.26815 59.2051 8.9089L59.805 9.1701C60.005 9.25784 60.1988 9.35988 60.3947 9.45374C60.4967 8.57017 60.5702 7.7111 60.611 6.89282H60.6131Z" fill="#E2BE74"/>
<path d="M61.9739 7.28467C61.4169 8.0356 60.8904 8.76001 60.3945 9.45381L60.9822 9.7395L61.5577 10.0476C61.7291 9.09876 61.8678 8.17844 61.9739 7.28467Z" fill="#E2BE74"/>
<path d="M63.3207 7.73959C62.7024 8.5293 62.1127 9.30473 61.5576 10.0475C61.7474 10.1516 61.9413 10.2475 62.129 10.3577L62.6902 10.6862C62.9371 9.67816 63.1452 8.69458 63.3207 7.73755V7.73959Z" fill="#E2BE74"/>
<path d="M64.6515 8.25391C63.9658 9.08238 63.3087 9.89863 62.6904 10.6883C62.8761 10.7985 63.0639 10.9046 63.2455 11.025L63.7903 11.374C64.1148 10.3108 64.4025 9.27012 64.6515 8.25391Z" fill="#E2BE74"/>
<path d="M65.9612 8.8252C65.2001 9.69449 64.4798 10.5393 63.79 11.3718C63.9737 11.4841 64.1492 11.6106 64.3267 11.733L64.8573 12.1003C65.2654 10.9882 65.6347 9.89446 65.9632 8.8252H65.9612Z" fill="#E2BE74"/>
<path d="M67.2511 9.45386C66.4104 10.3558 65.6146 11.2373 64.8555 12.1005C65.0289 12.227 65.2003 12.3576 65.3717 12.4862C65.5411 12.6168 65.7186 12.7372 65.8839 12.8759C66.388 11.7087 66.8369 10.5762 67.2511 9.45386Z" fill="#E2BE74"/>
<path d="M68.5162 10.1353C67.5959 11.0658 66.7185 11.9779 65.8818 12.8737L66.3818 13.2757C66.5491 13.4063 66.7103 13.5471 66.8715 13.6879C67.4653 12.486 68.0142 11.2963 68.5142 10.1353H68.5162Z" fill="#E2BE74"/>
<path d="M69.7594 10.8721C68.7534 11.825 67.7923 12.7657 66.874 13.6881L67.3577 14.1064L67.827 14.539C68.5167 13.3044 69.1595 12.0801 69.7574 10.8721H69.7594Z" fill="#E2BE74"/>
<path d="M70.9666 11.6699C69.8769 12.6331 68.8301 13.5922 67.8262 14.541C68.1425 14.8226 68.4363 15.1328 68.7424 15.4246C69.5321 14.1635 70.2728 12.9106 70.9666 11.6699Z" fill="#E2BE74"/>
<path d="M72.1489 12.5166C70.9654 13.494 69.8308 14.4633 68.7432 15.4244L69.1819 15.8836C69.3288 16.0346 69.4737 16.1897 69.6125 16.3488C70.5124 15.0612 71.3571 13.7838 72.1489 12.5186V12.5166Z" fill="#E2BE74"/>
<path d="M73.2996 13.4146C72.0202 14.3961 70.7918 15.3756 69.6123 16.3469L70.0326 16.8182L70.4387 17.2998C71.4447 16.002 72.3977 14.7062 73.2996 13.4146Z" fill="#E2BE74"/>
<path d="M74.4115 14.3716C73.0341 15.347 71.7159 16.3204 70.4385 17.2998C70.5752 17.457 70.7017 17.6243 70.8323 17.7875C70.9609 17.9508 71.0935 18.112 71.216 18.2814C72.3403 16.9754 73.4014 15.6735 74.4135 14.3716H74.4115Z" fill="#E2BE74"/>
<path d="M75.4909 15.3796C74.0115 16.3387 72.5851 17.31 71.2139 18.2793C71.3363 18.4466 71.4628 18.6119 71.5832 18.7793L71.9383 19.2853C73.179 17.9916 74.3625 16.6877 75.4909 15.3796Z" fill="#E2BE74"/>
<path d="M76.5297 16.4529C74.9401 17.3854 73.4158 18.3282 71.9404 19.2852C72.0567 19.4546 72.1649 19.626 72.2791 19.7974C72.3934 19.9668 72.4934 20.1422 72.5995 20.3116C73.9708 19.0444 75.287 17.7487 76.5297 16.4549V16.4529Z" fill="#E2BE74"/>
<path d="M77.5236 17.6018C75.8197 18.4793 74.1832 19.3832 72.5977 20.3117C72.7058 20.4831 72.8017 20.6566 72.8997 20.828C73.0017 20.9994 73.0895 21.1728 73.1792 21.3442C74.6974 20.1301 76.1483 18.8731 77.5236 17.6018Z" fill="#E2BE74"/>
<path d="M78.472 18.8506C76.6355 19.6342 74.8806 20.4688 73.1787 21.3442C73.2726 21.5156 73.3481 21.685 73.4297 21.8543C73.5134 22.0237 73.5725 22.1849 73.646 22.3482C75.3356 21.2503 76.9477 20.0709 78.472 18.8506Z" fill="#E2BE74"/>
<path d="M46.4534 9.29046C44.2047 8.05183 41.5641 7.64778 39.093 8.0559C38.4767 8.16201 37.8605 8.30281 37.2911 8.51912C36.7177 8.73542 36.1709 9.02313 35.6852 9.37615C35.2016 9.72917 34.7751 10.1557 34.4996 10.6413C34.2221 11.1249 34.12 11.6596 34.2139 12.1738C34.2506 12.4329 34.3527 12.686 34.471 12.9309L34.6751 13.2921C34.7506 13.4002 34.8302 13.5022 34.918 13.6002C35.273 13.9859 35.7505 14.2654 36.2565 14.4021C36.7626 14.5409 37.2932 14.5307 37.7584 14.3715C38.2298 14.2123 38.6461 13.9022 38.8971 13.5226C39.0257 13.3288 39.0971 13.1472 39.1399 12.9247C39.1807 12.7084 39.1828 12.4758 39.1399 12.2677C39.1011 12.0575 39.0216 11.8738 38.9216 11.7473C38.8114 11.6351 38.7175 11.5535 38.591 11.5229C38.4645 11.4943 38.3094 11.4984 38.1523 11.5433C37.9931 11.582 37.8441 11.6861 37.7503 11.7881C37.6544 11.8922 37.6176 11.9881 37.6176 12.0554C37.6238 12.1228 37.6564 12.2105 37.7217 12.3391L37.7605 12.4146C38.0156 12.9145 37.8197 13.5267 37.3177 13.7838C36.8177 14.0389 36.2055 13.841 35.9484 13.341C35.9484 13.341 35.9444 13.3329 35.9423 13.3308C35.722 12.888 35.573 12.3391 35.6648 11.7637C35.7627 11.1923 36.0791 10.7168 36.4504 10.3883C36.8259 10.0597 37.2585 9.84142 37.7278 9.74755C38.1931 9.65165 38.6991 9.66796 39.1807 9.84345C39.6684 10.021 40.0663 10.3862 40.3377 10.7821C40.5989 11.1862 40.7295 11.6228 40.7765 12.0473C40.8234 12.4717 40.7887 12.89 40.6826 13.2961C40.5806 13.6981 40.3765 14.1083 40.1235 14.4286C39.6133 15.0837 38.9052 15.5143 38.1502 15.7163C37.387 15.9203 36.581 15.8673 35.8689 15.6183C35.1546 15.3714 34.5139 14.9327 34.0385 14.3429C33.9201 14.194 33.814 14.0369 33.7181 13.8736L33.4814 13.3839C33.3447 13.0451 33.2304 12.688 33.1977 12.3085C33.11 11.5535 33.3324 10.7719 33.7364 10.1761C34.1384 9.57002 34.6771 9.11293 35.2505 8.7497C35.826 8.38648 36.4443 8.11507 37.0809 7.92121C37.7237 7.72736 38.3706 7.6233 39.0215 7.55597C41.6253 7.30089 44.2863 7.91101 46.4473 9.29452L46.4534 9.29046Z" fill="#E2BE74"/>
<path d="M33.6301 8.0151C33.5138 8.0151 33.4199 7.92123 33.4199 7.80491C33.4199 7.6886 33.5138 7.59473 33.6301 7.59473C33.7464 7.59473 33.8403 7.6886 33.8403 7.80491C33.8403 7.92123 33.7464 8.0151 33.6301 8.0151Z" fill="#E2BE74"/>
<path d="M32.6344 9.29672C32.4365 9.29672 32.2773 9.13552 32.2773 8.93962C32.2773 8.74373 32.4365 8.58252 32.6344 8.58252C32.8324 8.58252 32.9915 8.74373 32.9915 8.93962C32.9915 9.13552 32.8303 9.29672 32.6344 9.29672Z" fill="#E2BE74"/>
<path d="M32.0286 10.7841C31.7736 10.7841 31.5654 10.576 31.5654 10.3209C31.5654 10.0658 31.7715 9.85767 32.0286 9.85767C32.2858 9.85767 32.4919 10.0658 32.4919 10.3209C32.4919 10.576 32.2837 10.7841 32.0286 10.7841Z" fill="#E2BE74"/>
<path d="M31.8547 12.3515C31.5629 12.3515 31.3262 12.1147 31.3262 11.8229C31.3262 11.5311 31.5629 11.2944 31.8547 11.2944C32.1465 11.2944 32.3832 11.5311 32.3832 11.8229C32.3832 12.1147 32.1465 12.3515 31.8547 12.3515Z" fill="#E2BE74"/>
<path d="M32.0818 13.8798C31.7716 13.8798 31.5186 13.6288 31.5186 13.3166C31.5186 13.0044 31.7695 12.7534 32.0818 12.7534C32.394 12.7534 32.645 13.0044 32.645 13.3166C32.645 13.6288 32.394 13.8798 32.0818 13.8798Z" fill="#E2BE74"/>
<path d="M32.657 15.2797C32.9692 15.2797 33.2223 15.0266 33.2223 14.7144C33.2223 14.4022 32.9692 14.1492 32.657 14.1492C32.3449 14.1492 32.0918 14.4022 32.0918 14.7144C32.0918 15.0266 32.3449 15.2797 32.657 15.2797Z" fill="#E2BE74"/>
<path d="M33.6002 16.4266C33.8977 16.4266 34.139 16.1854 34.139 15.8878C34.139 15.5903 33.8977 15.3491 33.6002 15.3491C33.3027 15.3491 33.0615 15.5903 33.0615 15.8878C33.0615 16.1854 33.3027 16.4266 33.6002 16.4266Z" fill="#E2BE74"/>
<path d="M34.9103 17.1182C34.645 17.1182 34.4287 16.9019 34.4287 16.6366C34.4287 16.3714 34.645 16.155 34.9103 16.155C35.1756 16.155 35.3919 16.3714 35.3919 16.6366C35.3919 16.9019 35.1756 17.1182 34.9103 17.1182Z" fill="#E2BE74"/>
<path d="M36.3769 17.3875C36.5911 17.3875 36.7646 17.2139 36.7646 16.9998C36.7646 16.7856 36.5911 16.6121 36.3769 16.6121C36.1628 16.6121 35.9893 16.7856 35.9893 16.9998C35.9893 17.2139 36.1628 17.3875 36.3769 17.3875Z" fill="#E2BE74"/>
<path d="M37.8887 17.3204C37.7499 17.3204 37.6377 17.2081 37.6377 17.0694C37.6377 16.9306 37.7499 16.8184 37.8887 16.8184C38.0274 16.8184 38.1397 16.9306 38.1397 17.0694C38.1397 17.2081 38.0274 17.3204 37.8887 17.3204Z" fill="#E2BE74"/>
<path d="M39.3912 16.9528C39.3586 16.9528 39.332 16.9263 39.332 16.8936C39.332 16.861 39.3586 16.8345 39.3912 16.8345C39.4239 16.8345 39.4504 16.861 39.4504 16.8936C39.4504 16.9263 39.4239 16.9528 39.3912 16.9528Z" fill="#E2BE74"/>
<path d="M72.3958 51.4428C72.1999 51.3694 72.0999 51.151 72.1754 50.9572C72.2488 50.7613 72.4672 50.6633 72.6631 50.7368C72.859 50.8103 72.9569 51.0286 72.8834 51.2265C72.8283 51.3775 72.6814 51.4694 72.5304 51.4694C72.4855 51.4694 72.4386 51.4612 72.3958 51.4449V51.4428ZM72.8182 49.992C72.608 49.9818 72.4468 49.8022 72.457 49.5941C72.4672 49.3839 72.6447 49.2227 72.8549 49.2329C73.0651 49.2431 73.2242 49.4227 73.2161 49.6308C73.2059 49.8349 73.0365 49.992 72.8386 49.992H72.8182ZM72.3101 48.2126C72.255 48.0106 72.3733 47.8004 72.5753 47.7473C72.7773 47.6922 72.9875 47.8086 73.0406 48.0106C73.0957 48.2126 72.9794 48.4207 72.7774 48.4779C72.7447 48.486 72.71 48.4921 72.6773 48.4881C72.51 48.4881 72.3591 48.3799 72.3121 48.2106L72.3101 48.2126ZM71.7285 46.9576C71.6101 46.7842 71.655 46.5495 71.8285 46.4311C72.0019 46.3128 72.2366 46.3577 72.355 46.5312C72.4733 46.7046 72.4284 46.9393 72.255 47.0576C72.1876 47.1025 72.1142 47.1229 72.0427 47.1229C71.9224 47.1229 71.802 47.0678 71.7285 46.9576ZM70.7776 45.9394C70.6143 45.8108 70.5837 45.57 70.7143 45.4088C70.8449 45.2435 71.0836 45.215 71.2489 45.3435C71.4142 45.4721 71.4428 45.7108 71.3102 45.8741C71.2367 45.97 71.1265 46.019 71.0143 46.019C70.9327 46.019 70.849 45.9904 70.7796 45.9373L70.7776 45.9394ZM69.5675 45.266C69.3716 45.1966 69.2676 44.9783 69.339 44.7824C69.4084 44.5865 69.6267 44.4824 69.8226 44.5538C70.0185 44.6232 70.1226 44.8415 70.0511 45.0374C69.996 45.1946 69.8491 45.2884 69.694 45.2884C69.6512 45.2884 69.6103 45.2803 69.5675 45.266Z" fill="#E2BE74"/>
<path d="M28.0478 56.8892C27.556 57.5013 27.1377 58.0237 26.8459 58.6828C26.5562 59.344 26.3766 60.146 26.4501 61.3213C27.654 60.1643 28.0845 58.4318 28.0478 56.8892Z" fill="#E2BE74"/>
<path d="M29.3816 57.3013C28.9714 57.9726 28.6245 58.542 28.4205 59.2337C28.2185 59.9275 28.143 60.7458 28.3674 61.9028C28.8857 61.2559 29.2041 60.4805 29.3551 59.6847C29.5061 58.8889 29.4979 58.0685 29.3816 57.3013Z" fill="#E2BE74"/>
<path d="M30.7596 57.5381C30.4392 58.2584 30.1699 58.8645 30.0535 59.5787C29.9434 60.2908 29.9719 61.1152 30.3433 62.2335C31.2126 60.8071 31.1861 59.0216 30.7575 57.5381H30.7596Z" fill="#E2BE74"/>
<path d="M69.2326 56.9587C69.0367 57.3158 68.8265 57.6423 68.6388 57.9545C68.4429 58.2708 68.2429 58.5831 68.0715 58.9279C67.9001 59.2748 67.7531 59.6564 67.6878 60.1257C67.6266 60.6012 67.6327 61.1378 67.7817 61.7929C68.4653 61.1562 68.8183 60.3339 69.004 59.485C69.1938 58.6402 69.1857 57.7505 69.2346 56.9587H69.2326Z" fill="#E2BE74"/>
<path d="M70.4917 57.1892C70.155 57.9585 69.8693 58.6176 69.7489 59.3788C69.6285 60.144 69.6694 61.0214 70.0734 62.2192C70.5264 61.4581 70.7529 60.5909 70.8059 59.7236C70.859 58.8564 70.7325 57.985 70.4917 57.1892Z" fill="#E2BE74"/>
<path d="M72.11 57.2749C71.4999 58.8645 71.2019 60.0011 72.0916 62.3233C72.8038 60.7317 72.8038 58.8278 72.11 57.2749Z" fill="#E2BE74"/>
</svg>
