<svg width="200" height="375" viewBox="0 0 200 375" fill="none" xmlns="http://www.w3.org/2000/svg">
<path d="M84.3329 93.941C84.3027 93.2211 84.526 92.5135 84.964 91.9415L97.5573 75.4931C98.7889 73.8846 101.212 73.8846 102.444 75.4931L115.037 91.9415C115.475 92.5135 115.698 93.2211 115.668 93.9409L107.981 277.166C107.912 278.814 106.556 280.114 104.907 280.114H100H95.0938C93.4446 280.114 92.0887 278.814 92.0196 277.166L84.3329 93.941Z" fill="#F0932C"/>
<path d="M84.3534 93.9694C84.31 93.2324 84.5331 92.5043 84.9819 91.9181L97.5573 75.4931C98.7889 73.8846 101.212 73.8846 102.444 75.4931L115.029 91.9317C115.472 92.5097 115.695 93.2258 115.659 93.9529L114.073 126.311C113.992 127.95 112.64 129.237 110.999 129.237H100H89.3301C87.701 129.237 86.3543 127.967 86.2585 126.341L84.3534 93.9694Z" fill="#DA2229"/>
<path d="M99.5928 77.0522C99.798 76.7841 100.202 76.7841 100.407 77.0522L113.001 93.5004C113.074 93.5957 113.111 93.7135 113.106 93.8334L105.419 277.059C105.407 277.334 105.182 277.55 104.907 277.55H95.0938C94.8189 277.55 94.5926 277.334 94.5811 277.059L86.8945 93.8334C86.8895 93.7135 86.9271 93.5957 87 93.5004L99.5928 77.0522Z" stroke="#831200" stroke-width="5.12821"/>
<mask id="path-4-inside-1_650_13919" fill="white">
<path fill-rule="evenodd" clip-rule="evenodd" d="M200 309.806C200 287.387 155.228 269.214 100 269.214C44.7715 269.214 0 287.387 0 309.806V334.408C0 356.826 44.7715 375 100 375C155.228 375 200 356.826 200 334.408V309.806Z"/>
</mask>
<path fill-rule="evenodd" clip-rule="evenodd" d="M200 309.806C200 287.387 155.228 269.214 100 269.214C44.7715 269.214 0 287.387 0 309.806V334.408C0 356.826 44.7715 375 100 375C155.228 375 200 356.826 200 334.408V309.806Z" fill="#EE9328"/>
<path d="M100 269.214V276.621C126.902 276.621 150.913 281.061 167.925 287.966C176.449 291.427 182.856 295.361 187.012 299.35C191.149 303.32 192.593 306.853 192.593 309.806H200H207.407C207.407 301.549 203.254 294.404 197.271 288.661C191.307 282.938 183.068 278.125 173.497 274.239C154.315 266.453 128.327 261.806 100 261.806V269.214ZM0 309.806H7.40741C7.40741 306.853 8.85061 303.32 12.9876 299.35C17.1443 295.361 23.5506 291.427 32.0754 287.966C49.087 281.061 73.0984 276.621 100 276.621V269.214V261.806C71.6731 261.806 45.6845 266.453 26.5033 274.239C16.9316 278.125 8.69322 282.938 2.72943 288.661C-3.25417 294.404 -7.40741 301.549 -7.40741 309.806H0ZM0 309.806H-7.40741V334.408H0H7.40741V309.806H0ZM0 334.408H-7.40741C-7.40741 342.664 -3.25417 349.81 2.72943 355.552C8.69322 361.276 16.9316 366.089 26.5033 369.974C45.6845 377.76 71.6731 382.407 100 382.407V375V367.593C73.0984 367.593 49.087 363.153 32.0754 356.247C23.5506 352.787 17.1443 348.853 12.9876 344.864C8.85061 340.893 7.40741 337.36 7.40741 334.408H0ZM100 375V382.407C128.327 382.407 154.315 377.76 173.497 369.974C183.068 366.089 191.307 361.276 197.271 355.552C203.254 349.81 207.407 342.664 207.407 334.408H200H192.593C192.593 337.36 191.149 340.893 187.012 344.864C182.856 348.853 176.449 352.787 167.925 356.247C150.913 363.153 126.902 367.593 100 367.593V375ZM200 334.408H207.407V309.806H200H192.593V334.408H200Z" fill="#83140B" mask="url(#path-4-inside-1_650_13919)"/>
<mask id="path-6-inside-2_650_13919" fill="white">
<path fill-rule="evenodd" clip-rule="evenodd" d="M200 108.074C200 85.6555 155.228 67.4817 100 67.4817C44.7715 67.4817 0 85.6555 0 108.074C0 108.074 0 108.074 0 108.074V132.676C0 155.094 44.7715 173.268 100 173.268C155.228 173.268 200 155.094 200 132.676V108.074Z"/>
</mask>
<path fill-rule="evenodd" clip-rule="evenodd" d="M200 108.074C200 85.6555 155.228 67.4817 100 67.4817C44.7715 67.4817 0 85.6555 0 108.074C0 108.074 0 108.074 0 108.074V132.676C0 155.094 44.7715 173.268 100 173.268C155.228 173.268 200 155.094 200 132.676V108.074Z" fill="#F0932C"/>
<path d="M100 67.4817V74.8891C126.902 74.8891 150.913 79.329 167.925 86.2344C176.449 89.6949 182.856 93.6288 187.012 97.6181C191.149 101.588 192.593 105.122 192.593 108.074H200H207.407C207.407 99.8174 203.254 92.6719 197.271 86.9293C191.307 81.2058 183.068 76.3928 173.497 72.5074C154.315 64.7213 128.327 60.0743 100 60.0743V67.4817ZM0 108.074H7.40741C7.40741 105.122 8.85061 101.588 12.9876 97.6181C17.1443 93.6288 23.5506 89.6949 32.0754 86.2344C49.087 79.329 73.0984 74.8891 100 74.8891V67.4817V60.0743C71.6731 60.0743 45.6845 64.7213 26.5033 72.5074C16.9316 76.3928 8.69322 81.2058 2.72943 86.9293C-3.25417 92.6719 -7.40741 99.8174 -7.40741 108.074H0ZM0 108.074H7.40741C7.40741 108.074 7.40741 108.074 7.40741 108.074V108.074C7.40741 108.074 7.40741 108.074 7.40741 108.074C7.40741 108.074 7.40741 108.074 7.40741 108.074C7.40741 108.074 7.40741 108.074 7.40741 108.074C7.40741 108.074 7.40741 108.074 7.40741 108.074V108.074C7.40741 108.074 7.40741 108.074 7.40741 108.074C7.40741 108.074 7.40741 108.074 7.40741 108.074V108.074C7.40741 108.074 7.40741 108.074 7.40741 108.074V108.074C7.40741 108.074 7.40741 108.074 7.40741 108.074C7.40741 108.074 7.40741 108.074 7.40741 108.074V108.074C7.40741 108.074 7.40741 108.074 7.40741 108.074C7.40741 108.074 7.40741 108.074 7.40741 108.074V108.074C7.40741 108.074 7.40741 108.074 7.40741 108.074V108.074C7.40741 108.074 7.40741 108.074 7.40741 108.074H0H-7.40741C-7.40741 108.074 -7.40741 108.074 -7.40741 108.074V108.074C-7.40741 108.074 -7.40741 108.074 -7.40741 108.074V108.074C-7.40741 108.074 -7.40741 108.074 -7.40741 108.074C-7.40741 108.074 -7.40741 108.074 -7.40741 108.074V108.074C-7.40741 108.074 -7.40741 108.074 -7.40741 108.074C-7.40741 108.074 -7.40741 108.074 -7.40741 108.074V108.074C-7.40741 108.074 -7.40741 108.074 -7.40741 108.074V108.074C-7.40741 108.074 -7.40741 108.074 -7.40741 108.074C-7.40741 108.074 -7.40741 108.074 -7.40741 108.074V108.074C-7.40741 108.074 -7.40741 108.074 -7.40741 108.074C-7.40741 108.074 -7.40741 108.074 -7.40741 108.074C-7.40741 108.074 -7.40741 108.074 -7.40741 108.074C-7.40741 108.074 -7.40741 108.074 -7.40741 108.074V108.074C-7.40741 108.074 -7.40741 108.074 -7.40741 108.074H0ZM0 108.074H-7.40741V132.676H0H7.40741V108.074H0ZM0 132.676H-7.40741C-7.40741 140.932 -3.25417 148.078 2.72943 153.82C8.69322 159.544 16.9316 164.357 26.5033 168.242C45.6845 176.029 71.6731 180.676 100 180.676V173.268V165.861C73.0984 165.861 49.087 161.421 32.0754 154.515C23.5506 151.055 17.1443 147.121 12.9876 143.132C8.85061 139.161 7.40741 135.628 7.40741 132.676H0ZM100 173.268V180.676C128.327 180.676 154.315 176.029 173.497 168.242C183.068 164.357 191.307 159.544 197.271 153.82C203.254 148.078 207.407 140.932 207.407 132.676H200H192.593C192.593 135.628 191.149 139.161 187.012 143.132C182.856 147.121 176.449 151.055 167.925 154.515C150.913 161.421 126.902 165.861 100 165.861V173.268ZM200 132.676H207.407V108.074H200H192.593V132.676H200Z" fill="#810E08" mask="url(#path-6-inside-2_650_13919)"/>
<path d="M100 72.4202C127.217 72.4202 151.649 76.2271 169.103 82.2385C177.853 85.2524 184.581 88.7297 189.023 92.3469C193.504 95.9957 195.062 99.261 195.062 101.924C195.061 104.587 193.504 107.853 189.023 111.501C184.581 115.118 177.853 118.595 169.103 121.609C151.649 127.62 127.217 131.428 100 131.428C72.7826 131.428 48.3512 127.62 30.8975 121.609C22.1469 118.595 15.4187 115.118 10.9766 111.501C6.49582 107.853 4.9386 104.587 4.93848 101.924C4.93848 99.261 6.49582 95.9957 10.9766 92.3469C15.4187 88.7297 22.1468 85.2524 30.8975 82.2385C48.3512 76.2271 72.7826 72.4202 100 72.4202Z" fill="#B52603" stroke="#810E08" stroke-width="9.87654"/>
<path d="M27.01 32.6813C27.152 32.3895 27.5347 32.3154 27.776 32.5329L42.1878 45.5208C42.2733 45.5978 42.3283 45.7029 42.3441 45.8168L66.2276 218.113C66.2632 218.37 66.092 218.61 65.8376 218.659L61.6977 219.461C61.4435 219.51 61.1944 219.351 61.1309 219.1L18.4962 50.4355C18.4681 50.324 18.4805 50.2059 18.5308 50.1025L27.01 32.6813Z" fill="#F0932C" stroke="#831200" stroke-width="4.88095"/>
<path d="M129.073 10.4385C129.256 10.2204 129.597 10.2383 129.756 10.4742L139.266 24.5909C139.323 24.6746 139.347 24.7757 139.336 24.8761L122.952 176.722C122.928 176.948 122.731 177.116 122.504 177.104L118.805 176.911C118.578 176.899 118.399 176.711 118.399 176.484L118.034 23.7638C118.034 23.6628 118.069 23.5648 118.134 23.4874L129.073 10.4385Z" fill="#F0932C" stroke="#831200" stroke-width="4.28571"/>
<path d="M74.5572 6.29365C74.7066 6.02353 75.0738 5.97211 75.2922 6.19073L88.333 19.2437C88.4103 19.3212 88.4581 19.4236 88.4674 19.5326L102.546 184.384C102.566 184.629 102.392 184.848 102.148 184.882L98.1754 185.439C97.9313 185.473 97.7026 185.311 97.6547 185.069L65.5833 22.737C65.562 22.6296 65.5796 22.5182 65.6326 22.4225L74.5572 6.29365Z" fill="#F0932C" stroke="#831200" stroke-width="4.64286"/>
<path d="M66.9454 29.5452C67.1948 29.2482 67.6591 29.2723 67.8758 29.5938L80.819 48.8076C80.8958 48.9215 80.9306 49.0593 80.9159 49.196L58.614 255.875C58.5806 256.182 58.3129 256.41 58.0038 256.394L52.9696 256.132C52.6605 256.115 52.4173 255.861 52.4164 255.551L51.9203 47.6819C51.92 47.5444 51.9681 47.411 52.0564 47.3057L66.9454 29.5452Z" fill="#F0932C" stroke="#831200" stroke-width="5.83333"/>
<path d="M101.83 26.3496C102.075 25.9993 102.586 25.9814 102.855 26.3139L118.918 46.1688C119.013 46.2866 119.064 46.4344 119.061 46.5859L114.501 275.621C114.494 275.962 114.222 276.239 113.881 276.251L108.329 276.444C107.988 276.456 107.697 276.199 107.667 275.859L87.083 47.6986C87.0694 47.5476 87.1093 47.3967 87.1961 47.2725L101.83 26.3496Z" fill="#F0932C" stroke="#831200" stroke-width="6.42857"/>
<path d="M178.492 29.7208C178.701 29.5042 179.06 29.5481 179.21 29.8086L188.18 45.3704C188.233 45.4628 188.252 45.571 188.233 45.676L159.758 204.365C159.716 204.601 159.497 204.764 159.258 204.735L155.378 204.26C155.14 204.231 154.966 204.02 154.983 203.781L165.884 42.9419C165.891 42.8355 165.936 42.735 166.01 42.6582L178.492 29.7208Z" fill="#F0932C" stroke="#831200" stroke-width="4.52381"/>
<path d="M155.354 37.0555C155.646 36.8011 156.101 36.8975 156.265 37.2485L166.032 58.2433C166.09 58.3679 166.102 58.5091 166.066 58.6418L111.59 259.3C111.509 259.599 111.208 259.783 110.905 259.719L105.975 258.674C105.672 258.61 105.473 258.32 105.521 258.014L137.667 52.6273C137.688 52.4916 137.757 52.3673 137.86 52.277L155.354 37.0555Z" fill="#F0932C" stroke="#831200" stroke-width="5.83333"/>
<mask id="path-16-inside-3_650_13919" fill="white">
<path fill-rule="evenodd" clip-rule="evenodd" d="M192.592 141.287H7.40723V277.825V298.736V306.116C7.40723 325.138 48.8623 340.558 99.9998 340.558C151.137 340.558 192.592 325.138 192.592 306.116V298.736V279.055V141.287Z"/>
</mask>
<path fill-rule="evenodd" clip-rule="evenodd" d="M192.592 141.287H7.40723V277.825V298.736V306.116C7.40723 325.138 48.8623 340.558 99.9998 340.558C151.137 340.558 192.592 325.138 192.592 306.116V298.736V279.055V141.287Z" fill="#BF2501"/>
<path d="M192.592 306.117H196.296V306.116H192.592H188.889V306.117H192.592ZM7.40723 141.287V133.879H-0.000180721V141.287H7.40723ZM192.592 141.287H200V133.879H192.592V141.287ZM7.40723 141.287V148.694H192.592V141.287V133.879H7.40723V141.287ZM7.40723 277.825H14.8146V141.287H7.40723H-0.000180721V277.825H7.40723ZM7.40723 298.736H14.8146V277.825H7.40723H-0.000180721V298.736H7.40723ZM7.40723 306.116H14.8146V298.736H7.40723H-0.000180721V306.116H7.40723ZM99.9998 340.558V333.151C75.0784 333.151 52.8448 329.381 37.1095 323.528C29.2136 320.591 23.3403 317.271 19.5754 313.96C15.7981 310.638 14.8146 307.969 14.8146 306.116H7.40723H-0.000180721C-0.000180721 313.775 4.19821 320.166 9.79181 325.085C15.3978 330.015 23.0844 334.117 31.9445 337.413C49.7211 344.026 73.7838 347.966 99.9998 347.966V340.558ZM192.592 306.116H185.185C185.185 307.969 184.201 310.638 180.424 313.96C176.659 317.271 170.786 320.591 162.89 323.528C147.155 329.381 124.921 333.151 99.9998 333.151V340.558V347.966C126.216 347.966 150.279 344.026 168.055 337.413C176.915 334.117 184.602 330.015 190.208 325.085C195.801 320.166 200 313.775 200 306.116H192.592ZM192.592 298.736H185.185V306.116H192.592H200V298.736H192.592ZM192.592 279.055H185.185V298.736H192.592H200V279.055H192.592ZM192.592 141.287H185.185V279.055H192.592H200V141.287H192.592Z" fill="#810E08" mask="url(#path-16-inside-3_650_13919)"/>
<path d="M100 173.268C155.228 173.268 200 155.095 200 132.676V103.249L179.487 116.022L153.846 123.687L97.4359 128.796L38.4615 123.687L0 103.249V132.676C0 155.095 44.7715 173.268 100 173.268Z" fill="#F0932C"/>
<path d="M194.872 103.249V133.906C194.872 156.324 155.228 169.673 99.9997 169.673C44.7712 169.673 5.12793 156.324 5.12793 133.906V103.249" stroke="#810E08" stroke-width="10.2564"/>
<path d="M194.872 100.694C194.872 119.715 155.228 131.351 99.9997 131.351C44.7713 131.351 5.12793 119.715 5.12793 100.694" stroke="#810E08" stroke-width="9.87654"/>
<path d="M65.793 241.923C64.833 241.923 63.9797 241.51 63.233 240.683C62.4864 239.83 62.113 238.51 62.113 236.723C62.113 235.47 62.273 234.216 62.593 232.963C62.9397 231.71 63.2864 230.563 63.633 229.523C64.1664 227.816 64.633 226.243 65.033 224.803C65.433 223.363 65.633 221.99 65.633 220.683C65.633 219.776 65.5264 219.15 65.313 218.803C65.1264 218.456 64.873 218.283 64.553 218.283C64.2064 218.283 63.8197 218.47 63.393 218.843C62.993 219.216 62.593 219.79 62.193 220.563L61.913 220.483C61.9664 218.936 62.2997 217.603 62.913 216.483C63.5264 215.363 64.2997 214.496 65.233 213.883C66.1664 213.27 67.1264 212.963 68.113 212.963C69.233 212.963 70.193 213.416 70.993 214.323C71.793 215.203 72.193 216.736 72.193 218.923C72.193 220.07 72.073 221.27 71.833 222.523C71.6197 223.776 71.3664 225.03 71.073 226.283C71.9797 225.91 72.9397 225.643 73.953 225.483C74.9664 225.323 76.0464 225.243 77.193 225.243H78.233C78.5797 223.91 78.873 222.603 79.113 221.323C79.3797 220.016 79.513 218.803 79.513 217.683C79.513 217.283 79.4864 216.91 79.433 216.563C79.4064 216.216 79.3664 215.883 79.313 215.563V215.243C79.713 214.523 80.2864 213.95 81.033 213.523C81.8064 213.096 82.5797 212.883 83.353 212.883C84.233 212.883 85.0064 213.176 85.673 213.763C86.3397 214.323 86.673 215.23 86.673 216.483C86.673 217.416 86.4864 218.616 86.113 220.083C85.7664 221.55 85.3664 223.056 84.913 224.603C84.3797 226.496 83.8864 228.336 83.433 230.123C83.0064 231.883 82.793 233.376 82.793 234.603C82.793 235.43 82.9264 236.083 83.193 236.563C83.4597 237.043 83.8864 237.283 84.473 237.283C85.273 237.283 85.873 236.896 86.273 236.123L86.513 236.243C86.4864 237.363 86.1797 238.35 85.593 239.203C85.0064 240.056 84.273 240.723 83.393 241.203C82.5397 241.683 81.6597 241.923 80.753 241.923C79.953 241.923 79.193 241.723 78.473 241.323C77.7797 240.896 77.2064 240.243 76.753 239.363C76.3264 238.483 76.113 237.336 76.113 235.923C76.113 234.99 76.2064 233.976 76.393 232.883C76.6064 231.763 76.8464 230.63 77.113 229.483C75.8864 229.403 74.6864 229.363 73.513 229.363C72.9264 229.363 72.3664 229.376 71.833 229.403C71.2997 229.43 70.793 229.47 70.313 229.523C70.073 230.59 69.8597 231.643 69.673 232.683C69.513 233.696 69.433 234.683 69.433 235.643C69.433 236.176 69.4597 236.71 69.513 237.243C69.593 237.75 69.713 238.243 69.873 238.723C69.4464 239.763 68.8464 240.563 68.073 241.123C67.3264 241.656 66.5664 241.923 65.793 241.923ZM99.1649 242.043C97.3782 242.043 95.8316 241.723 94.5249 241.083C93.2449 240.416 92.1782 239.523 91.3249 238.403C90.4982 237.256 89.8716 235.963 89.4449 234.523C89.0449 233.083 88.8449 231.563 88.8449 229.963C88.8449 227.936 89.1516 225.91 89.7649 223.883C90.4049 221.856 91.3249 220.003 92.5249 218.323C93.7516 216.643 95.2449 215.296 97.0049 214.283C98.7649 213.243 100.778 212.723 103.045 212.723C104.832 212.723 106.365 213.056 107.645 213.723C108.952 214.363 110.018 215.256 110.845 216.403C111.698 217.523 112.325 218.803 112.725 220.243C113.152 221.683 113.365 223.203 113.365 224.803C113.365 226.803 113.045 228.83 112.405 230.883C111.792 232.91 110.872 234.763 109.645 236.443C108.445 238.123 106.965 239.483 105.205 240.523C103.445 241.536 101.432 242.043 99.1649 242.043ZM100.645 236.963C101.578 236.963 102.392 236.643 103.085 236.003C103.778 235.363 104.352 234.523 104.805 233.483C105.285 232.416 105.645 231.243 105.885 229.963C106.125 228.683 106.245 227.39 106.245 226.083C106.245 224.643 106.085 223.296 105.765 222.043C105.472 220.763 104.992 219.736 104.325 218.963C103.685 218.163 102.845 217.763 101.805 217.763C100.898 217.763 100.085 218.083 99.3649 218.723C98.6449 219.336 98.0316 220.176 97.5249 221.243C97.0182 222.283 96.6316 223.443 96.3649 224.723C96.1249 225.976 96.0049 227.243 96.0049 228.523C96.0049 229.99 96.1782 231.363 96.5249 232.643C96.8716 233.923 97.3916 234.963 98.0849 235.763C98.7782 236.563 99.6316 236.963 100.645 236.963ZM98.4049 250.963C97.4982 250.963 96.7382 250.63 96.1249 249.963C95.5382 249.296 95.2716 248.47 95.3249 247.483C95.4049 246.39 95.8182 245.443 96.5649 244.643C97.3382 243.87 98.2182 243.483 99.2049 243.483C100.138 243.483 100.898 243.816 101.485 244.483C102.098 245.15 102.378 245.976 102.325 246.963C102.245 248.083 101.818 249.03 101.045 249.803C100.298 250.576 99.4182 250.963 98.4049 250.963ZM97.4449 211.643C96.8316 211.75 96.3649 211.643 96.0449 211.323C95.7516 211.003 95.7116 210.603 95.9249 210.123C96.4849 208.923 97.2582 207.91 98.2449 207.083C99.2316 206.23 100.258 205.576 101.325 205.123C102.392 204.67 103.312 204.443 104.085 204.443C104.752 204.443 105.485 204.71 106.285 205.243C107.085 205.776 107.805 206.47 108.445 207.323C109.112 208.15 109.525 209.016 109.685 209.923C109.818 210.59 109.685 211.056 109.285 211.323C108.912 211.59 108.418 211.67 107.805 211.563C107.352 211.19 106.832 210.843 106.245 210.523C105.658 210.203 105.098 209.936 104.565 209.723C104.032 209.51 103.605 209.403 103.285 209.403C102.965 209.403 102.485 209.51 101.845 209.723C101.205 209.91 100.498 210.176 99.7249 210.523C98.9516 210.843 98.1916 211.216 97.4449 211.643ZM119.115 241.923C118.209 241.923 117.395 241.59 116.675 240.923C115.955 240.23 115.595 239.07 115.595 237.443C115.595 236.376 115.742 235.19 116.035 233.883C116.355 232.576 116.729 231.23 117.155 229.843C117.609 228.43 118.062 227.07 118.515 225.763C118.969 224.456 119.342 223.27 119.635 222.203C119.929 221.136 120.075 220.296 120.075 219.683C120.075 218.963 119.795 218.603 119.235 218.603C118.569 218.603 117.942 218.99 117.355 219.763C116.769 220.51 116.115 221.563 115.395 222.923L115.155 222.843C115.155 220.736 115.715 218.91 116.835 217.363C117.955 215.79 119.462 214.576 121.355 213.723C123.275 212.87 125.409 212.443 127.755 212.443C130.129 212.443 132.049 212.856 133.515 213.683C135.009 214.483 136.102 215.536 136.795 216.843C137.515 218.123 137.875 219.496 137.875 220.963C137.875 222.216 137.635 223.47 137.155 224.723C136.702 225.95 136.035 227.07 135.155 228.083C134.302 229.096 133.289 229.91 132.115 230.523C130.942 231.136 129.649 231.443 128.235 231.443C126.769 231.443 125.249 231.07 123.675 230.323C123.329 231.63 123.022 232.963 122.755 234.323C122.489 235.656 122.355 237.03 122.355 238.443C122.355 239.136 122.395 239.83 122.475 240.523C122.022 240.976 121.489 241.323 120.875 241.563C120.289 241.803 119.702 241.923 119.115 241.923ZM125.515 227.443C126.582 227.443 127.515 227.15 128.315 226.563C129.115 225.95 129.729 225.19 130.155 224.283C130.609 223.35 130.835 222.416 130.835 221.483C130.835 220.39 130.475 219.416 129.755 218.563C129.062 217.71 127.915 217.283 126.315 217.283C126.102 217.283 125.849 217.296 125.555 217.323C125.289 217.35 125.009 217.39 124.715 217.443C124.929 218.11 125.062 218.776 125.115 219.443C125.195 220.083 125.235 220.71 125.235 221.323C125.235 222.39 125.155 223.416 124.995 224.403C124.835 225.39 124.649 226.363 124.435 227.323C124.809 227.403 125.169 227.443 125.515 227.443ZM83.5147 299.403C81.0347 299.403 79.1414 298.856 77.8347 297.763C76.5547 296.696 75.7281 295.403 75.3547 293.883C75.0347 293.91 74.7147 293.936 74.3947 293.963C74.0747 294.016 73.7414 294.043 73.3947 294.043C71.0481 294.043 69.1147 293.483 67.5947 292.363C66.0747 291.243 64.9414 289.763 64.1947 287.923C63.4747 286.083 63.1147 284.096 63.1147 281.963C63.1147 279.936 63.4347 277.91 64.0747 275.883C64.7147 273.856 65.6347 272.003 66.8347 270.323C68.0614 268.643 69.5547 267.296 71.3147 266.283C73.0747 265.243 75.0881 264.723 77.3547 264.723C79.1147 264.723 80.6347 265.056 81.9147 265.723C83.2214 266.363 84.2881 267.256 85.1147 268.403C85.9681 269.523 86.5947 270.803 86.9947 272.243C87.4214 273.683 87.6347 275.203 87.6347 276.803C87.6347 278.91 87.2881 281.03 86.5947 283.163C85.9281 285.27 84.9281 287.19 83.5947 288.923C82.2614 290.63 80.6347 291.936 78.7147 292.843C79.5947 293.03 80.5547 293.176 81.5947 293.283C82.6347 293.363 83.8081 293.403 85.1147 293.403C85.5681 293.403 86.0347 293.403 86.5147 293.403C87.0214 293.403 87.5281 293.39 88.0347 293.363L88.1947 293.683C87.7681 294.99 87.1814 296.123 86.4347 297.083C85.6881 298.043 84.7147 298.816 83.5147 299.403ZM74.9947 288.963C75.9014 288.963 76.6881 288.643 77.3547 288.003C78.0481 287.363 78.6214 286.523 79.0747 285.483C79.5547 284.416 79.9147 283.243 80.1547 281.963C80.3947 280.683 80.5147 279.39 80.5147 278.083C80.5147 276.616 80.3681 275.256 80.0747 274.003C79.7814 272.75 79.3281 271.736 78.7147 270.963C78.1281 270.163 77.3681 269.763 76.4347 269.763C75.4214 269.763 74.5281 270.083 73.7547 270.723C73.0081 271.336 72.3681 272.163 71.8347 273.203C71.3281 274.243 70.9414 275.403 70.6747 276.683C70.4081 277.963 70.2747 279.243 70.2747 280.523C70.2747 281.99 70.4481 283.363 70.7947 284.643C71.1414 285.923 71.6614 286.963 72.3547 287.763C73.0747 288.563 73.9547 288.963 74.9947 288.963ZM94.8641 293.923C93.4774 293.923 92.3574 293.363 91.5041 292.243C90.6508 291.096 90.2241 289.55 90.2241 287.603C90.2241 286.35 90.3708 284.976 90.6641 283.483C90.9574 281.99 91.3041 280.496 91.7041 279.003C92.1041 277.483 92.4508 276.096 92.7441 274.843C93.0374 273.59 93.1841 272.603 93.1841 271.883C93.1841 270.95 92.9041 270.483 92.3441 270.483C91.9708 270.483 91.5574 270.683 91.1041 271.083C90.6508 271.483 90.3174 272.003 90.1041 272.643L89.7041 272.483C89.7841 270.91 90.1708 269.563 90.8641 268.443C91.5574 267.323 92.4108 266.47 93.4241 265.883C94.4374 265.27 95.4374 264.963 96.4241 264.963C97.4641 264.963 98.3574 265.336 99.1041 266.083C99.8508 266.803 100.224 267.99 100.224 269.643C100.224 270.763 100.064 272.016 99.7441 273.403C99.4508 274.79 99.0908 276.203 98.6641 277.643C98.2641 279.056 97.9041 280.403 97.5841 281.683C97.2908 282.963 97.1441 284.043 97.1441 284.923C97.1441 285.563 97.2508 286.07 97.4641 286.443C97.6774 286.816 98.0374 287.003 98.5441 287.003C99.2641 287.003 100.011 286.643 100.784 285.923C101.557 285.176 102.304 284.256 103.024 283.163C103.744 282.043 104.397 280.95 104.984 279.883C105.411 276.203 106.024 273.27 106.824 271.083C107.624 268.896 108.491 267.323 109.424 266.363C110.384 265.403 111.277 264.923 112.104 264.923C112.984 264.923 113.717 265.363 114.304 266.243C114.917 267.096 115.224 268.216 115.224 269.603C115.224 270.83 114.917 272.216 114.304 273.763C113.717 275.283 112.677 276.83 111.184 278.403C110.997 279.336 110.837 280.31 110.704 281.323C110.597 282.336 110.544 283.296 110.544 284.203C110.544 285.35 110.664 286.31 110.904 287.083C111.171 287.83 111.624 288.203 112.264 288.203C112.691 288.203 113.091 288.016 113.464 287.643C113.864 287.243 114.197 286.656 114.464 285.883L114.784 286.043C114.784 288.63 114.251 290.59 113.184 291.923C112.144 293.256 110.904 293.923 109.464 293.923C108.157 293.923 107.064 293.283 106.184 292.003C105.304 290.696 104.784 288.496 104.624 285.403C103.157 288.336 101.531 290.496 99.7441 291.883C97.9574 293.243 96.3308 293.923 94.8641 293.923ZM125.04 294.043C123.254 294.043 121.774 293.723 120.6 293.083C119.427 292.416 118.56 291.563 118 290.523C117.44 289.456 117.16 288.31 117.16 287.083C117.16 285.99 117.374 284.91 117.8 283.843C118.227 282.776 118.854 281.803 119.68 280.923C120.534 280.043 121.56 279.35 122.76 278.843C121.667 278.15 120.84 277.323 120.28 276.363C119.747 275.376 119.48 274.35 119.48 273.283C119.48 271.896 119.934 270.55 120.84 269.243C121.747 267.936 123.067 266.856 124.8 266.003C126.534 265.15 128.614 264.723 131.04 264.723C132.72 264.723 134.054 264.936 135.04 265.363C136.054 265.763 136.787 266.296 137.24 266.963C137.694 267.603 137.92 268.296 137.92 269.043C137.92 269.896 137.654 270.75 137.12 271.603C136.587 272.43 135.814 273.11 134.8 273.643C133.814 274.176 132.6 274.443 131.16 274.443C131.587 273.19 131.8 272.15 131.8 271.323C131.8 270.496 131.627 269.896 131.28 269.523C130.934 269.15 130.507 268.963 130 268.963C129.467 268.963 128.894 269.163 128.28 269.563C127.694 269.963 127.2 270.523 126.8 271.243C126.4 271.963 126.2 272.803 126.2 273.763C126.2 274.27 126.28 274.843 126.44 275.483C126.6 276.096 126.854 276.71 127.2 277.323C127.787 276.95 128.32 276.683 128.8 276.523C129.307 276.336 129.76 276.243 130.16 276.243C130.987 276.243 131.587 276.536 131.96 277.123C132.334 277.683 132.52 278.323 132.52 279.043C132.52 279.896 132.254 280.71 131.72 281.483C131.214 282.256 130.454 282.643 129.44 282.643C128.507 282.643 127.414 282.203 126.16 281.323C124.694 282.363 123.96 283.59 123.96 285.003C123.96 286.096 124.294 286.923 124.96 287.483C125.654 288.043 126.534 288.323 127.6 288.323C128.96 288.323 130.48 287.856 132.16 286.923C133.84 285.963 135.334 284.536 136.64 282.643L136.96 282.843C136.907 284.71 136.52 286.35 135.8 287.763C135.107 289.15 134.187 290.31 133.04 291.243C131.92 292.176 130.667 292.883 129.28 293.363C127.894 293.816 126.48 294.043 125.04 294.043ZM130.64 262.963C130.107 262.963 129.64 262.883 129.24 262.723C128.84 262.536 128.64 262.27 128.64 261.923C128.64 261.47 128.907 261.096 129.44 260.803C129.974 260.483 130.6 260.203 131.32 259.963C132.04 259.723 132.667 259.496 133.2 259.283C133.734 259.07 134 258.843 134 258.603C134 258.283 133.587 258.123 132.76 258.123C132.174 258.123 131.467 258.256 130.64 258.523C129.84 258.79 129.067 259.27 128.32 259.963C127.254 259.243 126.72 258.483 126.72 257.683C126.72 257.07 127 256.51 127.56 256.003C128.12 255.496 128.867 255.096 129.8 254.803C130.734 254.483 131.734 254.323 132.8 254.323C134.214 254.323 135.414 254.616 136.4 255.203C137.387 255.763 137.88 256.55 137.88 257.563C137.88 258.336 137.614 258.976 137.08 259.483C136.574 259.99 135.974 260.416 135.28 260.763C134.614 261.11 134.014 261.416 133.48 261.683C132.947 261.95 132.68 262.243 132.68 262.563C132.387 262.696 132.054 262.803 131.68 262.883C131.334 262.936 130.987 262.963 130.64 262.963Z" fill="white"/>
</svg>
