<svg width="40" height="40" viewBox="0 0 40 40" fill="none" xmlns="http://www.w3.org/2000/svg">
<path d="M20.1182 8.58337C20.1949 8.58354 20.3077 8.58367 20.4521 8.58435C20.7416 8.58572 21.1581 8.58866 21.666 8.59412C22.6821 8.60504 24.0639 8.6266 25.5264 8.67029C26.9892 8.71399 28.5311 8.78024 29.8682 8.8783C31.2122 8.97687 32.3282 9.10682 32.9521 9.27478H32.9531C34.2159 9.61262 35.2317 10.5708 35.6504 11.7992L35.7256 12.0482C36.0679 13.3196 36.2425 15.3035 36.3301 16.9877C36.3737 17.826 36.3953 18.5841 36.4062 19.1322C36.4117 19.4061 36.4147 19.6278 36.416 19.7806C36.4167 19.8569 36.4168 19.9164 36.417 19.9564V20.0775C36.4168 20.1176 36.4167 20.177 36.416 20.2533C36.4147 20.4061 36.4117 20.6279 36.4062 20.9017C36.3953 21.4498 36.3736 22.2072 36.3301 23.0453C36.2425 24.7294 36.0679 26.7133 35.7256 27.9847V27.9857C35.3665 29.3278 34.3045 30.3468 32.9531 30.7084H32.9521C32.3282 30.8763 31.2122 31.0073 29.8682 31.1058C28.5311 31.2039 26.9892 31.2692 25.5264 31.3129C24.0639 31.3566 22.6821 31.3781 21.666 31.389C21.1581 31.3945 20.7416 31.3974 20.4521 31.3988C20.3077 31.3995 20.1949 31.3996 20.1182 31.3998H19.8838C19.8071 31.3996 19.6936 31.3995 19.5488 31.3988C19.2594 31.3974 18.8428 31.3945 18.335 31.389C17.3188 31.3781 15.9371 31.3566 14.4746 31.3129C13.0117 31.2692 11.4698 31.2039 10.1328 31.1058C8.95688 31.0196 7.9556 30.9087 7.30566 30.7699L7.04883 30.7084C5.69727 30.3469 4.63446 29.328 4.27539 27.9857V27.9847C3.93313 26.7133 3.75844 24.7294 3.6709 23.0453C3.62733 22.2072 3.60563 21.4498 3.59473 20.9017C3.58928 20.6279 3.58632 20.4061 3.58496 20.2533C3.58428 20.177 3.58415 20.1176 3.58398 20.0775V19.9564C3.58415 19.9164 3.58428 19.8569 3.58496 19.7806C3.58632 19.6278 3.58928 19.4061 3.59473 19.1322C3.60563 18.5841 3.62732 17.826 3.6709 16.9877C3.7475 15.5143 3.89048 13.8114 4.1543 12.557L4.27539 12.0482C4.61313 10.7854 5.57141 9.76976 6.7998 9.35095L7.04883 9.27478C7.67271 9.10681 8.7888 8.97687 10.1328 8.8783C11.4698 8.78024 13.0117 8.71399 14.4746 8.67029C15.9371 8.6266 17.3188 8.60504 18.335 8.59412C18.8428 8.58866 19.2594 8.58572 19.5488 8.58435C19.6936 8.58367 19.8071 8.58354 19.8838 8.58337H20.1182ZM16.417 25.4418L16.7959 25.2142L25.1289 20.2142L25.4863 20.0004L25.1289 19.7855L16.7959 14.7855L16.417 14.559V25.4418Z" fill="#DA1E17" stroke="white" stroke-width="0.5"/>
</svg>
