<svg width="33" height="32" viewBox="0 0 33 32" fill="none" xmlns="http://www.w3.org/2000/svg">
<g clip-path="url(#clip0_207_1694)">
<path d="M27.5842 22.3629C25.4318 23.5917 22.8932 24.2085 20.1871 23.9885C14.1491 23.4978 9.18999 18.6743 8.53394 12.6521C8.22927 9.85537 8.83159 7.20876 10.0825 4.97685C10.444 4.33195 9.73155 3.61448 9.08916 3.98042C4.44213 6.62786 1.42957 11.8116 1.93094 17.6387C2.5216 24.5045 8.1172 30.0652 14.9873 30.6043C20.8153 31.0616 25.9814 28.0119 28.5915 23.347C28.9534 22.7004 28.2277 21.9955 27.5842 22.3629Z" fill="#FFD06C"/>
<path d="M17.1755 27.573C10.7401 27.068 5.49862 21.8592 4.94532 15.4279C4.54828 10.8139 6.50855 6.63664 9.75212 3.95492C9.55664 3.86109 9.31925 3.84932 9.0892 3.98039C4.44217 6.6278 1.42958 11.8116 1.93094 17.6387C2.52158 24.5045 8.11725 30.0652 14.9873 30.6043C20.8153 31.0615 25.9815 28.0119 28.5915 23.347C28.7211 23.1155 28.7074 22.8781 28.6118 22.6836C25.9547 25.9451 21.7896 27.9351 17.1755 27.573Z" fill="#FEBC1F"/>
<path d="M30.8454 4.38413C29.3532 3.96108 28.338 3.02236 27.7997 1.56817C27.6878 1.26591 27.2628 1.28245 27.1749 1.59252C26.752 3.08413 25.8133 4.09898 24.3587 4.6369C24.0564 4.74867 24.073 5.17355 24.3832 5.26148C25.8754 5.68459 26.8905 6.62321 27.4288 8.07745C27.5407 8.37971 27.9656 8.36316 28.0536 8.0531C28.4765 6.56138 29.4153 5.54669 30.8698 5.00876C31.1721 4.89695 31.1555 4.47206 30.8454 4.38413Z" fill="#FFD06C"/>
<path d="M30.8699 5.00871C31.1722 4.89693 31.1556 4.47204 30.8455 4.38412C29.8518 4.10237 29.0709 3.59059 28.5002 2.85156C28.7537 4.23471 28.5862 5.91208 27.014 7.21217C27.1739 7.47724 27.3131 7.76466 27.4289 8.07742C27.5304 8.35166 27.8871 8.36081 28.0185 8.12906C28.0738 7.94453 28.1363 7.76667 28.2068 7.5962C28.6826 6.35289 29.5695 5.48967 30.8699 5.00871Z" fill="#FEBC1F"/>
<path d="M17.5909 3.34918C16.6297 3.07665 15.9757 2.47196 15.629 1.5352C15.5569 1.34049 15.2831 1.35115 15.2265 1.55088C14.954 2.51177 14.3493 3.1655 13.4123 3.51199C13.2176 3.584 13.2283 3.85771 13.4281 3.91435C14.3893 4.18692 15.0433 4.79153 15.39 5.72833C15.4621 5.92304 15.7359 5.91238 15.7925 5.71265C16.065 4.75172 16.6697 4.09807 17.6067 3.75153C17.8014 3.67953 17.7907 3.40581 17.5909 3.34918Z" fill="#FFD06C"/>
<path d="M17.6067 3.75153C17.8014 3.67952 17.7907 3.40581 17.5909 3.34918C16.9508 3.16768 16.4478 2.83801 16.0802 2.36194C16.2434 3.25293 16.1356 4.33345 15.1228 5.17095C15.2258 5.3417 15.3155 5.52685 15.39 5.72832C15.4555 5.90498 15.6852 5.91087 15.7698 5.76158C15.8055 5.64271 15.8457 5.52814 15.8911 5.41833C16.1977 4.61742 16.769 4.06135 17.6067 3.75153Z" fill="#FEBC1F"/>
<path d="M30.9746 14.2165C30.0582 13.9567 29.4347 13.3801 29.1041 12.487C29.0353 12.3013 28.7743 12.3115 28.7203 12.5019C28.4605 13.4181 27.884 14.0414 26.9906 14.3717C26.805 14.4404 26.8152 14.7013 27.0057 14.7553C27.9221 15.0152 28.5456 15.5917 28.8762 16.4849C28.945 16.6705 29.206 16.6603 29.26 16.4699C29.5198 15.5537 30.0963 14.9305 30.9897 14.6001C31.1753 14.5315 31.1651 14.2705 30.9746 14.2165Z" fill="#FFD06C"/>
<path d="M30.9897 14.6001C31.1754 14.5315 31.1651 14.2705 30.9746 14.2165C30.3643 14.0435 29.8847 13.7292 29.5342 13.2753C29.6899 14.1248 29.5871 15.155 28.6215 15.9535C28.7197 16.1163 28.8051 16.2928 28.8763 16.4849C28.9386 16.6533 29.1577 16.6589 29.2384 16.5166C29.2723 16.4033 29.3107 16.294 29.354 16.1893C29.6463 15.4257 30.191 14.8955 30.9897 14.6001Z" fill="#FEBC1F"/>
<path d="M8.4541 18.5297C9.89931 20.9733 11.8974 22.8896 14.399 24.2321C11.6525 23.5163 9.28747 21.2413 8.4541 18.5297Z" fill="white"/>
<path d="M22.5624 17.4616L22.0435 14.4707C22.0131 14.2952 22.071 14.1159 22.1983 13.9913L24.3679 11.8682C24.6886 11.5544 24.5103 11.0091 24.0661 10.9454L21.0613 10.5146C20.885 10.4894 20.7323 10.3789 20.6531 10.2193L19.3045 7.49976C19.1052 7.09779 18.5314 7.09886 18.3336 7.5016L16.9954 10.2263C16.9168 10.3862 16.7646 10.4973 16.5883 10.5232L13.5852 10.9655C13.1413 11.0309 12.9651 11.5769 13.287 11.8895L15.4647 14.0042C15.5926 14.1284 15.6512 14.3074 15.6214 14.4831L15.114 17.476C15.039 17.9183 15.5038 18.2547 15.9006 18.0451L18.5847 16.6274C18.7423 16.5442 18.9306 16.5438 19.0885 16.6264L21.7781 18.0338C22.1756 18.2418 22.6392 17.9037 22.5624 17.4616Z" fill="#FEBC1F"/>
<path d="M22.0618 14.2119C22.0883 14.1296 22.1346 14.0536 22.1983 13.9913L24.3679 11.8683C24.5283 11.7114 24.5639 11.4966 24.5038 11.313L18.83 13.1687L22.0618 14.2119Z" fill="#FFD06C"/>
<path d="M18.8364 16.4945L20.8598 17.5533L21.7781 18.0339C21.9769 18.1379 22.1921 18.1054 22.3481 17.9916L18.83 13.1687L18.8364 16.4945Z" fill="#FFD06C"/>
<path d="M21.1059 16.7884C20.7616 16.1285 20.3279 15.5307 19.8054 15.0005C20.1489 15.6609 20.584 16.2577 21.1059 16.7884Z" fill="white"/>
<path d="M15.114 17.476C15.0765 17.6972 15.1739 17.8919 15.3304 18.0051L18.8299 13.1687L15.6022 14.2244C15.6291 14.3066 15.6363 14.3953 15.6214 14.4831L15.114 17.476ZM20.8207 10.4174C20.7506 10.3667 20.6927 10.2992 20.6531 10.2193L19.3044 7.49982C19.2048 7.29882 19.0115 7.1986 18.8184 7.19898L18.8299 13.1687L20.8207 10.4174Z" fill="#FFD06C"/>
<path d="M16.8285 10.425C16.7586 10.476 16.6765 10.5103 16.5884 10.5233L13.5852 10.9656C13.3633 10.9982 13.2082 11.1511 13.1489 11.3349L18.8299 13.1687L16.8285 10.425Z" fill="#FFD06C"/>
<path d="M17.4359 12.4331C16.7938 12.0567 16.109 11.7806 15.3848 11.6089C16.0264 11.986 16.7119 12.2605 17.4359 12.4331ZM22.7574 11.5209C22.0259 11.6587 21.3279 11.9001 20.6688 12.2462C21.4006 12.1093 22.098 11.8662 22.7574 11.5209Z" fill="white"/>
</g>
<defs>
<clipPath id="clip0_207_1694">
<rect width="32" height="32" fill="white" transform="translate(0.5)"/>
</clipPath>
</defs>
</svg>
