<svg width="28" height="28" viewBox="0 0 28 28" fill="none" xmlns="http://www.w3.org/2000/svg">
<g clip-path="url(#clip0_588_3608)">
<path d="M13.9999 25.6113C20.4126 25.6113 25.6112 20.4127 25.6112 14C25.6112 7.58728 20.4126 2.38875 13.9999 2.38875C7.58721 2.38875 2.38867 7.58728 2.38867 14C2.38867 20.4127 7.58721 25.6113 13.9999 25.6113Z" fill="#EFF2FA"/>
<path d="M14.0001 18.838C16.6721 18.838 18.8382 16.672 18.8382 14C18.8382 11.328 16.6721 9.16196 14.0001 9.16196C11.3282 9.16196 9.16211 11.328 9.16211 14C9.16211 16.672 11.3282 18.838 14.0001 18.838Z" fill="#C7CFE2"/>
<path d="M14 0.453583C6.51851 0.453583 0.453613 6.51848 0.453613 14C0.453613 21.4815 6.51857 27.5464 14 27.5464C21.4815 27.5464 27.5465 21.4815 27.5465 14C27.5465 6.51848 21.4816 0.453583 14 0.453583ZM14 25.6113C7.58732 25.6113 2.38879 20.4128 2.38879 14C2.38879 7.58724 7.58732 2.38875 14 2.38875C20.4127 2.38875 25.6113 7.58729 25.6113 14C25.6113 20.4127 20.4127 25.6113 14 25.6113Z" fill="#707487"/>
<path d="M13.9999 2.38875C7.58721 2.38875 2.38867 7.58729 2.38867 14C2.38867 20.4127 7.58721 25.6113 13.9999 25.6113C20.4126 25.6113 25.6112 20.4127 25.6112 14C25.6112 7.58729 20.4126 2.38875 13.9999 2.38875ZM13.9999 24.2808C8.32205 24.2808 3.71916 19.6779 3.71916 14C3.71916 8.32212 8.32205 3.71924 13.9999 3.71924C19.6778 3.71924 24.2807 8.32212 24.2807 14C24.2807 19.6779 19.6778 24.2808 13.9999 24.2808Z" fill="#C7CFE2"/>
<path d="M14.0002 15.4514C14.8018 15.4514 15.4516 14.8016 15.4516 14C15.4516 13.1984 14.8018 12.5486 14.0002 12.5486C13.1986 12.5486 12.5488 13.1984 12.5488 14C12.5488 14.8016 13.1986 15.4514 14.0002 15.4514Z" fill="#5B5D6E"/>
<path d="M23.8995 4.10052C21.2553 1.45622 17.7395 0 14 0C10.2605 0 6.74472 1.45622 4.10052 4.10052C1.45633 6.74483 0 10.2605 0 14C0 17.7395 1.45622 21.2553 4.10052 23.8995C6.74483 26.5437 10.2605 28 14 28C17.7395 28 21.2553 26.5438 23.8995 23.8995C26.5437 21.2552 28 17.7395 28 14C28 10.2605 26.5438 6.74472 23.8995 4.10052ZM23.2581 23.2581C20.7851 25.731 17.4973 27.0929 14 27.0929C10.5027 27.0929 7.21487 25.731 4.7419 23.2581C2.26904 20.7851 0.907102 17.4972 0.907102 14C0.907102 10.5028 2.26904 7.21487 4.7419 4.7419C7.21487 2.26904 10.5028 0.907102 14 0.907102C17.4972 0.907102 20.7851 2.26898 23.2581 4.7419C25.731 7.21487 27.0929 10.5028 27.0929 14C27.0929 17.4972 25.731 20.7851 23.2581 23.2581Z" fill="#02026C"/>
<path d="M15.0655 14.9387C15.2865 14.6882 15.4209 14.3595 15.4209 14C15.4209 13.3749 15.0152 12.8433 14.4534 12.6535V7.71061C14.4534 7.59032 14.4056 7.47495 14.3205 7.38988C14.2354 7.30482 14.1201 7.25703 13.9998 7.25703C13.8795 7.25703 13.7641 7.30482 13.679 7.38988C13.594 7.47495 13.5462 7.59032 13.5462 7.71061V12.6535C12.9844 12.8433 12.5786 13.375 12.5786 14C12.5786 14.7836 13.2162 15.4212 13.9998 15.4212C14.0958 15.4212 14.1897 15.4115 14.2804 15.3932L17.2394 20.5182C17.2691 20.5698 17.3088 20.615 17.356 20.6513C17.4033 20.6876 17.4572 20.7142 17.5147 20.7296C17.5723 20.745 17.6323 20.749 17.6913 20.7412C17.7504 20.7334 17.8073 20.714 17.8589 20.6842C17.9105 20.6545 17.9557 20.6148 17.992 20.5676C18.0282 20.5203 18.0548 20.4664 18.0702 20.4088C18.0857 20.3513 18.0896 20.2913 18.0818 20.2323C18.074 20.1732 18.0547 20.1163 18.0249 20.0647L15.0655 14.9387ZM13.4857 14C13.4857 13.7166 13.7163 13.4859 13.9998 13.4859C14.2832 13.4859 14.5138 13.7166 14.5138 14C14.5138 14.2834 14.2832 14.5141 13.9998 14.5141C13.7163 14.5141 13.4857 14.2834 13.4857 14Z" fill="#02026C"/>
<path d="M13.9998 1.93523C7.34726 1.93523 1.93506 7.34743 1.93506 14C1.93506 20.6526 7.34726 26.0648 13.9998 26.0648C20.6524 26.0648 26.0646 20.6526 26.0646 14C26.0646 7.34743 20.6524 1.93523 13.9998 1.93523ZM13.9998 25.1577C7.84743 25.1577 2.84216 20.1524 2.84216 14C2.84216 7.8476 7.84743 2.84233 13.9998 2.84233C20.1522 2.84233 25.1575 7.8476 25.1575 14C25.1575 20.1524 20.1522 25.1577 13.9998 25.1577Z" fill="#02026C"/>
<path d="M6.22917 14C6.22917 13.8797 6.18138 13.7643 6.09632 13.6793C6.01126 13.5942 5.89589 13.5464 5.77559 13.5464H4.32418C4.20389 13.5464 4.08852 13.5942 4.00346 13.6793C3.91839 13.7643 3.87061 13.8797 3.87061 14C3.87061 14.1203 3.91839 14.2357 4.00346 14.3207C4.08852 14.4058 4.20389 14.4536 4.32418 14.4536H5.77559C5.89588 14.4536 6.01124 14.4058 6.0963 14.3207C6.18136 14.2356 6.22915 14.1203 6.22917 14ZM23.6762 13.5464H22.2248C22.1045 13.5464 21.9892 13.5942 21.9041 13.6793C21.819 13.7643 21.7712 13.8797 21.7712 14C21.7712 14.1203 21.819 14.2357 21.9041 14.3207C21.9892 14.4058 22.1045 14.4536 22.2248 14.4536H23.6762C23.7965 14.4536 23.9119 14.4058 23.997 14.3207C24.082 14.2357 24.1298 14.1203 24.1298 14C24.1298 13.8797 24.082 13.7643 23.997 13.6793C23.9119 13.5942 23.7965 13.5464 23.6762 13.5464ZM14.0002 6.22895C14.1205 6.22895 14.2359 6.18117 14.3209 6.0961C14.406 6.01104 14.4538 5.89567 14.4538 5.77538V4.32397C14.4538 4.20367 14.406 4.0883 14.3209 4.00324C14.2359 3.91818 14.1205 3.87039 14.0002 3.87039C13.8799 3.87039 13.7645 3.91818 13.6795 4.00324C13.5944 4.0883 13.5466 4.20367 13.5466 4.32397V5.77538C13.5466 5.89567 13.5944 6.01103 13.6795 6.09609C13.7646 6.18115 13.8799 6.22894 14.0002 6.22895ZM14.0002 21.771C13.8799 21.771 13.7645 21.8188 13.6795 21.9039C13.5944 21.9889 13.5466 22.1043 13.5466 22.2246V23.676C13.5466 23.7963 13.5944 23.9117 13.6795 23.9967C13.7645 24.0818 13.8799 24.1296 14.0002 24.1296C14.1205 24.1296 14.2359 24.0818 14.3209 23.9967C14.406 23.9117 14.4538 23.7963 14.4538 23.676V22.2246C14.4538 22.1043 14.406 21.989 14.3209 21.9039C14.2359 21.8188 14.1205 21.771 14.0002 21.771ZM9.6309 21.5679C9.57932 21.5381 9.52238 21.5188 9.46333 21.511C9.40427 21.5032 9.34427 21.5072 9.28674 21.5226C9.2292 21.538 9.17527 21.5646 9.12802 21.6008C9.08076 21.6371 9.04112 21.6823 9.01134 21.7339L8.76946 22.1529C8.70932 22.257 8.69302 22.3808 8.72416 22.497C8.7553 22.6132 8.83131 22.7123 8.93549 22.7724C9.03966 22.8326 9.16346 22.8489 9.27965 22.8177C9.39584 22.7866 9.4949 22.7106 9.55504 22.6064L9.79693 22.1874C9.85704 22.0833 9.87332 21.9595 9.84219 21.8433C9.81105 21.7271 9.73505 21.6281 9.6309 21.5679ZM19.065 5.22752C19.0134 5.19773 18.9565 5.17839 18.8974 5.17061C18.8384 5.16284 18.7783 5.16677 18.7208 5.18219C18.6633 5.1976 18.6093 5.22421 18.5621 5.26047C18.5148 5.29674 18.4752 5.34196 18.4454 5.39355L18.2035 5.81251C18.1434 5.91668 18.1271 6.04048 18.1582 6.15667C18.1894 6.27286 18.2654 6.37192 18.3696 6.43206C18.4738 6.4922 18.5975 6.5085 18.7137 6.47736C18.8299 6.44623 18.929 6.37021 18.9891 6.26603L19.231 5.84707C19.2911 5.74289 19.3074 5.6191 19.2763 5.50291C19.2452 5.38672 19.1692 5.28766 19.065 5.22752ZM6.2663 9.01107L5.84734 8.76919C5.63039 8.64385 5.35302 8.71827 5.22778 8.93522C5.10255 9.15216 5.17687 9.42954 5.39382 9.55478L5.81278 9.79666C5.86436 9.82645 5.9213 9.8458 5.98035 9.85358C6.03941 9.86136 6.09942 9.85743 6.15696 9.84201C6.21449 9.82659 6.26843 9.79999 6.31568 9.76372C6.36293 9.72745 6.40257 9.68222 6.43233 9.63063C6.49247 9.52645 6.50876 9.40265 6.47762 9.28647C6.44648 9.17028 6.37047 9.07122 6.2663 9.01107ZM22.6067 18.4452L22.1877 18.2033C22.0836 18.1443 21.9604 18.1289 21.8449 18.1603C21.7295 18.1918 21.6311 18.2675 21.5713 18.3712C21.5114 18.4748 21.495 18.5979 21.5255 18.7136C21.556 18.8293 21.631 18.9282 21.7341 18.9889L22.1531 19.2308C22.2047 19.2606 22.2616 19.2799 22.3207 19.2877C22.3797 19.2955 22.4397 19.2916 22.4973 19.2762C22.5548 19.2607 22.6087 19.2341 22.656 19.1979C22.7032 19.1616 22.7429 19.1164 22.7726 19.0648C22.8024 19.0132 22.8218 18.9563 22.8295 18.8972C22.8373 18.8381 22.8334 18.7781 22.818 18.7206C22.8026 18.6631 22.776 18.6091 22.7397 18.5619C22.7035 18.5146 22.6582 18.475 22.6067 18.4452ZM18.9891 21.7339C18.9594 21.6823 18.9197 21.6371 18.8725 21.6008C18.8252 21.5645 18.7713 21.5379 18.7137 21.5225C18.6562 21.5071 18.5962 21.5032 18.5371 21.511C18.4781 21.5188 18.4211 21.5381 18.3696 21.5679C18.2654 21.6281 18.1894 21.7271 18.1583 21.8433C18.1271 21.9595 18.1434 22.0833 18.2035 22.1875L18.4454 22.6064C18.4752 22.658 18.5148 22.7033 18.5621 22.7395C18.6093 22.7758 18.6633 22.8024 18.7208 22.8178C18.7783 22.8333 18.8383 22.8372 18.8974 22.8294C18.9565 22.8216 19.0134 22.8023 19.065 22.7725C19.1692 22.7123 19.2452 22.6133 19.2763 22.4971C19.3074 22.3809 19.2911 22.2571 19.231 22.1529L18.9891 21.7339ZM9.55499 5.39355C9.52522 5.34196 9.48557 5.29674 9.43832 5.26047C9.39107 5.22421 9.33714 5.1976 9.27961 5.18219C9.22207 5.16677 9.16206 5.16284 9.10301 5.17061C9.04396 5.17839 8.98701 5.19773 8.93543 5.22752C8.83126 5.28766 8.75525 5.38672 8.72412 5.50291C8.69298 5.6191 8.70927 5.74289 8.7694 5.84707L9.01129 6.26603C9.04105 6.31763 9.08068 6.36286 9.12793 6.39914C9.17518 6.43541 9.22912 6.46202 9.28666 6.47744C9.34419 6.49286 9.40421 6.49679 9.46326 6.489C9.52232 6.48122 9.57926 6.46187 9.63084 6.43206C9.73501 6.37192 9.81102 6.27286 9.84216 6.15667C9.87329 6.04048 9.85701 5.91669 9.79687 5.81251L9.55499 5.39355ZM21.9613 9.85752C22.0408 9.85753 22.1189 9.83656 22.1877 9.79671L22.6067 9.55483C22.6582 9.52505 22.7035 9.48541 22.7397 9.43815C22.776 9.3909 22.8026 9.33697 22.818 9.27944C22.8334 9.2219 22.8373 9.16189 22.8295 9.10284C22.8218 9.04379 22.8024 8.98685 22.7726 8.93528C22.7429 8.88368 22.7032 8.83847 22.656 8.8022C22.6087 8.76593 22.5548 8.73933 22.4972 8.72391C22.4397 8.7085 22.3797 8.70456 22.3207 8.71234C22.2616 8.72012 22.2047 8.73945 22.1531 8.76924L21.7341 9.01113C21.6825 9.0409 21.6373 9.08055 21.6011 9.1278C21.5648 9.17505 21.5382 9.22899 21.5228 9.28652C21.5074 9.34405 21.5034 9.40406 21.5112 9.46311C21.519 9.52216 21.5383 9.5791 21.5681 9.63068C21.608 9.69971 21.6653 9.75703 21.7343 9.79685C21.8033 9.83668 21.8816 9.8576 21.9613 9.85752ZM5.81272 18.2033L5.39376 18.4452C5.29102 18.5061 5.21642 18.605 5.18616 18.7205C5.1559 18.836 5.17241 18.9588 5.23211 19.0622C5.29182 19.1657 5.3899 19.2414 5.50507 19.2729C5.62024 19.3045 5.7432 19.2893 5.84729 19.2308L6.26625 18.9889C6.37042 18.9288 6.44643 18.8297 6.47756 18.7135C6.5087 18.5973 6.49241 18.4735 6.43228 18.3694C6.40251 18.3178 6.36286 18.2726 6.31561 18.2363C6.26836 18.2 6.21443 18.1734 6.15689 18.158C6.09936 18.1426 6.03935 18.1386 5.9803 18.1464C5.92125 18.1542 5.8643 18.1735 5.81272 18.2033Z" fill="#02026C"/>
</g>
<defs>
<clipPath id="clip0_588_3608">
<rect width="28" height="28" fill="white"/>
</clipPath>
</defs>
</svg>
