<svg width="28" height="28" viewBox="0 0 28 28" fill="none" xmlns="http://www.w3.org/2000/svg">
<path d="M19.0483 16.7748C21.7134 16.7748 23.8739 14.6143 23.8739 11.9492C23.8739 9.2841 21.7134 7.1236 19.0483 7.1236C16.3832 7.1236 14.2227 9.2841 14.2227 11.9492C14.2227 14.6143 16.3832 16.7748 19.0483 16.7748Z" fill="#F5BD02"/>
<path d="M19.0483 17.5952C15.9355 17.5952 13.4023 15.0626 13.4023 11.9492C13.4023 8.83586 15.9349 6.30328 19.0483 6.30328C22.1616 6.30328 24.6942 8.83586 24.6942 11.9492C24.6942 15.0626 22.1616 17.5952 19.0483 17.5952ZM19.0483 7.94391C16.84 7.94391 15.043 9.74039 15.043 11.9492C15.043 14.158 16.8395 15.9545 19.0483 15.9545C21.2571 15.9545 23.0536 14.158 23.0536 11.9492C23.0536 9.74039 21.2571 7.94391 19.0483 7.94391Z" fill="#02026C"/>
<path d="M18.228 4.38156V5.22266C18.228 5.6757 18.5953 6.04297 19.0483 6.04297C19.5014 6.04297 19.8687 5.6757 19.8687 5.22266V4.38156C19.8687 3.92852 19.5014 3.56125 19.0483 3.56125C18.5953 3.56125 18.228 3.92852 18.228 4.38156Z" fill="#02026C"/>
<path d="M23.8193 6.01826L23.2246 6.61301C22.9042 6.93336 22.9042 7.45275 23.2246 7.7731C23.5449 8.09345 24.0643 8.09345 24.3847 7.7731L24.9794 7.17836C25.2998 6.85801 25.2998 6.33861 24.9794 6.01826C24.6591 5.69791 24.1397 5.69791 23.8193 6.01826Z" fill="#02026C"/>
<path d="M26.616 11.1289H25.7749C25.3219 11.1289 24.9546 11.4962 24.9546 11.9492C24.9546 12.4023 25.3219 12.7695 25.7749 12.7695H26.616C27.069 12.7695 27.4363 12.4023 27.4363 11.9492C27.4363 11.4962 27.069 11.1289 26.616 11.1289Z" fill="#02026C"/>
<path d="M13.1172 7.17781L13.7119 7.77255C14.0323 8.0929 14.5517 8.0929 14.872 7.77255C15.1924 7.4522 15.1924 6.93281 14.872 6.61245L14.2773 6.01771C13.9569 5.69736 13.4376 5.69736 13.1172 6.01771C12.7968 6.33806 12.7968 6.85746 13.1172 7.17781Z" fill="#02026C"/>
<path d="M22.502 14.3237H20.6361C19.8016 14.3237 19.0458 13.8212 18.7308 13.0484C17.6551 10.4092 15.0634 8.54929 12.0376 8.54929C9.01172 8.54929 6.23961 10.5416 5.23719 13.3279C5.02609 13.9141 4.56344 14.3751 3.97445 14.5791C2.15555 15.2097 0.849609 16.9378 0.849609 18.9711C0.849609 21.5376 2.93047 23.6184 5.49695 23.6184H22.5015C25.068 23.6184 27.1488 21.5376 27.1488 18.9711C27.1488 16.4041 25.068 14.3237 22.5015 14.3237H22.502Z" fill="white"/>
<path d="M22.4415 13.5029H20.6357C20.1293 13.5029 19.6798 13.2032 19.49 12.7383C18.8934 11.2749 17.8871 10.028 16.579 9.13225C15.2386 8.21405 13.668 7.72897 12.0378 7.72897C11.0053 7.72897 10.0045 7.92804 9.07916 8.29554C8.61595 8.47929 8.42674 9.03436 8.67556 9.4664C8.879 9.81913 9.30994 9.96733 9.68838 9.81749C10.4228 9.5271 11.2174 9.3696 12.0372 9.3696C14.6535 9.3696 16.9826 10.9348 17.9703 13.358C18.4127 14.443 19.4588 15.1435 20.6352 15.1435H22.4524C24.5595 15.1435 26.3085 16.8262 26.3287 18.9333C26.3495 21.0607 24.6246 22.7981 22.5017 22.7981H5.554C3.5147 22.7981 1.79095 21.2242 1.67666 19.1887C1.57986 17.4716 2.63642 15.9113 4.24369 15.3541C5.06892 15.068 5.71259 14.4309 6.00955 13.6057C6.29666 12.8073 6.73361 12.0914 7.28213 11.486C7.5233 11.2197 7.56978 10.8308 7.38986 10.5197C7.1115 10.0373 6.44486 9.96788 6.07025 10.3808C5.37845 11.1431 4.8272 12.0449 4.46517 13.0501C4.3372 13.4061 4.06048 13.6812 3.70611 13.8042C1.4508 14.5857 -0.0459999 16.7508 0.0327501 19.1521C0.129547 22.1107 2.59978 24.4387 5.55947 24.4387H22.5022C25.5281 24.4387 27.9874 21.9685 27.9699 18.9388C27.9524 15.9091 25.4592 13.5029 22.4415 13.5029Z" fill="#02026C"/>
<path d="M5.97338 21.4599H6.1183C6.57111 21.4599 6.93861 21.0924 6.93861 20.6396C6.93861 20.1868 6.57111 19.8193 6.1183 19.8193H5.97338C5.45166 19.8193 5.02783 19.3949 5.02783 18.8737V18.7288C5.02783 18.276 4.66033 17.9085 4.20752 17.9085C3.75471 17.9085 3.38721 18.276 3.38721 18.7288V18.8737C3.38721 20.3 4.54768 21.4599 5.97338 21.4599Z" fill="#BBD7FF"/>
</svg>
