<svg width="28" height="28" viewBox="0 0 28 28" fill="none" xmlns="http://www.w3.org/2000/svg">
<path d="M26.403 14C26.403 20.8491 20.8489 26.4031 13.9998 26.4031C19.9148 24.5197 23.6467 14 14.597 13.37C6.14233 13.6172 4.85608 3.43218 13.9998 1.59686C20.8489 1.59686 26.403 7.15093 26.403 14Z" fill="#EBEBF0"/>
<path d="M13.9998 26.4031C7.15074 26.4031 1.59668 20.8491 1.59668 14C1.59668 7.15093 7.15074 1.59686 13.9998 1.59686C4.85605 3.43218 6.1423 13.6172 14.597 13.37C23.6467 14 19.9148 24.5197 13.9998 26.4031Z" fill="#02026C"/>
<path d="M14.68 20.417C15.6566 20.417 16.4484 19.6253 16.4484 18.6487C16.4484 17.672 15.6566 16.8803 14.68 16.8803C13.7034 16.8803 12.9116 17.672 12.9116 18.6487C12.9116 19.6253 13.7034 20.417 14.68 20.417Z" fill="#EDE1ED"/>
<path d="M14.68 9.62717C15.6566 9.62717 16.4484 8.83544 16.4484 7.8588C16.4484 6.88215 15.6566 6.09042 14.68 6.09042C13.7034 6.09042 12.9116 6.88215 12.9116 7.8588C12.9116 8.83544 13.7034 9.62717 14.68 9.62717Z" fill="#02026C"/>
<path d="M25.3749 8.52601C25.3228 8.4173 25.1916 8.37136 25.0828 8.42408C24.9741 8.47658 24.9284 8.60739 24.9809 8.71611C25.7793 10.3707 26.1842 12.1485 26.1842 14C26.1842 20.3092 21.3637 25.5133 15.2124 26.1238C18.2535 24.5158 20.579 20.6688 20.2014 17.5217C20.0218 16.0224 19.0567 13.461 14.5909 13.151C10.3846 13.2751 8.21197 10.845 7.93109 8.38251C7.63469 5.7853 9.40459 2.75014 14.0244 1.81629C16.9294 1.8222 19.7388 2.86651 21.9379 4.75979C22.0289 4.83833 22.1673 4.82826 22.2463 4.73661C22.3251 4.64517 22.3148 4.50692 22.2233 4.42817C19.9387 2.46139 17.0182 1.37836 13.9999 1.37836C7.24356 1.37814 1.70525 6.6603 1.39134 13.4035C1.38587 13.5242 1.47906 13.6266 1.59981 13.6321C1.60331 13.6321 1.60659 13.6323 1.61009 13.6323C1.72625 13.6323 1.82294 13.5409 1.8284 13.4236C2.09769 7.63986 6.34953 2.97304 11.869 2.00376C8.51712 3.3797 7.22715 6.0712 7.49644 8.43173C7.79022 11.0066 10.1354 13.7209 14.5824 13.5875C17.6434 13.8007 19.4848 15.2163 19.7674 17.5735C20.1677 20.9121 17.3505 25.0856 13.9638 26.1833C7.77162 26.1651 2.58637 21.5281 1.89534 15.3819C1.882 15.2618 1.7724 15.1751 1.65362 15.1889C1.53353 15.2023 1.44712 15.3108 1.46069 15.4309C2.17819 21.8107 7.56884 26.6217 14.0003 26.6217C20.9601 26.6217 26.6222 20.9595 26.6222 13.9998C26.6222 12.0816 26.2026 10.2399 25.3753 8.52579L25.3749 8.52601Z" fill="#02026C"/>
<path d="M23.9727 7.00067C24.0151 7.06148 24.0831 7.09408 24.152 7.09408C24.1951 7.09408 24.2389 7.08117 24.2769 7.0547C24.376 6.98558 24.4001 6.84908 24.331 6.74998C24.1297 6.46189 23.902 6.16658 23.6539 5.87236C23.5761 5.78004 23.438 5.76801 23.3457 5.84611C23.2534 5.92398 23.2416 6.06201 23.3195 6.15433C23.559 6.43848 23.7789 6.72308 23.9724 7.00045L23.9727 7.00067ZM16.6666 18.6487C16.6666 17.5529 15.7752 16.6615 14.6795 16.6615C13.5838 16.6615 12.6924 17.5529 12.6924 18.6487C12.6924 19.7444 13.5838 20.6358 14.6795 20.6358C15.7752 20.6358 16.6666 19.7444 16.6666 18.6487ZM13.1299 18.6487C13.1299 17.7942 13.8251 17.099 14.6795 17.099C15.5339 17.099 16.2291 17.7942 16.2291 18.6487C16.2291 19.5031 15.5339 20.1983 14.6795 20.1983C13.8251 20.1983 13.1299 19.5031 13.1299 18.6487ZM12.6924 7.85883C12.6924 8.95454 13.5838 9.84595 14.6795 9.84595C15.7752 9.84595 16.6666 8.95454 16.6666 7.85883C16.6666 6.76311 15.7752 5.8717 14.6795 5.8717C13.5838 5.8717 12.6924 6.76311 12.6924 7.85883ZM16.2291 7.85883C16.2291 8.71326 15.5339 9.40845 14.6795 9.40845C13.8251 9.40845 13.1299 8.71326 13.1299 7.85883C13.1299 7.00439 13.8251 6.3092 14.6795 6.3092C15.5339 6.3092 16.2291 7.00439 16.2291 7.85883Z" fill="black"/>
</svg>
