<svg width="20" height="20" viewBox="0 0 20 20" fill="none" xmlns="http://www.w3.org/2000/svg">
<g clip-path="url(#clip0_1439_2636)">
<path fill-rule="evenodd" clip-rule="evenodd" d="M18.125 9.375V5.625C18.125 4.79625 17.7956 4.00125 17.2097 3.41531C16.6238 2.82938 15.8287 2.5 15 2.5C12.2256 2.5 7.77437 2.5 5 2.5C4.17125 2.5 3.37625 2.82938 2.79031 3.41531C2.20437 4.00125 1.875 4.79625 1.875 5.625C1.875 8.39937 1.875 12.8506 1.875 15.625C1.875 16.4537 2.20437 17.2488 2.79031 17.8347C3.37625 18.4206 4.17125 18.75 5 18.75C7.77437 18.75 12.2256 18.75 15 18.75C15.8287 18.75 16.6238 18.4206 17.2097 17.8347C17.7956 17.2488 18.125 16.4537 18.125 15.625C18.125 15.425 18.125 12.0913 18.125 11.875C18.125 11.53 17.845 11.25 17.5 11.25C17.155 11.25 16.875 11.53 16.875 11.875V15.625C16.875 16.1222 16.6775 16.5991 16.3259 16.9509C15.9741 17.3025 15.4972 17.5 15 17.5C12.2256 17.5 7.77437 17.5 5 17.5C4.50281 17.5 4.02593 17.3025 3.67406 16.9509C3.3225 16.5991 3.125 16.1222 3.125 15.625C3.125 12.8506 3.125 8.39937 3.125 5.625C3.125 5.12781 3.3225 4.65094 3.67406 4.29906C4.02593 3.9475 4.50281 3.75 5 3.75C7.77437 3.75 12.2256 3.75 15 3.75C15.4972 3.75 15.9741 3.9475 16.3259 4.29906C16.6775 4.65094 16.875 5.12781 16.875 5.625C16.875 7.66344 16.875 6.85656 16.875 9.375C16.875 9.72 17.155 10 17.5 10C17.845 10 18.125 9.72 18.125 9.375Z" fill="#192E52"/>
<path fill-rule="evenodd" clip-rule="evenodd" d="M18.125 5.6246C18.125 4.79576 17.7956 4.00097 17.2097 3.41494C16.6238 2.8289 15.8287 2.49963 15 2.49963C12.2256 2.49963 7.77437 2.49963 5 2.49963C4.17125 2.49963 3.37625 2.8289 2.79031 3.41494C2.20437 4.00097 1.875 4.79576 1.875 5.6246C1.875 6.87459 1.875 8.12458 1.875 8.12458C1.875 8.46978 2.15469 8.74957 2.5 8.74957H17.5C17.8453 8.74957 18.125 8.46978 18.125 8.12458V5.6246ZM16.875 7.49958V5.6246C16.875 5.12732 16.6775 4.65045 16.3259 4.29878C15.9741 3.94712 15.4972 3.74962 15 3.74962C12.2256 3.74962 7.77437 3.74962 5 3.74962C4.50281 3.74962 4.02593 3.94712 3.67406 4.29878C3.3225 4.65045 3.125 5.12732 3.125 5.6246V7.49958H16.875Z" fill="#192E52"/>
<path fill-rule="evenodd" clip-rule="evenodd" d="M6.25046 6.25H13.7505C14.0955 6.25 14.3756 5.97 14.3756 5.625C14.3756 5.28 14.0955 5 13.7505 5H6.25046C5.90546 5 5.62537 5.28 5.62537 5.625C5.62537 5.97 5.90546 6.25 6.25046 6.25Z" fill="#192E52"/>
<path fill-rule="evenodd" clip-rule="evenodd" d="M9.37476 10.625V15.625C9.37476 15.97 9.65476 16.25 9.99975 16.25C10.3448 16.25 10.6248 15.97 10.6248 15.625V10.625C10.6248 10.28 10.3448 10 9.99975 10C9.65476 10 9.37476 10.28 9.37476 10.625Z" fill="#192E52"/>
<path fill-rule="evenodd" clip-rule="evenodd" d="M12.5 12.4998H7.5C7.155 12.4998 6.875 12.7798 6.875 13.1248C6.875 13.4698 7.155 13.7498 7.5 13.7498H12.5C12.845 13.7498 13.125 13.4698 13.125 13.1248C13.125 12.7798 12.845 12.4998 12.5 12.4998Z" fill="#192E52"/>
<path fill-rule="evenodd" clip-rule="evenodd" d="M6.875 3.74999V1.87499C6.875 1.52999 6.595 1.25015 6.25 1.25015C5.905 1.25015 5.625 1.52999 5.625 1.87499V3.74999C5.625 4.09499 5.905 4.37483 6.25 4.37483C6.595 4.37483 6.875 4.09499 6.875 3.74999Z" fill="#192E52"/>
<path fill-rule="evenodd" clip-rule="evenodd" d="M14.375 3.74999V1.87499C14.375 1.52999 14.095 1.25015 13.75 1.25015C13.405 1.25015 13.125 1.52999 13.125 1.87499V3.74999C13.125 4.09499 13.405 4.37483 13.75 4.37483C14.095 4.37483 14.375 4.09499 14.375 3.74999Z" fill="#192E52"/>
</g>
<defs>
<clipPath id="clip0_1439_2636">
<rect width="20" height="20" fill="white"/>
</clipPath>
</defs>
</svg>
