<svg width="23" height="24" viewBox="0 0 23 24" fill="none" xmlns="http://www.w3.org/2000/svg">
<path d="M19.7564 13.4744C21.5478 13.4744 23 14.9265 23 16.7179C23 18.5094 21.5478 19.9615 19.7564 19.9615C19.5216 19.9615 19.2929 19.9352 19.0722 19.8878C18.9973 19.9816 18.9058 20.0935 18.7957 20.2173C18.4694 20.5845 17.9841 21.0693 17.3387 21.5534C16.0449 22.5237 14.0938 23.5 11.5 23.5C7.36284 23.5 4.4925 21.5807 2.67918 19.6886C2.34046 19.3351 2.03747 18.9822 1.76923 18.6416V21.4359C1.76923 21.9244 1.37317 22.3205 0.884615 22.3205C0.39606 22.3205 0 21.9244 0 21.4359V15.5385C0 15.0499 0.39606 14.6538 0.884615 14.6538H6.78205C7.27061 14.6538 7.66667 15.0499 7.66667 15.5385C7.66667 16.027 7.27061 16.4231 6.78205 16.4231H2.3705C2.73876 17.0098 3.25975 17.7394 3.95543 18.4652C5.53314 20.1116 7.97053 21.7308 11.5 21.7308C13.6239 21.7308 15.2115 20.9378 16.2767 20.1389C16.8105 19.7385 17.2103 19.3384 17.4735 19.0424C17.4769 19.0385 17.4793 19.0335 17.4827 19.0297C16.8845 18.4413 16.5128 17.6233 16.5128 16.7179C16.5128 14.9265 17.965 13.4744 19.7564 13.4744ZM19.7564 15.2436C18.9421 15.2436 18.2821 15.9036 18.2821 16.7179C18.2821 17.5323 18.9421 18.1923 19.7564 18.1923C20.5707 18.1923 21.2308 17.5323 21.2308 16.7179C21.2308 15.9036 20.5707 15.2436 19.7564 15.2436ZM11.5 0.5C15.6372 0.5 18.5075 2.41931 20.3208 4.31145C20.6593 4.66466 20.9627 5.01688 21.2308 5.35732V2.5641C21.2308 2.07555 21.6268 1.67949 22.1154 1.67949C22.6039 1.67949 23 2.07555 23 2.5641V8.46154C23 8.95009 22.6039 9.34615 22.1154 9.34615H16.2179C15.7294 9.34615 15.3333 8.95009 15.3333 8.46154C15.3333 7.97298 15.7294 7.57692 16.2179 7.57692H20.6295C20.2612 6.99019 19.7403 6.26064 19.0446 5.5347C17.4669 3.8884 15.0295 2.26923 11.5 2.26923C9.3761 2.26923 7.78853 3.06226 6.72331 3.86108C6.18945 4.26147 5.78976 4.66153 5.52655 4.95764C5.52309 4.96152 5.51958 4.9653 5.51618 4.96915C6.11504 5.55764 6.48718 6.3761 6.48718 7.28205C6.48718 9.07343 5.03497 10.5256 3.24359 10.5256C1.45221 10.5256 0 9.07343 0 7.28205C0 5.49067 1.45221 4.03846 3.24359 4.03846C3.47794 4.03846 3.70639 4.06381 3.92663 4.11102C4.00155 4.01728 4.09428 3.90644 4.20422 3.78275C4.53069 3.41548 5.01595 2.93069 5.6613 2.44661C6.95506 1.4763 8.90617 0.5 11.5 0.5ZM3.24359 5.80769C2.42932 5.80769 1.76923 6.46778 1.76923 7.28205C1.76923 8.09632 2.42932 8.75641 3.24359 8.75641C4.05786 8.75641 4.71795 8.09632 4.71795 7.28205C4.71795 6.46778 4.05786 5.80769 3.24359 5.80769Z" fill="white"/>
</svg>
