<svg width="40" height="40" viewBox="0 0 40 40" fill="none" xmlns="http://www.w3.org/2000/svg">
<rect width="40" height="40" rx="5" fill="#DA1E17"/>
<path d="M20.1177 8.58301C20.1944 8.58318 20.3072 8.5833 20.4517 8.58398C20.7411 8.58535 21.1576 8.58829 21.6655 8.59375C22.6816 8.60468 24.0634 8.62624 25.5259 8.66992C26.9888 8.71362 28.5306 8.77987 29.8677 8.87793C31.2117 8.9765 32.3277 9.10646 32.9517 9.27441H32.9526C34.2154 9.61226 35.2312 10.5704 35.6499 11.7988L35.7251 12.0479C36.0674 13.3192 36.242 15.3032 36.3296 16.9873C36.3732 17.8256 36.3949 18.5838 36.4058 19.1318C36.4112 19.4058 36.4142 19.6275 36.4155 19.7803C36.4162 19.8566 36.4163 19.916 36.4165 19.9561V20.0771C36.4163 20.1172 36.4162 20.1767 36.4155 20.2529C36.4142 20.4058 36.4112 20.6275 36.4058 20.9014C36.3949 21.4494 36.3732 22.2068 36.3296 23.0449C36.242 24.729 36.0674 26.7129 35.7251 27.9844V27.9854C35.366 29.3275 34.304 30.3465 32.9526 30.708H32.9517C32.3277 30.876 31.2117 31.0069 29.8677 31.1055C28.5307 31.2035 26.9887 31.2688 25.5259 31.3125C24.0634 31.3562 22.6816 31.3777 21.6655 31.3887C21.1576 31.3941 20.7411 31.3971 20.4517 31.3984C20.3072 31.3991 20.1944 31.3992 20.1177 31.3994H19.8833C19.8066 31.3992 19.6931 31.3991 19.5483 31.3984C19.2589 31.3971 18.8423 31.3941 18.3345 31.3887C17.3183 31.3777 15.9366 31.3562 14.4741 31.3125C13.0113 31.2688 11.4693 31.2035 10.1323 31.1055C8.95639 31.0192 7.95511 30.9083 7.30518 30.7695L7.04834 30.708C5.69679 30.3465 4.63397 29.3277 4.2749 27.9854V27.9844C3.93264 26.7129 3.75795 24.729 3.67041 23.0449C3.62685 22.2068 3.60514 21.4494 3.59424 20.9014C3.58879 20.6275 3.58583 20.4058 3.58447 20.2529C3.58379 20.1767 3.58367 20.1172 3.5835 20.0771V19.9561C3.58367 19.916 3.58379 19.8566 3.58447 19.7803C3.58583 19.6275 3.58879 19.4058 3.59424 19.1318C3.60514 18.5838 3.62683 17.8256 3.67041 16.9873C3.74701 15.5139 3.89 13.811 4.15381 12.5566L4.2749 12.0479C4.61265 10.785 5.57092 9.7694 6.79932 9.35059L7.04834 9.27441C7.67223 9.10644 8.78831 8.97651 10.1323 8.87793C11.4693 8.77987 13.0113 8.71362 14.4741 8.66992C15.9366 8.62624 17.3183 8.60468 18.3345 8.59375C18.8423 8.58829 19.2589 8.58535 19.5483 8.58398C19.6931 8.5833 19.8066 8.58318 19.8833 8.58301H20.1177ZM16.4165 25.4414L16.7954 25.2139L25.1284 20.2139L25.4858 20L25.1284 19.7852L16.7954 14.7852L16.4165 14.5586V25.4414Z" fill="white" stroke="white" stroke-width="0.5"/>
</svg>
