<svg width="30" height="31" viewBox="0 0 30 31" fill="none" xmlns="http://www.w3.org/2000/svg">
<path d="M17 18.6669C20.682 18.6669 23.6669 15.682 23.6669 12C23.6669 8.31799 20.682 5.33313 17 5.33313C13.318 5.33313 10.3331 8.31799 10.3331 12C10.3331 15.682 13.318 18.6669 17 18.6669Z" fill="url(#paint0_linear_207_1674)"/>
<path d="M17 18C15.8133 18 14.6533 17.6481 13.6666 16.9888C12.6799 16.3295 11.9109 15.3925 11.4567 14.2961C11.0026 13.1997 10.8838 11.9933 11.1153 10.8295C11.3468 9.66557 11.9182 8.59648 12.7574 7.75736C13.5965 6.91825 14.6656 6.3468 15.8295 6.11529C16.9933 5.88378 18.1997 6.0026 19.2961 6.45673C20.3925 6.91085 21.3295 7.67989 21.9888 8.66658C22.6481 9.65328 23 10.8133 23 12C23.0033 12.7889 22.8504 13.5706 22.55 14.3C22.2496 15.0294 21.8078 15.6922 21.25 16.25C20.6922 16.8078 20.0294 17.2496 19.3 17.55C18.5706 17.8504 17.7889 18.0033 17 18Z" fill="url(#paint1_linear_207_1674)"/>
<path d="M21.5996 7.20001L11.9996 16.4666C12.624 17.1558 13.3852 17.7074 14.2345 18.0862C15.0838 18.465 16.0028 18.6628 16.9328 18.6669C20.5993 18.6669 23.5996 15.6666 23.5996 12C23.6668 10.1331 22.8668 8.40001 21.5996 7.20001Z" fill="url(#paint2_linear_207_1674)"/>
<path d="M24.3331 20H24.0662C23.1997 16.1997 19.736 13.3331 15.6669 13.3331C14.1836 13.3351 12.7254 13.7157 11.4305 14.439C10.1355 15.1623 9.04671 16.2043 8.26721 17.4662C7.84892 17.3889 7.42523 17.3444 7.00001 17.3331C3.33345 17.3331 0.33313 20.3334 0.33313 24C0.33313 27.6666 3.33345 30.6669 7.00001 30.6669H24.3331C25.7476 30.6669 27.1042 30.105 28.1044 29.1048C29.1047 28.1045 29.6666 26.748 29.6666 25.3334C29.6666 23.9189 29.1047 22.5624 28.1044 21.5621C27.1042 20.5619 25.7476 20 24.3331 20Z" fill="url(#paint3_linear_207_1674)"/>
<path d="M17 3.33314C16.6 3.33314 16.3331 3.06626 16.3331 2.66626V1.33314C16.3331 0.93314 16.6 0.66626 17 0.66626C17.4 0.66626 17.6669 0.93314 17.6669 1.33314V2.6669C17.6669 3.0669 17.4 3.33314 17 3.33314Z" fill="url(#paint4_linear_207_1674)"/>
<path d="M7.6669 12.6669H6.33314C5.93314 12.6669 5.66626 12.4 5.66626 12C5.66626 11.6 5.93314 11.3331 6.33314 11.3331H7.66626C8.06626 11.3331 8.33314 11.6 8.33314 12C8.33314 12.4 8.0669 12.6669 7.6669 12.6669Z" fill="url(#paint5_linear_207_1674)"/>
<path d="M27.6669 12.6669H26.3331C25.9331 12.6669 25.6663 12.4 25.6663 12C25.6663 11.6 25.9331 11.3331 26.3331 11.3331H27.6663C28.0663 11.3331 28.3331 11.6 28.3331 12C28.3331 12.4 28.0669 12.6669 27.6669 12.6669Z" fill="url(#paint6_linear_207_1674)"/>
<path d="M23.5997 6.06655C23.5121 6.06901 23.425 6.05243 23.3444 6.01795C23.2639 5.98348 23.1918 5.93193 23.1331 5.86687C23.0699 5.80668 23.0197 5.73429 22.9853 5.65409C22.9509 5.57389 22.9332 5.48756 22.9332 5.40031C22.9332 5.31306 22.9509 5.22672 22.9853 5.14652C23.0197 5.06632 23.0699 4.99394 23.1331 4.93375L24.0669 3.99999C24.191 3.87801 24.3582 3.80999 24.5322 3.81074C24.7063 3.81149 24.8729 3.88095 24.996 4.00399C25.119 4.12704 25.1885 4.29371 25.1892 4.46773C25.19 4.64174 25.122 4.809 25 4.93311L24.0669 5.86687C24.0081 5.93201 23.9359 5.98361 23.8552 6.01809C23.7746 6.05257 23.6874 6.0691 23.5997 6.06655Z" fill="url(#paint7_linear_207_1674)"/>
<path d="M10.4004 6.06655C10.3128 6.06901 10.2257 6.05243 10.1452 6.01795C10.0646 5.98348 9.9925 5.93193 9.93381 5.86687L9.00005 4.93311C8.87807 4.809 8.81005 4.64174 8.8108 4.46773C8.81155 4.29371 8.88101 4.12704 9.00405 4.00399C9.1271 3.88095 9.29377 3.81149 9.46779 3.81074C9.6418 3.80999 9.80907 3.87801 9.93317 3.99999L10.8663 4.93311C10.9295 4.9933 10.9797 5.06568 11.0141 5.14588C11.0484 5.22608 11.0662 5.31242 11.0662 5.39967C11.0662 5.48692 11.0484 5.57325 11.0141 5.65345C10.9797 5.73365 10.9295 5.80604 10.8663 5.86623C10.8077 5.93132 10.7358 5.98294 10.6553 6.01752C10.5749 6.05211 10.4879 6.06883 10.4004 6.06655Z" fill="url(#paint8_linear_207_1674)"/>
<path d="M0.46689 22.6669C0.386043 23.1069 0.341308 23.5528 0.33313 24.0001C0.33313 27.6666 3.33345 30.6669 7.00001 30.6669H24.3331C25.7463 30.6627 27.1003 30.0995 28.0996 29.1002C29.0988 28.101 29.662 26.7469 29.6663 25.3338C29.6689 24.3947 29.4154 23.4726 28.9328 22.6669H0.46689Z" fill="url(#paint9_linear_207_1674)"/>
<defs>
<linearGradient id="paint0_linear_207_1674" x1="12.1998" y1="7.43998" x2="22.3329" y2="17.1732" gradientUnits="userSpaceOnUse">
<stop stop-color="#FFCA4F"/>
<stop offset="1" stop-color="#F7AE30"/>
</linearGradient>
<linearGradient id="paint1_linear_207_1674" x1="12.08" y1="6.96" x2="16.04" y2="11.04" gradientUnits="userSpaceOnUse">
<stop stop-color="#FFD980"/>
<stop offset="1" stop-color="#FFCA4F" stop-opacity="0"/>
</linearGradient>
<linearGradient id="paint2_linear_207_1674" x1="17.338" y1="12.2532" x2="22.7299" y2="17.4773" gradientUnits="userSpaceOnUse">
<stop stop-color="#FFCA4F" stop-opacity="0"/>
<stop offset="1" stop-color="#F4901F"/>
</linearGradient>
<linearGradient id="paint3_linear_207_1674" x1="14.9997" y1="13.9594" x2="14.9997" y2="30.7725" gradientUnits="userSpaceOnUse">
<stop stop-color="#EAECF7"/>
<stop offset="1" stop-color="#CDD3F1"/>
</linearGradient>
<linearGradient id="paint4_linear_207_1674" x1="16.9997" y1="0.666695" x2="16.9997" y2="3.12022" gradientUnits="userSpaceOnUse">
<stop stop-color="#FFCA4F"/>
<stop offset="1" stop-color="#F7AE30"/>
</linearGradient>
<linearGradient id="paint5_linear_207_1674" x1="5.58689" y1="12.1066" x2="8.25377" y2="12.1066" gradientUnits="userSpaceOnUse">
<stop stop-color="#FFCA4F"/>
<stop offset="1" stop-color="#F7AE30"/>
</linearGradient>
<linearGradient id="paint6_linear_207_1674" x1="28.2271" y1="12.1066" x2="25.7202" y2="12.1066" gradientUnits="userSpaceOnUse">
<stop stop-color="#FFCA4F"/>
<stop offset="1" stop-color="#F7AE30"/>
</linearGradient>
<linearGradient id="paint7_linear_207_1674" x1="24.8829" y1="4.01079" x2="23.1148" y2="5.77896" gradientUnits="userSpaceOnUse">
<stop stop-color="#FFCA4F"/>
<stop offset="1" stop-color="#F7AE30"/>
</linearGradient>
<linearGradient id="paint8_linear_207_1674" x1="9.04973" y1="3.96545" x2="10.8632" y2="5.73362" gradientUnits="userSpaceOnUse">
<stop stop-color="#FFCA4F"/>
<stop offset="1" stop-color="#F7AE30"/>
</linearGradient>
<linearGradient id="paint9_linear_207_1674" x1="14.9997" y1="24.0269" x2="14.9997" y2="31.7869" gradientUnits="userSpaceOnUse">
<stop stop-color="#E2E5F4" stop-opacity="0"/>
<stop offset="1" stop-color="#9AA6E2"/>
</linearGradient>
</defs>
</svg>
