<svg width="28" height="28" viewBox="0 0 28 28" fill="none" xmlns="http://www.w3.org/2000/svg">
<path d="M22.3549 8.44431C21.5673 6.63014 20.198 5.12277 18.4583 4.15483C16.7186 3.18689 14.7051 2.81219 12.7287 3.08854C10.7523 3.36489 8.92281 4.27694 7.52249 5.68393C6.12218 7.09093 5.22893 8.91466 4.98057 10.8737C3.74351 11.1669 2.65842 11.8994 1.93134 12.9319C1.20427 13.9643 0.885854 15.225 1.03657 16.4744C1.18729 17.7238 1.79663 18.875 2.7489 19.7092C3.70116 20.5435 4.93002 21.0028 6.2021 21H20.4966C22.0566 21.0057 23.5662 20.4545 24.7483 19.4478C25.9305 18.441 26.7057 17.0461 26.9316 15.5194C27.1576 13.9927 26.8191 12.4366 25.9784 11.1369C25.1376 9.83717 23.851 8.88112 22.3549 8.44431Z" fill="url(#paint0_radial_723_29766)"/>
<defs>
<radialGradient id="paint0_radial_723_29766" cx="0" cy="0" r="1" gradientUnits="userSpaceOnUse" gradientTransform="translate(14 12) rotate(90) scale(9 13)">
<stop stop-color="#DCEEFD"/>
<stop offset="1" stop-color="#96D2FA"/>
</radialGradient>
</defs>
</svg>
