<svg width="80" height="80" viewBox="0 0 80 80" fill="none" xmlns="http://www.w3.org/2000/svg">
<path d="M40 80C62.0914 80 80 62.0914 80 40C80 17.9086 62.0914 0 40 0C17.9086 0 0 17.9086 0 40C0 62.0914 17.9086 80 40 80Z" fill="#F3D351"/>
<path d="M40.0001 77.3162C60.6094 77.3162 77.3164 60.6091 77.3164 39.9999C77.3164 19.3907 60.6094 2.68359 40.0001 2.68359C19.3909 2.68359 2.68384 19.3907 2.68384 39.9999C2.68384 60.6091 19.3909 77.3162 40.0001 77.3162Z" fill="url(#paint0_linear_1709_606)"/>
<path d="M39.9503 10.1848C39.88 10.1848 39.8225 10.1273 39.8225 10.057V5.51647C39.8225 5.44618 39.88 5.38867 39.9503 5.38867C40.0206 5.38867 40.0781 5.44618 40.0781 5.51647V10.057C40.0781 10.1273 40.0206 10.1848 39.9503 10.1848Z" fill="white"/>
<path d="M28.4964 12.4831C28.4466 12.4831 28.3993 12.4537 28.3788 12.4039L26.6408 8.20837C26.614 8.14319 26.6446 8.0678 26.7098 8.04096C26.775 8.01412 26.8504 8.04479 26.8772 8.10997L28.6152 12.3055C28.6421 12.3707 28.6114 12.4461 28.5462 12.4729C28.5296 12.4793 28.5143 12.4831 28.4977 12.4831H28.4964Z" fill="white"/>
<path d="M18.7929 18.9893C18.7597 18.9893 18.7278 18.9765 18.7022 18.9522L15.492 15.742C15.4421 15.6921 15.4421 15.6116 15.492 15.5618C15.5418 15.512 15.6223 15.512 15.6722 15.5618L18.8824 18.772C18.9322 18.8219 18.9322 18.9024 18.8824 18.9522C18.8568 18.9778 18.8249 18.9893 18.7916 18.9893H18.7929Z" fill="white"/>
<path d="M12.3177 28.7121C12.3011 28.7121 12.2845 28.7096 12.2691 28.7019L8.07358 26.9639C8.00841 26.9371 7.97775 26.8617 8.00458 26.7965C8.03142 26.7313 8.10553 26.7006 8.17199 26.7275L12.3675 28.4655C12.4327 28.4923 12.4634 28.5677 12.4365 28.6329C12.4161 28.6815 12.3688 28.7121 12.319 28.7121H12.3177Z" fill="white"/>
<path d="M5.51476 40.1755C5.44447 40.1755 5.38696 40.118 5.38696 40.0477C5.38696 39.9774 5.44447 39.9199 5.51476 39.9199H10.0553C10.1256 39.9199 10.1831 39.9774 10.1831 40.0477C10.1831 40.118 10.1256 40.1755 10.0553 40.1755H5.51476Z" fill="white"/>
<path d="M8.15976 53.3684C8.10991 53.3684 8.06263 53.339 8.04218 53.2892C8.01534 53.224 8.04602 53.1486 8.11119 53.1217L12.3067 51.3837C12.3719 51.3569 12.4473 51.3876 12.4741 51.4527C12.501 51.5179 12.4703 51.5933 12.4051 51.6202L8.2096 53.3582C8.19298 53.3646 8.17765 53.3684 8.16103 53.3684H8.15976Z" fill="white"/>
<path d="M26.8458 72.0046C26.8292 72.0046 26.8126 72.0021 26.7972 71.9944C26.7321 71.9676 26.7014 71.8922 26.7282 71.827L28.4662 67.6315C28.4931 67.5663 28.5672 67.5356 28.6336 67.5624C28.6988 67.5893 28.7295 67.6647 28.7027 67.7299L26.9646 71.9254C26.9442 71.9739 26.8969 72.0046 26.8471 72.0046H26.8458Z" fill="white"/>
<path d="M15.6491 64.5462C15.6159 64.5462 15.5839 64.5334 15.5584 64.5092C15.5085 64.4593 15.5085 64.3788 15.5584 64.329L18.7686 61.1175C18.8184 61.0676 18.899 61.0676 18.9488 61.1175C18.9986 61.1673 18.9986 61.2478 18.9488 61.2977L15.7386 64.5092C15.713 64.5347 15.6811 64.5462 15.6478 64.5462H15.6491Z" fill="white"/>
<path d="M40.046 74.6116C39.9757 74.6116 39.9182 74.5541 39.9182 74.4838V69.9432C39.9182 69.8729 39.9757 69.8154 40.046 69.8154C40.1163 69.8154 40.1738 69.8729 40.1738 69.9432V74.4838C40.1738 74.5541 40.1163 74.6116 40.046 74.6116Z" fill="white"/>
<path d="M53.2396 71.9685C53.1897 71.9685 53.1424 71.9391 53.122 71.8892L51.384 67.6937C51.3571 67.6285 51.3878 67.5531 51.453 67.5263C51.5182 67.4995 51.5923 67.5301 51.6204 67.5953L53.3584 71.7908C53.3852 71.856 53.3546 71.9314 53.2894 71.9583C53.2728 71.9646 53.2575 71.9685 53.2408 71.9685H53.2396Z" fill="white"/>
<path d="M64.4174 64.4775C64.3842 64.4775 64.3523 64.4648 64.3267 64.4405L61.1165 61.2303C61.0666 61.1804 61.0666 61.0999 61.1165 61.0501C61.1663 61.0002 61.2468 61.0002 61.2967 61.0501L64.5069 64.2603C64.5567 64.3101 64.5567 64.3906 64.5069 64.4405C64.4813 64.466 64.4494 64.4775 64.4162 64.4775H64.4174Z" fill="white"/>
<path d="M71.8763 53.2795C71.8597 53.2795 71.843 53.277 71.8277 53.2693L67.6322 51.5313C67.567 51.5044 67.5363 51.429 67.5632 51.3639C67.59 51.2987 67.6641 51.268 67.7306 51.2949L71.9261 53.0329C71.9913 53.0597 72.022 53.1351 71.9951 53.2003C71.9747 53.2489 71.9274 53.2795 71.8776 53.2795H71.8763Z" fill="white"/>
<path d="M67.6439 28.6243C67.594 28.6243 67.5468 28.5949 67.5263 28.545C67.4995 28.4798 67.5301 28.4044 67.5953 28.3776L71.7908 26.6396C71.856 26.6128 71.9301 26.6434 71.9583 26.7086C71.9851 26.7738 71.9544 26.8492 71.8892 26.876L67.6937 28.614C67.6771 28.6204 67.6618 28.6243 67.6452 28.6243H67.6439Z" fill="white"/>
<path d="M69.941 40.0808C69.8707 40.0808 69.8132 40.0233 69.8132 39.953C69.8132 39.8827 69.8707 39.8252 69.941 39.8252H74.4816C74.5519 39.8252 74.6094 39.8827 74.6094 39.953C74.6094 40.0233 74.5519 40.0808 74.4816 40.0808H69.941Z" fill="white"/>
<path d="M61.1374 18.9209C61.1042 18.9209 61.0722 18.9081 61.0467 18.8839C60.9968 18.834 60.9968 18.7535 61.0467 18.7037L64.2569 15.4934C64.3067 15.4436 64.3872 15.4436 64.4371 15.4934C64.4869 15.5433 64.4869 15.6238 64.4371 15.6736L61.2269 18.8839C61.2013 18.9094 61.1694 18.9209 61.1361 18.9209H61.1374Z" fill="white"/>
<path d="M51.4139 12.446C51.3973 12.446 51.3807 12.4435 51.3653 12.4358C51.3002 12.409 51.2695 12.3336 51.2963 12.2684L53.0343 8.07286C53.0612 8.00768 53.1353 7.97701 53.2018 8.00385C53.2669 8.03069 53.2976 8.10608 53.2708 8.17126L51.5327 12.3668C51.5123 12.4153 51.465 12.446 51.4152 12.446H51.4139Z" fill="white"/>
<path d="M40.0001 74.76C20.8334 74.76 5.23975 59.1664 5.23975 39.9996C5.23975 20.8329 20.8334 5.23926 40.0001 5.23926C59.1669 5.23926 74.7605 20.8329 74.7605 39.9996C74.7605 59.1664 59.1669 74.76 40.0001 74.76ZM40.0001 5.49485C20.9739 5.49485 5.49534 20.9734 5.49534 39.9996C5.49534 59.0258 20.9739 74.5044 40.0001 74.5044C59.0263 74.5044 74.5049 59.0258 74.5049 39.9996C74.5049 20.9734 59.0263 5.49485 40.0001 5.49485Z" fill="white"/>
<path d="M39.9997 69.9881C23.4642 69.9881 10.0125 56.5351 10.0125 40.0009C10.0125 23.4667 23.4642 10.0137 39.9997 10.0137C56.5351 10.0137 69.9869 23.4654 69.9869 40.0009C69.9869 56.5364 56.5351 69.9881 39.9997 69.9881ZM39.9997 10.268C23.6048 10.268 10.268 23.606 10.268 39.9996C10.268 56.3932 23.6061 69.7312 39.9997 69.7312C56.3933 69.7312 69.7313 56.3932 69.7313 39.9996C69.7313 23.606 56.3933 10.268 39.9997 10.268Z" fill="white"/>
<path d="M27.4212 55.9463L27.7892 56.7923C27.9451 57.1514 28.2327 57.4377 28.5918 57.5948L29.4378 57.9629L28.5918 58.331C28.2327 58.4869 27.9464 58.7744 27.7892 59.1335L27.4212 59.9795L27.0531 59.1335C26.8972 58.7744 26.6097 58.4881 26.2505 58.331L25.4045 57.9629L26.2505 57.5948C26.6097 57.4389 26.8959 57.1514 27.0531 56.7923L27.4212 55.9463Z" fill="white"/>
<path d="M56.349 52.9238L56.6736 53.6702C56.8116 53.9871 57.0646 54.2401 57.3816 54.3781L58.1279 54.7027L57.3816 55.0273C57.0646 55.1654 56.8116 55.4184 56.6736 55.7353L56.349 56.4817L56.0244 55.7353C55.8864 55.4184 55.6333 55.1654 55.3164 55.0273L54.5701 54.7027L55.3164 54.3781C55.6333 54.2401 55.8864 53.9871 56.0244 53.6702L56.349 52.9238Z" fill="white"/>
<path d="M63.4671 45.2979L63.6856 45.7988C63.7776 46.0109 63.9476 46.1809 64.1597 46.2729L64.6607 46.4915L64.1597 46.71C63.9476 46.802 63.7776 46.972 63.6856 47.1841L63.4671 47.6851L63.2485 47.1841C63.1565 46.972 62.9865 46.802 62.7744 46.71L62.2734 46.4915L62.7744 46.2729C62.9865 46.1809 63.1565 46.0109 63.2485 45.7988L63.4671 45.2979Z" fill="white"/>
<path d="M60.0727 36.083L60.2427 36.4741C60.3156 36.6402 60.4472 36.7731 60.6133 36.8447L61.0044 37.0146L60.6133 37.1846C60.4472 37.2575 60.3143 37.3891 60.2427 37.5552L60.0727 37.9463L59.9028 37.5552C59.8299 37.3891 59.6983 37.2562 59.5322 37.1846L59.1411 37.0146L59.5322 36.8447C59.6983 36.7718 59.8312 36.6402 59.9028 36.4741L60.0727 36.083Z" fill="white"/>
<path d="M20.4295 46.6211L20.6237 47.0671C20.7068 47.2562 20.8576 47.4083 21.0467 47.4901L21.4927 47.6844L21.0467 47.8786C20.8576 47.9617 20.7055 48.1125 20.6237 48.3016L20.4295 48.7476L20.2352 48.3016C20.1522 48.1125 20.0014 47.9604 19.8122 47.8786L19.3662 47.6844L19.8122 47.4901C20.0014 47.407 20.1534 47.2562 20.2352 47.0671L20.4295 46.6211Z" fill="white"/>
<path d="M33.9475 19.2871L34.2018 19.8699C34.3091 20.1178 34.5072 20.3146 34.7539 20.4219L35.3366 20.6762L34.7539 20.9306C34.5059 21.0379 34.3091 21.236 34.2018 21.4826L33.9475 22.0654L33.6932 21.4826C33.5858 21.2347 33.3877 21.0379 33.1411 20.9306L32.5583 20.6762L33.1411 20.4219C33.389 20.3146 33.5858 20.1165 33.6932 19.8699L33.9475 19.2871Z" fill="white"/>
<path d="M25.4038 35.6367C25.9275 35.6367 26.352 35.2122 26.352 34.6885C26.352 34.1648 25.9275 33.7402 25.4038 33.7402C24.8801 33.7402 24.4556 34.1648 24.4556 34.6885C24.4556 35.2122 24.8801 35.6367 25.4038 35.6367Z" fill="white"/>
<path d="M46.9591 21.7184C47.535 21.7184 48.0019 21.2516 48.0019 20.6756C48.0019 20.0997 47.535 19.6328 46.9591 19.6328C46.3831 19.6328 45.9163 20.0997 45.9163 20.6756C45.9163 21.2516 46.3831 21.7184 46.9591 21.7184Z" fill="white"/>
<path d="M21.9407 29.3916C22.1877 29.3916 22.388 29.1914 22.388 28.9444C22.388 28.6973 22.1877 28.4971 21.9407 28.4971C21.6937 28.4971 21.4934 28.6973 21.4934 28.9444C21.4934 29.1914 21.6937 29.3916 21.9407 29.3916Z" fill="white"/>
<path d="M53.8434 35.4984C53.8434 35.7936 53.6044 36.0338 53.3079 36.0338C53.0114 36.0338 52.7725 35.7948 52.7725 35.4984C52.7725 35.2019 53.0114 34.9629 53.3079 34.9629C53.6044 34.9629 53.8434 35.2019 53.8434 35.4984Z" fill="white"/>
<path d="M40.9568 26.8472C41.2582 26.8472 41.5025 26.6029 41.5025 26.3015C41.5025 26.0002 41.2582 25.7559 40.9568 25.7559C40.6554 25.7559 40.4111 26.0002 40.4111 26.3015C40.4111 26.6029 40.6554 26.8472 40.9568 26.8472Z" fill="white"/>
<path d="M57.8489 22.1396C52.6208 22.1396 49.9205 25.5978 47.7518 28.3773C45.7033 31.0023 44.0585 33.1083 40.6835 33.3563C40.4573 33.3435 40.2298 33.3358 40.001 33.3358C39.7723 33.3358 39.5499 33.3422 39.3275 33.355C36.3154 33.1262 35.0745 31.3384 33.4004 28.9243C31.3045 25.902 28.6962 22.1396 22.1531 22.1396C20.8828 22.1396 19.8528 23.1697 19.8528 24.44C19.8528 25.7103 20.8828 26.7403 22.1531 26.7403C26.2886 26.7403 27.6854 28.7556 29.6202 31.5454C30.5506 32.886 31.5857 34.3812 33.0311 35.5927C29.9461 37.8163 27.9295 41.4726 27.9295 45.5991C27.9295 52.3607 33.3454 57.8611 40.0023 57.8611C46.6592 57.8611 52.0751 52.3607 52.0751 45.5991C52.0751 41.5403 50.1237 37.9365 47.1231 35.7039C48.8956 34.3914 50.2093 32.7083 51.3812 31.2093C53.6087 28.3556 55.0068 26.7416 57.8515 26.7416C59.1218 26.7416 60.1518 25.7115 60.1518 24.4412C60.1518 23.171 59.1218 22.1409 57.8515 22.1409L57.8489 22.1396ZM47.472 45.5991C47.472 49.824 44.1199 53.2604 39.9998 53.2604C35.8796 53.2604 32.5276 49.8227 32.5276 45.5991C32.5276 41.5927 35.5422 38.2968 39.3672 37.9671C39.5742 37.9761 39.7838 37.9825 39.9985 37.9825C40.2132 37.9825 40.4253 37.9761 40.6336 37.9671C44.4573 38.2981 47.4707 41.594 47.4707 45.5991H47.472Z" fill="white"/>
<defs>
<linearGradient id="paint0_linear_1709_606" x1="40.0001" y1="2.68359" x2="40.0001" y2="77.3162" gradientUnits="userSpaceOnUse">
<stop stop-color="#3867B8"/>
<stop offset="1" stop-color="#192E52"/>
</linearGradient>
</defs>
</svg>
