<svg width="53" height="53" viewBox="0 0 53 53" fill="none" xmlns="http://www.w3.org/2000/svg">
<path d="M26.8398 52.8101C41.1992 52.8101 52.8398 41.1695 52.8398 26.8101C52.8398 12.4507 41.1992 0.810059 26.8398 0.810059C12.4804 0.810059 0.839844 12.4507 0.839844 26.8101C0.839844 41.1695 12.4804 52.8101 26.8398 52.8101Z" fill="white"/>
<path d="M26.8398 51.0656C40.2358 51.0656 51.0954 40.206 51.0954 26.81C51.0954 13.414 40.2358 2.55444 26.8398 2.55444C13.4438 2.55444 2.58423 13.414 2.58423 26.81C2.58423 40.206 13.4438 51.0656 26.8398 51.0656Z" fill="#1F1F7A"/>
<path d="M26.8082 7.4305C26.7625 7.4305 26.7251 7.39312 26.7251 7.34743V4.39606C26.7251 4.35037 26.7625 4.31299 26.8082 4.31299C26.8539 4.31299 26.8912 4.35037 26.8912 4.39606V7.34743C26.8912 7.39312 26.8539 7.4305 26.8082 7.4305Z" fill="#FFE2C2"/>
<path d="M19.3631 8.924C19.3307 8.924 19.2999 8.90489 19.2867 8.87249L18.1569 6.14541C18.1395 6.10304 18.1594 6.05403 18.2018 6.03658C18.2442 6.01914 18.2932 6.03908 18.3106 6.08144L19.4403 8.80853C19.4578 8.8509 19.4378 8.89991 19.3955 8.91735C19.3847 8.92151 19.3747 8.924 19.3639 8.924H19.3631Z" fill="#FFE2C2"/>
<path d="M13.0549 13.153C13.0333 13.153 13.0126 13.1447 12.996 13.1289L10.9093 11.0423C10.8769 11.0099 10.8769 10.9576 10.9093 10.9252C10.9417 10.8928 10.994 10.8928 11.0264 10.9252L13.1131 13.0118C13.1455 13.0442 13.1455 13.0966 13.1131 13.1289C13.0965 13.1456 13.0757 13.153 13.0541 13.153H13.0549Z" fill="#FFE2C2"/>
<path d="M8.84596 19.4736C8.83516 19.4736 8.82436 19.4719 8.81439 19.4669L6.0873 18.3372C6.04494 18.3198 6.025 18.2708 6.04244 18.2284C6.05989 18.1861 6.10807 18.1661 6.15126 18.1836L8.87835 19.3133C8.92072 19.3307 8.94065 19.3797 8.92321 19.4221C8.90992 19.4537 8.87918 19.4736 8.84679 19.4736H8.84596Z" fill="#FFE2C2"/>
<path d="M7.37648 26.9247H4.42511C4.37942 26.9247 4.34204 26.8873 4.34204 26.8416C4.34204 26.7959 4.37942 26.7585 4.42511 26.7585H7.37648C7.42217 26.7585 7.45955 26.7959 7.45955 26.8416C7.45955 26.8873 7.42217 26.9247 7.37648 26.9247Z" fill="#FFE2C2"/>
<path d="M6.14279 35.4997C6.11039 35.4997 6.07966 35.4806 6.06637 35.4482C6.04892 35.4058 6.06886 35.3568 6.11122 35.3394L8.83832 34.2097C8.88068 34.1922 8.92969 34.2122 8.94713 34.2545C8.96458 34.2969 8.94464 34.3459 8.90228 34.3634L6.17519 35.4931C6.16439 35.4972 6.15442 35.4997 6.14362 35.4997H6.14279Z" fill="#FFE2C2"/>
<path d="M18.2905 47.6133C18.2797 47.6133 18.2689 47.6117 18.2589 47.6067C18.2166 47.5892 18.1966 47.5402 18.2141 47.4979L19.3438 44.7708C19.3612 44.7284 19.4094 44.7085 19.4526 44.7259C19.495 44.7434 19.5149 44.7924 19.4975 44.8347L18.3677 47.5618C18.3545 47.5934 18.3237 47.6133 18.2913 47.6133H18.2905Z" fill="#FFE2C2"/>
<path d="M11.0122 42.7647C10.9906 42.7647 10.9699 42.7564 10.9533 42.7406C10.9209 42.7082 10.9209 42.6559 10.9533 42.6235L13.0399 40.5369C13.0723 40.5045 13.1246 40.5045 13.157 40.5369C13.1894 40.5693 13.1894 40.6216 13.157 40.654L11.0704 42.7406C11.0538 42.7572 11.033 42.7647 11.0114 42.7647H11.0122Z" fill="#FFE2C2"/>
<path d="M26.8707 49.3079C26.825 49.3079 26.7876 49.2706 26.7876 49.2249V46.2735C26.7876 46.2278 26.825 46.1904 26.8707 46.1904C26.9164 46.1904 26.9537 46.2278 26.9537 46.2735V49.2249C26.9537 49.2706 26.9164 49.3079 26.8707 49.3079Z" fill="#FFE2C2"/>
<path d="M35.4456 47.5901C35.4132 47.5901 35.3825 47.571 35.3692 47.5386L34.2395 44.8115C34.222 44.7692 34.242 44.7202 34.2843 44.7027C34.3267 44.6853 34.3757 44.7052 34.3931 44.7476L35.5229 47.4747C35.5403 47.517 35.5204 47.566 35.478 47.5835C35.4672 47.5876 35.4572 47.5901 35.4464 47.5901H35.4456Z" fill="#FFE2C2"/>
<path d="M42.7105 42.7208C42.689 42.7208 42.6682 42.7125 42.6516 42.6967L40.5641 40.61C40.5317 40.5776 40.5317 40.5253 40.5641 40.4929C40.5965 40.4605 40.6488 40.4605 40.6812 40.4929L42.7687 42.5796C42.8011 42.612 42.8011 42.6643 42.7687 42.6967C42.7521 42.7133 42.7313 42.7208 42.7097 42.7208H42.7105Z" fill="#FFE2C2"/>
<path d="M47.5593 35.4423C47.5485 35.4423 47.5377 35.4407 47.5278 35.4357L44.8007 34.306C44.7583 34.2885 44.7384 34.2395 44.7558 34.1972C44.7733 34.1548 44.8214 34.1349 44.8646 34.1523L47.5917 35.282C47.6341 35.2995 47.654 35.3485 47.6366 35.3908C47.6233 35.4224 47.5926 35.4423 47.5602 35.4423H47.5593Z" fill="#FFE2C2"/>
<path d="M44.8088 19.4162C44.7764 19.4162 44.7457 19.3971 44.7324 19.3647C44.7149 19.3224 44.7349 19.2733 44.7772 19.2559L47.5043 18.1262C47.5467 18.1087 47.5949 18.1287 47.6132 18.171C47.6306 18.2134 47.6107 18.2624 47.5683 18.2799L44.8412 19.4096C44.8304 19.4137 44.8204 19.4162 44.8096 19.4162H44.8088Z" fill="#FFE2C2"/>
<path d="M49.2539 26.8624H46.3025C46.2569 26.8624 46.2195 26.825 46.2195 26.7794C46.2195 26.7337 46.2569 26.6963 46.3025 26.6963H49.2539C49.2996 26.6963 49.337 26.7337 49.337 26.7794C49.337 26.825 49.2996 26.8624 49.2539 26.8624Z" fill="#FFE2C2"/>
<path d="M40.5799 13.109C40.5583 13.109 40.5375 13.1007 40.5209 13.0849C40.4885 13.0525 40.4885 13.0001 40.5209 12.9678L42.6075 10.8811C42.6399 10.8487 42.6923 10.8487 42.7247 10.8811C42.757 10.9135 42.757 10.9658 42.7247 10.9982L40.638 13.0849C40.6214 13.1015 40.6006 13.109 40.579 13.109H40.5799Z" fill="#FFE2C2"/>
<path d="M34.2585 8.89995C34.2477 8.89995 34.2369 8.89829 34.227 8.89331C34.1846 8.87586 34.1646 8.82686 34.1821 8.78449L35.3118 6.05739C35.3293 6.01503 35.3774 5.99509 35.4206 6.01254C35.463 6.02998 35.4829 6.07899 35.4655 6.12136L34.3358 8.84845C34.3225 8.88001 34.2917 8.89995 34.2593 8.89995H34.2585Z" fill="#FFE2C2"/>
<path d="M26.8399 49.4043C14.3815 49.4043 4.24561 39.2685 4.24561 26.8101C4.24561 14.3517 14.3815 4.21582 26.8399 4.21582C39.2983 4.21582 49.4341 14.3517 49.4341 26.8101C49.4341 39.2685 39.2983 49.4043 26.8399 49.4043ZM26.8399 4.38195C14.4728 4.38195 4.41174 14.443 4.41174 26.8101C4.41174 39.1771 14.4728 49.2382 26.8399 49.2382C39.2069 49.2382 49.268 39.1771 49.268 26.8101C49.268 14.443 39.2069 4.38195 26.8399 4.38195Z" fill="#FFE2C2"/>
<path d="M26.8398 46.3026C16.0918 46.3026 7.34814 37.5589 7.34814 26.8109C7.34814 16.0628 16.0918 7.31921 26.8398 7.31921C37.5879 7.31921 46.3315 16.0628 46.3315 26.8109C46.3315 37.5589 37.5879 46.3026 26.8398 46.3026ZM26.8398 7.48452C16.1832 7.48452 7.51428 16.1542 7.51428 26.8101C7.51428 37.4659 16.184 46.1356 26.8398 46.1356C37.4957 46.1356 46.1654 37.4659 46.1654 26.8101C46.1654 16.1542 37.4957 7.48452 26.8398 7.48452Z" fill="#FFE2C2"/>
<path d="M19.1037 36.9326L19.3205 37.4302C19.4127 37.6412 19.5813 37.8106 19.7923 37.902L20.2899 38.1188L19.7923 38.3356C19.5813 38.4278 19.4119 38.5964 19.3205 38.8074L19.1037 39.305L18.8869 38.8074C18.7947 38.5964 18.626 38.427 18.4151 38.3356L17.9175 38.1188L18.4151 37.902C18.626 37.8098 18.7955 37.6412 18.8869 37.4302L19.1037 36.9326Z" fill="#F7B981"/>
<path d="M37.8811 29.4167L38.1203 29.9667C38.2217 30.2001 38.4086 30.3861 38.642 30.4883L39.1919 30.7275L38.642 30.9668C38.4086 31.0681 38.2225 31.255 38.1203 31.4884L37.8811 32.0384L37.6419 31.4884C37.5405 31.255 37.3536 31.069 37.1202 30.9668L36.5703 30.7275L37.1202 30.4883C37.3536 30.387 37.5397 30.2001 37.6419 29.9667L37.8811 29.4167Z" fill="#F7B981"/>
<path d="M40.7835 35.1425L40.9264 35.4697C40.987 35.6085 41.0983 35.7198 41.2371 35.7804L41.5643 35.9233L41.2371 36.0662C41.0983 36.1268 40.987 36.2381 40.9264 36.3768L40.7835 36.7041L40.6406 36.3768C40.58 36.2381 40.4687 36.1268 40.33 36.0662L40.0027 35.9233L40.33 35.7804C40.4687 35.7198 40.58 35.6085 40.6406 35.4697L40.7835 35.1425Z" fill="#F7B981"/>
<path d="M41.3385 25.3248L41.4772 25.643C41.5362 25.7784 41.6442 25.8855 41.7787 25.9445L42.0969 26.0832L41.7787 26.2219C41.6433 26.2809 41.5362 26.3889 41.4772 26.5235L41.3385 26.8416L41.1998 26.5235C41.1408 26.3881 41.0328 26.2809 40.8982 26.2219L40.5801 26.0832L40.8982 25.9445C41.0336 25.8855 41.1408 25.7775 41.1998 25.643L41.3385 25.3248Z" fill="#F7B981"/>
<path d="M14.3391 32.9055L14.4653 33.1954C14.5193 33.3184 14.6173 33.4172 14.7403 33.4704L15.0302 33.5966L14.7403 33.7229C14.6173 33.7769 14.5185 33.8749 14.4653 33.9979L14.3391 34.2878L14.2128 33.9979C14.1588 33.8749 14.0608 33.7761 13.9379 33.7229L13.6479 33.5966L13.9379 33.4704C14.0608 33.4164 14.1596 33.3184 14.2128 33.1954L14.3391 32.9055Z" fill="#F7B981"/>
<path d="M21.664 11.6677L21.8625 12.1238C21.9473 12.3173 22.1018 12.4718 22.2953 12.5565L22.7514 12.7551L22.2953 12.9536C22.1018 13.0383 21.9473 13.1928 21.8625 13.3864L21.664 13.8424L21.4655 13.3864C21.3808 13.1928 21.2262 13.0383 21.0327 12.9536L20.5767 12.7551L21.0327 12.5565C21.2262 12.4718 21.3808 12.3173 21.4655 12.1238L21.664 11.6677Z" fill="#F7B981"/>
<path d="M16.1135 17.8621C16.4576 17.8621 16.7365 17.5832 16.7365 17.2391C16.7365 16.895 16.4576 16.6161 16.1135 16.6161C15.7694 16.6161 15.4905 16.895 15.4905 17.2391C15.4905 17.5832 15.7694 17.8621 16.1135 17.8621Z" fill="#F7B981"/>
<path d="M39.7999 16.616C40.1742 16.616 40.4777 16.3126 40.4777 15.9382C40.4777 15.5639 40.1742 15.2604 39.7999 15.2604C39.4255 15.2604 39.1221 15.5639 39.1221 15.9382C39.1221 16.3126 39.4255 16.616 39.7999 16.616Z" fill="#F7B981"/>
<path d="M37.8995 20.5751C38.1288 20.5751 38.3148 20.3891 38.3148 20.1597C38.3148 19.9303 38.1288 19.7444 37.8995 19.7444C37.6701 19.7444 37.4841 19.9303 37.4841 20.1597C37.4841 20.3891 37.6701 20.5751 37.8995 20.5751Z" fill="#F7B981"/>
<path d="M19.0216 19.3332C19.0216 19.457 18.9211 19.5566 18.7982 19.5566C18.6752 19.5566 18.5747 19.4561 18.5747 19.3332C18.5747 19.2103 18.6752 19.1097 18.7982 19.1097C18.9211 19.1097 19.0216 19.2103 19.0216 19.3332Z" fill="#F7B981"/>
<path d="M35.3667 13.4495C35.3667 13.5998 35.2455 13.7211 35.0951 13.7211C34.9448 13.7211 34.8235 13.5998 34.8235 13.4495C34.8235 13.2991 34.9448 13.1779 35.0951 13.1779C35.2455 13.1779 35.3667 13.2991 35.3667 13.4495Z" fill="#F7B981"/>
<path d="M36.5954 35.3236C35.866 34.9357 34.9606 35.2123 34.5727 35.9416C34.223 36.5987 33.8176 36.9659 33.3682 37.0331C32.751 37.1253 32.0258 36.7067 31.7924 36.4733C30.6403 35.3211 31.1354 32.7535 31.6562 31.6354C32.3739 30.0954 33.0725 28.9075 33.6888 27.8584C34.615 26.2834 35.415 24.9228 35.7132 23.2423C36.1775 20.6291 35.5446 18.0565 33.9754 16.1841C32.5915 14.5328 30.6212 13.585 28.5711 13.585C26.2751 13.585 23.9135 14.7321 22.4092 16.5787C21.007 18.2999 20.4762 20.4156 20.9131 22.5363C21.0319 23.1103 21.1781 23.6186 21.3426 24.0747C18.5291 24.2416 16.2913 26.5825 16.2913 29.4367C16.2913 32.2908 18.7019 34.8094 21.664 34.8094C24.6262 34.8094 27.0368 32.3997 27.0368 29.4367C27.0368 29.2223 27.0227 29.0122 26.9986 28.8045C26.9986 28.7962 26.9986 28.7879 26.9969 28.7796C26.992 28.7397 26.9862 28.7015 26.9803 28.6616C26.9778 28.6425 26.9753 28.6243 26.972 28.6052C26.7577 27.1374 26.0633 26.1754 25.4461 25.3232C24.7957 24.4261 24.1818 23.5788 23.8421 21.9307C23.5181 20.3632 24.1453 19.182 24.7276 18.4668C25.6787 17.2997 27.1515 16.5745 28.5711 16.5745C29.7348 16.5745 30.8695 17.1319 31.6836 18.1038C32.6978 19.3141 33.0833 20.953 32.7693 22.7182C32.5649 23.8695 31.9552 24.9062 31.1113 26.3416C30.4932 27.3932 29.724 28.7015 28.9465 30.3712C28.2853 31.7908 27.1274 36.0347 29.6792 38.5865C30.2565 39.1638 31.5789 40.0369 33.1746 40.0369C33.3823 40.0369 33.595 40.0219 33.8118 39.9895C34.8011 39.8416 36.1941 39.2635 37.215 37.3455C37.603 36.6161 37.3263 35.7107 36.597 35.3228L36.5954 35.3236ZM21.6632 31.8199C20.3499 31.8199 19.2808 30.7508 19.2808 29.4375C19.2808 28.1242 20.3499 27.0551 21.6632 27.0551C22.9765 27.0551 24.0456 28.1242 24.0456 29.4375C24.0456 30.7508 22.9765 31.8199 21.6632 31.8199Z" fill="white"/>
</svg>
