<svg width="53" height="53" viewBox="0 0 53 53" fill="none" xmlns="http://www.w3.org/2000/svg">
<path d="M26.72 52.8101C41.0794 52.8101 52.72 41.1695 52.72 26.8101C52.72 12.4507 41.0794 0.810059 26.72 0.810059C12.3606 0.810059 0.719971 12.4507 0.719971 26.8101C0.719971 41.1695 12.3606 52.8101 26.72 52.8101Z" fill="white"/>
<path d="M26.7199 51.0656C40.1159 51.0656 50.9755 40.206 50.9755 26.81C50.9755 13.414 40.1159 2.55444 26.7199 2.55444C13.324 2.55444 2.46436 13.414 2.46436 26.81C2.46436 40.206 13.324 51.0656 26.7199 51.0656Z" fill="#1F1F7A"/>
<path d="M26.6893 7.4305C26.6436 7.4305 26.6062 7.39312 26.6062 7.34743V4.39606C26.6062 4.35037 26.6436 4.31299 26.6893 4.31299C26.735 4.31299 26.7723 4.35037 26.7723 4.39606V7.34743C26.7723 7.39312 26.735 7.4305 26.6893 7.4305Z" fill="#FFE2C2"/>
<path d="M19.2431 8.924C19.2107 8.924 19.18 8.90489 19.1667 8.87249L18.0369 6.14541C18.0195 6.10304 18.0394 6.05403 18.0818 6.03658C18.1242 6.01914 18.1732 6.03908 18.1906 6.08144L19.3203 8.80853C19.3378 8.8509 19.3179 8.89991 19.2755 8.91735C19.2655 8.92151 19.2547 8.924 19.2439 8.924H19.2431Z" fill="#FFE2C2"/>
<path d="M12.9358 13.153C12.9142 13.153 12.8934 13.1447 12.8768 13.1289L10.7902 11.0423C10.7578 11.0099 10.7578 10.9576 10.7902 10.9252C10.8226 10.8928 10.8749 10.8928 10.9073 10.9252L12.9939 13.0118C13.0263 13.0442 13.0263 13.0966 12.9939 13.1289C12.9773 13.1456 12.9566 13.153 12.935 13.153H12.9358Z" fill="#FFE2C2"/>
<path d="M8.72682 19.4736C8.71602 19.4736 8.70521 19.4719 8.69524 19.4669L5.96814 18.3372C5.92578 18.3198 5.90586 18.2708 5.9233 18.2284C5.94075 18.1861 5.98974 18.1661 6.03211 18.1836L8.75921 19.3133C8.80157 19.3307 8.82151 19.3797 8.80407 19.4221C8.79078 19.4537 8.76005 19.4736 8.72765 19.4736H8.72682Z" fill="#FFE2C2"/>
<path d="M7.25734 26.9247H4.30597C4.26028 26.9247 4.2229 26.8873 4.2229 26.8416C4.2229 26.7959 4.26028 26.7585 4.30597 26.7585H7.25734C7.30303 26.7585 7.34041 26.7959 7.34041 26.8416C7.34041 26.8873 7.30303 26.9247 7.25734 26.9247Z" fill="#FFE2C2"/>
<path d="M6.02379 35.4997C5.99139 35.4997 5.96064 35.4806 5.94735 35.4482C5.92991 35.4058 5.94984 35.3568 5.99221 35.3394L8.71931 34.2097C8.76167 34.1922 8.81069 34.2122 8.82813 34.2545C8.84558 34.2969 8.82564 34.3459 8.78327 34.3634L6.05617 35.4931C6.0462 35.4972 6.03542 35.4997 6.02462 35.4997H6.02379Z" fill="#FFE2C2"/>
<path d="M18.1716 47.6133C18.1608 47.6133 18.1499 47.6117 18.14 47.6067C18.0976 47.5892 18.0777 47.5402 18.0951 47.4979L19.2248 44.7708C19.2423 44.7284 19.2913 44.7085 19.3337 44.7259C19.376 44.7434 19.396 44.7924 19.3785 44.8347L18.2488 47.5618C18.2355 47.5934 18.2048 47.6133 18.1724 47.6133H18.1716Z" fill="#FFE2C2"/>
<path d="M10.8924 42.7647C10.8708 42.7647 10.85 42.7564 10.8334 42.7406C10.801 42.7082 10.801 42.6559 10.8334 42.6235L12.92 40.5369C12.9524 40.5045 13.0048 40.5045 13.0372 40.5369C13.0695 40.5693 13.0695 40.6216 13.0372 40.654L10.9505 42.7406C10.9339 42.7572 10.9131 42.7647 10.8915 42.7647H10.8924Z" fill="#FFE2C2"/>
<path d="M26.7515 49.3079C26.7058 49.3079 26.6685 49.2706 26.6685 49.2249V46.2735C26.6685 46.2278 26.7058 46.1904 26.7515 46.1904C26.7972 46.1904 26.8346 46.2278 26.8346 46.2735V49.2249C26.8346 49.2706 26.7972 49.3079 26.7515 49.3079Z" fill="#FFE2C2"/>
<path d="M35.3266 47.5901C35.2942 47.5901 35.2634 47.571 35.2501 47.5386L34.1204 44.8115C34.103 44.7692 34.1229 44.7202 34.1653 44.7027C34.2077 44.6853 34.2567 44.7052 34.2741 44.7476L35.4038 47.4747C35.4213 47.517 35.4013 47.566 35.359 47.5835C35.349 47.5876 35.3382 47.5901 35.3274 47.5901H35.3266Z" fill="#FFE2C2"/>
<path d="M42.5916 42.7208C42.57 42.7208 42.5492 42.7125 42.5326 42.6967L40.4451 40.61C40.4127 40.5776 40.4127 40.5253 40.4451 40.4929C40.4775 40.4605 40.5299 40.4605 40.5623 40.4929L42.6497 42.5796C42.6821 42.612 42.6821 42.6643 42.6497 42.6967C42.6331 42.7133 42.6124 42.7208 42.5908 42.7208H42.5916Z" fill="#FFE2C2"/>
<path d="M47.4402 35.4423C47.4294 35.4423 47.4186 35.4407 47.4086 35.4357L44.6815 34.306C44.6392 34.2885 44.6192 34.2395 44.6367 34.1972C44.6541 34.1548 44.7031 34.1349 44.7455 34.1523L47.4726 35.282C47.515 35.2995 47.5349 35.3485 47.5175 35.3908C47.5042 35.4224 47.4734 35.4423 47.441 35.4423H47.4402Z" fill="#FFE2C2"/>
<path d="M44.6899 19.4162C44.6575 19.4162 44.6267 19.3971 44.6134 19.3647C44.596 19.3224 44.6159 19.2733 44.6583 19.2559L47.3854 18.1262C47.4277 18.1087 47.4768 18.1287 47.4942 18.171C47.5117 18.2134 47.4917 18.2624 47.4493 18.2799L44.7222 19.4096C44.7123 19.4137 44.7015 19.4162 44.6907 19.4162H44.6899Z" fill="#FFE2C2"/>
<path d="M49.1348 26.8624H46.1834C46.1377 26.8624 46.1003 26.825 46.1003 26.7794C46.1003 26.7337 46.1377 26.6963 46.1834 26.6963H49.1348C49.1805 26.6963 49.2179 26.7337 49.2179 26.7794C49.2179 26.825 49.1805 26.8624 49.1348 26.8624Z" fill="#FFE2C2"/>
<path d="M40.4601 13.109C40.4385 13.109 40.4177 13.1007 40.4011 13.0849C40.3687 13.0525 40.3687 13.0001 40.4011 12.9678L42.4878 10.8811C42.5202 10.8487 42.5725 10.8487 42.6049 10.8811C42.6373 10.9135 42.6373 10.9658 42.6049 10.9982L40.5183 13.0849C40.5017 13.1015 40.4809 13.109 40.4593 13.109H40.4601Z" fill="#FFE2C2"/>
<path d="M34.1396 8.89995C34.1288 8.89995 34.1179 8.89829 34.108 8.89331C34.0656 8.87586 34.0457 8.82686 34.0631 8.78449L35.1928 6.05739C35.2103 6.01503 35.2593 5.99509 35.3017 6.01254C35.344 6.02998 35.364 6.07899 35.3465 6.12136L34.2168 8.84845C34.2035 8.88001 34.1728 8.89995 34.1404 8.89995H34.1396Z" fill="#FFE2C2"/>
<path d="M26.72 49.4043C14.2616 49.4043 4.12573 39.2685 4.12573 26.8101C4.12573 14.3517 14.2616 4.21582 26.72 4.21582C39.1784 4.21582 49.3142 14.3517 49.3142 26.8101C49.3142 39.2685 39.1784 49.4043 26.72 49.4043ZM26.72 4.38195C14.353 4.38195 4.29187 14.443 4.29187 26.8101C4.29187 39.1771 14.353 49.2382 26.72 49.2382C39.087 49.2382 49.1481 39.1771 49.1481 26.8101C49.1481 14.443 39.087 4.38195 26.72 4.38195Z" fill="#FFE2C2"/>
<path d="M26.72 46.3026C15.9719 46.3026 7.22827 37.5589 7.22827 26.8109C7.22827 16.0628 15.9719 7.31921 26.72 7.31921C37.468 7.31921 46.2117 16.0628 46.2117 26.8109C46.2117 37.5589 37.468 46.3026 26.72 46.3026ZM26.72 7.48452C16.0633 7.48452 7.39441 16.1542 7.39441 26.8101C7.39441 37.4659 16.0641 46.1356 26.72 46.1356C37.3758 46.1356 46.0455 37.4659 46.0455 26.8101C46.0455 16.1542 37.3758 7.48452 26.72 7.48452Z" fill="#FFE2C2"/>
<path d="M14.7616 23.4724L14.956 23.9185C15.0382 24.1079 15.1894 24.2591 15.3788 24.3413L15.8249 24.5357L15.3788 24.73C15.1894 24.8123 15.0382 24.9635 14.956 25.1529L14.7616 25.5989L14.5672 25.1529C14.485 24.9635 14.3338 24.8123 14.1444 24.73L13.6984 24.5357L14.1444 24.3413C14.3338 24.2591 14.485 24.1079 14.5672 23.9185L14.7616 23.4724Z" fill="#F7B981"/>
<path d="M40.5747 35.6492L40.7749 36.1094C40.8605 36.3046 41.0158 36.4607 41.2118 36.5463L41.672 36.7465L41.2118 36.9467C41.0166 37.0322 40.8605 37.1876 40.7749 37.3836L40.5747 37.8438L40.3745 37.3836C40.289 37.1884 40.1337 37.0322 39.9376 36.9467L39.4774 36.7465L39.9376 36.5463C40.1328 36.4616 40.289 36.3054 40.3745 36.1094L40.5747 35.6492Z" fill="#F7B981"/>
<path d="M37.0486 32.7917L37.1798 33.0933C37.2354 33.2212 37.3376 33.3234 37.4656 33.379L37.7671 33.5103L37.4656 33.6415C37.3376 33.6972 37.2354 33.7994 37.1798 33.9273L37.0486 34.2288L36.9173 33.9273C36.8617 33.7994 36.7595 33.6972 36.6316 33.6415L36.33 33.5103L36.6316 33.379C36.7595 33.3234 36.8617 33.2212 36.9173 33.0933L37.0486 32.7917Z" fill="#F7B981"/>
<path d="M18.4116 41.5653L18.5428 41.8668C18.5985 41.9948 18.7007 42.0969 18.8286 42.1526L19.1301 42.2838L18.8286 42.4151C18.7007 42.4707 18.5985 42.5729 18.5428 42.7008L18.4116 43.0024L18.2803 42.7008C18.2247 42.5729 18.1225 42.4707 17.9946 42.4151L17.6931 42.2838L17.9946 42.1526C18.1225 42.0969 18.2247 41.9948 18.2803 41.8668L18.4116 41.5653Z" fill="#F7B981"/>
<path d="M21.152 38.8905L21.358 39.3632C21.4452 39.5642 21.6055 39.7237 21.8066 39.8117L22.2792 40.0177L21.8066 40.2237C21.6055 40.311 21.446 40.4713 21.358 40.6723L21.152 41.1449L20.946 40.6723C20.8588 40.4713 20.6984 40.3118 20.4974 40.2237L20.0248 40.0177L20.4974 39.8117C20.6984 39.7245 20.8579 39.5642 20.946 39.3632L21.152 38.8905Z" fill="#F7B981"/>
<path d="M41.4477 27.4115L41.5574 27.6632C41.6039 27.7703 41.6895 27.8559 41.7966 27.9024L42.0483 28.0121L41.7966 28.1217C41.6895 28.1682 41.6039 28.2538 41.5574 28.361L41.4477 28.6126L41.3381 28.361C41.2916 28.2538 41.206 28.1682 41.0989 28.1217L40.8472 28.0121L41.0989 27.9024C41.206 27.8559 41.2916 27.7703 41.3381 27.6632L41.4477 27.4115Z" fill="#F7B981"/>
<path d="M14.4527 19.1181C14.8697 19.1181 15.2077 18.78 15.2077 18.363C15.2077 17.946 14.8697 17.6079 14.4527 17.6079C14.0356 17.6079 13.6976 17.946 13.6976 18.363C13.6976 18.78 14.0356 19.1181 14.4527 19.1181Z" fill="#F7B981"/>
<path d="M37.9506 15.4681C38.4438 15.4681 38.8436 15.0683 38.8436 14.5751C38.8436 14.0819 38.4438 13.6821 37.9506 13.6821C37.4575 13.6821 37.0577 14.0819 37.0577 14.5751C37.0577 15.0683 37.4575 15.4681 37.9506 15.4681Z" fill="#F7B981"/>
<path d="M17.2055 20.8683C17.3546 20.8683 17.4754 20.7474 17.4754 20.5983C17.4754 20.4492 17.3546 20.3284 17.2055 20.3284C17.0564 20.3284 16.9355 20.4492 16.9355 20.5983C16.9355 20.7474 17.0564 20.8683 17.2055 20.8683Z" fill="#F7B981"/>
<path d="M36.3624 19.2875C36.5739 19.2875 36.7453 19.116 36.7453 18.9045C36.7453 18.6931 36.5739 18.5216 36.3624 18.5216C36.1509 18.5216 35.9794 18.6931 35.9794 18.9045C35.9794 19.116 36.1509 19.2875 36.3624 19.2875Z" fill="#F7B981"/>
<path d="M33.0555 15.1017C33.0555 15.2521 32.9342 15.3733 32.7838 15.3733C32.6335 15.3733 32.5122 15.2521 32.5122 15.1017C32.5122 14.9514 32.6335 14.8301 32.7838 14.8301C32.9342 14.8301 33.0555 14.9514 33.0555 15.1017Z" fill="#F7B981"/>
<path d="M37.2271 32.4121H30.0734C29.4495 32.4121 28.8913 32.025 28.6729 31.4411C28.4544 30.8571 28.6214 30.1984 29.0915 29.7889C29.1131 29.7698 31.5013 27.6474 32.2423 24.9419C32.6775 23.352 32.3918 21.787 31.4365 20.5352C30.3857 19.1579 28.667 18.368 26.72 18.368C24.7729 18.368 23.0542 19.1579 22.0034 20.5352C21.0481 21.787 20.7616 23.352 21.1968 24.9419C21.9378 27.6474 24.3268 29.7698 24.3509 29.7905C24.8185 30.2017 24.9838 30.8596 24.7646 31.4419C24.5453 32.0242 23.9895 32.4113 23.3665 32.4113H16.2128C15.3871 32.4113 14.7176 31.7418 14.7176 30.9161C14.7176 30.0904 15.3871 29.4209 16.2128 29.4209H20.0987C19.3926 28.4041 18.7007 27.144 18.3136 25.7319C17.6357 23.2581 18.1142 20.703 19.626 18.721C21.2475 16.5962 23.8325 15.3776 26.72 15.3776C29.6074 15.3776 32.1924 16.5962 33.8139 18.721C35.3257 20.703 35.8042 23.2581 35.1263 25.7319C34.7392 27.144 34.0473 28.405 33.3412 29.4209H37.2271C38.0528 29.4209 38.7223 30.0904 38.7223 30.9161C38.7223 31.7418 38.0528 32.4113 37.2271 32.4113V32.4121Z" fill="white"/>
<path d="M37.2238 38.2426H16.2169C15.3913 38.2426 14.7217 37.5731 14.7217 36.7474C14.7217 35.9217 15.3913 35.2522 16.2169 35.2522H37.2238C38.0495 35.2522 38.719 35.9217 38.719 36.7474C38.719 37.5731 38.0495 38.2426 37.2238 38.2426Z" fill="white"/>
</svg>
