<svg width="40" height="41" viewBox="0 0 40 41" fill="none" xmlns="http://www.w3.org/2000/svg">
<g clip-path="url(#clip0_1421_16103)">
<path d="M37.5746 10.8707C32.3074 1.16419 20.1689 -2.4345 10.4625 2.83271C0.755989 8.10067 -2.84271 20.2391 2.42451 29.9456C7.69172 39.6521 19.8302 43.2508 29.5367 37.9828C39.2431 32.7156 42.8418 20.5771 37.5739 10.8707H37.5746ZM28.4129 35.9111C19.8509 40.5571 9.14306 37.3832 4.497 28.8212C-0.1498 20.2591 3.02491 9.55127 11.5869 4.90521C20.1489 0.258403 30.8568 3.43311 35.5029 11.9951C40.1489 20.5571 36.9749 31.265 28.4129 35.9111Z" fill="white"/>
<path d="M16.213 22.4629C13.1413 16.8028 14.6912 9.8752 19.5767 6.01337C17.3908 6.07563 15.1856 6.63823 13.1324 7.75304C6.14329 11.5459 3.55194 20.2858 7.34484 27.2749C11.1377 34.2641 19.8776 36.8554 26.8667 33.0625C28.9207 31.9484 30.5937 30.4059 31.8375 28.6077C25.9372 30.5994 19.2846 28.1229 16.213 22.4629Z" fill="white"/>
<path d="M25.1145 10.145L27.3026 9.72475L25.1145 9.30373L24.6935 7.1156L24.2732 9.30373L22.0851 9.72475L24.2732 10.145L24.6935 12.3332L25.1145 10.145Z" fill="white"/>
</g>
<defs>
<clipPath id="clip0_1421_16103">
<rect width="40" height="40" fill="white" transform="translate(0 0.408203)"/>
</clipPath>
</defs>
</svg>
