<svg width="80" height="80" viewBox="0 0 80 80" fill="none" xmlns="http://www.w3.org/2000/svg">
<path d="M40 80C62.0914 80 80 62.0914 80 40C80 17.9086 62.0914 0 40 0C17.9086 0 0 17.9086 0 40C0 62.0914 17.9086 80 40 80Z" fill="#F3D351"/>
<path d="M40.0001 77.3162C60.6094 77.3162 77.3164 60.6091 77.3164 39.9999C77.3164 19.3907 60.6094 2.68359 40.0001 2.68359C19.3909 2.68359 2.68384 19.3907 2.68384 39.9999C2.68384 60.6091 19.3909 77.3162 40.0001 77.3162Z" fill="url(#paint0_linear_1709_2497)"/>
<path d="M39.9503 10.1829C39.88 10.1829 39.8225 10.1254 39.8225 10.0551V5.51451C39.8225 5.44423 39.88 5.38672 39.9503 5.38672C40.0206 5.38672 40.0781 5.44423 40.0781 5.51451V10.0551C40.0781 10.1254 40.0206 10.1829 39.9503 10.1829Z" fill="white"/>
<path d="M28.4964 12.4822C28.4466 12.4822 28.3993 12.4528 28.3788 12.4029L26.6408 8.20737C26.614 8.1422 26.6446 8.06682 26.7098 8.03999C26.775 8.01315 26.8504 8.04379 26.8772 8.10897L28.6152 12.3045C28.6421 12.3697 28.6114 12.4451 28.5462 12.4719C28.5296 12.4783 28.5143 12.4822 28.4977 12.4822H28.4964Z" fill="white"/>
<path d="M18.7927 18.9883C18.7595 18.9883 18.7275 18.9755 18.7019 18.9512L15.4917 15.741C15.4419 15.6912 15.4419 15.6107 15.4917 15.5608C15.5416 15.511 15.6221 15.511 15.6719 15.5608L18.8821 18.7711C18.932 18.8209 18.932 18.9014 18.8821 18.9512C18.8566 18.9768 18.8246 18.9883 18.7914 18.9883H18.7927Z" fill="white"/>
<path d="M12.3177 28.7122C12.3011 28.7122 12.2845 28.7096 12.2691 28.7019L8.07358 26.9639C8.00841 26.9371 7.97775 26.8616 8.00458 26.7965C8.03142 26.7313 8.10553 26.7006 8.17199 26.7275L12.3675 28.4655C12.4327 28.4923 12.4634 28.5677 12.4365 28.6329C12.4161 28.6815 12.3688 28.7122 12.319 28.7122H12.3177Z" fill="white"/>
<path d="M10.0553 40.1745H5.51476C5.44447 40.1745 5.38696 40.117 5.38696 40.0467C5.38696 39.9765 5.44447 39.9189 5.51476 39.9189H10.0553C10.1256 39.9189 10.1831 39.9765 10.1831 40.0467C10.1831 40.117 10.1256 40.1745 10.0553 40.1745Z" fill="white"/>
<path d="M8.15976 53.3684C8.10991 53.3684 8.06263 53.339 8.04218 53.2892C8.01534 53.224 8.04602 53.1486 8.11119 53.1218L12.3067 51.3837C12.3719 51.3569 12.4473 51.3876 12.4741 51.4527C12.501 51.5179 12.4703 51.5933 12.4051 51.6202L8.2096 53.3582C8.19426 53.3646 8.17765 53.3684 8.16103 53.3684H8.15976Z" fill="white"/>
<path d="M26.8458 72.0046C26.8292 72.0046 26.8126 72.0021 26.7972 71.9944C26.7321 71.9675 26.7014 71.8921 26.7282 71.827L28.4662 67.6314C28.4931 67.5663 28.5672 67.5356 28.6336 67.5624C28.6988 67.5893 28.7295 67.6647 28.7027 67.7298L26.9646 71.9254C26.9442 71.9739 26.8969 72.0046 26.8471 72.0046H26.8458Z" fill="white"/>
<path d="M15.6491 64.544C15.6159 64.544 15.5839 64.5312 15.5584 64.5069C15.5085 64.4571 15.5085 64.3766 15.5584 64.3267L18.7686 61.1165C18.8184 61.0666 18.899 61.0666 18.9488 61.1165C18.9986 61.1663 18.9986 61.2469 18.9488 61.2967L15.7386 64.5069C15.713 64.5325 15.6811 64.544 15.6478 64.544H15.6491Z" fill="white"/>
<path d="M40.046 74.6106C39.9757 74.6106 39.9182 74.5531 39.9182 74.4828V69.9422C39.9182 69.872 39.9757 69.8145 40.046 69.8145C40.1163 69.8145 40.1738 69.872 40.1738 69.9422V74.4828C40.1738 74.5531 40.1163 74.6106 40.046 74.6106Z" fill="white"/>
<path d="M53.2396 71.9675C53.1897 71.9675 53.1424 71.9381 53.122 71.8883L51.384 67.6927C51.3571 67.6275 51.3878 67.5522 51.453 67.5253C51.5182 67.4985 51.5923 67.5292 51.6204 67.5943L53.3584 71.7899C53.3852 71.855 53.3546 71.9304 53.2894 71.9573C53.2728 71.9637 53.2575 71.9675 53.2408 71.9675H53.2396Z" fill="white"/>
<path d="M64.4174 64.4776C64.3842 64.4776 64.3523 64.4648 64.3267 64.4405L61.1165 61.2303C61.0666 61.1804 61.0666 61.0999 61.1165 61.0501C61.1663 61.0002 61.2468 61.0002 61.2967 61.0501L64.5069 64.2603C64.5567 64.3102 64.5567 64.3907 64.5069 64.4405C64.4813 64.4661 64.4494 64.4776 64.4162 64.4776H64.4174Z" fill="white"/>
<path d="M71.8763 53.2786C71.8597 53.2786 71.843 53.276 71.8277 53.2683L67.6322 51.5303C67.567 51.5035 67.5363 51.4281 67.5632 51.3629C67.59 51.2977 67.6641 51.267 67.7306 51.2939L71.9261 53.0319C71.9913 53.0587 72.022 53.1341 71.9951 53.1993C71.9747 53.2479 71.9274 53.2786 71.8776 53.2786H71.8763Z" fill="white"/>
<path d="M67.6439 28.6243C67.594 28.6243 67.5468 28.5949 67.5263 28.545C67.4995 28.4799 67.5301 28.4045 67.5953 28.3776L71.7908 26.6396C71.856 26.6128 71.9301 26.6434 71.9583 26.7086C71.9851 26.7738 71.9544 26.8492 71.8892 26.876L67.6937 28.6141C67.6784 28.6204 67.6618 28.6243 67.6452 28.6243H67.6439Z" fill="white"/>
<path d="M74.4816 40.0788H69.941C69.8707 40.0788 69.8132 40.0213 69.8132 39.951C69.8132 39.8808 69.8707 39.8232 69.941 39.8232H74.4816C74.5519 39.8232 74.6094 39.8808 74.6094 39.951C74.6094 40.0213 74.5519 40.0788 74.4816 40.0788Z" fill="white"/>
<path d="M61.1374 18.9209C61.1042 18.9209 61.0722 18.9081 61.0467 18.8839C60.9968 18.834 60.9968 18.7535 61.0467 18.7037L64.2569 15.4934C64.3067 15.4436 64.3872 15.4436 64.4371 15.4934C64.4869 15.5433 64.4869 15.6238 64.4371 15.6736L61.2269 18.8839C61.2013 18.9094 61.1694 18.9209 61.1361 18.9209H61.1374Z" fill="white"/>
<path d="M51.4139 12.446C51.3973 12.446 51.3807 12.4435 51.3653 12.4358C51.3002 12.409 51.2695 12.3335 51.2963 12.2684L53.0343 8.07286C53.0612 8.00769 53.1353 7.97701 53.2018 8.00385C53.2669 8.03068 53.2976 8.10606 53.2708 8.17124L51.5327 12.3668C51.5123 12.4153 51.465 12.446 51.4152 12.446H51.4139Z" fill="white"/>
<path d="M40.0004 74.76C20.8336 74.76 5.23999 59.1664 5.23999 39.9996C5.23999 20.8329 20.8336 5.23926 40.0004 5.23926C59.1671 5.23926 74.7608 20.8329 74.7608 39.9996C74.7608 59.1664 59.1671 74.76 40.0004 74.76ZM40.0004 5.49485C20.9742 5.49485 5.49558 20.9734 5.49558 39.9996C5.49558 59.0258 20.9742 74.5044 40.0004 74.5044C59.0266 74.5044 74.5052 59.0258 74.5052 39.9996C74.5052 20.9734 59.0266 5.49485 40.0004 5.49485Z" fill="white"/>
<path d="M39.9997 69.9862C23.4642 69.9862 10.0125 56.5344 10.0125 39.9989C10.0125 23.4635 23.4642 10.0117 39.9997 10.0117C56.5351 10.0117 69.9869 23.4635 69.9869 39.9989C69.9869 56.5344 56.5351 69.9862 39.9997 69.9862ZM39.9997 10.266C23.6048 10.266 10.268 23.604 10.268 39.9976C10.268 56.3913 23.6061 69.7293 39.9997 69.7293C56.3933 69.7293 69.7313 56.3913 69.7313 39.9976C69.7313 23.604 56.3933 10.266 39.9997 10.266Z" fill="white"/>
<path d="M19.965 47.2021L20.3113 47.997C20.4583 48.3344 20.728 48.604 21.0653 48.751L21.8602 49.0973L21.0653 49.4437C20.728 49.5907 20.4583 49.8603 20.3113 50.1977L19.965 50.9926L19.6187 50.1977C19.4717 49.8603 19.2021 49.5907 18.8647 49.4437L18.0698 49.0973L18.8647 48.751C19.2021 48.604 19.4717 48.3344 19.6187 47.997L19.965 47.2021Z" fill="white"/>
<path d="M56.085 58.5801L56.3444 59.1769C56.4543 59.4299 56.6575 59.6331 56.9105 59.743L57.5073 60.0024L56.9105 60.2619C56.6575 60.3718 56.4543 60.5749 56.3444 60.828L56.085 61.4248L55.8255 60.828C55.7156 60.5749 55.5124 60.3718 55.2594 60.2619L54.6626 60.0024L55.2594 59.743C55.5124 59.6331 55.7156 59.4299 55.8255 59.1769L56.085 58.5801Z" fill="white"/>
<path d="M59.8984 36.9492L60.0543 37.3083C60.1208 37.4604 60.2422 37.5818 60.3942 37.6483L60.7534 37.8042L60.3942 37.9601C60.2422 38.0265 60.1208 38.1479 60.0543 38.3L59.8984 38.6591L59.7425 38.3C59.676 38.1479 59.5546 38.0265 59.4026 37.9601L59.0435 37.8042L59.4026 37.6483C59.5546 37.5818 59.676 37.4604 59.7425 37.3083L59.8984 36.9492Z" fill="white"/>
<path d="M49.8947 31.4736L50.0507 31.8327C50.1171 31.9848 50.2385 32.1062 50.3906 32.1727L50.7497 32.3286L50.3906 32.4845C50.2385 32.5509 50.1171 32.6724 50.0507 32.8244L49.8947 33.1836L49.7388 32.8244C49.6724 32.6724 49.551 32.5509 49.3989 32.4845L49.0398 32.3286L49.3989 32.1727C49.551 32.1062 49.6724 31.9848 49.7388 31.8327L49.8947 31.4736Z" fill="white"/>
<path d="M25.7823 52.7852L25.9765 53.2312C26.0596 53.4203 26.2104 53.5724 26.3995 53.6542L26.8455 53.8484L26.3995 54.0427C26.2104 54.1257 26.0583 54.2765 25.9765 54.4657L25.7823 54.9117L25.588 54.4657C25.5049 54.2765 25.3541 54.1245 25.165 54.0427L24.719 53.8484L25.165 53.6542C25.3541 53.5711 25.5062 53.4203 25.588 53.2312L25.7823 52.7852Z" fill="white"/>
<path d="M35.8884 14.8652L36.1185 15.393C36.2156 15.6167 36.3945 15.7956 36.6194 15.894L37.1472 16.124L36.6194 16.354C36.3958 16.4512 36.2169 16.6301 36.1185 16.855L35.8884 17.3828L35.6584 16.855C35.5613 16.6314 35.3824 16.4524 35.1574 16.354L34.6296 16.124L35.1574 15.894C35.3811 15.7969 35.56 15.6179 35.6584 15.393L35.8884 14.8652Z" fill="white"/>
<path d="M19.2874 28.6104C19.7814 28.6104 20.182 28.2099 20.182 27.7159C20.182 27.2218 19.7814 26.8213 19.2874 26.8213C18.7933 26.8213 18.3928 27.2218 18.3928 27.7159C18.3928 28.2099 18.7933 28.6104 19.2874 28.6104Z" fill="white"/>
<path d="M58.1961 29.0895C58.7721 29.0895 59.2389 28.6226 59.2389 28.0467C59.2389 27.4708 58.7721 27.0039 58.1961 27.0039C57.6202 27.0039 57.1533 27.4708 57.1533 28.0467C57.1533 28.6226 57.6202 29.0895 58.1961 29.0895Z" fill="white"/>
<path d="M24.2192 32.6732C24.2192 32.9301 24.0109 33.1384 23.754 33.1384C23.4971 33.1384 23.2888 32.9301 23.2888 32.6732C23.2888 32.4163 23.4971 32.208 23.754 32.208C24.0109 32.208 24.2192 32.4163 24.2192 32.6732Z" fill="white"/>
<path d="M50.4298 58.5794C50.4298 58.8746 50.1908 59.1149 49.8943 59.1149C49.5979 59.1149 49.3589 58.8759 49.3589 58.5794C49.3589 58.2829 49.5979 58.0439 49.8943 58.0439C50.1908 58.0439 50.4298 58.2829 50.4298 58.5794Z" fill="white"/>
<path d="M49.0395 23.4872C49.2703 23.4872 49.4574 23.3001 49.4574 23.0693C49.4574 22.8385 49.2703 22.6514 49.0395 22.6514C48.8087 22.6514 48.6216 22.8385 48.6216 23.0693C48.6216 23.3001 48.8087 23.4872 49.0395 23.4872Z" fill="white"/>
<path d="M49.9511 36.459C48.1109 36.459 46.2489 37.0239 44.6808 38.0207C44.6757 37.553 44.6706 37.0827 44.6655 36.5792C44.6489 35.1006 44.631 33.4252 44.6118 30.7581C44.5863 26.9281 43.7224 23.9095 42.0482 21.7881C40.378 19.6731 38.0086 18.5626 35.2048 18.5843C32.8227 18.6009 30.6808 19.6284 29.0655 21.5031C28.7958 21.1542 28.4942 20.8335 28.1633 20.5459C26.7 19.2782 24.6361 18.7134 22.7792 19.075C21.5319 19.3178 20.7179 20.5242 20.9594 21.7715C21.2022 23.0188 22.4099 23.8341 23.6559 23.5913C24.1262 23.5006 24.7549 23.682 25.1498 24.0233C25.4553 24.2891 25.6968 24.6776 25.8284 25.1185C26.0022 25.7025 26.015 26.5 26.0022 27.2757C26.0022 27.2885 26.0022 27.2999 26.0022 27.3127V30.3466C25.9767 30.8245 25.9639 31.3115 25.9677 31.8073C25.9677 31.9325 25.9818 32.0539 26.0022 32.1741V44.3274C26.0022 45.5977 27.0323 46.6277 28.3025 46.6277C29.5728 46.6277 30.6029 45.5977 30.6029 44.3274V30.4411C30.7703 27.668 31.5077 25.9913 32.1441 25.0418C32.9633 23.8175 34.0035 23.1939 35.2367 23.1849C35.2495 23.1849 35.261 23.1849 35.2738 23.1849C39.1447 23.1849 39.9882 27.3178 40.0112 30.79C40.0291 33.4674 40.0482 35.1479 40.0649 36.6303C40.0891 38.776 40.1057 40.3261 40.1057 43.576C40.1057 44.7287 40.1837 45.8086 40.3396 46.813C40.3447 46.8514 40.3511 46.8884 40.3575 46.9255C40.7294 49.2258 41.5128 51.1249 42.7 52.6022C40.1454 55.53 36.0674 57.1734 32.208 56.7479C30.9454 56.6086 29.808 57.5185 29.6687 58.7824C29.5294 60.045 30.4393 61.1824 31.7019 61.3217C32.2885 61.3868 32.8751 61.4175 33.4617 61.4175C38.415 61.4175 43.2661 59.1453 46.4265 55.3204C47.5038 55.7268 48.6847 55.9376 49.9498 55.9376C52.4431 55.9376 54.7268 55.0456 56.3818 53.4265C58.1466 51.6974 59.0795 49.3051 59.0795 46.5076C59.0795 40.4961 54.3588 36.459 49.9498 36.459H49.9511ZM49.9511 51.3383C47.169 51.3383 45.4834 49.6693 44.9185 46.367C44.916 44.7875 45.3773 43.5185 46.291 42.5919C47.4054 41.461 48.9594 41.0597 49.9511 41.0597C51.4808 41.0597 54.4802 42.7044 54.4802 46.5076C54.4802 50.0693 52.1403 51.3383 49.9511 51.3383Z" fill="white"/>
<defs>
<linearGradient id="paint0_linear_1709_2497" x1="40.0001" y1="2.68359" x2="40.0001" y2="77.3162" gradientUnits="userSpaceOnUse">
<stop stop-color="#3867B8"/>
<stop offset="1" stop-color="#192E52"/>
</linearGradient>
</defs>
</svg>
