<svg width="91" height="104" viewBox="0 0 91 104" fill="none" xmlns="http://www.w3.org/2000/svg">
<path d="M78.4555 58.0863C79.6102 61.8872 79.959 68.2502 79.5982 71.1972C79.2173 79.8576 77.6584 96.8327 80.6054 94.7999C83.5363 92.7781 85.1312 88.518 87.2362 84.9095C89.3412 81.301 90.3034 76.4295 90.544 69.4531C90.7202 64.3441 89.0204 56.7231 87.9579 53.5757C86.3341 50.0072 82.6895 42.0044 79.8989 39.0214C76.4107 35.2926 76.11 34.9918 70.8175 29.3385C65.525 23.6852 64.8033 18.934 63.9012 16.7689C62.9991 14.6038 62.3906 7.20634 61.3151 4.92096C60.5453 3.28511 59.3505 2.55539 58.729 2.27473C58.2679 2.03416 56.7563 2.46718 55.1205 4.92097C53.0757 7.9882 52.8351 16.3479 55.4212 23.5649C58.0073 30.7819 66.925 39.9928 69.5545 42.8704C72.742 46.3586 77.0121 53.3351 78.4555 58.0863Z" fill="#231F20"/>
<path d="M77.4932 63.078C78.3111 64.7139 79.2373 69.2526 79.5982 71.3175L80.5452 94.848C78.8011 96.0709 74.4741 98.8864 72.5014 99.9449C70.5288 101.003 65.5 103 62.8186 103.012C53.0957 103.233 33.5296 103.541 33.0484 103.012C32.5673 102.483 32.6475 101.188 32.7477 100.606C32.7878 99.985 33.277 98.3331 34.9128 96.6973C36.9576 94.6525 40.0249 95.0734 39.7242 94.9532C39.4235 94.8329 35.0933 91.2845 33.6499 88.8788C32.2065 86.4732 32.7477 85.9319 32.447 87.255C32.1463 88.5781 27.2748 96.8176 26.6734 98.0805C26.072 99.3435 23.9069 101.388 23.4859 102.05C23.1491 102.579 21.9423 102.912 21.3809 103.012C18.3137 103.012 12.083 102.976 11.6981 102.832C11.3132 102.687 10.8561 102.09 10.6757 101.809C10.5153 101.348 10.2547 100.149 10.4953 99.0428C10.796 97.6595 11.5177 96.577 12.5401 95.9154C13.5625 95.2539 13.8031 95.314 14.9458 94.8329C15.8599 94.448 17.171 94.3918 17.7123 94.4119C18.1734 92.6678 19.1557 88.8909 19.3963 87.7362C19.6368 86.5814 20.4989 78.6347 20.8998 74.8057C21 72.0993 21.2005 66.2174 21.2005 64.341C21.2005 61.9955 20.6592 59.8304 20.5389 58.5073C20.4187 57.1841 19.276 54.4176 17.7724 52.2525C16.5696 50.5204 14.7854 49.085 14.0436 48.5839C13.8231 48.3433 13.0453 47.7539 11.6981 47.3209C10.0141 46.7796 9.533 46.1782 9.17215 46.0579C8.8113 45.9376 5.98464 43.7725 4.18039 42.0886C2.37613 40.4046 1.53415 37.6982 1.23344 36.8562C0.932729 36.0142 0.211028 33.1876 0.752304 31.684C1.29358 30.1805 1.53415 30.6616 2.01528 29.8196C2.40019 29.146 3.73934 28.2559 4.36081 27.8951C5.06246 27.4741 6.54997 26.5359 6.88676 26.151C7.22356 25.7661 8.14974 24.5071 8.57073 23.9257C9.43277 22.763 11.3012 20.3653 11.8785 20.0767C12.6002 19.7158 13.8632 18.8738 15.4269 17.9717C16.6778 17.25 18.5543 16.9092 19.3361 16.829L24.7489 8.04831C25.5307 6.96576 27.371 4.51198 28.4777 3.35726C29.5843 2.20253 31.1038 1.07188 31.7253 0.650896C32.1263 0.350187 33.0605 0.0133933 33.5897 1.07189C34.2513 2.39501 34.4317 3.5377 34.973 5.4021C35.406 6.89361 35.7147 11.2759 35.815 13.2807C36.5367 12.7594 38.2327 11.4524 39.243 10.3939C40.2534 9.33537 43.0721 7.8679 44.3551 7.26648C45.0367 6.96577 46.5202 6.47261 47.0013 6.90563C47.6027 7.44691 47.7832 7.8679 48.0237 8.64974C48.2643 9.43158 48.5049 12.3785 48.565 15.3255C48.6251 18.2724 48.0839 23.3243 47.0013 28.3762C45.9188 33.4281 46.9412 34.2701 47.0013 35.5933C47.0615 36.9164 49.407 42.8704 52.2337 44.0732C55.0603 45.2761 59.571 47.3209 62.8186 48.5839C66.0663 49.8468 68.8929 51.9518 71.6594 54.5379C74.426 57.124 76.4708 61.0332 77.4932 63.078Z" fill="#231F20"/>
<path d="M33.2735 14.1979C33.2735 14.397 33.1117 14.5587 32.9126 14.5587C32.7135 14.5587 32.5518 14.397 32.5518 14.1979C32.5518 13.9988 32.7135 13.837 32.9126 13.837C33.1117 13.837 33.2735 13.9988 33.2735 14.1979Z" fill="#E2BE74"/>
<path d="M33.2735 11.4314C33.2735 11.6305 33.1117 11.7923 32.9126 11.7923C32.7135 11.7923 32.5518 11.6305 32.5518 11.4314C32.5518 11.2323 32.7135 11.0706 32.9126 11.0706C33.1117 11.0706 33.2735 11.2323 33.2735 11.4314Z" fill="#E2BE74"/>
<path d="M33.2735 8.66481C33.2735 8.8639 33.1117 9.02566 32.9126 9.02566C32.7135 9.02566 32.5518 8.8639 32.5518 8.66481C32.5518 8.46572 32.7135 8.30396 32.9126 8.30396C33.1117 8.30396 33.2735 8.46572 33.2735 8.66481Z" fill="#E2BE74"/>
<path d="M32.9131 5.41725C32.9131 5.61634 32.7513 5.7781 32.5523 5.7781C32.3532 5.7781 32.1914 5.61634 32.1914 5.41725C32.1914 5.21816 32.3532 5.0564 32.5523 5.0564C32.7513 5.0564 32.9131 5.21816 32.9131 5.41725Z" fill="#E2BE74"/>
<path d="M55.14 94.1357C64.227 94.1357 71.5935 86.7692 71.5935 77.6822C71.5935 68.5952 64.227 61.2288 55.14 61.2288C46.053 61.2288 38.6865 68.5952 38.6865 77.6822C38.6865 86.7692 46.053 94.1357 55.14 94.1357Z" fill="#E2BE74"/>
<path d="M75.5867 78.7482C75.5867 88.8084 67.4324 96.9627 57.3722 96.9627H52.546L53.9042 95.7764C46.2338 93.9122 40.5381 86.9958 40.5381 78.7506C40.5381 69.076 48.3853 61.2312 58.0648 61.2312C67.0984 61.2312 74.533 68.0666 75.486 76.8471C75.5499 77.4759 75.5867 78.112 75.5867 78.7506V78.7482Z" fill="#231F20"/>
<path d="M66.4033 83.5558C66.2354 83.4654 64.7732 82.3882 63.2569 81.5332C61.7561 80.6601 60.1855 79.9988 60.1855 79.9988C60.1855 79.9988 61.7794 80.5593 63.4946 80.9287C65.1969 81.3188 66.9871 81.5022 67.1756 81.5487C67.5502 81.6365 67.7336 82.2229 67.4959 82.8248C67.2686 83.4318 66.7313 83.7366 66.4033 83.5558Z" fill="#E2BE74"/>
<path d="M63.4247 86.9165C63.3188 86.7563 62.5206 85.1264 61.5726 83.6669C60.6452 82.197 59.5654 80.8822 59.5654 80.8822C59.5654 80.8822 60.7175 82.117 62.0633 83.2432C63.3911 84.3798 64.8893 85.3769 65.034 85.5061C65.3233 85.7592 65.2174 86.3611 64.7266 86.7822C64.2435 87.211 63.6313 87.2342 63.4247 86.9217V86.9165Z" fill="#E2BE74"/>
<path d="M59.2162 88.5103C59.1955 88.3192 59.2497 86.5058 59.0948 84.7725C59.0224 83.9046 58.9113 83.0573 58.8054 82.4218C58.7021 81.7864 58.6143 81.373 58.6143 81.373C58.6143 81.373 59.056 83.003 59.725 84.6253C60.3708 86.2475 61.2362 87.8258 61.306 88.0092C61.4455 88.3657 61.0683 88.8513 60.4354 88.996C59.8077 89.1536 59.2523 88.8849 59.2162 88.5103Z" fill="#E2BE74"/>
<path d="M54.7606 87.9679C54.8303 87.7897 55.7189 86.2114 56.3828 84.6072C57.0699 82.9953 57.5349 81.3654 57.5349 81.3654C57.5349 81.3654 57.4445 81.7787 57.3308 82.4115C57.2197 83.0418 57.0932 83.902 57.0105 84.7648C56.8323 86.4955 56.8633 88.3063 56.8426 88.4949C56.8168 88.6861 56.6747 88.841 56.45 88.9315C56.2252 89.0296 55.9256 89.0503 55.6156 88.965C54.9827 88.8178 54.6159 88.3167 54.758 87.9679H54.7606Z" fill="#E2BE74"/>
<path d="M51.0637 85.4158C51.2084 85.2918 52.7273 84.305 54.0628 83.1917C55.4216 82.0835 56.5918 80.8617 56.5918 80.8617C56.5918 80.8617 56.3179 81.1846 55.9253 81.6935C55.5326 82.1998 55.0211 82.8998 54.5484 83.6257C53.5823 85.0748 52.7661 86.6919 52.6576 86.8495C52.4484 87.1595 51.8258 87.1362 51.3557 86.6945C50.8674 86.2708 50.777 85.6612 51.0637 85.4158Z" fill="#E2BE74"/>
<path d="M48.9747 81.4351C49.1607 81.3912 50.9637 81.2284 52.6634 80.8642C54.3812 80.5155 55.9854 79.973 55.9854 79.973C55.9854 79.973 55.5927 80.1332 55.0089 80.3992C54.4251 80.6653 53.6476 81.0476 52.8907 81.4713C51.3641 82.3056 49.8917 83.3621 49.7212 83.4525C49.5507 83.5404 49.3415 83.5094 49.1374 83.3776C48.9307 83.2485 48.7422 83.0134 48.6363 82.7086C48.3986 82.1041 48.6027 81.5178 48.9721 81.4377L48.9747 81.4351Z" fill="#E2BE74"/>
<path d="M48.974 76.9455C49.1652 76.9946 50.8184 77.6818 52.5104 78.1493C54.1946 78.6375 55.8607 78.901 55.8607 78.901C55.8607 78.901 54.1662 78.7409 52.4303 78.7951C50.6892 78.8261 48.8913 79.0741 48.6976 79.0741C48.3205 79.0767 48.0027 78.5574 48.0828 77.9168C48.1293 77.6017 48.2481 77.3253 48.4134 77.1522C48.5839 76.9791 48.7854 76.9016 48.9714 76.9455H48.974Z" fill="#E2BE74"/>
<path d="M51.0644 72.9648C51.2091 73.0966 52.3534 74.4734 53.6347 75.6772C54.8952 76.8938 56.2463 77.9039 56.2463 77.9039C56.2463 77.9039 55.8924 77.6714 55.3396 77.3407C54.7919 77.0127 54.0454 76.5968 53.2627 76.2093C51.705 75.424 49.9975 74.8041 49.8271 74.7162C49.4887 74.5432 49.4602 73.9361 49.8271 73.404C50.0156 73.1457 50.2507 72.9623 50.4754 72.8822C50.7079 72.8099 50.9198 72.8331 51.0644 72.9623V72.9648Z" fill="#E2BE74"/>
<path d="M54.7605 70.4126C54.8277 70.5986 55.2023 72.3474 55.7783 74.0084C56.3311 75.672 57.0621 77.1935 57.0621 77.1935C57.0621 77.1935 56.8555 76.8241 56.5197 76.2739C56.1865 75.7288 55.7163 75.0133 55.2023 74.3081C54.1871 72.8899 52.9601 71.5518 52.849 71.3942C52.6295 71.0843 52.8826 70.5315 53.456 70.2318C53.7428 70.0897 54.0373 70.0355 54.2749 70.0691C54.5152 70.1104 54.6934 70.2318 54.7605 70.4101V70.4126Z" fill="#E2BE74"/>
<path d="M59.2165 69.8702C59.1907 70.0562 58.7102 71.7973 58.4493 73.5332C58.1678 75.2613 58.1032 76.9429 58.1032 76.9429C58.1032 76.9429 58.0593 75.2587 57.7984 73.528C57.5607 71.7999 57.1009 70.0381 57.0777 69.8522C57.0286 69.4673 57.509 69.1159 58.1522 69.103C58.7955 69.1211 59.2708 69.4776 59.2165 69.8677V69.8702Z" fill="#E2BE74"/>
<path d="M63.4249 71.464C63.3164 71.6164 62.0739 72.939 61.038 74.3468C59.9841 75.7418 59.1445 77.2038 59.1445 77.2038C59.1445 77.2038 59.8911 75.6927 60.4671 74.0395C61.0639 72.3888 61.4642 70.6322 61.5314 70.454C61.6683 70.0872 62.2624 69.9942 62.8385 70.2887C63.4016 70.6064 63.6574 71.1463 63.4274 71.464H63.4249Z" fill="#E2BE74"/>
<path d="M66.403 74.8247C66.235 74.9074 64.525 75.5041 62.9518 76.2739C61.3709 77.023 59.9502 77.9297 59.9502 77.9297C59.9502 77.9297 61.3115 76.9378 62.585 75.7392C63.8766 74.5535 65.0493 73.1844 65.1914 73.0578C65.4833 72.7943 66.049 72.9881 66.4236 73.5151C66.7749 74.0575 66.7517 74.6542 66.4004 74.8299L66.403 74.8247Z" fill="#E2BE74"/>
<path d="M67.4828 79.1903C67.2917 79.1877 65.4938 78.9191 63.7501 78.8648C62.8796 78.8312 62.022 78.8416 61.3839 78.8648C60.7485 78.8907 60.3223 78.9268 60.3223 78.9268C60.3223 78.9268 61.991 78.684 63.6778 78.219C65.3749 77.7721 67.0463 77.1057 67.2322 77.0592C67.4182 77.0153 67.6223 77.0954 67.785 77.271C67.9426 77.4493 68.0666 77.7231 68.1079 78.0408C68.1699 78.6814 67.8599 79.1981 67.4802 79.1877L67.4828 79.1903Z" fill="#E2BE74"/>
<path d="M58.1288 92.6124C57.9296 92.6124 57.7614 92.4546 57.7614 92.2554C57.7614 92.0562 57.9296 91.8881 58.1288 91.8881C58.328 91.8881 58.4961 92.0562 58.4961 92.2554C58.4961 92.4546 58.328 92.6228 58.1288 92.6228V92.6124ZM55.1174 92.2864C54.9182 92.2451 54.8018 92.0459 54.8457 91.857C54.8871 91.6578 55.0863 91.5311 55.2855 91.5725C55.4744 91.6242 55.6012 91.8131 55.5572 92.0122C55.5158 92.1804 55.3683 92.2968 55.2001 92.2968C55.1691 92.2968 55.1484 92.2864 55.1174 92.2864ZM60.7004 92.0019C60.659 91.8027 60.7832 91.6139 60.972 91.5725C61.1712 91.5208 61.3601 91.6475 61.4118 91.8441C61.4532 92.0329 61.3291 92.2321 61.1402 92.2735C61.1092 92.2839 61.0885 92.2839 61.0574 92.2839C60.8892 92.2839 60.7417 92.1675 60.7004 91.9993V92.0019ZM52.2638 91.2879C52.0749 91.2051 52.0025 90.9827 52.0956 90.8042C52.1784 90.6153 52.3906 90.5429 52.5794 90.636V90.6257C52.7579 90.7188 52.8303 90.9309 52.7476 91.1198C52.6855 91.2465 52.5484 91.319 52.4113 91.319C52.3699 91.319 52.3181 91.3086 52.2638 91.2879ZM63.5126 91.1094C63.4194 90.9206 63.5022 90.7111 63.6807 90.6153C63.8592 90.5326 64.0792 90.605 64.1645 90.7835C64.2473 90.9723 64.1748 91.1819 63.9963 91.2776C63.9446 91.2983 63.8929 91.3086 63.8386 91.3086C63.7014 91.3086 63.5773 91.2362 63.5126 91.1094ZM49.6922 89.6711C49.5344 89.5547 49.5137 89.3245 49.6404 89.1667C49.7672 89.0089 49.9872 88.9778 50.145 89.1046C50.3028 89.2314 50.3338 89.4616 50.2071 89.6194C50.132 89.7022 50.0285 89.7565 49.9224 89.7565C49.8397 89.7565 49.7647 89.7358 49.6922 89.6737V89.6711ZM66.0402 89.6065C65.9134 89.4487 65.9471 89.2184 66.1049 89.0943C66.2627 88.9675 66.4826 88.9882 66.6068 89.146C66.7335 89.3038 66.7103 89.534 66.555 89.6608C66.4904 89.7125 66.4075 89.7332 66.3247 89.7332C66.2187 89.7332 66.1152 89.6918 66.0402 89.6065ZM47.5501 87.5396C47.4233 87.3818 47.4466 87.1515 47.6018 87.0248C47.7596 86.898 47.9899 86.9316 48.1166 87.0894V87.0791C48.2434 87.2369 48.2098 87.4671 48.0649 87.5913C47.9899 87.643 47.9071 87.6741 47.8346 87.6741C47.7286 87.6741 47.6251 87.6223 47.5501 87.537V87.5396ZM68.1797 87.5706C68.0219 87.4438 68.0013 87.2136 68.128 87.0662C68.2548 86.9084 68.4747 86.8773 68.6299 87.0041C68.7877 87.1308 68.8188 87.3611 68.6946 87.5189C68.6196 87.6016 68.516 87.656 68.41 87.656C68.3272 87.656 68.2522 87.6249 68.1797 87.5732V87.5706ZM45.9331 84.9786C45.84 84.8001 45.9228 84.5802 46.1013 84.4948C46.2798 84.4017 46.4997 84.4741 46.5851 84.663C46.6679 84.8415 46.5954 85.051 46.4169 85.1467C46.3652 85.1674 46.3134 85.1777 46.2591 85.1777C46.122 85.1777 45.9978 85.1027 45.9331 84.9786ZM69.8174 85.126C69.6388 85.0329 69.5664 84.8208 69.6492 84.6319C69.7423 84.4534 69.9545 84.381 70.1433 84.4638C70.3218 84.5569 70.3943 84.769 70.3115 84.9579C70.2469 85.0846 70.1123 85.157 69.9752 85.157C69.9235 85.157 69.8717 85.1467 69.8174 85.126ZM44.9267 82.1252C44.8853 81.9261 45.0018 81.7372 45.1984 81.6855C45.3976 81.6441 45.5864 81.7683 45.6278 81.9571C45.6821 82.1563 45.5554 82.3451 45.3562 82.3969C45.3355 82.3969 45.3045 82.4072 45.2812 82.4072C45.113 82.4072 44.9655 82.2908 44.9241 82.1227L44.9267 82.1252ZM70.8677 82.3658C70.6789 82.3244 70.5521 82.1253 70.5935 81.9364C70.6452 81.7372 70.8341 81.6105 71.0333 81.6648C71.2222 81.7062 71.3489 81.895 71.3075 82.0942C71.2661 82.2624 71.1187 82.3762 70.9505 82.3762C70.9298 82.3762 70.8988 82.3762 70.8677 82.3658ZM44.5801 79.1115C44.5801 78.9124 44.7482 78.7442 44.9474 78.7442C45.1466 78.7442 45.3148 78.9124 45.3148 79.1115C45.3148 79.3107 45.1466 79.4685 44.9474 79.4789C44.7482 79.4789 44.5801 79.3107 44.5801 79.1115ZM70.9195 79.0805V79.0702V79.0288C70.9091 78.8296 71.0773 78.6718 71.2765 78.6718C71.4757 78.6614 71.6439 78.8296 71.6439 79.0288V79.0598V79.0805C71.6439 79.2797 71.4757 79.4478 71.2765 79.4478C71.0773 79.4478 70.9195 79.2797 70.9195 79.0805ZM45.188 76.5324C44.9888 76.4911 44.8724 76.3022 44.9164 76.103C44.9577 75.9038 45.1466 75.7874 45.3459 75.8314C45.5451 75.8728 45.6615 76.072 45.6175 76.2712V76.2608C45.5865 76.429 45.4286 76.5454 45.2708 76.5454C45.2398 76.5454 45.2191 76.5454 45.188 76.535V76.5324ZM70.5832 76.1858C70.5418 75.9866 70.6659 75.7978 70.8548 75.746C71.054 75.7047 71.2429 75.8288 71.2946 76.0202C71.336 76.2194 71.2118 76.4083 71.023 76.46C70.9919 76.46 70.9712 76.4704 70.9402 76.4704C70.772 76.4704 70.6246 76.3539 70.5832 76.1858ZM46.0806 73.7309C45.8917 73.6481 45.8193 73.4256 45.9021 73.2471C45.9952 73.0583 46.2074 72.9858 46.3962 73.0686C46.5748 73.1618 46.6472 73.3739 46.5644 73.5524C46.4997 73.6895 46.3652 73.7619 46.228 73.7619C46.1866 73.7619 46.1245 73.7516 46.0806 73.7309ZM69.6285 73.4903C69.5457 73.3014 69.6182 73.0919 69.7967 72.9962C69.9752 72.9134 70.1951 72.9858 70.2805 73.1643C70.3632 73.3428 70.2908 73.5627 70.1123 73.6481C70.0606 73.6791 70.0088 73.6895 69.9545 73.6895C69.8174 73.6895 69.6932 73.617 69.6285 73.4903ZM47.5707 71.1931C47.4129 71.0664 47.3922 70.8362 47.5061 70.6784C47.6328 70.5206 47.8631 70.4999 48.0209 70.6163C48.1787 70.743 48.2097 70.9733 48.083 71.1311C48.0105 71.2242 47.9045 71.2682 47.801 71.2682C47.7182 71.2682 47.6328 71.2475 47.5707 71.1931ZM68.0969 71.0664C67.9702 70.9086 67.9934 70.6784 68.1487 70.5542C68.3065 70.4274 68.5367 70.4585 68.6635 70.6163C68.7799 70.7741 68.7566 70.994 68.6014 71.1181C68.5367 71.1725 68.454 71.2009 68.3816 71.2009C68.2651 71.2009 68.1616 71.1492 68.0969 71.0638V71.0664ZM49.5965 69.0409C49.4697 68.8831 49.493 68.6528 49.6482 68.5261C49.806 68.3993 50.0363 68.433 50.163 68.5908C50.2898 68.7486 50.2562 68.9684 50.1009 69.0926C50.0363 69.1443 49.9535 69.1754 49.8811 69.1754C49.775 69.1754 49.6715 69.134 49.5965 69.0383V69.0409ZM66.0609 69.0512C65.9031 68.9245 65.8721 68.6942 65.9962 68.5364C66.123 68.3786 66.3533 68.3579 66.5111 68.4743V68.4847C66.6689 68.6011 66.6896 68.8313 66.5732 68.9891C66.5007 69.0823 66.3946 69.1262 66.2808 69.1262C66.2058 69.1262 66.123 69.1056 66.0609 69.0512ZM52.0413 67.393C51.9481 67.2145 52.0206 66.9947 52.2095 66.9093C52.388 66.8265 52.6079 66.899 52.6932 67.0774C52.776 67.2559 52.7036 67.4758 52.5251 67.5612C52.4734 67.5922 52.4216 67.6026 52.3673 67.6026C52.2301 67.6026 52.106 67.5276 52.0413 67.393ZM63.6264 67.5302C63.4479 67.4474 63.3755 67.2249 63.4583 67.0464C63.541 66.8679 63.7635 66.7851 63.942 66.8783C64.1205 66.961 64.2034 67.1706 64.1102 67.362C64.0481 67.4862 63.9214 67.5612 63.7842 67.5612C63.7299 67.5612 63.6781 67.5508 63.6264 67.5302ZM54.7914 66.335C54.75 66.1462 54.8665 65.947 55.0631 65.9056C55.2623 65.8642 55.4511 65.9806 55.5029 66.1772C55.5443 66.3764 55.4201 66.5652 55.2209 66.6066H55.2312C55.2002 66.617 55.1665 66.617 55.1484 66.617C54.9802 66.617 54.8328 66.5109 54.7914 66.3324V66.335ZM60.9203 66.5963C60.7211 66.5445 60.6046 66.3557 60.6486 66.1565C60.69 65.9677 60.8893 65.8409 61.0781 65.8849C61.2773 65.9263 61.4041 66.1255 61.3497 66.3247C61.3187 66.4825 61.1609 66.6066 61.0031 66.6066C60.972 66.6066 60.9513 66.5963 60.9203 66.5963ZM57.7097 65.9263C57.7097 65.7271 57.8675 65.559 58.077 65.559C58.2659 65.559 58.434 65.7271 58.434 65.9263C58.434 66.1255 58.2763 66.2833 58.077 66.2833C57.8675 66.2833 57.7097 66.1255 57.7097 65.9263Z" fill="#E2BE74"/>
<path d="M27.9042 60.1495C27.8405 60.1495 27.7891 60.098 27.7891 60.0343C27.7891 59.9706 27.8405 59.9192 27.9042 59.9192C27.9679 59.9192 28.0193 59.9706 28.0193 60.0343C28.0193 60.098 27.9679 60.1495 27.9042 60.1495Z" fill="#E2BE74"/>
<path d="M30.8197 59.9388C31.1106 59.9388 31.3464 59.703 31.3464 59.4121C31.3464 59.1212 31.1106 58.8854 30.8197 58.8854C30.5288 58.8854 30.293 59.1212 30.293 59.4121C30.293 59.703 30.5288 59.9388 30.8197 59.9388Z" fill="#E2BE74"/>
<path d="M33.6566 59.3042C33.2131 59.3042 32.8555 58.9441 32.8555 58.5031C32.8555 58.0622 33.2156 57.702 33.6566 57.702C34.0975 57.702 34.4577 58.0622 34.4577 58.5031C34.4577 58.9441 34.0975 59.3042 33.6566 59.3042Z" fill="#E2BE74"/>
<path d="M36.3926 58.2949C36.9297 58.2949 37.3651 57.8595 37.3651 57.3223C37.3651 56.7852 36.9297 56.3497 36.3926 56.3497C35.8554 56.3497 35.4199 56.7852 35.4199 57.3223C35.4199 57.8595 35.8554 58.2949 36.3926 58.2949Z" fill="#E2BE74"/>
<path d="M39.0047 56.95C39.5946 56.95 40.0728 56.4717 40.0728 55.8818C40.0728 55.2919 39.5946 54.8137 39.0047 54.8137C38.4148 54.8137 37.9365 55.2919 37.9365 55.8818C37.9365 56.4717 38.4148 56.95 39.0047 56.95Z" fill="#E2BE74"/>
<path d="M41.4661 55.289C40.8635 55.289 40.376 54.8015 40.376 54.1988C40.376 53.5962 40.8635 53.1086 41.4661 53.1086C42.0688 53.1086 42.5563 53.5962 42.5563 54.1988C42.5563 54.8015 42.0688 55.289 41.4661 55.289Z" fill="#E2BE74"/>
<path d="M43.7549 53.2924C43.2012 53.2924 42.7529 52.8441 42.7529 52.2904C42.7529 51.7368 43.2012 51.2885 43.7549 51.2885C44.3085 51.2885 44.7569 51.7368 44.7569 52.2904C44.7569 52.8441 44.3085 53.2924 43.7549 53.2924Z" fill="#E2BE74"/>
<path d="M45.8493 50.9431C45.4206 50.9431 45.0752 50.5952 45.0752 50.1689C45.0752 49.7427 45.423 49.3948 45.8493 49.3948C46.2756 49.3948 46.6235 49.7427 46.6235 50.1689C46.6235 50.5952 46.2756 50.9431 45.8493 50.9431Z" fill="#E2BE74"/>
<path d="M47.721 48.1969C47.5299 48.1969 47.373 48.0425 47.373 47.849C47.373 47.6554 47.5274 47.5011 47.721 47.5011C47.9145 47.5011 48.0688 47.6554 48.0688 47.849C48.0688 48.0425 47.9145 48.1969 47.721 48.1969Z" fill="#E2BE74"/>
<path d="M24.778 54.8015C24.6653 55.9088 24.7094 56.6683 25.5962 58.0108C25.7481 56.8986 25.4468 55.6859 24.778 54.8015Z" fill="#E2BE74"/>
<path d="M26.2261 54.4292C26.1502 55.539 26.2163 56.296 27.1472 57.6091C27.2624 56.4919 26.9219 55.2891 26.2261 54.4292Z" fill="#E2BE74"/>
<path d="M27.6595 54.0103C27.6203 55.1225 27.7134 55.877 28.6859 57.1583C28.7643 56.0362 28.3822 54.8456 27.6595 54.0103Z" fill="#E2BE74"/>
<path d="M29.0752 53.5424C29.0752 54.6546 29.1928 55.4091 30.2143 56.6512C30.2535 55.5267 29.8297 54.3508 29.0752 53.5424Z" fill="#E2BE74"/>
<path d="M30.4688 53.0278C30.5128 54.14 30.6574 54.8897 31.7231 56.0926C31.7231 54.9656 31.2502 53.8093 30.4688 53.0278Z" fill="#E2BE74"/>
<path d="M31.8389 52.4595C31.9295 53.5692 32.101 54.314 33.2132 55.4703C33.1667 54.3434 32.6473 53.2067 31.8389 52.4595Z" fill="#E2BE74"/>
<path d="M33.1787 51.8373C33.3184 52.9421 33.5168 53.6795 34.6805 54.7869C34.5874 53.6624 34.0165 52.5502 33.1787 51.8373Z" fill="#E2BE74"/>
<path d="M34.4844 51.1587C34.6755 52.2562 34.9057 52.9863 36.1184 54.0372C35.9738 52.9177 35.3516 51.8324 34.4844 51.1587Z" fill="#E2BE74"/>
<path d="M35.7559 50.4237C36.0033 51.509 36.2654 52.2292 37.5295 53.219C37.3311 52.1043 36.6549 51.0558 35.7559 50.4237Z" fill="#E2BE74"/>
<path d="M36.9805 49.6276C37.2867 50.6981 37.5831 51.4061 38.8987 52.3273C38.6439 51.2249 37.909 50.2131 36.9805 49.6276Z" fill="#E2BE74"/>
<path d="M38.1562 48.7701C38.5237 49.8236 38.8569 50.5144 40.2214 51.3572C39.9054 50.267 39.1141 49.3018 38.1562 48.7701Z" fill="#E2BE74"/>
<path d="M39.2764 47.849C39.7075 48.8779 40.0799 49.5492 41.4934 50.3086C41.1137 49.2381 40.2612 48.3243 39.2764 47.849Z" fill="#E2BE74"/>
<path d="M40.332 46.8666C40.8293 47.8637 41.241 48.5129 42.701 49.1792C42.2552 48.1331 41.3438 47.2781 40.332 46.8666Z" fill="#E2BE74"/>
<path d="M41.3164 45.8206C41.8799 46.7809 42.3331 47.4056 43.8348 47.9691C43.3204 46.9548 42.3527 46.1635 41.3164 45.8206Z" fill="#E2BE74"/>
<path d="M42.2256 44.7131C42.8576 45.6318 43.3525 46.2247 44.8886 46.6803C44.3031 45.7029 43.2815 44.9826 42.2256 44.7131Z" fill="#E2BE74"/>
<path d="M43.0488 43.5471C43.747 44.4168 44.2811 44.9729 45.8465 45.3159C45.1924 44.3825 44.1194 43.7407 43.0488 43.5471Z" fill="#E2BE74"/>
<path d="M22.147 44.4397C22.0686 44.4397 21.9901 44.4073 21.9333 44.3451L14.1012 35.6069C14.0227 35.5203 14.0065 35.3959 14.0579 35.2932C14.1093 35.1877 14.2148 35.112 14.3338 35.1336L25.9414 35.8557C26.0983 35.8665 26.2173 36.0017 26.2091 36.1586C26.1983 36.3181 26.0469 36.4426 25.9063 36.4263L14.9937 35.7475L22.3607 43.9664C22.4661 44.0827 22.4553 44.2639 22.339 44.3694C22.2849 44.4181 22.2173 44.4424 22.147 44.4424V44.4397Z" fill="#E2BE74"/>
<path d="M25.674 41.5243C25.6308 41.5243 25.5848 41.5135 25.5442 41.4918L14.1854 35.6664C14.0448 35.5933 13.9907 35.423 14.061 35.2823C14.134 35.1417 14.3044 35.0876 14.445 35.1579L25.8038 40.9834C25.9445 41.0564 25.9986 41.2268 25.9282 41.3674C25.8769 41.4648 25.7768 41.5216 25.674 41.5216V41.5243Z" fill="#E2BE74"/>
<path d="M20.0429 26.6472C20.0429 27.4104 19.4228 28.0304 18.6596 28.0304C17.8964 28.0304 17.2764 27.4104 17.2764 26.6472C17.2764 25.884 17.8964 25.2639 18.6596 25.2639C19.4228 25.2639 20.0429 25.884 20.0429 26.6472Z" fill="#E2BE74"/>
<path d="M36.4827 25.2063C36.4234 25.2259 36.3579 25.1871 36.3354 25.119C36.3129 25.0509 36.3424 24.9808 36.4017 24.9612C36.461 24.9416 36.5265 24.9804 36.549 25.0485C36.5715 25.1166 36.542 25.1867 36.4827 25.2063Z" fill="#E2BE74"/>
<path d="M38.1261 24.0515C37.9956 24.0946 37.85 24.0083 37.8005 23.8584C37.751 23.7086 37.8165 23.5525 37.947 23.5094C38.0775 23.4663 38.2232 23.5526 38.2727 23.7024C38.3222 23.8522 38.2566 24.0083 38.1261 24.0515Z" fill="#E2BE74"/>
<path d="M39.6479 22.7134C39.8327 22.6523 39.9257 22.4309 39.8556 22.2188C39.7855 22.0066 39.5789 21.8842 39.3941 21.9452C39.2093 22.0063 39.1164 22.2277 39.1865 22.4399C39.2566 22.652 39.4632 22.7744 39.6479 22.7134Z" fill="#E2BE74"/>
<path d="M41.0433 21.2081C40.8214 21.2814 40.5727 21.134 40.4885 20.8793C40.4043 20.6246 40.5163 20.358 40.7381 20.2847C40.96 20.2114 41.2087 20.3588 41.2929 20.6135C41.377 20.8682 41.2651 21.1348 41.0433 21.2081Z" fill="#E2BE74"/>
<path d="M42.3138 19.5571C42.5602 19.4757 42.6841 19.1804 42.5907 18.8976C42.4972 18.6148 42.2217 18.4515 41.9754 18.5329C41.729 18.6143 41.6051 18.9096 41.6985 19.1924C41.792 19.4752 42.0674 19.6385 42.3138 19.5571Z" fill="#E2BE74"/>
<path d="M43.4543 17.774C43.1945 17.8599 42.9032 17.6872 42.8046 17.389C42.7061 17.0907 42.8371 16.7785 43.097 16.6926C43.3568 16.6068 43.6481 16.7794 43.7466 17.0777C43.8452 17.376 43.7141 17.6882 43.4543 17.774Z" fill="#E2BE74"/>
<path d="M44.4533 15.8696C44.1887 15.957 43.8925 15.7815 43.7922 15.4777C43.6918 15.174 43.8251 14.8565 44.0896 14.7691C44.3542 14.6817 44.6504 14.8573 44.7507 15.161C44.8511 15.4647 44.7178 15.7822 44.4533 15.8696Z" fill="#E2BE74"/>
<path d="M45.293 13.8293C45.0438 13.9116 44.764 13.7457 44.6695 13.4597C44.575 13.1737 44.7009 12.8738 44.95 12.7914C45.1992 12.7091 45.479 12.875 45.5735 13.161C45.668 13.447 45.5421 13.7469 45.293 13.8293Z" fill="#E2BE74"/>
<path d="M45.9559 11.6494C45.7459 11.7188 45.5103 11.5791 45.4306 11.3381C45.3509 11.097 45.457 10.8444 45.667 10.775C45.8769 10.7057 46.1126 10.8453 46.1923 11.0864C46.2719 11.3275 46.1659 11.58 45.9559 11.6494Z" fill="#E2BE74"/>
<path d="M46.4191 9.33168C46.5594 9.28535 46.6299 9.11729 46.5767 8.95632C46.5235 8.79535 46.3667 8.70242 46.2265 8.74875C46.0863 8.79509 46.0158 8.96314 46.069 9.12411C46.1222 9.28508 46.2789 9.37801 46.4191 9.33168Z" fill="#E2BE74"/>
<path d="M4.69432 32.1029C4.85326 32.1607 4.90452 32.3601 4.79316 32.4874L4.21014 33.1537C4.19188 33.1746 4.17015 33.1921 4.14592 33.2056L3.31963 33.6646C3.1999 33.7311 3.04888 33.6844 2.98763 33.5619L2.7044 32.9955C2.6877 32.962 2.679 32.9252 2.679 32.8879L2.67899 31.9824C2.67899 31.8495 2.7867 31.7418 2.91956 31.7418L3.28041 31.7418L3.71521 31.7418C3.74582 31.7418 3.77614 31.7477 3.80456 31.759L4.36296 31.9824L4.69432 32.1029Z" fill="#E2BE74"/>
</svg>
