<svg width="91" height="114" viewBox="0 0 91 114" fill="none" xmlns="http://www.w3.org/2000/svg">
<path d="M83.4284 89.2484C83.856 91.7747 84.9724 94.5576 87.3461 97.1786L80.3312 113.173H73.2469L78.8196 96.751C78.8196 96.751 69.0542 89.4795 63.96 83.7867C63.9438 83.796 63.9184 83.8029 63.8907 83.8214L63.8745 83.8376C63.8329 83.8537 63.7797 83.8792 63.7127 83.9069C63.4908 84.0086 63.1672 84.1704 62.809 84.3414C61.0339 85.1435 57.3126 86.6551 52.4819 87.7553C48.8023 88.6012 44.4847 89.1976 39.8759 89.052C39.0392 89.0358 38.1863 88.9826 37.3334 88.9063C37.3334 88.9063 41.302 97.8258 29.1559 113.173H22.5247C24.3761 113.173 30.0111 101.113 22.3374 85.3215C15.9951 72.2878 16.5244 60.3128 21.5007 41.621C21.9283 40.0169 21.9699 38.3597 21.7989 36.7464C21.4152 33.0413 19.9129 29.542 19.4506 27.2884C22.1317 26.2044 25.1527 25.6404 27.9609 24.8823C27.9702 24.8823 27.9771 24.873 27.9864 24.873C28.0118 24.9239 28.0372 24.9747 28.0626 25.0187C28.8392 26.521 29.7014 27.894 30.6236 29.149C30.6328 29.1583 30.6328 29.1652 30.6328 29.1652C37.1023 37.9991 46.4655 40.9946 50.6559 42.0625C55.8957 43.3845 61.3158 43.685 66.6689 42.9246C71.3124 42.2682 79.2842 39.3305 77.3218 33.2979C80.6432 34.9782 82.5455 37.4721 83.9115 39.8967C84.5008 40.9461 85.081 42.0301 85.6357 43.1488C85.7374 43.3545 85.8414 43.551 85.9339 43.7544C86.0286 43.9508 86.1211 44.1473 86.2159 44.3437C86.3176 44.5564 86.4123 44.7714 86.5071 44.984C86.618 45.2059 86.7197 45.4278 86.8145 45.6589C86.9416 45.9409 87.0618 46.2229 87.182 46.5048C91.0905 55.7733 92.824 66.8862 86.6874 78.3158C84.4246 82.5247 82.6749 84.8361 83.4353 89.2484H83.4284Z" fill="#231F20"/>
<path d="M13.7693 24.8706C13.1152 23.1094 12.6829 21.2603 12.5766 19.3766C12.5027 17.4928 12.7199 15.6161 13.2099 13.8225C13.7415 12.0427 14.539 10.3693 15.5374 8.84846C16.5614 7.34378 17.8049 6.02399 19.1662 4.87294C21.9814 2.65406 25.1711 1.17251 28.7398 0.67326C32.26 0.234106 35.8749 0.841968 38.9698 2.50151C42.06 4.14487 44.6325 6.86533 45.8899 10.1798C46.5325 11.8832 46.7382 13.7624 46.4724 15.5536C46.2228 17.3519 45.4554 19.0276 44.4084 20.4329C43.3521 21.8382 41.9953 22.9869 40.4768 23.7727C38.9767 24.554 37.2987 25.0787 35.5698 25.1388C32.1559 25.2867 28.6867 23.7265 26.7821 20.8766C26.5047 20.4606 26.6157 19.8966 27.0317 19.6193C27.4293 19.3535 27.9632 19.4436 28.2521 19.8157L28.2613 19.8273C29.9116 21.9676 32.7731 23.0054 35.3964 22.698C37.9921 22.3998 40.5369 20.8073 41.8867 18.6601C43.3151 16.5105 43.4861 13.7947 42.4506 11.5943C41.3689 9.28068 39.3835 7.44777 37.0375 6.40305C34.6869 5.34445 32.0034 5.1087 29.5326 5.59639C28.2937 5.82521 27.1265 6.33372 25.9546 6.91387C24.8082 7.51251 23.782 8.27757 22.8482 9.11658C21.956 10.0018 21.1679 10.9656 20.553 12.0219C19.966 13.0921 19.5291 14.2177 19.2656 15.3734C19.0461 16.536 19.0044 17.7078 19.1246 18.8565C19.2795 20.0053 19.6354 21.1101 20.1046 22.171L20.1532 22.2796C20.9229 24.0201 20.1347 26.0564 18.3943 26.826C16.6538 27.5957 14.6175 26.8075 13.8479 25.0671C13.8201 25.0047 13.7924 24.933 13.7693 24.8729V24.8706Z" fill="#E2BE74"/>
<path d="M9.83087 21.7873L9.6737 21.8844C6.76142 23.6757 5.20589 26.7913 5.64273 29.9509C6.09344 33.203 5.10419 36.4851 2.89455 39.083L1.44534 40.7841C0.0862703 42.3813 0.689527 44.7481 2.72813 45.5617C4.54021 46.2851 6.9417 46.6342 9.64366 45.4623C15.5353 42.906 21.1888 38.4335 21.896 36.5151C22.6033 34.599 30.6283 29.1674 30.6283 29.1674C30.6283 29.1674 28.3978 24.792 26.135 22.8597C21.695 19.0668 14.8788 18.6762 9.83087 21.785V21.7873Z" fill="#231F20"/>
<path d="M7.85681 44.7042C9.7521 46.2504 10.4432 49.4355 9.3638 51.6566C10.8893 50.9586 11.8069 49.1257 12.0103 47.2536C12.216 45.3814 11.8184 43.4583 11.3284 41.6162L7.85449 44.7042H7.85681Z" fill="#231F20"/>
<path d="M19.1338 23.597C23.7634 21.3019 27.4846 19.4205 27.4846 12.0981C19.1338 14.3309 19.2678 20.6801 19.1338 23.597Z" fill="#231F20"/>
<path d="M11.0031 32.6206C11.0031 33.0875 10.5847 33.4666 10.0669 33.4666C9.54921 33.4666 9.13086 33.0875 9.13086 32.6206C9.13086 32.1537 9.54921 31.7747 10.0669 31.7747C10.5847 31.7747 11.0031 32.1537 11.0031 32.6206Z" fill="#E2BE74"/>
<path d="M10.9408 43.105C12.4154 44.6489 13.1273 46.7684 12.8523 48.7932C13.5988 47.5982 13.8739 46.1698 13.6196 44.8177C13.3654 43.4655 12.4455 41.5009 11.306 40.5972L10.9385 43.105H10.9408Z" fill="#231F20"/>
<path d="M63.9652 83.7844C63.8081 83.8583 63.3504 84.0871 62.8096 84.3368C59.6846 80.6594 57.3941 75.526 59.4974 69.0889C61.6331 62.5594 70.0279 59.0068 70.0279 59.0068C70.0279 59.0068 54.8308 70.5982 63.9652 83.7844Z" fill="white"/>
<path d="M37.3311 81.0755C37.3311 81.0755 46.477 102.89 37.3311 113.178H43.9461C43.9461 113.178 56.2055 99.8343 51.3401 76.825L37.3311 81.0778V81.0755Z" fill="#231F20"/>
<path d="M32.8817 75.0036C31.4579 75.0036 30.2005 75.7178 29.4424 76.8041C29.2159 76.7648 28.9848 76.7417 28.749 76.7348C29.5904 75.3272 31.1251 74.3818 32.8817 74.3818C34.6383 74.3818 36.1707 75.3295 37.0121 76.7348C36.7763 76.7417 36.5452 76.7648 36.3187 76.8041C35.5605 75.7178 34.3032 75.0036 32.8794 75.0036H32.8817Z" fill="#E2BE74"/>
<path d="M32.8819 76.2377C32.0175 76.2377 31.2409 76.6122 30.7 77.2062C30.5036 77.1114 30.3002 77.0259 30.0898 76.9588C30.7463 76.1406 31.754 75.616 32.8819 75.616C34.0099 75.616 35.0153 76.1406 35.674 76.9588C35.4637 77.0259 35.2626 77.1114 35.0638 77.2062C34.523 76.6145 33.7464 76.2377 32.8819 76.2377Z" fill="#E2BE74"/>
<path d="M32.8824 77.4722C32.4525 77.4722 32.0596 77.6317 31.7568 77.8929C31.5973 77.7565 31.4286 77.6271 31.2529 77.5115C31.6759 77.1024 32.2514 76.8481 32.8847 76.8481C33.518 76.8481 34.0936 77.1024 34.5165 77.5115C34.3386 77.6271 34.1721 77.7542 34.0127 77.8929C33.7099 77.6317 33.3169 77.4722 32.887 77.4722H32.8824Z" fill="#E2BE74"/>
<path d="M32.8814 78.7062C32.7682 78.7062 32.6665 78.7455 32.5833 78.8102C32.4654 78.6392 32.3336 78.4797 32.1973 78.3272C32.3868 78.1769 32.6225 78.0845 32.8814 78.0845C33.1403 78.0845 33.3761 78.1769 33.5656 78.3272C33.4269 78.4797 33.2975 78.6415 33.1796 78.8102C33.0964 78.7455 32.9947 78.7062 32.8814 78.7062Z" fill="#E2BE74"/>
<path d="M41.7801 75.0036C40.3563 75.0036 39.099 75.7178 38.3409 76.8041C38.1144 76.7648 37.8832 76.7417 37.6475 76.7348C38.4888 75.3272 40.0235 74.3818 41.7801 74.3818C43.5367 74.3818 45.0692 75.3295 45.9105 76.7348C45.6747 76.7417 45.4436 76.7648 45.2171 76.8041C44.459 75.7178 43.2016 75.0036 41.7778 75.0036H41.7801Z" fill="#E2BE74"/>
<path d="M41.7804 76.2377C40.9159 76.2377 40.1393 76.6122 39.5985 77.2062C39.402 77.1114 39.1986 77.0259 38.9883 76.9588C39.6447 76.1406 40.6524 75.616 41.7804 75.616C42.9083 75.616 43.9137 76.1406 44.5725 76.9588C44.3621 77.0259 44.1611 77.1114 43.9623 77.2062C43.4214 76.6145 42.6448 76.2377 41.7804 76.2377Z" fill="#E2BE74"/>
<path d="M41.7808 77.4722C41.3509 77.4722 40.958 77.6317 40.6552 77.8929C40.4957 77.7565 40.327 77.6271 40.1514 77.5115C40.5743 77.1024 41.1499 76.8481 41.7832 76.8481C42.4165 76.8481 42.992 77.1024 43.415 77.5115C43.237 77.6271 43.0706 77.7542 42.9111 77.8929C42.6083 77.6317 42.2154 77.4722 41.7855 77.4722H41.7808Z" fill="#E2BE74"/>
<path d="M41.7808 78.7062C41.6676 78.7062 41.5659 78.7455 41.4827 78.8102C41.3648 78.6392 41.233 78.4797 41.0967 78.3272C41.2862 78.1769 41.522 78.0845 41.7808 78.0845C42.0397 78.0845 42.2755 78.1769 42.465 78.3272C42.3263 78.4797 42.1969 78.6415 42.079 78.8102C41.9958 78.7455 41.8941 78.7062 41.7808 78.7062Z" fill="#E2BE74"/>
<path d="M28.4344 77.9943C27.0106 77.9943 25.7533 78.7085 24.9952 79.7948C24.7686 79.7555 24.5375 79.7324 24.3018 79.7255C25.1431 78.3179 26.6778 77.3726 28.4344 77.3726C30.191 77.3726 31.7235 78.3202 32.5648 79.7255C32.329 79.7324 32.0979 79.7555 31.8714 79.7948C31.1133 78.7085 29.8559 77.9943 28.4321 77.9943H28.4344Z" fill="#E2BE74"/>
<path d="M28.4347 79.2285C27.5702 79.2285 26.7936 79.6029 26.2528 80.1969C26.0563 80.1021 25.8529 80.0166 25.6426 79.9496C26.299 79.1314 27.3067 78.6067 28.4347 78.6067C29.5626 78.6067 30.568 79.1314 31.2268 79.9496C31.0164 80.0166 30.8154 80.1021 30.6166 80.1969C30.0757 79.6052 29.2991 79.2285 28.4347 79.2285Z" fill="#E2BE74"/>
<path d="M28.4351 80.4651C28.0052 80.4651 27.6123 80.6246 27.3095 80.8858C27.15 80.7494 26.9813 80.62 26.8057 80.5044C27.2286 80.0953 27.8041 79.8411 28.4375 79.8411C29.0708 79.8411 29.6463 80.0953 30.0693 80.5044C29.8913 80.62 29.7249 80.7471 29.5654 80.8858C29.2626 80.6246 28.8697 80.4651 28.4398 80.4651H28.4351Z" fill="#E2BE74"/>
<path d="M28.4351 81.6994C28.3219 81.6994 28.2202 81.7387 28.137 81.8034C28.0191 81.6324 27.8873 81.4729 27.751 81.3203C27.9405 81.1701 28.1763 81.0776 28.4351 81.0776C28.694 81.0776 28.9298 81.1701 29.1193 81.3203C28.9806 81.4729 28.8512 81.6347 28.7333 81.8034C28.6501 81.7387 28.5484 81.6994 28.4351 81.6994Z" fill="#E2BE74"/>
<path d="M37.3309 77.9943C35.9071 77.9943 34.6498 78.7085 33.8916 79.7948C33.6651 79.7555 33.434 79.7324 33.1982 79.7255C34.0396 78.3179 35.5743 77.3726 37.3309 77.3726C39.0875 77.3726 40.6199 78.3202 41.4613 79.7255C41.2255 79.7324 40.9944 79.7555 40.7679 79.7948C40.0098 78.7085 38.7524 77.9943 37.3286 77.9943H37.3309Z" fill="#E2BE74"/>
<path d="M37.3311 79.2285C36.4667 79.2285 35.6901 79.6029 35.1493 80.1969C34.9528 80.1021 34.7494 80.0166 34.5391 79.9496C35.1955 79.1314 36.2032 78.6067 37.3311 78.6067C38.4591 78.6067 39.4645 79.1314 40.1233 79.9496C39.9129 80.0166 39.7118 80.1021 39.5131 80.1969C38.9722 79.6052 38.1956 79.2285 37.3311 79.2285Z" fill="#E2BE74"/>
<path d="M37.3316 80.4651C36.9017 80.4651 36.5088 80.6246 36.206 80.8858C36.0465 80.7494 35.8778 80.62 35.7021 80.5044C36.1251 80.0953 36.7006 79.8411 37.3339 79.8411C37.9672 79.8411 38.5428 80.0953 38.9658 80.5044C38.7878 80.62 38.6214 80.7471 38.4619 80.8858C38.1591 80.6246 37.7662 80.4651 37.3363 80.4651H37.3316Z" fill="#E2BE74"/>
<path d="M37.3316 81.6994C37.2184 81.6994 37.1167 81.7387 37.0335 81.8034C36.9156 81.6324 36.7838 81.4729 36.6475 81.3203C36.837 81.1701 37.0727 81.0776 37.3316 81.0776C37.5905 81.0776 37.8263 81.1701 38.0158 81.3203C37.8771 81.4729 37.7477 81.6347 37.6298 81.8034C37.5466 81.7387 37.4449 81.6994 37.3316 81.6994Z" fill="#E2BE74"/>
<path d="M77.3241 43.7336C75.9003 43.7336 74.6429 44.4478 73.8848 45.5341C73.6583 45.4948 73.4272 45.4717 73.1914 45.4647C74.0327 44.0594 75.5675 43.1118 77.3241 43.1118C79.0807 43.1118 80.6131 44.0594 81.4544 45.4647C81.2187 45.4717 80.9875 45.4948 80.761 45.5341C80.0029 44.4478 78.7455 43.7336 77.3218 43.7336H77.3241Z" fill="#E2BE74"/>
<path d="M77.3243 44.9702C76.4599 44.9702 75.6833 45.3446 75.1424 45.9386C74.946 45.8438 74.7426 45.7583 74.5322 45.6913C75.1886 44.8731 76.1964 44.3484 77.3243 44.3484C78.4522 44.3484 79.4577 44.8731 80.1164 45.6913C79.9061 45.7583 79.705 45.8438 79.5062 45.9386C78.9654 45.3469 78.1888 44.9702 77.3243 44.9702Z" fill="#E2BE74"/>
<path d="M77.3248 46.2044C76.8949 46.2044 76.502 46.3639 76.1992 46.6251C76.0397 46.4887 75.871 46.3592 75.6953 46.2437C76.1183 45.8346 76.6938 45.5803 77.3271 45.5803C77.9604 45.5803 78.5359 45.8346 78.9589 46.2437C78.7809 46.3592 78.6145 46.4864 78.455 46.6251C78.1523 46.3639 77.7593 46.2044 77.3294 46.2044H77.3248Z" fill="#E2BE74"/>
<path d="M77.3218 47.4386C77.2086 47.4386 77.1069 47.4779 77.0237 47.5427C76.9058 47.3716 76.7741 47.2121 76.6377 47.0596C76.8272 46.9093 77.063 46.8169 77.3218 46.8169C77.5807 46.8169 77.8165 46.9093 78.006 47.0596C77.8673 47.2121 77.7379 47.3739 77.62 47.5427C77.5368 47.4779 77.4351 47.4386 77.3218 47.4386Z" fill="#E2BE74"/>
<path d="M85.9293 43.7544C84.6234 43.8399 83.4886 44.5217 82.779 45.5295C82.5571 45.4948 82.326 45.4694 82.0879 45.4601C82.8391 44.2236 84.1196 43.3337 85.6312 43.1465C85.7329 43.3522 85.8369 43.5487 85.9293 43.7521V43.7544Z" fill="#E2BE74"/>
<path d="M86.5005 44.9841C86.4057 44.9749 86.3132 44.968 86.2185 44.968C85.3564 44.968 84.5798 45.3424 84.0343 45.941C83.8378 45.8393 83.6414 45.7607 83.4287 45.6937C84.0851 44.8732 85.0836 44.3462 86.2116 44.3462C86.3133 44.5588 86.408 44.7738 86.5028 44.9864L86.5005 44.9841Z" fill="#E2BE74"/>
<path d="M87.1752 46.5027C86.9025 46.3155 86.5766 46.2045 86.2183 46.2045C85.7907 46.2045 85.3978 46.3663 85.0927 46.6229C84.9309 46.4865 84.7692 46.3594 84.5889 46.2484C85.0165 45.8393 85.5873 45.5828 86.2183 45.5828C86.4241 45.5828 86.6205 45.6082 86.8077 45.6591C86.9349 45.941 87.0551 46.223 87.1752 46.505V46.5027Z" fill="#E2BE74"/>
<path d="M86.2203 47.4386C86.107 47.4386 86.0053 47.4779 85.9221 47.5427C85.8043 47.3716 85.6725 47.2121 85.5361 47.0596C85.7257 46.9093 85.9614 46.8169 86.2203 46.8169C86.4791 46.8169 86.7149 46.9093 86.9045 47.0596C86.7658 47.2121 86.6363 47.3739 86.5185 47.5427C86.4352 47.4779 86.3335 47.4386 86.2203 47.4386Z" fill="#E2BE74"/>
<path d="M72.8749 46.7267C71.4511 46.7267 70.1937 47.4409 69.4356 48.5273C69.2091 48.488 68.9779 48.4649 68.7422 48.4579C69.5835 47.0526 71.1182 46.105 72.8749 46.105C74.6315 46.105 76.1639 47.0526 77.0052 48.4579C76.7695 48.4649 76.5383 48.488 76.3118 48.5273C75.5537 47.4409 74.2963 46.7267 72.8725 46.7267H72.8749Z" fill="#E2BE74"/>
<path d="M72.8751 47.9611C72.0107 47.9611 71.2341 48.3355 70.6932 48.9296C70.4967 48.8348 70.2933 48.7493 70.083 48.6822C70.7394 47.864 71.7472 47.3394 72.8751 47.3394C74.003 47.3394 75.0085 47.864 75.6672 48.6822C75.4569 48.7493 75.2558 48.8348 75.057 48.9296C74.5162 48.3379 73.7395 47.9611 72.8751 47.9611Z" fill="#E2BE74"/>
<path d="M72.8746 49.1953C72.4447 49.1953 72.0518 49.3548 71.749 49.616C71.5895 49.4796 71.4208 49.3502 71.2451 49.2346C71.6681 48.8255 72.2436 48.5713 72.8769 48.5713C73.5102 48.5713 74.0857 48.8255 74.5087 49.2346C74.3308 49.3502 74.1643 49.4773 74.0048 49.616C73.7021 49.3548 73.3091 49.1953 72.8792 49.1953H72.8746Z" fill="#E2BE74"/>
<path d="M72.8746 50.4318C72.7613 50.4318 72.6596 50.4711 72.5764 50.5358C72.4586 50.3648 72.3268 50.2053 72.1904 50.0528C72.38 49.9025 72.6157 49.8101 72.8746 49.8101C73.1334 49.8101 73.3692 49.9025 73.5588 50.0528C73.4201 50.2053 73.2906 50.3671 73.1727 50.5358C73.0895 50.4711 72.9878 50.4318 72.8746 50.4318Z" fill="#E2BE74"/>
<path d="M81.7713 46.7267C80.3476 46.7267 79.0902 47.4409 78.3321 48.5273C78.1056 48.488 77.8744 48.4649 77.6387 48.4579C78.48 47.0526 80.0147 46.105 81.7713 46.105C83.528 46.105 85.0604 47.0526 85.9017 48.4579C85.6659 48.4649 85.4348 48.488 85.2083 48.5273C84.4502 47.4409 83.1928 46.7267 81.769 46.7267H81.7713Z" fill="#E2BE74"/>
<path d="M81.7716 47.9611C80.9071 47.9611 80.1305 48.3355 79.5897 48.9296C79.3932 48.8348 79.1898 48.7493 78.9795 48.6822C79.6359 47.864 80.6436 47.3394 81.7716 47.3394C82.8995 47.3394 83.905 47.864 84.5637 48.6822C84.3534 48.7493 84.1523 48.8348 83.9535 48.9296C83.4126 48.3379 82.636 47.9611 81.7716 47.9611Z" fill="#E2BE74"/>
<path d="M81.7711 49.1953C81.3412 49.1953 80.9482 49.3548 80.6455 49.616C80.486 49.4796 80.3173 49.3502 80.1416 49.2346C80.5646 48.8255 81.1401 48.5713 81.7734 48.5713C82.4067 48.5713 82.9822 48.8255 83.4052 49.2346C83.2272 49.3502 83.0608 49.4773 82.9013 49.616C82.5985 49.3548 82.2056 49.1953 81.7757 49.1953H81.7711Z" fill="#E2BE74"/>
<path d="M81.7711 50.4318C81.6578 50.4318 81.5561 50.4711 81.4729 50.5358C81.355 50.3648 81.2233 50.2053 81.0869 50.0528C81.2764 49.9025 81.5122 49.8101 81.7711 49.8101C82.0299 49.8101 82.2657 49.9025 82.4552 50.0528C82.3166 50.2053 82.1871 50.3671 82.0692 50.5358C81.986 50.4711 81.8843 50.4318 81.7711 50.4318Z" fill="#E2BE74"/>
<path d="M19.1662 34.3332C19.12 34.3078 18.7271 34.0189 18.3203 33.7901C17.9181 33.5566 17.4951 33.3787 17.4951 33.3787C17.4951 33.3787 17.9227 33.5289 18.385 33.6283C18.8426 33.7323 19.3234 33.7831 19.3742 33.7947C19.4736 33.8178 19.5245 33.975 19.4598 34.1368C19.3973 34.2986 19.254 34.3818 19.1662 34.3332Z" fill="#E2BE74"/>
<path d="M18.3665 35.237C18.3388 35.1954 18.1238 34.7563 17.8696 34.3634C17.62 33.9681 17.3311 33.6145 17.3311 33.6145C17.3311 33.6145 17.6408 33.9473 18.0013 34.2478C18.3573 34.5529 18.7595 34.821 18.7988 34.8557C18.8773 34.9227 18.8473 35.0845 18.7156 35.1978C18.5861 35.3133 18.422 35.3203 18.3665 35.2348V35.237Z" fill="#E2BE74"/>
<path d="M17.2341 35.6645C17.2294 35.6137 17.2433 35.126 17.2017 34.6591C17.1832 34.4256 17.1532 34.1991 17.1231 34.0281C17.0954 33.857 17.0723 33.7461 17.0723 33.7461C17.0723 33.7461 17.1902 34.1853 17.3704 34.6198C17.5438 35.0566 17.7772 35.4796 17.7957 35.5281C17.8327 35.6252 17.731 35.7546 17.5623 35.7939C17.3935 35.8355 17.2433 35.7639 17.2341 35.6645Z" fill="#E2BE74"/>
<path d="M16.0375 35.519C16.056 35.4705 16.2963 35.0475 16.4743 34.6153C16.6592 34.1831 16.784 33.7439 16.784 33.7439C16.784 33.7439 16.7586 33.8548 16.7286 34.0236C16.6985 34.1923 16.6638 34.4234 16.643 34.6546C16.5945 35.1192 16.6037 35.6068 16.5968 35.6577C16.5899 35.7085 16.5506 35.7501 16.4905 35.7756C16.4304 35.801 16.3495 35.8079 16.2663 35.7848C16.0953 35.7455 15.9982 35.6115 16.0352 35.5167L16.0375 35.519Z" fill="#E2BE74"/>
<path d="M15.046 34.8324C15.0853 34.7977 15.4921 34.5343 15.8526 34.2338C16.2178 33.9356 16.5322 33.6074 16.5322 33.6074C16.5322 33.6074 16.4582 33.6952 16.3542 33.8316C16.2479 33.968 16.1115 34.1552 15.9844 34.3517C15.7255 34.74 15.5059 35.1745 15.4759 35.2184C15.4204 35.3016 15.2517 35.2947 15.1269 35.1768C14.9951 35.0636 14.972 34.8994 15.0483 34.8324H15.046Z" fill="#E2BE74"/>
<path d="M14.4839 33.7646C14.5347 33.7531 15.0178 33.7092 15.4754 33.6121C15.9377 33.5196 16.3676 33.374 16.3676 33.374C16.3676 33.374 16.2613 33.4156 16.1064 33.4896C15.9492 33.5612 15.7412 33.6653 15.5378 33.7785C15.1287 34.0027 14.7312 34.287 14.6872 34.3101C14.641 34.3332 14.5855 34.3263 14.5301 34.2893C14.4746 34.2546 14.4238 34.1922 14.396 34.109C14.3313 33.9472 14.3868 33.7901 14.4862 33.7669L14.4839 33.7646Z" fill="#E2BE74"/>
<path d="M14.4841 32.5581C14.5349 32.5719 14.9787 32.7568 15.434 32.8817C15.887 33.0134 16.3354 33.0827 16.3354 33.0827C16.3354 33.0827 15.8801 33.0388 15.4132 33.055C14.9463 33.0643 14.461 33.129 14.4101 33.129C14.3084 33.129 14.2229 32.9903 14.246 32.8193C14.2576 32.7337 14.2899 32.6598 14.3338 32.6135C14.3801 32.5673 14.4332 32.5465 14.4841 32.5581Z" fill="#E2BE74"/>
<path d="M15.0458 31.4879C15.0851 31.5226 15.3925 31.8924 15.7369 32.216C16.0767 32.5419 16.4395 32.8146 16.4395 32.8146C16.4395 32.8146 16.3448 32.7522 16.1969 32.6644C16.0489 32.5766 15.8479 32.4633 15.6398 32.3593C15.2215 32.149 14.7615 31.9826 14.7176 31.9571C14.6275 31.9109 14.6182 31.7468 14.7176 31.6058C14.7684 31.5365 14.8309 31.4879 14.891 31.4648C14.9534 31.444 15.0112 31.451 15.0481 31.4856L15.0458 31.4879Z" fill="#E2BE74"/>
<path d="M16.0376 30.8016C16.0561 30.8524 16.1554 31.3216 16.3103 31.7677C16.4582 32.2138 16.6547 32.6229 16.6547 32.6229C16.6547 32.6229 16.5992 32.5235 16.5091 32.3756C16.4189 32.2299 16.2941 32.0381 16.1554 31.8486C15.8827 31.4672 15.5522 31.109 15.5245 31.065C15.4667 30.9818 15.5337 30.8339 15.6886 30.753C15.7648 30.716 15.8457 30.6998 15.9081 30.7091C15.9728 30.7206 16.0214 30.753 16.0376 30.8016Z" fill="#E2BE74"/>
<path d="M17.2344 30.6559C17.2274 30.7068 17.098 31.1736 17.0287 31.6405C16.9524 32.1051 16.9362 32.5558 16.9362 32.5558C16.9362 32.5558 16.9247 32.1028 16.8553 31.6382C16.7906 31.1736 16.6681 30.6998 16.6612 30.6513C16.6473 30.5473 16.7767 30.4525 16.9501 30.4502C17.1234 30.4548 17.2506 30.5519 17.2367 30.6559H17.2344Z" fill="#E2BE74"/>
<path d="M18.3669 31.086C18.3368 31.1276 18.004 31.4812 17.7243 31.8603C17.4423 32.2347 17.2158 32.6276 17.2158 32.6276C17.2158 32.6276 17.4169 32.2208 17.5718 31.777C17.7313 31.3333 17.8399 30.8618 17.8584 30.8132C17.8954 30.7138 18.0548 30.6884 18.2097 30.7693C18.3599 30.8548 18.4293 31.0004 18.3692 31.0836L18.3669 31.086Z" fill="#E2BE74"/>
<path d="M19.1671 31.9873C19.1232 32.0104 18.6632 32.1699 18.2403 32.3756C17.815 32.5767 17.4336 32.8194 17.4336 32.8194C17.4336 32.8194 17.7988 32.5536 18.1409 32.23C18.4876 31.911 18.8042 31.5435 18.8412 31.5088C18.9198 31.4372 19.0723 31.4904 19.1717 31.6313C19.2665 31.777 19.2596 31.9364 19.1648 31.985L19.1671 31.9873Z" fill="#E2BE74"/>
<path d="M19.4556 33.1613C19.4048 33.1613 18.9217 33.0873 18.4525 33.0735C18.219 33.0642 17.9879 33.0665 17.8169 33.0735C17.6458 33.0804 17.5303 33.0897 17.5303 33.0897C17.5303 33.0897 17.9787 33.0249 18.4317 32.9001C18.887 32.7799 19.3377 32.602 19.3863 32.5881C19.4348 32.5765 19.4903 32.5973 19.5342 32.6459C19.5758 32.6944 19.6105 32.7684 19.622 32.8516C19.6382 33.0226 19.555 33.1613 19.4533 33.159L19.4556 33.1613Z" fill="#E2BE74"/>
<path d="M16.9387 36.7577C16.8856 36.7577 16.8393 36.7161 16.8393 36.6629C16.8393 36.6098 16.8833 36.5636 16.9387 36.5636C16.9919 36.5636 17.0381 36.6098 17.0381 36.6629C17.0381 36.7161 16.9919 36.7623 16.9387 36.7623V36.7577ZM16.1298 36.6676C16.0766 36.656 16.0442 36.6028 16.0558 36.552C16.0674 36.4988 16.1205 36.4642 16.1737 36.4757C16.2245 36.4896 16.2592 36.5404 16.2476 36.5936C16.2361 36.6398 16.1968 36.6699 16.1529 36.6699C16.1529 36.6699 16.139 36.6676 16.1298 36.6676ZM17.6275 36.5913C17.616 36.5381 17.6506 36.4873 17.7015 36.4757C17.7546 36.4619 17.8055 36.4965 17.8194 36.5497C17.8309 36.6005 17.7962 36.6537 17.7454 36.6652C17.7454 36.6652 17.7315 36.6676 17.7223 36.6676C17.676 36.6676 17.6368 36.6375 17.6275 36.5913ZM15.3647 36.3994C15.3139 36.3763 15.2954 36.3186 15.3185 36.27C15.3416 36.2192 15.3971 36.2007 15.4479 36.2238C15.4965 36.2469 15.5149 36.3024 15.4941 36.3532C15.478 36.3879 15.441 36.4064 15.404 36.4064C15.404 36.4064 15.3786 36.4041 15.3647 36.3971V36.3994ZM18.3833 36.3509C18.3579 36.3001 18.381 36.2446 18.4295 36.2191C18.4781 36.196 18.5359 36.2169 18.559 36.2654C18.5821 36.3162 18.5613 36.3717 18.5128 36.3971C18.4989 36.4017 18.485 36.4064 18.4712 36.4064C18.4342 36.4064 18.4018 36.3879 18.3833 36.3532V36.3509ZM14.6759 35.9649C14.6343 35.9349 14.6274 35.8725 14.6621 35.8285C14.6967 35.7869 14.7545 35.7777 14.7984 35.8124C14.84 35.847 14.8493 35.9071 14.8146 35.9511C14.7938 35.9742 14.7661 35.988 14.7383 35.988C14.7152 35.988 14.6967 35.9811 14.6759 35.9649ZM19.0629 35.9487C19.0282 35.9071 19.0374 35.8447 19.079 35.8101C19.1206 35.7754 19.1807 35.7823 19.2131 35.8239C19.2478 35.8655 19.2408 35.9279 19.1992 35.9626C19.183 35.9765 19.1599 35.9811 19.1368 35.9811C19.1091 35.9811 19.0813 35.9695 19.0605 35.9464L19.0629 35.9487ZM14.1027 35.394C14.068 35.3524 14.075 35.29 14.1166 35.2553C14.1582 35.2207 14.2206 35.2299 14.2553 35.2715C14.2899 35.3108 14.2807 35.3732 14.2414 35.4056C14.2206 35.4195 14.1998 35.4287 14.179 35.4287C14.1513 35.4287 14.1235 35.4148 14.1027 35.3917V35.394ZM19.6384 35.4033C19.5968 35.3686 19.5898 35.3085 19.6245 35.2669C19.6592 35.2253 19.7169 35.216 19.7586 35.2507C19.8002 35.2854 19.8094 35.3455 19.7747 35.3894C19.7539 35.4125 19.7262 35.4264 19.6985 35.4264C19.6754 35.4264 19.6569 35.4171 19.6361 35.4033H19.6384ZM13.6705 34.7076C13.6451 34.659 13.6682 34.6012 13.7167 34.5781C13.7653 34.5527 13.823 34.5735 13.8462 34.622C13.8693 34.6706 13.8485 34.726 13.7999 34.7515C13.7861 34.7561 13.7722 34.7607 13.7583 34.7607C13.7213 34.7607 13.689 34.7399 13.6705 34.7076ZM20.0775 34.7468C20.029 34.7214 20.0105 34.6659 20.0313 34.6151C20.0567 34.5666 20.1122 34.5481 20.163 34.5689C20.2116 34.5943 20.2301 34.6498 20.2093 34.7006C20.1931 34.7353 20.1561 34.7538 20.1191 34.7538C20.1053 34.7538 20.0914 34.7514 20.0775 34.7445V34.7468ZM13.4001 33.9425C13.3885 33.8893 13.4209 33.8385 13.474 33.8246C13.5272 33.8131 13.578 33.8477 13.5896 33.8986C13.6035 33.9517 13.5711 34.0026 13.5156 34.0165C13.5156 34.0165 13.5018 34.0188 13.4948 34.0188C13.4509 34.0188 13.4093 33.9887 13.4001 33.9425ZM20.3595 34.0072C20.3087 33.9957 20.274 33.9425 20.2855 33.8916C20.2994 33.8385 20.3503 33.8038 20.4034 33.8177C20.4543 33.8293 20.4889 33.8801 20.4774 33.9333C20.4658 33.9772 20.4265 34.0095 20.3803 34.0095C20.3803 34.0095 20.3664 34.0095 20.3572 34.0072H20.3595ZM13.3076 33.1335C13.3076 33.0804 13.3515 33.0341 13.407 33.0341C13.4602 33.0341 13.5064 33.0804 13.5064 33.1335C13.5064 33.1867 13.4602 33.2306 13.407 33.2329C13.3538 33.2329 13.3076 33.1867 13.3076 33.1335ZM20.3734 33.1243V33.1104C20.3711 33.0573 20.415 33.0156 20.4681 33.0156C20.5213 33.0133 20.5675 33.0573 20.5675 33.1104V33.1197V33.1243C20.5675 33.1775 20.5213 33.2237 20.4681 33.2237C20.415 33.2237 20.3734 33.1798 20.3734 33.1243ZM13.4694 32.4401C13.4163 32.4286 13.3839 32.3777 13.3954 32.3246C13.407 32.2714 13.4579 32.239 13.511 32.2506C13.5642 32.2622 13.5965 32.3153 13.585 32.3685C13.5757 32.4101 13.5341 32.4424 13.4925 32.4424C13.4925 32.4424 13.4787 32.4424 13.4694 32.4401ZM20.2832 32.3477C20.2717 32.2945 20.3063 32.2437 20.3572 32.2298C20.4104 32.2183 20.4612 32.2529 20.4751 32.3038C20.4866 32.3569 20.452 32.4078 20.4011 32.4216C20.4011 32.4216 20.3872 32.424 20.378 32.424C20.3318 32.424 20.2925 32.3939 20.2832 32.3477ZM13.7098 31.6889C13.6589 31.6658 13.6405 31.6081 13.6613 31.5595C13.6867 31.5087 13.7421 31.4902 13.793 31.511C13.8415 31.5364 13.86 31.5919 13.8392 31.6404C13.823 31.6774 13.7861 31.6959 13.7491 31.6959C13.7491 31.6959 13.7213 31.6936 13.7098 31.6866V31.6889ZM20.0267 31.6242C20.0036 31.5734 20.0244 31.5179 20.0729 31.4925C20.1214 31.4694 20.1792 31.4902 20.2023 31.5387C20.2255 31.5872 20.2047 31.645 20.1584 31.6681C20.1446 31.6774 20.1307 31.6797 20.1168 31.6797C20.0798 31.6797 20.0475 31.6612 20.029 31.6265L20.0267 31.6242ZM14.1096 31.0071C14.068 30.9724 14.0611 30.9123 14.0935 30.8684C14.1281 30.8268 14.1882 30.8199 14.2322 30.8522C14.2738 30.8869 14.283 30.947 14.2483 30.9909C14.2298 31.0163 14.1998 31.0279 14.1721 31.0279C14.1489 31.0279 14.1258 31.0233 14.1096 31.0071ZM19.6153 30.9724C19.5806 30.9308 19.5875 30.8684 19.6291 30.8338C19.6707 30.7991 19.7331 30.8083 19.7678 30.8499C19.7979 30.8915 19.7932 30.9516 19.7516 30.984C19.7354 30.9979 19.7123 31.0071 19.6915 31.0071C19.6615 31.0071 19.6314 30.9932 19.6153 30.9701V30.9724ZM14.6528 30.4293C14.6181 30.3877 14.6251 30.3253 14.6667 30.2906C14.7083 30.2559 14.7707 30.2652 14.8054 30.3068C14.84 30.3484 14.8308 30.4084 14.7892 30.4408C14.773 30.4547 14.7499 30.4639 14.7291 30.4639C14.7014 30.4639 14.6736 30.4524 14.6528 30.427V30.4293ZM19.0698 30.4316C19.0282 30.3969 19.0189 30.3368 19.0536 30.2929C19.0883 30.2513 19.1484 30.2444 19.1923 30.2767C19.2339 30.3114 19.2408 30.3715 19.2085 30.4154C19.19 30.4408 19.1599 30.4524 19.1299 30.4524C19.1091 30.4524 19.0883 30.4478 19.0698 30.4316ZM15.3092 29.9878C15.2838 29.9393 15.3046 29.8815 15.3555 29.8584C15.404 29.8353 15.4618 29.856 15.4849 29.9023C15.508 29.9508 15.4872 30.0086 15.441 30.0317C15.4271 30.041 15.4132 30.0433 15.3994 30.0433C15.3624 30.0433 15.33 30.0225 15.3115 29.9878H15.3092ZM18.418 30.0248C18.3694 30.0017 18.3509 29.9439 18.3718 29.8953C18.3949 29.8468 18.4526 29.826 18.5012 29.8514C18.5497 29.8745 18.5705 29.93 18.5451 29.9809C18.5289 30.0155 18.4943 30.034 18.4573 30.034C18.4434 30.034 18.4295 30.0317 18.4157 30.0248H18.418ZM16.0465 29.7035C16.035 29.6527 16.0673 29.5995 16.1205 29.5879C16.1737 29.5764 16.2245 29.6087 16.2384 29.6619C16.2499 29.715 16.2153 29.7659 16.1621 29.7775H16.1644C16.1644 29.7775 16.1483 29.7798 16.1413 29.7798C16.0951 29.7798 16.0558 29.752 16.0465 29.7035ZM17.6899 29.7729C17.6368 29.759 17.6044 29.7081 17.616 29.655C17.6275 29.6041 17.6807 29.5694 17.7315 29.581C17.7847 29.5926 17.8194 29.6457 17.8055 29.6989C17.7962 29.7405 17.7546 29.7751 17.713 29.7751C17.713 29.7751 17.6992 29.7729 17.6899 29.7729ZM16.8278 29.5926C16.8278 29.5394 16.8694 29.4932 16.9272 29.4932C16.978 29.4932 17.0219 29.5394 17.0219 29.5926C17.0219 29.6457 16.9803 29.6873 16.9272 29.6873C16.8717 29.6873 16.8278 29.6457 16.8278 29.5926Z" fill="#E2BE74"/>
<path d="M72.5769 77.1346C72.8681 76.9312 73.1108 76.6839 73.3096 76.4112C74.0053 76.7717 74.8374 76.8735 75.644 76.6261C77.2828 76.1246 78.2073 74.3911 77.708 72.75C77.604 72.4103 77.4446 72.1029 77.2458 71.8301C77.8051 71.28 78.1565 70.5219 78.1726 69.6759C78.2027 67.9609 76.839 66.5464 75.124 66.5164C74.768 66.5094 74.4283 66.5672 74.107 66.6712C73.7557 65.9709 73.1432 65.4023 72.3434 65.1249C70.7209 64.5679 68.955 65.4277 68.3957 67.048C68.2801 67.3854 68.2293 67.7275 68.2293 68.0626C67.455 68.1805 66.7223 68.5873 66.2138 69.2622C65.1806 70.6305 65.4557 72.5767 66.824 73.6098C67.1083 73.8248 67.418 73.9797 67.7393 74.0837C67.6098 74.8557 67.7716 75.6785 68.257 76.3719C69.2393 77.7772 71.1762 78.1193 72.5792 77.1346H72.5769ZM69.3063 73.8063C70.6539 72.0266 70.5082 71.6868 68.3125 71.2754C70.5244 70.9426 70.6793 70.6074 69.3965 68.7815C71.1762 70.129 71.516 69.9834 71.9274 67.7853C72.2602 69.9972 72.5954 70.1521 74.4213 68.8716C73.0738 70.6513 73.2194 70.9888 75.4175 71.4002C73.2056 71.7331 73.0484 72.0682 74.3312 73.8941C72.5515 72.5466 72.2117 72.6922 71.8003 74.8903C71.4674 72.6784 71.1346 72.5212 69.3063 73.804V73.8063Z" fill="#E2BE74"/>
<path d="M71.844 72.3778C71.2708 72.3686 70.8132 71.8947 70.8224 71.3215C70.8316 70.746 71.3055 70.2907 71.8787 70.2999C72.4542 70.3115 72.9095 70.7853 72.898 71.3585C72.8887 71.9317 72.4149 72.3894 71.8417 72.3778H71.844Z" fill="#E2BE74"/>
<path d="M82.6613 61.6764C84.4872 61.822 85.5527 63.329 85.384 64.6626C85.1852 65.987 84.1428 66.6504 83.3569 66.7613C81.5171 66.8884 81.4501 65.43 81.5426 65.5571C81.6743 65.3745 82.1759 66.484 83.4217 66.0125C84.8154 65.6727 84.9471 62.973 82.578 62.6934C80.1604 62.4091 80.0032 65.7004 80.2713 67.9147C80.5071 70.3601 80.4863 72.8401 79.5941 74.821C78.665 76.8965 76.5847 77.412 75.4198 77.5206C74.1717 77.6223 73.4482 77.509 73.4482 77.5345C73.4459 77.5113 74.181 77.5599 75.399 77.3704C76.557 77.1716 78.4361 76.5406 79.148 74.6222C79.8576 72.78 79.7744 70.3739 79.4485 68.0002C79.3121 66.7752 79.1757 65.4832 79.4924 64.1472C79.6681 62.7419 81.2028 61.5585 82.6635 61.6741L82.6613 61.6764Z" fill="#E2BE74"/>
<path d="M80.4469 74.5806C81.3483 72.4634 81.2282 71.1945 81.6142 71.1852C81.8684 71.1228 82.2891 72.8748 81.3345 74.9989C80.3961 77.1993 77.8351 78.5214 75.9537 78.5099C74.0445 78.6046 72.8311 77.9944 72.8311 78.043C72.8241 78.0014 74.137 78.3596 75.8959 78.0244C77.6641 77.7633 79.6518 76.4366 80.4446 74.5783L80.4469 74.5806Z" fill="#E2BE74"/>
<path d="M74.5416 62.4321C73.8227 63.3428 74.5323 64.3113 75.0963 64.1518C75.7088 64.124 76.0971 63.9137 76.1965 64.0732C76.2658 64.1448 76.0092 64.6741 75.0107 64.8775C73.7973 65.2381 72.4983 63.0885 73.8389 61.7433C75.228 60.4837 77.3568 61.3435 77.9785 62.7164C78.6627 64.0223 78.8014 65.356 78.9054 66.4908C79.0533 68.7675 78.9146 70.3554 78.9423 70.3577C78.9169 70.3646 78.806 68.756 78.42 66.5533C78.2096 65.4692 77.9207 64.1864 77.2689 63.1417C76.7188 62.0646 75.2234 61.8127 74.5392 62.4321H74.5416Z" fill="#E2BE74"/>
<path d="M82.4116 66.4193C81.8962 66.4101 81.4848 65.9848 81.4963 65.4717C81.5056 64.9562 81.9309 64.5448 82.4463 64.5564C82.9617 64.5656 83.3708 64.9909 83.3616 65.5063C83.3523 66.0218 82.927 66.4309 82.4116 66.4216V66.4193Z" fill="#E2BE74"/>
<path d="M22.8904 50.1544C22.5576 50.6259 22.167 50.9287 21.707 50.9749C22.1924 51.0235 22.6755 51.0558 23.1539 51.0558C23.6324 51.0558 24.1016 51.0189 24.58 51.0004L24.4437 50.5728C23.8681 50.2746 23.3481 50.1128 22.8881 50.1544H22.8904Z" fill="#E2BE74"/>
<path d="M25.2635 48.7236C25.044 49.4563 24.7735 50.0873 24.4453 50.5727L24.5817 51.0003C25.527 50.924 26.4585 50.7692 27.383 50.5681L27.1288 49.8932C26.4562 49.417 25.8321 49.0056 25.2635 48.7236Z" fill="#E2BE74"/>
<path d="M27.6123 47.427C27.5014 48.3122 27.3396 49.142 27.127 49.8932L27.3812 50.5681C28.3034 50.3555 29.2095 50.0804 30.0993 49.7499L29.7411 48.9548L27.61 47.427H27.6123Z" fill="#E2BE74"/>
<path d="M29.9323 46.1858C29.9115 47.1265 29.8468 48.0534 29.7451 48.9548L30.1034 49.7499C30.5449 49.5742 30.9886 49.4009 31.4208 49.2044C31.8507 48.9987 32.283 48.7999 32.7013 48.5688L32.2645 47.7598C31.4624 47.2536 30.6766 46.7082 29.9346 46.1858H29.9323Z" fill="#E2BE74"/>
<path d="M32.2207 44.9468C32.26 45.8667 32.2716 46.8005 32.26 47.7597L32.6969 48.5687C33.5359 48.1133 34.3471 47.6048 35.1191 47.0385L34.6453 46.3058C33.8363 45.9129 33.0135 45.4368 32.223 44.9491L32.2207 44.9468Z" fill="#E2BE74"/>
<path d="M34.502 43.6826L34.6453 46.3037L35.1191 47.0364C35.8865 46.4655 36.6168 45.8414 37.2894 45.1619L36.848 44.5887C36.1037 44.3853 35.2994 44.0594 34.502 43.6826Z" fill="#E2BE74"/>
<path d="M36.8112 42.386C36.7765 43.0262 36.7927 43.7566 36.8482 44.5887L37.2896 45.1619C37.6179 44.8106 37.953 44.4708 38.2535 44.0987C38.554 43.7243 38.8521 43.3521 39.1248 42.9569L38.8197 42.6241C38.2396 42.6726 37.5462 42.5755 36.8112 42.386Z" fill="#E2BE74"/>
<path d="M39.2152 41.0639C38.9632 41.4453 38.8454 41.97 38.8223 42.6264L39.1273 42.9592C39.3816 42.5455 39.6543 42.1572 39.8832 41.7342C40.1097 41.3089 40.3131 40.8675 40.498 40.4167C40.2414 40.8004 39.7861 41.0015 39.2152 41.0662V41.0639Z" fill="#E2BE74"/>
<path d="M22.245 56.1545C21.8128 56.4527 21.3574 56.6284 20.8975 56.5914C21.3597 56.6954 21.8266 56.7902 22.2981 56.8618C22.7696 56.9497 23.2435 56.989 23.7173 57.0167L23.6757 56.67C23.1741 56.3718 22.7026 56.2077 22.245 56.1569V56.1545Z" fill="#E2BE74"/>
<path d="M24.8592 55.3086C24.5032 55.9026 24.1011 56.3325 23.6758 56.67L23.7174 57.0167C24.1912 57.0375 24.6743 57.0906 25.1481 57.0652C25.6242 57.0536 26.1027 57.0375 26.5811 57.0097L26.461 56.4342C25.8877 55.9696 25.3584 55.586 24.8615 55.3109L24.8592 55.3086Z" fill="#E2BE74"/>
<path d="M27.3878 54.3981C27.122 55.1446 26.8146 55.8496 26.4609 56.4321L26.5811 57.0076C27.0596 56.9775 27.5311 56.9082 28.0072 56.8481C28.4857 56.7926 28.9572 56.7117 29.4241 56.6031L29.2091 55.8773L27.3901 54.3958L27.3878 54.3981Z" fill="#E2BE74"/>
<path d="M29.845 53.4158C29.6809 54.2895 29.4636 55.1031 29.207 55.8797L29.422 56.6054C29.8889 56.5014 30.365 56.409 30.8273 56.2795L32.2071 55.8612L31.8928 55.0591L29.8426 53.4181L29.845 53.4158Z" fill="#E2BE74"/>
<path d="M32.23 52.3202C32.1561 53.2401 32.059 54.1901 31.8926 55.0545L32.2069 55.8565C32.6715 55.7248 33.1083 55.5237 33.5614 55.355C34.0098 55.177 34.4582 55.0013 34.8881 54.7818L34.4882 53.9612C33.7116 53.4389 32.9489 52.868 32.2323 52.3179L32.23 52.3202Z" fill="#E2BE74"/>
<path d="M34.5669 51.1436C34.5715 52.0704 34.5484 53.0157 34.4883 53.9634L34.8881 54.7839L36.1848 54.1437L37.4329 53.4133L36.966 52.6274C36.1409 52.1559 35.3365 51.6544 34.5669 51.1436Z" fill="#E2BE74"/>
<path d="M36.832 49.8376C36.8991 50.7414 36.9568 51.6913 36.9661 52.6297L37.433 53.4156C37.8513 53.1775 38.2466 52.8979 38.6418 52.6228C39.0324 52.3408 39.4392 52.0843 39.8067 51.7699L39.3075 51.065C38.4916 50.7252 37.6433 50.2837 36.8343 49.84L36.832 49.8376Z" fill="#E2BE74"/>
<path d="M39.055 48.4438L39.3023 51.0626L39.8016 51.7676L40.9111 50.8453C41.2739 50.531 41.6114 50.1843 41.9558 49.8515L41.4658 49.2713C40.6753 49.0564 39.8733 48.7905 39.0527 48.4438H39.055Z" fill="#E2BE74"/>
<path d="M41.2256 46.9325L41.4659 49.2716L41.9559 49.8517C42.3026 49.5212 42.6309 49.1722 42.9406 48.8024C43.2526 48.4372 43.5716 48.0812 43.8582 47.6975L43.4398 47.2792C42.758 47.2538 41.9953 47.1197 41.2256 46.9302V46.9325Z" fill="#E2BE74"/>
<path d="M43.3782 45.3214C43.3366 45.8877 43.3667 46.5441 43.4406 47.2791L43.859 47.6975C44.1456 47.3138 44.4207 46.9209 44.6934 46.5303C44.9754 46.1489 45.195 45.7167 45.4376 45.3076L45.1695 45.0811C44.6518 45.2521 44.0693 45.3491 43.3782 45.3191V45.3214Z" fill="#E2BE74"/>
<path d="M45.5226 43.604C45.3146 44.0154 45.1944 44.4985 45.1689 45.0833L45.4371 45.3098C45.6751 44.8984 45.9016 44.48 46.0865 44.0385C46.2853 43.6063 46.4633 43.1625 46.6297 42.7188C46.4078 43.1232 46.0103 43.4075 45.5226 43.604Z" fill="#E2BE74"/>
<path d="M21.3272 62.1433C20.8673 62.3768 20.4027 62.4854 19.9404 62.4392C20.8673 62.6541 21.7988 62.8021 22.7372 62.9338L22.7279 62.6472C22.2541 62.3698 21.7895 62.1942 21.3272 62.1433Z" fill="#E2BE74"/>
<path d="M24.0757 61.6094C23.6388 62.0578 23.1881 62.4068 22.7305 62.6448L22.7397 62.9315C23.6781 63.047 24.6211 63.1418 25.5665 63.1811L25.5318 62.6864C25.0326 62.2496 24.5495 61.8844 24.078 61.6094H24.0757Z" fill="#E2BE74"/>
<path d="M26.785 61.0754C26.3874 61.6879 25.9668 62.238 25.5322 62.6864L25.5669 63.1811C26.5146 63.2342 27.4645 63.2342 28.4168 63.2111L28.3382 62.5593C27.7973 62 27.2842 61.5146 26.785 61.0754Z" fill="#E2BE74"/>
<path d="M29.4477 60.493C29.1033 61.2304 28.7335 61.9353 28.3359 62.5571L28.4145 63.2089C29.3668 63.1788 30.3214 63.1072 31.276 62.9985L31.1373 62.2358C30.5456 61.6164 29.9839 61.0246 29.4477 60.4907V60.493Z" fill="#E2BE74"/>
<path d="M32.0589 59.8251C31.7885 60.6756 31.4765 61.4684 31.1367 62.2358L31.2754 62.9986C32.2277 62.8784 33.1822 62.7351 34.1276 62.527L33.915 61.6973C33.2655 61.064 32.6437 60.4237 32.0566 59.8228L32.0589 59.8251Z" fill="#E2BE74"/>
<path d="M34.6084 59.0508C34.4166 59.9591 34.1855 60.8467 33.915 61.7019L34.1277 62.5317C35.0753 62.3375 36.0137 62.081 36.9429 61.7851L36.6493 60.9299C35.9328 60.3058 35.2579 59.6841 34.6084 59.0508Z" fill="#E2BE74"/>
<path d="M37.0863 58.1423C36.9776 59.0646 36.8389 60.0191 36.6494 60.9298L36.943 61.785C37.4098 61.6463 37.8652 61.466 38.3251 61.3042C38.7828 61.1332 39.2312 60.9344 39.6842 60.7472L39.3098 59.9082C38.5332 59.3327 37.7958 58.7502 37.0886 58.1446L37.0863 58.1423Z" fill="#E2BE74"/>
<path d="M39.4737 57.0746C39.4598 58.006 39.402 58.9421 39.3096 59.906L39.684 60.745C40.1278 60.5323 40.5785 60.3289 41.0153 60.1001C41.4452 59.8597 41.889 59.6425 42.3051 59.3743L41.8544 58.5908C41.0431 58.1378 40.2341 57.6039 39.4783 57.0723L39.4737 57.0746Z" fill="#E2BE74"/>
<path d="M41.7552 55.8193C41.8246 56.7231 41.85 57.6384 41.85 58.5929L42.3007 59.3765C42.7191 59.1176 43.1421 58.8634 43.5419 58.5745C43.9487 58.2971 44.3463 58.0059 44.7299 57.6961L44.2238 57.0027C43.3917 56.6699 42.5619 56.27 41.7529 55.8216L41.7552 55.8193Z" fill="#E2BE74"/>
<path d="M43.9326 54.3773C44.0482 55.2071 44.1591 56.0923 44.2285 56.9984L44.7346 57.6918C45.1276 57.3936 45.4974 57.0677 45.8626 56.7372C46.237 56.4182 46.5745 56.0553 46.9258 55.711L46.3988 55.1378C45.5737 54.9436 44.7647 54.7055 43.9326 54.375V54.3773Z" fill="#E2BE74"/>
<path d="M45.9824 52.75C46.1095 53.4804 46.269 54.2963 46.3985 55.1399L46.9254 55.7131C47.6096 55.0036 48.2383 54.2431 48.8138 53.448L48.3122 53.0204C47.5634 53.0066 46.7752 52.9095 45.9847 52.75H45.9824Z" fill="#E2BE74"/>
<path d="M47.8779 50.9171C48.0097 51.5619 48.1368 52.2461 48.3101 53.0204L48.8117 53.448C49.0845 53.0365 49.3734 52.6436 49.6137 52.2137C49.8611 51.7884 50.113 51.3724 50.3141 50.924L49.8958 50.6536C49.2948 50.8315 48.5944 50.9055 47.8779 50.9194V50.9171Z" fill="#E2BE74"/>
<path d="M49.5977 48.8716C49.6508 49.4078 49.7571 49.9995 49.8958 50.6536L50.3142 50.924C50.5361 50.4895 50.7325 50.0434 50.8989 49.5834C51.0885 49.1373 51.2179 48.6658 51.3566 48.2036L51.0954 48.0857C50.6932 48.4185 50.1963 48.6913 49.5977 48.8716Z" fill="#E2BE74"/>
<path d="M51.1248 46.5995C51.007 47.041 51.037 47.5425 51.0948 48.0857L51.356 48.2036C51.4993 47.7436 51.5663 47.2582 51.668 46.796C51.7235 46.5648 51.7281 46.3175 51.7581 46.0841C51.7836 45.846 51.8067 45.6103 51.8206 45.3745C51.7258 45.8275 51.497 46.2505 51.1225 46.5995H51.1248Z" fill="#E2BE74"/>
<path d="M15.6439 19.1364C16.1149 19.1364 16.4968 18.7546 16.4968 18.2835C16.4968 17.8125 16.1149 17.4307 15.6439 17.4307C15.1729 17.4307 14.791 17.8125 14.791 18.2835C14.791 18.7546 15.1729 19.1364 15.6439 19.1364Z" fill="#231F20"/>
<path d="M15.6051 15.6853C15.1613 15.6853 14.8008 15.3248 14.8008 14.881C14.8008 14.4372 15.1613 14.0767 15.6051 14.0767C16.0489 14.0767 16.4095 14.4372 16.4095 14.881C16.4095 15.3248 16.0489 15.6853 15.6051 15.6853Z" fill="#231F20"/>
<path d="M16.6289 12.3895C16.2128 12.3895 15.873 12.0521 15.873 11.6337C15.873 11.2154 16.2105 10.8779 16.6289 10.8779C17.0472 10.8779 17.3847 11.2154 17.3847 11.6337C17.3847 12.0521 17.0472 12.3895 16.6289 12.3895Z" fill="#231F20"/>
<path d="M18.4803 9.47729C18.8697 9.47729 19.1853 9.16166 19.1853 8.77232C19.1853 8.38299 18.8697 8.06738 18.4803 8.06738C18.091 8.06738 17.7754 8.38299 17.7754 8.77232C17.7754 9.16166 18.091 9.47729 18.4803 9.47729Z" fill="#231F20"/>
<path d="M20.9181 7.04573C20.5553 7.04573 20.2617 6.7522 20.2617 6.38932C20.2617 6.02644 20.5553 5.73291 20.9181 5.73291C21.281 5.73291 21.5746 6.02644 21.5746 6.38932C21.5746 6.7522 21.281 7.04573 20.9181 7.04573Z" fill="#231F20"/>
<path d="M23.7823 5.14571C23.4472 5.14571 23.1768 4.87297 23.1768 4.54014C23.1768 4.20731 23.4495 3.93457 23.7823 3.93457C24.1152 3.93457 24.3879 4.20731 24.3879 4.54014C24.3879 4.87297 24.1175 5.14571 23.7823 5.14571Z" fill="#231F20"/>
<path d="M26.9652 3.87235C26.6578 3.87235 26.4082 3.62272 26.4082 3.31531C26.4082 3.0079 26.6578 2.7583 26.9652 2.7583C27.2726 2.7583 27.5223 3.0079 27.5223 3.31531C27.5223 3.62272 27.2726 3.87235 26.9652 3.87235Z" fill="#231F20"/>
<path d="M30.3395 3.37759C30.0599 3.37759 29.8311 3.15109 29.8311 2.86911C29.8311 2.58712 30.0576 2.3606 30.3395 2.3606C30.6215 2.3606 30.848 2.58712 30.848 2.86911C30.848 3.15109 30.6215 3.37759 30.3395 3.37759Z" fill="#231F20"/>
<path d="M33.7321 3.64575C33.4778 3.64575 33.2744 3.44004 33.2744 3.18811C33.2744 2.93617 33.4801 2.73047 33.7321 2.73047C33.984 2.73047 34.1897 2.93617 34.1897 3.18811C34.1897 3.44004 33.984 3.64575 33.7321 3.64575Z" fill="#231F20"/>
<path d="M37.0009 4.57726C36.7744 4.57726 36.5918 4.39466 36.5918 4.16814C36.5918 3.94163 36.7744 3.75903 37.0009 3.75903C37.2274 3.75903 37.41 3.94163 37.41 4.16814C37.41 4.39466 37.2274 4.57726 37.0009 4.57726Z" fill="#231F20"/>
<path d="M39.9778 6.18598C39.779 6.18598 39.6172 6.02417 39.6172 5.8254C39.6172 5.62662 39.779 5.46484 39.9778 5.46484C40.1765 5.46484 40.3383 5.62662 40.3383 5.8254C40.3383 6.02417 40.1765 6.18598 39.9778 6.18598Z" fill="#231F20"/>
<path d="M42.382 8.54569C42.211 8.54569 42.0723 8.40702 42.0723 8.23598C42.0723 8.06494 42.211 7.92627 42.382 7.92627C42.553 7.92627 42.6917 8.06494 42.6917 8.23598C42.6917 8.40702 42.553 8.54569 42.382 8.54569Z" fill="#231F20"/>
<path d="M43.7641 11.5968C43.6208 11.5968 43.5029 11.4789 43.5029 11.3356C43.5029 11.1923 43.6208 11.0745 43.7641 11.0745C43.9074 11.0745 44.0253 11.1923 44.0253 11.3356C44.0253 11.4789 43.9074 11.5968 43.7641 11.5968Z" fill="#231F20"/>
<path d="M21.0641 67.575C21.216 67.575 21.3392 67.4519 21.3392 67.3C21.3392 67.1481 21.216 67.0249 21.0641 67.0249C20.9122 67.0249 20.7891 67.1481 20.7891 67.3C20.7891 67.4519 20.9122 67.575 21.0641 67.575Z" fill="#E2BE74"/>
<path d="M25.308 68.7953C25.0283 68.7953 24.8018 68.5688 24.8018 68.2891C24.8018 68.0095 25.0283 67.783 25.308 67.783C25.5876 67.783 25.8141 68.0095 25.8141 68.2891C25.8141 68.5688 25.5876 68.7953 25.308 68.7953Z" fill="#E2BE74"/>
<path d="M29.653 69.2715C29.2832 69.2715 28.9805 68.971 28.9805 68.5989C28.9805 68.2268 29.2809 67.9263 29.653 67.9263C30.0252 67.9263 30.3257 68.2268 30.3257 68.5989C30.3257 68.971 30.0252 69.2715 29.653 69.2715Z" fill="#E2BE74"/>
<path d="M33.9985 69.0103C33.5709 69.0103 33.2266 68.6636 33.2266 68.2383C33.2266 67.813 33.5733 67.4663 33.9985 67.4663C34.4238 67.4663 34.7705 67.813 34.7705 68.2383C34.7705 68.6636 34.4238 69.0103 33.9985 69.0103Z" fill="#E2BE74"/>
<path d="M38.2325 68.0465C37.7725 68.0465 37.4004 67.6744 37.4004 67.2144C37.4004 66.7545 37.7725 66.3823 38.2325 66.3823C38.6924 66.3823 39.0645 66.7545 39.0645 67.2144C39.0645 67.6744 38.6924 68.0465 38.2325 68.0465Z" fill="#E2BE74"/>
<path d="M42.2542 66.3869C42.7253 66.3869 43.1071 66.0051 43.1071 65.5341C43.1071 65.063 42.7253 64.6812 42.2542 64.6812C41.7832 64.6812 41.4014 65.063 41.4014 65.5341C41.4014 66.0051 41.7832 66.3869 42.2542 66.3869Z" fill="#E2BE74"/>
<path d="M45.9532 64.0616C45.4932 64.0616 45.1211 63.6895 45.1211 63.2296C45.1211 62.7696 45.4932 62.3975 45.9532 62.3975C46.4131 62.3975 46.7852 62.7696 46.7852 63.2296C46.7852 63.6895 46.4131 64.0616 45.9532 64.0616Z" fill="#E2BE74"/>
<path d="M49.2417 61.1424C49.6681 61.1424 50.0137 60.7968 50.0137 60.3704C50.0137 59.944 49.6681 59.5984 49.2417 59.5984C48.8153 59.5984 48.4697 59.944 48.4697 60.3704C48.4697 60.7968 48.8153 61.1424 49.2417 61.1424Z" fill="#E2BE74"/>
<path d="M52.0525 57.71C52.424 57.71 52.7251 57.4088 52.7251 57.0374C52.7251 56.6659 52.424 56.3647 52.0525 56.3647C51.681 56.3647 51.3799 56.6659 51.3799 57.0374C51.3799 57.4088 51.681 57.71 52.0525 57.71Z" fill="#E2BE74"/>
<path d="M54.3177 53.82C54.038 53.82 53.8115 53.5935 53.8115 53.3138C53.8115 53.0341 54.038 52.8076 54.3177 52.8076C54.5974 52.8076 54.8239 53.0341 54.8239 53.3138C54.8239 53.5935 54.5974 53.82 54.3177 53.82Z" fill="#E2BE74"/>
<path d="M55.9703 49.5557C55.8178 49.5557 55.6953 49.4332 55.6953 49.2807C55.6953 49.1281 55.8178 49.0056 55.9703 49.0056C56.1229 49.0056 56.2454 49.1281 56.2454 49.2807C56.2454 49.4332 56.1229 49.5557 55.9703 49.5557Z" fill="#E2BE74"/>
</svg>
