<svg width="91" height="94" viewBox="0 0 91 94" fill="none" xmlns="http://www.w3.org/2000/svg">
<path d="M27.7281 12.9504C27.7281 12.9504 22.5352 11.372 21.6197 7.95506C20.7023 4.54569 24.4061 0.577881 24.4061 0.577881L27.7281 12.9504Z" fill="#231F20"/>
<path d="M41.9027 22.5708C41.9445 25.2812 39.7849 27.5035 37.0859 27.5472C34.8446 27.5814 32.9357 26.1207 32.3147 24.0827C32.2368 23.8282 32.0525 23.6211 31.798 23.5433H31.7904C31.5796 23.4768 31.3536 23.5129 31.1655 23.6307C29.3079 24.7988 26.8691 25.4047 24.5994 25.4407C20.0732 25.511 16.3447 21.8984 16.2744 17.3779C16.2042 12.8517 19.8168 9.12893 24.343 9.05865C26.3468 9.02636 28.5045 9.98935 30.2842 11.469L30.3621 11.5278L39.8058 18.6239L40.0584 18.8157C40.0831 18.8328 40.1059 18.8499 40.1306 18.8746C41.1942 19.7597 41.8799 21.0836 41.9027 22.5727V22.5708Z" fill="#231F20"/>
<path d="M40.1308 18.8669V18.8726C40.1061 18.8498 40.0833 18.8327 40.0586 18.8137L40.1308 18.8669Z" fill="#231F20"/>
<path d="M24.7018 13.0056C24.7018 13.0056 18.3579 13.6532 15.9703 10.4186C13.5809 7.18018 16.0463 1.30542 16.0463 1.30542L24.7018 13.0075V13.0056Z" fill="#231F20"/>
<path d="M28.225 14.7132C28.0503 15.0988 27.4235 15.1881 26.8252 14.9165C26.2212 14.6429 25.8755 14.1149 26.0502 13.7293C26.2231 13.3457 26.8498 13.2545 27.4538 13.528C28.0522 13.7996 28.3997 14.3295 28.225 14.7132Z" fill="#E2BE74"/>
<path d="M39.559 25.0248C39.559 25.5282 39.1563 25.9328 38.6511 25.9328C38.1458 25.9328 37.7432 25.5282 37.7432 25.0248C37.7432 24.5215 38.1515 24.1169 38.6511 24.1169C39.1506 24.1169 39.559 24.5253 39.559 25.0248Z" fill="#E2BE74"/>
<path d="M70.84 60.353C70.0195 61.8478 68.9976 63.2305 67.8428 64.4366C67.6073 64.6873 67.3566 64.9248 67.1135 65.1622L31.7471 65.7168C18.6224 65.9219 7.41804 56.0471 6.22904 42.9756C6.22144 42.8844 6.21194 42.7932 6.20435 42.7021C5.04383 28.6828 11.986 16.1298 22.9036 9.27881C21.4563 10.1867 22.3205 18.0748 22.5333 19.8279C23.2208 25.5413 26.4308 33.2755 31.8421 36.0676C38.5412 39.5244 55.7153 27.6685 67.3889 38.4285C74.597 45.0706 74.4811 53.8305 70.8419 60.3549L70.84 60.353Z" fill="#231F20"/>
<path d="M71.128 57.5326C71.128 57.5326 70.8602 58.7823 70.6209 60.7444C69.7776 62.2278 68.7329 63.5934 67.5591 64.7805C67.3198 65.0275 67.0653 65.2611 66.8184 65.4947H46.0088C43.3668 61.8574 42.0068 57.958 42.0068 54.5752C42.0068 46.5447 48.5141 40.0393 56.537 40.0393C64.56 40.0393 72.7349 48.2275 68.1498 54.824C67.7168 55.4413 67.3806 56.1137 67.1128 56.8279C69.4471 57.109 71.128 57.5345 71.128 57.5345V57.5326Z" fill="white"/>
<path d="M73.6561 75.02C73.6561 75.02 66.239 82.6669 65.2039 92.4715L60.9284 92.5379C60.9284 92.5379 58.8676 81.7153 65.8079 75.3961C65.787 75.3904 65.7604 75.3828 65.7395 75.3771C51.4163 72.0114 43.6555 61.2457 43.5301 53.238C43.4048 45.2093 49.8076 38.6014 57.8305 38.4761C65.8592 38.3507 74.1537 46.4097 69.6731 53.0765C69.2495 53.7014 68.9248 54.3795 68.6683 55.0975C71.0065 55.3425 72.6931 55.7414 72.6931 55.7414C72.6931 55.7414 70.4746 67.0749 73.6542 75.0219L73.6561 75.02Z" fill="#231F20"/>
<path d="M16.6318 62.319C16.6318 62.319 28.1971 73.1835 22.2673 93.1421L27.1563 93.0661C27.1563 93.0661 37.3692 70.2072 27.2645 61.9734C20.1571 56.1822 19.6784 62.2716 19.6784 62.2716L16.6337 62.319H16.6318Z" fill="#231F20"/>
<path d="M6.48533 40.8238C5.52615 41.4202 4.81198 42.1097 4.33714 43.0499C4.08263 43.5247 3.92308 44.0527 3.81481 44.6738C3.68756 45.2987 3.70085 45.992 3.75023 46.8068C3.75023 46.8068 4.00285 46.0623 4.68473 45.4716C5.35521 44.8676 6.47584 44.4478 7.85668 44.6757L9.59081 43.7716L9.26222 42.9511C9.15965 42.6738 9.07988 42.3813 8.98491 42.1002C8.88614 41.821 8.83486 41.5133 8.75508 41.2246C8.67341 40.9359 8.62972 40.6263 8.57274 40.3262L6.48343 40.8238H6.48533Z" fill="#231F20"/>
<path d="M5.99684 36.6889C5.44412 36.896 4.94839 37.1353 4.50013 37.4259C4.05758 37.7165 3.63592 38.0565 3.29403 38.4649C2.95024 38.8751 2.62355 39.3538 2.36524 39.9255C2.12022 40.4972 1.8733 41.1601 1.74414 41.9426C1.74414 41.9426 2.1829 41.293 3.05281 40.8732C3.92272 40.4364 5.13832 40.2674 6.54576 40.8106L8.57429 40.3281C8.51161 40.0299 8.46792 39.7222 8.43753 39.4107C8.40145 39.1011 8.35396 38.7972 8.34256 38.48C8.32737 38.1647 8.29128 37.8552 8.28938 37.5361L8.27609 36.5845L5.99874 36.6908L5.99684 36.6889Z" fill="#231F20"/>
<path d="M6.21198 32.4856C4.96979 32.7268 3.98781 33.1295 3.09701 33.8152C2.65256 34.1589 2.26318 34.5768 1.87571 35.0858C1.48634 35.5949 1.16534 36.2008 0.831055 36.9206C0.831055 36.9206 1.44455 36.3812 2.42083 36.121C3.39331 35.8494 4.73807 35.8836 6.06383 36.6851L8.2747 36.5825L8.30699 35.6214C8.31269 35.3023 8.35447 34.9776 8.37537 34.6585C8.39436 34.3375 8.43425 34.0146 8.47793 33.6936C8.51972 33.3726 8.55201 33.0516 8.61279 32.7287L6.21388 32.4856H6.21198Z" fill="#231F20"/>
<path d="M6.99378 28.3298C5.67561 28.3982 4.57588 28.6565 3.57111 29.2111C3.06018 29.4865 2.58533 29.8398 2.12188 30.2862C1.64894 30.7306 1.20639 31.2701 0.769531 31.9272C0.769531 31.9272 1.48559 31.4923 2.54164 31.384C3.5958 31.2644 4.99943 31.4923 6.27961 32.4951L8.61015 32.7307C8.70701 32.0868 8.83807 31.4467 8.97482 30.8085C9.12867 30.1722 9.27682 29.5359 9.47056 28.9091L6.99188 28.3317L6.99378 28.3298Z" fill="#231F20"/>
<path d="M8.2802 24.303C6.91455 24.1929 5.72174 24.2897 4.62011 24.7057C3.50707 25.1198 2.44722 25.8396 1.37598 27.0134C1.37598 27.0134 2.17371 26.683 3.28865 26.7209C4.41498 26.7513 5.83571 27.1673 7.0665 28.3468L9.47301 28.9071C9.64585 28.2765 9.86428 27.6573 10.0751 27.04C10.3011 26.4265 10.5329 25.8187 10.7931 25.2223L8.2783 24.303H8.2802Z" fill="#231F20"/>
<path d="M10.0446 20.493C8.64472 20.1682 7.42153 20.0979 6.21353 20.3486C5.01692 20.605 3.82981 21.1805 2.57812 22.21C2.57812 22.21 3.44044 21.9858 4.60856 22.1853C5.77667 22.3733 7.2031 22.9887 8.35032 24.3316L10.791 25.2243C10.9107 24.9223 11.055 24.6336 11.1899 24.3392C11.3228 24.0448 11.4615 23.7542 11.6134 23.4712C11.7635 23.1882 11.8983 22.8957 12.0617 22.6221L12.5327 21.7959L10.0446 20.493Z" fill="#231F20"/>
<path d="M12.3104 17.0419C10.9314 16.4436 9.68352 16.1492 8.41284 16.2062C7.76706 16.2309 7.13647 16.3524 6.46978 16.5671C5.79361 16.7798 5.13073 17.1027 4.40137 17.53C4.40137 17.53 5.33776 17.4332 6.51157 17.8093C7.68728 18.1701 9.09662 19.0305 10.1147 20.5311L12.5307 21.796C12.8593 21.2585 13.1955 20.7324 13.5507 20.2329C13.7216 19.9745 13.9153 19.7466 14.0939 19.5035C14.2705 19.2566 14.468 19.04 14.6561 18.814L12.3066 17.0438L12.3104 17.0419Z" fill="#231F20"/>
<path d="M15.0872 14.2137C13.8583 13.2336 12.6788 12.641 11.3587 12.415C10.7035 12.3067 10.033 12.301 9.29032 12.3903C8.58755 12.4948 7.78412 12.6866 6.98828 13.019C6.98828 13.019 7.95506 13.0703 9.11178 13.6743C10.2742 14.2669 11.5278 15.4027 12.3806 17.095L14.6617 18.814C14.8479 18.5822 15.0454 18.3752 15.2411 18.1701C15.4329 17.9555 15.6323 17.7617 15.8337 17.5794C16.0293 17.3837 16.2306 17.209 16.4339 17.0514C16.6333 16.8766 16.8327 16.7266 17.0341 16.5955L15.0891 14.2156L15.0872 14.2137Z" fill="#231F20"/>
<path d="M18.0599 11.8091C18.4759 13.2602 18.1739 12.2099 18.2669 12.5328L18.265 12.5271L18.2612 12.5195L18.2536 12.5024L18.2365 12.4682L18.2023 12.4017L18.134 12.2706L17.9934 12.0161C17.8984 11.849 17.7997 11.6875 17.6971 11.5318C17.492 11.2203 17.2717 10.9316 17.0342 10.6638C16.5537 10.1187 16.0257 9.70839 15.4027 9.376C14.7664 9.03411 14.094 8.83656 13.2887 8.7226C12.5194 8.62953 11.6153 8.63714 10.6865 8.80619C10.6865 8.80619 10.9391 8.87455 11.3152 9.05499C11.6875 9.23353 12.1908 9.53554 12.698 9.98949C13.2032 10.4415 13.7027 11.0417 14.1206 11.7692C14.5385 12.4929 14.8841 13.3419 15.1463 14.2802L17.0342 16.5917C17.2318 16.4379 17.4293 16.3239 17.6211 16.2156C17.813 16.0865 18.001 16.0162 18.1814 15.9269C18.3638 15.8187 18.5328 15.8035 18.6981 15.7275C18.7817 15.6857 18.8576 15.6895 18.9336 15.6705L19.0457 15.6439L19.1007 15.6287L19.1273 15.6211L19.1406 15.6173H19.1482L19.152 15.6135C18.9127 14.7778 19.6877 17.4825 18.6145 13.7408L18.0599 11.8053V11.8091Z" fill="#231F20"/>
<path d="M77.4022 59.9525C77.4022 59.9525 78.6235 63.3884 81.9835 65.1567C80.6445 63.0712 80.0291 61.1415 79.8942 58.5279C79.8942 58.5279 81.2428 61.3428 84.2381 62.8756C82.9712 60.4064 82.5401 58.3114 82.7604 55.4927C82.7604 55.4927 83.9038 58.9686 87.2353 60.8148C86.0254 58.4083 85.6208 56.3437 85.8355 53.5801C85.8355 53.5801 87.0853 57.3693 90.77 59.1338C88.9542 57.3655 87.7538 54.7558 87.1536 52.2315C86.1964 48.2086 86.1907 43.8819 84.2913 40.2104C78.1886 28.3982 64.3194 35.1561 62.3535 36.3869C63.8787 35.9102 61.6868 37.3936 63.2462 37.4259C66.2814 37.4905 71.1058 35.0669 74.0005 41.8913C77.2864 49.637 73.1002 58.4482 78.1829 65.4322C77.5238 63.717 77.2845 62.0361 77.3984 59.9544L77.4022 59.9525Z" fill="#231F20"/>
<path d="M13.3363 52.4214C13.3363 52.4214 2.18696 62.319 5.74449 73.2347C6.87271 76.6992 7.8357 79.911 14.947 84.6614L18.0448 82.2282C18.0448 82.2282 10.4891 74.7143 15.587 68.4293C19.2509 63.9145 22.8958 62.4083 22.8958 62.4083L13.3325 52.4233L13.3363 52.4214Z" fill="#231F20"/>
<path d="M16.7572 20.0769C15.8493 18.8974 15.0478 18.149 12.9395 17.6875C13.8606 18.9506 15.251 19.8205 16.7572 20.0769Z" fill="#E2BE74"/>
<path d="M15.5977 21.7446C14.705 20.6411 13.9167 19.9516 11.8711 19.6211C12.7828 20.8082 14.1333 21.5794 15.5977 21.7446Z" fill="#E2BE74"/>
<path d="M14.5136 23.4577C13.6285 22.4244 12.8535 21.79 10.8877 21.6001C11.7918 22.7169 13.1062 23.3912 14.5136 23.4577Z" fill="#E2BE74"/>
<path d="M13.5031 25.2165C12.6408 24.2573 11.8829 23.6818 9.98926 23.6191C10.8839 24.6657 12.1526 25.2412 13.5031 25.2165Z" fill="#E2BE74"/>
<path d="M12.5838 27.023C11.731 26.1322 10.9883 25.6099 9.19531 25.684C10.0747 26.6564 11.2979 27.1389 12.5838 27.023Z" fill="#E2BE74"/>
<path d="M11.7497 28.8689C10.9254 28.0484 10.2036 27.5869 8.49609 27.7825C9.36981 28.6885 10.5379 29.076 11.7497 28.8689Z" fill="#E2BE74"/>
<path d="M11.0284 30.7628C10.2174 30.0088 9.51653 29.5985 7.92676 29.9233C8.77388 30.7552 9.88501 31.0553 11.0284 30.7628Z" fill="#E2BE74"/>
<path d="M10.4091 32.6906C10.0102 32.343 9.65504 32.0866 9.20299 31.9669C8.75473 31.8492 8.20202 31.8606 7.47266 32.0866C8.31028 32.8539 9.36063 33.0686 10.4091 32.6906Z" fill="#E2BE74"/>
<path d="M9.91707 34.6564C9.15542 34.0296 8.50773 33.7276 7.15918 34.2747C7.96451 34.9736 8.94459 35.1085 9.91707 34.6564Z" fill="#E2BE74"/>
<path d="M9.54858 36.6527C9.17251 36.3659 8.84201 36.1646 8.44505 36.1095C8.04808 36.0563 7.57703 36.1494 6.98633 36.476C7.78027 37.1123 8.68627 37.1769 9.54858 36.6508V36.6527Z" fill="#E2BE74"/>
<path d="M9.32495 38.6699C8.62408 38.1589 8.03717 37.9519 6.96973 38.687C7.73327 39.2625 8.5576 39.2568 9.32495 38.6699Z" fill="#E2BE74"/>
<path d="M9.25219 40.7004C8.57032 40.2388 8.0157 40.0793 7.12109 40.8846C7.86185 41.4013 8.60641 41.3424 9.25219 40.7004Z" fill="#E2BE74"/>
<path d="M9.33199 42.7403C8.6976 42.3186 8.18667 42.2008 7.43262 43.0594C7.7802 43.293 8.13539 43.3823 8.45258 43.331C8.77548 43.2778 9.05468 43.0841 9.33199 42.7403Z" fill="#E2BE74"/>
<path d="M9.57905 44.7724C8.96935 44.3888 8.49451 44.3033 7.9209 45.1941C8.59708 45.6177 9.16499 45.4847 9.57905 44.7724Z" fill="#E2BE74"/>
<path d="M9.9746 46.7897C9.41619 46.4307 8.98693 46.3718 8.55957 47.2797C9.21485 47.6615 9.6897 47.5114 9.9746 46.7897Z" fill="#E2BE74"/>
<path d="M10.55 48.7671C10.0144 48.4328 9.62501 48.3986 9.38379 49.2951C9.98779 49.6503 10.381 49.4927 10.55 48.7671Z" fill="#E2BE74"/>
<path d="M11.2805 50.7023C11.026 50.5446 10.8285 50.4535 10.667 50.518C10.5132 50.5807 10.3859 50.801 10.3574 51.2322C10.9405 51.5551 11.2482 51.405 11.2805 50.7004V50.7023Z" fill="#E2BE74"/>
<path d="M12.198 52.5618C11.7289 52.2522 11.4288 52.2409 11.5104 53.0633C12.048 53.3748 12.2702 53.2437 12.198 52.5618Z" fill="#E2BE74"/>
<path d="M13.2845 54.3378C13.0508 54.1915 12.8856 54.1061 12.7963 54.1611C12.707 54.2143 12.6862 54.4099 12.821 54.7746C13.3414 55.0633 13.4896 54.9627 13.2845 54.3397V54.3378Z" fill="#E2BE74"/>
<path d="M14.5496 56.0035C14.1279 55.692 13.9095 55.6807 14.2874 56.3378C14.5249 56.4879 14.6768 56.5354 14.7186 56.4879C14.7604 56.4404 14.6958 56.2922 14.5496 56.0035Z" fill="#E2BE74"/>
<path d="M25.0323 20.7111C24.9677 20.6788 24.6562 20.43 24.32 20.242C23.9895 20.0501 23.6533 19.9248 23.6533 19.9248C23.6533 19.9248 24.0028 20.0046 24.3846 20.0274C24.7645 20.0558 25.1652 20.0217 25.2355 20.0312C25.3761 20.0464 25.4691 20.2382 25.4045 20.4528C25.3723 20.5573 25.3077 20.6408 25.2412 20.6883C25.169 20.7339 25.093 20.7434 25.0304 20.7111H25.0323Z" fill="#E2BE74"/>
<path d="M24.4002 21.5052C24.3584 21.452 24.1799 21.0854 23.9595 20.774C23.7487 20.4606 23.4961 20.1965 23.4961 20.1965C23.4961 20.1965 23.5664 20.2535 23.6784 20.3333C23.7905 20.4131 23.9462 20.5156 24.1115 20.6087C24.4401 20.7986 24.8219 20.9468 24.8788 20.9829C24.9966 21.057 24.9985 21.2716 24.8465 21.4349C24.6965 21.5983 24.4838 21.6192 24.4002 21.5052Z" fill="#E2BE74"/>
<path d="M23.4823 21.9478C23.4671 21.8794 23.4652 21.473 23.4044 21.1007C23.3475 20.7208 23.2373 20.3789 23.2373 20.3789C23.2373 20.3789 23.2772 20.4606 23.3437 20.5822C23.4101 20.7018 23.5051 20.8595 23.6134 21.0171C23.8299 21.3343 24.1053 21.6268 24.1433 21.6857C24.2193 21.8053 24.1262 21.9972 23.9192 22.0808C23.7121 22.1643 23.5108 22.0864 23.4842 21.9497L23.4823 21.9478Z" fill="#E2BE74"/>
<path d="M22.4663 21.9477C22.4834 21.8812 22.6562 21.5146 22.7626 21.148C22.8747 20.7872 22.924 20.4263 22.924 20.4263C22.924 20.4263 22.924 20.7872 22.9867 21.1651C23.0437 21.5393 23.1653 21.9268 23.171 21.9971C23.1862 22.1338 23.0209 22.2725 22.7987 22.2535C22.5765 22.2383 22.4283 22.0863 22.4644 21.9477H22.4663Z" fill="#E2BE74"/>
<path d="M21.5492 21.5052C21.5929 21.452 21.9101 21.1956 22.1646 20.9164C22.4267 20.6353 22.6243 20.3352 22.6243 20.3352C22.6243 20.3352 22.5844 20.4169 22.5312 20.5442C22.478 20.6695 22.4135 20.8423 22.3603 21.0266C22.2463 21.3932 22.1893 21.7901 22.1665 21.8566C22.121 21.9915 21.912 22.037 21.7183 21.9269C21.5246 21.8167 21.46 21.6116 21.5492 21.5052Z" fill="#E2BE74"/>
<path d="M20.9145 20.7114C20.9791 20.681 21.3685 20.5917 21.7237 20.4455C22.0807 20.3068 22.3884 20.1226 22.3884 20.1226C22.3884 20.1226 22.1092 20.3467 21.8509 20.6316C21.5926 20.9089 21.3666 21.2451 21.3172 21.2945C21.2184 21.3932 21.0095 21.3477 20.8822 21.1634C20.8214 21.0722 20.7949 20.9716 20.8006 20.8899C20.8101 20.8063 20.8499 20.7399 20.9126 20.7114H20.9145Z" fill="#E2BE74"/>
<path d="M20.6873 19.7198C20.7575 19.7198 21.1564 19.8091 21.5344 19.8319C21.7224 19.8452 21.9086 19.847 22.0472 19.8433C22.1859 19.8395 22.2751 19.83 22.2751 19.83C22.2751 19.83 22.1878 19.8489 22.0548 19.8869C21.92 19.9249 21.7452 19.9819 21.5705 20.0541C21.2172 20.1927 20.8639 20.3979 20.7993 20.4207C20.6664 20.4682 20.4992 20.3333 20.4669 20.113C20.4289 19.8926 20.5524 19.716 20.6892 19.7198H20.6873Z" fill="#E2BE74"/>
<path d="M20.9144 18.7266C20.979 18.7589 21.2905 19.0077 21.6267 19.1958C21.9572 19.3876 22.2934 19.5149 22.2934 19.5149C22.2934 19.5149 21.9439 19.4351 21.5621 19.4123C21.1823 19.3838 20.7815 19.418 20.7112 19.4085C20.5726 19.3933 20.4776 19.2015 20.5422 18.9868C20.5745 18.8824 20.639 18.7988 20.7055 18.7513C20.7777 18.7057 20.8537 18.6962 20.9164 18.7285L20.9144 18.7266Z" fill="#E2BE74"/>
<path d="M21.5493 17.9325C21.5911 17.9857 21.7696 18.3523 21.99 18.6638C22.2008 18.9772 22.4534 19.2412 22.4534 19.2412C22.4534 19.2412 22.3831 19.1842 22.2711 19.1044C22.159 19.0246 22.0033 18.9221 21.838 18.829C21.5094 18.6391 21.1277 18.4909 21.0707 18.4548C20.9529 18.3808 20.951 18.1661 21.103 18.0028C21.253 17.8394 21.4657 17.8185 21.5493 17.9325Z" fill="#E2BE74"/>
<path d="M22.4666 17.49C22.4818 17.5584 22.4837 17.9648 22.5445 18.3371C22.6015 18.717 22.7116 19.0589 22.7116 19.0589C22.7116 19.0589 22.6717 18.9772 22.6053 18.8557C22.5388 18.736 22.4438 18.5783 22.3356 18.4226C22.119 18.1054 21.8436 17.8129 21.8075 17.754C21.7315 17.6344 21.8246 17.4425 22.0317 17.359C22.2387 17.2754 22.44 17.3532 22.4666 17.49Z" fill="#E2BE74"/>
<path d="M23.483 17.4899C23.4659 17.5564 23.293 17.923 23.1867 18.2896C23.0746 18.6504 23.0252 19.0113 23.0252 19.0113C23.0252 19.0113 23.0252 18.6504 22.9626 18.2725C22.9056 17.8983 22.784 17.5108 22.7783 17.4405C22.7631 17.3038 22.9284 17.1651 23.1506 17.1841C23.3728 17.1993 23.521 17.3513 23.4849 17.4899H23.483Z" fill="#E2BE74"/>
<path d="M24.4002 17.9324C24.3566 17.9856 24.0394 18.242 23.7848 18.5212C23.5227 18.8023 23.3252 19.1024 23.3252 19.1024C23.3252 19.1024 23.3651 19.0208 23.4183 18.8935C23.4714 18.7681 23.536 18.5953 23.5892 18.4111C23.7032 18.0445 23.7602 17.6475 23.7829 17.581C23.8285 17.4462 24.0375 17.4006 24.2312 17.5108C24.4249 17.6209 24.4895 17.8261 24.4002 17.9324Z" fill="#E2BE74"/>
<path d="M25.0325 18.7265C24.9679 18.7569 24.5786 18.8462 24.2234 18.9925C23.8663 19.1311 23.5586 19.3153 23.5586 19.3153C23.5586 19.3153 23.8378 19.0912 24.0961 18.8063C24.3544 18.529 24.5805 18.1928 24.6298 18.1434C24.7286 18.0447 24.9375 18.0903 25.0648 18.2745C25.1256 18.3657 25.1522 18.4663 25.1465 18.548C25.137 18.6316 25.0971 18.6981 25.0344 18.7265H25.0325Z" fill="#E2BE74"/>
<path d="M25.2607 19.7199C25.1905 19.7199 24.7916 19.6306 24.4136 19.6078C24.2256 19.5945 24.0394 19.5926 23.9008 19.5964C23.7621 19.6002 23.6729 19.6097 23.6729 19.6097C23.6729 19.6097 23.7602 19.5907 23.8932 19.5527C24.0261 19.5147 24.2028 19.4578 24.3775 19.3856C24.7308 19.2469 25.0841 19.0418 25.1487 19.019C25.2816 18.9715 25.4488 19.1064 25.4811 19.3267C25.519 19.547 25.3956 19.7237 25.2588 19.7199H25.2607Z" fill="#E2BE74"/>
<path d="M22.9849 23.3058C22.8652 23.3134 22.7741 23.2146 22.7665 23.095C22.7665 22.9753 22.8652 22.8842 22.9849 22.8842C23.097 22.8842 23.1957 22.9753 23.1957 23.095C23.1957 23.2146 23.097 23.3058 22.9849 23.3115V23.3039V23.3058ZM21.8757 23.1368C21.7636 23.1026 21.7009 22.9829 21.7351 22.8709C21.7693 22.7588 21.889 22.6961 22.001 22.7303C22.1131 22.7721 22.1758 22.8842 22.1416 23.0038C22.1131 23.0874 22.0295 23.152 21.9383 23.152C21.9174 23.152 21.8966 23.1444 21.8757 23.1387V23.1368ZM23.8187 22.9962C23.7845 22.8842 23.8472 22.7645 23.9593 22.7303C24.0713 22.6885 24.191 22.7512 24.2252 22.8633C24.2613 22.9753 24.2043 23.095 24.0922 23.1292C24.0713 23.1368 24.0428 23.1425 24.022 23.1425C23.9384 23.1425 23.8529 23.0798 23.8187 22.9943V22.9962ZM20.8728 22.6315C20.774 22.5613 20.7531 22.4283 20.8234 22.3371C20.8937 22.2384 21.0266 22.2175 21.1178 22.2878C21.2166 22.358 21.2375 22.491 21.1672 22.5822C21.1254 22.6372 21.0627 22.6733 20.9982 22.6733C20.9564 22.6733 20.907 22.66 20.8728 22.6315ZM24.7931 22.5746C24.7228 22.4758 24.7437 22.3428 24.8349 22.2726C24.9337 22.2023 25.0666 22.2232 25.1369 22.322C25.2072 22.4131 25.1787 22.5461 25.0875 22.6163C25.0533 22.6448 25.0039 22.6581 24.9621 22.6581C24.8995 22.6581 24.8349 22.6296 24.7931 22.5746ZM20.0808 21.8376C20.0105 21.7464 20.0238 21.6135 20.1225 21.5432C20.2213 21.4729 20.3467 21.4938 20.4169 21.5926V21.585C20.4872 21.6838 20.4663 21.8167 20.3752 21.887C20.3334 21.9155 20.2916 21.9288 20.2479 21.9288C20.1852 21.9288 20.1149 21.8946 20.0789 21.8376H20.0808ZM25.587 21.8718C25.4883 21.8015 25.4674 21.6686 25.5377 21.5698C25.6079 21.4786 25.7409 21.4577 25.8321 21.528C25.9308 21.5907 25.9517 21.7236 25.8814 21.8224C25.8397 21.8794 25.7751 21.906 25.7067 21.906C25.6649 21.906 25.6231 21.8984 25.587 21.8718ZM19.5622 20.8404C19.528 20.7284 19.5831 20.6087 19.6952 20.5745C19.8072 20.5403 19.9269 20.5954 19.9687 20.7075C20.0029 20.8195 19.9402 20.9392 19.8281 20.981C19.8072 20.9886 19.7863 20.9886 19.7655 20.9886C19.6743 20.9886 19.5907 20.9316 19.5622 20.8404ZM26.1208 20.9601C26.0087 20.924 25.9517 20.8062 25.9878 20.6942C26.022 20.5821 26.1417 20.5194 26.2537 20.5536C26.3658 20.5954 26.4285 20.7151 26.3943 20.8271C26.3582 20.9107 26.2822 20.9677 26.191 20.9677C26.1701 20.9677 26.1493 20.9677 26.1208 20.9601ZM19.3799 19.7331H19.3875C19.3799 19.621 19.4787 19.5223 19.5907 19.5223C19.7104 19.5223 19.8091 19.6134 19.8091 19.7331C19.8091 19.8528 19.718 19.9496 19.5983 19.9496C19.4787 19.9496 19.3875 19.8509 19.3818 19.7331H19.3799ZM26.1417 19.7198V19.7065V19.678C26.1417 19.566 26.2328 19.4672 26.3525 19.4672C26.4646 19.4596 26.5633 19.5584 26.5633 19.678V19.6989V19.7198C26.5633 19.8319 26.4721 19.9306 26.3525 19.9306C26.2328 19.9306 26.1417 19.8319 26.1417 19.7198ZM19.6895 18.8917C19.5774 18.8575 19.5147 18.7378 19.5489 18.6258C19.5831 18.5137 19.7028 18.4567 19.8224 18.4928C19.9269 18.527 19.9915 18.6467 19.9554 18.7587C19.9269 18.8499 19.8433 18.9069 19.7522 18.9069C19.7313 18.9069 19.7104 18.8993 19.6895 18.8936V18.8917ZM25.9745 18.7017C25.9384 18.5897 25.9954 18.47 26.1075 18.4358C26.2195 18.394 26.3392 18.4567 26.381 18.5688C26.4152 18.6809 26.3525 18.8005 26.248 18.8347C26.2195 18.8423 26.1986 18.848 26.1777 18.848C26.0866 18.848 26.003 18.791 25.9745 18.6998V18.7017ZM20.1035 17.923C20.0048 17.8527 19.9839 17.7198 20.0542 17.621C20.1244 17.5298 20.2574 17.5089 20.3486 17.5716C20.4473 17.6419 20.4682 17.7748 20.398 17.8736C20.3562 17.9306 20.2935 17.9572 20.2289 17.9572C20.1871 17.9572 20.1377 17.9439 20.1016 17.923H20.1035ZM25.5187 17.8318V17.8242C25.4484 17.7331 25.4693 17.6001 25.5604 17.5298C25.6592 17.4595 25.7846 17.4804 25.8549 17.5716C25.9251 17.6704 25.9099 17.8033 25.8131 17.8736C25.777 17.9021 25.7295 17.9154 25.6858 17.9154C25.6231 17.9154 25.5586 17.8812 25.5168 17.8318H25.5187ZM20.7987 17.1234C20.7284 17.0246 20.7493 16.8916 20.8405 16.829C20.9393 16.7587 21.0722 16.772 21.1425 16.8707C21.2128 16.9619 21.1919 17.0949 21.0931 17.1651C21.057 17.1936 21.0152 17.2069 20.9659 17.2069C20.9032 17.2069 20.8386 17.1784 20.7968 17.1234H20.7987ZM24.8102 17.1367C24.7114 17.0664 24.6905 16.9334 24.7608 16.8347C24.8311 16.7435 24.964 16.7226 25.0552 16.7853C25.154 16.8555 25.1749 16.9885 25.1046 17.0873C25.0704 17.1442 25.0001 17.1709 24.9356 17.1709C24.8938 17.1709 24.8444 17.1575 24.8083 17.1367H24.8102ZM21.7028 16.5763C21.6686 16.4643 21.7237 16.3446 21.8358 16.3104C21.9478 16.2686 22.0675 16.3313 22.1093 16.4434C22.1454 16.5554 22.0808 16.6751 21.9687 16.7093C21.9478 16.7169 21.9269 16.7226 21.9061 16.7226C21.8149 16.7226 21.7313 16.6656 21.7028 16.5744V16.5763ZM23.927 16.696C23.8149 16.6599 23.7522 16.5422 23.7864 16.4301C23.8206 16.318 23.9403 16.2554 24.0523 16.2895C24.1644 16.3237 24.2271 16.4434 24.1929 16.5555C24.1644 16.6466 24.0808 16.7036 23.9897 16.7036C23.9688 16.7036 23.9479 16.7036 23.927 16.696ZM22.7342 16.3389C22.7342 16.2193 22.8254 16.1281 22.945 16.1281C23.0647 16.1205 23.1558 16.2193 23.1558 16.3313C23.1634 16.451 23.0647 16.5479 22.945 16.5479C22.8329 16.5479 22.7342 16.4567 22.7342 16.337V16.3389Z" fill="#E2BE74"/>
<path d="M60.6569 46.5181C60.4347 46.1021 59.937 45.8229 59.4812 45.9407C59.0405 46.0565 58.7708 46.4706 58.5809 46.8998C58.7632 45.9616 58.8962 45.198 58.8962 44.9644C58.8962 44.2122 58.2865 43.6025 57.5343 43.6025C56.7822 43.6025 56.1725 44.2122 56.1725 44.9644C56.1725 45.1999 56.3054 45.9616 56.4878 46.8998C56.2978 46.4725 56.03 46.0565 55.5875 45.9407C55.1316 45.821 54.6321 46.1021 54.4118 46.5181C54.1895 46.9341 54.2104 47.4469 54.3662 47.8894C54.5238 48.3339 54.8049 48.7214 55.0955 49.0917C55.6653 49.8154 56.2883 50.4916 56.9341 51.1469C56.7632 50.4441 56.5068 49.3026 56.5068 49.3026C56.5068 49.3026 56.879 49.8952 57.2209 50.4498C57.238 50.4764 57.2532 50.503 57.2684 50.5277C57.2969 50.2675 57.3254 49.992 57.3558 49.7185C57.4451 48.8904 57.5324 48.1193 57.5324 48.1193C57.5324 48.1193 57.6179 48.8904 57.7091 49.7185C57.7395 49.992 57.768 50.2675 57.7964 50.5277C57.8135 50.5011 57.8287 50.4764 57.8439 50.4498C58.1858 49.8952 58.5581 49.3026 58.5581 49.3026C58.5581 49.3026 58.3017 50.4441 58.1307 51.1469C58.7765 50.4916 59.3995 49.8135 59.9693 49.0917C60.2599 48.7214 60.5429 48.3339 60.6987 47.8894C60.8563 47.445 60.8753 46.9322 60.6531 46.5181H60.6569Z" fill="#E2BE74"/>
<path d="M60.6569 57.5914C60.4347 58.0074 59.937 58.2866 59.4812 58.1688C59.0405 58.053 58.7708 57.6389 58.5809 57.2096C58.7632 58.1479 58.8962 58.9115 58.8962 59.1451C58.8962 59.8973 58.2865 60.507 57.5343 60.507C56.7822 60.507 56.1725 59.8973 56.1725 59.1451C56.1725 58.9096 56.3054 58.1479 56.4878 57.2096C56.2978 57.637 56.03 58.053 55.5875 58.1688C55.1316 58.2885 54.6321 58.0074 54.4118 57.5914C54.1895 57.1755 54.2104 56.6626 54.3662 56.2201C54.5238 55.7756 54.8049 55.3882 55.0955 55.0178C55.6653 54.2941 56.2883 53.6179 56.9341 52.9626C56.7632 53.6654 56.5068 54.8069 56.5068 54.8069C56.5068 54.8069 56.879 54.2143 57.2209 53.6597C57.238 53.6331 57.2532 53.6065 57.2684 53.5818C57.2969 53.8421 57.3254 54.1175 57.3558 54.391C57.4451 55.2191 57.5324 55.9903 57.5324 55.9903C57.5324 55.9903 57.6179 55.2191 57.7091 54.391C57.7395 54.1175 57.768 53.8421 57.7964 53.5818C57.8135 53.6084 57.8287 53.6331 57.8439 53.6597C58.1858 54.2143 58.5581 54.8069 58.5581 54.8069C58.5581 54.8069 58.3017 53.6654 58.1307 52.9626C58.7765 53.6179 59.3995 54.296 59.9693 55.0178C60.2599 55.3882 60.5429 55.7756 60.6987 56.2201C60.8563 56.6645 60.8753 57.1774 60.6531 57.5914H60.6569Z" fill="#E2BE74"/>
<path d="M63.0712 55.1774C63.4871 54.9552 63.7663 54.4575 63.6486 54.0017C63.5327 53.561 63.1186 53.2913 62.6894 53.1014C63.6277 53.2837 64.3912 53.4167 64.6248 53.4167C65.377 53.4167 65.9867 52.807 65.9867 52.0548C65.9867 51.3027 65.377 50.693 64.6248 50.693C64.3893 50.693 63.6277 50.8259 62.6894 51.0083C63.1167 50.8183 63.5327 50.5505 63.6486 50.108C63.7682 49.6521 63.4871 49.1526 63.0712 48.9323C62.6552 48.71 62.1424 48.7309 61.6998 48.8867C61.2554 49.0443 60.8679 49.3254 60.4975 49.616C59.7738 50.1858 59.0977 50.8088 58.4424 51.4546C59.1452 51.2837 60.2867 51.0273 60.2867 51.0273C60.2867 51.0273 59.6941 51.3996 59.1394 51.7414C59.1129 51.7585 59.0863 51.7737 59.0616 51.7889C59.3218 51.8174 59.5972 51.8459 59.8707 51.8763C60.6988 51.9656 61.47 52.0529 61.47 52.0529C61.47 52.0529 60.6988 52.1384 59.8707 52.2296C59.5972 52.26 59.3218 52.2884 59.0616 52.3169C59.0882 52.334 59.1129 52.3492 59.1394 52.3644C59.6941 52.7063 60.2867 53.0786 60.2867 53.0786C60.2867 53.0786 59.1452 52.8222 58.4424 52.6512C59.0977 53.297 59.7757 53.92 60.4975 54.4898C60.8679 54.7804 61.2554 55.0634 61.6998 55.2192C62.1443 55.3768 62.6571 55.3958 63.0712 55.1736V55.1774Z" fill="#E2BE74"/>
<path d="M51.9976 55.1774C51.5816 54.9552 51.3024 54.4575 51.4202 54.0017C51.536 53.561 51.9501 53.2913 52.3793 53.1014C51.4411 53.2837 50.6775 53.4167 50.4439 53.4167C49.6917 53.4167 49.082 52.807 49.082 52.0548C49.082 51.3027 49.6917 50.693 50.4439 50.693C50.6794 50.693 51.4411 50.8259 52.3793 51.0083C51.952 50.8183 51.536 50.5505 51.4202 50.108C51.3005 49.6521 51.5816 49.1526 51.9976 48.9323C52.4135 48.71 52.9264 48.7309 53.3689 48.8867C53.8134 49.0443 54.2008 49.3254 54.5712 49.616C55.2949 50.1858 55.9711 50.8088 56.6263 51.4546C55.9236 51.2837 54.7821 51.0273 54.7821 51.0273C54.7821 51.0273 55.3747 51.3996 55.9293 51.7414C55.9559 51.7585 55.9825 51.7737 56.0072 51.7889C55.7469 51.8174 55.4715 51.8459 55.198 51.8763C54.3699 51.9656 53.5987 52.0529 53.5987 52.0529C53.5987 52.0529 54.3699 52.1384 55.198 52.2296C55.4715 52.26 55.7469 52.2884 56.0072 52.3169C55.9806 52.334 55.9559 52.3492 55.9293 52.3644C55.3747 52.7063 54.7821 53.0786 54.7821 53.0786C54.7821 53.0786 55.9236 52.8222 56.6263 52.6512C55.9711 53.297 55.293 53.92 54.5712 54.4898C54.2008 54.7804 53.8134 55.0634 53.3689 55.2192C52.9245 55.3768 52.4116 55.3958 51.9976 55.1736V55.1774Z" fill="#E2BE74"/>
<path d="M58.0305 52.0548C58.0305 52.3283 57.8083 52.5505 57.5348 52.5505C57.2613 52.5505 57.0391 52.3283 57.0391 52.0548C57.0391 51.7813 57.2613 51.5591 57.5348 51.5591C57.8083 51.5591 58.0305 51.7813 58.0305 52.0548Z" fill="#E2BE74"/>
<path d="M63.0811 46.8733C63.0526 46.9397 62.9994 47.0195 62.9614 47.0594L62.9197 47.0974L62.8361 47.1696L62.6765 47.3025L62.3612 47.5608L61.7287 48.0699L60.46 49.0822L61.3869 47.7508L61.8465 47.0841L62.0725 46.7517L62.1827 46.5865L62.2321 46.5086L62.2549 46.4706C62.2378 46.4858 62.2036 46.5371 62.196 46.577C62.2777 46.3319 62.5417 46.199 62.7867 46.2807C63.0317 46.3623 63.1647 46.6263 63.083 46.8714L63.0811 46.8733Z" fill="#E2BE74"/>
<path d="M52.1021 46.8733C52.1306 46.9397 52.1838 47.0195 52.2218 47.0594L52.2636 47.0974L52.3472 47.1696L52.5067 47.3025L52.822 47.5608L53.4545 48.0699L54.7233 49.0822L53.7964 47.7508L53.3367 47.0841L53.1107 46.7517L53.0005 46.5865L52.9512 46.5086L52.9284 46.4706C52.9455 46.4858 52.9796 46.5371 52.9872 46.577C52.9056 46.3319 52.6416 46.199 52.3965 46.2807C52.1515 46.3623 52.0186 46.6263 52.1002 46.8714L52.1021 46.8733Z" fill="#E2BE74"/>
<path d="M52.1021 57.2363C52.1306 57.1698 52.1838 57.0901 52.2218 57.0502L52.2636 57.0122L52.3472 56.94L52.5067 56.8071L52.822 56.5487L53.4545 56.0397L54.7233 55.0273L53.7964 56.3588L53.3367 57.0255L53.1107 57.3579L53.0005 57.5231L52.9512 57.601L52.9284 57.639C52.9455 57.6238 52.9796 57.5725 52.9872 57.5326C52.9056 57.7776 52.6416 57.9106 52.3965 57.8289C52.1515 57.7472 52.0186 57.4832 52.1002 57.2382L52.1021 57.2363Z" fill="#E2BE74"/>
<path d="M63.0811 57.2363C63.0526 57.1698 62.9994 57.0901 62.9614 57.0502L62.9197 57.0122L62.8361 56.94L62.6765 56.8071L62.3612 56.5487L61.7287 56.0397L60.46 55.0273L61.3869 56.3588L61.8465 57.0255L62.0725 57.3579L62.1827 57.5231L62.2321 57.601L62.2549 57.639C62.2378 57.6238 62.2036 57.5725 62.196 57.5326C62.2777 57.7776 62.5417 57.9106 62.7867 57.8289C63.0317 57.7472 63.1647 57.4832 63.083 57.2382L63.0811 57.2363Z" fill="#E2BE74"/>
<path d="M56.5831 62.4519C56.3931 62.431 56.2469 62.2619 56.2678 62.0739C56.2811 61.8782 56.4577 61.7377 56.6458 61.751C56.8414 61.7719 56.9819 61.9409 56.961 62.1366C56.9478 62.3189 56.792 62.4519 56.6173 62.4519H56.5812H56.5831ZM58.1254 62.129C58.1045 61.939 58.2526 61.7719 58.4407 61.751C58.6363 61.7301 58.8053 61.8783 58.8262 62.0663C58.8395 62.2619 58.699 62.431 58.5109 62.4519H58.4767C58.2944 62.4519 58.1406 62.3113 58.1254 62.129ZM54.6894 62.1005C54.5071 62.0511 54.395 61.8555 54.4501 61.6655C54.4995 61.4832 54.6951 61.3711 54.8774 61.4281C55.0674 61.4775 55.1718 61.6731 55.1225 61.8555C55.0807 62.0169 54.9401 62.1157 54.7863 62.1157C54.7502 62.1157 54.7236 62.1081 54.6875 62.1024L54.6894 62.1005ZM59.9716 61.8555C59.9146 61.6655 60.0209 61.4775 60.2109 61.4205C60.3932 61.3635 60.5889 61.4775 60.6458 61.6598C60.6952 61.8498 60.5907 62.0454 60.4008 62.0948C60.3723 62.1024 60.3381 62.1081 60.3021 62.1081C60.1539 62.1081 60.0152 62.0093 59.9716 61.8555ZM52.8945 61.4072C52.7197 61.3236 52.6495 61.1128 52.733 60.9381C52.8242 60.769 53.035 60.6931 53.2022 60.7842C53.3769 60.8678 53.4472 61.0786 53.3636 61.2534C53.301 61.373 53.1737 61.4433 53.0483 61.4433C52.999 61.4433 52.942 61.4357 52.8945 61.4072ZM61.7247 61.2382C61.6411 61.0691 61.7114 60.8602 61.8861 60.769C62.0552 60.6854 62.2641 60.7557 62.3572 60.9305C62.4407 61.1052 62.3705 61.3084 62.1957 61.3996C62.1463 61.4205 62.097 61.4338 62.0419 61.4338C61.9146 61.4338 61.7893 61.3635 61.7266 61.2382H61.7247ZM51.2534 60.3967C51.0996 60.2771 51.0711 60.0606 51.1908 59.9067C51.3028 59.7529 51.5269 59.7168 51.6827 59.8364C51.8365 59.9561 51.865 60.1726 51.7454 60.3265C51.6827 60.4176 51.5763 60.467 51.4643 60.467C51.394 60.467 51.3161 60.4461 51.2534 60.3967ZM63.3391 60.3132C63.2271 60.1593 63.2556 59.9409 63.4094 59.8231C63.5633 59.7035 63.7874 59.7396 63.8995 59.8934C64.0191 60.0473 63.983 60.2657 63.8368 60.3835C63.7665 60.4328 63.6962 60.4537 63.6184 60.4537C63.5139 60.4537 63.4075 60.4043 63.3372 60.3132H63.3391ZM49.8308 59.0995C49.7054 58.9589 49.7111 58.7348 49.8517 58.6018C49.9998 58.4765 50.2164 58.4822 50.3493 58.6303C50.4823 58.7709 50.469 58.9874 50.3284 59.1223C50.2582 59.1849 50.1746 59.2134 50.0891 59.2134C49.9979 59.2134 49.8992 59.1793 49.8289 59.1014L49.8308 59.0995ZM64.7561 59.1071C64.6155 58.9741 64.6079 58.7557 64.7352 58.6094C64.8681 58.4689 65.0866 58.4613 65.2328 58.5885C65.3734 58.7215 65.3867 58.9456 65.2537 59.0862C65.1834 59.164 65.0923 59.1982 64.9935 59.1982C64.9099 59.1982 64.8244 59.1697 64.7542 59.1071H64.7561ZM48.6665 57.5705C48.5677 57.4014 48.6171 57.1849 48.7785 57.0861C48.9476 56.9798 49.1641 57.0292 49.2629 57.1982C49.3693 57.3596 49.3199 57.5762 49.1508 57.6749C49.0938 57.7167 49.0312 57.7319 48.9685 57.7319C48.8488 57.7319 48.7368 57.6749 48.6665 57.5705ZM65.9356 57.6616C65.7665 57.5572 65.7172 57.3464 65.8235 57.1773C65.9223 57.0159 66.1388 56.9589 66.3079 57.0652C66.4693 57.1697 66.5187 57.3805 66.4199 57.5496C66.3496 57.6559 66.2376 57.7186 66.1179 57.7186C66.0553 57.7186 65.9907 57.6977 65.9356 57.6616ZM47.8042 55.8458C47.7339 55.6635 47.8251 55.4603 48.0074 55.39C48.1897 55.3197 48.393 55.4109 48.4633 55.5932C48.5335 55.768 48.4424 55.9712 48.26 56.0415C48.2182 56.0624 48.1764 56.07 48.1328 56.07C47.9922 56.07 47.8593 55.9864 47.8042 55.8458ZM66.8264 56.0282C66.6441 55.9579 66.5529 55.7547 66.6232 55.5723C66.6934 55.39 66.8967 55.2988 67.079 55.3691C67.2538 55.4394 67.3449 55.6426 67.2746 55.825C67.2177 55.9655 67.0847 56.0491 66.9442 56.0491C66.9024 56.0491 66.8606 56.0415 66.8245 56.0282H66.8264ZM47.278 53.994C47.242 53.804 47.3692 53.6217 47.5592 53.5875C47.7491 53.5457 47.9314 53.6711 47.9656 53.861C47.9998 54.0566 47.8744 54.239 47.6845 54.2751C47.6636 54.2751 47.6427 54.2826 47.6218 54.2826C47.4604 54.2826 47.3065 54.163 47.278 53.9959V53.994ZM67.3943 54.2542C67.2044 54.2181 67.079 54.0357 67.1132 53.8477C67.1474 53.6502 67.3297 53.5324 67.5197 53.5666C67.7096 53.6008 67.835 53.7831 67.8008 53.9731C67.7723 54.1421 67.6184 54.2599 67.457 54.2599C67.4361 54.2599 67.4152 54.2599 67.3943 54.2523V54.2542ZM47.0957 52.0794C47.0957 51.8837 47.2572 51.728 47.4471 51.728C47.6427 51.7204 47.7985 51.8818 47.7985 52.0794C47.7985 52.2693 47.6446 52.4308 47.4471 52.4308C47.2572 52.4308 47.0957 52.2693 47.0957 52.0794ZM67.2746 52.0585V52.0376V52.0167C67.2746 51.8211 67.4285 51.6653 67.626 51.6653C67.8217 51.6577 67.9774 51.8192 67.9774 52.0167V52.0376V52.0585C67.9774 52.2484 67.8236 52.4099 67.626 52.4099C67.4361 52.4099 67.2746 52.2484 67.2746 52.0585ZM47.5516 50.5713C47.3616 50.5352 47.2363 50.3471 47.2704 50.1572C47.3046 49.9673 47.487 49.8419 47.6769 49.8761C47.8668 49.9122 47.9922 50.0926 47.958 50.2826C47.9295 50.4516 47.7833 50.5694 47.6142 50.5694H47.5516V50.5713ZM67.1075 50.2275C67.0657 50.0376 67.1911 49.8552 67.381 49.821C67.5766 49.7792 67.759 49.9046 67.7951 50.0945C67.8293 50.2845 67.7039 50.4668 67.514 50.5086H67.4513C67.2822 50.5086 67.136 50.3965 67.1075 50.2275ZM47.9941 48.7612C47.8118 48.6909 47.7206 48.4877 47.7909 48.3053C47.8612 48.123 48.0644 48.0318 48.2467 48.1021C48.4215 48.1724 48.5126 48.3756 48.45 48.558C48.393 48.6985 48.26 48.7821 48.1195 48.7821C48.0777 48.7821 48.0359 48.7745 47.9922 48.7612H47.9941ZM66.6099 48.501C66.5396 48.3186 66.6232 48.1154 66.8055 48.0451C66.9878 47.9748 67.1911 48.066 67.2613 48.2408C67.3316 48.4231 67.2405 48.6263 67.0657 48.6966C67.0239 48.7175 66.9821 48.7251 66.9328 48.7251C66.7922 48.7251 66.6592 48.6415 66.6099 48.501ZM48.7671 47.0631C48.5981 46.9587 48.5487 46.7478 48.6475 46.5788C48.752 46.4174 48.9628 46.3623 49.1318 46.4667C49.2933 46.5655 49.3484 46.782 49.2439 46.9435C49.1812 47.0556 49.0616 47.1125 48.9495 47.1125C48.8868 47.1125 48.8222 47.0992 48.7671 47.0631ZM65.8045 46.8941C65.7001 46.7327 65.7476 46.5161 65.9166 46.4098C66.078 46.311 66.2946 46.3604 66.3933 46.5218H66.4009C66.4997 46.6909 66.4503 46.9074 66.2889 47.0062C66.2262 47.0403 66.1635 47.0631 66.0989 47.0631C65.9793 47.0631 65.8672 47.0005 65.8045 46.8941ZM49.8327 45.5341C49.6845 45.4069 49.6789 45.1828 49.8042 45.0441C49.9372 44.896 50.1556 44.8903 50.3018 45.0156C50.4424 45.1486 50.4557 45.367 50.3227 45.5133C50.2525 45.5911 50.1613 45.6253 50.0625 45.6253C49.979 45.6253 49.8935 45.5968 49.8308 45.5341H49.8327ZM64.7162 45.4715C64.5832 45.3233 64.5889 45.1068 64.7295 44.9738C64.8776 44.8409 65.0942 44.8466 65.2271 44.9947C65.3601 45.1353 65.3468 45.3594 65.2062 45.4924C65.1435 45.5493 65.0524 45.5835 64.9688 45.5835C64.8776 45.5835 64.7789 45.5417 64.7162 45.4715ZM51.1585 44.2293C51.0388 44.0754 51.0673 43.857 51.2211 43.7373C51.375 43.6177 51.5991 43.6538 51.7188 43.8076C51.8308 43.9615 51.8024 44.1799 51.6485 44.2996C51.5858 44.3489 51.5079 44.3698 51.4377 44.3698C51.3332 44.3698 51.2268 44.3204 51.1566 44.2293H51.1585ZM63.3771 44.2635C63.2233 44.1438 63.1948 43.9197 63.3145 43.7734C63.4265 43.612 63.6506 43.5835 63.8045 43.7031C63.9583 43.8152 63.9868 44.0393 63.8748 44.1932C63.8045 44.2843 63.7 44.3337 63.5937 44.3337C63.5158 44.3337 63.4398 44.3052 63.3771 44.2635ZM52.7027 43.1903C52.6191 43.0156 52.6894 42.8047 52.8565 42.7212C53.0312 42.63 53.2421 42.7003 53.3332 42.875C53.4168 43.0498 53.3465 43.2606 53.1718 43.3442C53.1224 43.3727 53.0673 43.3803 53.0179 43.3803C52.8926 43.3803 52.7653 43.31 52.7027 43.1903ZM61.8481 43.3157C61.6791 43.2321 61.6107 43.0213 61.6943 42.8465C61.7779 42.6775 61.9887 42.6015 62.1634 42.6927C62.3325 42.7763 62.4085 42.9871 62.3173 43.1618C62.2603 43.2815 62.1349 43.3575 62.0096 43.3575C61.9526 43.3575 61.9032 43.3442 61.8481 43.3157ZM54.414 42.4534C54.357 42.2634 54.471 42.0678 54.6514 42.0184C54.8413 41.9614 55.0294 42.0678 55.0864 42.2558C55.1433 42.4382 55.0294 42.6338 54.847 42.6908C54.8129 42.6984 54.7844 42.7041 54.7483 42.7041C54.5944 42.7041 54.4539 42.6053 54.4121 42.4515L54.414 42.4534ZM60.1729 42.6775C59.9905 42.6205 59.8785 42.4249 59.9336 42.2425C59.983 42.0526 60.1786 41.9481 60.3609 41.9975C60.5509 42.0545 60.6629 42.2425 60.6059 42.4325C60.5642 42.5863 60.4236 42.6851 60.2698 42.6851C60.2356 42.6851 60.2071 42.6851 60.171 42.6775H60.1729ZM56.2317 42.0393C56.2108 41.8494 56.3514 41.6822 56.547 41.6613C56.7369 41.6404 56.9117 41.7886 56.925 41.9766C56.9459 42.1666 56.8053 42.3413 56.6097 42.3546C56.6097 42.3546 56.5888 42.3622 56.5755 42.3622C56.4007 42.3622 56.245 42.2216 56.2317 42.0393ZM58.4122 42.3546C58.2165 42.3337 58.076 42.1647 58.0893 41.969C58.1026 41.7791 58.2792 41.6404 58.4673 41.6537C58.6629 41.6746 58.8034 41.8436 58.7901 42.0317C58.7693 42.214 58.6211 42.3546 58.4388 42.3546H58.4103H58.4122Z" fill="#E2BE74"/>
<path d="M15.5265 26.1397C15.4164 26.1397 15.3252 26.0504 15.3252 25.9384C15.3252 25.8263 15.4145 25.7371 15.5265 25.7371C15.6386 25.7371 15.7279 25.8263 15.7279 25.9384C15.7279 26.0504 15.6386 26.1397 15.5265 26.1397Z" fill="#E2BE74"/>
<path d="M14.4222 28.8861C14.6257 28.8861 14.7907 28.7212 14.7907 28.5177C14.7907 28.3142 14.6257 28.1492 14.4222 28.1492C14.2187 28.1492 14.0537 28.3142 14.0537 28.5177C14.0537 28.7212 14.2187 28.8861 14.4222 28.8861Z" fill="#E2BE74"/>
<path d="M13.5865 31.6935C13.3111 31.6935 13.0889 31.4713 13.0889 31.1959C13.0889 30.9205 13.3111 30.6982 13.5865 30.6982C13.8619 30.6982 14.0841 30.9205 14.0841 31.1959C14.0841 31.4713 13.8619 31.6935 13.5865 31.6935Z" fill="#E2BE74"/>
<path d="M13.0225 34.5312C12.6977 34.5312 12.4355 34.2672 12.4355 33.9443C12.4355 33.6214 12.6996 33.3574 13.0225 33.3574C13.3453 33.3574 13.6094 33.6214 13.6094 33.9443C13.6094 34.2672 13.3453 34.5312 13.0225 34.5312Z" fill="#E2BE74"/>
<path d="M12.7336 37.3823C12.3765 37.3823 12.0859 37.0917 12.0859 36.7346C12.0859 36.3775 12.3765 36.0869 12.7336 36.0869C13.0907 36.0869 13.3813 36.3775 13.3813 36.7346C13.3813 37.0917 13.0907 37.3823 12.7336 37.3823Z" fill="#E2BE74"/>
<path d="M12.7267 40.2254C12.3487 40.2254 12.041 39.9195 12.041 39.5397C12.041 39.1598 12.3468 38.854 12.7267 38.854C13.1066 38.854 13.4124 39.1598 13.4124 39.5397C13.4124 39.9195 13.1066 40.2254 12.7267 40.2254Z" fill="#E2BE74"/>
<path d="M13.0017 43.0328C13.3887 43.0328 13.7025 42.7191 13.7025 42.332C13.7025 41.9449 13.3887 41.6311 13.0017 41.6311C12.6146 41.6311 12.3008 41.9449 12.3008 42.332C12.3008 42.7191 12.6146 43.0328 13.0017 43.0328Z" fill="#E2BE74"/>
<path d="M13.5645 45.7677C13.1847 45.7677 12.877 45.46 12.877 45.0802C12.877 44.7003 13.1847 44.3926 13.5645 44.3926C13.9444 44.3926 14.2521 44.7003 14.2521 45.0802C14.2521 45.46 13.9444 45.7677 13.5645 45.7677Z" fill="#E2BE74"/>
<path d="M14.4014 48.4116C14.0386 48.4116 13.7461 48.1191 13.7461 47.7563C13.7461 47.3936 14.0386 47.1011 14.4014 47.1011C14.7642 47.1011 15.0567 47.3936 15.0567 47.7563C15.0567 48.1191 14.7623 48.4116 14.4014 48.4116Z" fill="#E2BE74"/>
<path d="M15.5055 50.936C15.175 50.936 14.9053 50.6682 14.9053 50.3358C14.9053 50.0034 15.1731 49.7356 15.5055 49.7356C15.8379 49.7356 16.1057 50.0034 16.1057 50.3358C16.1057 50.6682 15.8379 50.936 15.5055 50.936Z" fill="#E2BE74"/>
<path d="M16.8575 53.3083C16.5726 53.3083 16.3428 53.0784 16.3428 52.7935C16.3428 52.5086 16.5726 52.2788 16.8575 52.2788C17.1424 52.2788 17.3722 52.5086 17.3722 52.7935C17.3722 53.0784 17.1424 53.3083 16.8575 53.3083Z" fill="#E2BE74"/>
<path d="M18.4508 55.4964C18.2343 55.4964 18.0596 55.3217 18.0596 55.1051C18.0596 54.8886 18.2343 54.7139 18.4508 54.7139C18.6674 54.7139 18.8421 54.8886 18.8421 55.1051C18.8421 55.3217 18.6674 55.4964 18.4508 55.4964Z" fill="#E2BE74"/>
<path d="M20.0843 57.2779C19.957 57.2779 19.8525 57.1734 19.8525 57.0462C19.8525 56.9189 19.957 56.8145 20.0843 56.8145C20.2115 56.8145 20.316 56.9189 20.316 57.0462C20.316 57.1734 20.2115 57.2779 20.0843 57.2779Z" fill="#E2BE74"/>
<path d="M25.7881 36.3983C24.9087 35.7563 23.9913 35.1371 22.7339 34.8617C21.5506 34.5939 20.1982 34.7078 18.9978 35.2131C17.8259 35.7088 16.7774 36.5863 15.9873 37.6747C17.4935 36.8598 19.1896 36.4325 20.8573 36.2672C22.5287 36.102 24.2021 36.1875 25.79 36.4002L25.7881 36.3983Z" fill="#E2BE74"/>
<path d="M27.3558 41.7584C26.8696 41.5418 26.3435 41.35 25.7889 41.2094C25.2475 41.0651 24.6625 40.9777 24.03 40.9929C22.803 41.0233 21.5229 41.464 20.4915 42.2408C19.4563 43.0139 18.6586 44.1117 18.1553 45.3539C20.7251 43.0386 24.2067 42.0965 27.3558 41.7584Z" fill="#E2BE74"/>
<path d="M30.1607 46.5693C29.1122 46.3983 27.9593 46.3166 26.7513 46.6414C25.5756 46.9624 24.4378 47.6994 23.6173 48.7042C22.7835 49.7127 22.3181 50.9454 22.1035 52.2997C24.0523 49.4088 27.19 47.6747 30.1607 46.5693Z" fill="#E2BE74"/>
<path d="M29.899 57.9675C28.729 57.9675 27.6957 58.5544 27.0727 59.4471C26.8866 59.4148 26.6967 59.3958 26.5029 59.3901C27.1943 58.2353 28.4555 57.4565 29.899 57.4565C31.3425 57.4565 32.6018 58.2353 33.2932 59.3901C33.0995 59.3958 32.9095 59.4148 32.7234 59.4471C32.1004 58.5544 31.0671 57.9675 29.8971 57.9675H29.899Z" fill="#E2BE74"/>
<path d="M29.8989 58.9816C29.1886 58.9816 28.5504 59.2893 28.1059 59.7775C27.9445 59.6996 27.7773 59.6293 27.6045 59.5743C28.1439 58.9019 28.972 58.4707 29.8989 58.4707C30.8258 58.4707 31.6521 58.9019 32.1934 59.5743C32.0205 59.6293 31.8553 59.6996 31.6919 59.7775C31.2475 59.2912 30.6093 58.9816 29.8989 58.9816Z" fill="#E2BE74"/>
<path d="M29.8986 59.998C29.5453 59.998 29.2225 60.129 28.9736 60.3436C28.8426 60.2316 28.7039 60.1252 28.5596 60.0302C28.9072 59.694 29.3801 59.4851 29.9005 59.4851C30.421 59.4851 30.8939 59.694 31.2415 60.0302C31.0952 60.1252 30.9585 60.2297 30.8274 60.3436C30.5786 60.129 30.2557 59.998 29.9024 59.998H29.8986Z" fill="#E2BE74"/>
<path d="M29.8991 61.0124C29.8061 61.0124 29.7225 61.0447 29.6541 61.0978C29.5572 60.9573 29.449 60.8262 29.3369 60.7009C29.4927 60.5774 29.6864 60.5015 29.8991 60.5015C30.1119 60.5015 30.3056 60.5774 30.4613 60.7009C30.3474 60.8262 30.241 60.9592 30.1441 61.0978C30.0758 61.0447 29.9922 61.0124 29.8991 61.0124Z" fill="#E2BE74"/>
<path d="M37.2115 57.9675C36.0415 57.9675 35.0082 58.5544 34.3852 59.4471C34.1991 59.4148 34.0092 59.3958 33.8154 59.3901C34.5068 58.2353 35.768 57.4565 37.2115 57.4565C38.655 57.4565 39.9143 58.2353 40.6057 59.3901C40.412 59.3958 40.222 59.4148 40.0359 59.4471C39.4129 58.5544 38.3796 57.9675 37.2096 57.9675H37.2115Z" fill="#E2BE74"/>
<path d="M37.2114 58.9819C36.5011 58.9819 35.8629 59.2896 35.4184 59.7777C35.257 59.6998 35.0898 59.6296 34.917 59.5745C35.4564 58.9021 36.2845 58.4709 37.2114 58.4709C38.1383 58.4709 38.9646 58.9021 39.5059 59.5745C39.333 59.6296 39.1678 59.6998 39.0044 59.7777C38.56 59.2915 37.9218 58.9819 37.2114 58.9819Z" fill="#E2BE74"/>
<path d="M37.2111 59.998C36.8578 59.998 36.535 60.129 36.2861 60.3436C36.1551 60.2316 36.0164 60.1252 35.8721 60.0302C36.2197 59.694 36.6926 59.4851 37.213 59.4851C37.7335 59.4851 38.2064 59.694 38.554 60.0302C38.4077 60.1252 38.271 60.2297 38.1399 60.3436C37.8911 60.129 37.5682 59.998 37.2149 59.998H37.2111Z" fill="#E2BE74"/>
<path d="M37.2116 61.0124C37.1186 61.0124 37.035 61.0447 36.9666 61.0978C36.8697 60.9573 36.7615 60.8262 36.6494 60.7009C36.8052 60.5774 36.9989 60.5015 37.2116 60.5015C37.4244 60.5015 37.6181 60.5774 37.7738 60.7009C37.6599 60.8262 37.5535 60.9592 37.4566 61.0978C37.3883 61.0447 37.3047 61.0124 37.2116 61.0124Z" fill="#E2BE74"/>
<path d="M26.2447 60.4253C25.0747 60.4253 24.0414 61.0121 23.4184 61.9048C23.2323 61.8726 23.0424 61.8536 22.8486 61.8479C23.54 60.6931 24.8012 59.9143 26.2447 59.9143C27.6882 59.9143 28.9475 60.6931 29.6389 61.8479C29.4452 61.8536 29.2552 61.8726 29.0691 61.9048C28.4461 61.0121 27.4128 60.4253 26.2428 60.4253H26.2447Z" fill="#E2BE74"/>
<path d="M26.2446 61.4416C25.5343 61.4416 24.8961 61.7493 24.4516 62.2374C24.2902 62.1596 24.123 62.0893 23.9502 62.0342C24.4896 61.3618 25.3177 60.9307 26.2446 60.9307C27.1715 60.9307 27.9978 61.3618 28.5391 62.0342C28.3662 62.0893 28.201 62.1596 28.0376 62.2374C27.5932 61.7512 26.955 61.4416 26.2446 61.4416Z" fill="#E2BE74"/>
<path d="M26.2443 62.4557C25.891 62.4557 25.5682 62.5868 25.3193 62.8014C25.1883 62.6893 25.0496 62.583 24.9053 62.488C25.2529 62.1518 25.7258 61.9429 26.2462 61.9429C26.7667 61.9429 27.2396 62.1518 27.5872 62.488C27.4409 62.583 27.3042 62.6874 27.1731 62.8014C26.9243 62.5868 26.6014 62.4557 26.2481 62.4557H26.2443Z" fill="#E2BE74"/>
<path d="M26.2429 63.4699C26.1498 63.4699 26.0662 63.5022 25.9979 63.5554C25.901 63.4148 25.7927 63.2838 25.6807 63.1584C25.8364 63.035 26.0301 62.959 26.2429 62.959C26.4556 62.959 26.6493 63.035 26.8051 63.1584C26.6911 63.2838 26.5848 63.4167 26.4879 63.5554C26.4195 63.5022 26.3359 63.4699 26.2429 63.4699Z" fill="#E2BE74"/>
<path d="M33.5553 60.4253C32.3852 60.4253 31.352 61.0121 30.729 61.9048C30.5429 61.8726 30.3529 61.8536 30.1592 61.8479C30.8506 60.6931 32.1117 59.9143 33.5553 59.9143C34.9988 59.9143 36.2581 60.6931 36.9494 61.8479C36.7557 61.8536 36.5658 61.8726 36.3796 61.9048C35.7566 61.0121 34.7234 60.4253 33.5534 60.4253H33.5553Z" fill="#E2BE74"/>
<path d="M33.5552 61.4414C32.8448 61.4414 32.2066 61.7491 31.7622 62.2372C31.6007 62.1593 31.4336 62.089 31.2607 62.034C31.8002 61.3616 32.6283 60.9304 33.5552 60.9304C34.4821 60.9304 35.3083 61.3616 35.8496 62.034C35.6768 62.089 35.5115 62.1593 35.3482 62.2372C34.9037 61.751 34.2655 61.4414 33.5552 61.4414Z" fill="#E2BE74"/>
<path d="M33.5549 62.4557C33.2016 62.4557 32.8787 62.5868 32.6299 62.8014C32.4988 62.6893 32.3602 62.583 32.2158 62.488C32.5634 62.1518 33.0363 61.9429 33.5568 61.9429C34.0772 61.9429 34.5501 62.1518 34.8977 62.488C34.7515 62.583 34.6147 62.6874 34.4837 62.8014C34.2349 62.5868 33.912 62.4557 33.5587 62.4557H33.5549Z" fill="#E2BE74"/>
<path d="M33.5554 63.4699C33.4623 63.4699 33.3787 63.5022 33.3104 63.5554C33.2135 63.4148 33.1052 63.2838 32.9932 63.1584C33.1489 63.035 33.3426 62.959 33.5554 62.959C33.7681 62.959 33.9618 63.035 34.1176 63.1584C34.0036 63.2838 33.8973 63.4167 33.8004 63.5554C33.732 63.5022 33.6484 63.4699 33.5554 63.4699Z" fill="#E2BE74"/>
<path d="M34.917 50.4022C33.8837 50.4022 32.9701 50.9208 32.4174 51.709C32.254 51.6805 32.085 51.6634 31.9141 51.6596C32.5257 50.6378 33.6406 49.9502 34.917 49.9502C36.1934 49.9502 37.3064 50.6378 37.9199 51.6596C37.7489 51.6634 37.5799 51.6805 37.4165 51.709C36.8657 50.9189 35.9521 50.4003 34.917 50.4003V50.4022Z" fill="#E2BE74"/>
<path d="M34.9162 51.2987C34.2875 51.2987 33.7234 51.5703 33.3302 52.0015C33.1878 51.9331 33.0396 51.8704 32.8877 51.821C33.3644 51.2265 34.0957 50.8447 34.9162 50.8447C35.7368 50.8447 36.468 51.2265 36.9448 51.821C36.7928 51.8704 36.6447 51.9312 36.5022 52.0015C36.109 51.5703 35.5449 51.2987 34.9162 51.2987Z" fill="#E2BE74"/>
<path d="M34.9167 52.1971C34.6033 52.1971 34.3184 52.313 34.098 52.5029C33.9822 52.4022 33.8606 52.3111 33.7314 52.2256C34.0391 51.9274 34.457 51.7432 34.9167 51.7432C35.3763 51.7432 35.7942 51.9274 36.1019 52.2256C35.9727 52.3092 35.8511 52.4022 35.7353 52.5029C35.515 52.313 35.23 52.1971 34.9167 52.1971Z" fill="#E2BE74"/>
<path d="M34.9166 53.0937C34.8349 53.0937 34.7608 53.1221 34.7 53.1696C34.6146 53.0462 34.5196 52.9303 34.4189 52.8182C34.5557 52.71 34.7285 52.6416 34.9166 52.6416C35.1046 52.6416 35.2775 52.71 35.4142 52.8182C35.3135 52.9303 35.2186 53.0462 35.1331 53.1696C35.0723 53.1221 34.9983 53.0937 34.9166 53.0937Z" fill="#E2BE74"/>
<mask id="mask0_978_8535" style="mask-type:luminance" maskUnits="userSpaceOnUse" x="6" y="9" width="68" height="57">
<path d="M70.84 60.353C70.0195 61.8478 68.9976 63.2305 67.8428 64.4366C67.6073 64.6873 67.3566 64.9248 67.1135 65.1622L31.7471 65.7168C18.6224 65.9219 7.41804 56.0471 6.22904 42.9756C6.22144 42.8844 6.21194 42.7932 6.20435 42.7021C5.04383 28.6828 11.986 16.1298 22.9036 9.27881C21.4563 10.1867 22.3205 18.0748 22.5333 19.8279C23.2208 25.5413 26.4308 33.2755 31.8421 36.0676C38.5412 39.5244 55.7153 27.6685 67.3889 38.4285C74.597 45.0706 74.4811 53.8305 70.8419 60.3549L70.84 60.353Z" fill="white"/>
</mask>
<g mask="url(#mask0_978_8535)">
<path d="M40.6109 34.5235C40.3222 34.8065 40.1551 35.1674 40.1057 35.5378C39.608 35.2377 38.9736 35.1902 38.4171 35.4694C37.551 35.9025 37.1996 36.9547 37.6327 37.8208C37.8131 38.1836 38.1037 38.4533 38.4418 38.6167C38.0031 38.9965 37.7618 39.5854 37.8549 40.2008C37.9993 41.158 38.892 41.8171 39.8493 41.6728C40.25 41.6139 40.5957 41.4202 40.8559 41.1485C41.082 41.6842 41.5663 42.0944 42.1817 42.197C43.1371 42.3547 44.0393 41.7107 44.1969 40.7554C44.2634 40.3565 44.1874 39.9671 44.0089 39.6366C44.5882 39.5872 45.1295 39.253 45.4163 38.6984C45.8627 37.8398 45.5265 36.7819 44.668 36.3355C44.309 36.1494 43.9158 36.1 43.5454 36.1665C43.6765 35.6005 43.5264 34.9832 43.0896 34.5387C42.4096 33.8492 41.3004 33.8398 40.6109 34.5197V34.5235ZM42.1912 36.2311C42.3564 36.3982 42.4305 36.6356 42.3925 36.8693C42.3906 36.8844 42.3868 36.8996 42.383 36.9148L42.2975 37.2833L42.6698 37.2149C42.8332 37.1845 42.9946 37.2092 43.1409 37.2852C43.4258 37.4315 43.5796 37.743 43.5283 38.0602C43.5169 38.1361 43.4904 38.2102 43.4562 38.2786C43.3403 38.5027 43.1181 38.649 42.8636 38.6718L42.4856 38.706L42.666 39.0402C42.7439 39.1846 42.7705 39.3479 42.7439 39.5094C42.7116 39.7031 42.6052 39.8722 42.4457 39.988C42.2862 40.102 42.0905 40.1476 41.8968 40.1153C41.6461 40.0735 41.439 39.9083 41.3403 39.6746L41.1921 39.3251L40.93 39.6006C40.816 39.7202 40.6698 39.7962 40.5083 39.8209C40.1076 39.8817 39.7315 39.6044 39.6707 39.2036C39.6593 39.1276 39.6593 39.0497 39.6707 38.9738C39.6992 38.8047 39.7866 38.6509 39.9157 38.5369L40.2025 38.2881L39.8607 38.1228C39.7106 38.0507 39.5928 37.9367 39.5207 37.7904C39.4504 37.6499 39.4276 37.4941 39.4523 37.3403C39.4903 37.1086 39.6384 36.9072 39.8493 36.8009C40.0753 36.6869 40.3412 36.6983 40.5596 36.8294L40.8844 37.025L40.9357 36.6489L40.9395 36.6261C40.9661 36.4723 41.0383 36.3317 41.1484 36.2235C41.289 36.0848 41.4732 36.0107 41.6708 36.0126C41.8683 36.0126 42.0525 36.0924 42.1893 36.233L42.1912 36.2311Z" fill="#E2BE74"/>
<path d="M41.53 37.4714C41.8225 37.5208 42.0201 37.7981 41.9726 38.0906C41.9232 38.3831 41.6459 38.5806 41.3534 38.5331C41.0609 38.4857 40.8614 38.2064 40.9108 37.9139C40.9602 37.6214 41.2375 37.4239 41.53 37.4714Z" fill="#E2BE74"/>
<path d="M35.7776 37.6728C34.7367 37.7051 33.9219 38.6833 33.9219 38.6833C33.9219 38.6833 34.7956 39.6083 35.8364 39.576C36.8773 39.5418 37.6921 38.5636 37.6921 38.5636C37.6921 38.5636 36.8184 37.6386 35.7776 37.6728ZM37.4205 38.5712C37.4205 38.5712 36.9495 39.1372 36.3455 39.1562C35.7434 39.1752 35.2362 38.6396 35.2362 38.6396C35.2362 38.6396 35.7073 38.0736 36.3113 38.0546C36.9134 38.0356 37.4205 38.5712 37.4205 38.5712Z" fill="#E2BE74"/>
<path d="M36.26 40.311C36.5809 39.6253 37.4699 39.3613 37.4699 39.3613C37.4699 39.3613 37.8364 40.2122 37.5135 40.8979C37.1906 41.5836 36.3036 41.8457 36.3036 41.8457C36.3036 41.8457 35.9371 40.9948 36.26 40.3091V40.311Z" fill="#E2BE74"/>
<path d="M34.7442 42.7403C34.8543 41.1335 35.8496 40.2294 35.937 40.1382C35.8344 40.2123 34.6283 40.8638 34.1953 42.6663C33.9711 43.5704 34.1953 44.9303 35.2342 45.7034C36.2751 46.5391 37.9959 46.3567 38.8164 45.2266C39.7016 44.1801 39.0463 42.3434 37.844 42.3908C37.3444 42.4098 36.9968 42.6681 36.8905 43.0537C36.7917 43.4146 37.0063 43.7888 37.3691 43.8875C37.6749 43.9692 37.9845 43.8287 38.1346 43.5666C38.2105 43.823 38.1897 44.1839 37.9218 44.5675C37.5116 45.1715 36.4612 45.3957 35.7774 44.9436C35.0082 44.4897 34.6853 43.5647 34.7423 42.7403H34.7442Z" fill="#E2BE74"/>
<path d="M55.5423 35.175C54.7275 35.175 54.0058 35.5833 53.5708 36.2063C53.4416 36.1835 53.3087 36.1702 53.1738 36.1664C53.6563 35.3611 54.5357 34.8179 55.5423 34.8179C56.549 34.8179 57.4265 35.3611 57.909 36.1664C57.7741 36.1702 57.6412 36.1835 57.512 36.2063C57.077 35.5833 56.3572 35.175 55.5404 35.175H55.5423Z" fill="#E2BE74"/>
<path d="M55.5417 35.8835C55.0459 35.8835 54.6015 36.0981 54.2919 36.4381C54.1798 36.383 54.0639 36.3355 53.9424 36.2956C54.3185 35.8265 54.8959 35.5264 55.5417 35.5264C56.1874 35.5264 56.7649 35.8284 57.1409 36.2956C57.0213 36.3336 56.9054 36.383 56.7914 36.4381C56.4818 36.0981 56.0355 35.8835 55.5417 35.8835Z" fill="#E2BE74"/>
<path d="M55.5419 36.5919C55.295 36.5919 55.069 36.6831 54.8961 36.8331C54.805 36.7553 54.7081 36.6812 54.6074 36.6147C54.8505 36.3792 55.1791 36.2349 55.5419 36.2349C55.9047 36.2349 56.2352 36.3792 56.4764 36.6147C56.3757 36.6812 56.2789 36.7534 56.1877 36.8331C56.0149 36.6831 55.7888 36.5919 55.5419 36.5919Z" fill="#E2BE74"/>
<path d="M55.5426 37.2985C55.478 37.2985 55.4191 37.3213 55.3716 37.3574C55.3033 37.2605 55.2292 37.1674 55.1494 37.0801C55.2577 36.9946 55.3925 36.9414 55.5426 36.9414C55.6926 36.9414 55.8275 36.9946 55.9358 37.0801C55.856 37.1674 55.7819 37.2605 55.7135 37.3574C55.666 37.3213 55.6072 37.2985 55.5426 37.2985Z" fill="#E2BE74"/>
<path d="M52.9935 36.89C52.1787 36.89 51.4569 37.2984 51.022 37.9214C50.8928 37.8986 50.7599 37.8853 50.625 37.8815C51.1074 37.0762 51.9869 36.533 52.9935 36.533C54.0002 36.533 54.8777 37.0762 55.3601 37.8815C55.2253 37.8853 55.0923 37.8986 54.9632 37.9214C54.5282 37.2984 53.8084 36.89 52.9916 36.89H52.9935Z" fill="#E2BE74"/>
<path d="M52.9928 37.5985C52.4971 37.5985 52.0526 37.8132 51.743 38.1532C51.631 38.0981 51.5151 38.0506 51.3936 38.0107C51.7696 37.5416 52.347 37.2415 52.9928 37.2415C53.6386 37.2415 54.216 37.5435 54.5921 38.0107C54.4724 38.0487 54.3566 38.0981 54.2426 38.1532C53.933 37.8132 53.4867 37.5985 52.9928 37.5985Z" fill="#E2BE74"/>
<path d="M52.9931 38.3051C52.7462 38.3051 52.5201 38.3963 52.3473 38.5463C52.2561 38.4684 52.1593 38.3944 52.0586 38.3279C52.3017 38.0924 52.6303 37.948 52.9931 37.948C53.3559 37.948 53.6864 38.0924 53.9276 38.3279C53.8269 38.3944 53.73 38.4665 53.6389 38.5463C53.466 38.3963 53.24 38.3051 52.9931 38.3051Z" fill="#E2BE74"/>
<path d="M52.9938 39.0136C52.9292 39.0136 52.8703 39.0364 52.8228 39.0724C52.7544 38.9756 52.6804 38.8825 52.6006 38.7951C52.7089 38.7097 52.8437 38.6565 52.9938 38.6565C53.1438 38.6565 53.2787 38.7097 53.3869 38.7951C53.3071 38.8825 53.2331 38.9756 53.1647 39.0724C53.1172 39.0364 53.0583 39.0136 52.9938 39.0136Z" fill="#E2BE74"/>
<path d="M58.0912 36.89C57.2763 36.89 56.5546 37.2984 56.1196 37.9214C55.9905 37.8986 55.8575 37.8853 55.7227 37.8815C56.2051 37.0762 57.0845 36.533 58.0912 36.533C59.0978 36.533 59.9753 37.0762 60.4578 37.8815C60.3229 37.8853 60.19 37.8986 60.0608 37.9214C59.6259 37.2984 58.906 36.89 58.0893 36.89H58.0912Z" fill="#E2BE74"/>
<path d="M58.0915 37.5985C57.5957 37.5985 57.1513 37.8132 56.8417 38.1532C56.7296 38.0981 56.6137 38.0506 56.4922 38.0107C56.8683 37.5416 57.4457 37.2415 58.0915 37.2415C58.7372 37.2415 59.3147 37.5435 59.6907 38.0107C59.5711 38.0487 59.4552 38.0981 59.3412 38.1532C59.0316 37.8132 58.5853 37.5985 58.0915 37.5985Z" fill="#E2BE74"/>
<path d="M58.0907 38.3051C57.8438 38.3051 57.6178 38.3963 57.445 38.5463C57.3538 38.4684 57.2569 38.3944 57.1562 38.3279C57.3994 38.0924 57.728 37.948 58.0907 37.948C58.4535 37.948 58.784 38.0924 59.0252 38.3279C58.9246 38.3944 58.8277 38.4665 58.7365 38.5463C58.5637 38.3963 58.3377 38.3051 58.0907 38.3051Z" fill="#E2BE74"/>
<path d="M58.0914 39.0136C58.0268 39.0136 57.9679 39.0364 57.9205 39.0724C57.8521 38.9756 57.778 38.8825 57.6982 38.7951C57.8065 38.7097 57.9414 38.6565 58.0914 38.6565C58.2415 38.6565 58.3763 38.7097 58.4846 38.7951C58.4048 38.8825 58.3307 38.9756 58.2624 39.0724C58.2149 39.0364 58.156 39.0136 58.0914 39.0136Z" fill="#E2BE74"/>
</g>
<path d="M70.1503 34.7839C71.8009 34.1818 73.6585 34.0945 75.4268 34.4515C77.2027 34.801 78.8988 35.614 80.3063 36.7992C81.7004 37.9996 82.7812 39.5494 83.4137 41.257C84.0538 42.9569 84.2703 44.8202 83.9379 46.5714C83.9189 46.6664 83.8277 46.731 83.7309 46.712C83.6492 46.6968 83.5922 46.6265 83.5865 46.5467C83.4953 44.8297 83.0927 43.1829 82.3994 41.6767C81.6985 40.1781 80.7241 38.8144 79.4896 37.7412C78.2683 36.6529 76.7849 35.8533 75.197 35.3442C73.6015 34.8428 71.894 34.6491 70.1484 34.7839H70.1503Z" fill="#E2BE74"/>
<path d="M73.8896 36.8979C75.504 36.7991 77.1508 37.4639 78.4291 38.518C79.7339 39.5722 80.6551 41.0499 81.2192 42.5998C81.791 44.1573 82.0094 45.8135 81.998 47.428C81.9885 49.0482 81.7644 50.6341 81.4111 52.184C81.3902 52.279 81.2952 52.3398 81.2003 52.317C81.1205 52.298 81.0654 52.2296 81.0635 52.1517C80.997 50.5639 81.0084 48.9988 80.8964 47.4641C80.7862 45.9313 80.5469 44.427 80.0663 43.0062C79.5877 41.5893 78.8545 40.2674 77.8118 39.1999C76.7671 38.1363 75.4338 37.3195 73.8858 36.9928C73.8592 36.9871 73.8421 36.9624 73.8478 36.9358C73.8516 36.915 73.8706 36.8998 73.8915 36.8979H73.8896Z" fill="#E2BE74"/>
<path d="M75.5858 40.3184C76.7349 40.8426 77.601 41.9024 78.074 43.0781C78.545 44.2557 78.6666 45.6062 78.243 46.7895C78.2259 46.837 78.1747 46.8598 78.1291 46.8446C78.0949 46.8332 78.074 46.8009 78.0702 46.7686C77.9581 45.5625 77.7169 44.4552 77.2744 43.4086C76.8356 42.3602 76.2316 41.4143 75.4794 40.4589C75.4491 40.4209 75.4548 40.3639 75.4927 40.3316C75.5193 40.3108 75.5573 40.307 75.5858 40.3203V40.3184Z" fill="#E2BE74"/>
<path d="M35.9746 25.1027C36.2614 25.2508 36.4741 25.2717 36.9053 25.1881C36.6204 25.0666 36.2709 24.9925 35.9746 25.1027Z" fill="#E2BE74"/>
<path d="M36.0508 24.6355C36.3186 24.8216 36.5256 24.8653 36.9625 24.8406C36.7004 24.6887 36.368 24.5633 36.0508 24.6355Z" fill="#E2BE74"/>
<path d="M36.2012 24.174C36.4272 24.4001 36.6285 24.4646 37.0711 24.5159C36.8318 24.326 36.5241 24.1474 36.2012 24.174Z" fill="#E2BE74"/>
<path d="M36.4268 23.7312C36.611 23.999 36.8009 24.094 37.2226 24.2213C37.0156 23.9914 36.7478 23.7559 36.4268 23.7312Z" fill="#E2BE74"/>
<path d="M36.7344 23.3306C36.8654 23.6345 37.0345 23.7636 37.4162 23.9688C37.2624 23.7104 37.0497 23.4217 36.7344 23.3306Z" fill="#E2BE74"/>
<path d="M37.1299 23C37.185 23.3191 37.3255 23.4768 37.6598 23.7693C37.561 23.4806 37.4186 23.1519 37.1299 23Z" fill="#E2BE74"/>
<path d="M37.5839 22.7607C37.5725 23.0893 37.675 23.2774 37.9352 23.6269C37.901 23.323 37.8308 22.9697 37.5839 22.7607Z" fill="#E2BE74"/>
<path d="M38.074 22.624C37.998 22.9374 38.0531 23.1406 38.243 23.5433C38.2753 23.2413 38.2715 22.8842 38.074 22.624Z" fill="#E2BE74"/>
<path d="M38.5707 22.5879C38.4415 22.8842 38.4548 23.0969 38.5688 23.5224C38.6581 23.2261 38.715 22.8747 38.5707 22.5879Z" fill="#E2BE74"/>
<path d="M39.0579 22.6316C38.885 22.907 38.8584 23.1197 38.9078 23.5528C39.0446 23.2774 39.1509 22.9374 39.0579 22.6316Z" fill="#E2BE74"/>
<path d="M39.5205 22.7456C39.3154 22.9963 39.2546 23.1976 39.2451 23.6402C39.4218 23.3914 39.5642 23.0666 39.5205 22.7456Z" fill="#E2BE74"/>
<path d="M39.9581 22.9185C39.7301 23.1388 39.6409 23.3306 39.5801 23.7751C39.7852 23.5471 39.9619 23.2395 39.9581 22.9185Z" fill="#E2BE74"/>
</svg>
