<svg width="80" height="80" viewBox="0 0 80 80" fill="none" xmlns="http://www.w3.org/2000/svg">
<path d="M40 80C62.0914 80 80 62.0914 80 40C80 17.9086 62.0914 0 40 0C17.9086 0 0 17.9086 0 40C0 62.0914 17.9086 80 40 80Z" fill="#F3D351"/>
<path d="M40.0001 77.3162C60.6094 77.3162 77.3164 60.6091 77.3164 39.9999C77.3164 19.3907 60.6094 2.68359 40.0001 2.68359C19.3909 2.68359 2.68384 19.3907 2.68384 39.9999C2.68384 60.6091 19.3909 77.3162 40.0001 77.3162Z" fill="url(#paint0_linear_1709_6008)"/>
<path d="M39.951 10.1829C39.8808 10.1829 39.8232 10.1254 39.8232 10.0551V5.51451C39.8232 5.44423 39.8808 5.38672 39.951 5.38672C40.0213 5.38672 40.0788 5.44423 40.0788 5.51451V10.0551C40.0788 10.1254 40.0213 10.1829 39.951 10.1829Z" fill="white"/>
<path d="M28.4964 12.4822C28.4466 12.4822 28.3993 12.4528 28.3788 12.4029L26.6408 8.20737C26.614 8.1422 26.6446 8.06682 26.7098 8.03999C26.775 8.01315 26.8504 8.04379 26.8772 8.10897L28.6153 12.3045C28.6421 12.3697 28.6114 12.4451 28.5462 12.4719C28.5296 12.4783 28.5143 12.4822 28.4977 12.4822H28.4964Z" fill="white"/>
<path d="M18.7915 18.9883C18.7582 18.9883 18.7263 18.9755 18.7007 18.9512L15.4905 15.741C15.4407 15.6912 15.4407 15.6107 15.4905 15.5608C15.5403 15.511 15.6209 15.511 15.6707 15.5608L18.8809 18.7711C18.9308 18.8209 18.9308 18.9014 18.8809 18.9512C18.8554 18.9768 18.8234 18.9883 18.7902 18.9883H18.7915Z" fill="white"/>
<path d="M12.3169 28.7122C12.3003 28.7122 12.2837 28.7096 12.2684 28.7019L8.07286 26.9639C8.00768 26.9371 7.97701 26.8616 8.00385 26.7965C8.03069 26.7313 8.10481 26.7006 8.17126 26.7275L12.3668 28.4655C12.432 28.4923 12.4626 28.5677 12.4358 28.6329C12.4153 28.6815 12.3681 28.7122 12.3182 28.7122H12.3169Z" fill="white"/>
<path d="M10.0553 40.1745H5.51476C5.44447 40.1745 5.38696 40.117 5.38696 40.0467C5.38696 39.9765 5.44447 39.9189 5.51476 39.9189H10.0553C10.1256 39.9189 10.1831 39.9765 10.1831 40.0467C10.1831 40.117 10.1256 40.1745 10.0553 40.1745Z" fill="white"/>
<path d="M8.15828 53.3684C8.10844 53.3684 8.06116 53.339 8.04071 53.2892C8.01388 53.224 8.04455 53.1486 8.10972 53.1218L12.3052 51.3837C12.3704 51.3569 12.4458 51.3876 12.4727 51.4527C12.4995 51.5179 12.4688 51.5933 12.4037 51.6202L8.20813 53.3582C8.19279 53.3646 8.17618 53.3684 8.15956 53.3684H8.15828Z" fill="white"/>
<path d="M26.8458 72.0046C26.8292 72.0046 26.8126 72.0021 26.7972 71.9944C26.732 71.9675 26.7014 71.8921 26.7282 71.827L28.4662 67.6314C28.4931 67.5663 28.5672 67.5356 28.6336 67.5624C28.6988 67.5893 28.7295 67.6647 28.7027 67.7298L26.9646 71.9254C26.9442 71.9739 26.8969 72.0046 26.8471 72.0046H26.8458Z" fill="white"/>
<path d="M15.6494 64.544C15.6161 64.544 15.5842 64.5312 15.5586 64.5069C15.5088 64.4571 15.5088 64.3766 15.5586 64.3267L18.7688 61.1165C18.8187 61.0666 18.8992 61.0666 18.949 61.1165C18.9989 61.1663 18.9989 61.2469 18.949 61.2967L15.7388 64.5069C15.7133 64.5325 15.6813 64.544 15.6481 64.544H15.6494Z" fill="white"/>
<path d="M40.046 74.6106C39.9757 74.6106 39.9182 74.5531 39.9182 74.4828V69.9422C39.9182 69.872 39.9757 69.8145 40.046 69.8145C40.1163 69.8145 40.1738 69.872 40.1738 69.9422V74.4828C40.1738 74.5531 40.1163 74.6106 40.046 74.6106Z" fill="white"/>
<path d="M53.2386 71.9675C53.1888 71.9675 53.1415 71.9381 53.121 71.8883L51.383 67.6927C51.3562 67.6275 51.3868 67.5522 51.452 67.5253C51.5172 67.4985 51.5926 67.5292 51.6194 67.5943L53.3574 71.7899C53.3843 71.855 53.3536 71.9304 53.2884 71.9573C53.2718 71.9637 53.2565 71.9675 53.2399 71.9675H53.2386Z" fill="white"/>
<path d="M64.416 64.4776C64.3828 64.4776 64.3509 64.4648 64.3253 64.4405L61.1138 61.2303C61.064 61.1804 61.064 61.0999 61.1138 61.0501C61.1636 61.0002 61.2441 61.0002 61.294 61.0501L64.5055 64.2603C64.5553 64.3102 64.5553 64.3907 64.5055 64.4405C64.4799 64.4661 64.448 64.4776 64.4148 64.4776H64.416Z" fill="white"/>
<path d="M71.8751 53.2786C71.8584 53.2786 71.8418 53.276 71.8265 53.2683L67.631 51.5303C67.5658 51.5035 67.5351 51.4281 67.562 51.3629C67.5888 51.2977 67.6629 51.267 67.7294 51.2939L71.9249 53.0319C71.9901 53.0587 72.0207 53.1341 71.9939 53.1993C71.9735 53.2479 71.9262 53.2786 71.8763 53.2786H71.8751Z" fill="white"/>
<path d="M67.6439 28.6243C67.594 28.6243 67.5468 28.5949 67.5263 28.545C67.4995 28.4799 67.5301 28.4045 67.5953 28.3776L71.7908 26.6396C71.856 26.6128 71.9301 26.6434 71.9583 26.7086C71.9851 26.7738 71.9544 26.8492 71.8892 26.876L67.6937 28.6141C67.6784 28.6204 67.6618 28.6243 67.6452 28.6243H67.6439Z" fill="white"/>
<path d="M74.4816 40.0788H69.941C69.8707 40.0788 69.8132 40.0213 69.8132 39.951C69.8132 39.8808 69.8707 39.8232 69.941 39.8232H74.4816C74.5519 39.8232 74.6094 39.8808 74.6094 39.951C74.6094 40.0213 74.5519 40.0788 74.4816 40.0788Z" fill="white"/>
<path d="M61.1374 18.9209C61.1042 18.9209 61.0722 18.9081 61.0467 18.8839C60.9968 18.834 60.9968 18.7535 61.0467 18.7037L64.2569 15.4934C64.3067 15.4436 64.3872 15.4436 64.4371 15.4934C64.4869 15.5433 64.4869 15.6238 64.4371 15.6736L61.2269 18.8839C61.2013 18.9094 61.1693 18.9209 61.1361 18.9209H61.1374Z" fill="white"/>
<path d="M51.4124 12.446C51.3958 12.446 51.3792 12.4435 51.3639 12.4358C51.2987 12.409 51.268 12.3335 51.2949 12.2684L53.0329 8.07286C53.0597 8.00769 53.1338 7.97701 53.2003 8.00385C53.2655 8.03068 53.2961 8.10606 53.2693 8.17124L51.5313 12.3668C51.5108 12.4153 51.4636 12.446 51.4137 12.446H51.4124Z" fill="white"/>
<path d="M40.0004 74.76C20.8336 74.76 5.23999 59.1664 5.23999 39.9996C5.23999 20.8329 20.8336 5.23926 40.0004 5.23926C59.1672 5.23926 74.7608 20.8329 74.7608 39.9996C74.7608 59.1664 59.1672 74.76 40.0004 74.76ZM40.0004 5.49485C20.9742 5.49485 5.49558 20.9734 5.49558 39.9996C5.49558 59.0258 20.9742 74.5044 40.0004 74.5044C59.0266 74.5044 74.5052 59.0258 74.5052 39.9996C74.5052 20.9734 59.0266 5.49485 40.0004 5.49485Z" fill="white"/>
<path d="M39.9997 69.9862C23.4642 69.9862 10.0125 56.5344 10.0125 39.9989C10.0125 23.4635 23.4642 10.0117 39.9997 10.0117C56.5351 10.0117 69.9869 23.4635 69.9869 39.9989C69.9869 56.5344 56.5351 69.9862 39.9997 69.9862ZM39.9997 10.266C23.6048 10.266 10.268 23.604 10.268 39.9976C10.268 56.3913 23.6061 69.7293 39.9997 69.7293C56.3933 69.7293 69.7313 56.3913 69.7313 39.9976C69.7313 23.604 56.3933 10.266 39.9997 10.266Z" fill="white"/>
<path d="M20.0835 50.0469L20.3826 50.7331C20.5091 51.0245 20.7417 51.2571 21.0331 51.3836L21.7193 51.6827L21.0331 51.9817C20.7417 52.1082 20.5091 52.3408 20.3826 52.6322L20.0835 53.3184L19.7845 52.6322C19.658 52.3408 19.4254 52.1082 19.134 51.9817L18.4478 51.6827L19.134 51.3836C19.4254 51.2571 19.658 51.0245 19.7845 50.7331L20.0835 50.0469Z" fill="white"/>
<path d="M57.585 53.3193L57.953 54.1654C58.1089 54.5245 58.3965 54.8107 58.7556 54.9679L59.6016 55.336L58.7556 55.704C58.3965 55.8599 58.1102 56.1475 57.953 56.5066L57.585 57.3526L57.2169 56.5066C57.061 56.1475 56.7735 55.8612 56.4144 55.704L55.5684 55.336L56.4144 54.9679C56.7735 54.812 57.0597 54.5245 57.2169 54.1654L57.585 53.3193Z" fill="white"/>
<path d="M52.0823 47.6719L52.2778 48.1204C52.3609 48.3109 52.513 48.4629 52.7021 48.5447L53.1507 48.7403L52.7021 48.9358C52.5117 49.0189 52.3596 49.1709 52.2778 49.36L52.0823 49.8086L51.8868 49.36C51.8037 49.1696 51.6516 49.0176 51.4625 48.9358L51.0139 48.7403L51.4625 48.5447C51.6529 48.4617 51.805 48.3096 51.8868 48.1204L52.0823 47.6719Z" fill="white"/>
<path d="M61.6119 38.0947L61.7819 38.4845C61.8535 38.6494 61.9864 38.7823 62.1512 38.8538L62.541 39.0238L62.1512 39.1937C61.9864 39.2653 61.8535 39.3982 61.7819 39.5631L61.6119 39.9529L61.442 39.5631C61.3704 39.3982 61.2375 39.2653 61.0726 39.1937L60.6829 39.0238L61.0726 38.8538C61.2375 38.7823 61.3704 38.6494 61.442 38.4845L61.6119 38.0947Z" fill="white"/>
<path d="M24.7198 43.4346L24.914 43.8806C24.9971 44.0697 25.1479 44.2218 25.337 44.3036L25.783 44.4978L25.337 44.6921C25.1479 44.7751 24.9958 44.9259 24.914 45.1151L24.7198 45.5611L24.5255 45.1151C24.4424 44.9259 24.2916 44.7738 24.1025 44.6921L23.6565 44.4978L24.1025 44.3036C24.2916 44.2205 24.4437 44.0697 24.5255 43.8806L24.7198 43.4346Z" fill="white"/>
<path d="M32.081 17.3799L32.3519 18.001C32.4669 18.2642 32.6765 18.4751 32.9411 18.5901L33.5622 18.861L32.9411 19.132C32.6778 19.247 32.4669 19.4566 32.3519 19.7211L32.081 20.3422L31.8101 19.7211C31.6951 19.4578 31.4855 19.247 31.2209 19.132L30.5999 18.861L31.2209 18.5901C31.4842 18.4751 31.6951 18.2655 31.8101 18.001L32.081 17.3799Z" fill="white"/>
<path d="M20.9878 35.5048C21.1511 34.813 20.7227 34.1199 20.031 33.9567C19.3393 33.7934 18.6461 34.2218 18.4829 34.9135C18.3196 35.6053 18.748 36.2984 19.4398 36.4616C20.1315 36.6249 20.8246 36.1965 20.9878 35.5048Z" fill="white"/>
<path d="M25.4047 25.3368C25.6871 25.3368 25.9159 25.108 25.9159 24.8256C25.9159 24.5433 25.6871 24.3145 25.4047 24.3145C25.1224 24.3145 24.8936 24.5433 24.8936 24.8256C24.8936 25.108 25.1224 25.3368 25.4047 25.3368Z" fill="white"/>
<path d="M38.3208 31.6078C38.7718 31.6078 39.1374 31.2422 39.1374 30.7912C39.1374 30.3402 38.7718 29.9746 38.3208 29.9746C37.8698 29.9746 37.5042 30.3402 37.5042 30.7912C37.5042 31.2422 37.8698 31.6078 38.3208 31.6078Z" fill="white"/>
<path d="M47.1539 17.6054C47.1539 17.8367 46.9673 18.0233 46.736 18.0233C46.5047 18.0233 46.3181 17.8367 46.3181 17.6054C46.3181 17.3741 46.5047 17.1875 46.736 17.1875C46.9673 17.1875 47.1539 17.3741 47.1539 17.6054Z" fill="white"/>
<path d="M60.267 24.429C60.6777 24.429 61.0107 24.096 61.0107 23.6852C61.0107 23.2744 60.6777 22.9414 60.267 22.9414C59.8562 22.9414 59.5232 23.2744 59.5232 23.6852C59.5232 24.096 59.8562 24.429 60.267 24.429Z" fill="white"/>
<path d="M57.1219 25.0632C57.1219 25.0453 57.1181 25.0273 57.1168 25.0082C57.1142 24.9711 57.1104 24.9354 57.1065 24.8983C57.1027 24.8612 57.0963 24.8254 57.0912 24.7884C57.0848 24.7526 57.0784 24.7181 57.0708 24.6836C57.0631 24.6465 57.0542 24.6107 57.0439 24.5737C57.035 24.5405 57.0248 24.506 57.0145 24.4727C57.003 24.4369 56.9903 24.4012 56.9775 24.3667C56.9647 24.3334 56.9519 24.3015 56.9391 24.2683C56.9238 24.2338 56.9085 24.2005 56.8919 24.1673C56.8765 24.1354 56.8612 24.1034 56.8433 24.0727C56.8254 24.0395 56.8049 24.0063 56.7845 23.9743C56.7666 23.9449 56.7487 23.9156 56.7295 23.8874C56.7053 23.8504 56.6784 23.8159 56.6516 23.7814C56.6337 23.7584 56.6184 23.7354 56.5992 23.7136C56.5046 23.5999 56.3998 23.4951 56.2861 23.4005C56.2644 23.3826 56.2414 23.366 56.2184 23.3494C56.1826 23.3226 56.1481 23.2957 56.111 23.2702C56.0829 23.251 56.0548 23.2344 56.0254 23.2165C55.9922 23.1961 55.9589 23.1756 55.9244 23.1564C55.8938 23.1398 55.8631 23.1245 55.8311 23.1092C55.7966 23.0925 55.7621 23.0759 55.7276 23.0606C55.6957 23.0465 55.6637 23.035 55.6318 23.0223C55.596 23.0082 55.5589 22.9954 55.5219 22.9839C55.4899 22.9737 55.4567 22.9648 55.4248 22.9558C55.3877 22.9456 55.3494 22.9366 55.311 22.9277C55.2778 22.92 55.2446 22.9136 55.2101 22.9085C55.1717 22.9021 55.1347 22.897 55.0963 22.8919C55.0618 22.8881 55.026 22.8842 54.9915 22.8817C54.9724 22.8804 54.9545 22.8766 54.934 22.8766L39.4733 22.1315C38.2043 22.0715 37.1257 23.0491 37.0644 24.3181C37.003 25.5871 37.9819 26.6657 39.251 26.7271L49.5206 27.2216L33.8426 42.8996L29.3187 38.3756C28.4203 37.4772 26.9634 37.4772 26.065 38.3756C25.1666 39.274 25.1666 40.7309 26.065 41.6293L30.589 46.1533L22.7986 53.9437C21.9002 54.8421 21.9002 56.2989 22.7986 57.1973C23.2471 57.6459 23.8363 57.8708 24.4254 57.8708C25.0145 57.8708 25.6024 57.6459 26.0522 57.1973L33.8426 49.4069L38.3666 53.9309C38.8152 54.3794 39.4043 54.6044 39.9934 54.6044C40.5826 54.6044 41.1704 54.3794 41.6203 53.9309C42.5187 53.0325 42.5187 51.5756 41.6203 50.6772L37.0963 46.1533L52.7743 30.4753L53.2688 40.7449C53.3276 41.9756 54.3449 42.9341 55.5641 42.9341C55.6011 42.9341 55.6395 42.9341 55.6765 42.9315C56.9455 42.8702 57.9244 41.7916 57.8631 40.5226L57.118 25.0619L57.1219 25.0632Z" fill="white"/>
<defs>
<linearGradient id="paint0_linear_1709_6008" x1="40.0001" y1="2.68359" x2="40.0001" y2="77.3162" gradientUnits="userSpaceOnUse">
<stop stop-color="#3867B8"/>
<stop offset="1" stop-color="#192E52"/>
</linearGradient>
</defs>
</svg>
