<svg width="24" height="24" viewBox="0 0 24 24" fill="none" xmlns="http://www.w3.org/2000/svg">
<path d="M20.057 22.0005H3.943C3.41243 22.0005 2.89121 21.8608 2.43173 21.5955C1.97224 21.3302 1.59068 20.9486 1.32537 20.4891C1.06006 20.0297 0.920352 19.5084 0.920288 18.9779C0.920225 18.4473 1.05981 17.9261 1.325 17.4665L9.382 3.51151C9.64733 3.05195 10.0289 2.67033 10.4885 2.40501C10.9481 2.13968 11.4694 2 12 2C12.5307 2 13.052 2.13968 13.5115 2.40501C13.9711 2.67033 14.3527 3.05195 14.618 3.51151L22.675 17.4665C22.9402 17.9261 23.0798 18.4473 23.0797 18.9779C23.0797 19.5084 22.94 20.0297 22.6746 20.4891C22.4093 20.9486 22.0278 21.3302 21.5683 21.5955C21.1088 21.8608 20.5876 22.0005 20.057 22.0005Z" fill="#FCA5A5"/>
<path d="M12 18C12.5523 18 13 17.5523 13 17C13 16.4477 12.5523 16 12 16C11.4477 16 11 16.4477 11 17C11 17.5523 11.4477 18 12 18Z" fill="#450A0A"/>
<path d="M12 14C11.7348 14 11.4804 13.8946 11.2929 13.7071C11.1054 13.5196 11 13.2652 11 13V9C11 8.73478 11.1054 8.48043 11.2929 8.29289C11.4804 8.10536 11.7348 8 12 8C12.2652 8 12.5196 8.10536 12.7071 8.29289C12.8946 8.48043 13 8.73478 13 9V13C13 13.2652 12.8946 13.5196 12.7071 13.7071C12.5196 13.8946 12.2652 14 12 14Z" fill="#450A0A"/>
</svg>
