<svg width="53" height="53" viewBox="0 0 53 53" fill="none" xmlns="http://www.w3.org/2000/svg">
<path d="M26.1602 52.1899C40.5196 52.1899 52.1602 40.5493 52.1602 26.1899C52.1602 11.8305 40.5196 0.189941 26.1602 0.189941C11.8008 0.189941 0.160156 11.8305 0.160156 26.1899C0.160156 40.5493 11.8008 52.1899 26.1602 52.1899Z" fill="white"/>
<path d="M26.1602 50.4455C39.5562 50.4455 50.4158 39.5859 50.4158 26.1899C50.4158 12.7939 39.5562 1.93433 26.1602 1.93433C12.7642 1.93433 1.90457 12.7939 1.90457 26.1899C1.90457 39.5859 12.7642 50.4455 26.1602 50.4455Z" fill="#1F1F7A"/>
<path d="M26.1294 6.80958C26.0838 6.80958 26.0464 6.7722 26.0464 6.72651V3.77514C26.0464 3.72946 26.0838 3.69208 26.1294 3.69208C26.1751 3.69208 26.2125 3.72946 26.2125 3.77514V6.72651C26.2125 6.7722 26.1751 6.80958 26.1294 6.80958Z" fill="#FFE2C2"/>
<path d="M18.6833 8.30315C18.6509 8.30315 18.6202 8.28403 18.6069 8.25164L17.4772 5.52454C17.4597 5.48217 17.4796 5.43318 17.522 5.41574C17.5644 5.39829 17.6134 5.41821 17.6308 5.46058L18.7606 8.18767C18.778 8.23004 18.7581 8.27905 18.7157 8.2965C18.7057 8.30065 18.6949 8.30315 18.6841 8.30315H18.6833Z" fill="#FFE2C2"/>
<path d="M12.376 12.5321C12.3544 12.5321 12.3337 12.5238 12.317 12.508L10.2304 10.4213C10.198 10.3889 10.198 10.3366 10.2304 10.3042C10.2628 10.2718 10.3151 10.2718 10.3475 10.3042L12.4342 12.3909C12.4666 12.4233 12.4666 12.4756 12.4342 12.508C12.4175 12.5246 12.3968 12.5321 12.3752 12.5321H12.376Z" fill="#FFE2C2"/>
<path d="M8.167 18.8535C8.1562 18.8535 8.14539 18.8518 8.13543 18.8468L5.40835 17.7171C5.36598 17.6997 5.34604 17.6506 5.36349 17.6083C5.38093 17.5659 5.42995 17.546 5.47231 17.5634L8.19939 18.6931C8.24175 18.7106 8.26169 18.7596 8.24425 18.802C8.23096 18.8335 8.20023 18.8535 8.16783 18.8535H8.167Z" fill="#FFE2C2"/>
<path d="M6.69756 26.3038H3.74618C3.7005 26.3038 3.66312 26.2664 3.66312 26.2207C3.66312 26.175 3.7005 26.1376 3.74618 26.1376H6.69756C6.74325 26.1376 6.78063 26.175 6.78063 26.2207C6.78063 26.2664 6.74325 26.3038 6.69756 26.3038Z" fill="#FFE2C2"/>
<path d="M5.464 34.8796C5.4316 34.8796 5.40087 34.8605 5.38758 34.8281C5.37014 34.7857 5.39006 34.7367 5.43242 34.7193L8.15952 33.5896C8.20189 33.5721 8.2509 33.5921 8.26835 33.6344C8.28579 33.6768 8.26585 33.7258 8.22349 33.7432L5.49639 34.8729C5.48642 34.8771 5.47563 34.8796 5.46483 34.8796H5.464Z" fill="#FFE2C2"/>
<path d="M17.6117 46.9933C17.6009 46.9933 17.5901 46.9916 17.5802 46.9866C17.5378 46.9692 17.5179 46.9202 17.5353 46.8778L18.665 44.1507C18.6825 44.1083 18.7315 44.0884 18.7738 44.1059C18.8162 44.1233 18.8361 44.1723 18.8187 44.2147L17.689 46.9418C17.6757 46.9733 17.645 46.9933 17.6126 46.9933H17.6117Z" fill="#FFE2C2"/>
<path d="M10.3334 42.1438C10.3118 42.1438 10.291 42.1355 10.2744 42.1197C10.242 42.0873 10.242 42.035 10.2744 42.0026L12.3611 39.916C12.3935 39.8836 12.4458 39.8836 12.4782 39.916C12.5106 39.9484 12.5106 40.0007 12.4782 40.0331L10.3915 42.1197C10.3749 42.1363 10.3542 42.1438 10.3326 42.1438H10.3334Z" fill="#FFE2C2"/>
<path d="M26.1917 48.687C26.1461 48.687 26.1087 48.6496 26.1087 48.604V45.6526C26.1087 45.6069 26.1461 45.5695 26.1917 45.5695C26.2374 45.5695 26.2748 45.6069 26.2748 45.6526V48.604C26.2748 48.6496 26.2374 48.687 26.1917 48.687Z" fill="#FFE2C2"/>
<path d="M34.7667 46.9692C34.7343 46.9692 34.7036 46.95 34.6903 46.9177L33.5606 44.1906C33.5432 44.1482 33.5631 44.0992 33.6055 44.0817C33.6478 44.0643 33.6968 44.0842 33.7143 44.1266L34.844 46.8537C34.8614 46.8961 34.8415 46.9451 34.7991 46.9625C34.7892 46.9667 34.7784 46.9692 34.7676 46.9692H34.7667Z" fill="#FFE2C2"/>
<path d="M42.0318 42.1006C42.0102 42.1006 41.9894 42.0923 41.9728 42.0765L39.8862 39.9899C39.8538 39.9575 39.8538 39.9051 39.8862 39.8727C39.9186 39.8404 39.9709 39.8404 40.0033 39.8727L42.0899 41.9594C42.1223 41.9918 42.1223 42.0441 42.0899 42.0765C42.0733 42.0931 42.0526 42.1006 42.031 42.1006H42.0318Z" fill="#FFE2C2"/>
<path d="M46.8804 34.8214C46.8696 34.8214 46.8588 34.8198 46.8489 34.8148L44.1218 33.6851C44.0794 33.6676 44.0595 33.6186 44.0769 33.5763C44.0944 33.5339 44.1434 33.514 44.1857 33.5314L46.9128 34.6611C46.9552 34.6785 46.9751 34.7276 46.9577 34.7699C46.9444 34.8015 46.9137 34.8214 46.8813 34.8214H46.8804Z" fill="#FFE2C2"/>
<path d="M44.1301 18.7962C44.0977 18.7962 44.0669 18.7771 44.0536 18.7447C44.0362 18.7023 44.0561 18.6533 44.0985 18.6358L46.8256 17.5061C46.8679 17.4887 46.917 17.5086 46.9344 17.551C46.9518 17.5934 46.9319 17.6424 46.8895 17.6598L44.1624 18.7895C44.1525 18.7937 44.1417 18.7962 44.1309 18.7962H44.1301Z" fill="#FFE2C2"/>
<path d="M48.575 26.2415H45.6236C45.5779 26.2415 45.5405 26.2041 45.5405 26.1584C45.5405 26.1127 45.5779 26.0753 45.6236 26.0753H48.575C48.6207 26.0753 48.658 26.1127 48.658 26.1584C48.658 26.2041 48.6207 26.2415 48.575 26.2415Z" fill="#FFE2C2"/>
<path d="M39.9011 12.4889C39.8795 12.4889 39.8588 12.4805 39.8422 12.4648C39.8098 12.4324 39.8098 12.38 39.8422 12.3476L41.9288 10.261C41.9612 10.2286 42.0135 10.2286 42.0459 10.261C42.0783 10.2934 42.0783 10.3457 42.0459 10.3781L39.9593 12.4648C39.9427 12.4814 39.9219 12.4889 39.9003 12.4889H39.9011Z" fill="#FFE2C2"/>
<path d="M33.5797 8.27983C33.5689 8.27983 33.5581 8.27816 33.5481 8.27318C33.5058 8.25573 33.4858 8.20672 33.5033 8.16436L34.633 5.43728C34.6504 5.39491 34.6994 5.37497 34.7418 5.39242C34.7842 5.40986 34.8041 5.45886 34.7867 5.50122L33.657 8.22832C33.6437 8.25989 33.6129 8.27983 33.5805 8.27983H33.5797Z" fill="#FFE2C2"/>
<path d="M26.1602 48.7842C13.7018 48.7842 3.5659 38.6484 3.5659 26.19C3.5659 13.7316 13.7018 3.5957 26.1602 3.5957C38.6186 3.5957 48.7544 13.7316 48.7544 26.19C48.7544 38.6484 38.6186 48.7842 26.1602 48.7842ZM26.1602 3.76184C13.7931 3.76184 3.73204 13.8229 3.73204 26.19C3.73204 38.557 13.7931 48.6181 26.1602 48.6181C38.5272 48.6181 48.5883 38.557 48.5883 26.19C48.5883 13.8229 38.5272 3.76184 26.1602 3.76184Z" fill="#FFE2C2"/>
<path d="M26.1602 45.6816C15.4121 45.6816 6.66847 36.938 6.66847 26.1899C6.66847 15.4419 15.4121 6.69824 26.1602 6.69824C36.9082 6.69824 45.6519 15.4419 45.6519 26.1899C45.6519 36.938 36.9082 45.6816 26.1602 45.6816ZM26.1602 6.86354C15.5035 6.86354 6.83461 15.5332 6.83461 26.1891C6.83461 36.8449 15.5043 45.5147 26.1602 45.5147C36.816 45.5147 45.4857 36.8449 45.4857 26.1891C45.4857 15.5332 36.816 6.86354 26.1602 6.86354Z" fill="#FFE2C2"/>
<path d="M14.5623 28.6562L14.7567 29.1023C14.8389 29.2917 14.9901 29.4429 15.1795 29.5251L15.6256 29.7195L15.1795 29.9138C14.9901 29.9961 14.8389 30.1473 14.7567 30.3367L14.5623 30.7827L14.3679 30.3367C14.2857 30.1473 14.1345 29.9961 13.9451 29.9138L13.4991 29.7195L13.9451 29.5251C14.1345 29.4429 14.2857 29.2917 14.3679 29.1023L14.5623 28.6562Z" fill="#F7B981"/>
<path d="M34.1221 21.1204L34.2974 21.5224C34.3722 21.6935 34.5084 21.8298 34.6787 21.9037L35.0807 22.079L34.6787 22.2542C34.5076 22.329 34.3714 22.4652 34.2974 22.6355L34.1221 23.0376L33.9469 22.6355C33.8721 22.4644 33.7359 22.3282 33.5656 22.2542L33.1635 22.079L33.5656 21.9037C33.7367 21.8289 33.8729 21.6927 33.9469 21.5224L34.1221 21.1204Z" fill="#F7B981"/>
<path d="M36.7196 16.8491L36.8534 17.1572C36.9107 17.2877 37.0145 17.3923 37.1458 17.4496L37.454 17.5834L37.1458 17.7171C37.0154 17.7744 36.9107 17.8783 36.8534 18.0095L36.7196 18.3177L36.5859 18.0095C36.5286 17.8791 36.4247 17.7744 36.2935 17.7171L35.9853 17.5834L36.2935 17.4496C36.4239 17.3923 36.5286 17.2885 36.5859 17.1572L36.7196 16.8491Z" fill="#F7B981"/>
<path d="M35.8491 33.416L35.9878 33.7341C36.0468 33.8695 36.1548 33.9767 36.2894 34.0356L36.6075 34.1744L36.2894 34.3131C36.154 34.3721 36.0468 34.4801 35.9878 34.6146L35.8491 34.9328L35.7104 34.6146C35.6514 34.4792 35.5434 34.3721 35.4089 34.3131L35.0907 34.1744L35.4089 34.0356C35.5443 33.9767 35.6514 33.8687 35.7104 33.7341L35.8491 33.416Z" fill="#F7B981"/>
<path d="M16.9937 33.3545L17.12 33.6444C17.174 33.7673 17.272 33.8662 17.3949 33.9194L17.6848 34.0456L17.3949 34.1719C17.272 34.2259 17.1731 34.3239 17.12 34.4468L16.9937 34.7367L16.8675 34.4468C16.8135 34.3239 16.7154 34.225 16.5925 34.1719L16.3026 34.0456L16.5925 33.9194C16.7154 33.8654 16.8143 33.7673 16.8675 33.6444L16.9937 33.3545Z" fill="#F7B981"/>
<path d="M14.8273 20.9883C15.1677 20.9883 15.4437 20.7123 15.4437 20.3719C15.4437 20.0315 15.1677 19.7556 14.8273 19.7556C14.4869 19.7556 14.211 20.0315 14.211 20.3719C14.211 20.7123 14.4869 20.9883 14.8273 20.9883Z" fill="#F7B981"/>
<path d="M38.5837 21.5564C38.8002 21.5564 38.9757 21.3809 38.9757 21.1644C38.9757 20.9478 38.8002 20.7723 38.5837 20.7723C38.3671 20.7723 38.1916 20.9478 38.1916 21.1644C38.1916 21.3809 38.3671 21.5564 38.5837 21.5564Z" fill="#F7B981"/>
<path d="M17.3301 18.5411C17.4535 18.5411 17.5536 18.4411 17.5536 18.3177C17.5536 18.1943 17.4535 18.0942 17.3301 18.0942C17.2067 18.0942 17.1067 18.1943 17.1067 18.3177C17.1067 18.4411 17.2067 18.5411 17.3301 18.5411Z" fill="#F7B981"/>
<path d="M34.1222 29.172C34.1222 29.3074 34.0117 29.4179 33.8763 29.4179C33.7409 29.4179 33.6304 29.3074 33.6304 29.172C33.6304 29.0366 33.7409 28.9261 33.8763 28.9261C34.0117 28.9261 34.1222 29.0366 34.1222 29.172Z" fill="#F7B981"/>
<path d="M37.6866 29.4179C37.6866 29.7161 37.4448 29.9579 37.1466 29.9579C36.8484 29.9579 36.6067 29.7161 36.6067 29.4179C36.6067 29.1197 36.8484 28.878 37.1466 28.878C37.4448 28.878 37.6866 29.1197 37.6866 29.4179Z" fill="#F7B981"/>
<path d="M34.319 34.9959C33.3122 33.9534 31.1874 31.3617 30.7172 27.6851H32.8977C33.7234 27.6851 34.393 27.0156 34.393 26.1899C34.393 25.3642 33.7234 24.6947 32.8977 24.6947H30.7231C31.209 20.8844 33.3513 18.3542 34.3066 17.3965C34.8897 16.8117 34.8889 15.8655 34.3049 15.2816C33.7209 14.6984 32.774 14.6984 32.19 15.2832C30.9772 16.4985 28.2169 19.7639 27.7127 24.6939H24.6085C24.1043 19.7639 21.3448 16.4985 20.1312 15.2832C19.548 14.6984 18.6011 14.6984 18.0163 15.2816C17.4315 15.8647 17.4315 16.8117 18.0146 17.3965C18.9699 18.3534 21.113 20.8836 21.5981 24.6947H19.4234C18.5978 24.6947 17.9282 25.3642 17.9282 26.1899C17.9282 27.0156 18.5978 27.6851 19.4234 27.6851H21.604C21.1346 31.3625 19.0089 33.9542 18.0022 34.9959L17.998 35.0009C17.424 35.5948 17.4431 36.5393 18.0371 37.1124C18.327 37.3924 18.7008 37.5311 19.0746 37.5311C19.4675 37.5311 19.8595 37.3774 20.1536 37.0734C21.1861 36.0051 22.0716 34.8023 22.7852 33.4998C23.8061 31.6375 24.4174 29.6895 24.6168 27.6851H27.7052C27.9038 29.6895 28.516 31.6383 29.5369 33.4998C30.2512 34.8023 31.1367 36.0051 32.1684 37.0734C32.4625 37.3774 32.8546 37.5311 33.2475 37.5311C33.6404 37.5311 33.9951 37.3924 34.285 37.1124C34.8789 36.5384 34.8972 35.5948 34.324 35.0009L34.3198 34.9959H34.319Z" fill="white"/>
</svg>
