<svg width="53" height="53" viewBox="0 0 53 53" fill="none" xmlns="http://www.w3.org/2000/svg">
<path d="M26.8398 52.1899C41.1992 52.1899 52.8398 40.5493 52.8398 26.1899C52.8398 11.8305 41.1992 0.189941 26.8398 0.189941C12.4804 0.189941 0.839844 11.8305 0.839844 26.1899C0.839844 40.5493 12.4804 52.1899 26.8398 52.1899Z" fill="white"/>
<path d="M26.8398 50.4455C40.2358 50.4455 51.0954 39.5859 51.0954 26.1899C51.0954 12.7939 40.2358 1.93433 26.8398 1.93433C13.4438 1.93433 2.58423 12.7939 2.58423 26.1899C2.58423 39.5859 13.4438 50.4455 26.8398 50.4455Z" fill="#1F1F7A"/>
<path d="M26.8082 6.80958C26.7625 6.80958 26.7251 6.7722 26.7251 6.72651V3.77514C26.7251 3.72946 26.7625 3.69208 26.8082 3.69208C26.8539 3.69208 26.8912 3.72946 26.8912 3.77514V6.72651C26.8912 6.7722 26.8539 6.80958 26.8082 6.80958Z" fill="#FFE2C2"/>
<path d="M19.3631 8.30315C19.3307 8.30315 19.2999 8.28403 19.2867 8.25164L18.1569 5.52454C18.1395 5.48217 18.1594 5.43318 18.2018 5.41574C18.2442 5.39829 18.2932 5.41821 18.3106 5.46058L19.4403 8.18767C19.4578 8.23004 19.4378 8.27905 19.3955 8.2965C19.3847 8.30065 19.3747 8.30315 19.3639 8.30315H19.3631Z" fill="#FFE2C2"/>
<path d="M13.0549 12.5321C13.0333 12.5321 13.0126 12.5238 12.996 12.508L10.9093 10.4213C10.8769 10.3889 10.8769 10.3366 10.9093 10.3042C10.9417 10.2718 10.994 10.2718 11.0264 10.3042L13.1131 12.3909C13.1455 12.4233 13.1455 12.4756 13.1131 12.508C13.0965 12.5246 13.0757 12.5321 13.0541 12.5321H13.0549Z" fill="#FFE2C2"/>
<path d="M8.84596 18.8535C8.83516 18.8535 8.82436 18.8518 8.81439 18.8468L6.0873 17.7171C6.04494 17.6997 6.025 17.6506 6.04244 17.6083C6.05989 17.5659 6.10807 17.546 6.15126 17.5634L8.87835 18.6931C8.92072 18.7106 8.94065 18.7596 8.92321 18.802C8.90992 18.8335 8.87918 18.8535 8.84679 18.8535H8.84596Z" fill="#FFE2C2"/>
<path d="M7.37648 26.3038H4.42511C4.37942 26.3038 4.34204 26.2664 4.34204 26.2207C4.34204 26.175 4.37942 26.1376 4.42511 26.1376H7.37648C7.42217 26.1376 7.45955 26.175 7.45955 26.2207C7.45955 26.2664 7.42217 26.3038 7.37648 26.3038Z" fill="#FFE2C2"/>
<path d="M6.14279 34.8796C6.11039 34.8796 6.07966 34.8605 6.06637 34.8281C6.04892 34.7857 6.06886 34.7367 6.11122 34.7193L8.83832 33.5896C8.88068 33.5721 8.92969 33.5921 8.94713 33.6344C8.96458 33.6768 8.94464 33.7258 8.90228 33.7432L6.17519 34.8729C6.16522 34.8771 6.15442 34.8796 6.14362 34.8796H6.14279Z" fill="#FFE2C2"/>
<path d="M18.2905 46.9933C18.2797 46.9933 18.2689 46.9916 18.2589 46.9866C18.2166 46.9692 18.1966 46.9202 18.2141 46.8778L19.3438 44.1507C19.3612 44.1083 19.4094 44.0884 19.4526 44.1059C19.495 44.1233 19.5149 44.1723 19.4975 44.2147L18.3677 46.9418C18.3545 46.9733 18.3237 46.9933 18.2913 46.9933H18.2905Z" fill="#FFE2C2"/>
<path d="M11.0122 42.1438C10.9906 42.1438 10.9699 42.1355 10.9533 42.1197C10.9209 42.0873 10.9209 42.035 10.9533 42.0026L13.0399 39.916C13.0723 39.8836 13.1246 39.8836 13.157 39.916C13.1894 39.9484 13.1894 40.0007 13.157 40.0331L11.0704 42.1197C11.0538 42.1363 11.033 42.1438 11.0114 42.1438H11.0122Z" fill="#FFE2C2"/>
<path d="M26.8707 48.687C26.825 48.687 26.7876 48.6496 26.7876 48.604V45.6526C26.7876 45.6069 26.825 45.5695 26.8707 45.5695C26.9164 45.5695 26.9537 45.6069 26.9537 45.6526V48.604C26.9537 48.6496 26.9164 48.687 26.8707 48.687Z" fill="#FFE2C2"/>
<path d="M35.4456 46.9692C35.4132 46.9692 35.3825 46.95 35.3692 46.9177L34.2395 44.1906C34.222 44.1482 34.242 44.0992 34.2843 44.0817C34.3267 44.0643 34.3757 44.0842 34.3931 44.1266L35.5229 46.8537C35.5403 46.8961 35.5204 46.9451 35.478 46.9625C35.4672 46.9667 35.4572 46.9692 35.4464 46.9692H35.4456Z" fill="#FFE2C2"/>
<path d="M42.7105 42.1006C42.689 42.1006 42.6682 42.0923 42.6516 42.0765L40.5641 39.9899C40.5317 39.9575 40.5317 39.9051 40.5641 39.8727C40.5965 39.8404 40.6488 39.8404 40.6812 39.8727L42.7687 41.9594C42.8011 41.9918 42.8011 42.0441 42.7687 42.0765C42.7521 42.0931 42.7313 42.1006 42.7097 42.1006H42.7105Z" fill="#FFE2C2"/>
<path d="M47.5593 34.8214C47.5485 34.8214 47.5377 34.8198 47.5278 34.8148L44.8007 33.6851C44.7583 33.6676 44.7384 33.6186 44.7558 33.5763C44.7733 33.5339 44.8214 33.514 44.8646 33.5314L47.5917 34.6611C47.6341 34.6785 47.654 34.7276 47.6366 34.7699C47.6233 34.8015 47.5926 34.8214 47.5602 34.8214H47.5593Z" fill="#FFE2C2"/>
<path d="M44.8088 18.7962C44.7764 18.7962 44.7457 18.7771 44.7324 18.7447C44.7149 18.7023 44.7349 18.6533 44.7772 18.6358L47.5043 17.5061C47.5467 17.4887 47.5949 17.5086 47.6132 17.551C47.6306 17.5934 47.6107 17.6424 47.5683 17.6598L44.8412 18.7895C44.8312 18.7937 44.8204 18.7962 44.8096 18.7962H44.8088Z" fill="#FFE2C2"/>
<path d="M49.2539 26.2415H46.3025C46.2569 26.2415 46.2195 26.2041 46.2195 26.1584C46.2195 26.1127 46.2569 26.0753 46.3025 26.0753H49.2539C49.2996 26.0753 49.337 26.1127 49.337 26.1584C49.337 26.2041 49.2996 26.2415 49.2539 26.2415Z" fill="#FFE2C2"/>
<path d="M40.5799 12.4889C40.5583 12.4889 40.5375 12.4805 40.5209 12.4648C40.4885 12.4324 40.4885 12.38 40.5209 12.3476L42.6075 10.261C42.6399 10.2286 42.6923 10.2286 42.7247 10.261C42.757 10.2934 42.757 10.3457 42.7247 10.3781L40.638 12.4648C40.6214 12.4814 40.6006 12.4889 40.579 12.4889H40.5799Z" fill="#FFE2C2"/>
<path d="M34.2585 8.27983C34.2477 8.27983 34.2369 8.27816 34.227 8.27318C34.1846 8.25573 34.1646 8.20672 34.1821 8.16436L35.3118 5.43728C35.3293 5.39491 35.3774 5.37497 35.4206 5.39242C35.463 5.40986 35.4829 5.45886 35.4655 5.50122L34.3358 8.22832C34.3225 8.25989 34.2917 8.27983 34.2593 8.27983H34.2585Z" fill="#FFE2C2"/>
<path d="M26.8399 48.7842C14.3815 48.7842 4.24561 38.6484 4.24561 26.19C4.24561 13.7316 14.3815 3.5957 26.8399 3.5957C39.2983 3.5957 49.4341 13.7316 49.4341 26.19C49.4341 38.6484 39.2983 48.7842 26.8399 48.7842ZM26.8399 3.76184C14.4728 3.76184 4.41174 13.8229 4.41174 26.19C4.41174 38.557 14.4728 48.6181 26.8399 48.6181C39.2069 48.6181 49.268 38.557 49.268 26.19C49.268 13.8229 39.2069 3.76184 26.8399 3.76184Z" fill="#FFE2C2"/>
<path d="M26.8398 45.6816C16.0918 45.6816 7.34814 36.938 7.34814 26.1899C7.34814 15.4419 16.0918 6.69824 26.8398 6.69824C37.5879 6.69824 46.3315 15.4419 46.3315 26.1899C46.3315 36.938 37.5879 45.6816 26.8398 45.6816ZM26.8398 6.86354C16.1832 6.86354 7.51428 15.5332 7.51428 26.1891C7.51428 36.8449 16.184 45.5147 26.8398 45.5147C37.4957 45.5147 46.1654 36.8449 46.1654 26.1891C46.1654 15.5332 37.4957 6.86354 26.8398 6.86354Z" fill="#FFE2C2"/>
<path d="M13.8946 32.7207L14.0889 33.1668C14.1712 33.3562 14.3224 33.5073 14.5117 33.5896L14.9578 33.784L14.5117 33.9783C14.3224 34.0606 14.1712 34.2118 14.0889 34.4011L13.8946 34.8472L13.7002 34.4011C13.6179 34.2118 13.4668 34.0606 13.2774 33.9783L12.8313 33.784L13.2774 33.5896C13.4668 33.5073 13.6179 33.3562 13.7002 33.1668L13.8946 32.7207Z" fill="#F7B981"/>
<path d="M38.2708 34.8472L38.51 35.3971C38.6113 35.6305 38.7982 35.8166 39.0317 35.9187L39.5816 36.158L39.0317 36.3972C38.7982 36.4986 38.6122 36.6855 38.51 36.9189L38.2708 37.4688L38.0315 36.9189C37.9302 36.6855 37.7433 36.4994 37.5099 36.3972L36.96 36.158L37.5099 35.9187C37.7433 35.8174 37.9294 35.6305 38.0315 35.3971L38.2708 34.8472Z" fill="#F7B981"/>
<path d="M34.694 31.1773L34.821 31.4689C34.875 31.5926 34.9739 31.6915 35.0968 31.7447L35.3884 31.8718L35.0968 31.9989C34.9731 32.0528 34.8742 32.1517 34.821 32.2746L34.694 32.5662L34.5669 32.2746C34.5129 32.1509 34.414 32.052 34.2911 31.9989L33.9995 31.8718L34.2911 31.7447C34.4148 31.6907 34.5137 31.5918 34.5669 31.4689L34.694 31.1773Z" fill="#F7B981"/>
<path d="M40.8881 24.9523L40.9986 25.2056C41.0451 25.3128 41.1315 25.3992 41.2386 25.4457L41.492 25.5562L41.2386 25.6666C41.1315 25.7132 41.0451 25.7996 40.9986 25.9067L40.8881 26.1601L40.7776 25.9067C40.7311 25.7996 40.6447 25.7132 40.5375 25.6666L40.2842 25.5562L40.5375 25.4457C40.6447 25.3992 40.7311 25.3128 40.7776 25.2056L40.8881 24.9523Z" fill="#F7B981"/>
<path d="M16.9084 28.4228L17.0347 28.7127C17.0887 28.8356 17.1867 28.9345 17.3096 28.9877L17.5995 29.1139L17.3096 29.2402C17.1867 29.2942 17.0878 29.3922 17.0347 29.5151L16.9084 29.805L16.7821 29.5151C16.7281 29.3922 16.6301 29.2933 16.5072 29.2402L16.2173 29.1139L16.5072 28.9877C16.6301 28.9337 16.729 28.8356 16.7821 28.7127L16.9084 28.4228Z" fill="#F7B981"/>
<path d="M21.693 11.4871L21.8691 11.8908C21.9438 12.0619 22.0801 12.1989 22.252 12.2737L22.6557 12.4498L22.252 12.6259C22.0809 12.7007 21.9438 12.8369 21.8691 13.0089L21.693 13.4126L21.5169 13.0089C21.4421 12.8377 21.3059 12.7007 21.1339 12.6259L20.7302 12.4498L21.1339 12.2737C21.305 12.1989 21.4421 12.0627 21.5169 11.8908L21.693 11.4871Z" fill="#F7B981"/>
<path d="M14.482 23.2683C14.5881 22.8187 14.3097 22.3682 13.86 22.262C13.4104 22.1559 12.9599 22.4344 12.8538 22.884C12.7476 23.3336 13.0261 23.7841 13.4757 23.8903C13.9254 23.9964 14.3759 23.7179 14.482 23.2683Z" fill="#F7B981"/>
<path d="M17.3528 16.6588C17.5363 16.6588 17.685 16.51 17.685 16.3265C17.685 16.143 17.5363 15.9943 17.3528 15.9943C17.1693 15.9943 17.0205 16.143 17.0205 16.3265C17.0205 16.51 17.1693 16.6588 17.3528 16.6588Z" fill="#F7B981"/>
<path d="M25.7483 20.7349C26.0415 20.7349 26.2791 20.4973 26.2791 20.2041C26.2791 19.911 26.0415 19.6733 25.7483 19.6733C25.4552 19.6733 25.2175 19.911 25.2175 20.2041C25.2175 20.4973 25.4552 20.7349 25.7483 20.7349Z" fill="#F7B981"/>
<path d="M31.49 11.6333C31.49 11.7836 31.3688 11.9049 31.2184 11.9049C31.0681 11.9049 30.9468 11.7836 30.9468 11.6333C30.9468 11.4829 31.0681 11.3616 31.2184 11.3616C31.3688 11.3616 31.49 11.4829 31.49 11.6333Z" fill="#F7B981"/>
<path d="M40.0135 16.0691C40.2805 16.0691 40.4969 15.8526 40.4969 15.5856C40.4969 15.3186 40.2805 15.1022 40.0135 15.1022C39.7465 15.1022 39.53 15.3186 39.53 15.5856C39.53 15.8526 39.7465 16.0691 40.0135 16.0691Z" fill="#F7B981"/>
<path d="M37.9691 16.4811C37.9691 16.4694 37.9666 16.4578 37.9658 16.4453C37.9641 16.4212 37.9616 16.398 37.9591 16.3739C37.9566 16.3498 37.9525 16.3265 37.9491 16.3024C37.945 16.2792 37.9408 16.2568 37.9359 16.2343C37.9309 16.2103 37.9251 16.187 37.9184 16.1629C37.9126 16.1413 37.9059 16.1189 37.8993 16.0973C37.8918 16.074 37.8835 16.0508 37.8752 16.0283C37.8669 16.0067 37.8586 15.986 37.8503 15.9644C37.8403 15.9419 37.8304 15.9203 37.8196 15.8988C37.8096 15.878 37.7996 15.8572 37.788 15.8373C37.7764 15.8157 37.7631 15.7941 37.7498 15.7733C37.7382 15.7542 37.7265 15.7351 37.7141 15.7168C37.6983 15.6927 37.6808 15.6703 37.6634 15.6479C37.6518 15.6329 37.6418 15.618 37.6293 15.6039C37.5679 15.5299 37.4998 15.4618 37.4258 15.4003C37.4117 15.3887 37.3967 15.3779 37.3818 15.3671C37.3585 15.3497 37.3361 15.3322 37.312 15.3156C37.2937 15.3032 37.2755 15.2924 37.2564 15.2807C37.2348 15.2674 37.2132 15.2541 37.1907 15.2417C37.1708 15.2309 37.1509 15.2209 37.1301 15.211C37.1077 15.2002 37.0852 15.1893 37.0628 15.1794C37.042 15.1702 37.0213 15.1628 37.0005 15.1545C36.9773 15.1453 36.9532 15.137 36.9291 15.1295C36.9083 15.1229 36.8867 15.1171 36.8659 15.1113C36.8419 15.1046 36.8169 15.0988 36.792 15.093C36.7704 15.088 36.7488 15.0839 36.7264 15.0805C36.7015 15.0764 36.6774 15.0731 36.6525 15.0697C36.63 15.0673 36.6068 15.0648 36.5844 15.0631C36.5719 15.0623 36.5603 15.0598 36.547 15.0598L26.4975 14.5755C25.6727 14.5365 24.9716 15.1719 24.9317 15.9968C24.8918 16.8216 25.5281 17.5227 26.353 17.5626L33.0283 17.884L22.8376 28.0747L19.897 25.1341C19.313 24.5502 18.3661 24.5502 17.7821 25.1341C17.1982 25.7181 17.1982 26.6651 17.7821 27.249L20.7227 30.1896L15.6589 35.2534C15.075 35.8373 15.075 36.7843 15.6589 37.3683C15.9505 37.6598 16.3334 37.806 16.7164 37.806C17.0993 37.806 17.4814 37.6598 17.7738 37.3683L22.8376 32.3045L25.7782 35.2451C26.0697 35.5366 26.4527 35.6828 26.8356 35.6828C27.2185 35.6828 27.6006 35.5366 27.893 35.2451C28.477 34.6611 28.477 33.7141 27.893 33.1302L24.9525 30.1896L35.1431 19.9989L35.4646 26.6742C35.5028 27.4741 36.164 28.0971 36.9565 28.0971C36.9806 28.0971 37.0055 28.0971 37.0296 28.0955C37.8544 28.0556 38.4907 27.3545 38.4509 26.5297L37.9666 16.4802L37.9691 16.4811Z" fill="white"/>
</svg>
