<svg width="53" height="53" viewBox="0 0 53 53" fill="none" xmlns="http://www.w3.org/2000/svg">
<path d="M26.1602 52.1899C40.5196 52.1899 52.1602 40.5493 52.1602 26.1899C52.1602 11.8305 40.5196 0.189941 26.1602 0.189941C11.8008 0.189941 0.160156 11.8305 0.160156 26.1899C0.160156 40.5493 11.8008 52.1899 26.1602 52.1899Z" fill="white"/>
<path d="M26.1602 50.4455C39.5562 50.4455 50.4158 39.5859 50.4158 26.1899C50.4158 12.7939 39.5562 1.93433 26.1602 1.93433C12.7642 1.93433 1.90457 12.7939 1.90457 26.1899C1.90457 39.5859 12.7642 50.4455 26.1602 50.4455Z" fill="#1F1F7A"/>
<path d="M26.1294 6.80953C26.0838 6.80953 26.0464 6.77215 26.0464 6.72646V3.77508C26.0464 3.7294 26.0838 3.69202 26.1294 3.69202C26.1751 3.69202 26.2125 3.7294 26.2125 3.77508V6.72646C26.2125 6.77215 26.1751 6.80953 26.1294 6.80953Z" fill="#FFE2C2"/>
<path d="M18.6833 8.30315C18.6509 8.30315 18.6202 8.28404 18.6069 8.25165L17.4772 5.52456C17.4597 5.48219 17.4796 5.43318 17.522 5.41573C17.5644 5.39829 17.6134 5.41823 17.6308 5.46059L18.7606 8.18768C18.778 8.23005 18.7581 8.27906 18.7157 8.2965C18.7057 8.30066 18.6949 8.30315 18.6841 8.30315H18.6833Z" fill="#FFE2C2"/>
<path d="M12.376 12.5321C12.3544 12.5321 12.3337 12.5238 12.317 12.508L10.2304 10.4213C10.198 10.3889 10.198 10.3366 10.2304 10.3042C10.2628 10.2718 10.3151 10.2718 10.3475 10.3042L12.4342 12.3908C12.4666 12.4232 12.4666 12.4756 12.4342 12.508C12.4175 12.5246 12.3968 12.5321 12.3752 12.5321H12.376Z" fill="#FFE2C2"/>
<path d="M8.167 18.8535C8.1562 18.8535 8.14539 18.8518 8.13543 18.8468L5.40835 17.7171C5.36598 17.6997 5.34604 17.6507 5.36349 17.6083C5.38093 17.5659 5.42995 17.546 5.47231 17.5634L8.19939 18.6931C8.24175 18.7106 8.26169 18.7596 8.24425 18.802C8.23096 18.8335 8.20023 18.8535 8.16783 18.8535H8.167Z" fill="#FFE2C2"/>
<path d="M6.69756 26.3037H3.74618C3.7005 26.3037 3.66312 26.2663 3.66312 26.2206C3.66312 26.175 3.7005 26.1376 3.74618 26.1376H6.69756C6.74325 26.1376 6.78063 26.175 6.78063 26.2206C6.78063 26.2663 6.74325 26.3037 6.69756 26.3037Z" fill="#FFE2C2"/>
<path d="M5.464 34.8796C5.4316 34.8796 5.40087 34.8605 5.38758 34.8281C5.37014 34.7857 5.39006 34.7367 5.43242 34.7193L8.15952 33.5896C8.20189 33.5721 8.2509 33.5921 8.26835 33.6344C8.28579 33.6768 8.26585 33.7258 8.22349 33.7432L5.49639 34.8729C5.48642 34.8771 5.47563 34.8796 5.46483 34.8796H5.464Z" fill="#FFE2C2"/>
<path d="M17.6117 46.9933C17.6009 46.9933 17.5901 46.9917 17.5802 46.9867C17.5378 46.9692 17.5179 46.9202 17.5353 46.8779L18.665 44.1508C18.6825 44.1084 18.7315 44.0885 18.7738 44.1059C18.8162 44.1234 18.8361 44.1724 18.8187 44.2147L17.689 46.9418C17.6757 46.9734 17.645 46.9933 17.6126 46.9933H17.6117Z" fill="#FFE2C2"/>
<path d="M10.3334 42.1438C10.3118 42.1438 10.291 42.1354 10.2744 42.1197C10.242 42.0873 10.242 42.0349 10.2744 42.0025L12.3611 39.9159C12.3935 39.8835 12.4458 39.8835 12.4782 39.9159C12.5106 39.9483 12.5106 40.0006 12.4782 40.033L10.3915 42.1197C10.3749 42.1363 10.3542 42.1438 10.3326 42.1438H10.3334Z" fill="#FFE2C2"/>
<path d="M26.1917 48.687C26.1461 48.687 26.1087 48.6496 26.1087 48.6039V45.6525C26.1087 45.6068 26.1461 45.5695 26.1917 45.5695C26.2374 45.5695 26.2748 45.6068 26.2748 45.6525V48.6039C26.2748 48.6496 26.2374 48.687 26.1917 48.687Z" fill="#FFE2C2"/>
<path d="M34.7667 46.9692C34.7343 46.9692 34.7036 46.9501 34.6903 46.9177L33.5606 44.1906C33.5432 44.1482 33.5631 44.0992 33.6055 44.0817C33.6478 44.0643 33.6968 44.0842 33.7143 44.1266L34.844 46.8537C34.8614 46.8961 34.8415 46.9451 34.7991 46.9625C34.7892 46.9667 34.7784 46.9692 34.7676 46.9692H34.7667Z" fill="#FFE2C2"/>
<path d="M42.0318 42.1007C42.0102 42.1007 41.9894 42.0924 41.9728 42.0766L39.8862 39.9899C39.8538 39.9575 39.8538 39.9052 39.8862 39.8728C39.9186 39.8404 39.9709 39.8404 40.0033 39.8728L42.0899 41.9595C42.1223 41.9918 42.1223 42.0442 42.0899 42.0766C42.0733 42.0932 42.0526 42.1007 42.031 42.1007H42.0318Z" fill="#FFE2C2"/>
<path d="M46.8804 34.8215C46.8696 34.8215 46.8588 34.8198 46.8489 34.8148L44.1218 33.6851C44.0794 33.6677 44.0595 33.6187 44.0769 33.5763C44.0944 33.534 44.1434 33.514 44.1857 33.5315L46.9128 34.6612C46.9552 34.6786 46.9751 34.7276 46.9577 34.77C46.9444 34.8016 46.9137 34.8215 46.8813 34.8215H46.8804Z" fill="#FFE2C2"/>
<path d="M44.1301 18.7961C44.0977 18.7961 44.0669 18.777 44.0536 18.7446C44.0362 18.7022 44.0561 18.6532 44.0985 18.6358L46.8256 17.5061C46.8679 17.4886 46.917 17.5086 46.9344 17.5509C46.9518 17.5933 46.9319 17.6423 46.8895 17.6597L44.1624 18.7894C44.1525 18.7936 44.1417 18.7961 44.1309 18.7961H44.1301Z" fill="#FFE2C2"/>
<path d="M48.575 26.2415H45.6236C45.5779 26.2415 45.5405 26.2041 45.5405 26.1584C45.5405 26.1127 45.5779 26.0753 45.6236 26.0753H48.575C48.6207 26.0753 48.658 26.1127 48.658 26.1584C48.658 26.2041 48.6207 26.2415 48.575 26.2415Z" fill="#FFE2C2"/>
<path d="M39.9011 12.488C39.8795 12.488 39.8588 12.4797 39.8422 12.4639C39.8098 12.4315 39.8098 12.3792 39.8422 12.3468L41.9288 10.2601C41.9612 10.2277 42.0135 10.2277 42.0459 10.2601C42.0783 10.2925 42.0783 10.3449 42.0459 10.3773L39.9593 12.4639C39.9427 12.4805 39.9219 12.488 39.9003 12.488H39.9011Z" fill="#FFE2C2"/>
<path d="M33.5797 8.27983C33.5689 8.27983 33.5581 8.27817 33.5481 8.27319C33.5058 8.25575 33.4858 8.20673 33.5033 8.16437L34.633 5.43728C34.6504 5.39491 34.6994 5.37497 34.7418 5.39242C34.7842 5.40986 34.8041 5.45888 34.7867 5.50124L33.657 8.22833C33.6437 8.2599 33.6129 8.27983 33.5805 8.27983H33.5797Z" fill="#FFE2C2"/>
<path d="M26.1602 48.7842C13.7018 48.7842 3.5659 38.6484 3.5659 26.19C3.5659 13.7316 13.7018 3.5957 26.1602 3.5957C38.6186 3.5957 48.7544 13.7316 48.7544 26.19C48.7544 38.6484 38.6186 48.7842 26.1602 48.7842ZM26.1602 3.76184C13.7931 3.76184 3.73204 13.8229 3.73204 26.19C3.73204 38.557 13.7931 48.6181 26.1602 48.6181C38.5272 48.6181 48.5883 38.557 48.5883 26.19C48.5883 13.8229 38.5272 3.76184 26.1602 3.76184Z" fill="#FFE2C2"/>
<path d="M26.1602 45.6816C15.4121 45.6816 6.66847 36.938 6.66847 26.1899C6.66847 15.4419 15.4121 6.69824 26.1602 6.69824C36.9082 6.69824 45.6519 15.4419 45.6519 26.1899C45.6519 36.938 36.9082 45.6816 26.1602 45.6816ZM26.1602 6.86354C15.5035 6.86354 6.83461 15.5333 6.83461 26.1891C6.83461 36.845 15.5043 45.5147 26.1602 45.5147C36.816 45.5147 45.4857 36.845 45.4857 26.1891C45.4857 15.5333 36.816 6.86354 26.1602 6.86354Z" fill="#FFE2C2"/>
<path d="M20.0771 33.6161L20.2715 34.0622C20.3538 34.2516 20.505 34.4027 20.6944 34.485L21.1404 34.6794L20.6944 34.8737C20.505 34.956 20.3538 35.1071 20.2715 35.2965L20.0771 35.7426L19.8828 35.2965C19.8005 35.1071 19.6494 34.956 19.46 34.8737L19.0139 34.6794L19.46 34.485C19.6494 34.4027 19.8005 34.2516 19.8828 34.0622L20.0771 33.6161Z" fill="#F7B981"/>
<path d="M40.2899 32.1044L40.5291 32.6543C40.6304 32.8877 40.8173 33.0738 41.0508 33.1759L41.6007 33.4152L41.0508 33.6544C40.8173 33.7557 40.6313 33.9426 40.5291 34.1761L40.2899 34.726L40.0506 34.1761C39.9493 33.9426 39.7624 33.7566 39.529 33.6544L38.9791 33.4152L39.529 33.1759C39.7624 33.0746 39.9484 32.8877 40.0506 32.6543L40.2899 32.1044Z" fill="#F7B981"/>
<path d="M36.0709 26.5023L36.2503 26.9135C36.3267 27.0879 36.4655 27.2275 36.6408 27.3039L37.0519 27.4833L36.6408 27.6628C36.4663 27.7392 36.3267 27.8779 36.2503 28.0532L36.0709 28.4644L35.8915 28.0532C35.8151 27.8787 35.6763 27.7392 35.5011 27.6628L35.0899 27.4833L35.5011 27.3039C35.6755 27.2275 35.8151 27.0888 35.8915 26.9135L36.0709 26.5023Z" fill="#F7B981"/>
<path d="M40.5266 23.0658L40.6653 23.3839C40.7243 23.5193 40.8323 23.6265 40.9669 23.6855L41.285 23.8242L40.9669 23.9629C40.8315 24.0219 40.7243 24.1299 40.6653 24.2645L40.5266 24.5826L40.3879 24.2645C40.3289 24.1291 40.2209 24.0219 40.0864 23.9629L39.7682 23.8242L40.0864 23.6855C40.2218 23.6265 40.3289 23.5185 40.3879 23.3839L40.5266 23.0658Z" fill="#F7B981"/>
<path d="M16.124 38.2812L16.2503 38.5712C16.3043 38.6941 16.4023 38.7929 16.5252 38.8461L16.8151 38.9724L16.5252 39.0986C16.4023 39.1526 16.3034 39.2506 16.2503 39.3736L16.124 39.6635L15.9977 39.3736C15.9437 39.2506 15.8457 39.1518 15.7228 39.0986L15.4329 38.9724L15.7228 38.8461C15.8457 38.7921 15.9446 38.6941 15.9977 38.5712L16.124 38.2812Z" fill="#F7B981"/>
<path d="M13.7798 23.0658L13.9452 23.4462C14.0158 23.6082 14.1445 23.737 14.3056 23.8068L14.6861 23.9721L14.3056 24.1374C14.1437 24.208 14.0149 24.3367 13.9452 24.4979L13.7798 24.8783L13.6137 24.4979C13.5431 24.3359 13.4143 24.2071 13.2532 24.1374L12.8727 23.9721L13.2532 23.8068C13.4152 23.7362 13.5439 23.6074 13.6137 23.4462L13.7798 23.0658Z" fill="#F7B981"/>
<path d="M12.7615 18.8293C13.106 18.8293 13.3853 18.55 13.3853 18.2055C13.3853 17.861 13.106 17.5817 12.7615 17.5817C12.4169 17.5817 12.1376 17.861 12.1376 18.2055C12.1376 18.55 12.4169 18.8293 12.7615 18.8293Z" fill="#F7B981"/>
<path d="M15.6356 21.0257C15.7961 21.0257 15.9263 20.8955 15.9263 20.7349C15.9263 20.5744 15.7961 20.4442 15.6356 20.4442C15.475 20.4442 15.3448 20.5744 15.3448 20.7349C15.3448 20.8955 15.475 21.0257 15.6356 21.0257Z" fill="#F7B981"/>
<path d="M36.6806 14.8704C37.055 14.8704 37.3584 14.567 37.3584 14.1926C37.3584 13.8182 37.055 13.5148 36.6806 13.5148C36.3063 13.5148 36.0028 13.8182 36.0028 14.1926C36.0028 14.567 36.3063 14.8704 36.6806 14.8704Z" fill="#F7B981"/>
<path d="M17.6856 27.7059C17.8091 27.7059 17.9091 27.6059 17.9091 27.4825C17.9091 27.3591 17.8091 27.259 17.6856 27.259C17.5622 27.259 17.4622 27.3591 17.4622 27.4825C17.4622 27.6059 17.5622 27.7059 17.6856 27.7059Z" fill="#F7B981"/>
<path d="M31.739 12.4722C31.739 12.6225 31.6177 12.7438 31.4673 12.7438C31.317 12.7438 31.1957 12.6225 31.1957 12.4722C31.1957 12.3218 31.317 12.2006 31.4673 12.2006C31.6177 12.2006 31.739 12.3218 31.739 12.4722Z" fill="#F7B981"/>
<path d="M34.1446 18.2055C34.1446 18.414 33.9759 18.5826 33.7674 18.5826C33.5589 18.5826 33.3903 18.414 33.3903 18.2055C33.3903 17.997 33.5589 17.8284 33.7674 17.8284C33.9759 17.8284 34.1446 17.997 34.1446 18.2055Z" fill="#F7B981"/>
<path d="M39.146 35.2625L36.3774 32.9374C35.8674 32.5096 35.0899 32.8718 35.0899 33.5372V34.3878C34.0814 34.21 33.1337 33.651 32.4899 32.8544C31.8536 32.0677 31.5305 31.0767 31.528 29.9121V18.8019C31.5404 18.0535 31.5172 17.256 31.2771 16.4827C31.0188 15.6503 30.5179 14.8944 29.8666 14.3528C28.8922 13.5429 27.5233 13.1816 26.2939 13.4108C25.4475 13.5687 24.6508 13.9749 24.0087 14.5605C23.934 14.4882 23.8567 14.4184 23.777 14.3528C22.8026 13.5429 21.4336 13.1816 20.2043 13.4108C19.3578 13.5687 18.5612 13.9749 17.9191 14.5605C17.8443 14.4882 17.7671 14.4184 17.6873 14.3528C16.7129 13.5429 15.344 13.1816 14.1146 13.4108C13.303 13.562 12.7673 14.3429 12.9184 15.1544C13.0696 15.966 13.8505 16.5018 14.662 16.3506C15.0167 16.2841 15.4852 16.4112 15.7751 16.6521C15.9869 16.8282 16.1522 17.0824 16.2411 17.369C16.3574 17.7445 16.3657 18.2611 16.3574 18.7637C16.3574 18.772 16.3574 18.7803 16.3574 18.7886V29.9105C16.3574 30.7361 17.0269 31.4057 17.8526 31.4057C18.6783 31.4057 19.3478 30.7361 19.3478 29.9105V18.8002C19.3495 18.7122 19.3503 18.6233 19.3503 18.5344C19.3503 18.5336 19.3503 18.5319 19.3503 18.5311C19.3503 17.8475 19.4608 17.3607 19.6892 17.0417C19.9443 16.6845 20.3413 16.4262 20.7525 16.3498C21.108 16.2841 21.5749 16.4104 21.8656 16.6521C22.0766 16.8274 22.2427 17.0824 22.3316 17.369C22.4479 17.7445 22.4562 18.2611 22.4479 18.7637C22.4479 18.772 22.4479 18.7803 22.4479 18.7886V29.9105C22.4479 30.7361 23.1174 31.4057 23.9431 31.4057C24.7688 31.4057 25.4383 30.7361 25.4383 29.9105V18.8011C25.44 18.713 25.4408 18.6241 25.4408 18.5344C25.4408 18.5336 25.4408 18.5319 25.4408 18.5311C25.4408 17.8475 25.5513 17.3607 25.7797 17.0417C26.0347 16.6845 26.4318 16.4262 26.843 16.3498C27.1985 16.2833 27.6653 16.4104 27.9561 16.6521C28.1679 16.8274 28.3332 17.0824 28.4221 17.369C28.5384 17.7445 28.5467 18.2611 28.5384 18.7637C28.5384 18.772 28.5384 18.7803 28.5384 18.7886V29.9138C28.5417 31.7546 29.1041 33.4209 30.1648 34.7333C31.2588 36.0873 32.8703 37.0351 34.5848 37.3342C34.6721 37.3491 34.7584 37.3566 34.8432 37.3566C34.9279 37.3566 35.0093 37.3491 35.0899 37.335V38.1856C35.0899 38.851 35.8674 39.214 36.3774 38.7853L39.146 36.4603C39.519 36.1471 39.519 35.574 39.146 35.2608V35.2625Z" fill="white"/>
</svg>
