<svg width="80" height="80" viewBox="0 0 80 80" fill="none" xmlns="http://www.w3.org/2000/svg">
<path d="M40 80C62.0914 80 80 62.0914 80 40C80 17.9086 62.0914 0 40 0C17.9086 0 0 17.9086 0 40C0 62.0914 17.9086 80 40 80Z" fill="#F3D351"/>
<path d="M39.9999 77.3162C60.6091 77.3162 77.3162 60.6091 77.3162 39.9999C77.3162 19.3907 60.6091 2.68359 39.9999 2.68359C19.3907 2.68359 2.68359 19.3907 2.68359 39.9999C2.68359 60.6091 19.3907 77.3162 39.9999 77.3162Z" fill="url(#paint0_linear_1709_1403)"/>
<path d="M39.9525 10.1829C39.8822 10.1829 39.8247 10.1254 39.8247 10.0551V5.51451C39.8247 5.44423 39.8822 5.38672 39.9525 5.38672C40.0228 5.38672 40.0803 5.44423 40.0803 5.51451V10.0551C40.0803 10.1254 40.0228 10.1829 39.9525 10.1829Z" fill="white"/>
<path d="M28.4984 12.4822C28.4485 12.4822 28.4012 12.4528 28.3808 12.4029L26.6428 8.20737C26.6159 8.1422 26.6466 8.06682 26.7118 8.03999C26.777 8.01315 26.8524 8.04379 26.8792 8.10897L28.6172 12.3045C28.6441 12.3697 28.6134 12.4451 28.5482 12.4719C28.5329 12.4783 28.5162 12.4822 28.4996 12.4822H28.4984Z" fill="white"/>
<path d="M18.7949 18.9883C18.7617 18.9883 18.7297 18.9755 18.7042 18.9512L15.4939 15.741C15.4441 15.6912 15.4441 15.6107 15.4939 15.5608C15.5438 15.511 15.6243 15.511 15.6741 15.5608L18.8843 18.7711C18.9342 18.8209 18.9342 18.9014 18.8843 18.9512C18.8588 18.9768 18.8268 18.9883 18.7936 18.9883H18.7949Z" fill="white"/>
<path d="M12.3184 28.7122C12.3018 28.7122 12.2852 28.7096 12.2698 28.7019L8.07433 26.9639C8.00915 26.9371 7.97848 26.8616 8.00531 26.7965C8.03215 26.7313 8.10756 26.7006 8.17273 26.7275L12.3682 28.4655C12.4334 28.4923 12.4641 28.5677 12.4373 28.6329C12.4168 28.6815 12.3695 28.7122 12.3197 28.7122H12.3184Z" fill="white"/>
<path d="M10.0588 40.1745H5.51818C5.44789 40.1745 5.39038 40.117 5.39038 40.0467C5.39038 39.9765 5.44789 39.9189 5.51818 39.9189H10.0588C10.129 39.9189 10.1866 39.9765 10.1866 40.0467C10.1866 40.117 10.129 40.1745 10.0588 40.1745Z" fill="white"/>
<path d="M8.15999 53.3684C8.11015 53.3684 8.06287 53.339 8.04243 53.2892C8.01559 53.224 8.04623 53.1486 8.11141 53.1218L12.3069 51.3837C12.3721 51.3569 12.4475 51.3876 12.4744 51.4527C12.5012 51.5179 12.4705 51.5933 12.4054 51.6202L8.20982 53.3582C8.19448 53.3646 8.17788 53.3684 8.16127 53.3684H8.15999Z" fill="white"/>
<path d="M26.8494 72.0046C26.8328 72.0046 26.8162 72.0021 26.8009 71.9944C26.7357 71.9675 26.705 71.8921 26.7319 71.827L28.4699 67.6314C28.4967 67.5663 28.5721 67.5356 28.6373 67.5624C28.7025 67.5893 28.7331 67.6647 28.7063 67.7298L26.9683 71.9254C26.9478 71.9739 26.9006 72.0046 26.8507 72.0046H26.8494Z" fill="white"/>
<path d="M15.6513 64.544C15.6181 64.544 15.5861 64.5312 15.5606 64.5069C15.5107 64.4571 15.5107 64.3766 15.5606 64.3267L18.7708 61.1165C18.8207 61.0666 18.9012 61.0666 18.951 61.1165C19.0008 61.1663 19.0008 61.2469 18.951 61.2967L15.7408 64.5069C15.7152 64.5325 15.6833 64.544 15.6501 64.544H15.6513Z" fill="white"/>
<path d="M40.0492 74.6106C39.9789 74.6106 39.9214 74.5531 39.9214 74.4828V69.9422C39.9214 69.872 39.9789 69.8145 40.0492 69.8145C40.1195 69.8145 40.177 69.872 40.177 69.9422V74.4828C40.177 74.5531 40.1195 74.6106 40.0492 74.6106Z" fill="white"/>
<path d="M53.2413 71.9675C53.1914 71.9675 53.1442 71.9381 53.1237 71.8883L51.3857 67.6927C51.3588 67.6275 51.3895 67.5522 51.4547 67.5253C51.5199 67.4985 51.5953 67.5292 51.6221 67.5943L53.3601 71.7899C53.387 71.855 53.3563 71.9304 53.2911 71.9573C53.2758 71.9637 53.2592 71.9675 53.2426 71.9675H53.2413Z" fill="white"/>
<path d="M64.4184 64.4776C64.3852 64.4776 64.3533 64.4648 64.3277 64.4405L61.1175 61.2303C61.0676 61.1804 61.0676 61.0999 61.1175 61.0501C61.1673 61.0002 61.2478 61.0002 61.2977 61.0501L64.5079 64.2603C64.5577 64.3102 64.5577 64.3907 64.5079 64.4405C64.4823 64.4661 64.4504 64.4776 64.4171 64.4776H64.4184Z" fill="white"/>
<path d="M71.8775 53.2786C71.8609 53.2786 71.8443 53.276 71.8289 53.2683L67.6334 51.5303C67.5682 51.5035 67.5376 51.4281 67.5644 51.3629C67.5912 51.2977 67.6666 51.267 67.7318 51.2939L71.9273 53.0319C71.9925 53.0587 72.0232 53.1341 71.9963 53.1993C71.9759 53.2479 71.9286 53.2786 71.8788 53.2786H71.8775Z" fill="white"/>
<path d="M67.6473 28.6243C67.5974 28.6243 67.5502 28.5949 67.5297 28.545C67.5029 28.4799 67.5336 28.4045 67.5987 28.3776L71.7942 26.6396C71.8594 26.6128 71.9348 26.6434 71.9617 26.7086C71.9885 26.7738 71.9578 26.8492 71.8927 26.876L67.6971 28.6141C67.6818 28.6204 67.6652 28.6243 67.6486 28.6243H67.6473Z" fill="white"/>
<path d="M74.4853 40.0788H69.9447C69.8744 40.0788 69.8169 40.0213 69.8169 39.951C69.8169 39.8808 69.8744 39.8232 69.9447 39.8232H74.4853C74.5556 39.8232 74.6131 39.8808 74.6131 39.951C74.6131 40.0213 74.5556 40.0788 74.4853 40.0788Z" fill="white"/>
<path d="M61.1408 18.9209C61.1076 18.9209 61.0756 18.9081 61.0501 18.8839C61.0002 18.834 61.0002 18.7535 61.0501 18.7037L64.2603 15.4934C64.3101 15.4436 64.3906 15.4436 64.4405 15.4934C64.4903 15.5433 64.4903 15.6238 64.4405 15.6736L61.2303 18.8839C61.2047 18.9094 61.1728 18.9209 61.1395 18.9209H61.1408Z" fill="white"/>
<path d="M51.4158 12.446C51.3992 12.446 51.3826 12.4435 51.3673 12.4358C51.3021 12.409 51.2714 12.3335 51.2983 12.2684L53.0363 8.07286C53.0631 8.00769 53.1385 7.97701 53.2037 8.00385C53.2689 8.03068 53.2996 8.10606 53.2727 8.17124L51.5347 12.3668C51.5142 12.4153 51.467 12.446 51.4171 12.446H51.4158Z" fill="white"/>
<path d="M39.9999 74.76C20.8331 74.76 5.2395 59.1664 5.2395 39.9996C5.2395 20.8329 20.8331 5.23926 39.9999 5.23926C59.1667 5.23926 74.7603 20.8329 74.7603 39.9996C74.7603 59.1664 59.1667 74.76 39.9999 74.76ZM39.9999 5.49485C20.9737 5.49485 5.49509 20.9734 5.49509 39.9996C5.49509 59.0258 20.9737 74.5044 39.9999 74.5044C59.0261 74.5044 74.5047 59.0258 74.5047 39.9996C74.5047 20.9734 59.0261 5.49485 39.9999 5.49485Z" fill="white"/>
<path d="M40.0006 69.9862C23.4652 69.9862 10.0134 56.5344 10.0134 39.9989C10.0134 23.4635 23.4652 10.0117 40.0006 10.0117C56.5361 10.0117 69.9879 23.4635 69.9879 39.9989C69.9879 56.5344 56.5361 69.9862 40.0006 69.9862ZM40.0006 10.266C23.6057 10.266 10.269 23.604 10.269 39.9976C10.269 56.3913 23.607 69.7293 40.0006 69.7293C56.3942 69.7293 69.7323 56.3913 69.7323 39.9976C69.7323 23.604 56.3942 10.266 40.0006 10.266Z" fill="white"/>
<path d="M22.157 43.7939L22.4561 44.4802C22.5826 44.7716 22.8152 45.0042 23.1065 45.1307L23.7928 45.4297L23.1065 45.7288C22.8152 45.8553 22.5826 46.0879 22.4561 46.3793L22.157 47.0655L21.858 46.3793C21.7315 46.0879 21.4989 45.8553 21.2075 45.7288L20.5212 45.4297L21.2075 45.1307C21.4989 45.0042 21.7315 44.7716 21.858 44.4802L22.157 43.7939Z" fill="white"/>
<path d="M52.2492 32.2002L52.5188 32.8187C52.6339 33.082 52.8434 33.2916 53.1054 33.4053L53.7239 33.675L53.1054 33.9446C52.8421 34.0596 52.6326 34.2692 52.5188 34.5312L52.2492 35.1497L51.9795 34.5312C51.8645 34.2679 51.6549 34.0584 51.393 33.9446L50.7744 33.675L51.393 33.4053C51.6562 33.2903 51.8658 33.0807 51.9795 32.8187L52.2492 32.2002Z" fill="white"/>
<path d="M56.2454 25.6289L56.4512 26.103C56.5394 26.3037 56.6991 26.4647 56.901 26.5529L57.3752 26.7586L56.901 26.9644C56.7004 27.0525 56.5394 27.2123 56.4512 27.4142L56.2454 27.8883L56.0397 27.4142C55.9515 27.2136 55.7918 27.0525 55.5898 26.9644L55.1157 26.7586L55.5898 26.5529C55.7905 26.4647 55.9515 26.3049 56.0397 26.103L56.2454 25.6289Z" fill="white"/>
<path d="M54.906 51.1172L55.1195 51.6067C55.2102 51.815 55.3763 51.9798 55.5834 52.0705L56.0728 52.284L55.5834 52.4974C55.3751 52.5881 55.2102 52.7543 55.1195 52.9613L54.906 53.4507L54.6926 52.9613C54.6019 52.753 54.4358 52.5881 54.2287 52.4974L53.7393 52.284L54.2287 52.0705C54.437 51.9798 54.6019 51.8137 54.6926 51.6067L54.906 51.1172Z" fill="white"/>
<path d="M25.898 51.0215L26.0922 51.4675C26.1753 51.6566 26.3261 51.8087 26.5152 51.8905L26.9612 52.0848L26.5152 52.279C26.3261 52.3621 26.174 52.5129 26.0922 52.702L25.898 53.148L25.7037 52.702C25.6207 52.5129 25.4699 52.3608 25.2807 52.279L24.8347 52.0848L25.2807 51.8905C25.4699 51.8074 25.6219 51.6566 25.7037 51.4675L25.898 51.0215Z" fill="white"/>
<path d="M22.5642 31.9971C23.0879 31.9971 23.5124 31.5725 23.5124 31.0488C23.5124 30.5251 23.0879 30.1006 22.5642 30.1006C22.0405 30.1006 21.616 30.5251 21.616 31.0488C21.616 31.5725 22.0405 31.9971 22.5642 31.9971Z" fill="white"/>
<path d="M59.1125 32.8714C59.4456 32.8714 59.7157 32.6014 59.7157 32.2682C59.7157 31.9351 59.4456 31.665 59.1125 31.665C58.7793 31.665 58.5093 31.9351 58.5093 32.2682C58.5093 32.6014 58.7793 32.8714 59.1125 32.8714Z" fill="white"/>
<path d="M26.4148 28.2325C26.6047 28.2325 26.7586 28.0785 26.7586 27.8887C26.7586 27.6988 26.6047 27.5449 26.4148 27.5449C26.225 27.5449 26.071 27.6988 26.071 27.8887C26.071 28.0785 26.225 28.2325 26.4148 28.2325Z" fill="white"/>
<path d="M52.2487 44.5873C52.2487 44.7956 52.0788 44.9656 51.8705 44.9656C51.6622 44.9656 51.4922 44.7956 51.4922 44.5873C51.4922 44.379 51.6622 44.209 51.8705 44.209C52.0788 44.209 52.2487 44.379 52.2487 44.5873Z" fill="white"/>
<path d="M57.7321 44.9654C57.7321 45.4242 57.3603 45.7961 56.9015 45.7961C56.4427 45.7961 56.0708 45.4242 56.0708 44.9654C56.0708 44.5067 56.4427 44.1348 56.9015 44.1348C57.3603 44.1348 57.7321 44.5067 57.7321 44.9654Z" fill="white"/>
<path d="M52.5521 53.5481C51.0032 51.9443 47.7342 47.9571 47.0109 42.3008H50.3655C51.6358 42.3008 52.6659 41.2708 52.6659 40.0005C52.6659 38.7302 51.6358 37.7002 50.3655 37.7002H47.0199C47.7675 31.8382 51.0633 27.9456 52.5329 26.4721C53.4301 25.5724 53.4288 24.1168 52.5304 23.2184C51.632 22.3213 50.1751 22.3213 49.2767 23.221C47.4109 25.0906 43.1643 30.1143 42.3885 37.6989H37.6128C36.8371 30.1143 32.5917 25.0906 30.7246 23.221C29.8275 22.3213 28.3707 22.3213 27.471 23.2184C26.5713 24.1156 26.5713 25.5724 27.4684 26.4721C28.9381 27.9443 32.2352 31.8369 32.9815 37.7002H29.6358C28.3655 37.7002 27.3355 38.7302 27.3355 40.0005C27.3355 41.2708 28.3655 42.3008 29.6358 42.3008H32.9905C32.2684 47.9583 28.9981 51.9456 27.4492 53.5481L27.4428 53.5558C26.5598 54.4695 26.5892 55.9226 27.5029 56.8044C27.9489 57.235 28.524 57.4484 29.0991 57.4484C29.7036 57.4484 30.3068 57.212 30.7592 56.7443C32.3477 55.1008 33.7099 53.2504 34.8077 51.2465C36.3783 48.3814 37.3189 45.3845 37.6256 42.3008H42.377C42.6825 45.3845 43.6243 48.3826 45.1949 51.2465C46.294 53.2504 47.6563 55.1008 49.2435 56.7443C49.6959 57.212 50.2991 57.4484 50.9036 57.4484C51.508 57.4484 52.0537 57.235 52.4997 56.8044C53.4135 55.9213 53.4416 54.4695 52.5598 53.5558L52.5534 53.5481H52.5521Z" fill="white"/>
<defs>
<linearGradient id="paint0_linear_1709_1403" x1="39.9999" y1="2.68359" x2="39.9999" y2="77.3162" gradientUnits="userSpaceOnUse">
<stop stop-color="#3867B8"/>
<stop offset="1" stop-color="#192E52"/>
</linearGradient>
</defs>
</svg>
