<svg width="80" height="80" viewBox="0 0 80 80" fill="none" xmlns="http://www.w3.org/2000/svg">
<path d="M40 80C62.0914 80 80 62.0914 80 40C80 17.9086 62.0914 0 40 0C17.9086 0 0 17.9086 0 40C0 62.0914 17.9086 80 40 80Z" fill="#F3D351"/>
<path d="M39.9999 77.3162C60.6091 77.3162 77.3162 60.6091 77.3162 39.9999C77.3162 19.3907 60.6091 2.68359 39.9999 2.68359C19.3907 2.68359 2.68359 19.3907 2.68359 39.9999C2.68359 60.6091 19.3907 77.3162 39.9999 77.3162Z" fill="url(#paint0_linear_1709_2141)"/>
<path d="M39.9508 10.1848C39.8805 10.1848 39.823 10.1273 39.823 10.057V5.51647C39.823 5.44618 39.8805 5.38867 39.9508 5.38867C40.0211 5.38867 40.0786 5.44618 40.0786 5.51647V10.057C40.0786 10.1273 40.0211 10.1848 39.9508 10.1848Z" fill="white"/>
<path d="M28.4962 12.4831C28.4463 12.4831 28.399 12.4537 28.3786 12.4039L26.6406 8.20837C26.6137 8.14319 26.6444 8.06779 26.7096 8.04096C26.7748 8.01412 26.8502 8.04479 26.877 8.10997L28.615 12.3055C28.6419 12.3707 28.6112 12.4461 28.546 12.4729C28.5307 12.4793 28.5141 12.4831 28.4974 12.4831H28.4962Z" fill="white"/>
<path d="M18.7927 18.9883C18.7595 18.9883 18.7275 18.9755 18.702 18.9512L15.4917 15.741C15.4419 15.6912 15.4419 15.6107 15.4917 15.5608C15.5416 15.511 15.6221 15.511 15.6719 15.5608L18.8821 18.771C18.932 18.8209 18.932 18.9014 18.8821 18.9512C18.8566 18.9768 18.8246 18.9883 18.7914 18.9883H18.7927Z" fill="white"/>
<path d="M12.3182 28.7121C12.3016 28.7121 12.2849 28.7096 12.2696 28.7019L8.07408 26.9639C8.00891 26.9371 7.97823 26.8617 8.00507 26.7965C8.03191 26.7313 8.10731 26.7006 8.17249 26.7275L12.368 28.4655C12.4332 28.4923 12.4638 28.5677 12.437 28.6329C12.4166 28.6815 12.3693 28.7121 12.3194 28.7121H12.3182Z" fill="white"/>
<path d="M5.51451 40.1755C5.44423 40.1755 5.38672 40.118 5.38672 40.0477C5.38672 39.9774 5.44423 39.9199 5.51451 39.9199H10.0551C10.1254 39.9199 10.1829 39.9774 10.1829 40.0477C10.1829 40.118 10.1254 40.1755 10.0551 40.1755H5.51451Z" fill="white"/>
<path d="M8.1595 53.3684C8.10966 53.3684 8.06239 53.339 8.04194 53.2892C8.0151 53.224 8.04575 53.1486 8.11092 53.1218L12.3065 51.3837C12.3716 51.3569 12.447 51.3876 12.4739 51.4527C12.5007 51.5179 12.47 51.5933 12.4049 51.6202L8.20933 53.3582C8.19399 53.3646 8.17739 53.3684 8.16078 53.3684H8.1595Z" fill="white"/>
<path d="M26.8465 72.0046C26.8299 72.0046 26.8133 72.0021 26.798 71.9944C26.7328 71.9676 26.7021 71.8922 26.7289 71.827L28.4669 67.6314C28.4938 67.5663 28.5692 67.5356 28.6344 67.5624C28.6995 67.5893 28.7302 67.6647 28.7034 67.7299L26.9653 71.9254C26.9449 71.9739 26.8976 72.0046 26.8478 72.0046H26.8465Z" fill="white"/>
<path d="M15.6494 64.5452C15.6162 64.5452 15.5842 64.5325 15.5586 64.5082C15.5088 64.4583 15.5088 64.3778 15.5586 64.328L18.7689 61.1165C18.8187 61.0666 18.8992 61.0666 18.949 61.1165C18.9989 61.1663 18.9989 61.2468 18.949 61.2967L15.7388 64.5082C15.7133 64.5337 15.6813 64.5452 15.6481 64.5452H15.6494Z" fill="white"/>
<path d="M40.0465 74.6116C39.9762 74.6116 39.9187 74.5541 39.9187 74.4838V69.9432C39.9187 69.8729 39.9762 69.8154 40.0465 69.8154C40.1168 69.8154 40.1743 69.8729 40.1743 69.9432V74.4838C40.1743 74.5541 40.1168 74.6116 40.0465 74.6116Z" fill="white"/>
<path d="M53.2388 71.9675C53.189 71.9675 53.1417 71.9381 53.1213 71.8883L51.3832 67.6928C51.3564 67.6276 51.3871 67.5522 51.4523 67.5253C51.5174 67.4985 51.5928 67.5292 51.6197 67.5943L53.3577 71.7899C53.3845 71.8551 53.3538 71.9305 53.2887 71.9573C53.2733 71.9637 53.2567 71.9675 53.2401 71.9675H53.2388Z" fill="white"/>
<path d="M64.416 64.4776C64.3828 64.4776 64.3509 64.4648 64.3253 64.4405L61.1138 61.2303C61.064 61.1804 61.064 61.0999 61.1138 61.0501C61.1636 61.0002 61.2442 61.0002 61.294 61.0501L64.5055 64.2603C64.5553 64.3101 64.5553 64.3907 64.5055 64.4405C64.4799 64.4661 64.448 64.4776 64.4148 64.4776H64.416Z" fill="white"/>
<path d="M71.877 53.2795C71.8604 53.2795 71.8438 53.277 71.8284 53.2693L67.6329 51.5313C67.5677 51.5045 67.5371 51.4291 67.5639 51.3639C67.5907 51.2987 67.6661 51.268 67.7313 51.2949L71.9268 53.0329C71.992 53.0597 72.0227 53.1351 71.9959 53.2003C71.9754 53.2489 71.9281 53.2795 71.8783 53.2795H71.877Z" fill="white"/>
<path d="M67.6439 28.6243C67.594 28.6243 67.5468 28.5949 67.5263 28.545C67.4995 28.4798 67.5301 28.4044 67.5953 28.3776L71.7908 26.6396C71.856 26.6128 71.9314 26.6434 71.9582 26.7086C71.9851 26.7738 71.9544 26.8492 71.8892 26.876L67.6937 28.614C67.6784 28.6204 67.6618 28.6243 67.6451 28.6243H67.6439Z" fill="white"/>
<path d="M69.9415 40.0798C69.8712 40.0798 69.8137 40.0223 69.8137 39.952C69.8137 39.8817 69.8712 39.8242 69.9415 39.8242H74.4821C74.5524 39.8242 74.6099 39.8817 74.6099 39.952C74.6099 40.0223 74.5524 40.0798 74.4821 40.0798H69.9415Z" fill="white"/>
<path d="M61.1379 18.9209C61.1046 18.9209 61.0727 18.9081 61.0471 18.8839C60.9973 18.834 60.9973 18.7535 61.0471 18.7037L64.2574 15.4934C64.3072 15.4436 64.3877 15.4436 64.4375 15.4934C64.4874 15.5433 64.4874 15.6238 64.4375 15.6736L61.2273 18.8839C61.2018 18.9094 61.1698 18.9209 61.1366 18.9209H61.1379Z" fill="white"/>
<path d="M51.4136 12.445C51.397 12.445 51.3804 12.4425 51.3651 12.4348C51.2999 12.408 51.2692 12.3326 51.2961 12.2674L53.0341 8.07188C53.0609 8.00671 53.1363 7.97603 53.2015 8.00287C53.2667 8.02971 53.2974 8.10511 53.2705 8.17028L51.5325 12.3658C51.512 12.4144 51.4648 12.445 51.4149 12.445H51.4136Z" fill="white"/>
<path d="M40.0011 74.76C20.8343 74.76 5.24072 59.1664 5.24072 39.9996C5.24072 20.8329 20.8343 5.23926 40.0011 5.23926C59.1679 5.23926 74.7615 20.8329 74.7615 39.9996C74.7615 59.1664 59.1679 74.76 40.0011 74.76ZM40.0011 5.49485C20.9749 5.49485 5.49631 20.9734 5.49631 39.9996C5.49631 59.0258 20.9749 74.5044 40.0011 74.5044C59.0273 74.5044 74.5059 59.0258 74.5059 39.9996C74.5059 20.9734 59.0273 5.49485 40.0011 5.49485Z" fill="white"/>
<path d="M39.9999 69.9862C23.4644 69.9862 10.0127 56.5331 10.0127 39.9989C10.0127 23.4648 23.4644 10.0117 39.9999 10.0117C56.5354 10.0117 69.9871 23.4635 69.9871 39.9989C69.9871 56.5344 56.5354 69.9862 39.9999 69.9862ZM39.9999 10.266C23.605 10.266 10.2683 23.6041 10.2683 39.9977C10.2683 56.3913 23.6063 69.7293 39.9999 69.7293C56.3935 69.7293 69.7315 56.3913 69.7315 39.9977C69.7315 23.6041 56.3935 10.266 39.9999 10.266Z" fill="white"/>
<path d="M25.6759 43.5088L26.0835 44.4443C26.256 44.8417 26.573 45.1586 26.9704 45.3312L27.9059 45.7388L26.9704 46.1465C26.573 46.319 26.256 46.6359 26.0835 47.0334L25.6759 47.9689L25.2682 47.0334C25.0956 46.6359 24.7787 46.319 24.3813 46.1465L23.4458 45.7388L24.3813 45.3312C24.7787 45.1586 25.0956 44.8417 25.2682 44.4443L25.6759 43.5088Z" fill="white"/>
<path d="M58.4961 46.7002L58.8641 47.5462C59.0201 47.9053 59.3076 48.1916 59.6667 48.3488L60.5127 48.7168L59.6667 49.0849C59.3076 49.2408 59.0213 49.5283 58.8641 49.8874L58.4961 50.7334L58.128 49.8874C57.9721 49.5283 57.6846 49.242 57.3255 49.0849L56.4795 48.7168L57.3255 48.3488C57.6846 48.1928 57.9709 47.9053 58.128 47.5462L58.4961 46.7002Z" fill="white"/>
<path d="M63.7102 39.9521L63.9863 40.5847C64.1038 40.8531 64.3172 41.0678 64.5869 41.1854L65.2195 41.4614L64.5869 41.7374C64.3185 41.855 64.1038 42.0684 63.9863 42.3381L63.7102 42.9707L63.4342 42.3381C63.3166 42.0697 63.1032 41.855 62.8335 41.7374L62.2009 41.4614L62.8335 41.1854C63.1019 41.0678 63.3166 40.8544 63.4342 40.5847L63.7102 39.9521Z" fill="white"/>
<path d="M59.6629 28.1006L59.8763 28.59C59.967 28.7983 60.1332 28.9632 60.3402 29.0539L60.8296 29.2674L60.3402 29.4808C60.1319 29.5715 59.967 29.7376 59.8763 29.9447L59.6629 30.4341L59.4495 29.9447C59.3587 29.7364 59.1926 29.5715 58.9856 29.4808L58.4961 29.2674L58.9856 29.0539C59.1939 28.9632 59.3587 28.7971 59.4495 28.59L59.6629 28.1006Z" fill="white"/>
<path d="M19.9236 50.5928L20.1179 51.0388C20.2009 51.2279 20.3517 51.38 20.5409 51.4618L20.9869 51.656L20.5409 51.8503C20.3517 51.9334 20.1997 52.0842 20.1179 52.2733L19.9236 52.7193L19.7294 52.2733C19.6463 52.0842 19.4955 51.9321 19.3064 51.8503L18.8604 51.656L19.3064 51.4618C19.4955 51.3787 19.6476 51.2279 19.7294 51.0388L19.9236 50.5928Z" fill="white"/>
<path d="M32.421 18.4785L32.614 18.9232C32.6958 19.1124 32.8465 19.2619 33.0357 19.345L33.4804 19.5379L33.0357 19.7309C32.8465 19.8127 32.697 19.9635 32.614 20.1526L32.421 20.5974L32.228 20.1526C32.1462 19.9635 31.9954 19.814 31.8063 19.7309L31.3616 19.5379L31.8063 19.345C31.9954 19.2632 32.145 19.1124 32.228 18.9232L32.421 18.4785Z" fill="white"/>
<path d="M19.366 35.8468C19.9504 35.8468 20.4242 35.373 20.4242 34.7886C20.4242 34.2042 19.9504 33.7305 19.366 33.7305C18.7816 33.7305 18.3079 34.2042 18.3079 34.7886C18.3079 35.373 18.7816 35.8468 19.366 35.8468Z" fill="white"/>
<path d="M50.3702 19.8366C50.9462 19.8366 51.413 19.3697 51.413 18.7938C51.413 18.2179 50.9462 17.751 50.3702 17.751C49.7943 17.751 49.3274 18.2179 49.3274 18.7938C49.3274 19.3697 49.7943 19.8366 50.3702 19.8366Z" fill="white"/>
<path d="M25.1972 30.2899C25.4795 30.2899 25.7084 30.0611 25.7084 29.7788C25.7084 29.4964 25.4795 29.2676 25.1972 29.2676C24.9149 29.2676 24.686 29.4964 24.686 29.7788C24.686 30.0611 24.9149 30.2899 25.1972 30.2899Z" fill="white"/>
<path d="M54.5172 35.847C54.5172 36.1422 54.2783 36.3824 53.9818 36.3824C53.6853 36.3824 53.4463 36.1435 53.4463 35.847C53.4463 35.5505 53.6853 35.3115 53.9818 35.3115C54.2783 35.3115 54.5172 35.5505 54.5172 35.847Z" fill="white"/>
<path d="M40.5299 22.6523C40.5299 22.8836 40.3433 23.0702 40.112 23.0702C39.8807 23.0702 39.6941 22.8836 39.6941 22.6523C39.6941 22.421 39.8807 22.2344 40.112 22.2344C40.3433 22.2344 40.5299 22.421 40.5299 22.6523Z" fill="white"/>
<path d="M57.4925 56.5312C57.3072 56.3804 54.3231 53.9906 49.2573 52.3088V27.6903C54.3244 26.0085 57.3072 23.62 57.4925 23.4679C58.4778 22.6654 58.6273 21.2136 57.8247 20.2296C57.0222 19.2443 55.5768 19.0948 54.5915 19.8973C54.534 19.9433 48.7091 24.5401 39.6471 24.7254C39.4822 24.7293 39.3199 24.7305 39.1576 24.7305C30.479 24.7305 24.9187 20.0008 24.8701 19.9587C23.9167 19.119 22.4624 19.2123 21.6241 20.1657C20.7845 21.119 20.8778 22.5733 21.8311 23.4117C22.0254 23.5829 25.265 26.3804 30.7436 28.0686V51.9318C25.265 53.6187 22.0254 56.4174 21.8311 56.5887C20.8778 57.4283 20.7845 58.8813 21.6241 59.8347C22.4637 60.788 23.9167 60.8813 24.8701 60.0417C24.9199 59.9983 30.4803 55.2698 39.1576 55.2698C39.3199 55.2698 39.4822 55.2711 39.6471 55.2749C48.7091 55.4603 54.534 60.0571 54.5915 60.1031C55.5768 60.9056 57.0222 60.7561 57.8247 59.7708C58.6273 58.7855 58.4765 57.335 57.4925 56.5325V56.5312ZM39.1474 50.6679C37.8145 50.6679 36.5442 50.7599 35.3429 50.9209V29.0781C36.5442 29.2392 37.8145 29.3312 39.1474 29.3312C39.3442 29.3312 39.5423 29.3286 39.7416 29.3248C41.4886 29.289 43.1295 29.1152 44.6554 28.8481V51.1497C43.1295 50.8826 41.4886 50.7088 39.7416 50.673C39.5423 50.6692 39.3442 50.6666 39.1474 50.6666V50.6679Z" fill="white"/>
<defs>
<linearGradient id="paint0_linear_1709_2141" x1="39.9999" y1="2.68359" x2="39.9999" y2="77.3162" gradientUnits="userSpaceOnUse">
<stop stop-color="#3867B8"/>
<stop offset="1" stop-color="#192E52"/>
</linearGradient>
</defs>
</svg>
