<svg width="80" height="80" viewBox="0 0 80 80" fill="none" xmlns="http://www.w3.org/2000/svg">
<path d="M40 80C62.0914 80 80 62.0914 80 40C80 17.9086 62.0914 0 40 0C17.9086 0 0 17.9086 0 40C0 62.0914 17.9086 80 40 80Z" fill="#F3D351"/>
<path d="M40.0001 77.3162C60.6094 77.3162 77.3164 60.6091 77.3164 39.9999C77.3164 19.3907 60.6094 2.68359 40.0001 2.68359C19.3909 2.68359 2.68384 19.3907 2.68384 39.9999C2.68384 60.6091 19.3909 77.3162 40.0001 77.3162Z" fill="url(#paint0_linear_1709_1225)"/>
<path d="M39.951 10.1858C39.8808 10.1858 39.8232 10.1283 39.8232 10.058V5.51744C39.8232 5.44716 39.8808 5.38965 39.951 5.38965C40.0213 5.38965 40.0788 5.44716 40.0788 5.51744V10.058C40.0788 10.1283 40.0213 10.1858 39.951 10.1858Z" fill="white"/>
<path d="M28.4964 12.4831C28.4466 12.4831 28.3993 12.4537 28.3788 12.4039L26.6408 8.20838C26.614 8.1432 26.6446 8.06779 26.7098 8.04096C26.775 8.01412 26.8504 8.0448 26.8772 8.10997L28.6153 12.3055C28.6421 12.3707 28.6114 12.4461 28.5462 12.4729C28.5296 12.4793 28.5143 12.4831 28.4977 12.4831H28.4964Z" fill="white"/>
<path d="M18.7915 18.9893C18.7582 18.9893 18.7263 18.9765 18.7007 18.9522L15.4905 15.742C15.4407 15.6922 15.4407 15.6116 15.4905 15.5618C15.5403 15.512 15.6209 15.512 15.6707 15.5618L18.8809 18.772C18.9308 18.8219 18.9308 18.9024 18.8809 18.9522C18.8554 18.9778 18.8234 18.9893 18.7902 18.9893H18.7915Z" fill="white"/>
<path d="M12.3169 28.7121C12.3003 28.7121 12.2837 28.7096 12.2684 28.7019L8.07286 26.9639C8.00768 26.9371 7.97701 26.8617 8.00385 26.7965C8.03069 26.7313 8.10481 26.7006 8.17126 26.7275L12.3668 28.4655C12.432 28.4923 12.4626 28.5677 12.4358 28.6329C12.4153 28.6815 12.3681 28.7121 12.3182 28.7121H12.3169Z" fill="white"/>
<path d="M10.0553 40.1755H5.51476C5.44447 40.1755 5.38696 40.118 5.38696 40.0477C5.38696 39.9774 5.44447 39.9199 5.51476 39.9199H10.0553C10.1256 39.9199 10.1831 39.9774 10.1831 40.0477C10.1831 40.118 10.1256 40.1755 10.0553 40.1755Z" fill="white"/>
<path d="M8.15828 53.3684C8.10844 53.3684 8.06116 53.339 8.04071 53.2892C8.01388 53.224 8.04455 53.1486 8.10972 53.1217L12.3052 51.3837C12.3704 51.3569 12.4458 51.3876 12.4727 51.4527C12.4995 51.5179 12.4688 51.5933 12.4037 51.6201L8.20813 53.3582C8.19151 53.3646 8.17618 53.3684 8.15956 53.3684H8.15828Z" fill="white"/>
<path d="M26.8458 72.0056C26.8292 72.0056 26.8126 72.003 26.7972 71.9954C26.732 71.9685 26.7014 71.8931 26.7282 71.828L28.4662 67.6324C28.4931 67.5673 28.5672 67.5366 28.6336 67.5634C28.6988 67.5903 28.7295 67.6657 28.7027 67.7308L26.9646 71.9264C26.9442 71.9749 26.8969 72.0056 26.8471 72.0056H26.8458Z" fill="white"/>
<path d="M15.6498 64.5459C15.6166 64.5459 15.5847 64.5331 15.5591 64.5088C15.5093 64.459 15.5093 64.3785 15.5591 64.3287L18.7693 61.1184C18.8192 61.0686 18.8997 61.0686 18.9495 61.1184C18.9994 61.1683 18.9994 61.2488 18.9495 61.2986L15.7393 64.5088C15.7137 64.5344 15.6818 64.5459 15.6486 64.5459H15.6498Z" fill="white"/>
<path d="M40.046 74.6116C39.9757 74.6116 39.9182 74.5541 39.9182 74.4838V69.9432C39.9182 69.8729 39.9757 69.8154 40.046 69.8154C40.1163 69.8154 40.1738 69.8729 40.1738 69.9432V74.4838C40.1738 74.5541 40.1163 74.6116 40.046 74.6116Z" fill="white"/>
<path d="M53.2383 71.9685C53.1885 71.9685 53.1412 71.9391 53.1208 71.8892L51.3828 67.6937C51.3559 67.6286 51.3866 67.5531 51.4518 67.5263C51.5169 67.4995 51.5923 67.5301 51.6192 67.5953L53.3572 71.7908C53.384 71.856 53.3534 71.9314 53.2882 71.9583C53.2716 71.9647 53.2562 71.9685 53.2396 71.9685H53.2383Z" fill="white"/>
<path d="M64.416 64.4775C64.3828 64.4775 64.3509 64.4648 64.3253 64.4405L61.1138 61.2303C61.064 61.1804 61.064 61.0999 61.1138 61.0501C61.1636 61.0002 61.2441 61.0002 61.294 61.0501L64.5055 64.2603C64.5553 64.3101 64.5553 64.3907 64.5055 64.4405C64.4799 64.4661 64.448 64.4775 64.4148 64.4775H64.416Z" fill="white"/>
<path d="M71.8748 53.2815C71.8582 53.2815 71.8416 53.2789 71.8262 53.2713L67.6307 51.5333C67.5655 51.5064 67.5349 51.431 67.5617 51.3658C67.5885 51.3007 67.6627 51.27 67.7291 51.2968L71.9246 53.0348C71.9898 53.0617 72.0205 53.1371 71.9937 53.2023C71.9732 53.2508 71.9259 53.2815 71.8761 53.2815H71.8748Z" fill="white"/>
<path d="M67.6439 28.6252C67.594 28.6252 67.5468 28.5958 67.5263 28.546C67.4995 28.4808 67.5301 28.4054 67.5953 28.3786L71.7908 26.6406C71.856 26.6137 71.9301 26.6444 71.9583 26.7096C71.9851 26.7748 71.9544 26.8501 71.8892 26.877L67.6937 28.615C67.6771 28.6214 67.6618 28.6252 67.6452 28.6252H67.6439Z" fill="white"/>
<path d="M74.4816 40.0808H69.941C69.8707 40.0808 69.8132 40.0233 69.8132 39.953C69.8132 39.8827 69.8707 39.8252 69.941 39.8252H74.4816C74.5519 39.8252 74.6094 39.8827 74.6094 39.953C74.6094 40.0233 74.5519 40.0808 74.4816 40.0808Z" fill="white"/>
<path d="M61.1374 18.9209C61.1042 18.9209 61.0722 18.9081 61.0467 18.8838C60.9968 18.834 60.9968 18.7535 61.0467 18.7037L64.2569 15.4934C64.3067 15.4436 64.3872 15.4436 64.4371 15.4934C64.4869 15.5433 64.4869 15.6238 64.4371 15.6736L61.2269 18.8838C61.2013 18.9094 61.1693 18.9209 61.1361 18.9209H61.1374Z" fill="white"/>
<path d="M51.4124 12.446C51.3958 12.446 51.3792 12.4435 51.3639 12.4358C51.2987 12.409 51.268 12.3336 51.2949 12.2684L53.0329 8.07286C53.0597 8.00769 53.1338 7.97701 53.2003 8.00385C53.2655 8.03068 53.2961 8.10609 53.2693 8.17127L51.5313 12.3668C51.5108 12.4154 51.4636 12.446 51.4137 12.446H51.4124Z" fill="white"/>
<path d="M40.0001 74.76C20.8334 74.76 5.23975 59.1664 5.23975 39.9996C5.23975 20.8329 20.8334 5.23926 40.0001 5.23926C59.1669 5.23926 74.7605 20.8329 74.7605 39.9996C74.7605 59.1664 59.1669 74.76 40.0001 74.76ZM40.0001 5.49485C20.9739 5.49485 5.49534 20.9734 5.49534 39.9996C5.49534 59.0258 20.9739 74.5044 40.0001 74.5044C59.0263 74.5044 74.5049 59.0258 74.5049 39.9996C74.5049 20.9734 59.0263 5.49485 40.0001 5.49485Z" fill="white"/>
<path d="M39.9997 69.9891C23.4642 69.9891 10.0125 56.5373 10.0125 40.0019C10.0125 23.4664 23.4642 10.0146 39.9997 10.0146C56.5351 10.0146 69.9869 23.4664 69.9869 40.0019C69.9869 56.5373 56.5351 69.9891 39.9997 69.9891ZM39.9997 10.269C23.6048 10.269 10.268 23.607 10.268 40.0006C10.268 56.3942 23.6061 69.7322 39.9997 69.7322C56.3933 69.7322 69.7313 56.3942 69.7313 40.0006C69.7313 23.607 56.3933 10.269 39.9997 10.269Z" fill="white"/>
<path d="M28.0981 55.5732L28.4317 56.3387C28.5735 56.6633 28.8329 56.924 29.1575 57.0646L29.923 57.3982L29.1575 57.7317C28.8329 57.8736 28.5722 58.133 28.4317 58.4576L28.0981 59.2231L27.7646 58.4576C27.6227 58.133 27.3633 57.8723 27.0387 57.7317L26.2732 57.3982L27.0387 57.0646C27.3633 56.9228 27.624 56.6633 27.7646 56.3387L28.0981 55.5732Z" fill="white"/>
<path d="M56.9866 44.0098L57.3546 44.8558C57.5106 45.2149 57.7981 45.5011 58.1572 45.6583L59.0032 46.0264L58.1572 46.3944C57.7981 46.5503 57.5118 46.8379 57.3546 47.197L56.9866 48.043L56.6185 47.197C56.4626 46.8379 56.1751 46.5516 55.816 46.3944L54.97 46.0264L55.816 45.6583C56.1751 45.5024 56.4613 45.2149 56.6185 44.8558L56.9866 44.0098Z" fill="white"/>
<path d="M61.4515 52.8193L61.6713 53.3229C61.7646 53.5363 61.9359 53.7075 62.1493 53.8008L62.6528 54.0206L62.1493 54.2404C61.9359 54.3337 61.7646 54.505 61.6713 54.7184L61.4515 55.2219L61.2317 54.7184C61.1384 54.505 60.9672 54.3337 60.7538 54.2404L60.2502 54.0206L60.7538 53.8008C60.9672 53.7075 61.1384 53.5363 61.2317 53.3229L61.4515 52.8193Z" fill="white"/>
<path d="M62.3052 37.7158L62.5186 38.2053C62.6094 38.4136 62.7755 38.5784 62.9825 38.6692L63.472 38.8826L62.9825 39.096C62.7742 39.1867 62.6094 39.3529 62.5186 39.5599L62.3052 40.0494L62.0918 39.5599C62.0011 39.3516 61.8349 39.1867 61.6279 39.096L61.1384 38.8826L61.6279 38.6692C61.8362 38.5784 62.0011 38.4123 62.0918 38.2053L62.3052 37.7158Z" fill="white"/>
<path d="M20.7676 49.377L20.9619 49.823C21.0449 50.0121 21.1957 50.1642 21.3849 50.246L21.8309 50.4402L21.3849 50.6345C21.1957 50.7175 21.0436 50.8683 20.9619 51.0575L20.7676 51.5035L20.5734 51.0575C20.4903 50.8683 20.3395 50.7163 20.1504 50.6345L19.7043 50.4402L20.1504 50.246C20.3395 50.1629 20.4916 50.0121 20.5734 49.823L20.7676 49.377Z" fill="white"/>
<path d="M32.0369 16.7051L32.3423 17.4067C32.4726 17.7044 32.7103 17.9421 33.0081 18.0725L33.7097 18.3779L33.0081 18.6834C32.7103 18.8137 32.4726 19.0514 32.3423 19.3492L32.0369 20.0508L31.7314 19.3492C31.6011 19.0514 31.3634 18.8137 31.0656 18.6834L30.364 18.3779L31.0656 18.0725C31.3634 17.9421 31.6011 17.7044 31.7314 17.4067L32.0369 16.7051Z" fill="white"/>
<path d="M23.4983 26.2333C24.0276 26.2333 24.4567 25.8042 24.4567 25.2749C24.4567 24.7455 24.0276 24.3164 23.4983 24.3164C22.9689 24.3164 22.5398 24.7455 22.5398 25.2749C22.5398 25.8042 22.9689 26.2333 23.4983 26.2333Z" fill="white"/>
<path d="M59.939 24.3171C60.515 24.3171 60.9819 23.8502 60.9819 23.2743C60.9819 22.6983 60.515 22.2314 59.939 22.2314C59.3631 22.2314 58.8962 22.6983 58.8962 23.2743C58.8962 23.8502 59.3631 24.3171 59.939 24.3171Z" fill="white"/>
<path d="M57.015 30.4078C57.3679 30.4078 57.6539 30.1218 57.6539 29.7689C57.6539 29.416 57.3679 29.1299 57.015 29.1299C56.6621 29.1299 56.376 29.416 56.376 29.7689C56.376 30.1218 56.6621 30.4078 57.015 30.4078Z" fill="white"/>
<path d="M27.9722 28.4971C27.9722 28.6875 27.8176 28.8409 27.6284 28.8409C27.4393 28.8409 27.2847 28.6862 27.2847 28.4971C27.2847 28.308 27.4393 28.1533 27.6284 28.1533C27.8176 28.1533 27.9722 28.308 27.9722 28.4971Z" fill="white"/>
<path d="M53.1187 19.4452C53.1187 19.6765 52.9322 19.8631 52.7008 19.8631C52.4695 19.8631 52.283 19.6765 52.283 19.4452C52.283 19.2139 52.4695 19.0273 52.7008 19.0273C52.9322 19.0273 53.1187 19.2139 53.1187 19.4452Z" fill="white"/>
<path d="M55.0078 53.0974C53.8858 52.5006 52.4928 52.9262 51.896 54.0482C51.358 55.0591 50.7343 55.6239 50.043 55.7274C49.0934 55.8693 47.9778 55.2252 47.6187 54.8661C45.8462 53.0936 46.6078 49.1434 47.4091 47.4233C48.5132 45.054 49.588 43.2265 50.5362 41.6124C51.9612 39.1894 53.1918 37.0961 53.6506 34.5108C54.365 30.4904 53.3912 26.5326 50.9771 23.652C48.8481 21.1115 45.8168 19.6533 42.6628 19.6533C39.1305 19.6533 35.4973 21.4182 33.1829 24.2591C31.0257 26.907 30.2091 30.1619 30.8813 33.4246C31.064 34.3076 31.289 35.0897 31.542 35.7913C27.2136 36.0482 23.7708 39.6495 23.7708 44.0406C23.7708 48.4316 27.4794 52.3064 32.0366 52.3064C36.5938 52.3064 40.3024 48.599 40.3024 44.0406C40.3024 43.7108 40.2807 43.3875 40.2436 43.068C40.2436 43.0552 40.2436 43.0425 40.241 43.0297C40.2334 42.9683 40.2244 42.9096 40.2155 42.8482C40.2117 42.8188 40.2078 42.7907 40.2027 42.7613C39.873 40.5032 38.8046 39.0233 37.8551 37.7121C36.8545 36.3319 35.91 35.0284 35.3874 32.4929C34.889 30.0814 35.8538 28.2642 36.7497 27.1639C38.2129 25.3683 40.4787 24.2527 42.6628 24.2527C44.4532 24.2527 46.1989 25.1102 47.4513 26.6054C49.0117 28.4674 49.6046 30.9888 49.1215 33.7044C48.8072 35.4757 47.8692 37.0706 46.5708 39.2789C45.62 40.8968 44.4366 42.9096 43.2404 45.4783C42.2232 47.6623 40.4417 54.1913 44.3676 58.1172C45.2557 59.0054 47.2902 60.3485 49.7452 60.3485C50.0647 60.3485 50.3918 60.3255 50.7254 60.2757C52.2474 60.0482 54.3906 59.1588 55.9612 56.208C56.558 55.0859 56.1324 53.6929 55.0104 53.0961L55.0078 53.0974ZM32.0353 47.707C30.0148 47.707 28.3701 46.0623 28.3701 44.0418C28.3701 42.0214 30.0148 40.3766 32.0353 40.3766C34.0557 40.3766 35.7005 42.0214 35.7005 44.0418C35.7005 46.0623 34.0557 47.707 32.0353 47.707Z" fill="white"/>
<defs>
<linearGradient id="paint0_linear_1709_1225" x1="40.0001" y1="2.68359" x2="40.0001" y2="77.3162" gradientUnits="userSpaceOnUse">
<stop stop-color="#3867B8"/>
<stop offset="1" stop-color="#192E52"/>
</linearGradient>
</defs>
</svg>
