<svg width="28" height="29" viewBox="0 0 28 29" fill="none" xmlns="http://www.w3.org/2000/svg">
<path d="M1.3999 10.8281H26.5999V22.569C26.5999 23.1614 26.3646 23.7295 25.9457 24.1484C25.5268 24.5673 24.9586 24.8026 24.3662 24.8026H3.63353C3.04113 24.8026 2.473 24.5673 2.05411 24.1484C1.63523 23.7295 1.3999 23.1614 1.3999 22.569V10.8281Z" fill="url(#paint0_radial_1076_6335)"/>
<path d="M26.5999 10.8282H1.3999V8.58177C1.3999 7.98938 1.63523 7.42124 2.05411 7.00236C2.473 6.58347 3.04113 6.34814 3.63353 6.34814H24.3662C24.9586 6.34814 25.5268 6.58347 25.9457 7.00236C26.3646 7.42124 26.5999 7.98938 26.5999 8.58177V10.8282Z" fill="#64B9F6"/>
<path d="M8.58799 8.23801H7.37174C7.23598 8.23801 7.10578 8.18408 7.00978 8.08809C6.91379 7.99209 6.85986 7.86189 6.85986 7.72614V4.96989C6.85986 4.90267 6.8731 4.8361 6.89883 4.774C6.92455 4.71189 6.96225 4.65546 7.00978 4.60794C7.05732 4.5604 7.11375 4.5227 7.17585 4.49697C7.23796 4.47125 7.30451 4.45801 7.37174 4.45801H8.58799C8.65521 4.45801 8.72177 4.47125 8.78387 4.49697C8.84598 4.5227 8.90241 4.5604 8.94994 4.60794C8.99748 4.65546 9.03517 4.71189 9.0609 4.774C9.08663 4.8361 9.09986 4.90267 9.09986 4.96989V7.72614C9.09986 7.86189 9.04594 7.99209 8.94994 8.08809C8.85395 8.18408 8.72375 8.23801 8.58799 8.23801ZM21.1399 7.72614V4.96989C21.1399 4.90267 21.1266 4.8361 21.1009 4.774C21.0752 4.71189 21.0375 4.65546 20.99 4.60794C20.9424 4.5604 20.886 4.5227 20.8238 4.49697C20.7618 4.47125 20.6952 4.45801 20.628 4.45801H19.4117C19.3445 4.45801 19.278 4.47125 19.2159 4.49697C19.1537 4.5227 19.0974 4.5604 19.0498 4.60794C19.0022 4.65546 18.9645 4.71189 18.9388 4.774C18.9131 4.8361 18.8999 4.90267 18.8999 4.96989V7.72614C18.8999 7.86189 18.9538 7.99209 19.0498 8.08809C19.1458 8.18408 19.276 8.23801 19.4117 8.23801H20.628C20.7637 8.23801 20.8939 8.18408 20.99 8.08809C21.0859 7.99209 21.1399 7.86189 21.1399 7.72614Z" fill="#64B9F6"/>
<path d="M14.6002 13.8608L15.5575 15.8006L17.6983 16.1117C17.8218 16.1297 17.9379 16.1819 18.0334 16.2623C18.1289 16.3428 18.1999 16.4484 18.2384 16.5671C18.2771 16.6859 18.2817 16.8131 18.2517 16.9343C18.2218 17.0556 18.1585 17.166 18.0691 17.2531L16.5201 18.7631L16.8858 20.8951C16.9069 21.0182 16.8931 21.1447 16.8461 21.2604C16.7991 21.376 16.7206 21.4762 16.6196 21.5496C16.5186 21.623 16.399 21.6667 16.2744 21.6756C16.1499 21.6847 16.0253 21.6587 15.9148 21.6006L14.0001 20.5939L12.0853 21.6006C11.9748 21.6587 11.8502 21.6847 11.7257 21.6756C11.6012 21.6667 11.4817 21.623 11.3807 21.5496C11.2796 21.4762 11.2012 21.376 11.1542 21.2604C11.107 21.1447 11.0933 21.0182 11.1144 20.8951L11.4801 18.7631L9.93103 17.2531C9.84161 17.166 9.77843 17.0556 9.74847 16.9343C9.7186 16.8131 9.72317 16.6859 9.76172 16.5671C9.80036 16.4484 9.87139 16.3428 9.96687 16.2623C10.0623 16.1819 10.1784 16.1297 10.3019 16.1117L12.4426 15.8006L13.4 13.8608C13.4553 13.7488 13.5408 13.6546 13.6468 13.5886C13.7528 13.5227 13.8752 13.4878 14.0001 13.4878C14.125 13.4878 14.2473 13.5227 14.3533 13.5886C14.4595 13.6546 14.545 13.7488 14.6002 13.8608Z" fill="#64B9F6"/>
<defs>
<radialGradient id="paint0_radial_1076_6335" cx="0" cy="0" r="1" gradientUnits="userSpaceOnUse" gradientTransform="translate(13.9999 17.8154) rotate(90) scale(6.98726 12.6)">
<stop stop-color="#EFF8FF"/>
<stop offset="1" stop-color="#96D2FA"/>
</radialGradient>
</defs>
</svg>
