<svg width="91" height="63" viewBox="0 0 91 63" fill="none" xmlns="http://www.w3.org/2000/svg">
<path d="M35.9509 62.2431H29.703C35.0599 55.313 32.4144 45.564 29.6484 37.2565L38.7794 34.6736C41.7573 43.6264 40.3253 53.8618 35.9509 62.2431Z" fill="#231F20"/>
<path d="M65.4156 52.4042L58.752 45.7406L76.5259 35.6432C76.5259 35.6432 71.9347 48.1036 74.1164 52.2228C74.1164 52.2228 67.7321 57.493 67.2473 62.2191H61.3879C61.3879 62.2191 62.0059 56.1253 65.4172 52.4058L65.4156 52.4042Z" fill="#231F20"/>
<path d="M76.147 38.9534C77.4923 40.6743 78.5534 42.6103 79.356 44.6426C79.844 45.8819 80.263 47.1678 80.5504 48.4697C80.6178 48.7795 81.0849 51.9147 81.1427 51.8617C81.1427 51.8617 77.9209 54.801 77.6063 59.5399L73.1612 59.4388C73.1612 59.4388 71.3504 56.8205 74.6236 52.979L72.2638 50.7845C72.2638 50.7845 68.7867 47.3187 64.6562 47.4487C60.8436 47.5675 57.3023 48.8855 53.6165 49.8518C50.5295 50.6593 47.359 51.3207 44.2287 50.9563C43.3827 50.8552 42.6314 49.8711 41.7982 49.6062C38.4046 48.5371 34.9789 46.4133 32.8743 43.5012C32.3976 42.8415 31.7474 42.0886 32.0733 41.3325C32.3606 40.6663 33.4731 40.0996 34.0831 39.7962C35.6772 39.0048 37.496 38.7511 39.2362 38.475C43.7054 37.7671 48.1103 36.6578 52.3804 35.1633C56.0598 33.8758 59.76 32.2785 63.6577 32.3251C68.0547 32.3765 72.2702 34.6014 75.2272 37.857C75.5482 38.2118 75.8565 38.5762 76.1502 38.9534H76.147Z" fill="white"/>
<path d="M85.0615 36.5952C85.2429 36.0863 85.3713 35.7589 85.4018 35.6674C85.3023 35.99 85.1932 36.2998 85.0615 36.5952Z" fill="#231F20"/>
<path d="M85.412 35.6449C85.412 35.6545 85.4072 35.6626 85.4023 35.6674C85.4072 35.6674 85.4007 35.6577 85.412 35.6449Z" fill="#231F20"/>
<path d="M46.8985 62.2431H40.0566C45.4136 55.313 43.3604 45.564 40.596 37.2565L49.727 34.6736C52.7049 43.6264 51.2729 53.8618 46.8985 62.2431Z" fill="#231F20"/>
<path d="M85.9496 29.5977C86.0588 31.3571 86.0588 34.3125 85.0522 36.6C83.9847 39.6293 80.9025 49.0316 82.723 52.4637C82.723 52.4637 76.581 57.4915 76.0946 62.216H70.2738C70.2738 62.216 70.8902 56.1222 74.2983 52.4043L72.022 50.128C72.022 50.128 68.6733 46.5353 64.5412 46.5176C60.7238 46.4936 57.1424 47.6847 53.4197 48.5146C50.307 49.2146 47.1124 49.7588 43.9997 49.2788C43.1585 49.1487 42.3222 48.9465 41.5035 48.6511C38.089 47.4359 34.9345 45.67 32.114 43.4162C31.8411 43.2027 31.5971 42.9539 31.313 42.7644C29.4813 41.5428 23.829 35.8841 21.877 35.2436C22.1755 34.3655 22.4147 33.4681 22.5977 32.5595C22.7534 31.7777 23.0617 30.7294 22.922 29.9332C22.67 28.5077 22.3088 27.1352 22.2205 25.6647C22.0616 23.0143 22.5977 20.4137 23.8916 18.0908C36.7967 -0.0362942 45.6628 -3.42511 62.6197 5.00276C73.075 10.3292 85.7169 15.9622 85.9496 29.5961V29.5977Z" fill="#231F20"/>
<path d="M90.128 43.7019C89.5099 42.8029 88.5499 42.1544 87.4952 41.8831C87.3476 42.9313 87.3235 44.0518 87.7697 45.0118C88.3236 46.2062 89.4922 47.1597 90.6962 47.6943C91.1345 46.3715 90.9177 44.8497 90.1295 43.7019H90.128Z" fill="#231F20"/>
<path d="M74.8214 11.9344C77.6596 13.4916 80.3758 15.3794 82.6618 17.7392C83.7999 18.924 84.8434 20.1681 85.7183 21.6177C86.5675 23.0576 87.1759 24.6132 87.574 26.204C88.3815 29.3825 88.3494 32.72 87.8838 35.8503C87.6928 37.4123 87.513 38.9582 87.6815 40.4736C87.8437 41.9778 88.3413 43.482 89.3703 44.5816L88.9465 44.9974C87.7425 43.8207 87.1277 42.1865 86.8805 40.5812C86.6269 38.9534 86.7473 37.324 86.8661 35.7508C86.9977 34.1696 87.0924 32.6381 86.972 31.1002C86.8709 29.5656 86.6108 28.0469 86.1742 26.5909C85.7391 25.1349 85.1179 23.7463 84.3024 22.499C83.4885 21.2741 82.4402 20.1215 81.3406 19.0813C79.122 16.9928 76.5134 15.3473 73.7539 13.9925L74.8214 11.9377V11.9344Z" fill="#231F20"/>
<path d="M30.5967 61.5305H35.9536C35.9536 61.5305 32.6097 59.6972 30.5967 61.5305Z" fill="#E2BE74"/>
<path d="M40.9512 61.5305H46.3081C46.3081 61.5305 42.9642 59.6972 40.9512 61.5305Z" fill="#E2BE74"/>
<path d="M61.8896 61.3361H66.7907C66.7907 61.3361 63.7325 59.5639 61.8896 61.3361Z" fill="#E2BE74"/>
<path d="M70.751 61.3361H75.652C75.652 61.3361 72.5939 59.5639 70.751 61.3361Z" fill="#E2BE74"/>
<path d="M35.3922 21.6883C34.925 21.4651 34.551 21.2372 34.3327 21.0044C34.2123 21.4924 34.1304 21.9836 34.0518 22.4684C34.596 22.2068 35.0535 21.9451 35.3922 21.6899V21.6883Z" fill="#E2BE74"/>
<path d="M35.728 23.1379C35.0891 22.9148 34.5208 22.6916 34.0521 22.4685C33.9798 22.9533 33.9172 23.4365 33.8643 23.9117C34.5513 23.6613 35.1806 23.4012 35.728 23.1379Z" fill="#E2BE74"/>
<path d="M35.9478 24.6148C35.2013 24.3675 34.5014 24.1364 33.8641 23.91L33.71 25.3243C34.5046 25.1044 35.2511 24.8668 35.9478 24.6148Z" fill="#E2BE74"/>
<path d="M36.045 26.127C35.2311 25.8364 34.4493 25.5699 33.7093 25.3259C33.6483 25.7867 33.613 26.2506 33.5439 26.6985C34.4028 26.5395 35.252 26.3453 36.045 26.127Z" fill="#E2BE74"/>
<path d="M35.9926 27.6697C35.1787 27.3101 34.3439 26.9907 33.5445 26.6985C33.4963 27.1544 33.4112 27.5894 33.3486 28.0325C34.2332 27.9506 35.1193 27.8302 35.9942 27.6713L35.9926 27.6697Z" fill="#E2BE74"/>
<path d="M35.7547 29.2268C34.9616 28.7854 34.159 28.3872 33.3483 28.0325L33.2167 28.6794C33.1814 28.8977 33.1236 29.108 33.0674 29.3183C33.9535 29.3344 34.8605 29.3039 35.7531 29.2268H35.7547Z" fill="#E2BE74"/>
<path d="M35.3098 30.7583C34.6115 30.2414 33.8377 29.7534 33.0672 29.3168C33.0078 29.5255 32.9725 29.7438 32.8986 29.9477L32.7012 30.5689C33.5327 30.6717 34.4076 30.7375 35.3098 30.7583Z" fill="#E2BE74"/>
<path d="M34.6421 32.2159C34.0385 31.6331 33.406 31.0889 32.7012 30.5704C32.637 30.7791 32.5439 30.975 32.4685 31.1804C32.3914 31.3859 32.316 31.5914 32.2148 31.7873C32.9902 31.9638 33.7929 32.1067 34.6437 32.2159H34.6421Z" fill="#E2BE74"/>
<path d="M33.7869 33.5564C33.323 32.9528 32.7933 32.3572 32.2154 31.7874L31.9376 32.3909C31.8365 32.59 31.7225 32.7826 31.6182 32.9833C32.2779 33.1759 33.01 33.3766 33.7869 33.5564Z" fill="#E2BE74"/>
<path d="M32.751 34.7331C32.454 34.1728 32.0688 33.5756 31.6177 32.9833C31.5133 33.1839 31.4138 33.3894 31.2838 33.5772L30.9258 34.1696L32.751 34.7315V34.7331Z" fill="#E2BE74"/>
<path d="M31.583 35.7427C31.4385 35.2595 31.2331 34.741 30.9265 34.1711C30.8173 34.3782 30.6696 34.5596 30.5444 34.7603L30.1543 35.3591C30.554 35.4329 31.0324 35.5678 31.5846 35.7427H31.583Z" fill="#E2BE74"/>
<path d="M30.3093 36.5792C30.3382 36.2437 30.2884 35.8343 30.1536 35.3575C29.8791 35.7492 29.5966 36.1441 29.3301 36.5695C29.5677 36.4797 29.8984 36.4925 30.3093 36.5776V36.5792Z" fill="#E2BE74"/>
<path d="M28.0863 32.9399C27.9723 32.9399 27.8809 32.8484 27.8809 32.7344C27.8809 32.6204 27.9723 32.5289 28.0863 32.5289C28.2003 32.5289 28.2918 32.6204 28.2918 32.7344C28.2918 32.8484 28.2003 32.9399 28.0863 32.9399Z" fill="#E2BE74"/>
<path d="M28.9528 31.6926C28.7184 31.6926 28.5273 31.5016 28.5273 31.2672C28.5273 31.0328 28.7184 30.8418 28.9528 30.8418C29.1871 30.8418 29.3782 31.0328 29.3782 31.2672C29.3782 31.5016 29.1871 31.6926 28.9528 31.6926Z" fill="#E2BE74"/>
<path d="M29.6871 30.2702C29.9868 30.2702 30.2297 30.0273 30.2297 29.7277C30.2297 29.428 29.9868 29.1851 29.6871 29.1851C29.3875 29.1851 29.1445 29.428 29.1445 29.7277C29.1445 30.0273 29.3875 30.2702 29.6871 30.2702Z" fill="#E2BE74"/>
<path d="M30.2438 28.7035C29.9195 28.7035 29.6562 28.4403 29.6562 28.116C29.6562 27.7917 29.9195 27.5284 30.2438 27.5284C30.5681 27.5284 30.8313 27.7917 30.8313 28.116C30.8313 28.4403 30.5681 28.7035 30.2438 28.7035Z" fill="#E2BE74"/>
<path d="M30.6038 27.0147C30.2908 27.0147 30.0371 26.7611 30.0371 26.448C30.0371 26.135 30.2908 25.8813 30.6038 25.8813C30.9168 25.8813 31.1705 26.135 31.1705 26.448C31.1705 26.7611 30.9168 27.0147 30.6038 27.0147Z" fill="#E2BE74"/>
<path d="M30.7701 25.204C30.5197 25.204 30.3174 25.0017 30.3174 24.7513C30.3174 24.5009 30.5197 24.2986 30.7701 24.2986C31.0205 24.2986 31.2228 24.5009 31.2228 24.7513C31.2228 25.0017 31.0205 25.204 30.7701 25.204Z" fill="#E2BE74"/>
<path d="M30.7699 23.2486C30.656 23.2486 30.5645 23.1571 30.5645 23.0431C30.5645 22.9291 30.656 22.8376 30.7699 22.8376C30.8839 22.8376 30.9754 22.9291 30.9754 23.0431C30.9754 23.1571 30.8839 23.2486 30.7699 23.2486Z" fill="#E2BE74"/>
<path d="M78.3533 45.6619C78.2891 45.6298 77.9793 45.3826 77.6454 45.1964C77.3163 45.0053 76.9824 44.8801 76.9824 44.8801C76.9824 44.8801 77.3292 44.9604 77.7096 44.9829C78.0869 45.0118 78.4866 44.978 78.5556 44.9861C78.6937 45.0005 78.7868 45.1916 78.7242 45.4051C78.6921 45.5094 78.6279 45.5929 78.5604 45.6378C78.4898 45.6828 78.4143 45.6924 78.3517 45.6619H78.3533Z" fill="#E2BE74"/>
<path d="M77.7226 46.4518C77.6808 46.3972 77.5027 46.0344 77.2859 45.7246C77.0756 45.4131 76.8252 45.1515 76.8252 45.1515C76.8252 45.1515 76.8942 45.2077 77.0066 45.2863C77.119 45.3666 77.2731 45.4677 77.4368 45.5592C77.7627 45.7487 78.1416 45.8947 78.1993 45.9317C78.3165 46.0039 78.3181 46.219 78.1673 46.3795C78.018 46.5433 77.8077 46.5625 77.7226 46.4502V46.4518Z" fill="#E2BE74"/>
<path d="M76.8104 46.8901C76.796 46.8226 76.7944 46.4181 76.7334 46.0473C76.6772 45.6684 76.5664 45.3297 76.5664 45.3297C76.5664 45.3297 76.6049 45.4116 76.6708 45.5304C76.7366 45.6492 76.8313 45.8065 76.9388 45.9622C77.154 46.2784 77.4285 46.5674 77.4654 46.6268C77.5408 46.7456 77.4477 46.9366 77.2423 47.0185C77.0352 47.102 76.8361 47.0233 76.8104 46.8885V46.8901Z" fill="#E2BE74"/>
<path d="M75.8005 46.89C75.8166 46.8242 75.9899 46.4598 76.0959 46.0954C76.2082 45.7358 76.2564 45.3778 76.2564 45.3778C76.2564 45.3778 76.2564 45.7374 76.319 46.1114C76.3752 46.4839 76.4956 46.8691 76.5036 46.9382C76.5197 47.073 76.3543 47.2111 76.1344 47.1934C75.9145 47.1774 75.7668 47.0265 75.8021 46.89H75.8005Z" fill="#E2BE74"/>
<path d="M74.889 46.4518C74.9339 46.3988 75.2485 46.1436 75.5006 45.8659C75.7606 45.5865 75.9581 45.2896 75.9581 45.2896C75.9581 45.2896 75.918 45.3714 75.8666 45.4966C75.8136 45.6218 75.751 45.7936 75.6964 45.975C75.5825 46.3394 75.5279 46.7343 75.5038 46.8001C75.4572 46.9334 75.2502 46.9799 75.0575 46.8692C74.8649 46.76 74.8007 46.5561 74.8906 46.4502L74.889 46.4518Z" fill="#E2BE74"/>
<path d="M74.2598 45.662C74.324 45.6315 74.7109 45.5432 75.0657 45.3971C75.4204 45.2591 75.7255 45.076 75.7255 45.076C75.7255 45.076 75.4477 45.2976 75.1909 45.5817C74.934 45.8578 74.7093 46.1917 74.6595 46.2415C74.5616 46.3394 74.3545 46.2945 74.2277 46.1115C74.1667 46.0216 74.141 45.9204 74.1474 45.8402C74.1571 45.7567 74.1956 45.6925 74.2598 45.662Z" fill="#E2BE74"/>
<path d="M74.0335 44.6747C74.1026 44.6747 74.4991 44.763 74.8747 44.7871C75.0609 44.8015 75.2471 44.8031 75.3836 44.7983C75.52 44.7935 75.6099 44.7854 75.6099 44.7854C75.6099 44.7854 75.5232 44.8047 75.39 44.8432C75.2568 44.8802 75.0818 44.938 74.9084 45.0086C74.5569 45.145 74.2053 45.3505 74.1411 45.373C74.0094 45.4196 73.8441 45.2863 73.8104 45.0664C73.7735 44.8481 73.8955 44.6715 74.0319 44.6763L74.0335 44.6747Z" fill="#E2BE74"/>
<path d="M74.2599 43.689C74.3241 43.7212 74.6339 43.9684 74.9678 44.1546C75.2969 44.3456 75.6308 44.4708 75.6308 44.4708C75.6308 44.4708 75.284 44.3906 74.9036 44.3681C74.5263 44.3392 74.1266 44.3729 74.0576 44.3649C73.9195 44.3504 73.8264 44.1594 73.889 43.9459C73.9211 43.8416 73.9854 43.7581 74.0528 43.7131C74.1234 43.6682 74.1988 43.6585 74.2615 43.689H74.2599Z" fill="#E2BE74"/>
<path d="M74.8887 42.8992C74.9305 42.9538 75.1087 43.3166 75.3254 43.6264C75.5357 43.9378 75.7861 44.1995 75.7861 44.1995C75.7861 44.1995 75.7171 44.1433 75.6047 44.0647C75.4923 43.9844 75.3382 43.8833 75.1745 43.7918C74.8486 43.6023 74.4697 43.4562 74.412 43.4193C74.2948 43.3471 74.2932 43.132 74.4441 42.9714C74.5933 42.8077 74.8036 42.7884 74.8887 42.9008V42.8992Z" fill="#E2BE74"/>
<path d="M75.8011 42.4594C75.8155 42.5268 75.8171 42.9313 75.8781 43.3022C75.9343 43.681 76.0451 44.0197 76.0451 44.0197C76.0451 44.0197 76.0066 43.9379 75.9408 43.8191C75.8749 43.7003 75.7802 43.5429 75.6727 43.3872C75.4575 43.071 75.183 42.782 75.1461 42.7226C75.0707 42.6039 75.1638 42.4128 75.3693 42.3309C75.5763 42.2475 75.7754 42.3261 75.8011 42.461V42.4594Z" fill="#E2BE74"/>
<path d="M76.8106 42.4594C76.7946 42.5252 76.6212 42.8896 76.5153 43.254C76.4029 43.6136 76.3547 43.9716 76.3547 43.9716C76.3547 43.9716 76.3547 43.612 76.2921 43.2379C76.236 42.8655 76.1155 42.4802 76.1075 42.4112C76.0915 42.2764 76.2568 42.1383 76.4768 42.156C76.6967 42.172 76.8444 42.3229 76.809 42.4594H76.8106Z" fill="#E2BE74"/>
<path d="M77.7225 42.8992C77.6775 42.9522 77.3629 43.2074 77.1108 43.4851C76.8508 43.7645 76.6533 44.0614 76.6533 44.0614C76.6533 44.0614 76.6934 43.9796 76.7448 43.8543C76.7978 43.7291 76.8604 43.5574 76.915 43.376C77.029 43.0116 77.0835 42.6167 77.1076 42.5508C77.1542 42.4176 77.3613 42.371 77.5539 42.4818C77.7465 42.591 77.8108 42.7948 77.7209 42.9008L77.7225 42.8992Z" fill="#E2BE74"/>
<path d="M78.3533 43.689C78.2891 43.7195 77.9022 43.8078 77.5475 43.9539C77.1927 44.0919 76.8877 44.2749 76.8877 44.2749C76.8877 44.2749 77.1654 44.0534 77.4223 43.7693C77.6791 43.4932 77.9039 43.1593 77.9536 43.1095C78.0515 43.0116 78.2586 43.0565 78.3855 43.2395C78.4465 43.3294 78.4721 43.4306 78.4657 43.5108C78.4561 43.5943 78.4176 43.6585 78.3533 43.689Z" fill="#E2BE74"/>
<path d="M78.58 44.6747C78.5109 44.6747 78.1144 44.5864 77.7388 44.5623C77.5526 44.5479 77.3663 44.5463 77.2283 44.5511C77.0918 44.5559 77.002 44.564 77.002 44.564C77.002 44.564 77.0886 44.5447 77.2219 44.5062C77.3551 44.4692 77.5301 44.4114 77.7035 44.3408C78.055 44.2044 78.4066 43.9989 78.4708 43.9764C78.6024 43.9299 78.7678 44.0631 78.8015 44.283C78.8384 44.5013 78.7164 44.6779 78.58 44.6731V44.6747Z" fill="#E2BE74"/>
<path d="M76.3197 48.2433C76.2009 48.2433 76.1062 48.1486 76.1062 48.0362C76.1062 47.9174 76.2009 47.8227 76.3133 47.8227C76.4321 47.8227 76.5268 47.9174 76.5268 48.0362C76.5268 48.1486 76.4321 48.2433 76.3197 48.2433ZM75.2169 48.078C75.1045 48.0426 75.0451 47.9174 75.0804 47.8115C75.1157 47.6991 75.2345 47.6397 75.3405 47.675C75.4529 47.7103 75.5123 47.8291 75.4834 47.9415C75.4545 48.0314 75.371 48.0844 75.2811 48.0844C75.257 48.0844 75.2329 48.0844 75.2153 48.078H75.2169ZM77.1497 47.9351C77.1143 47.8227 77.1738 47.7039 77.2861 47.6686C77.3985 47.6333 77.5173 47.6927 77.5526 47.805C77.5879 47.9126 77.5285 48.0298 77.4162 48.0715V48.0651C77.3921 48.0763 77.3744 48.0763 77.3503 48.0763C77.262 48.0763 77.1786 48.0234 77.1497 47.9335V47.9351ZM74.2216 47.5739C74.1269 47.5032 74.1028 47.3716 74.1734 47.2769C74.2393 47.1822 74.3693 47.1645 74.4704 47.2287C74.5587 47.2946 74.5828 47.4294 74.5186 47.5257C74.4768 47.5787 74.411 47.6092 74.3468 47.6092C74.2986 47.6092 74.2585 47.598 74.2216 47.5739ZM78.1161 47.5145C78.0454 47.4198 78.0679 47.2897 78.1578 47.2175C78.2525 47.1469 78.389 47.1693 78.4548 47.2657C78.5254 47.3604 78.5029 47.4904 78.413 47.5626C78.3713 47.5867 78.3296 47.598 78.2878 47.598C78.222 47.598 78.1578 47.5675 78.1161 47.5145ZM73.427 46.7857C73.3611 46.691 73.3788 46.5609 73.4735 46.4887C73.5682 46.4229 73.6983 46.4405 73.7705 46.5369C73.8363 46.6316 73.8187 46.7616 73.7239 46.8338C73.6886 46.8627 73.6405 46.8756 73.5987 46.8756C73.5329 46.8756 73.4687 46.8467 73.427 46.7873V46.7857ZM78.9043 46.821C78.8096 46.7504 78.7855 46.6187 78.8561 46.524C78.9219 46.4293 79.052 46.4052 79.1467 46.4759C79.2414 46.5417 79.2655 46.6781 79.1948 46.7728C79.1531 46.8258 79.0873 46.8563 79.0231 46.8563C78.9813 46.8563 78.9396 46.8451 78.9043 46.821ZM72.9165 45.7952C72.8812 45.6876 72.9406 45.564 73.0465 45.5287C73.1589 45.4934 73.2777 45.5528 73.3194 45.6652C73.3547 45.7727 73.2953 45.8963 73.183 45.9317C73.1589 45.9381 73.1412 45.9429 73.1171 45.9429C73.0272 45.9429 72.9454 45.8835 72.9149 45.7952H72.9165ZM79.4372 45.914C79.3249 45.8787 79.2655 45.7599 79.3008 45.6475C79.3361 45.5351 79.4549 45.4757 79.5673 45.5111C79.6748 45.5464 79.739 45.6652 79.7037 45.7775C79.6748 45.8658 79.5913 45.9252 79.5031 45.9252C79.479 45.9252 79.4549 45.9188 79.4372 45.914ZM72.7383 44.6988C72.7383 44.58 72.8266 44.4853 72.9454 44.4853C73.0642 44.4853 73.1589 44.5736 73.1589 44.6924C73.1589 44.8111 73.0642 44.9059 72.9454 44.9059C72.8266 44.9059 72.7383 44.8112 72.7383 44.6988ZM79.4549 44.6747V44.6635V44.6394C79.4485 44.5206 79.5432 44.4259 79.662 44.4259C79.7808 44.4259 79.8755 44.5142 79.8755 44.633V44.657V44.6747C79.8755 44.7935 79.7808 44.8882 79.662 44.8882C79.5496 44.8882 79.4549 44.7935 79.4549 44.6747ZM73.0401 43.8624C72.9277 43.8207 72.8683 43.7019 72.9036 43.5959C72.9389 43.4836 73.0577 43.4177 73.1701 43.4595C73.2777 43.4948 73.3419 43.6072 73.3066 43.7211C73.2777 43.8159 73.1942 43.8688 73.1059 43.8688C73.0818 43.8688 73.0577 43.8688 73.0401 43.8624ZM79.2879 43.673C79.2526 43.5606 79.312 43.4418 79.418 43.4001C79.5303 43.3648 79.6491 43.4242 79.6845 43.5365H79.6909C79.7262 43.6425 79.6668 43.7677 79.5544 43.803C79.5303 43.8094 79.5127 43.8143 79.4886 43.8143C79.3987 43.8143 79.3168 43.7549 79.2863 43.6714L79.2879 43.673ZM73.4494 42.8896C73.3547 42.8238 73.3371 42.6937 73.4013 42.599V42.5926C73.4719 42.5043 73.6019 42.4802 73.6983 42.5461C73.793 42.6167 73.8106 42.7483 73.7464 42.843C73.7047 42.9024 73.6389 42.9313 73.5746 42.9313C73.5329 42.9313 73.4912 42.9201 73.4494 42.8896ZM78.832 42.8013C78.7614 42.7066 78.7855 42.5701 78.8738 42.5043C78.9685 42.4337 79.0985 42.4513 79.1708 42.5461C79.2414 42.6408 79.2237 42.7708 79.129 42.843C79.0937 42.8719 79.0455 42.8848 79.0038 42.8848C78.938 42.8848 78.8738 42.8559 78.832 42.8013ZM74.1429 42.1014C74.0723 42.0067 74.09 41.8702 74.1847 41.8044C74.2794 41.7338 74.4094 41.7514 74.4816 41.8461C74.5523 41.9409 74.5298 42.0709 74.4399 42.1431C74.3982 42.172 74.3564 42.1849 74.3099 42.1849C74.2441 42.1849 74.1847 42.156 74.1445 42.1014H74.1429ZM78.1321 42.1126H78.1257C78.0374 42.042 78.0133 41.9104 78.0775 41.8156C78.1482 41.7209 78.2798 41.6968 78.3745 41.7627V41.7691C78.4692 41.8349 78.4933 41.9649 78.4227 42.0597C78.3809 42.119 78.3167 42.1479 78.2509 42.1479C78.2092 42.1479 78.1674 42.1367 78.1321 42.1126ZM75.0435 41.5556C75.0018 41.4432 75.0612 41.3244 75.1735 41.2891C75.2859 41.2538 75.4047 41.3132 75.44 41.4191C75.4753 41.5315 75.4159 41.6503 75.31 41.692C75.2859 41.6985 75.2618 41.6985 75.2394 41.6985C75.1495 41.6985 75.0676 41.6455 75.0435 41.5556ZM77.2492 41.6744V41.668C77.1368 41.6375 77.0774 41.5203 77.1127 41.4063C77.1481 41.2939 77.2669 41.2345 77.3792 41.2698V41.2634C77.4852 41.2987 77.551 41.4175 77.5157 41.5299C77.4852 41.6246 77.4033 41.6776 77.315 41.6776C77.2909 41.6776 77.2733 41.6776 77.2492 41.6712V41.6744ZM76.0629 41.318C76.0629 41.1992 76.1576 41.1045 76.2764 41.1045C76.3888 41.1045 76.4835 41.1992 76.4835 41.3116C76.4899 41.4304 76.3952 41.5251 76.2764 41.5251C76.1576 41.5251 76.0629 41.4368 76.0629 41.318Z" fill="#E2BE74"/>
<path d="M71.7977 28.3937C71.9646 28.6441 72.1524 28.8913 72.3643 29.1498C72.5762 29.4099 72.8106 29.6812 73.0546 29.9669C72.7753 29.7823 72.5281 29.5656 72.3066 29.3007C72.0802 29.031 71.8876 28.7276 71.719 28.4017C72.0385 29.0519 72.3932 29.7454 72.6742 30.4806C72.2327 29.8706 71.9133 29.1386 71.642 28.4146C71.8892 29.1418 72.0882 29.9139 72.1091 30.6668C71.886 29.9091 71.7367 29.1498 71.5633 28.4435C71.7078 29.1514 71.719 29.8738 71.544 30.5095C71.5456 29.7566 71.5392 29.084 71.4638 28.4643C71.5007 29.084 71.3723 29.633 71.1379 30.0696C71.2551 29.5158 71.3177 29.0647 71.3337 28.6425C71.2342 28.8255 71.1138 29.0984 70.9838 29.4227C70.857 29.7598 70.7253 30.1322 70.69 30.5641C70.6739 30.7776 70.6836 30.9911 70.7237 31.2046C70.7639 31.4117 70.8361 31.6156 70.9356 31.8146C71.0351 32.0153 71.1652 32.2079 71.3145 32.3765C71.4638 32.545 71.6371 32.7216 71.8169 32.8516C72.0481 33.0314 72.3563 33.2578 72.6613 33.4552C72.8138 33.5596 72.9647 33.6639 73.0996 33.7715C73.2344 33.8758 73.35 33.9754 73.4351 34.0845C73.4447 33.8068 73.5699 33.4713 73.6919 33.1229C73.8123 32.7633 73.9456 32.4294 74.0162 32.1325C74.0756 31.9077 74.1286 31.6894 74.143 31.455C74.1591 31.2223 74.151 30.9927 74.1173 30.7776C74.0435 30.3361 73.8508 29.9396 73.5747 29.6202C73.3179 29.3216 73.0273 29.1065 72.7705 28.9363C72.6437 28.8544 72.5168 28.7774 72.3997 28.7067C72.2809 28.6345 72.1829 28.5895 72.0834 28.5318C72.2118 28.6586 72.3451 28.7693 72.5056 28.8978C72.6629 29.0214 72.8475 29.1642 73.037 29.2879C72.8186 29.2301 72.5939 29.1241 72.3852 28.978C72.1669 28.8175 71.9775 28.6409 71.7945 28.3921L71.7977 28.3937Z" fill="#E2BE74"/>
<path d="M69.4292 35.3912C69.8369 34.8406 70.0649 34.3301 70.158 33.7426C70.2559 33.1502 70.2013 32.4824 70.1628 31.5658C69.5993 32.6975 68.9813 34.0636 69.4292 35.3912Z" fill="#E2BE74"/>
<path d="M70.2707 28.2862C70.0138 28.8063 69.781 29.458 69.537 30.1563C69.5515 29.8337 69.6269 29.4933 69.7393 29.1771C69.8565 28.8528 70.0266 28.5269 70.2257 28.2171C69.8212 28.8207 69.3974 29.4757 68.9013 30.0841C69.216 29.389 69.6767 28.7629 70.1727 28.1593C69.6622 28.7388 69.1084 29.2814 68.4518 29.6892C68.9944 29.1177 69.5804 28.6056 70.1101 28.0967C69.8308 28.3439 69.5451 28.5526 69.2433 28.7228C68.9399 28.8962 68.6204 29.0342 68.3074 29.1161C68.63 28.9299 68.935 28.7533 69.2256 28.5703C69.5194 28.3857 69.7923 28.2027 70.0363 28.0213C69.7794 28.1882 69.5065 28.3215 69.2513 28.4033C69.1213 28.4467 68.9896 28.4804 68.858 28.5061C68.7328 28.527 68.6108 28.5382 68.4888 28.543C68.752 28.4579 68.9896 28.3712 69.2079 28.2813C69.4327 28.1866 69.635 28.0919 69.8148 27.9972C69.712 27.9988 69.5788 28.0149 69.4423 28.0277C69.3043 28.0421 69.1293 28.0694 68.9639 28.0935C68.6236 28.1481 68.2159 28.2268 67.829 28.4114C67.4453 28.5928 67.1178 28.8721 66.8658 29.2509C66.633 29.6153 66.4709 30.0809 66.4163 30.5304C66.3649 30.8306 66.3441 31.1934 66.3136 31.5642C66.275 31.9398 66.2622 32.2882 66.1562 32.545C66.4003 32.415 66.747 32.3604 67.1162 32.285C67.2912 32.2529 67.4742 32.2192 67.6524 32.1871C67.8242 32.1533 67.9927 32.11 68.1356 32.0747C68.5755 31.9735 69.0217 31.7616 69.3589 31.4887C69.7072 31.1982 69.9496 30.845 70.0876 30.4437C70.2177 30.0729 70.2594 29.7117 70.2803 29.4002C70.2947 29.0968 70.3012 28.8111 70.2883 28.6072C70.2129 28.9267 70.139 29.3489 70.1101 29.8048C70.0475 29.5993 70.0347 29.3344 70.0523 29.0888C70.0796 28.8239 70.147 28.5575 70.2642 28.2862H70.2707Z" fill="#E2BE74"/>
<path d="M63.026 29.7245C63.7083 29.8048 64.2557 29.7518 64.8111 29.5383C65.3698 29.3296 65.9365 28.9427 66.7054 28.4547C66.0585 28.4932 65.389 28.5494 64.7373 28.726C64.0936 28.901 63.4691 29.2044 63.0244 29.7261L63.026 29.7245Z" fill="#E2BE74"/>
<path d="M69.5991 26.9008C69.3102 26.9217 68.9923 26.9618 68.6552 27.0164C68.3277 27.0709 67.9794 27.1384 67.6134 27.2058C67.7579 27.1303 67.9087 27.0661 68.0629 27.0132C68.225 26.9602 68.3935 26.9184 68.5637 26.8879C68.9024 26.8269 69.2572 26.8077 69.6328 26.8253C68.9024 26.7788 68.1239 26.7386 67.3501 26.615C68.1174 26.5396 68.8928 26.6247 69.6585 26.7499C68.8912 26.5974 68.1511 26.3919 67.4753 26.0307C68.241 26.2137 68.9779 26.4657 69.6794 26.6664C68.9811 26.4352 68.3631 26.0885 67.8927 25.6197C68.5252 25.9906 69.1529 26.3325 69.7035 26.5669C69.1609 26.2956 68.7274 25.9039 68.4802 25.4913C68.8783 25.8557 69.2749 26.1527 69.6136 26.3662C69.5686 26.2827 69.4803 26.172 69.4017 26.0596C69.3214 25.9472 69.2203 25.8156 69.1063 25.6775C68.8944 25.4111 68.6231 25.0996 68.2699 24.8556C67.9232 24.6164 67.5042 24.4623 67.0627 24.4399C66.8444 24.4286 66.6149 24.4463 66.3837 24.4864C66.1606 24.5297 65.9406 24.602 65.7239 24.6871C65.4414 24.793 65.1187 24.96 64.7736 25.1173C64.4493 25.2778 64.1186 25.4367 63.8457 25.4753C64.0688 25.6198 64.3193 25.8975 64.5553 26.1768C64.7816 26.4561 65.0497 26.7419 65.2455 26.9506C65.5714 27.2796 65.9487 27.5622 66.3725 27.7163C66.7818 27.8768 67.2249 27.9073 67.6423 27.827C68.0324 27.7532 68.3566 27.6135 68.6344 27.4755C68.9249 27.3342 69.1416 27.1978 69.3343 27.0822C68.9971 27.1801 68.6279 27.3246 68.1993 27.5301C68.3646 27.3695 68.5525 27.2299 68.7965 27.1191C69.0244 27.0099 69.3054 26.9329 69.5943 26.896L69.5991 26.9008Z" fill="#E2BE74"/>
<path d="M64.7305 21.3512C64.9986 21.9757 65.3212 22.4251 65.7868 22.804C66.0179 22.9934 66.2844 23.162 66.5942 23.3354C66.9057 23.5103 67.2669 23.6901 67.6714 23.9052C66.9683 22.8425 66.0918 21.6257 64.7305 21.3528V21.3512Z" fill="#E2BE74"/>
<path d="M70.4617 25.6326C70.2948 25.3822 70.107 25.1349 69.8951 24.8765C69.6832 24.6164 69.4488 24.3451 69.2048 24.0594C69.4841 24.2424 69.7313 24.4607 69.9528 24.7256C70.1792 24.9953 70.3718 25.2987 70.5404 25.6246C70.2209 24.9744 69.8662 24.2809 69.5852 23.5457C70.0267 24.1557 70.3462 24.8877 70.6174 25.6117C70.3702 24.8845 70.1712 24.1124 70.1503 23.3595C70.3734 24.1172 70.5227 24.8765 70.6961 25.5828C70.5516 24.8749 70.5404 24.1525 70.7154 23.5168C70.7122 24.2697 70.7202 24.9423 70.7956 25.562C70.7587 24.9423 70.8871 24.3933 71.1215 23.9567C71.0043 24.5105 70.9417 24.9616 70.9257 25.3838C71.0252 25.2008 71.1456 24.9279 71.2756 24.6036C71.4024 24.2665 71.5341 23.894 71.5694 23.4622C71.5854 23.2487 71.5758 23.0352 71.5357 22.8217C71.4939 22.6146 71.4233 22.4107 71.3238 22.2117C71.2243 22.011 71.0942 21.8184 70.9449 21.6498C70.7956 21.4813 70.6223 21.3047 70.4425 21.1746C70.2113 20.9949 69.9015 20.7685 69.5981 20.5711C69.4456 20.4667 69.2947 20.3624 69.1598 20.2548C69.025 20.1505 68.9094 20.0509 68.8243 19.9418C68.8147 20.2195 68.6895 20.555 68.5675 20.9034C68.4471 21.2629 68.3138 21.5969 68.2432 21.8938C68.1838 22.1186 68.1308 22.3369 68.1164 22.5713C68.1003 22.804 68.1083 23.0336 68.1421 23.2487C68.2159 23.6902 68.4085 24.0867 68.6847 24.4061C68.9415 24.7047 69.2321 24.9198 69.4889 25.09C69.6157 25.1719 69.7426 25.2489 69.8597 25.3196C69.9785 25.3918 70.0765 25.4367 70.176 25.4945C70.0476 25.3677 69.9143 25.2569 69.7538 25.1285C69.5965 25.0049 69.4119 24.8636 69.2224 24.7384C69.4407 24.7962 69.6655 24.9022 69.8742 25.0483C70.0925 25.2088 70.2819 25.3854 70.4649 25.6342L70.4617 25.6326Z" fill="#E2BE74"/>
<path d="M72.8279 18.6366C72.4202 19.1872 72.1922 19.6977 72.0991 20.2853C72.0012 20.8776 72.0558 21.5454 72.0943 22.462C72.6578 21.3303 73.2758 19.9642 72.8279 18.6366Z" fill="#E2BE74"/>
<path d="M71.9885 25.7417C72.2453 25.2216 72.4781 24.5698 72.7221 23.8699C72.7076 24.1926 72.6322 24.5329 72.5198 24.8491C72.4026 25.1734 72.2324 25.4993 72.0334 25.8091C72.4379 25.2055 72.8617 24.5506 73.3578 23.9421C73.0447 24.6372 72.5824 25.2633 72.0864 25.8669C72.5969 25.2874 73.1523 24.7448 73.8073 24.337C73.2647 24.9085 72.6787 25.4206 72.149 25.9295C72.4283 25.6823 72.714 25.4736 73.0158 25.3034C73.3192 25.1301 73.6387 24.992 73.9517 24.9101C73.6291 25.0964 73.3241 25.2729 73.0335 25.4559C72.7397 25.6406 72.4668 25.8236 72.2228 26.005C72.4797 25.838 72.7526 25.7048 73.0078 25.6229C73.1379 25.5796 73.2695 25.5458 73.4011 25.5202C73.5263 25.4993 73.6483 25.488 73.7703 25.4832C73.5071 25.5683 73.2695 25.655 73.0512 25.7449C72.8264 25.8396 72.6242 25.9343 72.4444 26.029C72.5471 26.0274 72.6803 26.0114 72.8168 25.9985C72.9548 25.9841 73.1298 25.9568 73.2952 25.9327C73.6355 25.8781 74.0432 25.7995 74.4301 25.6149C74.8138 25.4335 75.1413 25.1541 75.3933 24.7753C75.6261 24.4109 75.7882 23.9453 75.8428 23.4959C75.8942 23.1957 75.915 22.8329 75.9455 22.462C75.9841 22.0864 75.9969 21.7381 76.1028 21.4812C75.8588 21.6112 75.5121 21.6658 75.1429 21.7413C74.9679 21.7734 74.7849 21.8071 74.6067 21.8392C74.4349 21.8729 74.2664 21.9162 74.1235 21.9516C73.6836 22.0527 73.2374 22.2646 72.9003 22.5375C72.5519 22.8281 72.3095 23.1812 72.1714 23.5825C72.0414 23.9534 71.9997 24.3146 71.9788 24.626C71.9644 24.9294 71.9579 25.2151 71.9708 25.419C72.0462 25.0996 72.1201 24.6774 72.149 24.2215C72.2116 24.4269 72.2244 24.6918 72.2068 24.9374C72.1795 25.2023 72.112 25.4688 71.9949 25.7401L71.9885 25.7417Z" fill="#E2BE74"/>
<path d="M79.2331 24.3034C78.5508 24.2231 78.0034 24.2761 77.448 24.4896C76.8893 24.6983 76.3227 25.0852 75.5537 25.5732C76.2007 25.5346 76.8701 25.4785 77.5202 25.3019C78.1639 25.1269 78.7884 24.8235 79.2331 24.3018V24.3034Z" fill="#E2BE74"/>
<path d="M72.6581 27.1255C72.947 27.1046 73.2649 27.0645 73.602 27.0099C73.9295 26.9553 74.2778 26.8879 74.6438 26.8205C74.4993 26.8959 74.3485 26.9601 74.1944 27.0131C74.0322 27.0661 73.8637 27.1078 73.6935 27.1383C73.3548 27.1993 73 27.2186 72.6244 27.201C73.3548 27.2475 74.1333 27.2876 74.9071 27.4112C74.1398 27.4867 73.3644 27.4016 72.5987 27.2764C73.366 27.4289 74.106 27.6344 74.7819 27.9956C74.0161 27.8126 73.2793 27.5605 72.5778 27.3599C73.2761 27.591 73.8941 27.9378 74.3645 28.4065C73.732 28.0357 73.1043 27.6938 72.5537 27.4594C73.0963 27.7307 73.5297 28.1224 73.777 28.535C73.3788 28.169 72.9823 27.8736 72.6436 27.6601C72.6886 27.7435 72.7768 27.8543 72.8555 27.9667C72.9358 28.079 73.0369 28.2107 73.1509 28.3487C73.3628 28.6152 73.6341 28.9267 73.9873 29.1707C74.334 29.4098 74.753 29.564 75.1945 29.5864C75.4128 29.5977 75.6423 29.58 75.8735 29.5399C76.0982 29.4965 76.3166 29.4243 76.5333 29.3392C76.8158 29.2333 77.1385 29.0663 77.4836 28.909C77.8079 28.7485 78.1386 28.5895 78.4115 28.551C78.1883 28.4065 77.9379 28.1288 77.7019 27.8495C77.4756 27.5702 77.2075 27.2844 77.0117 27.0757C76.6858 26.7466 76.3069 26.4641 75.8847 26.31C75.4754 26.1495 75.0323 26.119 74.6149 26.1992C74.2249 26.2731 73.9006 26.4127 73.6229 26.5508C73.3323 26.6921 73.114 26.8285 72.9229 26.9441C73.2601 26.8462 73.6293 26.7017 74.0579 26.4962C73.8925 26.6568 73.7047 26.7964 73.4607 26.9072C73.2328 27.0163 72.9518 27.0934 72.6629 27.1303L72.6581 27.1255Z" fill="#E2BE74"/>
<path d="M77.5269 32.675C77.2588 32.0505 76.9361 31.6011 76.4706 31.2222C76.2394 31.0344 75.9729 30.8642 75.6631 30.6909C75.3517 30.5159 74.9905 30.3361 74.5859 30.121C75.2891 31.1837 76.1656 32.4005 77.5269 32.6734V32.675Z" fill="#E2BE74"/>
<path d="M71.129 27.4995C71.3976 27.4995 71.6154 27.2818 71.6154 27.0131C71.6154 26.7445 71.3976 26.5267 71.129 26.5267C70.8603 26.5267 70.6426 26.7445 70.6426 27.0131C70.6426 27.2818 70.8603 27.4995 71.129 27.4995Z" fill="#E2BE74"/>
<path d="M70.7712 38.3434C70.6235 38.337 70.5095 38.2182 70.5095 38.0705C70.5159 37.9228 70.6395 37.8041 70.7888 37.8105C70.9365 37.8169 71.0553 37.9357 71.0489 38.0898C71.0425 38.2327 70.9237 38.3499 70.7824 38.3499C70.7824 38.3499 70.776 38.3499 70.7712 38.3434ZM72.1228 38.0416C72.1052 37.8939 72.2111 37.7623 72.3604 37.7447C72.5081 37.727 72.6398 37.8329 72.6574 37.9822C72.6751 38.1299 72.5691 38.2616 72.4198 38.2792H72.3909C72.2545 38.2792 72.1421 38.1781 72.1245 38.0416H72.1228ZM69.1289 38.1781C68.9861 38.1476 68.8866 38.0127 68.9154 37.8635C68.9395 37.7158 69.0808 37.6211 69.2237 37.6451C69.3713 37.674 69.4725 37.8105 69.4436 37.9598C69.4195 38.0898 69.3071 38.1797 69.1771 38.1797H69.1306L69.1289 38.1781ZM73.7121 37.7816C73.6768 37.6387 73.7603 37.491 73.908 37.4557C74.0508 37.414 74.1985 37.5039 74.2338 37.6451C74.2756 37.788 74.1857 37.9357 74.0444 37.9774C74.0203 37.9839 73.9962 37.9839 73.9738 37.9839C73.855 37.9839 73.749 37.9068 73.7137 37.7816H73.7121ZM67.5349 37.7703C67.392 37.7222 67.3149 37.5681 67.3631 37.4316C67.4097 37.2888 67.5654 37.2133 67.7002 37.2599C67.8431 37.308 67.9202 37.4621 67.872 37.5986C67.8367 37.7109 67.7291 37.7816 67.6167 37.7816C67.5878 37.7816 67.5574 37.7816 67.5333 37.7703H67.5349ZM75.2468 37.2952C75.1938 37.1587 75.2532 36.9982 75.3896 36.9388C75.5261 36.8794 75.6866 36.9452 75.7444 37.0817C75.8038 37.2181 75.738 37.3786 75.6015 37.438C75.5662 37.4493 75.5309 37.4557 75.494 37.4557C75.3929 37.4557 75.2917 37.3963 75.2452 37.2952H75.2468ZM66.0114 37.1346V37.1282C65.875 37.0624 65.822 36.9035 65.8926 36.7718C65.9585 36.6354 66.1174 36.5824 66.2538 36.6531C66.3839 36.7189 66.4384 36.8778 66.3726 37.0142C66.3261 37.1025 66.2298 37.1619 66.1302 37.1619C66.0885 37.1619 66.0467 37.1507 66.0114 37.1314V37.1346ZM76.6996 36.5888C76.6225 36.4588 76.6579 36.2919 76.7831 36.2148C76.9131 36.1377 77.08 36.1795 77.1571 36.3031C77.2341 36.4283 77.1924 36.5937 77.0672 36.6707C77.0254 36.6996 76.9725 36.7124 76.9243 36.7124C76.836 36.7124 76.7461 36.6707 76.6996 36.5872V36.5888ZM64.5939 36.2806C64.4752 36.1923 64.4463 36.0254 64.5281 35.9066C64.6164 35.7814 64.7834 35.7525 64.907 35.8408C65.0258 35.9242 65.0547 36.096 64.9664 36.2148C64.9182 36.2919 64.8299 36.3272 64.7464 36.3272C64.6935 36.3272 64.6389 36.3159 64.5923 36.279L64.5939 36.2806ZM78.0272 35.6754C77.9325 35.563 77.9437 35.3913 78.0577 35.2966C78.1765 35.2019 78.3418 35.2195 78.4365 35.3319C78.5312 35.4442 78.52 35.616 78.4076 35.7107C78.3547 35.7525 78.2953 35.7701 78.2359 35.7701C78.1588 35.7701 78.0817 35.7412 78.0288 35.6754H78.0272ZM63.3193 35.2307C63.2134 35.1296 63.207 34.9578 63.3081 34.8519C63.4157 34.7443 63.581 34.7395 63.6869 34.8455C63.7993 34.9466 63.7993 35.112 63.6982 35.2243C63.6452 35.2773 63.573 35.3078 63.5023 35.3078C63.4365 35.3078 63.3723 35.2837 63.3177 35.2307H63.3193ZM79.2119 34.5854C79.0995 34.4843 79.0867 34.3125 79.1878 34.2066V34.2001C79.2889 34.0926 79.4543 34.0813 79.5667 34.1825C79.679 34.2836 79.6855 34.449 79.5907 34.5613C79.5378 34.6207 79.4607 34.6496 79.3901 34.6496C79.3243 34.6496 79.2601 34.6255 79.2119 34.5838V34.5854ZM62.2101 34.0107C62.1154 33.8983 62.1394 33.7266 62.2518 33.6367C62.3706 33.542 62.5359 33.566 62.6307 33.6784C62.719 33.7972 62.7013 33.969 62.5825 34.0573C62.5343 34.099 62.4749 34.1167 62.4171 34.1167C62.3401 34.1167 62.263 34.0813 62.2101 34.0091V34.0107ZM80.2264 33.3285C80.1012 33.245 80.0659 33.0796 80.1494 32.9544C80.2329 32.8356 80.3982 32.8003 80.5234 32.8838C80.6486 32.9608 80.6775 33.1326 80.6005 33.2514C80.5475 33.3349 80.4576 33.3766 80.3757 33.3766C80.3228 33.3766 80.2698 33.359 80.2281 33.3285H80.2264ZM61.287 32.6462C61.2164 32.5162 61.2565 32.3492 61.3882 32.2786C61.5182 32.2015 61.6787 32.2497 61.7558 32.3733C61.8264 32.5033 61.7847 32.6703 61.6546 32.7409C61.6129 32.765 61.5663 32.7762 61.5182 32.7762C61.4299 32.7762 61.3336 32.7281 61.287 32.6462ZM81.0451 31.9415C80.9151 31.8821 80.8557 31.7215 80.9151 31.5851C80.9809 31.4486 81.1399 31.3957 81.2763 31.4551C81.4128 31.5209 81.4657 31.6798 81.4063 31.8163C81.3582 31.911 81.2635 31.9704 81.1575 31.9704C81.1222 31.9704 81.0869 31.9591 81.0451 31.9415ZM60.5759 31.1581C60.5229 31.0152 60.5871 30.8611 60.7236 30.8081C60.8664 30.7551 61.0205 30.8194 61.0735 30.9622C61.1265 31.0987 61.0623 31.2528 60.9194 31.3058C60.8889 31.3234 60.8536 31.3298 60.8247 31.3298C60.7187 31.3298 60.6176 31.264 60.5759 31.1581ZM81.6568 30.4534C81.5139 30.4068 81.4369 30.2575 81.4786 30.1162C81.5203 29.9734 81.668 29.8963 81.8109 29.938C81.9538 29.9798 82.0356 30.1275 81.9955 30.2703C81.9602 30.3891 81.8526 30.4662 81.7354 30.4662C81.7114 30.4662 81.6873 30.4598 81.6584 30.4549L81.6568 30.4534ZM60.0846 29.5817C60.0557 29.434 60.144 29.2911 60.2869 29.2622C60.4298 29.2269 60.5775 29.3152 60.6128 29.4645C60.6417 29.6073 60.5534 29.7486 60.4121 29.7839C60.388 29.7904 60.3704 29.7904 60.3463 29.7904C60.2275 29.7904 60.1151 29.7069 60.0863 29.5833L60.0846 29.5817ZM82.0485 28.8882C81.9008 28.8641 81.7997 28.7276 81.8173 28.5799C81.8414 28.4323 81.9778 28.3311 82.1255 28.3552C82.2732 28.3793 82.3743 28.5093 82.3503 28.657C82.3326 28.7935 82.2138 28.8882 82.0838 28.8882H82.0485ZM59.8294 27.9507C59.8181 27.803 59.9305 27.6713 60.0782 27.6601C60.2259 27.6489 60.3559 27.7612 60.3688 27.9025C60.38 28.0502 60.2676 28.1818 60.12 28.1931H60.1023C59.9594 28.1931 59.8406 28.0919 59.8294 27.9507ZM81.9297 27.0148C81.9297 26.973 81.9409 26.9377 81.9538 26.9072C81.9361 26.8719 81.9297 26.8366 81.9297 26.8013C81.9233 26.6536 82.042 26.5284 82.1897 26.5284C82.3374 26.5219 82.4626 26.6407 82.4691 26.7884C82.4691 26.8302 82.4578 26.8655 82.445 26.9008C82.4626 26.9361 82.4691 26.9714 82.4691 27.0132C82.4691 27.1609 82.3503 27.2797 82.2026 27.2797C82.0549 27.2797 81.9297 27.1609 81.9297 27.0132V27.0148ZM60.067 26.5878C59.9193 26.5765 59.8069 26.4513 59.8182 26.3036C59.8246 26.1559 59.9546 26.0436 60.1023 26.0484C60.25 26.0596 60.3623 26.1848 60.3511 26.3325C60.3447 26.4754 60.2259 26.5878 60.0846 26.5878H60.067ZM81.7868 25.2361C81.7627 25.0884 81.8574 24.952 82.0067 24.9279C82.1544 24.9038 82.2909 24.9985 82.315 25.1478C82.339 25.2955 82.2379 25.4319 82.095 25.456C82.0774 25.4624 82.0661 25.4624 82.0485 25.4624C81.9233 25.4624 81.8061 25.3677 81.7868 25.2377V25.2361ZM60.2436 24.9873C60.0959 24.952 60.006 24.8091 60.0365 24.6678C60.067 24.5201 60.2082 24.4302 60.3559 24.4607C60.4988 24.4896 60.5935 24.6325 60.563 24.7754C60.5341 24.9054 60.4201 24.9889 60.2965 24.9889H60.2436V24.9873ZM81.4128 23.7062C81.371 23.5634 81.4481 23.4157 81.591 23.3691C81.7338 23.3274 81.8815 23.4044 81.9281 23.5473C81.9698 23.6838 81.8928 23.8379 81.7499 23.886C81.7258 23.8925 81.6969 23.8973 81.6728 23.8973C81.554 23.8973 81.4545 23.8266 81.4128 23.7078V23.7062ZM60.6529 23.4221C60.5165 23.3739 60.4394 23.2214 60.4924 23.0786C60.5454 22.9421 60.6995 22.8715 60.8423 22.918C60.9788 22.971 61.0494 23.1251 60.9964 23.268C60.9611 23.3739 60.8536 23.4398 60.7476 23.4398C60.7187 23.4398 60.6818 23.4333 60.6529 23.4221ZM80.8268 22.2486C80.761 22.1186 80.8156 21.9581 80.952 21.8922C81.0821 21.8264 81.2426 21.881 81.3084 22.011C81.3791 22.1475 81.3197 22.308 81.1896 22.3722C81.1479 22.3899 81.1126 22.4027 81.0708 22.4027C80.9697 22.4027 80.875 22.3497 80.8284 22.2486H80.8268ZM61.2886 21.9404C61.1586 21.8698 61.1104 21.7092 61.1811 21.5792C61.2517 21.4492 61.4122 21.401 61.5423 21.4716C61.6723 21.5423 61.7205 21.7028 61.6498 21.8328C61.6017 21.9227 61.507 21.9757 61.4122 21.9757C61.3705 21.9757 61.3288 21.9645 61.287 21.9404H61.2886ZM80.0338 20.8969C79.9503 20.7717 79.9808 20.6064 80.1044 20.5229C80.2232 20.4346 80.3886 20.4699 80.4785 20.5887C80.5619 20.7139 80.5315 20.8793 80.4078 20.9628C80.3597 20.9981 80.3067 21.0109 80.2537 21.0109C80.1703 21.0109 80.0884 20.9756 80.0338 20.8986V20.8969ZM62.1314 20.5646C62.0126 20.4764 61.9885 20.3094 62.0784 20.1906C62.1683 20.0718 62.3337 20.0477 62.4525 20.1376C62.5777 20.2259 62.5953 20.3929 62.5054 20.5165V20.5101C62.4525 20.5807 62.3754 20.6176 62.2919 20.6176C62.239 20.6176 62.1796 20.6 62.1314 20.5646ZM79.0498 19.6689C78.9486 19.5565 78.955 19.3912 79.0674 19.29C79.175 19.1889 79.3467 19.1953 79.4463 19.3013C79.5474 19.4136 79.541 19.5806 79.4286 19.6801C79.3821 19.7283 79.3098 19.7508 79.2456 19.7508C79.175 19.7508 79.1027 19.7267 79.0498 19.6673V19.6689ZM63.162 19.3318C63.0561 19.2242 63.0561 19.0524 63.162 18.9465C63.2696 18.8454 63.4413 18.8454 63.5409 18.9529C63.6484 19.0605 63.6484 19.2258 63.5409 19.3318C63.4879 19.3847 63.4221 19.4088 63.3514 19.4088C63.2808 19.4088 63.215 19.3799 63.162 19.3318ZM77.8987 18.5965C77.7864 18.5018 77.7623 18.3365 77.857 18.2177C77.9517 18.1053 78.1235 18.0877 78.2359 18.1759C78.3482 18.2707 78.3723 18.4424 78.2776 18.5548C78.2246 18.6206 78.1476 18.6559 78.0705 18.6559C78.0111 18.6559 77.9517 18.6383 77.8987 18.5965ZM64.3596 18.253C64.2713 18.1342 64.3002 17.9624 64.419 17.879C64.5378 17.7907 64.7031 17.8132 64.793 17.9319C64.8813 18.0507 64.8588 18.2225 64.74 18.3108C64.6919 18.3461 64.6325 18.359 64.5795 18.359C64.496 18.359 64.4142 18.3236 64.3596 18.253ZM76.6065 17.7024C76.4764 17.6253 76.4347 17.46 76.5118 17.3348C76.5888 17.2047 76.7542 17.163 76.8794 17.2401C77.0094 17.3171 77.0511 17.4776 76.9741 17.6077C76.9259 17.6911 76.8376 17.7377 76.7429 17.7377C76.6948 17.7377 76.6482 17.7265 76.6065 17.7024ZM65.7048 17.3653C65.6342 17.2352 65.6807 17.0683 65.8124 16.9977C65.9424 16.9318 66.1094 16.98 66.18 17.11C66.2458 17.24 66.1977 17.407 66.0676 17.4712C66.0259 17.4953 65.9842 17.5065 65.9424 17.5065C65.8413 17.5065 65.753 17.4536 65.7048 17.3637V17.3653ZM75.1954 17.0089V17.0025C75.059 16.9495 74.9931 16.789 75.0477 16.6525C75.1071 16.5161 75.2612 16.4502 75.4025 16.5048C75.5389 16.5642 75.6048 16.7183 75.5454 16.8548C75.5036 16.9623 75.4025 17.0266 75.2965 17.0266C75.266 17.0266 75.2307 17.0201 75.1954 17.0089ZM67.1624 16.6766C67.1095 16.5337 67.1801 16.3796 67.323 16.3331C67.4658 16.2801 67.6135 16.3571 67.6665 16.4936C67.7147 16.6365 67.6424 16.7906 67.5012 16.8371C67.4707 16.8484 67.4418 16.8548 67.4113 16.8548C67.3053 16.8548 67.1978 16.7841 67.1624 16.6766ZM73.7009 16.5225C73.5532 16.4872 73.4697 16.3395 73.505 16.1966C73.5339 16.0537 73.6832 15.9654 73.8245 16.0008C73.9722 16.0361 74.0621 16.1789 74.0251 16.3266C73.9962 16.4454 73.8823 16.5289 73.7651 16.5289C73.741 16.5289 73.7233 16.5289 73.6993 16.5225H73.7009ZM68.7035 16.2078C68.6746 16.065 68.7694 15.9237 68.9106 15.8932C69.0583 15.8643 69.2012 15.959 69.2301 16.1067C69.259 16.2496 69.1643 16.3908 69.0166 16.4213C68.9989 16.4213 68.9813 16.4278 68.9636 16.4278C68.8384 16.4278 68.726 16.3379 68.7035 16.2078ZM72.1485 16.2608C72.0009 16.2496 71.8933 16.1179 71.9109 15.9703C71.9222 15.8226 72.0538 15.7102 72.2015 15.7279C72.3492 15.7391 72.4568 15.8707 72.4439 16.0184C72.4263 16.1613 72.3139 16.2608 72.1774 16.2608H72.1485ZM70.2992 15.9703C70.2928 15.8226 70.4068 15.6974 70.5545 15.6909C70.7021 15.6845 70.8274 15.7985 70.8322 15.9462C70.8386 16.0939 70.7262 16.2191 70.5769 16.2239H70.5657C70.4228 16.2239 70.3056 16.1179 70.2992 15.9686V15.9703Z" fill="#E2BE74"/>
<path d="M48.7171 37.3882C47.7652 37.3882 46.9224 37.8666 46.4151 38.5938C46.2642 38.5681 46.1085 38.552 45.9512 38.5472C46.5146 37.6049 47.542 36.9724 48.7171 36.9724C49.8922 36.9724 50.9196 37.6065 51.4831 38.5472C51.3257 38.552 51.17 38.5665 51.0191 38.5938C50.5118 37.8666 49.6691 37.3882 48.7171 37.3882Z" fill="#E2BE74"/>
<path d="M48.7172 38.215C48.1393 38.215 47.6192 38.4654 47.2564 38.8619C47.1248 38.7993 46.9899 38.7415 46.8486 38.6966C47.2885 38.1492 47.9627 37.7976 48.7172 37.7976C49.4717 37.7976 50.1459 38.1492 50.5858 38.6966C50.4445 38.7415 50.3097 38.7993 50.178 38.8619C49.8152 38.4654 49.2951 38.215 48.7172 38.215Z" fill="#E2BE74"/>
<path d="M48.7172 39.0417C48.4283 39.0417 48.165 39.1492 47.9627 39.3242C47.8552 39.2327 47.7428 39.146 47.624 39.0689C47.9066 38.7944 48.2918 38.6243 48.7156 38.6243C49.1394 38.6243 49.5247 38.7944 49.8072 39.0689C49.6884 39.146 49.5761 39.2327 49.4685 39.3242C49.2663 39.1492 49.003 39.0417 48.714 39.0417H48.7172Z" fill="#E2BE74"/>
<path d="M48.7173 39.8684C48.6418 39.8684 48.5728 39.8957 48.5182 39.9375C48.4396 39.8235 48.3513 39.7159 48.2598 39.6132C48.3866 39.5137 48.5439 39.451 48.7189 39.451C48.8939 39.451 49.0512 39.5137 49.178 39.6132C49.0849 39.7159 48.9982 39.8235 48.9195 39.9375C48.8634 39.8941 48.7959 39.8668 48.7205 39.8668L48.7173 39.8684Z" fill="#E2BE74"/>
<path d="M54.6751 37.3882C53.7232 37.3882 52.8804 37.8666 52.3731 38.5938C52.2222 38.5681 52.0665 38.552 51.9092 38.5472C52.4726 37.6049 53.5 36.9724 54.6751 36.9724C55.8502 36.9724 56.8776 37.6065 57.4411 38.5472C57.2837 38.552 57.128 38.5665 56.9771 38.5938C56.4699 37.8666 55.6271 37.3882 54.6751 37.3882Z" fill="#E2BE74"/>
<path d="M54.6752 38.215C54.0973 38.215 53.5772 38.4654 53.2144 38.8619C53.0828 38.7993 52.9479 38.7415 52.8066 38.6966C53.2465 38.1492 53.9207 37.7976 54.6752 37.7976C55.4297 37.7976 56.1039 38.1492 56.5438 38.6966C56.4025 38.7415 56.2677 38.7993 56.1361 38.8619C55.7733 38.4654 55.2531 38.215 54.6752 38.215Z" fill="#E2BE74"/>
<path d="M54.6752 39.0417C54.3863 39.0417 54.123 39.1492 53.9207 39.3242C53.8132 39.2327 53.7008 39.146 53.582 39.0689C53.8646 38.7944 54.2498 38.6243 54.6736 38.6243C55.0974 38.6243 55.4827 38.7944 55.7652 39.0689C55.6465 39.146 55.5341 39.2327 55.4265 39.3242C55.2243 39.1492 54.961 39.0417 54.672 39.0417H54.6752Z" fill="#E2BE74"/>
<path d="M54.6753 39.8684C54.5998 39.8684 54.5308 39.8957 54.4762 39.9375C54.3976 39.8235 54.3093 39.7159 54.2178 39.6132C54.3446 39.5137 54.5019 39.451 54.6769 39.451C54.8519 39.451 55.0092 39.5137 55.136 39.6132C55.0429 39.7159 54.9562 39.8235 54.8776 39.9375C54.8214 39.8941 54.7539 39.8668 54.6785 39.8668L54.6753 39.8684Z" fill="#E2BE74"/>
<path d="M45.7386 39.3916C44.7867 39.3916 43.9439 39.87 43.4366 40.5972C43.2857 40.5715 43.13 40.5555 42.9727 40.5506C43.5361 39.6083 44.5635 38.9758 45.7386 38.9758C46.9137 38.9758 47.9411 39.6099 48.5045 40.5506C48.3472 40.5555 48.1915 40.5699 48.0406 40.5972C47.5333 39.87 46.6905 39.3916 45.7386 39.3916Z" fill="#E2BE74"/>
<path d="M45.7377 40.2184C45.1598 40.2184 44.6397 40.4688 44.2769 40.8669C44.1452 40.8043 44.0104 40.7465 43.8691 40.7016C44.309 40.1542 44.9832 39.8026 45.7377 39.8026C46.4922 39.8026 47.1664 40.1542 47.6063 40.7016C47.465 40.7465 47.3302 40.8043 47.1985 40.8669C46.8357 40.4704 46.3156 40.2184 45.7377 40.2184Z" fill="#E2BE74"/>
<path d="M45.7378 41.0451C45.4488 41.0451 45.1855 41.1526 44.9832 41.3276C44.8757 41.2361 44.7633 41.1494 44.6445 41.0724C44.9271 40.7979 45.3123 40.6277 45.7361 40.6277C46.16 40.6277 46.5452 40.7979 46.8277 41.0724C46.709 41.1494 46.5966 41.2361 46.489 41.3276C46.2868 41.1526 46.0235 41.0451 45.7345 41.0451H45.7378Z" fill="#E2BE74"/>
<path d="M45.7378 41.8718C45.6624 41.8718 45.5933 41.8991 45.5387 41.9409C45.4601 41.8269 45.3718 41.7193 45.2803 41.6166C45.4071 41.5171 45.5644 41.4545 45.7394 41.4545C45.9144 41.4545 46.0717 41.5171 46.1985 41.6166C46.1054 41.7193 46.0187 41.8269 45.9401 41.9409C45.8839 41.8975 45.8165 41.8718 45.741 41.8718H45.7378Z" fill="#E2BE74"/>
<path d="M51.6956 39.3916C50.7437 39.3916 49.9009 39.87 49.3936 40.5972C49.2427 40.5715 49.087 40.5555 48.9297 40.5506C49.4932 39.6083 50.5205 38.9758 51.6956 38.9758C52.8707 38.9758 53.8981 39.6099 54.4616 40.5506C54.3043 40.5555 54.1485 40.5699 53.9976 40.5972C53.4904 39.87 52.6476 39.3916 51.6956 39.3916Z" fill="#E2BE74"/>
<path d="M51.6957 40.2184C51.1178 40.2184 50.5977 40.4688 50.2349 40.8669C50.1033 40.8043 49.9684 40.7465 49.8271 40.7016C50.267 40.1542 50.9412 39.8026 51.6957 39.8026C52.4502 39.8026 53.1245 40.1542 53.5643 40.7016C53.423 40.7465 53.2882 40.8043 53.1566 40.8669C52.7938 40.4704 52.2736 40.2184 51.6957 40.2184Z" fill="#E2BE74"/>
<path d="M51.6958 41.0451C51.4068 41.0451 51.1435 41.1526 50.9413 41.3276C50.8337 41.2361 50.7213 41.1494 50.6025 41.0724C50.8851 40.7979 51.2704 40.6277 51.6942 40.6277C52.118 40.6277 52.5032 40.7979 52.7858 41.0724C52.667 41.1494 52.5546 41.2361 52.447 41.3276C52.2448 41.1526 51.9815 41.0451 51.6925 41.0451H51.6958Z" fill="#E2BE74"/>
<path d="M51.6958 41.8718C51.6203 41.8718 51.5513 41.8991 51.4967 41.9409C51.4181 41.8269 51.3298 41.7193 51.2383 41.6166C51.3651 41.5171 51.5224 41.4545 51.6974 41.4545C51.8724 41.4545 52.0297 41.5171 52.1565 41.6166C52.0634 41.7193 51.9767 41.8269 51.8981 41.9409C51.8419 41.8975 51.7745 41.8718 51.699 41.8718H51.6958Z" fill="#E2BE74"/>
<path d="M29.728 8.88916C30.5323 10.4559 31.1584 12.1592 31.176 13.9202C31.1937 15.6812 30.5323 17.5113 29.1469 18.5997C28.2816 19.2803 26.2477 20.0156 25.2284 19.2241C24.3037 18.5066 24.8399 16.6348 25.0662 15.67C25.71 12.941 27.3795 10.4431 29.7264 8.89077L29.728 8.88916Z" fill="white"/>
<path d="M23.1271 12.7419C21.8637 11.4577 20.0353 10.899 18.2534 10.6438C16.3688 10.3725 14.4231 10.4367 12.63 9.79137C11.8771 9.52007 8.69218 8.35783 8.71144 7.29993C8.68896 8.49749 9.42419 9.60676 10.3745 10.3372C11.7342 11.3822 13.4166 11.5299 14.8196 12.4578C16.2532 13.4065 17.3496 14.8866 17.7493 16.5674C17.8681 17.0618 17.9516 17.6092 18.3256 17.9528C18.6162 18.2192 19.0272 18.3059 19.4188 18.3493C20.8556 18.5114 23.4498 18.3091 24.3182 16.9093C25.1064 15.6379 24.0357 13.6666 23.1287 12.7435L23.1271 12.7419Z" fill="#E2BE74"/>
<path d="M9.22421 16.3233C7.60445 16.2286 5.9558 16.2671 4.44359 15.7968C2.90731 15.3184 1.43525 14.2782 0.940811 12.7467C0.759411 14.7806 1.77237 16.8756 3.47721 17.9977C5.24947 19.1631 7.38612 19.3172 9.14715 20.404C10.1649 21.0333 10.974 22.141 10.9018 23.3353C12.796 21.9965 14.5314 20.4345 16.0612 18.6912C14.6742 17.5642 12.9517 16.9093 11.2003 16.5561C10.5534 16.4261 9.89041 16.3635 9.2226 16.3233H9.22421Z" fill="#E2BE74"/>
<path d="M30.9132 19.8952C30.9132 19.8952 21.0454 13.3279 15.0656 17.1967C9.08583 21.0671 6.91545 28.185 5.86719 38.7736C5.86719 38.7736 8.79046 41.9217 12.5212 41.7579L15.3064 38.7624C15.3064 38.7624 18.997 40.3276 23.1291 34.7315C27.2611 29.1354 30.9116 19.8952 30.9116 19.8952H30.9132Z" fill="#231F20"/>
<path d="M16.4979 25.5603L13.9053 31.7648C13.9053 31.7648 19.641 31.3956 16.4979 25.5603Z" fill="#E2BE74"/>
<path d="M9.38572 39.3467C10.3617 39.7239 11.2318 39.7785 11.3474 39.4799C11.463 39.1813 10.7759 38.6483 9.80149 38.2711C8.8367 37.8987 7.9602 37.828 7.84462 38.1266C7.72904 38.4268 8.42253 38.9742 9.38732 39.3467H9.38572Z" fill="#E2BE74"/>
<path d="M29.7815 8.97107C30.3578 10.6358 30.7351 12.4096 30.5055 14.1562C30.2743 15.9012 29.3609 17.6205 27.8375 18.5018C26.8839 19.0524 24.7681 19.4939 23.8707 18.566C23.0569 17.7248 23.8515 15.9477 24.2127 15.0247C25.2337 12.4144 27.2419 10.1767 29.7831 8.97107H29.7815Z" fill="#231F20"/>
<mask id="mask0_978_7897" style="mask-type:luminance" maskUnits="userSpaceOnUse" x="21" y="0" width="65" height="63">
<path d="M85.9496 29.5977C86.0588 31.3571 86.0588 34.3125 85.0522 36.6C83.9847 39.6293 80.9025 49.0316 82.723 52.4637C82.723 52.4637 76.581 57.4915 76.0946 62.216H70.2738C70.2738 62.216 70.8902 56.1222 74.2983 52.4043L72.022 50.128C72.022 50.128 68.6733 46.5353 64.5412 46.5176C60.7238 46.4936 57.1424 47.6847 53.4197 48.5146C50.307 49.2146 47.1124 49.7588 43.9997 49.2788C43.1585 49.1487 42.3222 48.9465 41.5035 48.6511C38.089 47.4359 34.9345 45.67 32.114 43.4162C31.8411 43.2027 31.5971 42.9539 31.313 42.7644C29.4813 41.5428 23.829 35.8841 21.877 35.2436C22.1755 34.3655 22.4147 33.4681 22.5977 32.5595C22.7534 31.7777 23.0617 30.7294 22.922 29.9332C22.67 28.5077 22.3088 27.1352 22.2205 25.6647C22.0616 23.0143 22.5977 20.4137 23.8916 18.0908C36.7967 -0.0362942 45.6628 -3.42511 62.6197 5.00276C73.075 10.3292 85.7169 15.9622 85.9496 29.5961V29.5977Z" fill="white"/>
</mask>
<g mask="url(#mask0_978_7897)">
<path d="M65.2233 7.47804C64.151 7.47804 63.2022 8.01582 62.6291 8.83453C62.459 8.80564 62.284 8.78798 62.1074 8.78316C62.7431 7.72205 63.9006 7.00769 65.2233 7.00769C66.5461 7.00769 67.7035 7.72205 68.3392 8.78316C68.161 8.78798 67.9877 8.80564 67.8175 8.83453C67.246 8.01582 66.2973 7.47645 65.2233 7.47645V7.47804Z" fill="#E2BE74"/>
<path d="M65.2237 8.40919C64.5719 8.40919 63.986 8.69172 63.5783 9.1396C63.4306 9.06897 63.2781 9.00475 63.1191 8.95338C63.6152 8.33694 64.3745 7.94043 65.2253 7.94043C66.0761 7.94043 66.8354 8.33694 67.3299 8.95338C67.1709 9.00475 67.0184 9.06897 66.8707 9.1396C66.463 8.69332 65.8771 8.40919 65.2253 8.40919H65.2237Z" fill="#E2BE74"/>
<path d="M65.2238 9.34194C64.8995 9.34194 64.6026 9.46233 64.3746 9.65978C64.2542 9.55544 64.1274 9.45912 63.9941 9.37244C64.3136 9.06422 64.747 8.87158 65.2238 8.87158C65.7006 8.87158 66.1356 9.06261 66.4535 9.37244C66.3202 9.45912 66.1934 9.55544 66.073 9.65978C65.8451 9.46233 65.5481 9.34194 65.2238 9.34194Z" fill="#E2BE74"/>
<path d="M65.223 10.2729C65.1379 10.2729 65.0608 10.3034 64.9982 10.3516C64.9099 10.2232 64.8104 10.1028 64.7061 9.9872C64.8489 9.87483 65.0271 9.8042 65.223 9.8042C65.4188 9.8042 65.597 9.87483 65.7399 9.9872C65.6355 10.1028 65.5376 10.2232 65.4477 10.3516C65.3851 10.3034 65.3081 10.2729 65.223 10.2729Z" fill="#E2BE74"/>
<path d="M71.9333 7.47804C70.8609 7.47804 69.9122 8.01582 69.3391 8.83453C69.1689 8.80564 68.994 8.78798 68.8174 8.78316C69.4531 7.72205 70.6105 7.00769 71.9333 7.00769C73.256 7.00769 74.4135 7.72205 75.0492 8.78316C74.871 8.78798 74.6976 8.80564 74.5275 8.83453C73.956 8.01582 73.0072 7.47645 71.9333 7.47645V7.47804Z" fill="#E2BE74"/>
<path d="M71.9337 8.40919C71.2819 8.40919 70.696 8.69172 70.2882 9.1396C70.1405 9.06897 69.988 9.00475 69.8291 8.95338C70.3251 8.33694 71.0845 7.94043 71.9353 7.94043C72.7861 7.94043 73.5454 8.33694 74.0398 8.95338C73.8809 9.00475 73.7284 9.06897 73.5807 9.1396C73.173 8.69332 72.587 8.40919 71.9353 8.40919H71.9337Z" fill="#E2BE74"/>
<path d="M71.9338 9.34194C71.6095 9.34194 71.3125 9.46233 71.0846 9.65978C70.9642 9.55544 70.8373 9.45912 70.7041 9.37244C71.0236 9.06422 71.457 8.87158 71.9338 8.87158C72.4105 8.87158 72.8456 9.06261 73.1634 9.37244C73.0302 9.45912 72.9034 9.55544 72.783 9.65978C72.555 9.46233 72.258 9.34194 71.9338 9.34194Z" fill="#E2BE74"/>
<path d="M71.9339 10.2729C71.8488 10.2729 71.7718 10.3034 71.7091 10.3516C71.6209 10.2232 71.5213 10.1028 71.417 9.9872C71.5599 9.87483 71.738 9.8042 71.9339 9.8042C72.1297 9.8042 72.3079 9.87483 72.4508 9.9872C72.3465 10.1028 72.2485 10.2232 72.1586 10.3516C72.096 10.3034 72.019 10.2729 71.9339 10.2729Z" fill="#E2BE74"/>
<path d="M61.8679 9.73513C60.7955 9.73513 59.8468 10.2729 59.2737 11.0916C59.1035 11.0627 58.9285 11.0451 58.752 11.0402C59.3877 9.97913 60.5451 9.26477 61.8679 9.26477C63.1906 9.26477 64.3481 9.97913 64.9838 11.0402C64.8056 11.0451 64.6322 11.0627 64.462 11.0916C63.8906 10.2729 62.9418 9.73353 61.8679 9.73353V9.73513Z" fill="#E2BE74"/>
<path d="M61.8682 10.6663C61.2165 10.6663 60.6305 10.9488 60.2228 11.3967C60.0751 11.326 59.9226 11.2618 59.7637 11.2105C60.2597 10.594 61.019 10.1975 61.8698 10.1975C62.7206 10.1975 63.48 10.594 63.9744 11.2105C63.8155 11.2618 63.663 11.326 63.5153 11.3967C63.1075 10.9504 62.5216 10.6663 61.8698 10.6663H61.8682Z" fill="#E2BE74"/>
<path d="M61.8683 11.5973C61.5441 11.5973 61.2471 11.7177 61.0191 11.9152C60.8987 11.8108 60.7719 11.7145 60.6387 11.6278C60.9581 11.3196 61.3916 11.127 61.8683 11.127C62.3451 11.127 62.7802 11.318 63.098 11.6278C62.9648 11.7145 62.838 11.8108 62.7176 11.9152C62.4896 11.7177 62.1926 11.5973 61.8683 11.5973Z" fill="#E2BE74"/>
<path d="M61.8685 12.5284C61.7834 12.5284 61.7063 12.5589 61.6437 12.6071C61.5554 12.4787 61.4559 12.3583 61.3516 12.2427C61.4944 12.1303 61.6726 12.0597 61.8685 12.0597C62.0643 12.0597 62.2425 12.1303 62.3854 12.2427C62.281 12.3583 62.1831 12.4787 62.0932 12.6071C62.0306 12.5589 61.9535 12.5284 61.8685 12.5284Z" fill="#E2BE74"/>
<path d="M68.5788 9.73513C67.5064 9.73513 66.5577 10.2729 65.9846 11.0916C65.8145 11.0627 65.6395 11.0451 65.4629 11.0402C66.0986 9.97913 67.256 9.26477 68.5788 9.26477C69.9016 9.26477 71.059 9.97913 71.6947 11.0402C71.5165 11.0451 71.3431 11.0627 71.173 11.0916C70.6015 10.2729 69.6527 9.73353 68.5788 9.73353V9.73513Z" fill="#E2BE74"/>
<path d="M68.5782 10.6663C67.9264 10.6663 67.3405 10.9488 66.9327 11.3967C66.7851 11.326 66.6326 11.2618 66.4736 11.2105C66.9697 10.594 67.729 10.1975 68.5798 10.1975C69.4306 10.1975 70.1899 10.594 70.6844 11.2105C70.5254 11.2618 70.3729 11.326 70.2252 11.3967C69.8175 10.9504 69.2316 10.6663 68.5798 10.6663H68.5782Z" fill="#E2BE74"/>
<path d="M68.5783 11.5973C68.254 11.5973 67.957 11.7177 67.7291 11.9152C67.6087 11.8108 67.4819 11.7145 67.3486 11.6278C67.6681 11.3196 68.1015 11.127 68.5783 11.127C69.0551 11.127 69.4901 11.318 69.808 11.6278C69.6747 11.7145 69.5479 11.8108 69.4275 11.9152C69.1995 11.7177 68.9026 11.5973 68.5783 11.5973Z" fill="#E2BE74"/>
<path d="M68.5784 12.5284C68.4933 12.5284 68.4163 12.5589 68.3537 12.6071C68.2654 12.4787 68.1659 12.3583 68.0615 12.2427C68.2044 12.1303 68.3826 12.0597 68.5784 12.0597C68.7743 12.0597 68.9525 12.1303 69.0954 12.2427C68.991 12.3583 68.8931 12.4787 68.8032 12.6071C68.7406 12.5589 68.6635 12.5284 68.5784 12.5284Z" fill="#E2BE74"/>
<path d="M41.5047 17.6413C41.8257 17.9897 42.1259 18.3733 42.3442 18.826C42.5642 19.2755 42.691 19.8069 42.6396 20.3527C42.5947 20.892 42.3474 21.4876 41.845 21.8825C41.3682 22.263 40.6683 22.4845 39.9491 22.2373L39.8046 22.1875C39.4402 22.0623 39.246 21.6658 39.3728 21.3014C39.498 20.937 39.8945 20.7444 40.2589 20.8696C40.3424 20.8985 40.4195 20.9434 40.4837 20.998C40.633 21.1248 40.9637 21.1505 41.2526 21.0092C41.5368 20.884 41.7695 20.5919 41.8883 20.2178C42.0071 19.8438 42.0087 19.4168 41.9028 18.9914C41.7984 18.566 41.5994 18.1486 41.3618 17.7521C41.3361 17.7087 41.3505 17.6541 41.3923 17.6285C41.4292 17.606 41.4774 17.614 41.5047 17.6445V17.6413Z" fill="#E2BE74"/>
<path d="M42.4492 16.9928C42.8682 16.8933 43.2422 16.9462 43.5858 17.0554C43.9277 17.1694 44.2391 17.3524 44.504 17.5851C44.7705 17.8179 44.9904 18.1021 45.1477 18.4279C45.3002 18.7554 45.3998 19.1198 45.3548 19.5484C44.939 19.4409 44.6356 19.2916 44.3547 19.1343C44.0786 18.9737 43.8362 18.7972 43.6131 18.5997C43.3899 18.4022 43.1844 18.1839 42.9902 17.9303C42.7976 17.6718 42.6114 17.3909 42.4508 16.9928H42.4492Z" fill="#E2BE74"/>
<path d="M43.9446 22.1747C44.1436 21.3046 44.0682 20.2949 43.6572 19.3525C44.431 20.0284 45.0346 20.9996 45.2947 22.1329L45.3043 22.1731C45.391 22.5487 45.155 22.9227 44.7809 23.0094C44.4053 23.0961 44.0313 22.8601 43.9446 22.4861C43.9205 22.3818 43.9221 22.2726 43.9446 22.1747Z" fill="#E2BE74"/>
<path d="M41.4022 8.00791C40.8243 8.05768 40.3314 8.3675 40.0264 8.80896C39.9815 8.87478 39.9397 8.9438 39.9028 9.01443C39.9076 8.92775 39.9028 8.84267 39.8948 8.75759C39.8225 7.97741 39.2655 7.29676 38.4612 7.11054C37.4563 6.87616 36.4514 7.50063 36.217 8.50555C36.1833 8.64843 36.1705 8.7913 36.1705 8.93096C36.1705 9.42861 36.3695 9.89896 36.7099 10.2425C35.8831 9.93107 34.9263 10.2425 34.4544 11.0259C33.9214 11.9088 34.2056 13.0582 35.0885 13.5912C35.66 13.9347 36.339 13.9363 36.8944 13.6586C36.3422 14.3473 36.3422 15.3538 36.9426 16.0457C36.9731 16.0794 37.0052 16.1115 37.0373 16.1436C37.7228 16.8307 38.8337 16.8805 39.5785 16.2351L39.5994 16.2142C40.0874 15.7792 40.2913 15.1435 40.1998 14.5399C40.455 14.9268 40.8387 15.1949 41.2689 15.3121C41.6574 15.418 42.0844 15.402 42.4841 15.2318C43.4345 14.8305 43.8791 13.734 43.4794 12.7837C43.2788 12.3101 42.9047 11.965 42.4633 11.7852C42.3332 11.7322 42.1968 11.6921 42.0571 11.6696C42.1775 11.6375 42.2915 11.591 42.4007 11.5364C43.0621 11.2041 43.4891 10.4945 43.4216 9.71114C43.335 8.68214 42.4296 7.92122 41.4022 8.00791ZM41.0024 10.7722C41.0426 10.8541 41.0153 10.9488 40.9382 10.9841C40.8628 11.0179 40.7729 10.9922 40.7392 10.9231C40.7103 10.8509 40.7199 10.769 40.7905 10.7193C40.858 10.6727 40.9655 10.6888 41.0024 10.7739V10.7722ZM40.9414 11.4449C40.9206 11.371 40.9687 11.2908 41.049 11.2651C41.1276 11.2394 41.2127 11.2908 41.2368 11.3791C41.2657 11.4674 41.2047 11.5492 41.1196 11.5605C41.0378 11.5701 40.9671 11.5171 40.9414 11.4449ZM41.2802 12.0276C41.2689 12.1191 41.1919 12.1801 41.11 12.1657C41.0281 12.1528 40.9687 12.079 40.9784 12.0035C40.9928 11.9281 41.0602 11.8655 41.1405 11.8639C41.2272 11.8639 41.2962 11.9361 41.2802 12.0276ZM40.3796 10.2746C40.431 10.2088 40.5289 10.204 40.5963 10.265C40.6637 10.326 40.6702 10.4191 40.6043 10.4769C40.5449 10.5299 40.4454 10.5363 40.3892 10.4849C40.3314 10.4335 40.3266 10.3388 40.3796 10.273V10.2746ZM40.0633 9.89254C40.142 9.93749 40.1725 10.0338 40.1291 10.1044C40.0858 10.1767 39.9975 10.2024 39.9317 10.1638C39.8659 10.1237 39.8258 10.0515 39.8579 9.9712C39.8852 9.89736 39.9847 9.84599 40.0633 9.89254ZM41.1325 12.6617C41.1068 12.75 41.0121 12.7853 40.935 12.7468C40.8644 12.7115 40.8323 12.6264 40.8515 12.5509C40.8756 12.4787 40.9607 12.4386 41.041 12.4626C41.1212 12.4867 41.1614 12.575 41.1325 12.6617ZM36.7853 9.07062C36.7275 8.3964 37.2284 7.80243 37.9026 7.74464C38.5704 7.68685 39.1563 8.17647 39.2254 8.83785C38.983 8.4895 38.5688 8.2776 38.1161 8.31613C37.4419 8.37392 36.941 8.96788 36.9988 9.64211C36.9988 9.65014 37.0004 9.65817 37.002 9.66459C36.8832 9.49443 36.8046 9.29216 36.7853 9.06902V9.07062ZM39.5689 9.87328C39.5496 9.95354 39.471 10.0129 39.3939 10.0033C39.3185 9.99368 39.2607 9.91823 39.2671 9.83475C39.2735 9.75128 39.3506 9.69349 39.4405 9.70472C39.532 9.71757 39.5882 9.79302 39.5689 9.87489V9.87328ZM38.9637 9.83475C38.9685 9.91823 38.9107 9.99047 38.8337 9.99528C38.7566 9.99528 38.6828 9.96156 38.6635 9.87648C38.6442 9.79943 38.6988 9.6999 38.7903 9.69669C38.8818 9.69027 38.9589 9.75127 38.9637 9.83635V9.83475ZM38.3713 9.95836C38.4002 10.037 38.3681 10.1285 38.3007 10.1622C38.2317 10.1959 38.1418 10.1654 38.1 10.0932C38.0583 10.021 38.0888 9.92946 38.1707 9.88933C38.2526 9.8492 38.3424 9.8797 38.3713 9.95836ZM37.8304 10.4704C37.7774 10.525 37.6875 10.5282 37.6249 10.4704C37.5639 10.4143 37.5607 10.3115 37.6249 10.2473C37.6971 10.1911 37.7966 10.2008 37.848 10.2666C37.8994 10.3324 37.8914 10.4239 37.8304 10.4704ZM37.2235 10.7594C37.2701 10.6807 37.3632 10.6551 37.4306 10.7048C37.4981 10.753 37.5237 10.8461 37.4836 10.9119C37.4451 10.9777 37.352 11.0018 37.2765 10.9681C37.2011 10.9328 37.177 10.8397 37.2219 10.761L37.2235 10.7594ZM38.5447 13.6474C38.6169 13.673 38.6619 13.7597 38.6442 13.8416C38.6266 13.9219 38.5415 13.9652 38.4548 13.9363C38.3681 13.9074 38.3248 13.8207 38.3569 13.7437C38.389 13.6666 38.4725 13.6233 38.5463 13.649L38.5447 13.6474ZM36.9747 11.3614C37.0036 11.2747 37.0919 11.2265 37.1722 11.2522C37.2508 11.2779 37.2958 11.3582 37.2701 11.4304C37.2605 11.5059 37.1866 11.5589 37.1031 11.5476C37.0197 11.5364 36.9635 11.4529 36.9747 11.363V11.3614ZM37.4226 12.994C37.4932 12.9491 37.5864 12.9603 37.6329 13.0213C37.6795 13.0823 37.6666 13.1786 37.6072 13.2364C37.5462 13.2942 37.4515 13.2813 37.3969 13.2091C37.3407 13.1369 37.3536 13.0406 37.4226 12.994ZM37.0662 12.6472C37.0373 12.5606 37.0855 12.4691 37.1641 12.4466C37.246 12.4225 37.3231 12.4642 37.3472 12.5365C37.3825 12.6055 37.3488 12.6906 37.2733 12.7275C37.1979 12.7644 37.1048 12.7275 37.0646 12.6456L37.0662 12.6472ZM37.8336 13.4387C37.8898 13.3712 37.97 13.3729 38.039 13.4066C38.1049 13.4451 38.1257 13.535 38.084 13.6072C38.0422 13.6795 37.9459 13.7019 37.8673 13.6554C37.787 13.612 37.7822 13.4981 37.8336 13.4387ZM36.933 12.0099C36.9266 11.9184 36.9892 11.8462 37.0727 11.8478C37.1561 11.8478 37.23 11.912 37.2348 11.9891C37.2412 12.0661 37.177 12.1384 37.0951 12.1512C37.0132 12.1641 36.941 12.1014 36.933 12.0099ZM36.3872 13.1963C36.3872 13.1963 36.4032 13.1995 36.4097 13.2011C36.2106 13.2621 35.9939 13.2733 35.7756 13.222C35.1158 13.0678 34.7064 12.4097 34.8589 11.7499C35.0114 11.0981 35.6568 10.6904 36.3085 10.83C35.9024 10.9536 35.5717 11.2827 35.4689 11.7242C35.3148 12.384 35.7258 13.0438 36.3856 13.1963H36.3872ZM39.4148 15.463C39.0648 16.0425 38.3103 16.2287 37.7308 15.8787C37.1577 15.5336 36.9699 14.7935 37.3038 14.2156C37.2958 14.6394 37.5061 15.0552 37.8946 15.2912C38.4741 15.6412 39.2286 15.4549 39.5785 14.8754C39.5834 14.869 39.585 14.861 39.5898 14.8545C39.5866 15.0632 39.5304 15.2719 39.4148 15.4646V15.463ZM39.2478 13.8785C39.2559 13.962 39.1868 14.0342 39.0953 14.0407C39.0038 14.0471 38.938 13.9572 38.9444 13.8785C38.9525 13.7918 39.0199 13.7453 39.0969 13.7389C39.174 13.7324 39.2414 13.7967 39.2478 13.8785ZM39.7391 13.9411C39.6508 13.9652 39.5657 13.9187 39.548 13.8368C39.5304 13.7549 39.5769 13.6714 39.6508 13.6522C39.7246 13.6313 39.8113 13.6811 39.8402 13.7549C39.8739 13.8368 39.8258 13.917 39.7391 13.9411ZM39.5416 13.0052C39.1676 12.5734 38.5576 12.4691 38.0695 12.7147C38.1033 12.6745 38.1337 12.6312 38.161 12.5846C38.4564 12.095 38.3665 11.4834 37.9829 11.0949C38.0326 11.1142 38.0824 11.1302 38.1354 11.1415C38.6924 11.2699 39.2462 10.997 39.4967 10.5106C39.4951 10.5636 39.4951 10.6165 39.4983 10.6695C39.5464 11.2394 39.9799 11.6825 40.5192 11.7691C40.4679 11.7836 40.4181 11.7996 40.3683 11.8205C39.8418 12.0437 39.5545 12.5911 39.6379 13.1304C39.609 13.0871 39.5785 13.0438 39.5432 13.002L39.5416 13.0052ZM40.8034 13.2236C40.7424 13.2926 40.6444 13.3006 40.5851 13.2428C40.5257 13.185 40.5176 13.0919 40.569 13.0341C40.6236 12.9796 40.7119 12.9635 40.7793 13.0084C40.8499 13.055 40.8692 13.1577 40.8034 13.2236ZM40.325 13.665C40.256 13.7244 40.1516 13.6907 40.1115 13.6201C40.0698 13.5446 40.0987 13.466 40.1548 13.4146C40.2158 13.368 40.3073 13.3825 40.3603 13.4483C40.4133 13.5125 40.3972 13.6104 40.3234 13.665H40.325ZM42.6688 12.697C43.1118 13.2091 43.0556 13.9845 42.5435 14.4275C42.0379 14.8658 41.2753 14.816 40.8291 14.32C41.2304 14.4596 41.6911 14.3874 42.0346 14.0888C42.5467 13.6458 42.6029 12.8704 42.1599 12.3599C42.1551 12.3535 42.1486 12.3487 42.1438 12.3422C42.3413 12.4097 42.5227 12.5285 42.6688 12.697ZM42.6495 9.39971C42.9096 10.0178 42.627 10.7257 42.017 10.997C42.2722 10.6583 42.3477 10.1975 42.1711 9.78017C41.9078 9.1557 41.1887 8.86354 40.5642 9.12681C40.5562 9.13002 40.5498 9.13323 40.5433 9.13644C40.6685 8.97109 40.8371 8.83304 41.0426 8.74635C41.667 8.48308 42.3862 8.77525 42.6495 9.39971Z" fill="#E2BE74"/>
</g>
<path d="M42.5309 4.88073C42.0397 4.88073 41.6416 4.48262 41.6416 3.99139C41.6416 3.50017 42.0397 3.10205 42.5309 3.10205C43.0222 3.10205 43.4203 3.50017 43.4203 3.99139C43.4203 4.48262 43.0222 4.88073 42.5309 4.88073Z" fill="#E2BE74"/>
<path d="M45.3499 3.8694C44.9196 3.8694 44.5713 3.52105 44.5713 3.09083C44.5713 2.66061 44.9196 2.31226 45.3499 2.31226C45.7801 2.31226 46.1284 2.66061 46.1284 3.09083C46.1284 3.52105 45.7801 3.8694 45.3499 3.8694Z" fill="#E2BE74"/>
<path d="M48.2844 3.37013C47.9168 3.37013 47.6182 3.07154 47.6182 2.70393C47.6182 2.33631 47.9168 2.03772 48.2844 2.03772C48.652 2.03772 48.9506 2.33631 48.9506 2.70393C48.9506 3.07154 48.652 3.37013 48.2844 3.37013Z" fill="#E2BE74"/>
<path d="M51.2459 3.37174C51.5526 3.37174 51.8013 3.12306 51.8013 2.8163C51.8013 2.50954 51.5526 2.26086 51.2459 2.26086C50.9391 2.26086 50.6904 2.50954 50.6904 2.8163C50.6904 3.12306 50.9391 3.37174 51.2459 3.37174Z" fill="#E2BE74"/>
<path d="M54.1468 3.86139C53.9012 3.86139 53.7021 3.66233 53.7021 3.41672C53.7021 3.17111 53.9012 2.97205 54.1468 2.97205C54.3924 2.97205 54.5915 3.17111 54.5915 3.41672C54.5915 3.66233 54.3924 3.86139 54.1468 3.86139Z" fill="#E2BE74"/>
<path d="M56.9046 4.83098C56.7199 4.83098 56.5723 4.68169 56.5723 4.49868C56.5723 4.31568 56.7216 4.16638 56.9046 4.16638C57.0876 4.16638 57.2369 4.31568 57.2369 4.49868C57.2369 4.68169 57.0876 4.83098 56.9046 4.83098Z" fill="#E2BE74"/>
<path d="M59.2801 6.15535C59.4025 6.15535 59.5017 6.05616 59.5017 5.93381C59.5017 5.81146 59.4025 5.71228 59.2801 5.71228C59.1578 5.71228 59.0586 5.81146 59.0586 5.93381C59.0586 6.05616 59.1578 6.15535 59.2801 6.15535Z" fill="#E2BE74"/>
<path d="M19.9103 34.8647C19.8541 34.8358 19.5796 34.6175 19.2842 34.4538C18.9936 34.2852 18.6982 34.1744 18.6982 34.1744C18.6982 34.1744 19.0049 34.2451 19.342 34.2643C19.6759 34.29 20.029 34.2595 20.0901 34.2675C20.2121 34.2804 20.2939 34.4489 20.2393 34.6384C20.2104 34.7299 20.1543 34.8037 20.0949 34.8438C20.0323 34.884 19.9648 34.892 19.9103 34.8647Z" fill="#E2BE74"/>
<path d="M19.3532 35.563C19.3163 35.5148 19.159 35.1937 18.9663 34.9208C18.7801 34.6447 18.5586 34.4136 18.5586 34.4136C18.5586 34.4136 18.6196 34.4633 18.7191 34.534C18.8187 34.6046 18.9551 34.6945 19.0996 34.7764C19.3885 34.9433 19.724 35.0734 19.7738 35.1055C19.8782 35.1697 19.8782 35.3591 19.7449 35.502C19.6133 35.6464 19.4271 35.6641 19.3516 35.5646L19.3532 35.563Z" fill="#E2BE74"/>
<path d="M18.5471 35.9515C18.5343 35.8905 18.5327 35.5341 18.4797 35.2066C18.43 34.8727 18.332 34.5725 18.332 34.5725C18.332 34.5725 18.3657 34.6447 18.4251 34.7507C18.4829 34.855 18.5664 34.9947 18.6627 35.1328C18.8522 35.4121 19.0946 35.6673 19.1283 35.7203C19.1957 35.8263 19.1138 35.9932 18.9308 36.0671C18.7478 36.1409 18.5712 36.0719 18.5487 35.9515H18.5471Z" fill="#E2BE74"/>
<path d="M17.6533 35.9515C17.6677 35.8937 17.8202 35.571 17.9149 35.2484C18.0144 34.9305 18.0578 34.6143 18.0578 34.6143C18.0578 34.6143 18.0578 34.9321 18.1124 35.2628C18.1621 35.5919 18.2681 35.9322 18.2745 35.9948C18.289 36.1152 18.1429 36.2356 17.947 36.2212C17.7528 36.2083 17.6212 36.0735 17.6533 35.9531V35.9515Z" fill="#E2BE74"/>
<path d="M16.8475 35.5629C16.886 35.5148 17.1653 35.29 17.3884 35.0444C17.6196 34.7972 17.793 34.5339 17.793 34.5339C17.793 34.5339 17.7577 34.6062 17.7111 34.7169C17.6646 34.8277 17.6084 34.9802 17.5602 35.1407C17.4607 35.4634 17.4109 35.8118 17.39 35.8712C17.3499 35.99 17.1669 36.0301 16.9951 35.9322C16.825 35.8358 16.7688 35.6544 16.8475 35.5629Z" fill="#E2BE74"/>
<path d="M16.2907 34.8647C16.3485 34.8374 16.6905 34.7587 17.0035 34.6303C17.3165 34.5083 17.5878 34.3462 17.5878 34.3462C17.5878 34.3462 17.3422 34.542 17.1159 34.7941C16.8895 35.0381 16.6905 35.3335 16.6471 35.3768C16.5604 35.4635 16.3774 35.4233 16.2651 35.2628C16.2105 35.1842 16.188 35.0943 16.1944 35.022C16.2025 34.9482 16.2378 34.8904 16.294 34.8647H16.2907Z" fill="#E2BE74"/>
<path d="M16.09 33.993C16.151 33.993 16.5025 34.0717 16.8348 34.0926C17.0002 34.1054 17.1639 34.1054 17.2859 34.1022C17.4079 34.099 17.4866 34.091 17.4866 34.091C17.4866 34.091 17.4095 34.1086 17.2924 34.1407C17.1752 34.1744 17.0211 34.2242 16.8669 34.2868C16.5555 34.4088 16.2457 34.5902 16.1895 34.6095C16.0739 34.6512 15.9262 34.5324 15.8973 34.3382C15.8652 34.1439 15.9728 33.9882 16.0932 33.993H16.09Z" fill="#E2BE74"/>
<path d="M16.2907 33.1214C16.3468 33.1503 16.6214 33.3686 16.9167 33.5323C17.2073 33.7009 17.5027 33.8117 17.5027 33.8117C17.5027 33.8117 17.1961 33.741 16.8589 33.7201C16.525 33.6945 16.1719 33.725 16.1109 33.7169C15.9889 33.7041 15.907 33.5355 15.9616 33.3461C15.9905 33.2546 16.0467 33.1808 16.1061 33.1406C16.1687 33.1005 16.2361 33.0925 16.2907 33.1198V33.1214Z" fill="#E2BE74"/>
<path d="M16.8478 32.4231C16.8847 32.4712 17.042 32.7923 17.2346 33.0652C17.4209 33.3413 17.6408 33.5725 17.6408 33.5725C17.6408 33.5725 17.5798 33.5227 17.4803 33.4521C17.3807 33.3814 17.2443 33.2915 17.0998 33.2097C16.8108 33.0427 16.4753 32.9127 16.4256 32.8806C16.3212 32.8164 16.3212 32.6269 16.4545 32.4841C16.5861 32.3396 16.7723 32.3219 16.8478 32.4214V32.4231Z" fill="#E2BE74"/>
<path d="M17.6534 32.0346C17.6662 32.0956 17.6678 32.452 17.7208 32.7794C17.7706 33.1133 17.8685 33.4135 17.8685 33.4135C17.8685 33.4135 17.8348 33.3413 17.7754 33.2353C17.7176 33.131 17.6341 32.9913 17.5378 32.8533C17.3484 32.574 17.106 32.3187 17.0723 32.2657C17.0048 32.1598 17.0867 31.9928 17.2697 31.919C17.4527 31.8451 17.6293 31.9142 17.6518 32.0346H17.6534Z" fill="#E2BE74"/>
<path d="M18.548 32.0345C18.5336 32.0923 18.3811 32.415 18.2864 32.7377C18.1868 33.0555 18.1435 33.3718 18.1435 33.3718C18.1435 33.3718 18.1435 33.0539 18.0889 32.7232C18.0391 32.3941 17.9332 32.0538 17.9268 31.9912C17.9123 31.8708 18.0584 31.7504 18.2543 31.7649C18.4485 31.7777 18.5801 31.9125 18.548 32.0329V32.0345Z" fill="#E2BE74"/>
<path d="M19.3537 32.423C19.3152 32.4711 19.0359 32.6959 18.8127 32.9415C18.5816 33.1887 18.4082 33.452 18.4082 33.452C18.4082 33.452 18.4435 33.3797 18.4901 33.269C18.5366 33.1582 18.5928 33.0057 18.641 32.8452C18.7421 32.5225 18.7903 32.1742 18.8111 32.1148C18.8513 31.996 19.0343 31.9558 19.206 32.0538C19.3762 32.1501 19.4324 32.3315 19.3537 32.423Z" fill="#E2BE74"/>
<path d="M19.9107 33.1214C19.8529 33.1487 19.511 33.2273 19.1996 33.3557C18.8865 33.4777 18.6152 33.6399 18.6152 33.6399C18.6152 33.6399 18.8608 33.444 19.0872 33.192C19.3135 32.948 19.5126 32.6526 19.5559 32.6093C19.6426 32.5226 19.8256 32.5627 19.938 32.7232C19.9926 32.8019 20.0151 32.8918 20.0086 32.964C20.0006 33.0379 19.9653 33.0957 19.9091 33.1214H19.9107Z" fill="#E2BE74"/>
<path d="M20.1115 33.9929C20.0505 33.9929 19.6989 33.9143 19.3666 33.8934C19.2013 33.8806 19.0375 33.8806 18.9155 33.8838C18.7935 33.887 18.7148 33.895 18.7148 33.895C18.7148 33.895 18.7919 33.8774 18.9091 33.8452C19.0263 33.8115 19.1804 33.7618 19.3345 33.6992C19.6459 33.5772 19.9557 33.3958 20.0119 33.3765C20.1275 33.3348 20.2752 33.4536 20.3041 33.6478C20.3362 33.842 20.2286 33.9978 20.1083 33.9929H20.1115Z" fill="#E2BE74"/>
</svg>
