<svg width="53" height="53" viewBox="0 0 53 53" fill="none" xmlns="http://www.w3.org/2000/svg">
<path d="M26.28 52.8101C40.6394 52.8101 52.28 41.1695 52.28 26.8101C52.28 12.4507 40.6394 0.810059 26.28 0.810059C11.9206 0.810059 0.280029 12.4507 0.280029 26.8101C0.280029 41.1695 11.9206 52.8101 26.28 52.8101Z" fill="white"/>
<path d="M26.28 51.0656C39.676 51.0656 50.5356 40.206 50.5356 26.81C50.5356 13.414 39.676 2.55444 26.28 2.55444C12.884 2.55444 2.02441 13.414 2.02441 26.81C2.02441 40.206 12.884 51.0656 26.28 51.0656Z" fill="#1F1F7A"/>
<path d="M26.2485 7.4305C26.2028 7.4305 26.1654 7.39312 26.1654 7.34743V4.39606C26.1654 4.35037 26.2028 4.31299 26.2485 4.31299C26.2942 4.31299 26.3315 4.35037 26.3315 4.39606V7.34743C26.3315 7.39312 26.2942 7.4305 26.2485 7.4305Z" fill="#FFE2C2"/>
<path d="M18.8031 8.92399C18.7707 8.92399 18.74 8.90489 18.7267 8.87249L17.597 6.1454C17.5796 6.10304 17.5995 6.05403 17.6419 6.03658C17.6842 6.01914 17.7332 6.03907 17.7507 6.08144L18.8804 8.80853C18.8978 8.8509 18.8779 8.89991 18.8355 8.91735C18.8247 8.9215 18.8148 8.92399 18.804 8.92399H18.8031Z" fill="#FFE2C2"/>
<path d="M12.4958 13.153C12.4742 13.153 12.4535 13.1447 12.4369 13.1289L10.3502 11.0423C10.3178 11.0099 10.3178 10.9576 10.3502 10.9252C10.3826 10.8928 10.435 10.8928 10.4674 10.9252L12.554 13.0118C12.5864 13.0442 12.5864 13.0965 12.554 13.1289C12.5374 13.1456 12.5166 13.153 12.495 13.153H12.4958Z" fill="#FFE2C2"/>
<path d="M8.28688 19.4736C8.27608 19.4736 8.26528 19.4719 8.25531 19.4669L5.52821 18.3372C5.48585 18.3198 5.46592 18.2708 5.48336 18.2284C5.50081 18.186 5.54898 18.1661 5.59217 18.1836L8.31927 19.3133C8.36164 19.3307 8.38157 19.3797 8.36412 19.4221C8.35083 19.4537 8.3201 19.4736 8.28771 19.4736H8.28688Z" fill="#FFE2C2"/>
<path d="M3.86517 26.9247C3.81948 26.9247 3.7821 26.8873 3.7821 26.8416C3.7821 26.7959 3.81948 26.7585 3.86517 26.7585H6.81655C6.86223 26.7585 6.89961 26.7959 6.89961 26.8416C6.89961 26.8873 6.86223 26.9247 6.81655 26.9247H3.86517Z" fill="#FFE2C2"/>
<path d="M5.58383 35.4997C5.55144 35.4997 5.5207 35.4806 5.50741 35.4482C5.48996 35.4058 5.5099 35.3568 5.55227 35.3394L8.27936 34.2097C8.32172 34.1922 8.37074 34.2122 8.38818 34.2545C8.40562 34.2969 8.38568 34.3459 8.34332 34.3634L5.61623 35.4931C5.60543 35.4972 5.59546 35.4997 5.58467 35.4997H5.58383Z" fill="#FFE2C2"/>
<path d="M17.7308 47.6134C17.72 47.6134 17.7092 47.6118 17.6992 47.6068C17.6569 47.5894 17.6369 47.5403 17.6544 47.498L18.7841 44.7709C18.8015 44.7285 18.8497 44.7086 18.8929 44.726C18.9353 44.7435 18.9552 44.7925 18.9378 44.8349L17.8081 47.5619C17.7948 47.5935 17.764 47.6134 17.7316 47.6134H17.7308Z" fill="#FFE2C2"/>
<path d="M10.4524 42.7647C10.4308 42.7647 10.4101 42.7564 10.3934 42.7406C10.361 42.7082 10.361 42.6559 10.3934 42.6235L12.4801 40.536C12.5125 40.5036 12.5648 40.5036 12.5972 40.536C12.6296 40.5684 12.6296 40.6207 12.5972 40.6531L10.5106 42.7406C10.4939 42.7572 10.4732 42.7647 10.4516 42.7647H10.4524Z" fill="#FFE2C2"/>
<path d="M26.3107 49.3079C26.265 49.3079 26.2277 49.2706 26.2277 49.2249V46.2735C26.2277 46.2278 26.265 46.1904 26.3107 46.1904C26.3564 46.1904 26.3938 46.2278 26.3938 46.2735V49.2249C26.3938 49.2706 26.3564 49.3079 26.3107 49.3079Z" fill="#FFE2C2"/>
<path d="M34.8866 47.59C34.8542 47.59 34.8235 47.5709 34.8102 47.5385L33.6805 44.8114C33.6631 44.7691 33.683 44.72 33.7254 44.7026C33.7677 44.6852 33.8159 44.7051 33.8342 44.7475L34.9639 47.4745C34.9813 47.5169 34.9614 47.5659 34.919 47.5834C34.9082 47.5875 34.8983 47.59 34.8875 47.59H34.8866Z" fill="#FFE2C2"/>
<path d="M42.1516 42.7207C42.13 42.7207 42.1092 42.7124 42.0926 42.6966L40.006 40.6099C39.9736 40.5775 39.9736 40.5252 40.006 40.4928C40.0384 40.4604 40.0907 40.4604 40.1231 40.4928L42.2098 42.5794C42.2422 42.6118 42.2422 42.6642 42.2098 42.6966C42.1931 42.7132 42.1724 42.7207 42.1508 42.7207H42.1516Z" fill="#FFE2C2"/>
<path d="M47.0003 35.4423C46.9895 35.4423 46.9787 35.4407 46.9687 35.4357L44.2416 34.306C44.1992 34.2885 44.1793 34.2395 44.1967 34.1972C44.2142 34.1548 44.2624 34.1349 44.3056 34.1523L47.0327 35.282C47.075 35.2995 47.095 35.3485 47.0775 35.3908C47.0642 35.4224 47.0335 35.4423 47.0011 35.4423H47.0003Z" fill="#FFE2C2"/>
<path d="M44.2491 19.4162C44.2167 19.4162 44.186 19.3971 44.1727 19.3647C44.1552 19.3223 44.1752 19.2733 44.2175 19.2559L46.9446 18.1262C46.987 18.1087 47.0352 18.1287 47.0535 18.171C47.0709 18.2134 47.051 18.2624 47.0086 18.2799L44.2815 19.4096C44.2707 19.4137 44.2607 19.4162 44.2499 19.4162H44.2491Z" fill="#FFE2C2"/>
<path d="M45.7426 26.8624C45.6969 26.8624 45.6595 26.825 45.6595 26.7794C45.6595 26.7337 45.6969 26.6963 45.7426 26.6963H48.694C48.7397 26.6963 48.7771 26.7337 48.7771 26.7794C48.7771 26.825 48.7397 26.8624 48.694 26.8624H45.7426Z" fill="#FFE2C2"/>
<path d="M40.0202 13.1088C39.9986 13.1088 39.9778 13.1005 39.9612 13.0848C39.9288 13.0524 39.9288 13 39.9612 12.9676L42.0478 10.881C42.0802 10.8486 42.1326 10.8486 42.165 10.881C42.1974 10.9134 42.1974 10.9657 42.165 10.9981L40.0783 13.0848C40.0617 13.1014 40.0409 13.1088 40.0193 13.1088H40.0202Z" fill="#FFE2C2"/>
<path d="M33.6995 8.90007C33.6887 8.90007 33.6779 8.89841 33.668 8.89342C33.6256 8.87598 33.6057 8.82697 33.6231 8.78461L34.7528 6.05751C34.7703 6.01515 34.8185 5.99521 34.8617 6.01266C34.904 6.0301 34.924 6.07911 34.9065 6.12148L33.7768 8.84857C33.7635 8.88013 33.7328 8.90007 33.7004 8.90007H33.6995Z" fill="#FFE2C2"/>
<path d="M26.28 49.4043C13.8216 49.4043 3.68579 39.2685 3.68579 26.8101C3.68579 14.3517 13.8216 4.21582 26.28 4.21582C38.7384 4.21582 48.8743 14.3517 48.8743 26.8101C48.8743 39.2685 38.7384 49.4043 26.28 49.4043ZM26.28 4.38195C13.913 4.38195 3.85193 14.443 3.85193 26.8101C3.85193 39.1771 13.913 49.2382 26.28 49.2382C38.6471 49.2382 48.7082 39.1771 48.7082 26.8101C48.7082 14.443 38.6471 4.38195 26.28 4.38195Z" fill="#FFE2C2"/>
<path d="M26.28 46.3025C15.532 46.3025 6.78833 37.558 6.78833 26.8108C6.78833 16.0636 15.532 7.31909 26.28 7.31909C37.0281 7.31909 45.7717 16.0627 45.7717 26.8108C45.7717 37.5588 37.0281 46.3025 26.28 46.3025ZM26.28 7.48439C15.6233 7.48439 6.95446 16.1541 6.95446 26.81C6.95446 37.4658 15.6242 46.1355 26.28 46.1355C36.9359 46.1355 45.6056 37.4658 45.6056 26.81C45.6056 16.1541 36.9359 7.48439 26.28 7.48439Z" fill="#FFE2C2"/>
<path d="M18.1038 37.175L18.343 37.725C18.4443 37.9584 18.6312 38.1444 18.8647 38.2466L19.4146 38.4858L18.8647 38.7251C18.6312 38.8264 18.4452 39.0133 18.343 39.2467L18.1038 39.7966L17.8645 39.2467C17.7632 39.0133 17.5763 38.8273 17.3429 38.7251L16.793 38.4858L17.3429 38.2466C17.5763 38.1453 17.7624 37.9584 17.8645 37.725L18.1038 37.175Z" fill="#F7B981"/>
<path d="M36.9068 35.2107L37.1178 35.6958C37.2075 35.9018 37.372 36.0663 37.578 36.156L38.0631 36.367L37.578 36.578C37.372 36.6677 37.2075 36.8322 37.1178 37.0382L36.9068 37.5233L36.6958 37.0382C36.6061 36.8322 36.4416 36.6677 36.2356 36.578L35.7505 36.367L36.2356 36.156C36.4416 36.0663 36.6061 35.9018 36.6958 35.6958L36.9068 35.2107Z" fill="#F7B981"/>
<path d="M41.5337 30.2539L41.6757 30.5795C41.7355 30.7174 41.846 30.8279 41.9839 30.8877L42.3095 31.0298L41.9839 31.1718C41.846 31.2316 41.7355 31.3421 41.6757 31.48L41.5337 31.8056L41.3916 31.48C41.3318 31.3421 41.2213 31.2316 41.0834 31.1718L40.7578 31.0298L41.0834 30.8877C41.2213 30.8279 41.3318 30.7174 41.3916 30.5795L41.5337 30.2539Z" fill="#F7B981"/>
<path d="M39.3274 24.2642L39.4378 24.5183C39.4852 24.6263 39.5707 24.7127 39.6787 24.7592L39.9329 24.8697L39.6787 24.9802C39.5707 25.0276 39.4844 25.1131 39.4378 25.2211L39.3274 25.4753L39.2169 25.2211C39.1695 25.1131 39.084 25.0267 38.976 24.9802L38.7218 24.8697L38.976 24.7592C39.084 24.7119 39.1704 24.6263 39.2169 24.5183L39.3274 24.2642Z" fill="#F7B981"/>
<path d="M13.5592 31.1138L13.6854 31.4037C13.7394 31.5266 13.8374 31.6255 13.9604 31.6786L14.2503 31.8049L13.9604 31.9312C13.8374 31.9851 13.7386 32.0832 13.6854 32.2061L13.5592 32.496L13.4329 32.2061C13.3789 32.0832 13.2809 31.9843 13.158 31.9312L12.868 31.8049L13.158 31.6786C13.2809 31.6246 13.3797 31.5266 13.4329 31.4037L13.5592 31.1138Z" fill="#F7B981"/>
<path d="M22.3459 13.3464L22.5112 13.7252C22.581 13.8864 22.7098 14.0143 22.8701 14.0841L23.2489 14.2494L22.8701 14.4147C22.7089 14.4845 22.581 14.6132 22.5112 14.7735L22.3459 15.1523L22.1806 14.7735C22.1109 14.6124 21.9821 14.4845 21.8218 14.4147L21.443 14.2494L21.8218 14.0841C21.9829 14.0143 22.1109 13.8855 22.1806 13.7252L22.3459 13.3464Z" fill="#F7B981"/>
<path d="M16.793 23.9742C17.1334 23.9742 17.4093 23.6982 17.4093 23.3578C17.4093 23.0174 17.1334 22.7415 16.793 22.7415C16.4526 22.7415 16.1766 23.0174 16.1766 23.3578C16.1766 23.6982 16.4526 23.9742 16.793 23.9742Z" fill="#F7B981"/>
<path d="M30.8038 14.9272C31.1782 14.9272 31.4816 14.6237 31.4816 14.2494C31.4816 13.875 31.1782 13.5715 30.8038 13.5715C30.4295 13.5715 30.126 13.875 30.126 14.2494C30.126 14.6237 30.4295 14.9272 30.8038 14.9272Z" fill="#F7B981"/>
<path d="M14.5418 19.9147C14.7024 19.9147 14.8326 19.7846 14.8326 19.624C14.8326 19.4634 14.7024 19.3333 14.5418 19.3333C14.3813 19.3333 14.2511 19.4634 14.2511 19.624C14.2511 19.7846 14.3813 19.9147 14.5418 19.9147Z" fill="#F7B981"/>
<path d="M35.2786 23.8844C35.2786 24.0763 35.1233 24.2325 34.9306 24.2325C34.7379 24.2325 34.5825 24.0771 34.5825 23.8844C34.5825 23.6917 34.7379 23.5364 34.9306 23.5364C35.1233 23.5364 35.2786 23.6917 35.2786 23.8844Z" fill="#F7B981"/>
<path d="M26.9022 18.2607C27.0981 18.2607 27.2569 18.1019 27.2569 17.906C27.2569 17.7101 27.0981 17.5513 26.9022 17.5513C26.7063 17.5513 26.5475 17.7101 26.5475 17.906C26.5475 18.1019 26.7063 18.2607 26.9022 18.2607Z" fill="#F7B981"/>
<path d="M37.882 15.2007C34.4837 15.2007 32.7285 17.4485 31.3188 19.2552C29.9873 20.9614 28.9182 22.3303 26.7244 22.4915C26.5774 22.4832 26.4295 22.4782 26.2808 22.4782C26.1321 22.4782 25.9876 22.4823 25.843 22.4907C23.8852 22.342 23.0786 21.1799 21.9904 19.6107C20.6281 17.6462 18.9327 15.2007 14.6797 15.2007C13.854 15.2007 13.1844 15.8702 13.1844 16.6959C13.1844 17.5216 13.854 18.1911 14.6797 18.1911C17.3677 18.1911 18.2756 19.5011 19.5333 21.3144C20.138 22.1858 20.8108 23.1577 21.7503 23.9452C19.7451 25.3905 18.4343 27.7671 18.4343 30.4493C18.4343 34.8444 21.9547 38.4196 26.2816 38.4196C30.6086 38.4196 34.129 34.8444 34.129 30.4493C34.129 27.8111 32.8606 25.4686 30.9101 24.0174C32.0623 23.1643 32.9162 22.0703 33.6779 21.096C35.1258 19.2411 36.0345 18.1919 37.8836 18.1919C38.7093 18.1919 39.3788 17.5224 39.3788 16.6967C39.3788 15.871 38.7093 15.2015 37.8836 15.2015L37.882 15.2007ZM31.1369 30.4493C31.1369 33.1955 28.9581 35.4292 26.28 35.4292C23.6019 35.4292 21.423 33.1947 21.423 30.4493C21.423 27.8452 23.3826 25.7029 25.8688 25.4885C26.0034 25.4944 26.1396 25.4985 26.2791 25.4985C26.4187 25.4985 26.5566 25.4944 26.692 25.4885C29.1774 25.7037 31.1361 27.846 31.1361 30.4493H31.1369Z" fill="white"/>
</svg>
