<svg width="91" height="96" viewBox="0 0 91 96" fill="none" xmlns="http://www.w3.org/2000/svg">
<path d="M51.4194 37.1255C43.8559 37.1255 36.936 40.1468 31.5979 45.1519C36.138 46.488 40.8589 48.8149 44.7229 51.9662C34.1928 66.6587 19.7562 60.1876 13.9267 46.0007C12.485 45.9174 1.85348 45.3062 1.75195 45.3002C6.619 55.6231 11.9571 47.8119 14.284 54.4129C16.5683 58.8536 19.4963 63.0993 23.4273 66.2404C26.1928 68.4516 29.4314 70.0252 32.9177 70.6831C35.6893 71.205 38.5381 71.1522 41.3137 70.6872C42.4386 70.5004 43.5513 70.2445 44.6518 69.9481C46.5077 69.4445 48.3087 69.0405 50.2458 68.9288C52.9098 68.7745 55.6631 68.8902 58.1078 70.0577C60.1788 71.0466 61.9251 72.6304 63.2408 74.4984C65.1596 77.2253 66.1952 80.5675 66.1952 83.8975C66.1952 87.7391 64.7758 91.2397 62.4428 93.9179H39.399C38.9726 93.4244 38.5746 92.9087 38.205 92.3625C37.0233 92.8072 35.7766 93.1524 34.471 93.3777C35.1005 94.1311 30.1908 95.1239 30.8791 95.8123H71.9576C78.1425 89.6498 82.0247 80.7401 82.0247 70.8273C82.0247 52.218 68.3251 37.1275 51.4174 37.1275L51.4194 37.1255Z" fill="#231F20"/>
<path d="M54.5566 34.6256C57.5429 34.6256 59.9637 32.2047 59.9637 29.2184C59.9637 26.2321 57.5429 23.8113 54.5566 23.8113C51.5703 23.8113 49.1494 26.2321 49.1494 29.2184C49.1494 32.2047 51.5703 34.6256 54.5566 34.6256Z" fill="#231F20"/>
<path d="M18.7504 33.5542C20.9793 31.3253 20.9793 27.7114 18.7504 25.4824C16.5214 23.2534 12.9075 23.2534 10.6785 25.4824C8.44952 27.7114 8.44952 31.3253 10.6785 33.5542C12.9075 35.7832 16.5214 35.7832 18.7504 33.5542Z" fill="#231F20"/>
<path d="M48.4044 50.442C55.7574 43.089 55.7574 31.1674 48.4044 23.8144C41.0513 16.4613 29.1297 16.4613 21.7767 23.8144C14.4237 31.1674 14.4237 43.089 21.7767 50.442C29.1297 57.795 41.0514 57.795 48.4044 50.442Z" fill="#231F20"/>
<path d="M49.7529 33.4663C49.5701 29.6511 46.3661 26.5546 42.5467 26.4937C40.2807 26.4571 38.2442 27.45 36.8777 29.0378C35.97 30.0896 34.2969 30.0937 33.3812 29.05C31.8604 27.316 29.5415 26.2866 27.038 26.5282C23.4237 26.8754 20.5567 29.9292 20.4268 33.5597C20.2765 37.7303 23.6146 41.1659 27.7568 41.1659H27.836C27.3588 42.3963 27.0948 43.775 27.0948 45.2268C27.0948 50.5568 30.6705 54.8797 35.0908 54.8797C39.5112 54.8797 43.0828 50.5588 43.0828 45.2268C43.0828 43.773 42.8188 42.3963 42.3417 41.1659H42.4208C46.5935 41.1659 49.9499 37.6796 49.7488 33.4684L49.7529 33.4663Z" fill="#E2BE74"/>
<path d="M44.6974 36.1771C44.6974 36.7009 44.271 37.1273 43.7471 37.1273C43.2233 37.1273 42.7969 36.703 42.7969 36.1771C42.7969 35.6512 43.2233 35.2268 43.7471 35.2268C44.271 35.2268 44.6974 35.6532 44.6974 36.1771Z" fill="#231F20"/>
<path d="M27.8702 36.1771C27.8702 36.7009 27.4459 37.1273 26.92 37.1273C26.3941 37.1273 25.9697 36.703 25.9697 36.1771C25.9697 35.6512 26.3961 35.2268 26.92 35.2268C27.4438 35.2268 27.8702 35.6532 27.8702 36.1771Z" fill="#231F20"/>
<path d="M34.9222 40.7355C34.9222 40.9853 34.7192 41.1883 34.4694 41.1883C34.2197 41.1883 34.0166 40.9853 34.0166 40.7355C34.0166 40.4858 34.2197 40.2827 34.4694 40.2827C34.7192 40.2827 34.9222 40.4858 34.9222 40.7355Z" fill="#231F20"/>
<path d="M36.5511 40.7355C36.5511 40.9853 36.348 41.1883 36.0983 41.1883C35.8486 41.1883 35.6455 40.9853 35.6455 40.7355C35.6455 40.4858 35.8486 40.2827 36.0983 40.2827C36.348 40.2827 36.5511 40.4858 36.5511 40.7355Z" fill="#231F20"/>
<path d="M43.7444 47.3406H26.9199V47.8807H43.7444V47.3406Z" fill="#231F20"/>
<path d="M36.0984 90.9351C32.0313 90.9351 28.4171 92.8457 26.082 95.8123H46.1147C43.7797 92.8457 40.1654 90.9351 36.0984 90.9351Z" fill="#231F20"/>
<path d="M75.2378 95.3776C76.7993 94.5919 78.2064 93.6091 79.4693 92.5269C81.9932 90.3482 83.9668 87.7979 85.5993 85.1197C87.2197 82.4232 88.5232 79.6151 89.4897 76.5816C89.7253 75.814 89.9405 75.0343 90.1131 74.1856C90.1557 73.9724 90.1984 73.7612 90.2329 73.5277L90.2857 73.1846L90.3202 72.8922C90.3608 72.5064 90.4136 72.1206 90.444 71.7348C90.5882 70.1896 90.6471 68.6404 90.6248 67.0952C90.5314 60.9104 89.1242 54.7966 86.5902 49.2087C85.3212 46.4148 83.7658 43.7528 81.9465 41.2817C80.1374 38.8005 77.9972 36.5568 75.8003 34.5507C71.4104 30.5101 66.7261 27.1679 62.9961 23.1151C61.1443 21.109 59.4692 18.9079 58.3524 16.5587C57.2397 14.2216 56.7138 11.6612 57.329 9.4114C57.926 7.15149 59.6478 5.09665 61.8164 4.06517C63.9565 2.99917 66.6002 3.11085 68.8398 4.19309C69.9525 4.73117 70.9677 5.49665 71.7373 6.44895C72.1292 6.92002 72.4601 7.43576 72.72 7.99414C72.9942 8.54643 73.1891 9.14136 73.3272 9.75253C73.8815 12.1972 73.3657 14.9526 71.8347 16.9567L71.8287 16.9668C71.451 17.4623 71.5322 18.1709 72.0175 18.5689C72.5129 18.975 73.2459 18.9039 73.652 18.4064C75.7353 15.8643 76.515 12.4389 75.9262 9.22868C75.7779 8.42461 75.5485 7.62867 75.2114 6.86927C74.8886 6.10581 74.4622 5.37685 73.9566 4.71695C72.9576 3.38292 71.6459 2.31085 70.1901 1.53724C68.7301 0.7616 67.1037 0.302716 65.4266 0.195101C64.586 0.152461 63.7393 0.201186 62.8966 0.341289C62.0601 0.505757 61.2397 0.74333 60.4661 1.08445C57.3737 2.44893 54.929 5.12103 53.9097 8.42056C53.3879 10.0855 53.3249 11.8155 53.5219 13.4663C53.7249 15.1191 54.2184 16.6785 54.8437 18.1384C56.1229 21.0623 57.9301 23.5638 59.9118 25.8684C63.8956 30.4654 68.584 34.0309 72.5576 37.964C74.5576 39.9295 76.3668 41.9437 77.9059 44.1792C79.4531 46.4067 80.7627 48.8006 81.8166 51.3001C83.9201 56.2991 85.0024 61.7266 84.9293 67.1053C84.911 68.4495 84.8217 69.7896 84.6613 71.1196C84.6267 71.4526 84.5699 71.7835 84.5272 72.1145L84.4927 72.3602L84.4562 72.5531C84.4359 72.677 84.4034 72.8191 84.3709 72.9592C84.2389 73.5237 84.0562 74.1348 83.8511 74.744C83.0003 77.1988 81.7902 79.6394 80.3688 81.8567C78.9495 84.0781 77.2744 86.1045 75.3779 87.6618C73.4835 89.2212 71.3779 90.2629 69.2297 90.5451C69.2093 90.5472 69.1728 90.5532 69.1505 90.5573C67.3636 90.8375 66.1413 92.5127 66.4215 94.2995C66.5129 94.8782 66.7525 95.398 67.0916 95.8264H74.2652C74.5962 95.6843 74.9251 95.5381 75.2439 95.3776H75.2378Z" fill="#231F20"/>
<path d="M13.911 40.5507C13.7221 37.103 9.21244 33.4603 5.119 32.9771C5.80936 34.4207 4.88752 36.5223 3.00933 38.0004C-6.11156 45.2431 13.9191 50.7011 13.911 40.5507Z" fill="#231F20"/>
<path d="M5.08261 37.0624C4.48565 37.6979 3.72422 38.1548 3.05417 38.7131C2.38411 39.2715 1.77497 39.9924 1.65923 40.8573C1.4907 42.1365 2.4369 43.2919 3.46229 44.0736C2.78208 43.1782 2.79427 41.8238 3.48869 40.9406C3.35265 42.4431 4.2623 43.9842 5.64505 44.5914C5.05012 43.4746 5.12322 42.035 5.82577 40.9832C5.57805 42.4208 6.38821 43.9741 7.70802 44.5954C8.38214 43.6776 8.63798 42.4614 8.39026 41.3487C9.09483 42.1243 9.46235 43.1964 9.38316 44.2421C10.2522 43.7568 10.8654 42.8411 10.9791 41.8522C11.3365 42.4451 11.3913 43.2127 11.1192 43.8503C12.3497 43.2228 12.9751 41.7183 12.8147 40.3457C12.6543 38.9731 11.8258 37.7487 10.7842 36.841C9.74256 35.9334 8.49382 35.3019 7.2532 34.6948C7.38721 35.3507 7.37909 36.037 7.2268 36.6908C7.18822 36.1385 7.00345 35.5984 6.69888 35.1375C6.5466 35.5964 6.39431 36.0553 6.24203 36.5141C6.32527 35.9903 6.27247 35.2573 5.94556 34.8451C6.03084 35.6816 5.64911 36.4654 5.08464 37.0644L5.08261 37.0624Z" fill="#E2BE74"/>
<path d="M66.1939 85.7918C66.1939 77.3572 59.3553 70.5186 50.9207 70.5186C42.4861 70.5186 35.6475 77.3572 35.6475 85.7918C35.6475 89.6273 37.0647 93.1299 39.3998 95.8122H62.4436C64.7787 93.1299 66.196 89.6273 66.196 85.7918H66.1939Z" fill="#231F20"/>
<path d="M55.7953 14.2458C55.6917 14.2458 55.6064 14.1605 55.6064 14.057C55.6064 13.9534 55.6917 13.8682 55.7953 13.8682C55.8988 13.8682 55.9841 13.9534 55.9841 14.057C55.9841 14.1605 55.8988 14.2458 55.7953 14.2458Z" fill="#E2BE74"/>
<path d="M57.3958 17.6693C57.278 17.6693 57.1826 17.5739 57.1826 17.4561C57.1826 17.3384 57.278 17.2429 57.3958 17.2429C57.5136 17.2429 57.609 17.3384 57.609 17.4561C57.609 17.5739 57.5136 17.6693 57.3958 17.6693Z" fill="#E2BE74"/>
<path d="M59.343 20.912C59.213 20.912 59.1074 20.8064 59.1074 20.6765C59.1074 20.5465 59.213 20.4409 59.343 20.4409C59.4729 20.4409 59.5785 20.5465 59.5785 20.6765C59.5785 20.8064 59.4729 20.912 59.343 20.912Z" fill="#E2BE74"/>
<path d="M61.5314 23.9942C61.3872 23.9942 61.2715 23.8784 61.2715 23.7343C61.2715 23.5901 61.3872 23.4744 61.5314 23.4744C61.6755 23.4744 61.7913 23.5901 61.7913 23.7343C61.7913 23.8784 61.6755 23.9942 61.5314 23.9942Z" fill="#E2BE74"/>
<path d="M63.9199 26.9263C63.7636 26.9263 63.6377 26.8004 63.6377 26.6441C63.6377 26.4877 63.7636 26.3618 63.9199 26.3618C64.0763 26.3618 64.2022 26.4877 64.2022 26.6441C64.2022 26.8004 64.0763 26.9263 63.9199 26.9263Z" fill="#E2BE74"/>
<path d="M66.4785 29.706C66.3099 29.706 66.1719 29.5679 66.1719 29.3994C66.1719 29.2308 66.3099 29.0928 66.4785 29.0928C66.647 29.0928 66.7851 29.2308 66.7851 29.3994C66.7851 29.5679 66.647 29.706 66.4785 29.706Z" fill="#E2BE74"/>
<path d="M69.1864 32.3434C69.0036 32.3434 68.8574 32.1952 68.8574 32.0145C68.8574 31.8338 69.0056 31.6855 69.1864 31.6855C69.3671 31.6855 69.5153 31.8338 69.5153 32.0145C69.5153 32.1952 69.3671 32.3434 69.1864 32.3434Z" fill="#E2BE74"/>
<path d="M72.0291 34.8348C71.8342 34.8348 71.6758 34.6764 71.6758 34.4815C71.6758 34.2865 71.8342 34.1282 72.0291 34.1282C72.224 34.1282 72.3824 34.2865 72.3824 34.4815C72.3824 34.6764 72.224 34.8348 72.0291 34.8348Z" fill="#E2BE74"/>
<path d="M74.8434 37.3587C74.6363 37.3587 74.4678 37.1902 74.4678 36.9831C74.4678 36.7759 74.6363 36.6074 74.8434 36.6074C75.0505 36.6074 75.219 36.7759 75.219 36.9831C75.219 37.1902 75.0505 37.3587 74.8434 37.3587Z" fill="#E2BE74"/>
<path d="M77.4713 40.0754C77.25 40.0754 77.0713 39.8967 77.0713 39.6754C77.0713 39.4541 77.25 39.2754 77.4713 39.2754C77.6926 39.2754 77.8713 39.4541 77.8713 39.6754C77.8713 39.8967 77.6926 40.0754 77.4713 40.0754Z" fill="#E2BE74"/>
<path d="M79.8891 42.9873C79.6556 42.9873 79.4668 42.7984 79.4668 42.5649C79.4668 42.3314 79.6556 42.1426 79.8891 42.1426C80.1226 42.1426 80.3115 42.3314 80.3115 42.5649C80.3115 42.7984 80.1226 42.9873 79.8891 42.9873Z" fill="#E2BE74"/>
<path d="M82.0678 46.0838C81.8221 46.0838 81.6211 45.8848 81.6211 45.6371C81.6211 45.3894 81.8201 45.1904 82.0678 45.1904C82.3155 45.1904 82.5145 45.3894 82.5145 45.6371C82.5145 45.8848 82.3155 46.0838 82.0678 46.0838Z" fill="#E2BE74"/>
<path d="M83.9749 49.3548C83.715 49.3548 83.5059 49.1436 83.5059 48.8858C83.5059 48.6279 83.717 48.4167 83.9749 48.4167C84.2328 48.4167 84.4439 48.6279 84.4439 48.8858C84.4439 49.1436 84.2328 49.3548 83.9749 49.3548Z" fill="#E2BE74"/>
<path d="M85.5764 52.7864C85.3043 52.7864 85.083 52.5651 85.083 52.293C85.083 52.0209 85.3043 51.7996 85.5764 51.7996C85.8485 51.7996 86.0698 52.0209 86.0698 52.293C86.0698 52.5651 85.8485 52.7864 85.5764 52.7864Z" fill="#E2BE74"/>
<path d="M86.8399 56.3559C86.5557 56.3559 86.3242 56.1245 86.3242 55.8402C86.3242 55.5559 86.5557 55.3245 86.8399 55.3245C87.1242 55.3245 87.3557 55.5559 87.3557 55.8402C87.3557 56.1245 87.1242 56.3559 86.8399 56.3559Z" fill="#E2BE74"/>
<path d="M87.7266 60.0373C87.4281 60.0373 87.1865 59.7956 87.1865 59.4971C87.1865 59.1987 87.4281 58.957 87.7266 58.957C88.0251 58.957 88.2667 59.1987 88.2667 59.4971C88.2667 59.7956 88.0251 60.0373 87.7266 60.0373Z" fill="#E2BE74"/>
<path d="M88.206 63.7894C87.8953 63.7894 87.6436 63.5377 87.6436 63.227C87.6436 62.9163 87.8953 62.6646 88.206 62.6646C88.5166 62.6646 88.7684 62.9163 88.7684 63.227C88.7684 63.5377 88.5166 63.7894 88.206 63.7894Z" fill="#E2BE74"/>
<path d="M88.2509 67.5743C87.928 67.5743 87.6641 67.3123 87.6641 66.9874C87.6641 66.6626 87.926 66.4006 88.2509 66.4006C88.5757 66.4006 88.8377 66.6626 88.8377 66.9874C88.8377 67.3123 88.5757 67.5743 88.2509 67.5743Z" fill="#E2BE74"/>
<path d="M87.8464 71.3367C87.5094 71.3367 87.2373 71.0646 87.2373 70.7276C87.2373 70.3905 87.5094 70.1184 87.8464 70.1184C88.1835 70.1184 88.4556 70.3905 88.4556 70.7276C88.4556 71.0646 88.1835 71.3367 87.8464 71.3367Z" fill="#E2BE74"/>
<path d="M86.9939 75.026C86.6446 75.026 86.3604 74.7418 86.3604 74.3925C86.3604 74.0433 86.6446 73.759 86.9939 73.759C87.3431 73.759 87.6274 74.0433 87.6274 74.3925C87.6274 74.7418 87.3431 75.026 86.9939 75.026Z" fill="#E2BE74"/>
<path d="M85.8267 78.6281C85.4633 78.6281 85.1709 78.3337 85.1709 77.9722C85.1709 77.6108 85.4653 77.3164 85.8267 77.3164C86.1882 77.3164 86.4826 77.6108 86.4826 77.9722C86.4826 78.3337 86.1882 78.6281 85.8267 78.6281Z" fill="#E2BE74"/>
<path d="M84.3931 82.1348C84.0175 82.1348 83.7129 81.8303 83.7129 81.4546C83.7129 81.079 84.0175 80.7744 84.3931 80.7744C84.7688 80.7744 85.0733 81.079 85.0733 81.4546C85.0733 81.8303 84.7688 82.1348 84.3931 82.1348Z" fill="#E2BE74"/>
<path d="M82.6186 85.4769C82.2308 85.4769 81.916 85.1621 81.916 84.7743C81.916 84.3865 82.2308 84.0718 82.6186 84.0718C83.0064 84.0718 83.3211 84.3865 83.3211 84.7743C83.3211 85.1621 83.0064 85.4769 82.6186 85.4769Z" fill="#E2BE74"/>
<path d="M80.389 88.5329C79.987 88.5329 79.6621 88.2081 79.6621 87.806C79.6621 87.404 79.987 87.0791 80.389 87.0791C80.791 87.0791 81.1159 87.404 81.1159 87.806C81.1159 88.2081 80.791 88.5329 80.389 88.5329Z" fill="#E2BE74"/>
<path d="M77.5012 90.9347C77.915 90.9347 78.2504 90.5993 78.2504 90.1855C78.2504 89.7717 77.915 89.4363 77.5012 89.4363C77.0874 89.4363 76.752 89.7717 76.752 90.1855C76.752 90.5993 77.0874 90.9347 77.5012 90.9347Z" fill="#E2BE74"/>
<path d="M52.3986 88.6404C52.5346 88.283 52.6016 87.881 52.5732 87.5236C52.5387 87.1561 52.4108 86.8312 52.1976 86.5713C51.7935 86.0941 51.2961 85.8911 50.9428 85.7591C51.158 85.9317 51.4321 86.1246 51.7529 86.3195C51.3692 86.2566 50.9712 86.0414 50.6524 85.6799C50.9387 86.0617 51.3021 86.4475 51.6961 86.8982C51.4585 86.7622 51.2473 86.5977 51.0585 86.3946C50.8676 86.1875 50.7032 85.954 50.5631 85.6982C50.825 86.2078 51.0991 86.7581 51.3062 87.3449C50.9407 86.8677 50.6828 86.2911 50.4717 85.7185C50.5631 86.0149 50.6422 86.3134 50.695 86.62L51.8199 90.1937C51.8423 89.9724 51.9621 89.7064 52.0798 89.4302C52.1956 89.1459 52.3235 88.8779 52.3986 88.6404Z" fill="#E2BE74"/>
<path d="M54.6854 86.1674C54.9027 86.0618 55.1931 85.9176 55.459 85.7735C55.725 85.6293 55.9931 85.4912 56.2123 85.4567L56.1941 85.4405L52.5372 84.6242C52.8174 84.7278 53.0874 84.8537 53.3453 85.01C52.7402 84.8597 52.1656 84.6486 51.6194 84.4658C51.8854 84.5734 52.1412 84.7075 52.3768 84.8658C52.6022 85.0202 52.8072 85.2029 52.9859 85.412C52.4824 85.0932 52.0174 84.8029 51.5869 84.5856C51.794 84.7176 51.9707 84.8658 52.1311 85.0384C52.2753 85.2009 52.4011 85.3856 52.4885 85.5704C52.1798 85.2537 51.8915 84.9998 51.6336 84.8029C51.6661 84.8943 51.7067 84.9917 51.7717 85.1034C51.8265 85.211 51.8915 85.3247 51.9727 85.4466C52.1351 85.6882 52.324 85.9379 52.6062 86.1349C52.8824 86.3258 53.2235 86.4354 53.5829 86.4313C53.9524 86.4374 54.3321 86.3278 54.6895 86.1694L54.6854 86.1674Z" fill="#E2BE74"/>
<path d="M52.7334 86.6546C52.91 86.9287 53.0278 87.2698 53.0461 87.613C53.0563 87.7855 53.0542 87.9703 53.0298 88.147C53.0034 88.3216 52.9628 88.4962 52.9141 88.6648C52.8796 88.7947 52.8106 88.9815 52.7375 89.1967C53.3852 89.1967 54.1446 88.8536 54.6542 88.2546C55.1172 87.7185 55.3466 87.018 55.3182 86.4292C55.0928 86.5307 54.8776 86.6201 54.7456 86.6728C54.0979 86.9409 53.3161 86.9896 52.7334 86.6586V86.6546Z" fill="#E2BE74"/>
<path d="M47.1503 88.5147C47.3371 88.4883 47.532 88.4294 47.7107 88.3624C47.8894 88.2975 48.0559 88.2122 48.2082 88.1025C48.5087 87.8914 48.7219 87.6254 48.8417 87.3046C48.9513 87.0122 48.9757 86.734 48.9798 86.4761C48.9798 86.3482 48.9737 86.2284 48.9595 86.1208C48.9493 86.0091 48.9371 85.8995 48.9168 85.8101C48.8965 85.9462 48.8762 86.0984 48.862 86.2649C48.8478 86.4294 48.8417 86.6 48.8356 86.7908C48.6935 86.4375 48.6914 85.9685 48.8417 85.5259C48.663 85.9502 48.4924 86.4802 48.3097 87.0325C48.3016 86.7726 48.3483 86.4924 48.4275 86.2304C48.5067 85.9705 48.6305 85.7066 48.7828 85.4548C48.4681 85.938 48.127 86.4518 47.7249 86.9228C47.9645 86.3604 48.3239 85.8609 48.7158 85.3918C48.5046 85.6213 48.2853 85.8345 48.0498 86.0335L45.5117 88.7909C45.7087 88.7076 46.0051 88.669 46.3036 88.6325C46.598 88.604 46.9087 88.5594 47.1483 88.5167L47.1503 88.5147Z" fill="#E2BE74"/>
<path d="M50.4357 89.2538C50.6367 89.3959 50.9048 89.5746 51.1647 89.7269C51.4246 89.8913 51.6784 90.0538 51.8164 90.2183L51.8205 90.1939L50.6956 86.6202C50.7484 86.9187 50.7768 87.2213 50.7687 87.5157C50.5961 86.9167 50.4926 86.3137 50.3768 85.7512C50.4581 86.3177 50.4256 86.8964 50.2428 87.402C50.2672 86.805 50.2875 86.2731 50.2591 85.7776C50.2428 86.2751 50.0926 86.7116 49.8591 87.0548C49.9789 86.6182 50.056 86.2649 50.0966 85.9279C49.9728 86.0761 49.8388 86.2913 49.7088 86.5411C49.5809 86.801 49.457 87.0974 49.4286 87.4365C49.4002 87.7776 49.4773 88.1106 49.658 88.4294C49.7474 88.5918 49.8631 88.7421 49.9951 88.8761C50.1271 89.0101 50.2794 89.1502 50.4357 89.2538Z" fill="#E2BE74"/>
<path d="M49.036 87.8142C48.8878 88.1066 48.6563 88.3604 48.3619 88.5655C48.0776 88.7523 47.7243 88.9026 47.3873 88.9716C47.2614 88.998 47.0522 89.0548 46.835 89.0873C47.1639 89.6437 47.8461 90.129 48.6116 90.2711C49.3 90.4153 50.0269 90.2528 50.5203 89.934C50.3213 89.8 50.1365 89.6477 50.0249 89.5604C49.7528 89.3574 49.499 89.069 49.3203 88.7807C49.1436 88.4701 49.0421 88.1431 49.0319 87.8142H49.036Z" fill="#E2BE74"/>
<path d="M44.6319 83.9035C44.8857 84.1999 45.1801 84.4619 45.5192 84.6141C45.844 84.7705 46.1953 84.8192 46.5283 84.7644C46.839 84.7136 47.0908 84.5959 47.3121 84.472C47.5395 84.3441 47.708 84.2121 47.8623 84.0862C47.5943 84.1857 47.304 84.3238 46.9689 84.5045C47.0968 84.3542 47.2451 84.2222 47.438 84.1126C47.6187 84.005 47.842 83.9238 48.0735 83.8771C47.8441 83.9055 47.5903 83.9481 47.3243 83.9989C47.0562 84.0537 46.7821 84.1106 46.4999 84.1674C46.7253 84.0294 46.9791 83.9299 47.2552 83.8689C47.5273 83.808 47.8034 83.7816 48.104 83.7877C47.5232 83.7573 46.9161 83.7187 46.3029 83.605C46.9141 83.5299 47.5293 83.5928 48.1324 83.6984C47.8298 83.6294 47.5294 83.5461 47.237 83.4405L43.5801 82.6243C43.7588 82.7542 43.9415 82.9918 44.1161 83.2293C44.2887 83.4689 44.4877 83.7167 44.6359 83.9035H44.6319Z" fill="#E2BE74"/>
<path d="M45.6395 87.1196C45.605 87.3734 45.607 87.6759 45.5888 87.9886C45.5766 88.2952 45.5684 88.5897 45.4893 88.7968L45.5136 88.7886L48.0517 86.0313C47.8223 86.2242 47.5746 86.3967 47.3106 86.5429C47.7431 86.0962 48.2162 85.7023 48.6487 85.3186C48.4192 85.4972 48.1735 85.6556 47.9258 85.7714C47.6761 85.8891 47.406 85.9825 47.1482 86.0252C47.6639 85.7571 48.1593 85.4932 48.5634 85.2312C48.1309 85.4607 47.6599 85.5561 47.2599 85.5175C47.6822 85.414 48.0497 85.2901 48.3522 85.1622C48.1594 85.1297 47.9096 85.1155 47.6233 85.1317C47.3431 85.146 47.0162 85.1927 46.7096 85.3368C46.407 85.481 46.1532 85.7165 45.9624 86.0353C45.7857 86.346 45.672 86.7379 45.6415 87.1196H45.6395Z" fill="#E2BE74"/>
<path d="M46.1873 85.1887C45.8482 85.209 45.5213 85.1339 45.2005 84.9816C45.036 84.9065 44.8959 84.809 44.7517 84.6994C44.6096 84.5897 44.4715 84.4679 44.3598 84.34C44.2705 84.2405 44.1324 84.0841 43.9822 83.9197C43.6654 84.4821 43.5842 85.3166 43.8502 86.0557C44.0817 86.7217 44.5609 87.276 45.0949 87.538C45.1233 87.2903 45.1395 87.071 45.168 86.9248C45.1964 86.7522 45.233 86.5776 45.2837 86.4111C45.3385 86.2425 45.4137 86.074 45.4969 85.9238C45.6593 85.6212 45.9111 85.3613 46.1873 85.1908V85.1887Z" fill="#E2BE74"/>
<path d="M47.3715 79.4244C47.2354 79.7818 47.1684 80.1838 47.1969 80.5412C47.2314 80.9087 47.3593 81.2336 47.5725 81.4935C47.9766 81.9706 48.474 82.1737 48.8273 82.3056C48.6121 82.1331 48.338 81.9402 48.0172 81.7453C48.4009 81.8082 48.7989 82.0234 49.1177 82.3848C48.8314 82.0031 48.468 81.6173 48.074 81.1665C48.3116 81.3026 48.5228 81.4671 48.7116 81.6701C48.9025 81.8772 49.0669 82.1107 49.207 82.3666C48.9451 81.8569 48.671 81.3067 48.4639 80.7199C48.8294 81.197 49.0872 81.7737 49.2984 82.3463C49.207 82.0498 49.1279 81.7513 49.0751 81.4447L47.9502 77.8711C47.9279 78.0924 47.8081 78.3584 47.6903 78.6346C47.5745 78.9188 47.4466 79.1868 47.3715 79.4244Z" fill="#E2BE74"/>
<path d="M45.0826 81.8994C44.8653 82.005 44.575 82.1492 44.309 82.2934C44.043 82.4375 43.775 82.5756 43.5557 82.6101L43.5739 82.6264L47.2308 83.4426C46.9506 83.3391 46.6806 83.2132 46.4227 83.0568C47.0278 83.2071 47.6024 83.4182 48.1486 83.601C47.8826 83.4934 47.6268 83.3594 47.3912 83.201C47.1659 83.0467 46.9608 82.8639 46.7821 82.6548C47.2856 82.9736 47.7506 83.2619 48.1811 83.4812C47.9719 83.3492 47.7973 83.201 47.6369 83.0284C47.4927 82.866 47.3669 82.6812 47.2795 82.4964C47.5882 82.8132 47.8765 83.067 48.1344 83.2639C48.1019 83.1726 48.0613 83.0751 47.9963 82.9634C47.9415 82.8558 47.8765 82.7421 47.7953 82.6203C47.6329 82.3786 47.444 82.1289 47.1618 81.9319C46.8856 81.7411 46.5445 81.6314 46.1851 81.6355C45.8156 81.6294 45.4359 81.7391 45.0785 81.8974L45.0826 81.8994Z" fill="#E2BE74"/>
<path d="M47.0344 81.4101C46.8578 81.136 46.74 80.7949 46.7217 80.4517C46.7116 80.2791 46.7136 80.0943 46.738 79.9177C46.7644 79.7431 46.805 79.5684 46.8537 79.3999C46.8882 79.27 46.9573 79.0832 47.0304 78.8679C46.3826 78.8679 45.6232 79.2111 45.1136 79.8101C44.6506 80.3461 44.4212 81.0466 44.4496 81.6355C44.675 81.5339 44.8902 81.4446 45.0222 81.3918C45.6699 81.1238 46.4517 81.075 47.0344 81.406V81.4101Z" fill="#E2BE74"/>
<path d="M52.6205 79.55C52.4337 79.5764 52.2387 79.6353 52.0601 79.7023C51.8814 79.7672 51.7149 79.8525 51.5626 79.9622C51.2621 80.1733 51.0489 80.4393 50.9291 80.7601C50.8194 81.0525 50.7951 81.3307 50.791 81.5886C50.791 81.7165 50.7971 81.8363 50.8113 81.9439C50.8215 82.0556 50.8336 82.1652 50.8539 82.2546C50.8743 82.1185 50.8946 81.9662 50.9088 81.7997C50.923 81.6353 50.9291 81.4647 50.9352 81.2739C51.0773 81.6272 51.0793 82.0962 50.9291 82.5388C51.1078 82.1145 51.2783 81.5845 51.4611 81.0322C51.4692 81.2921 51.4225 81.5723 51.3433 81.8343C51.2641 82.0942 51.1403 82.3581 50.988 82.6099C51.3027 82.1266 51.6438 81.6129 52.0458 81.1419C51.8062 81.7043 51.4468 82.2038 51.055 82.6729C51.2661 82.4434 51.4854 82.2302 51.721 82.0333L54.2591 79.2759C54.0621 79.3591 53.7656 79.3977 53.4672 79.4343C53.1727 79.4627 52.8621 79.5073 52.6225 79.55H52.6205Z" fill="#E2BE74"/>
<path d="M49.333 78.8112C49.132 78.669 48.864 78.4903 48.6041 78.3381C48.3442 78.1736 48.0904 78.0111 47.9523 77.8467L47.9482 77.871L49.0731 81.4447C49.0203 81.1462 48.9919 80.8437 49 80.5493C49.1726 81.1482 49.2762 81.7513 49.3919 82.3137C49.3107 81.7472 49.3432 81.1685 49.5259 80.6629C49.5015 81.2599 49.4812 81.7919 49.5097 82.2873C49.5259 81.7899 49.6762 81.3533 49.9097 81.0102C49.7899 81.4467 49.7127 81.8 49.6721 82.1371C49.796 81.9888 49.93 81.7736 50.0599 81.5239C50.1878 81.264 50.3117 80.9675 50.3401 80.6284C50.3685 80.2873 50.2914 79.9543 50.1107 79.6355C50.0213 79.4731 49.9056 79.3228 49.7736 79.1888C49.6417 79.0548 49.4894 78.9147 49.333 78.8112Z" fill="#E2BE74"/>
<path d="M50.7314 80.2506C50.8796 79.9582 51.111 79.7044 51.4055 79.4993C51.6897 79.3125 52.043 79.1622 52.3801 79.0932C52.506 79.0668 52.7151 79.01 52.9324 78.9775C52.6034 78.4211 51.9212 77.9358 51.1557 77.7937C50.4674 77.6495 49.7405 77.812 49.2471 78.1308C49.4461 78.2648 49.6308 78.4171 49.7425 78.5044C50.0146 78.7074 50.2684 78.9958 50.4471 79.2841C50.6237 79.5948 50.7253 79.9216 50.7354 80.2506H50.7314Z" fill="#E2BE74"/>
<path d="M55.1363 84.1614C54.8825 83.865 54.5881 83.603 54.249 83.4508C53.9241 83.2944 53.5728 83.2457 53.2398 83.3005C52.9292 83.3513 52.6774 83.469 52.4561 83.5929C52.2286 83.7208 52.0601 83.8548 51.9058 83.9787C52.1738 83.8792 52.4642 83.7411 52.7992 83.5604C52.6713 83.7107 52.5231 83.8427 52.3302 83.9523C52.1495 84.0599 51.9261 84.1411 51.6946 84.1878C51.9241 84.1594 52.1779 84.1168 52.4439 84.066C52.7119 84.0112 52.986 83.9543 53.2683 83.8975C53.0429 84.0355 52.7891 84.135 52.5129 84.1959C52.2408 84.2569 51.9647 84.2833 51.6642 84.2772C52.2449 84.3076 52.852 84.3462 53.4652 84.4599C52.854 84.535 52.2388 84.4721 51.6357 84.3665C51.9383 84.4355 52.2388 84.5188 52.5312 84.6244L56.1881 85.4406C56.0094 85.3107 55.8266 85.0731 55.652 84.8356C55.4794 84.596 55.2805 84.3482 55.1322 84.1614H55.1363Z" fill="#E2BE74"/>
<path d="M54.1302 80.945C54.1648 80.6912 54.1627 80.3886 54.181 80.0759C54.1932 79.7693 54.2013 79.4749 54.2805 79.2678L54.2561 79.276L51.718 82.0333C51.9475 81.8404 52.1952 81.6678 52.4592 81.5216C52.0267 81.9683 51.5536 82.3623 51.1211 82.746C51.3505 82.5673 51.5962 82.409 51.8439 82.2932C52.0937 82.1755 52.3637 82.0821 52.6216 82.0394C52.1059 82.3074 51.6104 82.5714 51.2064 82.8333C51.6388 82.6039 52.1099 82.5085 52.5099 82.547C52.0876 82.6506 51.7201 82.7745 51.4175 82.9024C51.6104 82.9349 51.8602 82.9491 52.1465 82.9328C52.4267 82.9186 52.7536 82.8719 53.0602 82.7278C53.3627 82.5836 53.6165 82.348 53.8074 82.0293C53.9841 81.7186 54.0978 81.3267 54.1282 80.945H54.1302Z" fill="#E2BE74"/>
<path d="M53.5801 82.8761C53.9192 82.8558 54.2461 82.9309 54.5669 83.0832C54.7314 83.1583 54.8714 83.2558 55.0156 83.3655C55.1577 83.4751 55.2958 83.5969 55.4075 83.7249C55.4968 83.8243 55.6349 83.9807 55.7852 84.1452C56.1019 83.5827 56.1831 82.7482 55.9172 82.0091C55.6857 81.3431 55.2065 80.7888 54.6725 80.5269C54.644 80.7746 54.6278 80.9938 54.5994 81.14C54.571 81.3126 54.5344 81.4873 54.4836 81.6538C54.4288 81.8223 54.3537 81.9908 54.2704 82.1411C54.108 82.4436 53.8562 82.7035 53.5801 82.8741V82.8761Z" fill="#E2BE74"/>
<path d="M50.5188 84.1734C50.4416 84.5247 50.0924 84.744 49.7431 84.6668C49.3939 84.5897 49.1726 84.2404 49.2497 83.8912C49.3289 83.5399 49.6761 83.3206 50.0254 83.3978C50.3767 83.477 50.5959 83.8242 50.5188 84.1734Z" fill="#E2BE74"/>
<path d="M49.3206 75.8628C49.4546 75.3105 49.5216 74.9207 49.1784 74.1572C48.9997 74.7095 49.0749 75.3511 49.3206 75.8628Z" fill="#E2BE74"/>
<path d="M48.6181 75.9419C48.7033 75.3774 48.7379 74.9815 48.3297 74.2566C48.1998 74.8251 48.3297 75.4586 48.6181 75.9419Z" fill="#E2BE74"/>
<path d="M47.9252 76.0801C47.9617 75.5075 47.9597 75.1096 47.4927 74.4253C47.4115 75.006 47.5962 75.6253 47.9252 76.0801Z" fill="#E2BE74"/>
<path d="M47.2478 76.2749C47.2336 75.7003 47.1971 75.3024 46.6732 74.6648C46.6448 75.2536 46.8823 75.8546 47.2478 76.2749Z" fill="#E2BE74"/>
<path d="M46.5896 76.5268C46.5571 76.2364 46.5246 76.0029 46.4271 75.7593C46.3297 75.5156 46.1672 75.2618 45.8789 74.9714C45.9012 75.5623 46.1916 76.141 46.5896 76.5268Z" fill="#E2BE74"/>
<path d="M45.952 76.8355C45.8464 76.2852 45.7429 75.8995 45.1094 75.3472C45.1845 75.936 45.5216 76.4863 45.952 76.8355Z" fill="#E2BE74"/>
<path d="M45.3484 77.2029C45.1941 76.6608 45.0581 76.2892 44.3799 75.7917C44.5017 76.3664 44.8834 76.8842 45.3484 77.2029Z" fill="#E2BE74"/>
<path d="M44.7806 77.6212C44.5796 77.0932 44.4131 76.7338 43.6943 76.2993C43.8588 76.8536 44.2852 77.3389 44.7806 77.6212Z" fill="#E2BE74"/>
<path d="M44.2467 78.0862C43.9989 77.5765 43.802 77.2314 43.0527 76.8618C43.2659 77.4019 43.7329 77.8486 44.2467 78.0862Z" fill="#E2BE74"/>
<path d="M43.7554 78.5939C43.465 78.1045 43.2376 77.7776 42.46 77.4751C42.7199 77.9969 43.2234 78.401 43.7554 78.5939Z" fill="#E2BE74"/>
<path d="M43.3106 79.142C42.9776 78.679 42.7238 78.3724 41.9258 78.1389C42.2304 78.6364 42.7664 78.9978 43.3106 79.142Z" fill="#E2BE74"/>
<path d="M42.9103 79.7247C42.5367 79.2902 42.2565 79.0059 41.4443 78.8435C41.7936 79.3146 42.358 79.6293 42.9103 79.7247Z" fill="#E2BE74"/>
<path d="M42.5635 80.3401C42.1513 79.9401 41.8487 79.6802 41.0264 79.5889C41.4162 80.0295 42.0071 80.2934 42.5635 80.3401Z" fill="#E2BE74"/>
<path d="M42.2688 80.9817C41.8241 80.6182 41.4972 80.3847 40.6729 80.3665C41.1013 80.7726 41.7125 80.9837 42.2688 80.9817Z" fill="#E2BE74"/>
<path d="M42.0294 81.6454C41.5664 81.3246 41.2233 81.1216 40.3867 81.1703C40.8517 81.5378 41.4791 81.6962 42.0294 81.6454Z" fill="#E2BE74"/>
<path d="M41.854 82.33C41.3647 82.0518 41.0073 81.8793 40.1748 81.9991C40.6621 82.3239 41.2977 82.4275 41.854 82.33Z" fill="#E2BE74"/>
<path d="M41.7406 83.0284C41.2269 82.7929 40.8553 82.6507 40.0391 82.8436C40.5467 83.1238 41.1903 83.1726 41.7406 83.0284Z" fill="#E2BE74"/>
<path d="M41.6882 83.7329C41.1521 83.54 40.7704 83.4324 39.9785 83.6944C40.5105 83.9319 41.1562 83.9238 41.6882 83.7329Z" fill="#E2BE74"/>
<path d="M41.6901 84.4395C41.1378 84.2933 40.7459 84.2182 39.9824 84.5451C40.5347 84.736 41.1784 84.673 41.6901 84.4395Z" fill="#E2BE74"/>
<path d="M41.751 85.1441C41.1845 85.0466 40.7885 85.006 40.0596 85.3959C40.6301 85.538 41.2657 85.4223 41.751 85.1441Z" fill="#E2BE74"/>
<path d="M41.871 85.8405C41.2984 85.7917 40.8984 85.7856 40.208 86.2364C40.7908 86.3278 41.4141 86.1572 41.871 85.8405Z" fill="#E2BE74"/>
<path d="M42.0491 86.5228C41.4867 86.5208 41.0887 86.5472 40.4268 87.0609C41.0176 87.1015 41.6247 86.8761 42.0491 86.5228Z" fill="#E2BE74"/>
<path d="M42.2933 87.1868C41.7329 87.2335 41.341 87.2944 40.7217 87.8649C41.3085 87.8568 41.8892 87.5807 42.2933 87.1868Z" fill="#E2BE74"/>
<path d="M42.5955 87.8242C42.0391 87.9197 41.6533 88.0151 41.0889 88.6344C41.6655 88.5796 42.2239 88.2526 42.5955 87.8242Z" fill="#E2BE74"/>
<path d="M42.9491 88.4355C42.4008 88.5797 42.0232 88.7076 41.5176 89.3736C42.0881 89.268 42.6161 88.8965 42.9491 88.4355Z" fill="#E2BE74"/>
<path d="M43.353 89.0161C42.817 89.209 42.4535 89.3674 42.0068 90.072C42.5693 89.9156 43.0627 89.4994 43.353 89.0161Z" fill="#E2BE74"/>
<path d="M43.8035 89.5583C43.2857 89.7979 42.9345 89.9888 42.5527 90.7259C43.101 90.5208 43.5578 90.0639 43.8035 89.5583Z" fill="#E2BE74"/>
<path d="M44.2995 90.062C43.802 90.3463 43.469 90.5656 43.1543 91.3331C43.6843 91.0813 44.1005 90.5859 44.2995 90.062Z" fill="#E2BE74"/>
<path d="M44.8371 90.5229C44.364 90.8499 44.0514 91.0976 43.8057 91.8854C44.3133 91.5869 44.6849 91.059 44.8371 90.5229Z" fill="#E2BE74"/>
<path d="M45.4097 90.9351C44.9671 91.3005 44.6767 91.5767 44.498 92.3808C44.9793 92.0397 45.3041 91.4813 45.4097 90.9351Z" fill="#E2BE74"/>
<path d="M46.0172 91.2983C45.6131 91.6923 45.3471 91.9907 45.2334 92.8171C45.6842 92.4334 45.9603 91.8486 46.0172 91.2983Z" fill="#E2BE74"/>
<path d="M46.6546 91.603C46.2871 92.0274 46.0475 92.3442 46.0049 93.1868C46.4211 92.7665 46.6445 92.1634 46.6546 91.603Z" fill="#E2BE74"/>
<path d="M47.316 91.8486C46.985 92.3055 46.7759 92.6426 46.8043 93.4811C47.1779 93.0385 47.3485 92.4151 47.316 91.8486Z" fill="#E2BE74"/>
<path d="M47.9966 92.0376C47.7062 92.5249 47.5255 92.8782 47.6291 93.7087C47.9641 93.2335 48.0798 92.598 47.9966 92.0376Z" fill="#E2BE74"/>
<path d="M48.6889 92.1694C48.4412 92.6811 48.293 93.0507 48.4676 93.8649C48.76 93.3593 48.8209 92.7177 48.6889 92.1694Z" fill="#E2BE74"/>
<path d="M49.3911 92.2407C49.1881 92.7747 49.0723 93.1565 49.316 93.9484C49.5637 93.4164 49.5718 92.7707 49.3911 92.2407Z" fill="#E2BE74"/>
<path d="M50.1006 92.2549C49.9422 92.8092 49.861 93.1991 50.1696 93.9625C50.3727 93.4102 50.324 92.7645 50.1006 92.2549Z" fill="#E2BE74"/>
<path d="M50.8044 92.2122C50.6948 92.7705 50.644 93.1665 51.0197 93.9076C51.174 93.335 51.0704 92.6974 50.8044 92.2122Z" fill="#E2BE74"/>
<path d="M51.5037 92.1045C51.4408 92.6629 51.4245 93.0588 51.8631 93.7776C51.9687 93.1969 51.8103 92.5735 51.5037 92.1045Z" fill="#E2BE74"/>
<path d="M52.1895 91.9319C52.1752 92.4964 52.1935 92.8923 52.693 93.5664C52.7499 92.9898 52.5387 92.3806 52.1895 91.9319Z" fill="#E2BE74"/>
<path d="M52.8555 91.7024C52.892 92.2689 52.9448 92.6628 53.4991 93.2882C53.5052 92.7075 53.2413 92.1166 52.8555 91.7024Z" fill="#E2BE74"/>
<path d="M53.5029 91.4182C53.5882 91.9807 53.6755 92.3685 54.2806 92.9411C54.2359 92.3604 53.9232 91.7939 53.5029 91.4182Z" fill="#E2BE74"/>
<path d="M54.123 91.0811C54.2571 91.6354 54.3789 92.0171 55.0287 92.5308C54.9332 91.9542 54.5718 91.4181 54.123 91.0811Z" fill="#E2BE74"/>
<path d="M54.7109 90.6914C54.8937 91.2335 55.046 91.6031 55.7384 92.0579C55.5922 91.4894 55.1861 90.9858 54.7109 90.6914Z" fill="#E2BE74"/>
<path d="M55.2656 90.2527C55.4951 90.7786 55.6798 91.1339 56.4068 91.5278C56.2118 90.9715 55.7631 90.5065 55.2656 90.2527Z" fill="#E2BE74"/>
<path d="M55.7793 89.7676C55.9174 90.0234 56.0392 90.2305 56.2199 90.4173C56.4027 90.6062 56.6463 90.7788 57.024 90.9392C56.7803 90.4011 56.295 89.9747 55.7793 89.7676Z" fill="#E2BE74"/>
<path d="M56.252 89.2417C56.5606 89.7148 56.8022 90.0315 57.5921 90.3036C57.3017 89.7879 56.7819 89.4041 56.252 89.2417Z" fill="#E2BE74"/>
<path d="M56.6748 88.675C57.02 89.1197 57.286 89.4121 58.1022 89.6192C57.7713 89.1319 57.223 88.7948 56.6748 88.675Z" fill="#E2BE74"/>
<path d="M57.0459 88.072C57.4297 88.4862 57.72 88.7563 58.5505 88.8883C58.1891 88.4355 57.6104 88.1471 57.0459 88.072Z" fill="#E2BE74"/>
<path d="M57.3633 87.4426C57.7836 87.8223 58.0963 88.066 58.9308 88.1269C58.5308 87.7066 57.9298 87.469 57.3633 87.4426Z" fill="#E2BE74"/>
<path d="M57.625 86.7867C58.0798 87.1299 58.4128 87.3471 59.2473 87.3329C58.8088 86.9491 58.1915 86.7644 57.625 86.7867Z" fill="#E2BE74"/>
<path d="M57.8301 86.1125C58.3154 86.4151 58.6666 86.6019 59.493 86.5166C59.022 86.1714 58.3885 86.0394 57.8301 86.1125Z" fill="#E2BE74"/>
<path d="M57.9785 85.4223C58.4902 85.6822 58.8577 85.8385 59.6699 85.6802C59.1684 85.3756 58.5247 85.3005 57.9785 85.4223Z" fill="#E2BE74"/>
<path d="M58.0693 84.7217C58.6034 84.9369 58.9831 85.0608 59.7749 84.8334C59.245 84.5735 58.5993 84.5532 58.0693 84.7217Z" fill="#E2BE74"/>
<path d="M58.1025 84.0152C58.6386 84.1838 59.0284 84.2751 59.8122 83.9827C59.2599 83.7695 58.6142 83.8041 58.1025 84.0152Z" fill="#E2BE74"/>
<path d="M58.0635 83.3065C58.6137 83.4304 59.0056 83.4872 59.765 83.1278C59.4909 83.0446 59.1863 83.0243 58.8939 83.0588C58.6015 83.0913 58.3213 83.1786 58.0635 83.3065Z" fill="#E2BE74"/>
<path d="M57.9678 82.608C58.5282 82.6831 58.9262 82.7075 59.647 82.2831C59.0784 82.1633 58.449 82.3075 57.9678 82.608Z" fill="#E2BE74"/>
<path d="M57.8115 81.9197C58.3801 81.9441 58.778 81.9359 59.4562 81.4506C58.8775 81.3816 58.2623 81.5806 57.8115 81.9197Z" fill="#E2BE74"/>
<path d="M57.6006 81.2456C58.1711 81.2212 58.5671 81.1765 59.1986 80.6364C58.6138 80.6182 58.0189 80.8699 57.6006 81.2456Z" fill="#E2BE74"/>
<path d="M57.333 80.5938C57.9015 80.5187 58.2934 80.4395 58.8721 79.8486C58.2853 79.8832 57.7147 80.1837 57.333 80.5938Z" fill="#E2BE74"/>
<path d="M57.0098 79.9665C57.5702 79.8406 57.9539 79.7289 58.4798 79.0913C57.8971 79.1766 57.3529 79.5258 57.0098 79.9665Z" fill="#E2BE74"/>
<path d="M56.6348 79.3676C56.9129 79.2802 57.1363 79.2031 57.3556 79.0609C57.5749 78.9168 57.7942 78.7097 58.0236 78.3706C57.449 78.5066 56.9373 78.9026 56.6348 79.3676Z" fill="#E2BE74"/>
<path d="M56.208 78.8029C56.7298 78.5917 57.0872 78.4171 57.5055 77.6902C56.943 77.877 56.4659 78.3135 56.208 78.8029Z" fill="#E2BE74"/>
<path d="M55.7305 78.2789C56.232 78.0231 56.5731 77.82 56.9305 77.0586C56.3883 77.2901 55.9538 77.7632 55.7305 78.2789Z" fill="#E2BE74"/>
<path d="M55.2109 77.8C55.6901 77.5015 56.0109 77.268 56.3013 76.4822C55.7876 76.7502 55.3937 77.2619 55.2109 77.8Z" fill="#E2BE74"/>
<path d="M54.6523 77.3673C55.1051 77.0282 55.4057 76.7683 55.6249 75.9602C55.1356 76.2729 54.7864 76.8171 54.6523 77.3673Z" fill="#E2BE74"/>
<path d="M54.0596 76.9835C54.4839 76.6038 54.7601 76.3196 54.9083 75.4993C54.4474 75.8546 54.1449 76.4252 54.0596 76.9835Z" fill="#E2BE74"/>
<path d="M53.4385 76.6505C53.8283 76.2342 54.0801 75.9256 54.1552 75.0972C53.7248 75.4931 53.475 76.088 53.4385 76.6505Z" fill="#E2BE74"/>
<path d="M52.7886 76.3725C53.1419 75.9218 53.3673 75.5928 53.3693 74.7644C52.9734 75.1969 52.7764 75.8121 52.7886 76.3725Z" fill="#E2BE74"/>
<path d="M52.1208 76.1491C52.4355 75.6679 52.6304 75.3187 52.5594 74.4963C52.202 74.9654 52.0578 75.5948 52.1208 76.1491Z" fill="#E2BE74"/>
<path d="M51.4325 75.9827C51.5705 75.7248 51.6761 75.5136 51.733 75.2578C51.7898 75.0019 51.8 74.6994 51.7269 74.2974C51.4122 74.7969 51.3228 75.4385 51.4325 75.9806V75.9827Z" fill="#E2BE74"/>
<path d="M50.7334 75.877C50.9588 75.3633 51.0908 74.9897 50.8816 74.1714C50.6095 74.7013 50.5771 75.343 50.7334 75.877Z" fill="#E2BE74"/>
<path d="M50.0269 75.8425C50.2076 75.3085 50.3071 74.9248 50.0289 74.1309C49.8036 74.6628 49.8239 75.3085 50.0269 75.8425Z" fill="#E2BE74"/>
<path d="M62.8815 48.9101C62.2216 48.7274 61.5455 48.6076 60.8977 48.6259C60.25 48.6401 59.6388 48.8106 59.1495 49.1294C58.6602 49.4462 58.3353 49.8949 58.2683 50.3497C58.181 50.8188 58.3454 51.2817 58.5871 51.4442C59.0602 51.7629 59.184 52.4046 58.8652 52.8777C58.5464 53.3508 57.9048 53.4746 57.4317 53.1559C57.32 53.0807 57.2287 52.9873 57.1576 52.8838L57.0256 52.6888C56.3921 51.7589 56.4388 50.6746 56.7962 49.8482C57.1637 48.9792 57.919 48.3984 58.6662 48.1264C59.4236 47.8421 60.2297 47.8198 60.9526 47.9578C61.6815 48.0959 62.3434 48.3741 62.9627 48.6969C63.0176 48.7254 63.0399 48.7944 63.0115 48.8513C62.9871 48.9 62.9302 48.9223 62.8795 48.9081L62.8815 48.9101Z" fill="#E2BE74"/>
<path d="M63.842 47.5355C63.1516 47.3325 62.6501 47.0665 62.1872 46.7863C61.7323 46.502 61.3344 46.1934 60.9668 45.8523C60.5993 45.5112 60.2663 45.1335 59.9516 44.699C59.6409 44.2563 59.3424 43.7731 59.0947 43.0949C59.8034 42.9467 60.4288 43.0563 61.0034 43.2573C61.5739 43.4665 62.0856 43.7893 62.5161 44.1954C62.9486 44.6015 63.3039 45.0909 63.5496 45.6452C63.7892 46.2036 63.9374 46.8208 63.8399 47.5355H63.842Z" fill="#E2BE74"/>
<path d="M55.0911 45.0279C56.8089 44.9568 58.4292 45.4381 59.6942 46.2787C58.1916 46.0614 56.7216 46.3457 55.5601 46.9691C55.0586 47.2391 54.4332 47.0503 54.1652 46.5487C53.8951 46.0472 54.084 45.4218 54.5855 45.1538C54.7256 45.0787 54.8759 45.0381 55.0261 45.032H55.0931L55.0911 45.0279Z" fill="#E2BE74"/>
<path d="M73.0422 59.7103C73.3732 60.3092 73.6595 60.9509 73.8117 61.6615C73.964 62.3661 73.96 63.1559 73.698 63.9052C73.4483 64.6443 72.898 65.3976 72.0554 65.7753C71.2554 66.1428 70.1975 66.2139 69.2736 65.6169L69.0868 65.4971C68.6198 65.1946 68.4858 64.5712 68.7863 64.1042C69.0889 63.6372 69.7122 63.5032 70.1792 63.8037C70.2868 63.8727 70.3802 63.9641 70.4513 64.0615C70.6178 64.291 71.0726 64.4412 71.5254 64.3418C71.966 64.2626 72.3945 63.9357 72.6889 63.4504C72.9853 62.9671 73.1336 62.3681 73.1315 61.7367C73.1315 61.1052 72.9975 60.4514 72.8026 59.8118C72.7802 59.7427 72.8188 59.6696 72.8879 59.6493C72.9488 59.6311 73.0117 59.6575 73.0402 59.7103H73.0422Z" fill="#E2BE74"/>
<path d="M74.5918 59.1255C75.2131 59.1316 75.7187 59.3346 76.1654 59.6067C76.606 59.8849 76.9776 60.2483 77.27 60.6666C77.5624 61.0849 77.7735 61.56 77.8812 62.0697C77.9827 62.5814 77.9969 63.1275 77.7837 63.7123C77.2375 63.4179 76.8639 63.1052 76.5248 62.7844C76.1938 62.4636 75.9136 62.1326 75.67 61.7793C75.4243 61.426 75.2131 61.0484 75.0263 60.626C74.8456 60.1976 74.6811 59.7387 74.5938 59.1255H74.5918Z" fill="#E2BE74"/>
<path d="M74.8987 66.9084C75.4795 65.7591 75.7211 64.3155 75.4713 62.8535C76.3221 64.0677 76.8338 65.6373 76.8054 67.3185V67.3795C76.7952 67.9358 76.3363 68.3784 75.782 68.3703C75.2256 68.3602 74.783 67.9033 74.7911 67.347C74.7932 67.1906 74.8338 67.0403 74.8987 66.9104V66.9084Z" fill="#E2BE74"/>
<path d="M68.2624 48.5485C67.7568 48.8551 67.3974 49.3079 67.2004 49.8196C66.5974 49.2267 65.7121 48.9445 64.8268 49.1516C63.4522 49.4745 62.5974 50.8511 62.9222 52.2258C63.0562 52.8004 63.377 53.2816 63.8014 53.6268C63.0501 54.0186 62.51 54.772 62.4329 55.6776C62.3151 57.0867 63.3608 58.3212 64.7679 58.441C65.3568 58.4898 65.9131 58.3354 66.372 58.037C66.5121 58.8715 67.0623 59.6207 67.9009 59.972C69.2025 60.5202 70.701 59.9091 71.2492 58.6075C71.4786 58.0634 71.503 57.4847 71.3609 56.9567C72.1995 57.0806 73.0787 56.7882 73.6736 56.1019C74.5974 55.0319 74.4797 53.4156 73.4096 52.4938C72.9629 52.108 72.4208 51.9069 71.8746 51.8765C72.2522 51.1171 72.2462 50.1892 71.7751 49.4135C71.0421 48.2054 69.4705 47.8176 68.2624 48.5485ZM69.9274 51.507C70.104 51.7993 70.1284 52.1628 69.9964 52.4796C69.9883 52.4999 69.9781 52.5202 69.9659 52.5405L69.7203 53.0359L70.2725 53.0663C70.5142 53.0785 70.7355 53.1699 70.9182 53.3263C71.2715 53.6308 71.3873 54.1263 71.2065 54.5567C71.1619 54.6603 71.103 54.7557 71.0299 54.841C70.7903 55.1192 70.4248 55.2552 70.0573 55.2004L69.5111 55.1192L69.6532 55.6552C69.7141 55.8867 69.6999 56.1263 69.6065 56.3476C69.4949 56.6136 69.2877 56.8187 69.0218 56.9263C68.7558 57.0339 68.4634 57.0339 68.1994 56.9222C67.8583 56.7801 67.6187 56.4735 67.5578 56.108L67.4644 55.5618L66.9994 55.8623C66.7964 55.9943 66.5649 56.0532 66.3273 56.0329C65.7364 55.9842 65.2958 55.4623 65.3466 54.8714C65.3568 54.7598 65.3832 54.6501 65.4258 54.5466C65.5212 54.3171 65.6979 54.1263 65.9212 54.0105L66.4126 53.7547L65.9842 53.4054C65.7974 53.2532 65.6674 53.0501 65.6146 52.8186C65.5639 52.5933 65.5801 52.3658 65.6694 52.1567C65.8035 51.8399 66.0816 51.6044 66.4146 51.5273C66.774 51.444 67.1476 51.5476 67.4116 51.8075L67.8075 52.1953L68.0065 51.6775L68.0187 51.645C68.106 51.4338 68.2563 51.2613 68.4512 51.1435C68.6969 50.9953 68.9852 50.9486 69.2654 51.0176C69.5436 51.0866 69.7791 51.2592 69.9274 51.507Z" fill="#E2BE74"/>
<path d="M68.5715 53.0441C68.9715 53.2106 69.1583 53.6735 68.9918 54.0715C68.8233 54.4715 68.3623 54.6583 67.9644 54.4918C67.5664 54.3233 67.3776 53.8624 67.5461 53.4644C67.7146 53.0644 68.1735 52.8776 68.5735 53.0461L68.5715 53.0441Z" fill="#E2BE74"/>
<path d="M30.7094 63.3835C30.3419 63.4627 29.9784 63.5622 29.6576 63.6577C29.3348 63.7571 29.0404 63.8973 28.8109 64.0637C28.3642 64.3907 28.1916 64.8902 28.3094 65.4709C28.3683 65.7612 28.5003 66.0536 28.6891 66.3643C28.8759 66.679 29.1236 66.9917 29.4181 67.2902C28.949 65.7125 29.5967 64.4475 30.7094 63.3856V63.3835Z" fill="#E2BE74"/>
<path d="M35.5535 63.6373C34.8794 64.0474 34.25 64.4617 33.9007 64.9937C33.5637 65.5155 33.5434 66.1226 33.8215 66.7135C34.0977 67.3084 34.6601 67.8586 35.3789 68.35C34.9403 67.5581 34.786 66.7439 34.8408 65.9581C34.8957 65.1662 35.1535 64.4028 35.5515 63.6353L35.5535 63.6373Z" fill="#E2BE74"/>
<path d="M40.38 62.7053C39.8054 63.2942 39.2998 63.8952 39.0967 64.5713C38.9018 65.2312 39.0399 65.9074 39.4581 66.4861C39.8744 67.0648 40.5648 67.5521 41.3749 67.9257C40.1384 66.3663 39.9617 64.5328 40.38 62.7074V62.7053Z" fill="#E2BE74"/>
<path d="M45.0886 60.8575C44.6053 61.5783 44.2053 62.3052 44.1424 63.0788C44.0794 63.826 44.3657 64.5448 44.9018 65.1195C45.4317 65.688 46.2053 66.1266 47.0642 66.4311C45.5596 64.888 44.9891 62.9123 45.0886 60.8555V60.8575Z" fill="#E2BE74"/>
<path d="M49.7249 58.4271C49.2944 59.2332 48.9736 60.0555 49.0142 60.8961C49.0528 61.7144 49.4508 62.4718 50.068 63.0586C50.6853 63.6474 51.5056 64.0677 52.397 64.3703C50.7096 62.7601 49.8366 60.6687 49.7249 58.425V58.4271Z" fill="#E2BE74"/>
<path d="M18.3779 29.4766C18.8977 30.0959 19.3911 30.3984 20.516 30.5751C19.9556 29.97 19.2104 29.5091 18.3779 29.4766Z" fill="#E2BE74"/>
<path d="M19.0459 28.4431C19.4784 29.0847 19.9312 29.3974 20.9952 29.6391C20.514 29.0218 19.852 28.5162 19.0459 28.4431Z" fill="#E2BE74"/>
<path d="M19.8076 27.4563C20.1528 28.1203 20.5569 28.4553 21.5417 28.7598C21.1477 28.1243 20.5731 27.5781 19.8076 27.4563Z" fill="#E2BE74"/>
<path d="M20.6748 26.5466C20.9063 27.2167 21.2575 27.568 22.1672 27.9558C21.8748 27.3121 21.4058 26.7334 20.6748 26.5466Z" fill="#E2BE74"/>
<path d="M21.6572 25.7424C21.7791 26.4105 22.0674 26.782 22.8816 27.2409C22.6928 26.5891 22.3313 25.9861 21.6572 25.7424Z" fill="#E2BE74"/>
<path d="M22.7393 25.0725C22.7494 25.7263 22.9707 26.1141 23.6794 26.6258C23.6002 25.9781 23.3484 25.369 22.7393 25.0725Z" fill="#E2BE74"/>
<path d="M23.9036 24.5628C23.8081 25.1821 23.9564 25.576 24.5594 26.1283C24.5777 25.8258 24.5553 25.5354 24.4538 25.2613C24.3543 24.9953 24.1757 24.7374 23.9036 24.5608V24.5628Z" fill="#E2BE74"/>
<path d="M25.1234 24.24C25.028 24.51 24.9975 24.7578 25.0564 24.9953C25.1153 25.239 25.2615 25.4664 25.5153 25.775C25.6554 25.2288 25.6046 24.6644 25.1234 24.24Z" fill="#E2BE74"/>
<path d="M26.3596 24.104C26.2276 24.3294 26.1627 24.5629 26.185 24.7842C26.2073 25.0177 26.315 25.237 26.5261 25.5598C26.7495 25.0746 26.7677 24.5507 26.3596 24.104Z" fill="#E2BE74"/>
<path d="M27.5882 24.1243C27.4319 24.3253 27.3384 24.5222 27.3324 24.7293C27.3263 24.9446 27.4054 25.1639 27.578 25.4725C27.8623 25.0563 27.9334 24.5832 27.5882 24.1243Z" fill="#E2BE74"/>
<path d="M28.7863 24.2908C28.4351 24.6339 28.3518 24.9405 28.6503 25.5111C28.8147 25.3202 28.9224 25.1436 28.9528 24.9324C28.9812 24.7314 28.9386 24.4958 28.7863 24.2908Z" fill="#E2BE74"/>
<path d="M29.946 24.5771C29.5805 24.8452 29.4667 25.1112 29.7287 25.6675C30.084 25.365 30.2119 24.9995 29.946 24.5771Z" fill="#E2BE74"/>
<path d="M31.0646 24.9487C30.6971 25.1457 30.5651 25.3731 30.8006 25.9071C31.1661 25.6777 31.3021 25.3609 31.0646 24.9487Z" fill="#E2BE74"/>
<path d="M49.6006 30.6054C50.3823 30.4836 50.9468 30.3191 51.7082 29.446C50.8778 29.5374 50.1184 29.974 49.6006 30.6054Z" fill="#E2BE74"/>
<path d="M49.126 29.6674C49.863 29.4989 50.4011 29.3162 51.0387 28.4126C50.2427 28.5446 49.5646 29.0258 49.126 29.6674Z" fill="#E2BE74"/>
<path d="M48.583 28.7862C49.2632 28.575 49.7607 28.3639 50.2744 27.4258C49.5211 27.6085 48.9343 28.1263 48.583 28.7862Z" fill="#E2BE74"/>
<path d="M47.958 27.9782C48.5875 27.7061 49.0463 27.4665 49.4017 26.5203C48.6951 26.7599 48.2037 27.3203 47.958 27.9782Z" fill="#E2BE74"/>
<path d="M47.2471 27.2613C47.8095 26.9426 48.2197 26.6684 48.4187 25.7202C47.775 26.0126 47.3912 26.5974 47.2471 27.2613Z" fill="#E2BE74"/>
<path d="M46.4512 26.6421C46.9385 26.2868 47.2918 25.9802 47.3324 25.0522C46.7598 25.3954 46.4837 25.9883 46.4512 26.6421Z" fill="#E2BE74"/>
<path d="M45.5745 26.1425C45.9888 25.7587 46.2791 25.4318 46.1674 24.5486C45.9157 24.7496 45.7431 25.0054 45.6476 25.2775C45.5502 25.5537 45.536 25.8359 45.5745 26.1445V26.1425Z" fill="#E2BE74"/>
<path d="M44.6223 25.7831C44.8009 25.5699 44.939 25.3952 45.008 25.1557C45.075 24.9242 45.0791 24.6176 44.9451 24.2358C44.5146 24.6846 44.4334 25.245 44.6223 25.7831Z" fill="#E2BE74"/>
<path d="M43.6104 25.5638C43.7607 25.3364 43.8683 25.1679 43.9028 24.9384C43.9353 24.7192 43.8927 24.4288 43.7079 24.106C43.3526 24.5709 43.3404 25.0928 43.6104 25.5659V25.5638Z" fill="#E2BE74"/>
<path d="M42.5587 25.4704C42.6826 25.2572 42.7699 25.0826 42.7739 24.8694C42.778 24.6643 42.6988 24.4105 42.4795 24.1262C42.1871 24.5953 42.2277 25.0684 42.5587 25.4684V25.4704Z" fill="#E2BE74"/>
<path d="M41.4867 25.5091C41.6958 25.1152 41.7669 24.7964 41.2816 24.2949C41.1577 24.5061 41.1192 24.7416 41.1537 24.9427C41.1882 25.1518 41.2999 25.3223 41.4867 25.5091Z" fill="#E2BE74"/>
<path d="M40.4105 25.6613C40.5973 25.2796 40.6358 24.9791 40.1262 24.5852C39.913 25.0055 40.0125 25.3791 40.4105 25.6613Z" fill="#E2BE74"/>
<path d="M39.3367 25.899C39.5052 25.5295 39.5214 25.2554 39.0077 24.9609C38.8229 25.367 38.9285 25.6919 39.3367 25.899Z" fill="#E2BE74"/>
</svg>
