<svg width="80" height="80" viewBox="0 0 80 80" fill="none" xmlns="http://www.w3.org/2000/svg">
<path d="M40 80C62.0914 80 80 62.0914 80 40C80 17.9086 62.0914 0 40 0C17.9086 0 0 17.9086 0 40C0 62.0914 17.9086 80 40 80Z" fill="#F3D351"/>
<path d="M39.9999 77.3162C60.6091 77.3162 77.3162 60.6091 77.3162 39.9999C77.3162 19.3907 60.6091 2.68359 39.9999 2.68359C19.3907 2.68359 2.68359 19.3907 2.68359 39.9999C2.68359 60.6091 19.3907 77.3162 39.9999 77.3162Z" fill="url(#paint0_linear_1709_6911)"/>
<path d="M39.952 10.1858C39.8817 10.1858 39.8242 10.1283 39.8242 10.058V5.51744C39.8242 5.44716 39.8817 5.38965 39.952 5.38965C40.0223 5.38965 40.0798 5.44716 40.0798 5.51744V10.058C40.0798 10.1283 40.0223 10.1858 39.952 10.1858Z" fill="white"/>
<path d="M28.4959 12.4831C28.4461 12.4831 28.3988 12.4537 28.3784 12.4039L26.6403 8.20838C26.6135 8.1432 26.6442 8.06779 26.7093 8.04096C26.7745 8.01412 26.8499 8.0448 26.8768 8.10997L28.6148 12.3055C28.6416 12.3707 28.6109 12.4461 28.5458 12.4729C28.5304 12.4793 28.5138 12.4831 28.4972 12.4831H28.4959Z" fill="white"/>
<path d="M18.7925 18.9893C18.7592 18.9893 18.7273 18.9765 18.7017 18.9522L15.4915 15.742C15.4416 15.6922 15.4416 15.6116 15.4915 15.5618C15.5413 15.512 15.6219 15.512 15.6717 15.5618L18.8819 18.772C18.9317 18.8219 18.9317 18.9024 18.8819 18.9522C18.8563 18.9778 18.8244 18.9893 18.7912 18.9893H18.7925Z" fill="white"/>
<path d="M12.3179 28.7121C12.3013 28.7121 12.2847 28.7096 12.2694 28.7019L8.07381 26.9639C8.00864 26.9371 7.97799 26.8617 8.00483 26.7965C8.03167 26.7313 8.10704 26.7006 8.17222 26.7275L12.3678 28.4655C12.4329 28.4923 12.4636 28.5677 12.4368 28.6329C12.4163 28.6815 12.369 28.7121 12.3192 28.7121H12.3179Z" fill="white"/>
<path d="M10.0563 40.1755H5.51573C5.44545 40.1755 5.38794 40.118 5.38794 40.0477C5.38794 39.9774 5.44545 39.9199 5.51573 39.9199H10.0563C10.1266 39.9199 10.1841 39.9774 10.1841 40.0477C10.1841 40.118 10.1266 40.1755 10.0563 40.1755Z" fill="white"/>
<path d="M8.15928 53.3684C8.10944 53.3684 8.06214 53.339 8.04169 53.2892C8.01485 53.224 8.04553 53.1486 8.1107 53.1217L12.3062 51.3837C12.3714 51.3569 12.4468 51.3876 12.4737 51.4527C12.5005 51.5179 12.4698 51.5933 12.4046 51.6201L8.20911 53.3582C8.19377 53.3646 8.17718 53.3684 8.16056 53.3684H8.15928Z" fill="white"/>
<path d="M26.8482 72.0056C26.8316 72.0056 26.815 72.003 26.7997 71.9954C26.7345 71.9685 26.7038 71.8931 26.7307 71.828L28.4687 67.6324C28.4955 67.5673 28.5709 67.5366 28.6361 67.5634C28.7013 67.5903 28.732 67.6657 28.7051 67.7308L26.9671 71.9264C26.9466 71.9749 26.8994 72.0056 26.8495 72.0056H26.8482Z" fill="white"/>
<path d="M15.6494 64.5459C15.6161 64.5459 15.5842 64.5331 15.5586 64.5088C15.5088 64.459 15.5088 64.3785 15.5586 64.3287L18.7689 61.1184C18.8187 61.0686 18.8992 61.0686 18.949 61.1184C18.9989 61.1683 18.9989 61.2488 18.949 61.2986L15.7388 64.5088C15.7132 64.5344 15.6813 64.5459 15.6481 64.5459H15.6494Z" fill="white"/>
<path d="M40.0482 74.6116C39.9779 74.6116 39.9204 74.5541 39.9204 74.4838V69.9432C39.9204 69.8729 39.9779 69.8154 40.0482 69.8154C40.1185 69.8154 40.176 69.8729 40.176 69.9432V74.4838C40.176 74.5541 40.1185 74.6116 40.0482 74.6116Z" fill="white"/>
<path d="M53.241 71.9685C53.1912 71.9685 53.1439 71.9391 53.1234 71.8892L51.3854 67.6937C51.3586 67.6286 51.3893 67.5531 51.4545 67.5263C51.5196 67.4995 51.595 67.5301 51.6218 67.5953L53.3599 71.7908C53.3867 71.856 53.356 71.9314 53.2909 71.9583C53.2755 71.9647 53.2589 71.9685 53.2423 71.9685H53.241Z" fill="white"/>
<path d="M64.417 64.4775C64.3838 64.4775 64.3518 64.4648 64.3263 64.4405L61.1148 61.2303C61.0649 61.1804 61.0649 61.0999 61.1148 61.0501C61.1646 61.0002 61.2451 61.0002 61.295 61.0501L64.5065 64.2603C64.5563 64.3101 64.5563 64.3907 64.5065 64.4405C64.4809 64.4661 64.449 64.4775 64.4157 64.4775H64.417Z" fill="white"/>
<path d="M71.876 53.2815C71.8594 53.2815 71.8428 53.2789 71.8275 53.2713L67.6319 51.5333C67.5668 51.5064 67.5361 51.431 67.5629 51.3658C67.5898 51.3007 67.6652 51.27 67.7303 51.2968L71.9259 53.0348C71.9911 53.0617 72.0217 53.1371 71.9949 53.2023C71.9745 53.2508 71.9271 53.2815 71.8773 53.2815H71.876Z" fill="white"/>
<path d="M67.6461 28.6252C67.5963 28.6252 67.549 28.5958 67.5285 28.546C67.5017 28.4808 67.5323 28.4054 67.5975 28.3786L71.7931 26.6406C71.8582 26.6137 71.9336 26.6444 71.9605 26.7096C71.9873 26.7748 71.9566 26.8501 71.8915 26.877L67.6959 28.615C67.6806 28.6214 67.664 28.6252 67.6474 28.6252H67.6461Z" fill="white"/>
<path d="M74.4845 40.0808H69.944C69.8737 40.0808 69.8162 40.0233 69.8162 39.953C69.8162 39.8827 69.8737 39.8252 69.944 39.8252H74.4845C74.5548 39.8252 74.6123 39.8827 74.6123 39.953C74.6123 40.0233 74.5548 40.0808 74.4845 40.0808Z" fill="white"/>
<path d="M61.1381 18.9209C61.1049 18.9209 61.0729 18.9081 61.0474 18.8838C60.9975 18.834 60.9975 18.7535 61.0474 18.7037L64.2576 15.4934C64.3075 15.4436 64.388 15.4436 64.4378 15.4934C64.4876 15.5433 64.4876 15.6238 64.4378 15.6736L61.2276 18.8838C61.202 18.9094 61.1701 18.9209 61.1369 18.9209H61.1381Z" fill="white"/>
<path d="M51.4134 12.446C51.3968 12.446 51.3802 12.4435 51.3648 12.4358C51.2997 12.409 51.269 12.3336 51.2958 12.2684L53.0338 8.07286C53.0607 8.00769 53.1361 7.97701 53.2013 8.00385C53.2664 8.03068 53.2971 8.10609 53.2703 8.17127L51.5322 12.3668C51.5118 12.4154 51.4645 12.446 51.4147 12.446H51.4134Z" fill="white"/>
<path d="M40.0009 74.76C20.8341 74.76 5.24048 59.1664 5.24048 39.9996C5.24048 20.8329 20.8341 5.23926 40.0009 5.23926C59.1676 5.23926 74.7612 20.8329 74.7612 39.9996C74.7612 59.1664 59.1676 74.76 40.0009 74.76ZM40.0009 5.49485C20.9747 5.49485 5.49607 20.9734 5.49607 39.9996C5.49607 59.0258 20.9747 74.5044 40.0009 74.5044C59.0271 74.5044 74.5057 59.0258 74.5057 39.9996C74.5057 20.9734 59.0271 5.49485 40.0009 5.49485Z" fill="white"/>
<path d="M39.9999 69.9891C23.4644 69.9891 10.0127 56.5373 10.0127 40.0019C10.0127 23.4664 23.4644 10.0146 39.9999 10.0146C56.5354 10.0146 69.9871 23.4664 69.9871 40.0019C69.9871 56.5373 56.5354 69.9891 39.9999 69.9891ZM39.9999 10.269C23.605 10.269 10.2683 23.607 10.2683 40.0006C10.2683 56.3942 23.6063 69.7322 39.9999 69.7322C56.3935 69.7322 69.7315 56.3942 69.7315 40.0006C69.7315 23.607 56.3935 10.269 39.9999 10.269Z" fill="white"/>
<path d="M21.6019 34.8652L21.9009 35.5515C22.0274 35.8429 22.26 36.0755 22.5514 36.202L23.2376 36.501L22.5514 36.8001C22.26 36.9266 22.0274 37.1592 21.9009 37.4505L21.6019 38.1368L21.3028 37.4505C21.1763 37.1592 20.9437 36.9266 20.6523 36.8001L19.9661 36.501L20.6523 36.202C20.9437 36.0755 21.1763 35.8429 21.3028 35.5515L21.6019 34.8652Z" fill="white"/>
<path d="M61.3146 53.5986L61.6226 54.3066C61.7542 54.6069 61.9932 54.8472 62.2948 54.9788L63.0028 55.2868L62.2948 55.5948C61.9945 55.7264 61.7542 55.9654 61.6226 56.267L61.3146 56.975L61.0067 56.267C60.875 55.9667 60.6361 55.7264 60.3345 55.5948L59.6265 55.2868L60.3345 54.9788C60.6348 54.8485 60.875 54.6082 61.0067 54.3066L61.3146 53.5986Z" fill="white"/>
<path d="M55.8896 49.2031L56.0915 49.667C56.1771 49.8638 56.3344 50.021 56.5312 50.1066L56.995 50.3086L56.5312 50.5105C56.3344 50.5961 56.1771 50.7533 56.0915 50.9501L55.8896 51.414L55.6877 50.9501C55.6021 50.7533 55.4449 50.5961 55.2481 50.5105L54.7842 50.3086L55.2481 50.1066C55.4449 50.021 55.6021 49.8638 55.6877 49.667L55.8896 49.2031Z" fill="white"/>
<path d="M27.2172 62.7012L27.4192 63.1651C27.5048 63.3619 27.662 63.5191 27.8588 63.6047L28.3227 63.8066L27.8588 64.0085C27.662 64.0942 27.5048 64.2513 27.4192 64.4481L27.2172 64.912L27.0153 64.4481C26.9297 64.2513 26.7725 64.0942 26.5757 64.0085L26.1118 63.8066L26.5757 63.6047C26.7725 63.5191 26.9297 63.3619 27.0153 63.1651L27.2172 62.7012Z" fill="white"/>
<path d="M31.4334 58.585L31.7503 59.3121C31.8845 59.6214 32.1312 59.8667 32.4404 60.0022L33.1676 60.3192L32.4404 60.6361C32.1312 60.7703 31.8858 61.0169 31.7503 61.3262L31.4334 62.0533L31.1165 61.3262C30.9823 61.0169 30.7356 60.7715 30.4264 60.6361L29.6992 60.3192L30.4264 60.0022C30.7356 59.868 30.981 59.6214 31.1165 59.3121L31.4334 58.585Z" fill="white"/>
<path d="M62.6576 40.9248L62.8263 41.312C62.8979 41.4769 63.0295 41.6085 63.1943 41.6801L63.5816 41.8488L63.1943 42.0174C63.0295 42.089 62.8979 42.2206 62.8263 42.3855L62.6576 42.7727L62.4889 42.3855C62.4173 42.2206 62.2857 42.089 62.1209 42.0174L61.7336 41.8488L62.1209 41.6801C62.2857 41.6085 62.4173 41.4769 62.4889 41.312L62.6576 40.9248Z" fill="white"/>
<path d="M21.1265 28.1661C21.7681 28.1661 22.2882 27.646 22.2882 27.0044C22.2882 26.3629 21.7681 25.8428 21.1265 25.8428C20.4849 25.8428 19.9648 26.3629 19.9648 27.0044C19.9648 27.646 20.4849 28.1661 21.1265 28.1661Z" fill="white"/>
<path d="M57.2774 22.5503C58.0361 22.5503 58.6512 21.9353 58.6512 21.1765C58.6512 20.4178 58.0361 19.8027 57.2774 19.8027C56.5186 19.8027 55.9036 20.4178 55.9036 21.1765C55.9036 21.9353 56.5186 22.5503 57.2774 22.5503Z" fill="white"/>
<path d="M25.3619 30.859C25.5913 30.859 25.7772 30.673 25.7772 30.4437C25.7772 30.2143 25.5913 30.0283 25.3619 30.0283C25.1325 30.0283 24.9465 30.2143 24.9465 30.4437C24.9465 30.673 25.1325 30.859 25.3619 30.859Z" fill="white"/>
<path d="M54.834 28.4263C55.1594 28.4263 55.4231 28.1626 55.4231 27.8372C55.4231 27.5118 55.1594 27.248 54.834 27.248C54.5087 27.248 54.2449 27.5118 54.2449 27.8372C54.2449 28.1626 54.5087 28.4263 54.834 28.4263Z" fill="white"/>
<path d="M49.7462 21.9872C49.7462 22.2185 49.5596 22.4051 49.3283 22.4051C49.097 22.4051 48.9104 22.2185 48.9104 21.9872C48.9104 21.7559 49.097 21.5693 49.3283 21.5693C49.5596 21.5693 49.7462 21.7559 49.7462 21.9872Z" fill="white"/>
<path d="M56.1642 48.6182H45.1585C44.1987 48.6182 43.3399 48.0226 43.0038 47.1242C42.6677 46.2258 42.9246 45.2124 43.6479 44.5824C43.6812 44.553 47.3553 41.2878 48.4952 37.1255C49.1648 34.6795 48.7252 32.2718 47.2556 30.346C45.639 28.2271 42.9949 27.0118 39.9994 27.0118C37.0038 27.0118 34.3597 28.2271 32.7431 30.346C31.2735 32.2718 30.8326 34.6795 31.5022 37.1255C32.6422 41.2878 36.3176 44.553 36.3546 44.5849C37.0741 45.2175 37.3284 46.2297 36.991 47.1255C36.6537 48.0213 35.7987 48.6169 34.8403 48.6169H23.8345C22.5642 48.6169 21.5342 47.5868 21.5342 46.3166C21.5342 45.0463 22.5642 44.0162 23.8345 44.0162H29.8128C28.7265 42.452 27.662 40.5134 27.0665 38.3408C26.0236 34.5351 26.7598 30.6041 29.0856 27.5549C31.5802 24.2859 35.5572 22.4111 39.9994 22.4111C44.4415 22.4111 48.4185 24.2859 50.9131 27.5549C53.239 30.6041 53.9751 34.5351 52.9323 38.3408C52.3367 40.5134 51.2722 42.4533 50.1859 44.0162H56.1642C57.4345 44.0162 58.4645 45.0463 58.4645 46.3166C58.4645 47.5868 57.4345 48.6169 56.1642 48.6169V48.6182Z" fill="white"/>
<path d="M56.1593 57.5889H23.8411C22.5708 57.5889 21.5408 56.5589 21.5408 55.2886C21.5408 54.0183 22.5708 52.9883 23.8411 52.9883H56.1593C57.4296 52.9883 58.4596 54.0183 58.4596 55.2886C58.4596 56.5589 57.4296 57.5889 56.1593 57.5889Z" fill="white"/>
<defs>
<linearGradient id="paint0_linear_1709_6911" x1="39.9999" y1="2.68359" x2="39.9999" y2="77.3162" gradientUnits="userSpaceOnUse">
<stop stop-color="#3867B8"/>
<stop offset="1" stop-color="#192E52"/>
</linearGradient>
</defs>
</svg>
