<svg width="91" height="88" viewBox="0 0 91 88" fill="none" xmlns="http://www.w3.org/2000/svg">
<path d="M24.6951 11.2805C24.357 9.52302 24.8441 7.64325 26.2291 6.43784C26.9321 5.84181 27.8071 5.57245 28.6056 5.49222C29.4098 5.41199 30.1529 5.48649 30.8674 5.5438C32.2715 5.66988 33.6622 5.74629 34.7396 4.8962C35.8056 4.09577 36.4933 2.66875 36.287 1.23792C36.6748 2.63246 36.1896 4.24095 35.0969 5.30883C34.5562 5.85136 33.8188 6.22388 33.0662 6.39581C32.3135 6.57538 31.5608 6.60403 30.8426 6.63842C30.1281 6.67089 29.4327 6.69955 28.8195 6.84282C28.212 6.98801 27.6924 7.25163 27.3447 7.64134C26.6265 8.4284 26.4602 9.73506 26.8137 10.7342C27.0162 11.3054 26.7162 11.9339 26.145 12.1363C25.5739 12.3388 24.9453 12.0389 24.7428 11.4677C24.7256 11.4162 24.7104 11.3665 24.7008 11.3149L24.6932 11.2786L24.6951 11.2805Z" fill="#231F20"/>
<path d="M63.3521 8.06362C65.4497 9.95867 66.9226 12.3447 67.9064 14.7803C68.1757 15.3955 68.3534 16.0125 68.5406 16.6372L68.8119 17.5771L69.0086 18.5189C69.1366 19.1493 69.2512 19.7873 69.3009 20.4196C69.3525 21.0539 69.4499 21.6957 69.4404 22.33C69.534 24.8841 69.1787 27.4497 68.3763 30.0019C67.5415 32.533 66.2482 35.0833 64.2462 37.3662L63.4801 38.2106C63.2184 38.4875 62.9089 38.7416 62.6186 39.0033C62.0264 39.521 61.417 40.0483 60.8152 40.4208C60.2077 40.822 59.5983 41.2422 58.966 41.5918C58.3261 41.9185 57.6785 42.2337 57.0232 42.5374C54.4042 43.6397 51.8176 44.1651 49.5061 44.444C47.185 44.7152 45.1753 44.742 43.328 44.7955C41.475 44.8337 39.9047 44.8757 38.5484 45.0113L38.0498 45.061C37.8779 45.0744 37.7193 45.0935 37.5837 45.1221L36.7241 45.2635C36.2446 45.3991 35.7383 45.4985 35.4002 45.657L35.1136 45.7506C35.0315 45.7888 34.9646 45.8385 34.8901 45.8767C34.8156 45.9168 34.743 45.9531 34.6666 45.9875C34.5921 46.02 34.5157 46.0448 34.4221 46.1155C34.0534 46.3333 33.7191 46.5663 33.4173 46.8147C32.2367 47.81 31.4458 49.0345 30.9682 50.7118C30.4696 52.368 30.4754 54.4274 30.888 56.395C31.1019 57.3788 31.4362 58.3378 31.868 59.2127C32.2882 60.0934 32.7964 60.8996 33.381 61.5777C33.956 62.2521 34.6265 62.8424 35.2856 63.2626C35.4441 63.3543 35.595 63.4594 35.7459 63.5702C35.9255 63.6466 36.1013 63.7307 36.2732 63.8243C36.4318 63.9389 36.6476 63.979 36.8348 64.0631C37.0259 64.1414 37.2131 64.2369 37.4328 64.2751C38.2447 64.5693 39.1864 64.6763 40.1282 64.7412C41.0815 64.8196 42.0558 64.724 42.9766 64.5387C43.1982 64.4738 43.4522 64.4642 43.6662 64.3916C43.882 64.3229 44.1036 64.2598 44.3329 64.2025C44.5526 64.1357 44.7417 64.0344 44.9576 63.9618C45.0588 63.9198 45.1792 63.893 45.2709 63.8415L45.5517 63.6886C45.9701 63.5243 46.2814 63.276 46.6654 63.0754C46.9557 62.8118 47.3283 62.594 47.5823 62.2903C48.1841 61.7821 48.8565 60.7314 49.5767 59.3254C50.2988 57.9366 51.063 56.1848 52.1079 54.2268C53.1471 52.2897 54.5665 50.0259 56.6698 48.0793L57.4817 47.3744C57.7549 47.1299 58.0223 46.9752 58.2936 46.7746C58.8399 46.4078 59.3729 46.0066 59.9365 45.701C60.5 45.3972 61.0655 45.103 61.6328 44.8203C62.1945 44.5777 62.7619 44.3714 63.3254 44.1574C65.5624 43.3837 67.637 43.0513 69.4652 42.8011C71.301 42.5642 72.9133 42.419 74.2735 42.1497C75.6451 41.8803 76.7837 41.5097 77.8172 40.8736C78.0579 40.6959 78.3463 40.5622 78.5775 40.3501C78.8048 40.1323 79.0417 39.9165 79.2862 39.6987C79.525 39.4733 79.7141 39.1791 79.9415 38.9193L80.2758 38.5143C80.3808 38.3767 80.463 38.2335 80.5623 38.0921C82.0314 35.7978 82.6255 32.6419 81.8843 29.7249L81.8671 29.6599C81.5786 28.5214 82.2663 27.3656 83.4049 27.0752C84.4193 26.8173 85.4509 27.3369 85.8654 28.2615C87.5694 32.0344 87.8942 36.497 86.492 40.715C86.3984 40.9748 86.3086 41.2422 86.2054 41.4963L85.873 42.2471C85.6361 42.7457 85.4413 43.2615 85.1529 43.7505C84.8548 44.2376 84.5473 44.7248 84.2321 45.2119C83.913 45.6971 83.5061 46.1327 83.1298 46.5931C81.5557 48.3792 79.5403 49.7833 77.5956 50.7863C75.6375 51.8102 73.7768 52.4845 72.1759 53.1551C70.5655 53.8065 69.2035 54.4388 68.1795 55.096C67.9427 55.2698 67.7039 55.436 67.4708 55.5907C67.2779 55.7703 67.0849 55.9384 66.8882 56.0989C66.6952 56.2613 66.5691 56.4676 66.4029 56.6319C66.2157 56.8038 66.1431 56.9662 66.0438 57.1075C65.6751 57.7322 65.3045 58.6129 64.909 59.9196C64.5117 61.2148 64.1278 62.8347 63.5623 64.7603C62.9892 66.6592 62.2633 68.9172 60.7961 71.3147C60.1103 72.5316 59.2354 73.5918 58.3566 74.6673C57.4129 75.6492 56.452 76.654 55.3765 77.464C53.2503 79.1394 50.9063 80.4709 48.4477 81.3611C45.9872 82.2513 43.435 82.8588 40.8274 83.0116C38.2237 83.174 35.574 83.0422 32.9454 82.4137C30.3283 81.789 27.7054 80.8491 25.2926 79.3304C22.9181 77.8958 20.8721 76.1268 19.0917 74.1401C15.5308 70.1608 13.2786 65.3774 12.2183 60.4029C11.6854 57.9099 11.4484 55.3481 11.5688 52.7596C11.6853 50.1749 12.1152 47.5597 12.9614 44.9961C13.8039 42.4381 15.0685 39.9451 16.7248 37.6852C18.3772 35.4253 20.4347 33.4175 22.7328 31.8549C23.879 31.0716 25.0768 30.3916 26.2975 29.8108C26.5897 29.658 26.9298 29.5205 27.266 29.3867L28.2765 28.9913C28.6147 28.8652 28.9547 28.7315 29.2909 28.6207L30.2862 28.3456C31.6425 27.9483 32.8976 27.7744 34.1661 27.5853L35.9599 27.4306C36.2656 27.4019 36.5502 27.3885 36.8234 27.3847L37.6582 27.3637C39.8551 27.3178 41.8456 27.4286 43.5478 27.5184C45.2556 27.6006 46.8087 27.677 48.0332 27.6292C49.2616 27.5815 50.1976 27.4306 50.8968 27.2395C51.0515 27.1727 51.212 27.1192 51.3801 27.0752C51.5348 27.0141 51.6552 26.9186 51.808 26.8613C51.9914 26.804 52.0411 26.7314 52.1347 26.6817C52.1786 26.6511 52.2359 26.6492 52.2818 26.6034C52.3257 26.5556 52.3735 26.5117 52.4231 26.4697C52.8281 26.1334 53.3152 25.5279 53.6897 24.7198C53.768 24.5077 53.896 24.3167 53.9743 24.0932C54.0469 23.8659 54.131 23.6405 54.2207 23.4131C54.2742 23.1724 54.3354 22.9317 54.4041 22.6891L54.5493 21.9441C54.6219 21.6919 54.6028 21.4436 54.6448 21.1895C54.6907 20.9316 54.6754 20.6871 54.685 20.4368L54.7098 20.0567L54.6888 19.6956C54.6773 19.453 54.6869 19.1951 54.6353 18.9773C54.5532 18.026 54.3316 17.1988 54.0546 16.4309L53.4356 14.7154C52.2799 11.5156 53.9361 7.98529 57.1359 6.82954C59.3481 6.03103 61.7226 6.58312 63.3579 8.05216L63.3521 8.06362Z" fill="#231F20"/>
<path d="M32.8346 17.3343C38.2313 17.0573 40.3575 20.0126 39.8837 20.1731C39.5551 20.4635 37.2437 18.4462 32.8365 18.7938C28.6071 18.7308 23.5084 19.6592 19.8558 17.7966C16.2128 15.4221 17.4144 11.9166 17.126 12.1631C17.3323 11.9147 16.8089 15.489 20.1768 17.1471C23.5313 18.5035 28.3931 17.3038 32.8346 17.3343Z" fill="#231F20"/>
<path d="M61.0906 7.26501C60.2138 5.22859 58.4887 3.54941 56.4237 2.74134C54.4274 1.96002 52.0968 1.23792 49.9419 1.23792C43.8938 1.23792 36.2945 2.56942 39.8707 9.99678H24.6186C24.0665 9.99678 23.608 10.312 23.608 10.8622L23.5908 13.9798C23.5851 15.1394 24.4925 16.0965 25.6501 16.1519L34.4892 16.5683C35.9659 16.5683 37.1637 17.7718 37.1542 19.2504C37.1523 19.5771 36.8753 19.8407 36.5467 19.8407H23.715C24.2289 21.7167 26.0399 23.1036 28.2005 23.1036C31.5034 23.1036 33.7099 23.1265 37.0128 23.1456C39.0149 23.1571 41.0436 23.2698 43.0437 23.1934C46.4575 23.0654 49.7757 23.3443 53.0863 22.1637C56.0626 21.1015 58.7581 19.1033 60.3513 16.3735C60.466 16.1786 60.5729 15.9799 60.6742 15.7774C61.9923 13.1488 62.2483 9.95858 61.0868 7.2631L61.0906 7.26501Z" fill="#231F20"/>
<path d="M27.8954 11.3548C28.1724 10.1812 27.4455 9.00513 26.2718 8.72812C25.0982 8.45111 23.9221 9.17803 23.6451 10.3517C23.3681 11.5254 24.095 12.7014 25.2687 12.9784C26.4423 13.2554 27.6184 12.5285 27.8954 11.3548Z" fill="#231F20"/>
<path d="M26.6114 10.824C26.6114 11.2787 26.2389 11.6512 25.7842 11.6512C25.3296 11.6512 24.957 11.2787 24.957 10.824C24.957 10.3693 25.3238 9.99683 25.7842 9.99683C26.2446 9.99683 26.6114 10.3693 26.6114 10.824Z" fill="#E2BE74"/>
<path d="M45.8921 9.54973C45.8921 8.76459 44.7803 8.11316 43.9894 8.11316C43.1985 8.11316 42.5566 8.76459 42.5566 9.54973H45.8921Z" fill="white"/>
<path d="M51.3305 1.42711C53.1281 1.84738 54.876 2.23518 56.7004 2.6822C57.6231 2.92672 58.4445 3.18079 59.224 3.36418C59.6137 3.45588 59.9919 3.53038 60.3702 3.58005C60.7522 3.62399 61.1955 3.66219 61.6043 3.67748C63.2701 3.75198 64.9588 3.62208 66.5444 3.07954C68.128 2.54847 69.6047 1.55892 70.6993 0.122353C70.728 0.0860568 70.7796 0.0784122 70.8159 0.107067C70.8464 0.129991 70.856 0.170108 70.8426 0.202584C70.1778 1.90469 68.9151 3.45206 67.3008 4.54859C65.6923 5.66422 63.8183 6.35576 61.9252 6.80087C61.4419 6.9174 60.9891 7.00528 60.4752 7.08933C59.9556 7.16765 59.436 7.21159 58.9317 7.23451C57.9211 7.28227 56.9698 7.25361 56.1121 7.27081L50.7631 7.51533C49.061 7.59365 47.6168 6.27553 47.5385 4.57152C47.4601 2.86941 48.7783 1.4252 50.4823 1.34688C50.767 1.3335 51.0458 1.36025 51.3114 1.42138L51.3305 1.42711Z" fill="#231F20"/>
<path d="M59.8587 5.45213C60.9553 5.76351 62.1129 6.03478 63.2649 6.25447C64.4206 6.47415 65.5859 6.64417 66.755 6.74351C67.9223 6.83903 69.1009 6.87532 70.2529 6.73587C71.3972 6.59068 72.5605 6.31559 73.508 5.54573H73.5119C73.5424 5.51899 73.5883 5.52281 73.6131 5.55337C73.6322 5.57821 73.6341 5.61068 73.6189 5.63552C72.9713 6.73205 71.8289 7.51146 70.6789 8.09602C69.5117 8.68823 68.2757 9.09513 67.0282 9.43708C65.7808 9.77712 64.5142 10.0388 63.2419 10.2451C61.9658 10.4515 60.6935 10.6062 59.3716 10.7036L59.3238 10.7074C57.8452 10.8163 56.5596 9.70643 56.4507 8.22975C56.3418 6.75115 57.4517 5.4655 58.9284 5.35661C59.2475 5.33369 59.5684 5.36998 59.8587 5.45213Z" fill="#231F20"/>
<path d="M61.8489 8.87361C63.9465 9.51357 66.0153 10.2051 68.025 10.6999C69.0337 10.9444 70.0309 11.1163 71.0663 11.1354C72.1017 11.1622 73.1753 11.0437 74.2508 10.847C74.2909 10.8393 74.3272 10.8661 74.3348 10.9043C74.3406 10.9349 74.3272 10.9635 74.3024 10.9788C73.3816 11.5729 72.4054 12.1193 71.3261 12.5376C70.2506 12.9636 69.0891 13.2292 67.9544 13.4087C65.6715 13.7602 63.4746 13.9092 61.3007 14.1213C59.8202 14.2665 58.504 13.1852 58.3588 11.7047C58.2136 10.2242 59.2948 8.90799 60.7753 8.76281C61.1345 8.72842 61.486 8.76472 61.8126 8.86215L61.8508 8.87552L61.8489 8.87361Z" fill="#231F20"/>
<path d="M65.2988 13.0228C66.6838 13.4297 68.021 13.8042 69.3946 13.915C70.7624 14.0334 72.1836 13.8424 73.5419 13.2865C73.561 13.2788 73.5839 13.2865 73.5915 13.3075C73.5973 13.3228 73.5915 13.34 73.5801 13.3514C72.4549 14.297 71.0374 14.9943 69.513 15.3382C67.9904 15.6935 66.4221 15.747 64.9377 15.7814H64.9339C64.1564 15.7986 63.5107 15.1834 63.4935 14.4059C63.4763 13.6284 64.0914 12.9827 64.8689 12.9655C65.016 12.9617 65.165 12.9827 65.2988 13.0228Z" fill="#231F20"/>
<path d="M27.7665 21.8944C27.5469 23.1056 26.9069 24.1085 26.1046 24.8153C25.3003 25.5241 24.3031 25.952 23.3289 26.0016C23.2735 26.0035 23.2276 25.9634 23.2257 25.908C23.2238 25.866 23.2486 25.8297 23.2849 25.8125C24.9851 25.0446 25.797 23.1438 25.4665 21.8161C25.3079 21.1781 25.6958 20.5305 26.3357 20.3719C26.9738 20.2133 27.6214 20.6011 27.7799 21.2411C27.822 21.4092 27.8258 21.5754 27.7971 21.7359L27.7685 21.8944H27.7665Z" fill="#231F20"/>
<path d="M30.1598 21.755C30.0128 22.9394 29.4473 23.9443 28.7099 24.6721C27.9706 25.4019 27.0288 25.8699 26.0889 25.9711C26.0354 25.9769 25.9896 25.9387 25.9838 25.8871C25.98 25.847 26.001 25.8088 26.0354 25.7916C27.6401 24.9568 28.3202 23.0732 27.9305 21.8066C27.7414 21.1972 28.0833 20.5496 28.6927 20.3624C29.3021 20.1733 29.9497 20.5152 30.1369 21.1246C30.1866 21.2851 30.2 21.4456 30.1809 21.6022L30.1618 21.757L30.1598 21.755Z" fill="#231F20"/>
<path d="M32.2392 22.4198C31.9927 24.2671 30.5332 25.5375 29.068 25.7037C29.0279 25.7075 28.9897 25.6788 28.9859 25.6387C28.9821 25.6082 28.9992 25.5776 29.026 25.5642C30.2753 24.9128 30.8064 23.4476 30.5008 22.4599C30.3537 21.9843 30.6192 21.4799 31.0948 21.3347C31.5705 21.1876 32.0749 21.4532 32.2201 21.9289C32.2602 22.0569 32.2697 22.1848 32.2525 22.309L32.2373 22.4217L32.2392 22.4198Z" fill="#231F20"/>
<path d="M33.8987 22.521C33.9197 23.8659 33.0104 24.928 31.9807 25.2012C31.952 25.2089 31.9234 25.1917 31.9157 25.163C31.91 25.1401 31.9196 25.1172 31.9368 25.1057C32.7601 24.5078 32.9836 23.4055 32.6608 22.7331C32.506 22.4102 32.6417 22.0205 32.9664 21.8658C33.2912 21.7111 33.679 21.8467 33.8337 22.1714C33.8757 22.2574 33.8968 22.3491 33.8968 22.4389V22.521H33.8987Z" fill="#231F20"/>
<path d="M90.0431 14.6428C88.7612 15.7049 87.957 17.2542 87.5119 18.857C87.0744 20.4273 86.9541 22.0644 86.8413 23.692C86.8394 23.692 86.8356 23.6901 86.8337 23.6882C86.8853 19.7625 85.8728 15.8444 83.9969 12.3981C83.6206 11.7085 83.2098 11.038 82.7666 10.3904C82.4266 11.0991 82.1248 11.8231 81.8592 12.5624C80.5449 16.2226 80.1418 20.2114 80.7703 24.0492C80.7646 24.0512 80.7608 24.055 80.7551 24.0569C80.4016 22.5 80.033 20.9373 79.3758 19.4836C78.69 17.9667 77.6565 16.5608 76.2275 15.7068C77.177 16.811 77.4196 18.3603 77.3814 19.814C77.3432 21.2697 77.0222 22.7197 77.1349 24.1715C77.5609 29.6962 81.1753 32.2694 84.3178 32.0268C87.1986 31.8052 90.9409 29.5663 90.4462 23.1457C90.3335 21.6938 89.7947 20.3107 89.5349 18.878C89.2751 17.4452 89.277 15.8769 90.0469 14.6409L90.0431 14.6428Z" fill="#231F20"/>
<path d="M57.0581 82.7996C57.719 81.9935 58.5462 81.2752 59.4937 80.7002C58.8079 82.7213 59.3313 84.9105 60.8558 86.393C61.1404 85.1398 61.4384 83.8713 62.0689 82.6812C62.6993 81.4911 63.6964 80.3678 65.0585 79.7221C64.8465 80.767 65.0203 81.8158 65.496 82.7404C66.0079 80.2608 67.8801 78.1633 70.501 77.5042C71.6377 77.2176 72.782 77.2368 73.8441 77.5061C71.7179 74.6272 67.9928 73.1582 64.3058 74.0866C58.5748 75.5308 54.0608 80.1882 55.4496 85.6976L55.5164 85.7683C55.5202 84.7883 56.4601 83.5294 57.0619 82.7958L57.0581 82.7996Z" fill="#231F20"/>
<path d="M60.0212 67.1138C60.2523 67.1138 63.475 66.8922 65.6853 66.7394C66.7283 66.6668 67.6014 67.5303 67.525 68.5733C67.3836 70.5008 67.3893 73.3587 68.4113 74.8946L62.9497 77.9549L61.303 73.9146L52.4658 79.3877L60.0231 67.1157L60.0212 67.1138Z" fill="#231F20"/>
<path d="M16.4121 52.1406C16.2861 48.3104 14.9966 42.7876 16.2192 38.9154C14.3203 40.1743 11.8637 40.8238 10.6525 38.6155C10.7958 39.3873 8.74219 46.6599 8.74219 46.6599C8.74219 46.6599 13.6154 45.0705 16.4141 52.1425L16.4121 52.1406Z" fill="#231F20"/>
<path d="M7.60719 29.5624C8.84891 30.3342 10.148 31.1652 10.8299 32.4585C11.5119 33.7518 11.2846 35.6468 9.97794 36.3021C10.2855 34.7222 9.65701 32.9972 8.40766 31.9828C7.15639 30.9703 5.33774 30.7144 3.85724 31.3448C5.13525 31.5492 6.26997 32.491 6.70552 33.7117C7.14108 34.9305 6.86218 36.3785 6.00253 37.347C5.92803 36.1015 5.17152 34.919 4.07308 34.3287C2.97273 33.7384 1.56864 33.7633 0.491211 34.3898C1.78068 35.5265 3.08737 36.6842 4.00242 38.1379C4.91556 39.5936 5.39885 41.4141 4.88688 43.0532C4.37683 44.6942 2.68429 46.0066 0.989828 45.72C2.85431 47.8825 6.41518 48.3123 8.74005 46.658C10.8357 45.1679 12.1843 42.7342 11.2827 40.3501C17.8084 34.7757 11.6151 29.0925 7.60911 29.5624H7.60719Z" fill="#231F20"/>
<path d="M10.3235 79.4775C11.1965 78.2377 12.1326 76.9425 13.5138 76.314C14.8931 75.6855 16.8396 76.0332 17.4414 77.4239C15.8253 77.0113 14.0009 77.5576 12.8796 78.7917C11.7563 80.0258 11.3837 81.8921 11.9473 83.4624C12.2357 82.152 13.2788 81.0344 14.5664 80.6562C15.854 80.2779 17.3364 80.6543 18.2877 81.6018C16.9944 81.6037 15.724 82.3162 15.0478 83.4185C14.3715 84.5208 14.3123 85.9764 14.8969 87.1303C16.1501 85.8637 17.4261 84.58 18.985 83.7203C20.5457 82.8607 22.4579 82.471 24.1256 83.0976C25.7934 83.7242 27.0523 85.5523 26.653 87.2888C29.0027 85.4874 29.6599 81.8291 28.0858 79.3227C26.6683 77.0666 24.2307 75.525 21.7091 76.3159C16.3296 69.2305 10.079 75.2996 10.3254 79.4756L10.3235 79.4775Z" fill="#231F20"/>
<path d="M30.7581 32.4796C30.6205 33.8665 30.6874 35.2457 31.3082 36.4722C31.91 37.6623 32.9912 38.5716 34.2138 39.1008C35.4365 39.6299 36.7947 39.8019 38.1262 39.7446C34.9016 38.3175 32.2405 35.6736 30.7581 32.4777V32.4796Z" fill="#E2BE74"/>
<path d="M25.9997 34.7738C25.7896 36.1531 25.7838 37.5323 26.3378 38.7912C26.8765 40.01 27.9081 40.9766 29.1021 41.5708C30.296 42.1649 31.6428 42.4056 32.9743 42.4209C29.8299 40.8257 27.3121 38.0443 25.9997 34.7757V34.7738Z" fill="#E2BE74"/>
<path d="M21.8349 38.9995C21.854 40.3941 22.0871 41.7561 22.8875 42.8985C23.6631 44.0065 24.9125 44.7783 26.265 45.1565C27.6175 45.5347 29.0713 45.5386 30.4697 45.3208C26.8973 44.2969 23.7777 41.993 21.833 38.9995H21.8349Z" fill="#E2BE74"/>
<path d="M38.2988 80.5644C39.8137 79.8309 40.9809 78.8012 41.4031 77.4411C41.8196 76.1248 41.512 74.6825 40.9943 73.3988C40.7345 72.7646 40.4212 72.1437 40.0964 71.5572C39.7717 70.9841 39.4374 70.4225 39.1145 69.8895C39.8175 73.437 40.2607 77.3245 38.2988 80.5644Z" fill="#E2BE74"/>
<path d="M28.2217 77.6683C29.0737 77.6779 29.8722 77.5919 30.5866 77.3455C31.2954 77.1201 31.9105 76.7476 32.3995 76.228C33.3452 75.2269 33.6967 73.7942 33.7903 72.4111C33.8342 71.7215 33.817 71.0395 33.7865 70.3652C33.7502 69.7004 33.6909 69.0642 33.6489 68.4434C33.1656 70.1951 32.625 71.9794 31.7883 73.5974C30.9477 75.225 29.8187 76.6616 28.2217 77.6703V77.6683Z" fill="#E2BE74"/>
<path d="M20.4863 70.3842C20.8588 70.5829 21.2294 70.7567 21.5962 70.9C21.9764 71.0337 22.3527 71.135 22.7214 71.198C23.4473 71.3337 24.1809 71.2859 24.8495 71.0605C26.1523 70.6211 27.1304 69.515 27.8621 68.3344C28.5823 67.1539 29.1076 65.893 29.5909 64.7583C28.3454 66.0917 27.0407 67.4022 25.5411 68.4433C24.0395 69.4864 22.3546 70.2333 20.4863 70.3823V70.3842Z" fill="#E2BE74"/>
<path d="M16.8965 60.5652C17.8669 61.9406 19.1201 62.8881 20.5223 63.0639C21.8805 63.2396 23.2483 62.6799 24.427 61.9387C25.5942 61.1917 26.6143 60.2748 27.5408 59.4629C25.8368 60.122 24.1023 60.7352 22.2932 61.0179C20.4936 61.3006 18.6387 61.2452 16.8984 60.5652H16.8965Z" fill="#E2BE74"/>
<path d="M51.3938 28.4105C51.1263 28.9225 50.8646 29.4784 50.6449 30.0687C50.4195 30.6399 50.2399 31.2703 50.1597 31.9637C50.0011 33.2895 50.282 34.7375 51.0728 35.9219C51.8542 37.1025 53.1417 38.0405 54.7044 38.583C52.0567 35.7386 51.5791 31.8205 51.3938 28.4105Z" fill="#E2BE74"/>
<path d="M56.5347 25.0922C56.5213 25.673 56.506 26.2728 56.5653 26.909C56.5997 27.5222 56.7009 28.1679 56.9206 28.8289C57.3409 30.105 58.2062 31.2932 59.4212 32.0306C60.0268 32.3992 60.7126 32.661 61.4672 32.8195C62.2161 32.9704 63.005 32.9838 63.8398 32.9131C60.2274 31.4517 58.1566 28.0972 56.5366 25.0903L56.5347 25.0922Z" fill="#E2BE74"/>
<path d="M52.7275 59.2222C52.8192 60.4314 53.1344 61.4993 53.8947 62.4927C54.6359 63.4383 55.7917 64.1566 57.0792 64.3189C57.7192 64.4011 58.384 64.3533 59.0411 64.189C59.6945 64.0286 60.3459 63.742 60.9457 63.4039C59.3239 63.4001 57.7345 62.9187 56.338 62.145C54.9378 61.3694 53.6941 60.3607 52.7294 59.2222H52.7275Z" fill="#E2BE74"/>
<path d="M57.8317 51.2848C57.698 51.6497 57.5719 51.9973 57.5031 52.3565C57.4305 52.7118 57.3808 53.0537 57.3713 53.3785C57.3655 54.0299 57.5012 54.6088 57.7954 55.0863C58.3646 56.0129 59.4402 56.4465 60.5195 56.5554C61.062 56.6089 61.6103 56.5879 62.1394 56.5344C62.4012 56.5038 62.6705 56.4809 62.9227 56.4408C63.173 56.3968 63.4213 56.3529 63.6677 56.309C62.4222 55.9212 61.1499 55.3901 60.0725 54.5801C59.0046 53.7797 58.1354 52.6736 57.8279 51.2848H57.8317Z" fill="#E2BE74"/>
<path d="M66.4532 45.9053C65.8629 46.3179 65.3662 46.7917 65.0128 47.275C64.6594 47.7621 64.4435 48.2531 64.413 48.7402C64.348 49.6744 64.9536 50.4098 65.7368 50.8855C66.1265 51.1167 66.5697 51.3039 67.0263 51.4471C67.4771 51.577 67.9624 51.7031 68.4266 51.7681C67.6109 51.0708 66.885 50.1863 66.4781 49.1815C66.2756 48.6791 66.1533 48.148 66.138 47.594C66.1246 47.04 66.2163 46.4612 66.4532 45.9053Z" fill="#E2BE74"/>
<path d="M51.0559 17.877C50.9757 17.8369 50.5821 17.5236 50.1599 17.2887C49.7435 17.046 49.3213 16.8894 49.3213 16.8894C49.3213 16.8894 49.7607 16.9907 50.2421 17.0193C50.7197 17.0556 51.224 17.0117 51.3138 17.0231C51.4895 17.0422 51.6061 17.2829 51.5277 17.5542C51.4857 17.686 51.4074 17.7911 51.3214 17.8484C51.2316 17.9057 51.1361 17.9172 51.0559 17.879V17.877Z" fill="#E2BE74"/>
<path d="M50.2587 18.8762C50.2071 18.8075 49.9798 18.349 49.7047 17.9574C49.4392 17.5638 49.1221 17.2314 49.1221 17.2314C49.1221 17.2314 49.2099 17.3021 49.3513 17.4034C49.4927 17.5046 49.6894 17.6326 49.8958 17.7491C50.3084 17.9879 50.7879 18.1751 50.8605 18.221C51.0095 18.3127 51.0095 18.584 50.8203 18.7884C50.6312 18.9947 50.3657 19.0195 50.2587 18.8781V18.8762Z" fill="#E2BE74"/>
<path d="M49.1073 19.4321C49.0901 19.3462 49.0863 18.8342 49.0099 18.3661C48.9392 17.8867 48.7998 17.4587 48.7998 17.4587C48.7998 17.4587 48.8495 17.5619 48.9316 17.7128C49.0138 17.8637 49.1341 18.0624 49.2717 18.2592C49.5429 18.6584 49.8906 19.0252 49.9364 19.0997C50.032 19.2506 49.9154 19.4913 49.6537 19.5964C49.392 19.7015 49.1398 19.604 49.1073 19.4321Z" fill="#E2BE74"/>
<path d="M47.8292 19.4321C47.8502 19.348 48.068 18.8877 48.2036 18.4254C48.345 17.9707 48.4061 17.5179 48.4061 17.5179C48.4061 17.5179 48.4061 17.9726 48.4844 18.4464C48.5551 18.9163 48.7079 19.4054 48.7175 19.4932C48.7385 19.6652 48.5283 19.839 48.2494 19.8161C47.9705 19.797 47.7833 19.604 47.8292 19.4321Z" fill="#E2BE74"/>
<path d="M46.6751 18.8762C46.7305 18.8075 47.1298 18.4865 47.4488 18.135C47.7793 17.7816 48.0276 17.4053 48.0276 17.4053C48.0276 17.4053 47.978 17.5084 47.9111 17.667C47.8442 17.8255 47.764 18.0433 47.6952 18.2726C47.552 18.733 47.4813 19.2335 47.4507 19.3175C47.3915 19.4856 47.1298 19.5449 46.8872 19.4054C46.6427 19.2679 46.5624 19.008 46.6751 18.8762Z" fill="#E2BE74"/>
<path d="M45.8788 17.8771C45.9609 17.8389 46.45 17.7262 46.897 17.5428C47.3459 17.367 47.7318 17.1359 47.7318 17.1359C47.7318 17.1359 47.3803 17.4167 47.0555 17.7758C46.7308 18.1254 46.448 18.5476 46.3831 18.6106C46.2589 18.7348 45.9972 18.6775 45.8368 18.4463C45.7584 18.3336 45.7279 18.2056 45.7355 18.1025C45.747 17.9955 45.7966 17.9153 45.8769 17.8771H45.8788Z" fill="#E2BE74"/>
<path d="M45.5918 16.6297C45.6797 16.6297 46.1802 16.7405 46.6559 16.7711C46.8928 16.7883 47.1277 16.7902 47.3016 16.7844C47.4754 16.7787 47.5881 16.7692 47.5881 16.7692C47.5881 16.7692 47.4773 16.794 47.3111 16.8417C47.143 16.8895 46.9214 16.9621 46.7017 17.05C46.2566 17.2238 45.8134 17.4836 45.7313 17.5104C45.5651 17.5696 45.355 17.3996 45.3129 17.1226C45.2671 16.8456 45.4199 16.6221 45.5918 16.6278V16.6297Z" fill="#E2BE74"/>
<path d="M45.8785 15.3822C45.9588 15.4223 46.3523 15.7356 46.7745 15.9706C47.1909 16.2132 47.6131 16.3698 47.6131 16.3698C47.6131 16.3698 47.1737 16.2686 46.6923 16.2399C46.2148 16.2037 45.7104 16.2476 45.6206 16.2361C45.4449 16.217 45.3284 15.9763 45.4067 15.7051C45.4487 15.5732 45.527 15.4682 45.613 15.4109C45.7028 15.3535 45.7983 15.3421 45.8785 15.3803V15.3822Z" fill="#E2BE74"/>
<path d="M46.6757 14.3812C46.7273 14.45 46.9547 14.9085 47.2297 15.3001C47.4953 15.6936 47.8124 16.026 47.8124 16.026C47.8124 16.026 47.7245 15.9553 47.5831 15.8541C47.4418 15.7528 47.245 15.6249 47.0387 15.5083C46.6261 15.2695 46.1466 15.0823 46.074 15.0365C45.925 14.9448 45.925 14.6735 46.1141 14.4691C46.3032 14.2628 46.5687 14.238 46.6757 14.3793V14.3812Z" fill="#E2BE74"/>
<path d="M47.829 13.8271C47.8462 13.9131 47.85 14.4251 47.9264 14.8931C47.9971 15.3726 48.1366 15.8005 48.1366 15.8005C48.1366 15.8005 48.0868 15.6973 48.0047 15.5464C47.9226 15.3955 47.8022 15.1968 47.6647 15.0001C47.3934 14.6008 47.0457 14.234 46.9999 14.1595C46.9044 14.0086 47.0209 13.7679 47.2826 13.6628C47.5444 13.5578 47.7965 13.6552 47.829 13.8271Z" fill="#E2BE74"/>
<path d="M49.1075 13.8272C49.0865 13.9112 48.8687 14.3716 48.7331 14.8339C48.5917 15.2886 48.5306 15.7413 48.5306 15.7413C48.5306 15.7413 48.5306 15.2867 48.4523 14.8129C48.3816 14.343 48.2288 13.8539 48.2192 13.7661C48.1982 13.5941 48.4083 13.4203 48.6872 13.4432C48.9662 13.4623 49.1534 13.6553 49.1075 13.8272Z" fill="#E2BE74"/>
<path d="M50.2587 14.3812C50.2033 14.45 49.8041 14.7709 49.485 15.1224C49.1546 15.4758 48.9062 15.8521 48.9062 15.8521C48.9062 15.8521 48.9559 15.749 49.0228 15.5904C49.0896 15.4319 49.1699 15.2141 49.2386 14.9848C49.3819 14.5245 49.4526 14.024 49.4831 13.9399C49.5423 13.7718 49.8041 13.7126 50.0467 13.852C50.2912 13.9896 50.3714 14.2494 50.2587 14.3812Z" fill="#E2BE74"/>
<path d="M51.0562 15.3822C50.974 15.4204 50.485 15.5331 50.038 15.7165C49.589 15.8923 49.2031 16.1234 49.2031 16.1234C49.2031 16.1234 49.5546 15.8426 49.8794 15.4834C50.2041 15.1338 50.4869 14.7117 50.5518 14.6486C50.676 14.5244 50.9377 14.5818 51.0982 14.8129C51.1765 14.9256 51.2071 15.0536 51.1995 15.1568C51.188 15.2638 51.1383 15.344 51.058 15.3822H51.0562Z" fill="#E2BE74"/>
<path d="M51.342 16.6296C51.2542 16.6296 50.7536 16.5188 50.278 16.4882C50.0411 16.471 49.8061 16.4691 49.6323 16.4749C49.4584 16.4806 49.3457 16.4901 49.3457 16.4901C49.3457 16.4901 49.4565 16.4653 49.6227 16.4176C49.7908 16.3698 50.0124 16.2972 50.2321 16.2093C50.6772 16.0355 51.1204 15.7757 51.2025 15.7489C51.3687 15.6897 51.5789 15.8597 51.6209 16.1367C51.6668 16.4137 51.514 16.6372 51.342 16.6315V16.6296Z" fill="#E2BE74"/>
<path d="M48.2169 20.8781C48.2092 20.7291 48.3296 20.6107 48.4767 20.6107C48.6257 20.6107 48.7441 20.7311 48.7441 20.8781C48.7441 21.0272 48.6238 21.1456 48.4767 21.1456C48.3277 21.1456 48.2169 21.0252 48.2169 20.8781ZM47.0879 20.9278C46.9465 20.8858 46.8682 20.7368 46.9121 20.5973C46.9618 20.456 47.1089 20.3795 47.2502 20.4216C47.3916 20.4712 47.4699 20.6183 47.4203 20.7597C47.3859 20.8724 47.2789 20.9431 47.1662 20.9431C47.1375 20.9431 47.1165 20.9431 47.0879 20.9297V20.9278ZM49.535 20.7521C49.493 20.6107 49.5637 20.4636 49.705 20.4139C49.8464 20.3719 50.0011 20.4483 50.0432 20.584C50.0928 20.7253 50.0145 20.8801 49.8731 20.9221C49.8445 20.9355 49.8177 20.9355 49.7891 20.9355C49.6764 20.9355 49.5694 20.8648 49.535 20.7521ZM45.8251 20.2936C45.7048 20.2095 45.6761 20.0395 45.7678 19.9192C45.8519 19.7988 46.0219 19.7778 46.1422 19.8638C46.2626 19.9478 46.2836 20.1178 46.1996 20.2382C46.1499 20.3089 46.0658 20.3432 45.9799 20.3432C45.9302 20.3432 45.8748 20.3299 45.8251 20.2936ZM50.7557 20.2229C50.6717 20.1025 50.6927 19.9344 50.813 19.8485C50.9334 19.7568 51.1015 19.7854 51.1874 19.9058C51.2715 20.0261 51.2505 20.1943 51.1301 20.2802C51.0805 20.3146 51.025 20.3299 50.9677 20.3299C50.8894 20.3299 50.8054 20.2955 50.7557 20.2248V20.2229ZM44.8222 19.2983C44.7382 19.1856 44.7649 19.0156 44.8795 18.9239C44.9999 18.8398 45.168 18.8666 45.2539 18.9869C45.3456 19.0996 45.317 19.2697 45.1966 19.3613C45.1546 19.39 45.0973 19.411 45.0419 19.411C44.9578 19.411 44.8795 19.369 44.8222 19.2983ZM51.7491 19.3403C51.6287 19.2563 51.6001 19.0863 51.686 18.9659C51.7777 18.8456 51.9458 18.8169 52.0662 18.9086C52.1789 18.9926 52.2075 19.155 52.1216 19.2754C52.0662 19.3537 51.9879 19.3881 51.9038 19.3881C51.8465 19.3881 51.7968 19.3747 51.7491 19.3384V19.3403ZM44.1803 18.0489C44.1307 17.9076 44.209 17.7528 44.3504 17.7108C44.4917 17.6611 44.6388 17.7395 44.6885 17.8808C44.7305 18.0222 44.6522 18.1693 44.5128 18.219C44.4917 18.2266 44.4631 18.2323 44.4344 18.2323C44.3217 18.2323 44.2166 18.1616 44.1803 18.0489ZM52.4272 18.1979C52.2859 18.1483 52.2094 18.0012 52.2572 17.8598C52.2992 17.7185 52.4482 17.6401 52.5877 17.6841C52.7291 17.7337 52.8074 17.8808 52.7635 18.0222C52.7214 18.1349 52.6144 18.2056 52.5017 18.2056C52.4807 18.2056 52.4521 18.2056 52.4234 18.1979H52.4272ZM43.9473 16.6525C43.9473 16.5035 44.0676 16.385 44.2147 16.385C44.3637 16.385 44.4822 16.5054 44.4822 16.6525C44.4822 16.8015 44.3618 16.9199 44.2147 16.9199C44.0657 16.9199 43.9549 16.7996 43.9473 16.6525ZM52.4482 16.6315V16.6028V16.5818C52.4482 16.4328 52.5686 16.3144 52.7081 16.3144C52.8571 16.3144 52.9755 16.4271 52.9831 16.5761C52.9831 16.5895 52.9831 16.5971 52.9755 16.6047C52.9755 16.6047 52.9831 16.6257 52.9831 16.6334C52.9831 16.7824 52.8628 16.9008 52.7157 16.9008C52.5667 16.9008 52.4482 16.7805 52.4482 16.6334V16.6315ZM44.3351 15.5942C44.1937 15.5521 44.1154 15.4031 44.1593 15.2637C44.209 15.1223 44.3561 15.044 44.4975 15.0879C44.6388 15.13 44.7152 15.2847 44.6732 15.4261C44.6312 15.5388 44.5242 15.6095 44.4115 15.6095C44.3905 15.6095 44.3618 15.6095 44.3332 15.5961L44.3351 15.5942ZM52.2362 15.3535H52.2439C52.1942 15.2197 52.2649 15.065 52.4062 15.0153C52.5476 14.9733 52.7023 15.044 52.7443 15.1854C52.794 15.3267 52.7157 15.4738 52.582 15.5235C52.5457 15.5369 52.5189 15.5369 52.4903 15.5369C52.3776 15.5369 52.2782 15.4662 52.2362 15.3535ZM44.8566 14.3735C44.7362 14.2894 44.7076 14.1194 44.7936 13.999C44.8776 13.8787 45.0476 13.85 45.168 13.936C45.2883 14.0201 45.317 14.1901 45.231 14.3104C45.1737 14.3811 45.0897 14.4231 45.0132 14.4231C44.9559 14.4231 44.9005 14.4098 44.8585 14.3735H44.8566ZM51.665 14.2531C51.5733 14.1328 51.602 13.9704 51.7223 13.8787C51.8351 13.7946 52.0051 13.8156 52.0891 13.9341H52.0968C52.1808 14.0544 52.1598 14.2168 52.0394 14.3085C51.9898 14.3429 51.9344 14.3658 51.8771 14.3658C51.7987 14.3658 51.7147 14.3238 51.665 14.2531ZM45.7258 13.3705C45.6417 13.2502 45.6685 13.0821 45.7831 12.9961C45.9035 12.9044 46.0716 12.9331 46.1575 13.0515C46.2492 13.1642 46.2206 13.3342 46.1021 13.4259C46.0601 13.4603 46.0028 13.4756 45.9474 13.4756C45.8633 13.4756 45.785 13.4412 45.7296 13.3705H45.7258ZM50.7767 13.3839C50.6563 13.2999 50.6277 13.1298 50.7137 13.0095C50.7977 12.8891 50.9678 12.8605 51.0881 12.9465C51.2085 13.0305 51.2371 13.2005 51.1512 13.3209C51.0939 13.3916 51.0098 13.4336 50.9314 13.4336C50.876 13.4336 50.8187 13.4202 50.7767 13.3839ZM46.8682 12.679C46.8185 12.5376 46.8968 12.3905 47.0382 12.3409C47.1719 12.2988 47.3267 12.3695 47.3763 12.5109C47.4184 12.6523 47.3477 12.807 47.2063 12.849C47.1776 12.8624 47.149 12.8624 47.1223 12.8624C47.0095 12.8624 46.9026 12.7917 46.8682 12.679ZM49.6611 12.828C49.5197 12.786 49.4414 12.637 49.4853 12.4975C49.5273 12.3562 49.6821 12.2797 49.8234 12.3218C49.9648 12.3638 50.0432 12.5128 49.9992 12.6523C49.9572 12.7726 49.8578 12.8433 49.7451 12.8433C49.7165 12.8433 49.6878 12.8356 49.6611 12.8299V12.828ZM48.1576 12.3829C48.1576 12.2339 48.278 12.1155 48.4251 12.1155C48.5741 12.1078 48.6925 12.2282 48.6925 12.3772C48.6925 12.5262 48.5722 12.6446 48.4308 12.6446C48.2818 12.6446 48.1634 12.5319 48.1557 12.3829H48.1576Z" fill="#E2BE74"/>
<path d="M41.2693 9.00536C40.9273 8.66341 40.6886 8.16864 40.7115 7.59554C40.7363 7.02435 41.0534 6.45125 41.4852 6.09402C41.9169 5.72724 42.4232 5.52092 42.9294 5.41012C43.4356 5.30123 43.9495 5.25156 44.4615 5.31078C45.5217 5.43304 46.4177 5.93355 47.134 6.55632C47.8504 7.18673 48.3968 7.94131 48.8056 8.75511C48.8228 8.79141 48.8094 8.83343 48.7731 8.85253C48.7482 8.86591 48.7177 8.86209 48.6967 8.8449C47.9746 8.30045 47.2849 7.76364 46.5552 7.3663C45.8369 6.96513 45.069 6.68431 44.3545 6.66521C43.6095 6.62318 42.8472 6.83331 42.2837 7.15807C42.0105 7.33 41.766 7.51148 41.5979 7.80949C41.4164 8.1056 41.3323 8.5125 41.2674 9.00727L41.2693 9.00536Z" fill="#E2BE74"/>
<path d="M39.8301 4.70146C40.0096 5.14656 40.2885 5.54009 40.6248 5.83237C40.7241 5.48087 40.9132 5.14274 41.1826 4.86001C40.7737 4.73011 40.3229 4.66898 39.8301 4.70146Z" fill="#E2BE74"/>
<path d="M41.0164 3.53992C40.9897 3.99458 41.0431 4.44541 41.1826 4.85996C41.4462 4.5715 41.7901 4.34035 42.1588 4.17224C41.836 3.9258 41.4501 3.7023 41.0164 3.53992Z" fill="#E2BE74"/>
<path d="M42.5183 2.94576C42.3272 3.3412 42.205 3.75383 42.1572 4.17028C42.5317 4.00408 42.929 3.90474 43.3435 3.88564C43.1277 3.55324 42.8583 3.24186 42.5183 2.94385V2.94576Z" fill="#E2BE74"/>
<path d="M44.1098 2.93433C43.8061 3.21514 43.5463 3.53799 43.3457 3.88758C43.7622 3.86657 44.1901 3.91623 44.6065 4.02512C44.4843 3.66789 44.3238 3.2992 44.1098 2.93433Z" fill="#E2BE74"/>
<path d="M45.5864 3.38717C45.233 3.56483 44.9025 3.77305 44.6064 4.02522C45.0248 4.13219 45.4336 4.3003 45.8252 4.50662C45.7736 4.14556 45.6972 3.77305 45.5864 3.38525V3.38717Z" fill="#E2BE74"/>
<path d="M46.8874 4.15698C46.5244 4.23722 46.1652 4.35565 45.8252 4.50657C46.2149 4.71671 46.5913 4.96505 46.937 5.24969C46.9408 4.90201 46.9256 4.53714 46.8854 4.15698H46.8874Z" fill="#E2BE74"/>
<path d="M47.9987 5.14465C47.6453 5.15612 47.2899 5.18668 46.9365 5.24972C47.2861 5.53627 47.6204 5.85338 47.9452 6.18769L47.9987 5.14465Z" fill="#E2BE74"/>
<path d="M48.9654 6.22771C48.633 6.19905 48.2911 6.18377 47.9473 6.18759C48.272 6.51999 48.5853 6.86767 48.8948 7.22108L48.9654 6.22771Z" fill="#E2BE74"/>
<path d="M49.8573 7.35288C49.5441 7.29748 49.2231 7.25354 48.8945 7.22107L49.353 7.75787L49.5803 8.02914L49.693 8.16477L49.7504 8.23354L49.779 8.26793L49.7924 8.28512L49.8 8.29276L49.8039 8.29659V8.30041C49.6988 8.38446 50.0407 8.11319 49.567 8.48762L49.8039 8.30041V8.29467V8.28703V8.27175V8.2431L49.8077 8.18578L49.8134 8.06926L49.8248 7.83428L49.8554 7.35479L49.8573 7.35288Z" fill="#E2BE74"/>
<path d="M23.6996 48.9428C23.5391 48.6429 23.18 48.4423 22.8514 48.5263C22.5343 48.6085 22.3395 48.9084 22.2038 49.2179C22.3356 48.5416 22.4311 47.9915 22.4311 47.8233C22.4311 47.2808 21.9917 46.8414 21.4492 46.8414C20.9067 46.8414 20.4673 47.2808 20.4673 47.8233C20.4673 47.9934 20.5628 48.5416 20.6946 49.2179C20.5571 48.9084 20.3642 48.6104 20.0471 48.5263C19.7185 48.4404 19.3593 48.6429 19.1989 48.9428C19.0384 49.2427 19.0537 49.6114 19.1664 49.9323C19.2791 50.2533 19.4835 50.5322 19.6917 50.7996C20.1024 51.3212 20.5513 51.8083 21.0175 52.282C20.8933 51.7758 20.7099 50.9544 20.7099 50.9544C20.7099 50.9544 20.9774 51.3804 21.2238 51.7815C21.2353 51.8006 21.2467 51.8197 21.2582 51.8389C21.2773 51.6516 21.3002 51.453 21.3212 51.2562C21.3862 50.6602 21.4473 50.1043 21.4473 50.1043C21.4473 50.1043 21.5104 50.6602 21.5734 51.2562C21.5944 51.453 21.6154 51.6516 21.6365 51.8389C21.6479 51.8197 21.6594 51.8006 21.6708 51.7815C21.9173 51.3823 22.1847 50.9544 22.1847 50.9544C22.1847 50.9544 21.9994 51.7758 21.8771 52.282C22.3432 51.8102 22.7922 51.3212 23.2029 50.7996C23.4131 50.5322 23.6156 50.2533 23.7283 49.9323C23.841 49.6114 23.8562 49.2427 23.6958 48.9428H23.6996Z" fill="#E2BE74"/>
<path d="M23.6996 56.9223C23.5391 57.2222 23.18 57.4228 22.8514 57.3387C22.5343 57.2566 22.3395 56.9567 22.2038 56.6472C22.3356 57.3234 22.4311 57.8736 22.4311 58.0417C22.4311 58.5843 21.9917 59.0236 21.4492 59.0236C20.9067 59.0236 20.4673 58.5843 20.4673 58.0417C20.4673 57.8717 20.5628 57.3234 20.6946 56.6472C20.5571 56.9567 20.3642 57.2547 20.0471 57.3387C19.7185 57.4247 19.3593 57.2222 19.1989 56.9223C19.0384 56.6224 19.0537 56.2537 19.1664 55.9327C19.2791 55.6118 19.4835 55.3329 19.6917 55.0654C20.1024 54.5439 20.5513 54.0568 21.0175 53.583C20.8933 54.0892 20.7099 54.9107 20.7099 54.9107C20.7099 54.9107 20.9774 54.4847 21.2238 54.0835C21.2353 54.0644 21.2467 54.0453 21.2582 54.0262C21.2773 54.2134 21.3002 54.4121 21.3212 54.6089C21.3862 55.2049 21.4473 55.7608 21.4473 55.7608C21.4473 55.7608 21.5104 55.2049 21.5734 54.6089C21.5944 54.4121 21.6154 54.2134 21.6365 54.0262C21.6479 54.0453 21.6594 54.0644 21.6708 54.0835C21.9173 54.4828 22.1847 54.9107 22.1847 54.9107C22.1847 54.9107 21.9994 54.0892 21.8771 53.583C22.3432 54.0549 22.7922 54.5439 23.2029 55.0654C23.4131 55.3329 23.6156 55.6118 23.7283 55.9327C23.841 56.2537 23.8562 56.6224 23.6958 56.9223H23.6996Z" fill="#E2BE74"/>
<path d="M25.4379 55.1838C25.7378 55.0234 25.9384 54.6642 25.8543 54.3357C25.7722 54.0185 25.4723 53.8237 25.1628 53.6881C25.8391 53.8199 26.3892 53.9154 26.5573 53.9154C27.0998 53.9154 27.5393 53.476 27.5393 52.9335C27.5393 52.391 27.0998 51.9516 26.5573 51.9516C26.3873 51.9516 25.8391 52.0471 25.1628 52.1789C25.4723 52.0414 25.7703 51.8484 25.8543 51.5313C25.9403 51.2027 25.7378 50.8436 25.4379 50.6831C25.138 50.5226 24.7693 50.5379 24.4483 50.6506C24.1274 50.7633 23.8485 50.9658 23.5811 51.176C23.0595 51.5867 22.5724 52.0356 22.0986 52.5017C22.6049 52.3776 23.4263 52.1942 23.4263 52.1942C23.4263 52.1942 23.0003 52.4616 22.5991 52.7081C22.58 52.7195 22.5609 52.731 22.5418 52.7425C22.7291 52.7616 22.9277 52.7845 23.1245 52.8055C23.7205 52.8704 24.2764 52.9316 24.2764 52.9316C24.2764 52.9316 23.7205 52.9946 23.1245 53.0577C22.9277 53.0787 22.7291 53.0997 22.5418 53.1207C22.5609 53.1322 22.58 53.1436 22.5991 53.1551C22.9984 53.4015 23.4263 53.669 23.4263 53.669C23.4263 53.669 22.6049 53.4837 22.0986 53.3614C22.5705 53.8275 23.0595 54.2764 23.5811 54.6872C23.8485 54.8973 24.1274 55.0998 24.4483 55.2125C24.7693 55.3252 25.138 55.3405 25.4379 55.18V55.1838Z" fill="#E2BE74"/>
<path d="M17.4588 55.1838C17.1589 55.0234 16.9583 54.6642 17.0423 54.3357C17.1245 54.0185 17.4244 53.8237 17.7339 53.6881C17.0576 53.8199 16.5074 53.9154 16.3393 53.9154C15.7968 53.9154 15.3574 53.476 15.3574 52.9335C15.3574 52.391 15.7968 51.9516 16.3393 51.9516C16.5093 51.9516 17.0576 52.0471 17.7339 52.1789C17.4244 52.0414 17.1264 51.8484 17.0423 51.5313C16.9564 51.2027 17.1589 50.8436 17.4588 50.6831C17.7587 50.5226 18.1274 50.5379 18.4483 50.6506C18.7693 50.7633 19.0482 50.9658 19.3156 51.176C19.8371 51.5867 20.3243 52.0356 20.798 52.5017C20.2918 52.3776 19.4704 52.1942 19.4704 52.1942C19.4704 52.1942 19.8964 52.4616 20.2976 52.7081C20.3167 52.7195 20.3357 52.731 20.3548 52.7425C20.1676 52.7616 19.969 52.7845 19.7722 52.8055C19.1762 52.8704 18.6203 52.9316 18.6203 52.9316C18.6203 52.9316 19.1762 52.9946 19.7722 53.0577C19.969 53.0787 20.1676 53.0997 20.3548 53.1207C20.3357 53.1322 20.3167 53.1436 20.2976 53.1551C19.8983 53.4015 19.4704 53.669 19.4704 53.669C19.4704 53.669 20.2918 53.4837 20.798 53.3614C20.3262 53.8275 19.8371 54.2764 19.3156 54.6872C19.0482 54.8973 18.7693 55.0998 18.4483 55.2125C18.1274 55.3252 17.7587 55.3405 17.4588 55.18V55.1838Z" fill="#E2BE74"/>
<path d="M21.8043 52.9335C21.8043 53.1303 21.6438 53.2908 21.4471 53.2908C21.2503 53.2908 21.0898 53.1303 21.0898 52.9335C21.0898 52.7368 21.2503 52.5763 21.4471 52.5763C21.6438 52.5763 21.8043 52.7368 21.8043 52.9335Z" fill="#E2BE74"/>
<path d="M25.446 49.1988C25.425 49.2466 25.3868 49.3039 25.3601 49.3325L25.3295 49.3593L25.2702 49.4109L25.1557 49.5064L24.9283 49.6936L24.4717 50.0604L23.5586 50.7901L24.2253 49.8311L24.5558 49.3517L24.7182 49.1109L24.7965 48.9925L24.8328 48.9352L24.85 48.9085C24.8366 48.918 24.8137 48.9562 24.808 48.9849C24.8672 48.8091 25.0582 48.7136 25.234 48.7709C25.4097 48.8301 25.5052 49.0212 25.4479 49.1969L25.446 49.1988Z" fill="#E2BE74"/>
<path d="M17.5332 49.1988C17.5542 49.2466 17.5925 49.3039 17.6192 49.3325L17.6498 49.3593L17.709 49.4109L17.8236 49.5064L18.051 49.6936L18.5075 50.0604L19.4226 50.7901L18.7559 49.8311L18.4254 49.3517L18.263 49.1109L18.1847 48.9925L18.1484 48.9352L18.1312 48.9085C18.1446 48.918 18.1675 48.9562 18.1732 48.9849C18.114 48.8091 17.923 48.7136 17.7472 48.7709C17.5715 48.8301 17.4759 49.0212 17.5332 49.1969V49.1988Z" fill="#E2BE74"/>
<path d="M17.5332 56.6663C17.5542 56.6185 17.5925 56.5612 17.6192 56.5325L17.6498 56.5058L17.709 56.4542L17.8236 56.3587L18.051 56.1715L18.5075 55.8047L19.4226 55.075L18.7559 56.0339L18.4254 56.5134L18.263 56.7541L18.1847 56.8726L18.1484 56.9299L18.1312 56.9566C18.1446 56.9471 18.1675 56.9089 18.1732 56.8802C18.114 57.056 17.923 57.1515 17.7472 57.0942C17.5715 57.035 17.4759 56.8439 17.5332 56.6682V56.6663Z" fill="#E2BE74"/>
<path d="M25.446 56.6663C25.425 56.6185 25.3868 56.5612 25.3601 56.5325L25.3295 56.5058L25.2702 56.4542L25.1557 56.3587L24.9283 56.1715L24.4717 55.8047L23.5586 55.075L24.2253 56.0339L24.5558 56.5134L24.7182 56.7541L24.7965 56.8726L24.8328 56.9299L24.85 56.9566C24.8366 56.9471 24.8137 56.9089 24.808 56.8802C24.8672 57.056 25.0582 57.1515 25.234 57.0942C25.4097 57.035 25.5052 56.8439 25.4479 56.6682L25.446 56.6663Z" fill="#E2BE74"/>
<path d="M82.0701 37.6564C82.1905 37.9564 82.5095 38.1837 82.8285 38.1378C83.138 38.092 83.352 37.8284 83.5143 37.5514C83.3195 38.178 83.1724 38.688 83.1552 38.8466C83.0998 39.3585 83.4685 39.8208 83.9824 39.8762C84.4962 39.9316 84.9567 39.563 85.0121 39.0491C85.0293 38.8886 84.9968 38.3594 84.9414 37.7061C85.0388 38.0118 85.1916 38.3155 85.4839 38.4263C85.7857 38.5409 86.1468 38.3881 86.3283 38.1206C86.5097 37.8532 86.5346 37.5036 86.462 37.1884C86.3875 36.8732 86.2251 36.5886 86.0532 36.3135C85.7189 35.7786 85.3444 35.2704 84.9528 34.7738C85.0178 35.2647 85.1057 36.0632 85.1057 36.0632C85.1057 36.0632 84.8955 35.6315 84.7045 35.2284C84.6949 35.2093 84.6873 35.1902 84.6778 35.1711C84.6395 35.3468 84.5994 35.5322 84.5574 35.7155C84.4332 36.2734 84.3186 36.793 84.3186 36.793C84.3186 36.793 84.3186 36.26 84.3186 35.6888C84.3186 35.5016 84.3186 35.3106 84.3186 35.131C84.3052 35.1482 84.2938 35.1635 84.2804 35.1807C84.0053 35.5341 83.7073 35.9085 83.7073 35.9085C83.7073 35.9085 83.9671 35.1501 84.1371 34.684C83.6481 35.0832 83.1724 35.4978 82.7292 35.9486C82.5038 36.1797 82.2822 36.4224 82.1408 36.7146C81.9995 37.0069 81.9479 37.3527 82.0682 37.6526L82.0701 37.6564Z" fill="#E2BE74"/>
<path d="M84.1961 33.9677C84.2228 33.727 84.4386 33.5531 84.6793 33.5799C84.92 33.6066 85.0939 33.8225 85.0672 34.0632C85.0404 34.3039 84.8245 34.4777 84.5838 34.451C84.3431 34.4242 84.1693 34.2084 84.1961 33.9677Z" fill="#E2BE74"/>
<path d="M84.3645 29.041C84.6282 26.103 84.823 23.5813 83.3616 20.3127C82.6242 23.2126 82.9643 26.3914 84.3645 29.041Z" fill="#E2BE74"/>
<path d="M51.485 66.8597C51.1315 67.0736 50.8774 67.3927 50.7399 67.7499C50.3158 67.3334 49.6969 67.1367 49.0741 67.2819C48.1094 67.5073 47.5114 68.4739 47.7369 69.4386C47.8305 69.8417 48.0559 70.1798 48.3539 70.4224C47.8266 70.6975 47.4484 71.2267 47.393 71.8609C47.3109 72.8486 48.0444 73.7159 49.0302 73.7999C49.4428 73.8343 49.8325 73.7254 50.1553 73.5153C50.2547 74.1017 50.6406 74.6252 51.227 74.8735C52.1402 75.2575 53.1928 74.8296 53.5768 73.9164C53.7372 73.5344 53.7544 73.1294 53.6551 72.7588C54.2434 72.8447 54.8605 72.6403 55.2769 72.1589C55.9245 71.4082 55.8424 70.2753 55.0916 69.6277C54.7783 69.3565 54.3982 69.2151 54.0142 69.1941C54.2779 68.6611 54.274 68.0097 53.9454 67.4653C53.4316 66.6171 52.3293 66.3458 51.4811 66.8597H51.485ZM52.6541 68.9343C52.7782 69.1387 52.7954 69.3947 52.7037 69.6163C52.698 69.6297 52.6903 69.6449 52.6827 69.6602L52.5108 70.0079L52.8986 70.0289C53.0686 70.0385 53.2233 70.1015 53.3513 70.2104C53.5997 70.4244 53.6799 70.772 53.5538 71.0739C53.5232 71.1465 53.4812 71.2133 53.4297 71.2745C53.2616 71.4693 53.0056 71.5648 52.7477 71.5266L52.3637 71.4693L52.463 71.8456C52.507 72.008 52.4955 72.1761 52.4306 72.3309C52.3522 72.5162 52.207 72.6614 52.0217 72.7359C51.8345 72.8123 51.6301 72.8104 51.4448 72.7339C51.206 72.6327 51.0379 72.4207 50.994 72.1628L50.929 71.7788L50.6024 71.9908C50.461 72.0825 50.2986 72.1246 50.1305 72.1093C49.716 72.0749 49.4084 71.71 49.4428 71.2955C49.4485 71.2171 49.4676 71.1407 49.4982 71.0681C49.565 70.9077 49.6892 70.7739 49.8459 70.6918L50.1897 70.5122L49.8879 70.2677C49.7561 70.1607 49.6663 70.0194 49.6281 69.8551C49.5918 69.6984 49.6052 69.538 49.6663 69.3909C49.7599 69.1693 49.9548 69.0031 50.1897 68.9496C50.4419 68.8904 50.7036 68.963 50.8889 69.1463L51.1659 69.4176L51.3054 69.0546L51.3149 69.0317C51.376 68.8827 51.4811 68.7624 51.6187 68.6802C51.7906 68.5771 51.9931 68.5446 52.1899 68.5923C52.3847 68.6401 52.5509 68.7624 52.6541 68.9343Z" fill="#E2BE74"/>
<path d="M51.7009 70.0117C51.9817 70.1282 52.1135 70.453 51.9951 70.7319C51.8766 71.0127 51.5538 71.1445 51.273 71.0261C50.9941 70.9077 50.8603 70.5848 50.9788 70.304C51.0972 70.0232 51.4201 69.8914 51.699 70.0098L51.7009 70.0117Z" fill="#E2BE74"/>
<path d="M71.76 45.5844C71.6454 46.2377 71.5728 46.8203 71.6778 47.4718C71.7829 48.1098 72.0656 48.8357 72.6846 49.5827C73.038 48.0697 72.6254 46.7917 71.7581 45.5844H71.76Z" fill="#E2BE74"/>
<path d="M73.8173 45.3818C73.7485 45.9282 73.7294 46.4249 73.8918 46.9426C74.0523 47.4507 74.3961 47.9971 75.0514 48.4976C75.2481 47.1756 74.7878 46.2243 73.8173 45.3818Z" fill="#E2BE74"/>
<path d="M75.8769 44.8623C75.8196 45.3055 75.8292 45.7162 76.0087 46.1002C76.1883 46.4804 76.5475 46.849 77.1798 47.1108C77.2868 45.9875 76.8588 45.3456 75.8769 44.8623Z" fill="#E2BE74"/>
<path d="M77.8864 44.0236C77.8176 44.3789 77.8252 44.7017 77.9934 44.9615C78.1596 45.2175 78.492 45.4219 79.0479 45.462C79.0899 45.0016 79.025 44.6731 78.8416 44.4496C78.6563 44.2222 78.3506 44.1038 77.8883 44.0236H77.8864Z" fill="#E2BE74"/>
<path d="M79.795 42.8736C79.69 43.1563 79.6747 43.4009 79.7989 43.5499C79.9211 43.697 80.1924 43.7543 80.6184 43.5976C80.6795 43.2309 80.6547 42.9978 80.5381 42.8946C80.414 42.7838 80.1962 42.8068 79.795 42.8736Z" fill="#E2BE74"/>
<path d="M53.8754 10.8336C53.606 10.9329 53.4398 11.0112 53.3252 11.1507C53.2106 11.2901 53.159 11.4888 53.0635 11.8671C53.4608 11.7658 53.9518 11.294 53.8754 10.8317V10.8336Z" fill="#E2BE74"/>
<path d="M54.9169 11.4697C54.5769 11.571 54.3438 11.6741 54.147 11.8537C53.9484 12.0333 53.7936 12.2912 53.5605 12.7114C54.1069 12.5395 54.7813 12.0753 54.9169 11.4697Z" fill="#E2BE74"/>
<path d="M55.7819 12.3485C55.4018 12.4115 55.1076 12.5089 54.842 12.6847C54.5708 12.8624 54.3301 13.1279 53.9805 13.5367C54.6548 13.3762 55.4495 12.998 55.7819 12.3466V12.3485Z" fill="#E2BE74"/>
<path d="M56.4429 13.403C55.6233 13.4182 55.1801 13.6417 54.3281 14.3639C55.0789 14.2798 55.9519 14.0276 56.4429 13.403Z" fill="#E2BE74"/>
<path d="M56.8711 14.5835C56.063 14.4632 55.551 14.6294 54.6016 15.1986C55.3791 15.2292 56.2559 15.1299 56.8711 14.5835Z" fill="#E2BE74"/>
<path d="M57.0367 15.8291C56.3127 15.5789 55.7644 15.6553 54.7959 16.0622C55.5486 16.2207 56.3547 16.2628 57.0367 15.8291Z" fill="#E2BE74"/>
<path d="M56.9391 17.065C56.3526 16.7173 55.8197 16.6963 54.9199 16.9619C55.5847 17.2389 56.2437 17.384 56.9391 17.065Z" fill="#E2BE74"/>
<path d="M56.5804 18.2361C56.3874 18.0413 56.1697 17.9114 55.9098 17.8579C55.652 17.8044 55.3329 17.8216 54.9795 17.9095C55.4915 18.2705 55.9328 18.4558 56.5804 18.2361Z" fill="#E2BE74"/>
<path d="M55.9537 19.2715C55.8391 18.9142 55.4493 18.7366 54.9756 18.9162C55.2698 19.3059 55.4322 19.43 55.9537 19.2715Z" fill="#E2BE74"/>
</svg>
