<svg width="91" height="64" viewBox="0 0 91 64" fill="none" xmlns="http://www.w3.org/2000/svg">
<path d="M44.022 63.8234H27.0342C27.0342 63.8234 28.8522 58.2427 44.022 58.2427C59.1917 58.2427 44.022 63.8234 44.022 63.8234Z" fill="#231F20"/>
<path d="M28.8744 30.4354C35.6363 30.4222 41.1074 24.9303 41.0941 18.1685C41.0809 11.4066 35.589 5.93553 28.8272 5.94875C22.0653 5.96198 16.5942 11.4539 16.6074 18.2157C16.6207 24.9776 22.1126 30.4487 28.8744 30.4354Z" fill="#231F20"/>
<path d="M45.5346 21.0676C46.9417 14.4533 42.7204 7.95063 36.1061 6.54351C29.4918 5.13638 22.9891 9.35765 21.582 15.972C20.1749 22.5863 24.3961 29.0889 31.0105 30.4961C37.6248 31.9032 44.1274 27.6819 45.5346 21.0676Z" fill="#E2BE74"/>
<path d="M57.9669 60.7278C62.0791 60.7372 66.148 60.5823 70.0089 59.6317C71.9517 59.1592 73.7546 58.4864 75.5915 57.5944C77.4096 56.7308 79.1501 55.7348 80.7376 54.5631C82.3213 53.3895 83.7405 52.0269 84.8555 50.4565C85.9724 48.8974 86.7605 47.0982 87.2443 45.216C88.1854 41.4419 87.8585 37.3202 86.3731 33.6709C84.9066 30.0065 82.2759 26.8221 79.0877 24.4012C77.487 23.1936 75.7503 22.1542 73.9115 21.3321C72.0821 20.4949 70.1356 19.8996 68.1437 19.3459C66.1537 18.7903 64.1183 18.2763 62.1132 17.5676C60.1213 16.8532 58.1124 15.9914 56.3813 14.6213C54.6691 13.2719 53.2309 11.5541 52.337 9.52816C51.8986 8.51521 51.6038 7.42099 51.5489 6.29464C51.4941 5.17019 51.6926 4.02305 52.1348 2.98364C52.2614 2.68504 52.6054 2.54331 52.9059 2.66993C53.2026 2.79466 53.3424 3.13861 53.2215 3.4372C52.4882 5.20799 52.6923 7.24146 53.5182 9.0009C54.3365 10.7717 55.6726 12.3157 57.243 13.5044C58.8041 14.6969 60.6882 15.4755 62.6083 16.1237C64.5378 16.7663 66.5467 17.2349 68.5708 17.7603C70.591 18.2819 72.6471 18.8659 74.6201 19.722C76.5931 20.5592 78.4679 21.6326 80.2084 22.8969C83.6744 25.4293 86.6131 28.8197 88.3215 32.8639C90.0394 36.8818 90.5081 41.4457 89.5197 45.7659C89.0094 47.9184 88.1439 50.0067 86.8739 51.8569C85.6134 53.7051 84.0202 55.2794 82.2929 56.6136C80.558 57.944 78.6909 59.0534 76.7746 60.0096C74.8923 60.9735 72.7946 61.8031 70.7044 62.3436C66.49 63.4567 62.1774 63.6778 57.9914 63.744C57.158 63.7572 56.472 63.0939 56.4569 62.2605C56.4436 61.427 57.107 60.741 57.9404 60.7259C57.9461 60.7259 57.9631 60.7259 57.9687 60.7259L57.9669 60.7278Z" fill="#231F20"/>
<path d="M59.4433 24.6753L3.21484 24.7868L16.3814 39.0759L39.4885 63.8309L57.5629 63.795L57.5686 63.6968C58.2093 63.7591 58.8613 63.7913 59.5189 63.7913C70.3213 63.7705 79.0599 54.9978 79.0391 44.1974C79.0183 33.395 70.2457 24.6564 59.4414 24.6772L59.4433 24.6753Z" fill="#231F20"/>
<path d="M37.0633 30.4203C41.4175 30.4109 45.2388 28.1298 47.4026 24.6979L26.7051 24.7395C28.8822 28.162 32.7091 30.4298 37.0633 30.4203Z" fill="#E2BE74"/>
<path d="M5.35515 26.6434C6.33525 25.6633 6.33526 24.0742 5.35516 23.0941C4.37505 22.114 2.78599 22.114 1.80588 23.0941C0.82578 24.0742 0.825785 25.6633 1.80589 26.6434C2.78599 27.6235 4.37505 27.6235 5.35515 26.6434Z" fill="#231F20"/>
<path d="M19.4195 30.0519C20.166 30.0519 20.7707 29.4434 20.7688 28.6969C20.7688 27.9504 20.1603 27.3456 19.4138 27.3475C18.6673 27.3475 18.0626 27.9561 18.0645 28.7026C18.0645 29.449 18.673 30.0538 19.4195 30.0519Z" fill="#E2BE74"/>
<path d="M43.3989 26.8382C48.1806 22.0565 48.1806 14.3038 43.3989 9.52215C38.6172 4.74046 30.8645 4.74047 26.0828 9.52216C21.3011 14.3039 21.3011 22.0565 26.0828 26.8382C30.8645 31.6199 38.6172 31.6199 43.3989 26.8382Z" fill="#231F20"/>
<path d="M18.9321 37.1444C18.8925 37.1444 18.8528 37.1293 18.8225 37.0971L14.4551 32.571C14.4116 32.5256 14.4003 32.4595 14.4249 32.4028C14.4494 32.3461 14.5269 32.3064 14.5685 32.3121L20.7993 32.4708C20.8844 32.4727 20.9505 32.5426 20.9486 32.6277C20.9467 32.7127 20.8579 32.7751 20.7918 32.777L14.9332 32.6277L19.0399 36.8855C19.0985 36.946 19.0966 37.0423 19.0361 37.1009C19.0059 37.1293 18.9681 37.1444 18.9303 37.1444H18.9321Z" fill="#E2BE74"/>
<path d="M20.7634 35.5154C20.7407 35.5154 20.7199 35.5116 20.6992 35.5003L14.5005 32.6031C14.423 32.5672 14.3909 32.4765 14.4268 32.399C14.4627 32.3216 14.5553 32.2894 14.6309 32.3253L20.8296 35.2225C20.907 35.2584 20.9392 35.3491 20.9033 35.4266C20.8768 35.4814 20.822 35.5154 20.7653 35.5154H20.7634Z" fill="#E2BE74"/>
<path d="M42.9458 22.3959C45.268 17.8638 43.4766 12.3074 38.9445 9.98521C34.4124 7.66303 28.8559 9.45451 26.5338 13.9866C24.2116 18.5187 26.0031 24.0751 30.5351 26.3973C35.0672 28.7195 40.6237 26.928 42.9458 22.3959Z" fill="#E2BE74"/>
<mask id="mask0_978_7656" style="mask-type:luminance" maskUnits="userSpaceOnUse" x="25" y="8" width="19" height="20">
<path d="M42.9458 22.3959C45.268 17.8638 43.4766 12.3074 38.9445 9.98521C34.4124 7.66303 28.8559 9.45451 26.5338 13.9866C24.2116 18.5187 26.0031 24.0751 30.5351 26.3973C35.0672 28.7195 40.6237 26.928 42.9458 22.3959Z" fill="white"/>
</mask>
<g mask="url(#mask0_978_7656)">
<path d="M27.7993 25.2593L20.1228 26.3724L27.8636 25.8583L20.4856 28.2547L28.0261 26.4385L21.1603 30.0462L28.2869 26.9847L22.1279 31.6998L28.6346 27.476L23.3619 33.1664L29.0598 27.9031L24.8247 34.4023L29.5531 28.2528L26.4764 35.3737L30.0974 28.5136L28.268 36.0503L30.6775 28.678L30.1484 36.4169L31.2766 28.7422L32.0647 36.4585L31.8795 28.7044L33.9583 36.1769L32.4653 28.5665L35.7782 35.5797L33.0209 28.3302L37.4715 34.682L33.5274 28.0033L38.9891 33.5122L33.9734 27.5951L40.2855 32.1024L34.3419 27.1189L41.3249 30.4941L34.6254 26.5859L42.079 28.7328L34.8144 26.0133L42.525 26.8694L34.9051 25.4161L42.6478 24.9569L34.8919 24.8132L42.4475 23.0519L34.7785 24.2198L41.9259 21.2093L34.5668 23.6567L41.1019 19.4801L34.2607 23.1351L39.9982 17.9134L33.8733 22.6739L38.6432 16.5584L33.4121 22.2846L37.0803 15.451L32.8924 21.9785L35.353 14.6232L32.3274 21.7649L33.5104 14.0997L31.7358 21.6496L31.6054 13.8956L31.133 21.6364L29.6948 14.0147L30.5358 21.7252L27.8295 14.4569L29.9632 21.9142L26.0663 15.2072L29.4302 22.1958L24.4562 16.2447L28.9521 22.5643L23.0445 17.5392L28.5439 23.0084L21.8709 19.053L28.2151 23.5149L20.9713 20.7444L27.9788 24.0705L20.3703 22.5624L27.839 24.6564L20.085 24.458L27.7993 25.2593Z" fill="#231F20"/>
</g>
<mask id="mask1_978_7656" style="mask-type:luminance" maskUnits="userSpaceOnUse" x="28" y="24" width="52" height="40">
<path d="M41.8726 63.8233C41.8726 63.8233 58.8623 63.7893 59.5199 63.7893C70.3223 63.7685 79.0609 54.9958 79.0401 44.1954C79.0193 33.393 70.2467 24.6544 59.4425 24.6752L45.5786 24.7017C45.554 32.6503 41.6685 40.7143 35.689 45.917C32.5084 48.7424 32.6445 49.3169 28.502 50.6719C28.536 51.9778 41.8707 63.8233 41.8707 63.8233H41.8726Z" fill="white"/>
</mask>
<g mask="url(#mask1_978_7656)">
<path d="M63.0828 62.9785C63.2662 62.4947 63.3569 61.9523 63.3191 61.4704C63.2737 60.9734 63.098 60.535 62.8126 60.1853C62.2664 59.5428 61.5955 59.2669 61.1174 59.0892C61.4085 59.3236 61.777 59.5825 62.2116 59.8471C61.6938 59.762 61.1571 59.4729 60.7281 58.9834C61.1136 59.4974 61.6031 60.019 62.1379 60.6276C61.8167 60.4424 61.5313 60.2213 61.2762 59.9472C61.0172 59.6675 60.7961 59.3519 60.6053 59.008C60.9587 59.6959 61.3272 60.4386 61.6088 61.2304C61.1174 60.5879 60.7678 59.8074 60.4824 59.0363C60.6072 59.4351 60.713 59.8395 60.7848 60.2515L62.3023 65.0763C62.3345 64.7777 62.4932 64.4205 62.652 64.0463C62.8069 63.6608 62.9808 63.3017 63.0828 62.9785Z" fill="#E2BE74"/>
<path d="M66.1685 59.6392C66.4614 59.4975 66.8526 59.3028 67.2117 59.1063C67.5708 58.9117 67.9336 58.7264 68.2265 58.6792L68.202 58.6565L63.2657 57.5547C63.6437 57.6946 64.0103 57.8628 64.3561 58.0744C63.5397 57.8722 62.763 57.585 62.026 57.3412C62.3869 57.4867 62.729 57.6662 63.0484 57.8817C63.3507 58.0915 63.6285 58.3371 63.8723 58.6168C63.1939 58.1878 62.5646 57.7966 61.9844 57.4999C62.266 57.6776 62.5041 57.8798 62.7195 58.1104C62.9161 58.3315 63.0843 58.579 63.2033 58.8285C62.7857 58.3995 62.3983 58.0574 62.0486 57.7929C62.0921 57.9157 62.1488 58.0461 62.2338 58.1973C62.3075 58.3409 62.3945 58.4959 62.5041 58.6603C62.7233 58.9872 62.9784 59.3236 63.3583 59.5882C63.7306 59.8471 64.1898 59.9945 64.6755 59.9889C65.1744 59.9983 65.6847 59.849 66.1685 59.6355V59.6392Z" fill="#E2BE74"/>
<path d="M63.5361 60.2988C63.7743 60.6673 63.933 61.1303 63.9576 61.5933C63.9727 61.8258 63.9689 62.0752 63.9349 62.3133C63.899 62.5477 63.8461 62.7839 63.7799 63.0107C63.7346 63.1864 63.6401 63.4378 63.5418 63.7269C64.4149 63.7269 65.4411 63.2639 66.1271 62.4551C66.7526 61.7332 67.0626 60.7845 67.0248 59.9907C66.7224 60.1287 66.4295 60.2477 66.2537 60.3196C65.3787 60.6805 64.3242 60.7467 63.538 60.2988H63.5361Z" fill="#E2BE74"/>
<path d="M55.9971 62.8085C56.2485 62.7726 56.5112 62.6932 56.7531 62.6044C56.9931 62.5155 57.2198 62.4021 57.424 62.2547C57.8303 61.9694 58.1175 61.6103 58.2782 61.1775C58.4275 60.7826 58.4596 60.4065 58.4653 60.0587C58.4653 59.8868 58.4558 59.7261 58.4388 59.5806C58.4237 59.4294 58.4086 59.2839 58.3821 59.1611C58.3538 59.3444 58.3292 59.5485 58.3065 59.7753C58.2876 59.9964 58.2782 60.2269 58.2706 60.4839C58.0778 60.0077 58.0778 59.3746 58.2782 58.7755C58.0363 59.3482 57.8076 60.0644 57.56 60.8071C57.5487 60.4575 57.611 60.0776 57.7188 59.7242C57.8246 59.3727 57.9928 59.0174 58.1988 58.6773C57.7736 59.3311 57.3143 60.0228 56.7701 60.6578C57.0913 59.8981 57.5789 59.2234 58.1081 58.5903C57.8227 58.9003 57.5279 59.1894 57.2085 59.4559L53.7822 63.177C54.0487 63.0636 54.4475 63.0126 54.8519 62.9634C55.2506 62.9256 55.6702 62.8652 55.9915 62.8085H55.9971Z" fill="#E2BE74"/>
<path d="M60.4328 63.8063C60.7049 63.9971 61.0659 64.239 61.4174 64.445C61.7689 64.6662 62.1109 64.8873 62.2961 65.1084L62.3018 65.0744L60.7843 60.2496C60.8561 60.654 60.8939 61.0603 60.8825 61.4591C60.6501 60.6502 60.5102 59.8376 60.3515 59.0779C60.4611 59.8433 60.4176 60.6238 60.1701 61.3041C60.2022 60.499 60.2324 59.7809 60.1927 59.1119C60.172 59.7828 59.9679 60.3743 59.6541 60.8354C59.8167 60.2477 59.9206 59.7696 59.9754 59.3141C59.8091 59.5144 59.6277 59.8055 59.4519 60.1419C59.2781 60.4934 59.1118 60.894 59.074 61.3514C59.0362 61.8106 59.1401 62.2623 59.3858 62.6913C59.5067 62.9105 59.6617 63.1146 59.8412 63.296C60.0208 63.4774 60.2249 63.6664 60.4365 63.8044L60.4328 63.8063Z" fill="#E2BE74"/>
<path d="M58.5452 61.8635C58.3449 62.2566 58.0311 62.6006 57.6362 62.8765C57.2506 63.1278 56.7744 63.3319 56.3227 63.4245C56.1526 63.4604 55.8711 63.536 55.5781 63.5795C56.0203 64.3317 56.9426 64.9855 57.9782 65.1783C58.908 65.373 59.8889 65.1537 60.556 64.7228C60.2857 64.5433 60.0363 64.3373 59.887 64.2202C59.5185 63.9461 59.1764 63.5568 58.9364 63.1675C58.6983 62.748 58.5603 62.3076 58.5471 61.8635H58.5452Z" fill="#E2BE74"/>
<path d="M52.6016 56.5852C52.9455 56.9858 53.3424 57.3392 53.7978 57.5452C54.2363 57.7569 54.7125 57.8211 55.1604 57.7474C55.5781 57.6794 55.9201 57.5206 56.2168 57.3506C56.523 57.1786 56.7517 56.9991 56.9577 56.8309C56.5967 56.965 56.2055 57.1502 55.7519 57.3959C55.9239 57.1937 56.1242 57.0142 56.385 56.8686C56.6269 56.7231 56.9293 56.6154 57.243 56.5512C56.9331 56.5908 56.591 56.6475 56.232 56.7175C55.871 56.7912 55.5006 56.8668 55.1188 56.9442C55.4231 56.759 55.7652 56.6249 56.1375 56.5417C56.506 56.4586 56.8764 56.4245 57.2827 56.434C56.5003 56.3943 55.6782 56.3414 54.8505 56.1864C55.6745 56.0863 56.506 56.1713 57.3186 56.3112C56.9104 56.2185 56.506 56.107 56.1091 55.9615L51.1729 54.8597C51.4148 55.0355 51.6585 55.3549 51.8967 55.678C52.131 56.0031 52.3975 56.3376 52.5978 56.5871L52.6016 56.5852Z" fill="#E2BE74"/>
<path d="M53.9581 60.9243C53.9127 61.2663 53.9127 61.6764 53.89 62.096C53.873 62.5099 53.8636 62.9067 53.7559 63.1864L53.788 63.1751L57.2143 59.454C56.9043 59.7129 56.5717 59.9472 56.2127 60.1438C56.7966 59.5409 57.4354 59.0099 58.0175 58.4921C57.7075 58.734 57.3768 58.9475 57.0423 59.1044C56.7059 59.2631 56.3412 59.3897 55.9915 59.4483C56.6889 59.0874 57.356 58.7302 57.9022 58.3768C57.3182 58.6848 56.6832 58.8152 56.1408 58.7623C56.7116 58.6224 57.2067 58.4561 57.6168 58.2842C57.356 58.2407 57.0196 58.2218 56.6322 58.2426C56.2542 58.2615 55.812 58.3239 55.3981 58.5204C54.9899 58.7132 54.646 59.0325 54.3908 59.4634C54.1527 59.8811 53.9996 60.4121 53.9581 60.9262V60.9243Z" fill="#E2BE74"/>
<path d="M54.699 58.3182C54.2416 58.3466 53.8013 58.2445 53.3666 58.0385C53.1436 57.9365 52.9546 57.8061 52.76 57.6587C52.5691 57.5113 52.382 57.3468 52.2308 57.173C52.1099 57.0388 51.9228 56.829 51.7225 56.6041C51.2954 57.3638 51.1858 58.4883 51.5448 59.4861C51.8585 60.3857 52.5049 61.1341 53.2268 61.4875C53.2646 61.1549 53.2873 60.8563 53.3251 60.6597C53.3629 60.4273 53.4139 60.191 53.4819 59.9662C53.5556 59.7375 53.6558 59.5126 53.7692 59.3066C53.9884 58.8984 54.3286 58.5488 54.7009 58.3163L54.699 58.3182Z" fill="#E2BE74"/>
<path d="M56.2964 50.5377C56.1131 51.0215 56.0224 51.5639 56.0602 52.0458C56.1056 52.5428 56.2813 52.9812 56.5667 53.3309C57.1129 53.9753 57.7837 54.2493 58.2619 54.427C57.9708 54.1926 57.6023 53.9337 57.1677 53.6691C57.6855 53.7542 58.2222 54.0433 58.6512 54.5328C58.2657 54.0188 57.7762 53.4972 57.2414 52.8886C57.5626 53.0719 57.848 53.295 58.1031 53.569C58.362 53.8487 58.5832 54.1643 58.774 54.5082C58.4206 53.8203 58.0521 53.0776 57.7705 52.2858C58.2619 52.9283 58.6115 53.7088 58.8969 54.4799C58.7721 54.0811 58.6663 53.6767 58.5945 53.2647L57.0769 48.4399C57.0448 48.7385 56.8861 49.0957 56.7273 49.4699C56.5724 49.8554 56.3985 50.2145 56.2964 50.5377Z" fill="#E2BE74"/>
<path d="M53.2104 53.877C52.9175 54.0188 52.5263 54.2134 52.1672 54.41C51.8081 54.6046 51.4453 54.7898 51.1523 54.8371L51.1769 54.8597L56.1132 55.9615C55.7352 55.8217 55.3686 55.6535 55.0227 55.4418C55.8391 55.644 56.6159 55.9313 57.3529 56.1751C56.992 56.0296 56.6499 55.85 56.3305 55.6346C56.0281 55.4248 55.7503 55.1791 55.5065 54.8994C56.185 55.3284 56.8143 55.7196 57.3945 56.0163C57.1129 55.8387 56.8748 55.6365 56.6593 55.4059C56.4628 55.1848 56.2946 54.9372 56.1755 54.6878C56.5932 55.1168 56.9806 55.4588 57.3302 55.7234C57.2868 55.6006 57.2301 55.4702 57.145 55.319C57.0713 55.1754 56.9844 55.0204 56.8748 54.856C56.6556 54.529 56.4004 54.1926 56.0206 53.928C55.6483 53.6691 55.189 53.5217 54.7034 53.5274C54.2044 53.518 53.6942 53.6672 53.2104 53.8808V53.877Z" fill="#E2BE74"/>
<path d="M55.8423 53.2175C55.6042 52.849 55.4455 52.3859 55.4209 51.9229C55.4058 51.6905 55.4095 51.441 55.4436 51.2029C55.4795 50.9686 55.5324 50.7323 55.5985 50.5056C55.6439 50.3298 55.7384 50.0785 55.8367 49.7893C54.9635 49.7893 53.9374 50.2523 53.2513 51.0612C52.6258 51.7831 52.3159 52.7318 52.3537 53.5255C52.656 53.3876 52.949 53.2685 53.1247 53.1967C53.9997 52.8357 55.0543 52.7696 55.8404 53.2175H55.8423Z" fill="#E2BE74"/>
<path d="M63.3812 50.7078C63.1299 50.7437 62.8653 50.8231 62.6253 50.9119C62.3853 51.0007 62.1585 51.1141 61.9544 51.2615C61.5481 51.5469 61.2608 51.9079 61.1002 52.3388C60.9509 52.7337 60.9188 53.1098 60.9131 53.4575C60.9131 53.6295 60.9225 53.7902 60.9395 53.9357C60.9547 54.0869 60.9698 54.2324 60.9962 54.3552C61.0246 54.1719 61.0491 53.9678 61.0718 53.741C61.0907 53.5199 61.1002 53.2893 61.1077 53.0323C61.3005 53.5086 61.3005 54.1417 61.1002 54.7407C61.3421 54.1681 61.5707 53.4519 61.8183 52.7073C61.8297 53.0588 61.7673 53.4367 61.6596 53.7901C61.5537 54.1417 61.3837 54.4969 61.1795 54.8371C61.6048 54.1832 62.064 53.4916 62.6083 52.8566C62.287 53.6163 61.7994 54.291 61.2703 54.9241C61.5556 54.6141 61.8504 54.325 62.1698 54.0585L65.5961 50.3374C65.3296 50.4508 64.9309 50.5018 64.5265 50.551C64.1277 50.5888 63.7082 50.6492 63.3869 50.7059L63.3812 50.7078Z" fill="#E2BE74"/>
<path d="M58.9452 49.7099C58.6731 49.5191 58.3121 49.2791 57.9606 49.0712C57.6091 48.8501 57.267 48.6289 57.0818 48.4078L57.0762 48.4419L58.5937 53.2666C58.5219 52.8622 58.4841 52.4559 58.4955 52.0571C58.7279 52.866 58.8677 53.6786 59.0265 54.4383C58.9169 53.6729 58.9603 52.8924 59.2079 52.2121C59.1758 53.0172 59.1456 53.7353 59.1852 54.4043C59.206 53.7334 59.4082 53.1419 59.7238 52.6808C59.5613 53.2685 59.4574 53.7466 59.4026 54.2021C59.5689 54.0018 59.7503 53.7107 59.9261 53.3743C60.0999 53.0228 60.2662 52.6222 60.304 52.1648C60.3418 51.7056 60.2379 51.2539 59.9922 50.8249C59.8713 50.6057 59.7163 50.4016 59.5367 50.2202C59.3572 50.0388 59.1531 49.8498 58.9415 49.7118L58.9452 49.7099Z" fill="#E2BE74"/>
<path d="M60.8341 51.6527C61.0344 51.2596 61.3481 50.9157 61.7431 50.6397C62.1286 50.3884 62.6049 50.1843 63.0565 50.0917C63.2266 50.0558 63.5082 49.9802 63.8011 49.9367C63.3589 49.1845 62.4367 48.5307 61.4029 48.3379C60.4731 48.1433 59.4923 48.3625 58.8252 48.7934C59.0954 48.9729 59.3449 49.1789 59.4942 49.2961C59.8627 49.5701 60.2048 49.9594 60.4448 50.3487C60.6829 50.7682 60.8209 51.2086 60.8341 51.6527Z" fill="#E2BE74"/>
<path d="M66.7776 56.931C66.4336 56.5303 66.0368 56.1769 65.5813 55.9709C65.1429 55.7593 64.6666 55.695 64.2187 55.7687C63.8011 55.8368 63.459 55.9955 63.1623 56.1637C62.8562 56.3357 62.6275 56.5152 62.4215 56.6834C62.7825 56.5473 63.1737 56.364 63.6272 56.1184C63.4552 56.3206 63.2549 56.5001 62.9941 56.6475C62.7522 56.793 62.4498 56.9007 62.1361 56.965C62.4461 56.9253 62.7881 56.8686 63.1472 56.7987C63.5082 56.725 63.8786 56.6494 64.2603 56.5719C63.9561 56.7571 63.614 56.8913 63.2417 56.9744C62.8732 57.0576 62.5028 57.0916 62.0965 57.0822C62.8788 57.1219 63.7009 57.1748 64.5287 57.3297C63.7047 57.4299 62.8732 57.3449 62.0605 57.205C62.4688 57.2976 62.8732 57.4091 63.27 57.5546L68.2063 58.6564C67.9644 58.4807 67.7206 58.1613 67.4825 57.8381C67.2482 57.5131 66.9817 57.1786 66.7814 56.9291L66.7776 56.931Z" fill="#E2BE74"/>
<path d="M65.4207 52.592C65.4661 52.2499 65.4661 51.8398 65.4887 51.4203C65.5058 51.0064 65.5152 50.6095 65.6229 50.3298L65.5908 50.3412L62.1645 54.0623C62.4744 53.8034 62.8071 53.569 63.1661 53.3725C62.5822 53.9753 61.9434 54.5064 61.3613 55.0242C61.6713 54.7823 62.002 54.5687 62.3365 54.4119C62.6729 54.2531 63.0376 54.1265 63.3872 54.0679C62.6899 54.4289 62.0228 54.7861 61.4766 55.1395C62.0606 54.8314 62.6956 54.701 63.2379 54.754C62.6672 54.8938 62.1721 55.0601 61.762 55.2321C62.0228 55.2756 62.3592 55.2944 62.7466 55.2737C63.1246 55.2548 63.5668 55.1924 63.9806 54.9959C64.3889 54.8031 64.7328 54.4837 64.9879 54.0528C65.2261 53.6352 65.3791 53.1041 65.4207 52.5901V52.592Z" fill="#E2BE74"/>
<path d="M64.6796 55.1981C65.137 55.1697 65.5773 55.2718 66.012 55.4778C66.235 55.5798 66.424 55.7102 66.6186 55.8576C66.8095 56.005 66.9966 56.1695 67.1478 56.3433C67.2687 56.4775 67.4558 56.6873 67.6561 56.9122C68.0832 56.1525 68.1928 55.028 67.8338 54.0302C67.5201 53.1306 66.8737 52.3822 66.1518 52.0288C66.114 52.3614 66.0913 52.66 66.0535 52.8566C66.0157 53.089 65.9647 53.3252 65.8967 53.5501C65.823 53.7788 65.7228 54.0037 65.6094 54.2078C65.3902 54.616 65.05 54.9656 64.6777 55.1981H64.6796Z" fill="#E2BE74"/>
<path d="M60.546 56.95C60.4402 57.4225 59.9715 57.7211 59.499 57.6152C59.0266 57.5094 58.728 57.0407 58.8338 56.5683C58.9396 56.0958 59.4083 55.7972 59.8808 55.903C60.3532 56.0089 60.6518 56.4776 60.546 56.95Z" fill="#E2BE74"/>
<path d="M58.9293 45.7319C59.1107 44.9873 59.1995 44.4581 58.7365 43.4301C58.4946 44.1765 58.5967 45.0421 58.9293 45.7319Z" fill="#E2BE74"/>
<path d="M57.9798 45.8376C58.0951 45.076 58.1405 44.5412 57.5905 43.5623C57.4129 44.3314 57.5905 45.1856 57.9798 45.8376Z" fill="#E2BE74"/>
<path d="M57.0461 46.0229C57.0952 45.2518 57.0933 44.7132 56.4621 43.7891C56.3525 44.5733 56.6039 45.4087 57.0461 46.0229Z" fill="#E2BE74"/>
<path d="M56.1297 46.2856C56.1108 45.5088 56.0617 44.9721 55.3549 44.1104C55.3152 44.9041 55.6365 45.7148 56.1297 46.2856Z" fill="#E2BE74"/>
<path d="M55.2393 46.6277C55.1959 46.2365 55.1524 45.9209 55.0201 45.5921C54.8878 45.2651 54.6686 44.9193 54.2793 44.5281C54.3095 45.3256 54.7007 46.1061 55.2393 46.6277Z" fill="#E2BE74"/>
<path d="M54.3818 47.0434C54.2382 46.3007 54.0983 45.7791 53.2441 45.0364C53.3443 45.8301 53.8016 46.5747 54.3818 47.0434Z" fill="#E2BE74"/>
<path d="M53.5675 47.5405C53.3597 46.8091 53.1763 46.3064 52.2598 45.6355C52.4242 46.4103 52.9401 47.1096 53.5675 47.5405Z" fill="#E2BE74"/>
<path d="M52.7976 48.1055C52.5255 47.393 52.3006 46.9073 51.333 46.3196C51.556 47.068 52.1324 47.7237 52.7976 48.1055Z" fill="#E2BE74"/>
<path d="M52.0798 48.733C51.7472 48.0432 51.4807 47.5783 50.4678 47.0793C50.755 47.8088 51.3862 48.4117 52.0798 48.733Z" fill="#E2BE74"/>
<path d="M51.417 49.4171C51.024 48.7575 50.7178 48.3153 49.6689 47.9071C50.0205 48.6101 50.6989 49.1582 51.417 49.4171Z" fill="#E2BE74"/>
<path d="M50.8143 50.1559C50.3645 49.5304 50.0206 49.1165 48.9434 48.8009C49.3553 49.4737 50.0792 49.9613 50.8143 50.1559Z" fill="#E2BE74"/>
<path d="M50.2755 50.9441C49.771 50.3582 49.393 49.9746 48.2969 49.7554C48.7674 50.3922 49.5309 50.8156 50.2755 50.9441Z" fill="#E2BE74"/>
<path d="M49.8066 51.7737C49.2509 51.2332 48.8408 50.8817 47.7334 50.7607C48.2588 51.356 49.0563 51.7113 49.8066 51.7737Z" fill="#E2BE74"/>
<path d="M49.4094 52.6392C48.8084 52.1478 48.37 51.8341 47.2568 51.8096C47.8351 52.3576 48.661 52.643 49.4094 52.6392Z" fill="#E2BE74"/>
<path d="M49.085 53.5369C48.4594 53.1042 47.9964 52.8301 46.8682 52.8963C47.4956 53.3933 48.3422 53.6069 49.085 53.5369Z" fill="#E2BE74"/>
<path d="M48.8499 54.461C48.1903 54.0849 47.7084 53.8525 46.584 54.015C47.2435 54.4534 48.0996 54.5914 48.8499 54.461Z" fill="#E2BE74"/>
<path d="M48.6975 55.4021C48.004 55.0827 47.5031 54.8938 46.4014 55.1527C47.0855 55.5325 47.9548 55.5968 48.6975 55.4021Z" fill="#E2BE74"/>
<path d="M48.6258 56.3528C47.9039 56.0939 47.3861 55.9483 46.3164 56.2999C47.0345 56.6192 47.9058 56.6098 48.6258 56.3528Z" fill="#E2BE74"/>
<path d="M48.6289 57.3071C47.8824 57.1106 47.3552 57.0085 46.3252 57.4508C47.0717 57.7078 47.941 57.6246 48.6289 57.3071Z" fill="#E2BE74"/>
<path d="M48.7126 58.2578C47.9491 58.1255 47.4124 58.0707 46.4297 58.596C47.2007 58.7888 48.0587 58.6301 48.7126 58.2578Z" fill="#E2BE74"/>
<path d="M48.8731 59.197C48.1001 59.1327 47.5596 59.1233 46.6279 59.7318C47.416 59.8565 48.257 59.6241 48.8731 59.197Z" fill="#E2BE74"/>
<path d="M49.1132 60.1192C48.3535 60.1155 47.8167 60.1533 46.9229 60.8468C47.7223 60.9016 48.5406 60.5974 49.1132 60.1192Z" fill="#E2BE74"/>
<path d="M49.4436 61.015C48.6858 61.0774 48.1567 61.1605 47.3232 61.9297C48.1151 61.9184 48.8994 61.5461 49.4436 61.015Z" fill="#E2BE74"/>
<path d="M49.8499 61.8767C49.0977 62.0071 48.578 62.1337 47.8164 62.9709C48.595 62.8972 49.3472 62.4569 49.8499 61.8767Z" fill="#E2BE74"/>
<path d="M50.326 62.7026C49.5851 62.8973 49.0768 63.0712 48.3945 63.9688C49.1656 63.8271 49.8781 63.3244 50.326 62.7026Z" fill="#E2BE74"/>
<path d="M50.8728 63.485C50.149 63.7439 49.6576 63.9612 49.0566 64.9118C49.8145 64.702 50.4816 64.1408 50.8728 63.485Z" fill="#E2BE74"/>
<path d="M68.2852 63.7893C68.7009 64.4281 69.026 64.8552 70.0937 65.2218C69.7025 64.5245 68.9995 64.0066 68.2852 63.7893Z" fill="#E2BE74"/>
<path d="M68.8564 63.0239C69.3232 63.623 69.6823 64.0199 70.7841 64.2977C70.3362 63.6381 69.5954 63.1846 68.8564 63.0239Z" fill="#E2BE74"/>
<path d="M69.3555 62.2113C69.8752 62.7688 70.2664 63.1354 71.3852 63.315C70.8957 62.7046 70.1171 62.3152 69.3555 62.2113Z" fill="#E2BE74"/>
<path d="M69.7842 61.3608C70.353 61.873 70.7745 62.2037 71.9008 62.285C71.3603 61.718 70.5496 61.3967 69.7842 61.3608Z" fill="#E2BE74"/>
<path d="M70.1377 60.4764C70.75 60.9375 71.1998 61.2323 72.3261 61.2134C71.7346 60.6937 70.8993 60.4443 70.1377 60.4764Z" fill="#E2BE74"/>
<path d="M70.415 59.5655C71.0689 59.9737 71.5433 60.227 72.6583 60.1098C72.0214 59.643 71.1672 59.4672 70.415 59.5655Z" fill="#E2BE74"/>
<path d="M70.6152 58.6339C71.305 58.9854 71.8002 59.197 72.8963 58.9816C72.2178 58.5715 71.3523 58.4695 70.6152 58.6339Z" fill="#E2BE74"/>
<path d="M70.7363 57.6869C71.4582 57.978 71.9704 58.1443 73.04 57.8381C72.3257 57.4866 71.4526 57.4602 70.7363 57.6869Z" fill="#E2BE74"/>
<path d="M70.7822 56.7326C71.506 56.9613 72.0314 57.0842 73.0897 56.6873C72.3432 56.3981 71.472 56.4454 70.7822 56.7326Z" fill="#E2BE74"/>
<path d="M70.7305 55.7783C71.4732 55.9446 72.0023 56.0221 73.0285 55.5364C72.6581 55.423 72.248 55.3966 71.8511 55.4419C71.4581 55.4873 71.0782 55.6026 70.7305 55.7764V55.7783Z" fill="#E2BE74"/>
<path d="M70.6006 54.8352C71.3584 54.9353 71.8932 54.9694 72.8684 54.3967C72.1011 54.2361 71.2526 54.4308 70.6006 54.8352Z" fill="#E2BE74"/>
<path d="M70.3906 53.9055C71.1579 53.9395 71.6946 53.9263 72.6112 53.2743C71.8307 53.1817 71.001 53.4481 70.3906 53.9055Z" fill="#E2BE74"/>
<path d="M70.1055 52.9964C70.8746 52.9624 71.4095 52.9019 72.2637 52.1744C71.4737 52.1498 70.6705 52.4881 70.1055 52.9964Z" fill="#E2BE74"/>
<path d="M69.7422 52.1157C70.5095 52.0137 71.0367 51.9079 71.821 51.1104C71.0292 51.1557 70.2581 51.562 69.7422 52.1157Z" fill="#E2BE74"/>
<path d="M69.3057 51.269C70.0635 51.1008 70.5813 50.9478 71.29 50.0879C70.5038 50.2032 69.7687 50.6756 69.3057 51.269Z" fill="#E2BE74"/>
<path d="M68.7998 50.4602C69.1759 50.343 69.4783 50.2372 69.7731 50.0463C70.0698 49.8536 70.3646 49.572 70.6745 49.1146C69.8978 49.2979 69.208 49.8309 68.7998 50.4602Z" fill="#E2BE74"/>
<path d="M68.2246 49.6986C68.9276 49.4151 69.4114 49.177 69.9765 48.1962C69.2168 48.4475 68.5742 49.0371 68.2246 49.6986Z" fill="#E2BE74"/>
<path d="M67.5801 48.9918C68.2585 48.6479 68.7159 48.3719 69.1997 47.3439C68.4683 47.6557 67.8825 48.2945 67.5801 48.9918Z" fill="#E2BE74"/>
<path d="M66.8789 48.3455C67.5271 47.943 67.9599 47.6293 68.3511 46.5653C67.6575 46.9282 67.1265 47.6179 66.8789 48.3455Z" fill="#E2BE74"/>
<path d="M66.125 47.7615C66.7373 47.3022 67.1436 46.9526 67.4384 45.8622C66.777 46.2836 66.3064 47.0169 66.125 47.7615Z" fill="#E2BE74"/>
<path d="M65.3262 47.2418C65.8988 46.7297 66.273 46.346 66.4714 45.2367C65.8478 45.7167 65.4415 46.4878 65.3262 47.2418Z" fill="#E2BE74"/>
<path d="M64.4844 46.7939C65.0116 46.2327 65.3518 45.815 65.4539 44.6981C64.8737 45.2311 64.5354 46.0361 64.4844 46.7939Z" fill="#E2BE74"/>
<path d="M63.6101 46.4179C64.0864 45.8094 64.3906 45.3652 64.3944 44.2465C63.8596 44.8304 63.5931 45.662 63.6101 46.4179Z" fill="#E2BE74"/>
<path d="M62.7071 46.1174C63.1304 45.4672 63.395 44.9967 63.3005 43.8873C62.8186 44.5185 62.624 45.3709 62.7071 46.1174Z" fill="#E2BE74"/>
<path d="M61.7809 45.8925C61.9662 45.5448 62.1098 45.2594 62.1873 44.9154C62.2629 44.5696 62.278 44.1633 62.1797 43.619C61.7545 44.2937 61.6335 45.1592 61.7828 45.8925H61.7809Z" fill="#E2BE74"/>
<path d="M60.8355 45.7508C61.1398 45.0553 61.3175 44.5526 61.0359 43.449C60.6692 44.1633 60.6239 45.0308 60.8355 45.7508Z" fill="#E2BE74"/>
<path d="M59.8833 45.7016C60.1271 44.9797 60.2613 44.4619 59.8871 43.3922C59.5828 44.1104 59.6112 44.9816 59.8833 45.7016Z" fill="#E2BE74"/>
</g>
<path d="M49.5626 26.3836C48.9295 26.1039 48.4703 26.0302 47.5254 26.291C48.1585 26.5613 48.9239 26.635 49.5626 26.3836Z" fill="#E2BE74"/>
<path d="M49.4905 27.3531C48.8687 27.0564 48.4133 26.9676 47.457 27.2019C48.0788 27.4892 48.8423 27.5856 49.4905 27.3531Z" fill="#E2BE74"/>
<path d="M49.3969 28.3188C48.7771 28.0032 48.3216 27.903 47.3691 28.1109C47.9833 28.4171 48.7468 28.5342 49.3969 28.3188Z" fill="#E2BE74"/>
<path d="M49.2643 29.2808C48.6558 28.9501 48.206 28.8348 47.2422 29.0162C47.8488 29.3394 48.6067 29.4774 49.2643 29.2808Z" fill="#E2BE74"/>
<path d="M49.1171 30.239C48.5237 29.8931 48.0777 29.7665 47.1025 29.9196C47.6959 30.2579 48.45 30.4166 49.1171 30.239Z" fill="#E2BE74"/>
<path d="M48.9338 31.1914C48.3442 30.8285 47.9001 30.6887 46.9287 30.8172C47.5202 31.1725 48.2686 31.352 48.9338 31.1914Z" fill="#E2BE74"/>
<path d="M48.7311 32.1402C48.1566 31.7622 47.7181 31.611 46.7373 31.7112C47.3118 32.0816 48.0564 32.2819 48.7311 32.1402Z" fill="#E2BE74"/>
<path d="M48.5011 33.0831C47.9303 32.6862 47.4938 32.5237 46.5205 32.5993C47.0912 32.9867 47.8302 33.2078 48.5011 33.0831Z" fill="#E2BE74"/>
<path d="M48.2417 34.0167C47.688 33.6066 47.259 33.4308 46.2744 33.4781C46.8281 33.8806 47.5595 34.1206 48.2417 34.0167Z" fill="#E2BE74"/>
<path d="M47.962 34.9466C47.414 34.5176 46.9869 34.3324 46.0117 34.3513C46.5617 34.7708 47.2855 35.0335 47.962 34.9466Z" fill="#E2BE74"/>
<path d="M47.6501 35.8669C47.121 35.4247 46.7014 35.2262 45.7168 35.2168C46.2478 35.6496 46.9641 35.933 47.6501 35.8669Z" fill="#E2BE74"/>
<path d="M47.3178 36.7797C46.7962 36.3204 46.3804 36.1088 45.4053 36.0729C45.9288 36.5227 46.6374 36.8269 47.3178 36.7797Z" fill="#E2BE74"/>
<path d="M46.9513 37.6811C46.4505 37.2086 46.0423 36.9875 45.0596 36.9176C45.5642 37.3806 46.2615 37.7057 46.9513 37.6811Z" fill="#E2BE74"/>
<path d="M46.5615 38.5713C46.0683 38.0818 45.6657 37.8456 44.6943 37.7511C45.1895 38.2311 45.8793 38.5789 46.5615 38.5713Z" fill="#E2BE74"/>
<path d="M46.1453 39.452C45.6748 38.9512 45.2817 38.7055 44.3027 38.5751C44.7771 39.0664 45.4536 39.435 46.1453 39.452Z" fill="#E2BE74"/>
<path d="M45.6981 40.3155C45.237 39.7958 44.8515 39.5369 43.8857 39.382C44.3506 39.8922 45.0159 40.2796 45.6981 40.3155Z" fill="#E2BE74"/>
<path d="M45.2352 41.1717C44.7986 40.6425 44.4226 40.3742 43.4512 40.1814C43.8915 40.6992 44.5435 41.1093 45.2352 41.1717Z" fill="#E2BE74"/>
<path d="M44.7266 42.0051C44.3013 41.4589 43.9309 41.1774 42.9766 40.9581C43.4056 41.4948 44.0462 41.9257 44.7266 42.0051Z" fill="#E2BE74"/>
<path d="M44.2179 42.8347C43.8041 42.2715 43.4412 41.9767 42.502 41.7329C42.9064 42.2772 43.5338 42.7289 44.2179 42.8347Z" fill="#E2BE74"/>
<path d="M43.6508 43.6285C43.2634 43.0578 42.9137 42.7516 41.9707 42.4719C42.3638 43.0332 42.9723 43.5038 43.6508 43.6285Z" fill="#E2BE74"/>
<path d="M43.0808 44.4204C42.7066 43.8326 42.3646 43.5151 41.4404 43.209C41.8203 43.7873 42.4156 44.2786 43.0808 44.4204Z" fill="#E2BE74"/>
<path d="M42.4757 45.1839C42.128 44.5905 41.801 44.2635 40.875 43.9196C41.2284 44.5035 41.8048 45.0138 42.4757 45.1839Z" fill="#E2BE74"/>
<path d="M41.8443 45.9284C41.5117 45.318 41.1923 44.9816 40.2871 44.613C40.6273 45.214 41.1867 45.7413 41.8443 45.9284Z" fill="#E2BE74"/>
<path d="M41.2061 46.6654C40.8999 46.0512 40.5919 45.7035 39.6904 45.2991C40.0004 45.9019 40.5446 46.4481 41.2061 46.6654Z" fill="#E2BE74"/>
<path d="M40.5182 47.3552C40.2291 46.7278 39.9324 46.3706 39.0498 45.9397C39.3465 46.5577 39.8719 47.1227 40.5182 47.3552Z" fill="#E2BE74"/>
<path d="M39.8284 48.0451C39.5544 47.4025 39.269 47.034 38.4072 46.5842C38.6888 47.2173 39.1953 47.7994 39.8284 48.0451Z" fill="#E2BE74"/>
<path d="M39.1063 48.6989C38.8607 48.0582 38.5904 47.6822 37.7324 47.1908C37.9857 47.8239 38.4732 48.4192 39.1063 48.6989Z" fill="#E2BE74"/>
<path d="M38.3619 49.3302C38.1313 48.6763 37.8724 48.2908 37.0371 47.7805C37.2733 48.4268 37.742 49.0392 38.3619 49.3302Z" fill="#E2BE74"/>
<path d="M37.6175 49.9576C37.4039 49.2905 37.1545 48.8955 36.3438 48.3663C36.5554 49.0127 37.0052 49.642 37.6175 49.9576Z" fill="#E2BE74"/>
<path d="M36.8271 50.5264C36.6419 49.8631 36.4075 49.4625 35.6006 48.8955C35.7933 49.5513 36.2223 50.1901 36.8271 50.5264Z" fill="#E2BE74"/>
<path d="M36.0329 51.0896C35.8628 50.4149 35.6398 50.0067 34.8574 49.4227C35.0351 50.0898 35.4452 50.7418 36.0329 51.0896Z" fill="#E2BE74"/>
<path d="M35.2338 51.6413C35.0902 50.9705 34.8804 50.5566 34.1094 49.9386C34.2587 50.6 34.6499 51.2634 35.2338 51.6413Z" fill="#E2BE74"/>
<path d="M34.3966 52.1346C34.27 51.4561 34.0734 51.0366 33.3213 50.4016C33.4555 51.0725 33.8259 51.7472 34.3966 52.1346Z" fill="#E2BE74"/>
<path d="M33.5594 52.628C33.4498 51.9401 33.2646 51.5149 32.5352 50.8647C32.6523 51.5451 33.0057 52.2311 33.5594 52.628Z" fill="#E2BE74"/>
<path d="M49.2264 39.2213C48.9977 39.2572 48.7823 39.0985 48.7482 38.8698C48.7123 38.6411 48.8711 38.4257 49.0997 38.3917C49.3284 38.3558 49.5439 38.5145 49.5779 38.7432C49.6119 38.9718 49.455 39.1873 49.2264 39.2213Z" fill="#E2BE74"/>
<path d="M48.595 41.4873C48.2378 41.5421 47.9052 41.2964 47.8504 40.9411C47.7956 40.5839 48.0413 40.2513 48.3966 40.1965C48.7519 40.1417 49.0864 40.3874 49.1412 40.7427C49.196 41.0998 48.9503 41.4325 48.595 41.4873Z" fill="#E2BE74"/>
<path d="M47.7185 43.5359C47.3046 43.6002 46.9191 43.3167 46.8567 42.9028C46.7925 42.489 47.076 42.1034 47.4898 42.0411C47.9037 41.9768 48.2892 42.2603 48.3516 42.6742C48.4159 43.088 48.1324 43.4736 47.7185 43.5359Z" fill="#E2BE74"/>
<path d="M46.6112 45.3595C46.2049 45.4219 45.825 45.1441 45.7627 44.7378C45.7003 44.3315 45.9781 43.9516 46.3844 43.8892C46.7907 43.8269 47.1706 44.1047 47.2329 44.511C47.2953 44.9173 47.0175 45.2972 46.6112 45.3595Z" fill="#E2BE74"/>
<path d="M45.2882 46.9338C44.9518 46.9848 44.6381 46.7542 44.5852 46.4179C44.5342 46.0815 44.7647 45.7678 45.1011 45.7148C45.4375 45.6638 45.7512 45.8944 45.8041 46.2308C45.8552 46.5672 45.6246 46.8809 45.2882 46.9338Z" fill="#E2BE74"/>
<path d="M43.7613 48.2133C43.5686 48.2435 43.389 48.1112 43.3588 47.9184C43.3286 47.7257 43.4608 47.5461 43.6536 47.5159C43.8464 47.4857 44.0259 47.618 44.0561 47.8107C44.0864 48.0035 43.9541 48.183 43.7613 48.2133Z" fill="#E2BE74"/>
<path d="M66.9869 30.6056C66.5277 30.479 66.0609 30.3958 65.6092 30.4091C65.1594 30.4185 64.7361 30.5376 64.3959 30.7587C64.0558 30.9779 63.8309 31.2897 63.7836 31.6053C63.7231 31.9304 63.8384 32.2516 64.0047 32.365C64.3336 32.5862 64.4186 33.0322 64.1975 33.3591C63.9764 33.686 63.5304 33.773 63.2034 33.5519C63.126 33.4989 63.0617 33.4347 63.0126 33.3629L62.9219 33.2287C62.4834 32.5824 62.5155 31.8302 62.7631 31.2576C63.0182 30.6547 63.5417 30.2522 64.0614 30.0632C64.5868 29.8667 65.1462 29.8497 65.6489 29.946C66.1535 30.0405 66.6146 30.2352 67.0436 30.4601C67.0814 30.4809 67.0965 30.5281 67.0776 30.5659C67.0606 30.5999 67.0209 30.615 66.9869 30.6056Z" fill="#E2BE74"/>
<path d="M67.6523 29.6511C67.1723 29.5094 66.8246 29.3242 66.5033 29.1314C66.1877 28.933 65.9118 28.7213 65.6567 28.4832C65.4015 28.247 65.171 27.9843 64.9518 27.6838C64.7363 27.3758 64.5284 27.0413 64.3564 26.5707C64.8478 26.4687 65.2825 26.5424 65.6812 26.6841C66.0762 26.8296 66.4315 27.0526 66.732 27.3361C67.0325 27.6177 67.2781 27.9578 67.4501 28.3415C67.6164 28.7289 67.7204 29.1579 67.6523 29.653V29.6511Z" fill="#E2BE74"/>
<path d="M61.5805 27.9106C62.773 27.8615 63.8955 28.196 64.7743 28.7781C63.7311 28.6269 62.7106 28.8253 61.9055 29.2581C61.5578 29.4452 61.1231 29.3148 60.936 28.9671C60.7489 28.6193 60.8793 28.1847 61.2271 27.9976C61.3253 27.9447 61.4293 27.9182 61.5332 27.9125H61.5805V27.9106Z" fill="#E2BE74"/>
<path d="M74.4705 39.2383C74.6992 39.6541 74.8995 40.1001 75.0034 40.5933C75.1093 41.0828 75.1055 41.6308 74.926 42.1505C74.7521 42.6646 74.3703 43.1862 73.7864 43.4489C73.2308 43.704 72.4975 43.7531 71.8568 43.3393L71.7283 43.2561C71.4033 43.0463 71.3107 42.6136 71.5205 42.2904C71.7302 41.9653 72.163 41.8727 72.4862 42.0825C72.5618 42.1316 72.626 42.194 72.6752 42.262C72.7904 42.4208 73.106 42.5247 73.4216 42.4567C73.7278 42.4019 74.0245 42.1751 74.2286 41.8387C74.4346 41.5023 74.5385 41.0866 74.5366 40.65C74.5366 40.2116 74.444 39.758 74.308 39.3139C74.2929 39.2666 74.3193 39.2156 74.3685 39.2005C74.41 39.1873 74.4535 39.2062 74.4743 39.244L74.4705 39.2383Z" fill="#E2BE74"/>
<path d="M75.5439 38.832C75.9748 38.8358 76.3263 38.9776 76.6344 39.1665C76.9405 39.3593 77.1995 39.6107 77.4017 39.9017C77.6039 40.1908 77.7513 40.5216 77.825 40.875C77.8949 41.2302 77.9044 41.6101 77.757 42.0145C77.3771 41.8104 77.1182 41.5931 76.8838 41.372C76.6533 41.149 76.4605 40.9203 76.2904 40.6746C76.1203 40.4289 75.9729 40.1682 75.8444 39.8733C75.7178 39.5766 75.6044 39.2572 75.5439 38.832Z" fill="#E2BE74"/>
<path d="M75.7583 44.2332C76.1608 43.4357 76.329 42.434 76.1552 41.4192C76.7448 42.2621 77.1001 43.3506 77.0812 44.5166V44.5582C77.0736 44.9438 76.7561 45.2518 76.3706 45.2461C75.9851 45.2405 75.677 44.9211 75.6827 44.5355C75.6827 44.4278 75.7129 44.322 75.7583 44.2313V44.2332Z" fill="#E2BE74"/>
<path d="M41.5381 54.8617C41.0165 55.0166 40.4363 54.8069 40.1472 54.3174C40.1188 54.272 40.0961 54.2229 40.0772 54.1757C40.064 54.7199 39.6841 55.2056 39.1285 55.3304C39.0756 55.3417 39.0246 55.3493 38.9717 55.353C39.4838 55.5345 39.8297 56.0447 39.7768 56.6117C39.7711 56.6646 39.7616 56.7175 39.7503 56.7685C40.081 56.3358 40.6744 56.1657 41.196 56.3906C41.2452 56.4113 41.2924 56.4378 41.3359 56.4643C41.0259 56.0164 41.0486 55.4003 41.4247 54.9732C41.4606 54.9335 41.4984 54.8957 41.5381 54.8617Z" fill="#231F20"/>
<path d="M43.1258 54.0699C43.0464 54.0831 42.9689 54.1001 42.8934 54.1228C42.9576 54.0661 43.0181 54.0057 43.0729 53.9414C43.5831 53.3537 43.689 52.4824 43.2694 51.7756C42.7459 50.8912 41.6045 50.5983 40.72 51.1218C40.5934 51.1955 40.4819 51.2862 40.3818 51.3826C40.0246 51.7265 39.8224 52.1933 39.8091 52.6752C39.4633 51.8663 38.5826 51.392 37.6925 51.5923C36.689 51.8172 36.0597 52.8132 36.2827 53.8148C36.4282 54.463 36.895 54.9525 37.4771 55.1603C36.6021 55.2378 35.8764 55.9314 35.7932 56.8385C35.7894 56.8839 35.7875 56.9292 35.7875 56.9746C35.7668 57.9422 36.4943 58.7737 37.4714 58.8663H37.5016C38.1517 58.9174 38.7489 58.6282 39.1193 58.1463C39.0173 58.5961 39.0891 59.0572 39.3008 59.4465C39.4916 59.7999 39.7978 60.0947 40.1965 60.2667C41.1396 60.6749 42.2357 60.2402 42.642 59.2972C42.8442 58.8266 42.8367 58.3202 42.6609 57.8779C42.6099 57.7475 42.5456 57.6228 42.4644 57.5056C42.5702 57.5699 42.6836 57.6209 42.797 57.6606C43.4924 57.9063 44.2956 57.7268 44.8134 57.139C45.4938 56.368 45.4182 55.1925 44.6471 54.5121C44.2125 54.1304 43.6512 53.9886 43.122 54.0737L43.1258 54.0699ZM38.456 57.9271C38.456 57.9271 38.4711 57.9233 38.4787 57.9214C38.3256 58.0631 38.1366 58.1671 37.9193 58.2143C37.2616 58.3617 36.6077 57.9479 36.4603 57.2902C36.3148 56.6401 36.7173 55.9957 37.3618 55.8369C37.0519 56.1223 36.8969 56.5607 36.9952 57.0029C37.1426 57.6606 37.7964 58.0745 38.4541 57.9271H38.456ZM40.7068 51.9193C41.1528 51.4128 41.9239 51.3637 42.4303 51.8097C42.9311 52.25 42.9841 53.0097 42.5551 53.5162C42.6382 53.1023 42.5059 52.6563 42.1658 52.3577C41.6593 51.9117 40.8882 51.9608 40.4422 52.4673C40.4366 52.473 40.4328 52.4787 40.4271 52.4862C40.4668 52.284 40.5594 52.0875 40.7068 51.9212V51.9193ZM42.3151 55.3342C42.3982 55.3267 42.4681 55.3928 42.4719 55.4835C42.4738 55.5742 42.4114 55.6442 42.3245 55.6366C42.2451 55.6309 42.1733 55.5629 42.1695 55.4873C42.1658 55.4117 42.2319 55.3418 42.3151 55.3342ZM41.4212 53.8242C41.4627 53.7581 41.5724 53.7278 41.6385 53.7921C41.7065 53.8526 41.716 53.9508 41.6593 54.0132C41.6026 54.0737 41.51 54.0813 41.4552 54.0302C41.4004 53.9754 41.3758 53.8998 41.4231 53.8261L41.4212 53.8242ZM42.0864 54.9355C42.0694 54.8599 42.094 54.7824 42.1733 54.7484C42.247 54.7181 42.351 54.754 42.3718 54.8429C42.3944 54.9317 42.3453 55.0186 42.264 55.0356C42.1828 55.0545 42.1034 55.0092 42.0864 54.9336V54.9355ZM42.0467 54.4743C41.9749 54.5159 41.8785 54.4989 41.8331 54.4384C41.7878 54.3761 41.8029 54.2835 41.8672 54.2305C41.9314 54.1776 42.0259 54.1928 42.0807 54.2665C42.1336 54.3402 42.1185 54.4328 42.0467 54.4743ZM40.875 53.5691C40.8977 53.4897 40.9846 53.4481 41.0715 53.4803C41.1566 53.5105 41.1963 53.5974 41.1604 53.673C41.1245 53.7486 41.0356 53.7883 40.9638 53.7619C40.892 53.7354 40.8523 53.6504 40.875 53.5691ZM40.2778 53.4878C40.2778 53.4066 40.3477 53.3329 40.4384 53.3348C40.5292 53.348 40.5915 53.4274 40.5783 53.5086C40.5651 53.5918 40.4933 53.6485 40.4195 53.6352C40.344 53.6352 40.2797 53.5729 40.2778 53.4897V53.4878ZM39.6825 53.5804C39.6561 53.5011 39.7052 53.4198 39.794 53.399C39.8828 53.3782 39.9641 53.4293 39.9773 53.5105C39.9887 53.5918 39.9395 53.6749 39.8658 53.6919C39.7921 53.7089 39.7109 53.6598 39.6825 53.5804ZM37.4544 52.3804C38.0289 52.0402 38.7659 52.2254 39.1156 52.7905C38.747 52.5826 38.284 52.5732 37.8928 52.8018C37.3126 53.1458 37.1199 53.8942 37.4638 54.4762C37.4676 54.4838 37.4733 54.4895 37.4771 54.4951C37.2956 54.3931 37.1388 54.2457 37.0254 54.0548C36.6814 53.4746 36.8742 52.7243 37.4544 52.3804ZM39.4047 53.6995C39.4406 53.7751 39.4142 53.862 39.3442 53.8923C39.2838 53.9376 39.193 53.9206 39.1458 53.8526C39.0967 53.7845 39.1174 53.6863 39.1912 53.6334C39.2724 53.5937 39.3688 53.6239 39.4047 53.6995ZM38.9171 54.2532C38.8661 54.3099 38.7697 54.3137 38.7036 54.2646C38.6374 54.2154 38.6336 54.119 38.6941 54.051C38.7546 53.983 38.851 53.9792 38.9077 54.0397C38.9644 54.1001 38.9681 54.1965 38.9171 54.2532ZM38.9436 57.0048C38.8888 57.0672 38.7886 57.0672 38.7225 57.0067C38.6544 56.9463 38.6733 56.8366 38.7357 56.7875C38.8037 56.7327 38.8831 56.7497 38.9417 56.8007C38.9984 56.8518 39.0003 56.9444 38.9455 57.0067L38.9436 57.0048ZM38.3369 55.9805C38.2557 56.0013 38.1744 55.9446 38.1536 55.8577C38.1291 55.7689 38.2084 55.6895 38.2878 55.6838C38.3747 55.6763 38.4295 55.7368 38.4522 55.8105C38.4711 55.8842 38.4201 55.9616 38.3388 55.9824L38.3369 55.9805ZM39.1798 57.1919C39.2271 57.1239 39.3178 57.0993 39.3839 57.139C39.4501 57.1768 39.4746 57.2732 39.4406 57.3469C39.4047 57.4263 39.314 57.4471 39.2365 57.4017C39.159 57.3545 39.1326 57.2619 39.1798 57.1919ZM38.2765 55.3796C38.1933 55.3758 38.1366 55.2983 38.1498 55.2095C38.1631 55.1188 38.2425 55.0621 38.3218 55.081C38.4031 55.0999 38.4598 55.1755 38.4466 55.2511C38.4352 55.3267 38.3558 55.3833 38.2746 55.3796H38.2765ZM39.726 57.4489C39.7505 57.3677 39.828 57.3337 39.9036 57.3393C39.9792 57.3507 40.0321 57.4282 40.0208 57.5094C40.0095 57.5926 39.9282 57.6474 39.8394 57.6342C39.7487 57.6247 39.7014 57.5264 39.726 57.4489ZM38.4125 54.7918C38.3351 54.7635 38.2973 54.6709 38.3275 54.5858C38.3691 54.5065 38.4692 54.4781 38.5392 54.5178C38.611 54.5594 38.6355 54.6463 38.5996 54.7125C38.5751 54.7843 38.49 54.8202 38.4106 54.7918H38.4125ZM38.4277 56.2678C38.5051 56.2376 38.594 56.2678 38.6261 56.3377C38.6582 56.4076 38.6261 56.4984 38.5543 56.5418C38.4844 56.5853 38.3936 56.5532 38.3558 56.4719C38.318 56.3887 38.3502 56.298 38.4277 56.2678ZM42.1506 58.6528C42.0864 59.3237 41.4911 59.8169 40.8202 59.7546C40.1569 59.6922 39.6674 59.1082 39.7165 58.4468C39.8923 58.8304 40.2608 59.112 40.7125 59.1555C41.3834 59.2178 41.9806 58.7246 42.0429 58.0537C42.0429 58.0461 42.0429 58.0386 42.0429 58.031C42.1299 58.22 42.1695 58.4317 42.1488 58.6528H42.1506ZM40.3213 57.5302C40.3213 57.4471 40.3836 57.3771 40.4592 57.3753C40.5367 57.3771 40.6085 57.43 40.6218 57.5094C40.6369 57.5926 40.5764 57.6757 40.4838 57.6757C40.3931 57.6795 40.3194 57.6153 40.3194 57.5302H40.3213ZM40.9185 57.4395C40.8958 57.3639 40.9336 57.2808 41.0016 57.2449C41.0715 57.2127 41.1585 57.2448 41.1963 57.3204C41.2341 57.3941 41.1982 57.4849 41.115 57.5245C41.0337 57.5661 40.943 57.5245 40.9185 57.4395ZM41.6725 57.1938C41.5988 57.2486 41.5024 57.2354 41.4552 57.1674C41.4079 57.0993 41.4212 57.0067 41.4816 56.9614C41.5459 56.9198 41.6366 56.9236 41.6933 56.9822C41.7538 57.0445 41.7481 57.1447 41.6725 57.1957V57.1938ZM42.1091 56.7157C42.0656 56.7969 41.9636 56.8102 41.8974 56.7573C41.8332 56.7062 41.8237 56.6174 41.8577 56.5494C41.8974 56.4832 41.9881 56.4624 42.0599 56.5021C42.1336 56.5418 42.1544 56.6382 42.1072 56.7157H42.1091ZM41.3361 56.47C41.2908 56.4436 41.2435 56.4171 41.1963 56.3963C40.6747 56.1714 40.0813 56.3415 39.7505 56.7743C39.7619 56.7232 39.7713 56.6722 39.777 56.6174C39.8299 56.0505 39.4841 55.5402 38.9719 55.3588C39.0248 55.355 39.0759 55.3474 39.1288 55.3361C39.6844 55.2114 40.0643 54.7257 40.0775 54.1814C40.0983 54.2287 40.121 54.2778 40.1474 54.3231C40.4384 54.8126 41.0167 55.0224 41.5383 54.8674C41.4986 54.9014 41.4609 54.9392 41.4249 54.9789C41.0489 55.406 41.0281 56.0221 41.3361 56.47ZM42.1884 56.2281C42.111 56.1979 42.0694 56.1147 42.0958 56.0429C42.128 55.973 42.1941 55.922 42.2773 55.939C42.3566 55.956 42.4209 56.0429 42.385 56.1279C42.3547 56.213 42.2659 56.2584 42.1884 56.2281ZM44.5111 56.3699C44.2465 56.9822 43.5416 57.2675 42.9274 57.0162C43.3469 56.967 43.7287 56.7044 43.9082 56.2886C44.1747 55.6687 43.8912 54.9506 43.2713 54.6822C43.2638 54.6784 43.2562 54.6765 43.2486 54.6747C43.4546 54.6501 43.6701 54.6784 43.8742 54.7654C44.4941 55.0337 44.7794 55.7519 44.5111 56.3717V56.3699Z" fill="#E2BE74"/>
<path d="M56.4436 26.1587C55.9863 25.7921 55.3305 25.8488 54.6577 26.686C54.6388 26.7106 54.6218 26.7351 54.6048 26.7597C54.5897 26.7332 54.5765 26.7049 54.5576 26.6784C53.9698 25.7789 53.3216 25.6579 52.8321 25.9792C52.3408 26.3005 52.1934 26.9411 52.783 27.8407C52.8 27.8671 52.8189 27.8898 52.8378 27.9144C52.8076 27.9201 52.7773 27.9257 52.7471 27.9333C51.7096 28.2149 51.394 28.7932 51.5489 29.3582C51.702 29.9233 52.2671 30.2635 53.3046 29.9819C53.3348 29.9743 53.3632 29.963 53.3915 29.9535C53.3878 29.9838 53.3821 30.014 53.3821 30.0461C53.3292 31.1196 53.7827 31.5977 54.3667 31.626C54.9525 31.6544 55.4496 31.2235 55.5025 30.1501C55.5025 30.1198 55.5025 30.0896 55.5025 30.0594C55.5308 30.0726 55.5573 30.0858 55.5875 30.0972C56.5929 30.4789 57.1863 30.1973 57.3961 29.6493C57.604 29.1012 57.347 28.4946 56.3416 28.1128C56.3132 28.1015 56.283 28.0939 56.2547 28.0864C56.2754 28.0637 56.2981 28.041 56.317 28.0164C56.9898 27.1792 56.9048 26.5254 56.4493 26.1587H56.4436Z" fill="#E2BE74"/>
<path d="M55.6817 28.0449C55.6194 28.0657 55.591 28.1242 55.5891 28.1847L54.9863 28.3869C54.9731 28.3491 54.9636 28.3094 54.9409 28.2735C54.9164 28.2338 54.8805 28.2074 54.8464 28.179L55.0486 27.9277C55.1091 27.9504 55.1772 27.9447 55.2206 27.8918C55.2735 27.8256 55.2622 27.7293 55.1979 27.6782C55.1318 27.6253 55.0373 27.6367 54.9844 27.7009C54.9409 27.7538 54.9504 27.8219 54.9844 27.8767L54.786 28.1242C54.7198 28.0827 54.648 28.0619 54.5724 28.0524L54.5667 27.4155C54.6329 27.3985 54.6839 27.3475 54.6839 27.2757C54.6839 27.1907 54.614 27.1245 54.5308 27.1245C54.4458 27.1245 54.3796 27.1944 54.3796 27.2776C54.3796 27.3437 54.4269 27.3872 54.4855 27.4099L54.4911 28.0505C54.4099 28.0543 54.3286 28.0732 54.253 28.1167L54.0735 27.8426C54.1151 27.7916 54.1302 27.7255 54.0924 27.6688C54.047 27.5989 53.9525 27.5781 53.8807 27.6253C53.8108 27.6707 53.79 27.7652 53.8373 27.837C53.8751 27.8937 53.9412 27.9069 54.0036 27.8899L54.1869 28.1715C54.1302 28.2206 54.0867 28.2773 54.0565 28.3416L53.4347 28.145C53.4385 28.077 53.4064 28.0127 53.3383 27.9901C53.259 27.9655 53.172 28.009 53.1475 28.0902C53.1229 28.1715 53.1664 28.2565 53.2476 28.2811C53.31 28.3 53.3667 28.2698 53.4045 28.2225L54.0244 28.4172C54.0017 28.4965 53.996 28.5778 54.013 28.6591L53.6899 28.7479C53.6539 28.6931 53.5954 28.6591 53.5292 28.6761C53.448 28.6987 53.4007 28.7819 53.4215 28.8632C53.4442 28.9444 53.5273 28.9917 53.6086 28.9709C53.6747 28.9539 53.7069 28.8934 53.7106 28.8291L54.0433 28.7384C54.0565 28.7725 54.0621 28.8065 54.0829 28.8367C54.1037 28.8688 54.134 28.8877 54.1585 28.9142L53.7787 29.449C53.7163 29.4244 53.6426 29.4358 53.6029 29.4925C53.5538 29.5605 53.5708 29.6569 53.6388 29.7041C53.7069 29.7533 53.8032 29.7363 53.8505 29.6682C53.8883 29.6153 53.8769 29.5511 53.8429 29.5L54.219 28.9728C54.287 29.02 54.3664 29.0465 54.4477 29.0578L54.4307 29.3904C54.3683 29.4074 54.3173 29.4528 54.3135 29.5208C54.3097 29.604 54.374 29.6758 54.459 29.6815C54.5422 29.6852 54.614 29.621 54.6197 29.5359C54.6234 29.4679 54.5762 29.4188 54.5157 29.3961L54.5327 29.0597C54.6045 29.0578 54.6763 29.0408 54.7444 29.0068L55.128 29.5227C55.0864 29.5756 55.0732 29.6474 55.1148 29.7041C55.1658 29.7722 55.2603 29.7854 55.3283 29.7363C55.3964 29.6853 55.4096 29.5908 55.3605 29.5227C55.3208 29.4698 55.2565 29.4622 55.1979 29.4774L54.8181 28.9652C54.888 28.9123 54.9372 28.8462 54.9731 28.7706L55.2754 28.8858C55.2716 28.9501 55.2981 29.0144 55.3624 29.037C55.4417 29.0673 55.5287 29.0276 55.5589 28.9482C55.5891 28.8688 55.5495 28.7819 55.4701 28.7517C55.4058 28.7271 55.3435 28.7573 55.3038 28.8084L55.0033 28.695C55.0241 28.6213 55.0335 28.5438 55.0203 28.4663L55.6118 28.2679C55.6496 28.3246 55.7139 28.3586 55.78 28.3359C55.8594 28.3094 55.9029 28.2225 55.8764 28.1431C55.8499 28.0638 55.763 28.0203 55.6836 28.0468L55.6817 28.0449Z" fill="#231F20"/>
<path d="M59.2028 35.589C58.8154 35.6193 58.5243 35.7176 58.239 35.8952C57.9517 36.071 57.6739 36.3393 57.2676 36.636C57.9271 36.4073 58.7719 36.2429 59.2028 35.5872V35.589Z" fill="#E2BE74"/>
<path d="M60.0045 35.6023C59.876 35.6534 59.7096 35.5494 59.6246 35.3756C59.5282 35.2074 59.5377 35.0108 59.6511 34.9333C59.7645 34.8559 59.9534 34.9485 60.063 35.1431C60.1632 35.3434 60.1311 35.5513 60.0045 35.6023Z" fill="#E2BE74"/>
<path d="M59.581 36.8364C59.2105 36.7154 58.9044 36.6946 58.5718 36.7494C58.2392 36.8005 57.8801 36.9422 57.3906 37.0631C58.0899 37.1066 58.9309 37.2767 59.581 36.8364Z" fill="#E2BE74"/>
<path d="M60.3161 37.1539C60.1782 37.152 60.0629 36.9932 60.0497 36.8004C60.027 36.6096 60.1083 36.4319 60.2443 36.4036C60.3785 36.3752 60.5184 36.5321 60.5448 36.7532C60.5599 36.9762 60.4522 37.1557 60.3161 37.1539Z" fill="#E2BE74"/>
<path d="M59.4528 38.1309C59.1598 37.8796 58.8801 37.7416 58.5532 37.666C58.2244 37.5866 57.8426 37.581 57.3418 37.5054C57.973 37.8115 58.6874 38.2915 59.4528 38.1309Z" fill="#E2BE74"/>
<path d="M60.0117 38.7073C59.8888 38.6544 59.8397 38.4616 59.9021 38.2783C59.9569 38.0931 60.0967 37.9589 60.2328 37.9854C60.367 38.01 60.4407 38.2103 60.3764 38.4238C60.3046 38.6355 60.1421 38.7621 60.0117 38.7073Z" fill="#E2BE74"/>
<path d="M58.8383 39.2799C58.6644 38.9341 58.4603 38.7016 58.1863 38.5051C57.9123 38.3047 57.5627 38.1536 57.1299 37.8909C57.5929 38.4181 58.0691 39.1325 58.8383 39.2799Z" fill="#E2BE74"/>
<path d="M59.133 40.0264C59.0366 39.9282 59.0668 39.7335 59.1935 39.588C59.3144 39.4368 59.4958 39.3688 59.6111 39.4444C59.7245 39.5181 59.7151 39.7316 59.5752 39.9055C59.4297 40.0737 59.2275 40.1247 59.1311 40.0264H59.133Z" fill="#E2BE74"/>
<path d="M57.8312 40.1077C57.8009 39.7203 57.7026 39.4292 57.525 39.1439C57.3492 38.8566 57.0809 38.5788 56.7842 38.1725C57.0129 38.832 57.1773 39.6768 57.833 40.1077H57.8312Z" fill="#E2BE74"/>
<path d="M57.8177 40.909C57.7667 40.7805 57.8706 40.6142 58.0445 40.5291C58.2127 40.4328 58.4092 40.4422 58.4867 40.5556C58.5642 40.669 58.4716 40.858 58.2769 40.9676C58.0766 41.0678 57.8687 41.0356 57.8177 40.909Z" fill="#E2BE74"/>
<path d="M56.5835 40.4838C56.7045 40.1134 56.7253 39.8072 56.6705 39.4746C56.6195 39.142 56.4777 38.7829 56.3568 38.2935C56.3133 38.9927 56.1432 39.8337 56.5835 40.4838Z" fill="#E2BE74"/>
<path d="M56.2656 41.2208C56.2675 41.0828 56.4263 40.9676 56.619 40.9543C56.8099 40.9317 56.9876 41.0129 57.0159 41.149C57.0443 41.2832 56.8874 41.423 56.6663 41.4495C56.4433 41.4646 56.2637 41.3569 56.2656 41.2208Z" fill="#E2BE74"/>
<path d="M55.2889 40.3572C55.5402 40.0642 55.6782 39.7845 55.7538 39.4576C55.8332 39.1288 55.8388 38.747 55.9144 38.2462C55.6083 38.8774 55.1282 39.5918 55.2889 40.3572Z" fill="#E2BE74"/>
<path d="M54.713 40.9146C54.7659 40.7918 54.9586 40.7426 55.142 40.805C55.3272 40.8598 55.4613 40.9997 55.4349 41.1357C55.4103 41.2699 55.21 41.3436 54.9964 41.2794C54.7848 41.2075 54.6582 41.045 54.713 40.9146Z" fill="#E2BE74"/>
<path d="M54.1377 39.7411C54.4835 39.5673 54.716 39.3632 54.9125 39.0891C55.1129 38.8151 55.264 38.4655 55.5267 38.0327C54.9995 38.4957 54.2851 38.972 54.1377 39.7411Z" fill="#E2BE74"/>
<path d="M53.3935 40.0378C53.4917 39.9414 53.6864 39.9716 53.8319 40.0982C53.9831 40.2192 54.0511 40.4006 53.9755 40.5159C53.9018 40.6293 53.6883 40.6198 53.5144 40.48C53.3462 40.3345 53.2952 40.1323 53.3935 40.0359V40.0378Z" fill="#E2BE74"/>
<path d="M53.3125 38.7357C53.6999 38.7055 53.991 38.6072 54.2763 38.4295C54.5636 38.2538 54.8414 37.9854 55.2477 37.6887C54.5881 37.9174 53.7434 38.0818 53.3125 38.7376V38.7357Z" fill="#E2BE74"/>
<path d="M52.5113 38.7225C52.6398 38.6715 52.8061 38.7754 52.8911 38.9493C52.9875 39.1175 52.9781 39.314 52.8647 39.3915C52.7513 39.469 52.5623 39.3764 52.4527 39.1817C52.3525 38.9814 52.3846 38.7735 52.5113 38.7225Z" fill="#E2BE74"/>
<path d="M52.9346 37.4883C53.305 37.6093 53.6111 37.6301 53.9437 37.5753C54.2764 37.5242 54.6354 37.3825 55.1249 37.2615C54.4257 37.2181 53.5847 37.048 52.9346 37.4883Z" fill="#E2BE74"/>
<path d="M52.1988 37.169C52.3368 37.1708 52.4521 37.3296 52.4653 37.5224C52.488 37.7132 52.4067 37.8909 52.2707 37.9192C52.1365 37.9476 51.9966 37.7907 51.9702 37.5696C51.955 37.3466 52.0628 37.1671 52.1988 37.169Z" fill="#E2BE74"/>
<path d="M53.0625 36.192C53.3554 36.4433 53.6351 36.5813 53.9621 36.6569C54.2909 36.7362 54.6726 36.7419 55.1735 36.8175C54.5422 36.5113 53.8279 36.0313 53.0625 36.192Z" fill="#E2BE74"/>
<path d="M52.5055 35.6156C52.6283 35.6685 52.6774 35.8612 52.6151 36.0445C52.5603 36.2297 52.4204 36.3639 52.2844 36.3375C52.1502 36.3129 52.0765 36.1126 52.1407 35.899C52.2125 35.6874 52.3751 35.5607 52.5055 35.6156Z" fill="#E2BE74"/>
<path d="M53.6787 35.043C53.8526 35.3888 54.0567 35.6213 54.3307 35.8178C54.6047 36.0181 54.9544 36.1693 55.3871 36.432C54.9241 35.9047 54.4479 35.1904 53.6787 35.043Z" fill="#E2BE74"/>
<path d="M53.3821 34.2984C53.4785 34.3967 53.4482 34.5913 53.3216 34.7368C53.2006 34.888 53.0192 34.956 52.9039 34.8805C52.7906 34.8068 52.8 34.5932 52.9399 34.4193C53.0854 34.2511 53.2876 34.2001 53.384 34.2984H53.3821Z" fill="#E2BE74"/>
<path d="M54.6845 34.217C54.7147 34.6045 54.813 34.8955 54.9907 35.1809C55.1664 35.4681 55.4348 35.7459 55.7315 36.1522C55.5028 35.4927 55.3384 34.6479 54.6826 34.217H54.6845Z" fill="#E2BE74"/>
<path d="M54.6973 33.4158C54.7483 33.5443 54.6444 33.7106 54.4705 33.7957C54.3023 33.892 54.1058 33.8826 54.0283 33.7692C53.9508 33.6558 54.0434 33.4668 54.2381 33.3572C54.4384 33.257 54.6463 33.2892 54.6973 33.4158Z" fill="#E2BE74"/>
<path d="M55.9321 33.8391C55.8111 34.2095 55.7903 34.5157 55.8451 34.8483C55.8962 35.1809 56.0379 35.54 56.1588 36.0294C56.2023 35.3302 56.3724 34.4892 55.9321 33.8391Z" fill="#E2BE74"/>
<path d="M56.2506 33.102C56.2488 33.24 56.09 33.3553 55.8972 33.3685C55.7064 33.3912 55.5287 33.3099 55.5004 33.1738C55.472 33.0397 55.6289 32.8998 55.85 32.8734C56.073 32.8582 56.2525 32.966 56.2506 33.102Z" fill="#E2BE74"/>
<path d="M57.2281 33.9675C56.9767 34.2605 56.8388 34.5402 56.7632 34.8671C56.6838 35.1959 56.6781 35.5777 56.6025 36.0785C56.9087 35.4473 57.3887 34.7329 57.2281 33.9675Z" fill="#E2BE74"/>
<path d="M57.8024 33.4082C57.7495 33.531 57.5567 33.5801 57.3734 33.5178C57.1882 33.463 57.054 33.3231 57.0805 33.1871C57.105 33.0529 57.3054 32.9792 57.5189 33.0434C57.7306 33.1152 57.8572 33.2778 57.8024 33.4082Z" fill="#E2BE74"/>
<path d="M58.3773 34.5818C58.0315 34.7557 57.799 34.9598 57.6025 35.2338C57.4022 35.5078 57.251 35.8574 56.9883 36.2902C57.5155 35.8272 58.2299 35.351 58.3773 34.5818Z" fill="#E2BE74"/>
<path d="M59.1219 34.287C59.0236 34.3834 58.829 34.3531 58.6835 34.2265C58.5323 34.1056 58.4642 33.9241 58.5398 33.8089C58.6135 33.6955 58.8271 33.7049 59.001 33.8448C59.1692 33.9903 59.2202 34.1925 59.1219 34.2889V34.287Z" fill="#E2BE74"/>
<path d="M71.1529 31.4938C70.8033 31.7055 70.5519 32.0211 70.4159 32.3745C69.9963 31.9625 69.384 31.7678 68.7679 31.9096C67.8135 32.1326 67.222 33.0888 67.445 34.0432C67.5376 34.4419 67.7606 34.7764 68.0554 35.0165C67.5338 35.2886 67.1597 35.8121 67.1049 36.4395C67.0236 37.4166 67.7474 38.2745 68.7245 38.3577C69.1327 38.3917 69.5182 38.284 69.8376 38.0761C69.9358 38.6563 70.3176 39.1741 70.8978 39.4198C71.8011 39.7997 72.8424 39.3763 73.2223 38.473C73.381 38.095 73.398 37.6944 73.2998 37.3277C73.8818 37.4128 74.4922 37.2106 74.9042 36.7343C75.5449 35.9916 75.4636 34.8709 74.7209 34.2303C74.411 33.9619 74.0349 33.8221 73.655 33.8013C73.9158 33.2759 73.9121 32.6296 73.587 32.091C73.0786 31.2519 71.9882 30.9835 71.1491 31.4919L71.1529 31.4938ZM72.3095 33.5462C72.4323 33.7484 72.4493 34.0016 72.3586 34.2208C72.3529 34.2341 72.3454 34.2492 72.3378 34.2643L72.1677 34.6082L72.5514 34.629C72.7196 34.6385 72.8727 34.7009 72.9993 34.8086C73.245 35.0202 73.3243 35.3642 73.1996 35.6628C73.1694 35.7346 73.1278 35.8007 73.0768 35.8612C72.9104 36.054 72.6572 36.1485 72.4021 36.1107L72.0222 36.054L72.1205 36.4263C72.164 36.5869 72.1526 36.7532 72.0884 36.9063C72.0109 37.0896 71.8673 37.2332 71.6839 37.307C71.4987 37.3825 71.2965 37.3807 71.1132 37.3051C70.877 37.2049 70.7107 36.9951 70.6672 36.74L70.603 36.3601L70.2798 36.5699C70.1399 36.6606 69.9793 36.7022 69.813 36.6871C69.4029 36.6531 69.0986 36.2921 69.1327 35.882C69.1383 35.8045 69.1572 35.7289 69.1875 35.6571C69.2536 35.4984 69.3764 35.3661 69.5314 35.2848L69.8716 35.1072L69.573 34.8653C69.4426 34.7594 69.3538 34.6196 69.316 34.4571C69.2801 34.3021 69.2933 34.1434 69.3538 33.9978C69.4464 33.7786 69.6391 33.6142 69.8716 33.5613C70.121 33.5027 70.38 33.5745 70.5633 33.7559L70.8373 34.0243L70.9753 33.6652L70.9847 33.6425C71.0452 33.4951 71.1491 33.3761 71.2852 33.2948C71.4553 33.1928 71.6556 33.1606 71.8502 33.2079C72.043 33.2551 72.2074 33.3761 72.3095 33.5462Z" fill="#E2BE74"/>
<path d="M71.3665 34.612C71.6443 34.7273 71.7747 35.0485 71.6575 35.3245C71.5404 35.6023 71.221 35.7327 70.9432 35.6155C70.6673 35.4983 70.535 35.1789 70.6521 34.9011C70.7693 34.6233 71.0887 34.4948 71.3646 34.6101L71.3665 34.612Z" fill="#E2BE74"/>
<path d="M65.6525 33.463C64.6188 33.2513 63.5869 34.0242 63.5869 34.0242C63.5869 34.0242 64.2314 35.1393 65.2651 35.3528C66.2988 35.5645 67.3288 34.7915 67.3288 34.7915C67.3288 34.7915 66.6844 33.6746 65.6506 33.463H65.6525ZM67.0604 34.7348C67.0604 34.7348 66.4633 35.1827 65.8642 35.0599C65.2651 34.9389 64.8909 34.2926 64.8909 34.2926C64.8909 34.2926 65.49 33.8447 66.0872 33.9676C66.6863 34.0904 67.0586 34.7367 67.0586 34.7367L67.0604 34.7348Z" fill="#E2BE74"/>
<path d="M65.5096 36.1749C65.9877 35.5758 66.9232 35.5248 66.9232 35.5248C66.9232 35.5248 67.0838 36.4489 66.6076 37.0499C66.1294 37.6509 65.1921 37.7 65.1921 37.7C65.1921 37.7 65.0314 36.7777 65.5077 36.1749H65.5096Z" fill="#E2BE74"/>
<path d="M63.4478 38.2122C63.9316 36.655 65.126 35.9973 65.2337 35.9274C65.1166 35.9765 63.7748 36.3356 62.9262 38.01C62.4916 38.8472 62.3952 40.24 63.2381 41.2454C64.0677 42.3131 65.8064 42.538 66.8798 41.6158C67.9967 40.7918 67.7812 38.8302 66.5869 38.5958C66.0917 38.4976 65.6873 38.6714 65.4926 39.0267C65.3112 39.3593 65.4341 39.7789 65.7686 39.9603C66.0501 40.1134 66.3884 40.0472 66.5982 39.8242C66.6114 40.0926 66.5094 40.446 66.1541 40.7616C65.6079 41.2605 64.5213 41.234 63.9543 40.6293C63.3023 40.0019 63.2003 39.0135 63.4497 38.216L63.4478 38.2122Z" fill="#E2BE74"/>
<path d="M75.3819 50.1655C75.5274 50.3148 75.7126 50.4527 75.9318 50.5623C76.5914 50.8949 77.4739 50.4716 77.4739 50.4716C77.4739 50.4716 77.2887 49.5097 76.6292 49.179C76.41 49.0694 76.1888 49.0032 75.9829 48.9749C76.1321 48.8294 76.2701 48.6441 76.3797 48.4249C76.7123 47.7654 76.289 46.8828 76.289 46.8828C76.289 46.8828 75.3271 47.068 74.9964 47.7276C74.8867 47.9468 74.8206 48.1679 74.7923 48.3739C74.6467 48.2246 74.4615 48.0866 74.2423 47.977C73.5827 47.6444 72.7002 48.0677 72.7002 48.0677C72.7002 48.0677 72.8854 49.0297 73.5449 49.3604C73.7642 49.47 73.9853 49.5362 74.1913 49.5645C74.042 49.71 73.904 49.8952 73.7944 50.1144C73.4618 50.774 73.8851 51.6566 73.8851 51.6566C73.8851 51.6566 74.8471 51.4713 75.1778 50.8118C75.2874 50.5926 75.3535 50.3715 75.3819 50.1655ZM76.7388 49.9519C76.8049 49.9859 76.8314 50.0653 76.7974 50.1315C76.7634 50.1976 76.684 50.2241 76.6178 50.19C76.5517 50.156 76.5252 50.0766 76.5593 50.0105C76.5933 49.9444 76.6726 49.9179 76.7388 49.9519ZM75.8468 47.8561C75.7806 47.8221 75.7542 47.7427 75.7882 47.6765C75.8222 47.6104 75.9016 47.5839 75.9677 47.618C76.0339 47.652 76.0603 47.7313 76.0263 47.7975C75.9923 47.8636 75.9129 47.8901 75.8468 47.8561ZM73.5128 48.6271C73.4467 48.5931 73.4202 48.5137 73.4542 48.4476C73.4883 48.3815 73.5676 48.355 73.6338 48.389C73.6999 48.423 73.7264 48.5024 73.6924 48.5685C73.6583 48.6347 73.579 48.6612 73.5128 48.6271ZM75.0852 49.2678C74.677 49.402 74.1988 49.1336 73.819 48.6309C74.4483 48.6347 74.9491 48.8596 75.0852 49.2678C74.951 48.8596 75.2194 48.3815 75.7221 48.0016C75.7183 48.6309 75.4934 49.1317 75.0852 49.2678C75.4934 49.1336 75.9715 49.402 76.3514 49.9047C75.7221 49.9009 75.2212 49.676 75.0852 49.2678C75.2194 49.676 74.951 50.1541 74.4483 50.534C74.4521 49.9047 74.677 49.4039 75.0852 49.2678ZM74.2839 50.9611C74.2177 50.9271 74.1913 50.8477 74.2253 50.7816C74.2593 50.7154 74.3387 50.689 74.4048 50.723C74.471 50.757 74.4974 50.8364 74.4634 50.9025C74.4294 50.9687 74.35 50.9951 74.2839 50.9611Z" fill="#E2BE74"/>
</svg>
