<svg width="80" height="80" viewBox="0 0 80 80" fill="none" xmlns="http://www.w3.org/2000/svg">
<path d="M37.0455 8V0.24242H40.2803C40.8611 0.24242 41.3472 0.324491 41.7386 0.488632C42.1326 0.652774 42.428 0.882572 42.625 1.17803C42.8245 1.47348 42.9242 1.81565 42.9242 2.20454C42.9242 2.5 42.8624 2.76389 42.7386 2.99621C42.6149 3.22601 42.4444 3.41666 42.2273 3.56818C42.0101 3.71969 41.7588 3.82576 41.4735 3.88636V3.96212C41.7866 3.97727 42.0758 4.06187 42.3409 4.21591C42.6086 4.36995 42.8232 4.58459 42.9849 4.85985C43.1465 5.13257 43.2273 5.45581 43.2273 5.82954C43.2273 6.24621 43.1212 6.61869 42.9091 6.94697C42.697 7.27273 42.3902 7.5303 41.9886 7.7197C41.5871 7.90657 41.0998 8 40.5265 8H37.0455ZM38.9205 6.48864H40.0795C40.4861 6.48864 40.7854 6.41162 40.9773 6.25757C41.1717 6.10353 41.2689 5.88889 41.2689 5.61364C41.2689 5.41414 41.2222 5.24242 41.1288 5.09848C41.0354 4.95202 40.9028 4.83964 40.7311 4.76136C40.5593 4.68055 40.3535 4.64015 40.1136 4.64015H38.9205V6.48864ZM38.9205 3.43182H39.9583C40.1629 3.43182 40.3447 3.39772 40.5038 3.32954C40.6629 3.26136 40.7866 3.16288 40.875 3.03409C40.9659 2.9053 41.0114 2.75 41.0114 2.56818C41.0114 2.30808 40.9192 2.10353 40.7349 1.95454C40.5505 1.80555 40.3018 1.73106 39.9886 1.73106H38.9205V3.43182Z" fill="#2B7EE5"/>
<path d="M43.2988 72.2424V80H41.7079L38.6207 75.5227H38.5715V80H36.6965V72.2424H38.3101L41.3632 76.7121H41.4276V72.2424H43.2988Z" fill="#2B7EE5"/>
<path d="M2.05729 38.4312V36.9084H8.61411V38.4312H6.26184V44.666H4.41335V38.4312H2.05729Z" fill="#2B7EE5"/>
<path d="M74.226 44.666H72.1578V43.0675H74.1541C74.5884 43.0675 74.9558 42.9943 75.2563 42.8478C75.5594 42.6988 75.7879 42.4577 75.9419 42.1243C76.0985 41.7885 76.1768 41.3415 76.1768 40.7834C76.1768 40.2254 76.0985 39.7809 75.9419 39.4501C75.7854 39.1168 75.5543 38.8769 75.2488 38.7304C74.9457 38.5814 74.572 38.5069 74.1275 38.5069H72.1238V36.9084H74.2222C75.0126 36.9084 75.6932 37.0637 76.2639 37.3743C76.8371 37.6824 77.2791 38.1269 77.5897 38.7077C77.9003 39.286 78.0556 39.9779 78.0556 40.7834C78.0556 41.5915 77.9003 42.286 77.5897 42.8668C77.2816 43.4476 76.8409 43.8933 76.2677 44.2039C75.6945 44.512 75.0139 44.666 74.226 44.666ZM73.2336 36.9084V44.666H71.3586V36.9084H73.2336ZM70.3207 41.0637V40.0259H74.2488V41.0637H70.3207Z" fill="#2B7EE5"/>
<g clip-path="url(#clip0_3289_19759)">
<path d="M25.5258 26.5054C25.2404 26.3257 24.8703 26.4208 24.6906 26.7063L23.9082 27.9961H22.4281V27.0235C22.4281 26.6851 22.1532 26.4208 21.8254 26.4208C21.4977 26.4208 21.2228 26.6957 21.2228 27.0235V27.9961H19.7109L18.9497 26.7486C18.7806 26.4631 18.3999 26.368 18.1145 26.5477C17.829 26.7169 17.7339 27.0975 17.9136 27.3829L18.77 28.7785V30.2164C18.77 31.0093 19.9858 31.0093 19.9858 30.2164V29.212H23.6016V30.2164C23.6016 31.0093 24.8175 31.0093 24.8175 30.2164V28.8419L25.7267 27.3301C25.8959 27.0446 25.8113 26.6746 25.5258 26.5054Z" fill="#FBCE4A"/>
<path d="M36.9645 26.5054C36.679 26.3257 36.309 26.4208 36.1292 26.7063L35.3469 27.9961H33.8667V27.0235C33.8667 26.6851 33.5918 26.4208 33.2641 26.4208C32.9363 26.4208 32.6615 26.6957 32.6615 27.0235V27.9961H31.1602L30.3989 26.7486C30.2192 26.4631 29.8492 26.368 29.5637 26.5477C29.2782 26.7169 29.1831 27.0975 29.3628 27.3829L30.2192 28.7785V30.2164C30.2192 31.0093 31.435 31.0093 31.435 30.2164V29.212H35.0508V30.2164C35.0508 31.0093 36.2667 31.0093 36.2667 30.2164V28.8419L37.1865 27.3406C37.3451 27.0446 37.2499 26.6746 36.9645 26.5054Z" fill="#FBCE4A"/>
<path d="M13.4941 32.1191H66.4941V33.2081H13.4941V32.1191Z" fill="#409BF1"/>
<path d="M13.4941 30.2051H66.4941V32.1187H13.4941V30.2051Z" fill="#409BF1"/>
<path d="M39.999 55.5268V58.5822H16.084V33.2188H19.1183V45.4617C19.1183 51.0229 23.6222 55.5268 29.1833 55.5268H39.999Z" fill="#409BF1"/>
<path d="M39.999 33.2188V55.5267H29.1939C23.6328 55.5267 19.1289 51.0229 19.1289 45.4617V33.2188H39.999Z" fill="url(#paint0_linear_3289_19759)"/>
<path d="M36.6875 40V51.5938H27.1769C25.1102 51.5938 23.4375 49.5715 23.4375 47.0727V40H36.6875Z" fill="#C1E3FC"/>
<path d="M63.9044 43.2838V45.9058H40V33.2188H42.622V39.7208C42.622 41.6873 44.2079 43.2838 46.1849 43.2838H63.9044Z" fill="#409BF1"/>
<path d="M63.9044 33.2188V43.2838H46.1743C44.2078 43.2838 42.6113 41.6979 42.6113 39.7208V33.2188H63.9044Z" fill="url(#paint1_linear_3289_19759)"/>
<path d="M63.9044 55.9607V58.5827H40V45.9062H42.622V52.4083C42.622 54.3748 44.2079 55.9713 46.1849 55.9713H63.9044V55.9607Z" fill="#409BF1"/>
<path d="M63.9044 45.8953V55.9604H46.1743C44.2079 55.9604 42.6114 54.3745 42.6114 52.3974V45.8953H40V45.8848H63.9044V45.8953Z" fill="url(#paint2_linear_3289_19759)"/>
<path d="M24.1013 37.3771H23.1921C22.7797 37.3771 22.4414 37.0388 22.4414 36.6264V35.3366C22.4414 34.9243 22.7797 34.5859 23.1921 34.5859H24.1013C23.689 34.5859 23.3506 34.9243 23.3506 35.3366V36.6264C23.3401 37.0388 23.689 37.3771 24.1013 37.3771Z" fill="#FBCE4A"/>
<path d="M29.7263 37.3771H28.8171C28.4047 37.3771 28.0664 37.0388 28.0664 36.6264V35.3366C28.0664 34.9243 28.4047 34.5859 28.8171 34.5859H29.7263C29.314 34.5859 28.9756 34.9243 28.9756 35.3366V36.6264C28.9756 37.0388 29.314 37.3771 29.7263 37.3771Z" fill="#FBCE4A"/>
<path d="M35.3619 37.3771H34.4421C34.0297 37.3771 33.6914 37.0388 33.6914 36.6264V35.3366C33.6914 34.9243 34.0297 34.5859 34.4421 34.5859H35.3619C34.939 34.5859 34.6112 34.9243 34.6112 35.3366V36.6264C34.6112 37.0388 34.9495 37.3771 35.3619 37.3771Z" fill="#FBCE4A"/>
<path d="M25.2229 35.3366V36.6264C25.2229 37.0388 24.8846 37.3771 24.4722 37.3771H24.1022C23.6899 37.3771 23.3516 37.0388 23.3516 36.6264V35.3366C23.3516 34.9243 23.6899 34.5859 24.1022 34.5859H24.4722C24.8846 34.5859 25.2229 34.9243 25.2229 35.3366Z" fill="white"/>
<path d="M30.8468 35.3366V36.6264C30.8468 37.0388 30.5084 37.3771 30.0961 37.3771H29.7155C29.3032 37.3771 28.9648 37.0388 28.9648 36.6264V35.3366C28.9648 34.9243 29.3032 34.5859 29.7155 34.5859H30.0961C30.519 34.5859 30.8468 34.9243 30.8468 35.3366Z" fill="white"/>
<path d="M36.4827 35.3366V36.6264C36.4827 37.0388 36.1443 37.3771 35.732 37.3771H35.362C34.9391 37.3771 34.6113 37.0388 34.6113 36.6264V35.3366C34.6113 34.9243 34.9496 34.5859 35.362 34.5859H35.732C36.1443 34.5859 36.4827 34.9243 36.4827 35.3366Z" fill="white"/>
<path d="M49.6625 40.1663H51.3541V40.8535C51.3541 41.1918 51.629 41.4561 51.9567 41.4561C52.2845 41.4561 52.5594 41.1812 52.5594 40.8535V40.1663H54.3567C54.695 40.1663 54.9593 39.8914 54.9593 39.5636C54.9593 39.2253 54.6844 38.961 54.3567 38.961H49.6519C48.8696 38.9504 48.859 40.1663 49.6625 40.1663Z" fill="white"/>
<path d="M54.3562 51.6367H49.6515C49.3131 51.6367 49.0488 51.9116 49.0488 52.2394C49.0488 52.5671 49.3237 52.842 49.6515 52.842H51.3431V53.5292C51.3431 53.8675 51.6179 54.1318 51.9457 54.1318C52.2734 54.1318 52.5483 53.8569 52.5483 53.5292V52.842H54.3457C55.1492 52.842 55.1492 51.6367 54.3562 51.6367Z" fill="white"/>
</g>
<defs>
<linearGradient id="paint0_linear_3289_19759" x1="29.564" y1="33.2188" x2="29.564" y2="55.5267" gradientUnits="userSpaceOnUse">
<stop stop-color="#64B9F6"/>
<stop offset="1" stop-color="#409BF1"/>
</linearGradient>
<linearGradient id="paint1_linear_3289_19759" x1="53.2578" y1="33.2188" x2="53.2578" y2="43.2838" gradientUnits="userSpaceOnUse">
<stop stop-color="#64B9F6"/>
<stop offset="1" stop-color="#409BF1"/>
</linearGradient>
<linearGradient id="paint2_linear_3289_19759" x1="51.9522" y1="45.8848" x2="51.9522" y2="55.9604" gradientUnits="userSpaceOnUse">
<stop stop-color="#64B9F6"/>
<stop offset="1" stop-color="#409BF1"/>
</linearGradient>
<clipPath id="clip0_3289_19759">
<rect width="53" height="53" fill="white" transform="translate(13.5 13.5)"/>
</clipPath>
</defs>
</svg>
