<svg width="80" height="80" viewBox="0 0 80 80" fill="none" xmlns="http://www.w3.org/2000/svg">
<path d="M37.0455 8V0.24242H40.2803C40.8611 0.24242 41.3472 0.324491 41.7386 0.488632C42.1326 0.652774 42.428 0.882572 42.625 1.17803C42.8245 1.47348 42.9242 1.81565 42.9242 2.20454C42.9242 2.5 42.8624 2.76389 42.7386 2.99621C42.6149 3.22601 42.4444 3.41666 42.2273 3.56818C42.0101 3.71969 41.7588 3.82576 41.4735 3.88636V3.96212C41.7866 3.97727 42.0758 4.06187 42.3409 4.21591C42.6086 4.36995 42.8232 4.58459 42.9849 4.85985C43.1465 5.13257 43.2273 5.45581 43.2273 5.82954C43.2273 6.24621 43.1212 6.61869 42.9091 6.94697C42.697 7.27273 42.3902 7.5303 41.9886 7.7197C41.5871 7.90657 41.0998 8 40.5265 8H37.0455ZM38.9205 6.48864H40.0795C40.4861 6.48864 40.7854 6.41162 40.9773 6.25757C41.1717 6.10353 41.2689 5.88889 41.2689 5.61364C41.2689 5.41414 41.2222 5.24242 41.1288 5.09848C41.0354 4.95202 40.9028 4.83964 40.7311 4.76136C40.5593 4.68055 40.3535 4.64015 40.1136 4.64015H38.9205V6.48864ZM38.9205 3.43182H39.9583C40.1629 3.43182 40.3447 3.39772 40.5038 3.32954C40.6629 3.26136 40.7866 3.16288 40.875 3.03409C40.9659 2.9053 41.0114 2.75 41.0114 2.56818C41.0114 2.30808 40.9192 2.10353 40.7349 1.95454C40.5505 1.80555 40.3018 1.73106 39.9886 1.73106H38.9205V3.43182Z" fill="#2B7EE5"/>
<path d="M43.2988 72.2424V80H41.7079L38.6207 75.5227H38.5715V80H36.6965V72.2424H38.3101L41.3632 76.7121H41.4276V72.2424H43.2988Z" fill="#2B7EE5"/>
<path d="M2.05729 38.4312V36.9084H8.61411V38.4312H6.26184V44.666H4.41335V38.4312H2.05729Z" fill="#2B7EE5"/>
<path d="M74.226 44.666H72.1578V43.0675H74.1541C74.5884 43.0675 74.9558 42.9943 75.2563 42.8478C75.5594 42.6988 75.7879 42.4577 75.9419 42.1243C76.0985 41.7885 76.1768 41.3415 76.1768 40.7834C76.1768 40.2254 76.0985 39.7809 75.9419 39.4501C75.7854 39.1168 75.5543 38.8769 75.2488 38.7304C74.9457 38.5814 74.572 38.5069 74.1275 38.5069H72.1238V36.9084H74.2222C75.0126 36.9084 75.6932 37.0637 76.2639 37.3743C76.8371 37.6824 77.2791 38.1269 77.5897 38.7077C77.9003 39.286 78.0556 39.9779 78.0556 40.7834C78.0556 41.5915 77.9003 42.286 77.5897 42.8668C77.2816 43.4476 76.8409 43.8933 76.2677 44.2039C75.6945 44.512 75.0139 44.666 74.226 44.666ZM73.2336 36.9084V44.666H71.3586V36.9084H73.2336ZM70.3207 41.0637V40.0259H74.2488V41.0637H70.3207Z" fill="#2B7EE5"/>
<g clip-path="url(#clip0_3289_19827)">
<path d="M45.6416 35.8971C45.3168 36.3331 44.8124 36.581 44.2739 36.581H35.7255C35.1869 36.581 34.6826 36.3331 34.3577 35.8971C34.0414 35.4697 33.9303 34.914 34.0842 34.4011L35.7939 28.4173C35.999 27.6821 36.6743 27.1777 37.4351 27.1777H42.5642C43.325 27.1777 44.0003 27.6821 44.2055 28.4173L45.9151 34.4011C46.069 34.914 45.9579 35.4697 45.6416 35.8971Z" fill="#384051"/>
<path d="M40.8547 49.4037H20.3386C19.3948 49.4037 18.6289 48.6378 18.6289 47.6941C18.6289 46.7503 19.3948 45.9844 20.3386 45.9844H40.8547C41.7985 45.9844 42.5644 46.7503 42.5644 47.6941C42.5644 48.6378 41.7985 49.4037 40.8547 49.4037Z" fill="#409BF1"/>
<path d="M49.4041 15.209H30.5977V28.8864H49.4041V15.209Z" fill="#F9BE0D"/>
<path d="M49.4028 30.5968H30.5964C29.6527 30.5968 28.8867 29.8308 28.8867 28.8871V15.2097C28.8867 14.2659 29.6527 13.5 30.5964 13.5H49.4028C50.3466 13.5 51.1125 14.2659 51.1125 15.2097V28.8871C51.1125 29.8308 50.3466 30.5968 49.4028 30.5968ZM32.3061 27.1774H47.6932V16.9194H32.3061V27.1774Z" fill="#409BF1"/>
<path d="M59.6619 40.8555H40.8555V52.8232H59.6619V40.8555Z" fill="url(#paint0_linear_3289_19827)"/>
<path d="M59.6619 52.8223H40.8555V64.79H59.6619V52.8223Z" fill="url(#paint1_linear_3289_19827)"/>
<path d="M59.6607 39.1445H40.8542C39.9105 39.1445 39.1445 39.9105 39.1445 40.8542V52.8219V64.7897C39.1445 65.7334 39.9105 66.4994 40.8542 66.4994H59.6607C60.6044 66.4994 61.3703 65.7334 61.3703 64.7897V52.8219V40.8542C61.3703 39.9105 60.6044 39.1445 59.6607 39.1445ZM42.5639 42.5639H57.951V51.1123H42.5639V42.5639ZM57.951 63.08H42.5639V54.5316H57.951V63.08Z" fill="#409BF1"/>
<path d="M20.3386 66.4994C19.3948 66.4994 18.6289 65.7334 18.6289 64.7897V40.8542C18.6289 39.9105 19.3948 39.1445 20.3386 39.1445C21.2823 39.1445 22.0483 39.9105 22.0483 40.8542V64.7897C22.0483 65.7334 21.2823 66.4994 20.3386 66.4994Z" fill="#409BF1"/>
<path d="M51.9669 48.5483H48.5476C47.6038 48.5483 46.8379 47.7823 46.8379 46.8386C46.8379 45.8948 47.6038 45.1289 48.5476 45.1289H51.9669C52.9107 45.1289 53.6766 45.8948 53.6766 46.8386C53.6766 47.7823 52.9107 48.5483 51.9669 48.5483ZM51.9669 60.516H48.5476C47.6038 60.516 46.8379 59.7501 46.8379 58.8063C46.8379 57.8626 47.6038 57.0966 48.5476 57.0966H51.9669C52.9107 57.0966 53.6766 57.8626 53.6766 58.8063C53.6766 59.7501 52.9107 60.516 51.9669 60.516Z" fill="white"/>
<path d="M63.9354 34.8718V40.8557C63.9354 41.796 63.1661 42.5653 62.2257 42.5653H17.7741C16.8338 42.5653 16.0645 41.796 16.0645 40.8557V34.8718C16.0645 33.9315 16.8338 33.1621 17.7741 33.1621H62.2257C63.1661 33.1621 63.9354 33.9315 63.9354 34.8718Z" fill="url(#paint2_linear_3289_19827)"/>
</g>
<defs>
<linearGradient id="paint0_linear_3289_19827" x1="46.0256" y1="43.4977" x2="57.9355" y2="48.6617" gradientUnits="userSpaceOnUse">
<stop stop-color="#FBC72D"/>
<stop offset="0.723408" stop-color="#E7AA20"/>
</linearGradient>
<linearGradient id="paint1_linear_3289_19827" x1="46.0256" y1="55.4645" x2="57.9355" y2="60.6285" gradientUnits="userSpaceOnUse">
<stop stop-color="#FBC72D"/>
<stop offset="0.723408" stop-color="#E7AA20"/>
</linearGradient>
<linearGradient id="paint2_linear_3289_19827" x1="39.9999" y1="33.1621" x2="39.9999" y2="42.5653" gradientUnits="userSpaceOnUse">
<stop stop-color="#64B9F6"/>
<stop offset="1" stop-color="#409BF1"/>
</linearGradient>
<clipPath id="clip0_3289_19827">
<rect width="53" height="53" fill="white" transform="translate(13.5 13.5)"/>
</clipPath>
</defs>
</svg>
