<svg width="80" height="80" viewBox="0 0 80 80" fill="none" xmlns="http://www.w3.org/2000/svg">
<path d="M37.0455 8V0.24242H40.2803C40.8611 0.24242 41.3472 0.324491 41.7386 0.488632C42.1326 0.652774 42.428 0.882572 42.625 1.17803C42.8245 1.47348 42.9242 1.81565 42.9242 2.20454C42.9242 2.5 42.8624 2.76389 42.7386 2.99621C42.6149 3.22601 42.4444 3.41666 42.2273 3.56818C42.0101 3.71969 41.7588 3.82576 41.4735 3.88636V3.96212C41.7866 3.97727 42.0758 4.06187 42.3409 4.21591C42.6086 4.36995 42.8232 4.58459 42.9849 4.85985C43.1465 5.13257 43.2273 5.45581 43.2273 5.82954C43.2273 6.24621 43.1212 6.61869 42.9091 6.94697C42.697 7.27273 42.3902 7.5303 41.9886 7.7197C41.5871 7.90657 41.0998 8 40.5265 8H37.0455ZM38.9205 6.48864H40.0795C40.4861 6.48864 40.7854 6.41162 40.9773 6.25757C41.1717 6.10353 41.2689 5.88889 41.2689 5.61364C41.2689 5.41414 41.2222 5.24242 41.1288 5.09848C41.0354 4.95202 40.9028 4.83964 40.7311 4.76136C40.5593 4.68055 40.3535 4.64015 40.1136 4.64015H38.9205V6.48864ZM38.9205 3.43182H39.9583C40.1629 3.43182 40.3447 3.39772 40.5038 3.32954C40.6629 3.26136 40.7866 3.16288 40.875 3.03409C40.9659 2.9053 41.0114 2.75 41.0114 2.56818C41.0114 2.30808 40.9192 2.10353 40.7349 1.95454C40.5505 1.80555 40.3018 1.73106 39.9886 1.73106H38.9205V3.43182Z" fill="#2B7EE5"/>
<path d="M43.2988 72.2424V80H41.7079L38.6207 75.5227H38.5715V80H36.6965V72.2424H38.3101L41.3632 76.7121H41.4276V72.2424H43.2988Z" fill="#2B7EE5"/>
<path d="M2.05729 38.4312V36.9084H8.61411V38.4312H6.26184V44.666H4.41335V38.4312H2.05729Z" fill="#2B7EE5"/>
<path d="M74.226 44.666H72.1578V43.0675H74.1541C74.5884 43.0675 74.9558 42.9943 75.2563 42.8478C75.5594 42.6988 75.7879 42.4577 75.9419 42.1243C76.0985 41.7885 76.1768 41.3415 76.1768 40.7834C76.1768 40.2254 76.0985 39.7809 75.9419 39.4501C75.7854 39.1168 75.5543 38.8769 75.2488 38.7304C74.9457 38.5814 74.572 38.5069 74.1275 38.5069H72.1238V36.9084H74.2222C75.0126 36.9084 75.6932 37.0637 76.2639 37.3743C76.8371 37.6824 77.2791 38.1269 77.5897 38.7077C77.9003 39.286 78.0556 39.9779 78.0556 40.7834C78.0556 41.5915 77.9003 42.286 77.5897 42.8668C77.2816 43.4476 76.8409 43.8933 76.2677 44.2039C75.6945 44.512 75.0139 44.666 74.226 44.666ZM73.2336 36.9084V44.666H71.3586V36.9084H73.2336ZM70.3207 41.0637V40.0259H74.2488V41.0637H70.3207Z" fill="#2B7EE5"/>
<g clip-path="url(#clip0_3289_19811)">
<path d="M19.2963 53.25L16.457 55.1429V57.9821C16.457 58.5048 16.8808 58.9286 17.4035 58.9286H21.1892C21.7119 58.9286 22.1356 58.5048 22.1356 57.9821V55.1429L19.2963 53.25ZM59.0463 53.25L56.207 55.1429V57.9821C56.207 58.5048 56.6308 58.9286 57.1535 58.9286H60.9392C61.4618 58.9286 61.8856 58.5048 61.8856 57.9821V55.1429L59.0463 53.25Z" fill="#409BF1"/>
<path d="M18.3496 36.2151C18.3496 35.715 18.7375 35.3056 19.2288 35.271C19.2734 35.2679 19.3183 35.2655 19.3626 35.2592L25.921 34.3223L32.546 35.2687H39.171V41.8937L29.7068 42.8401L19.296 41.8937C18.7733 41.8937 18.3496 41.4699 18.3496 40.9473V36.2151Z" fill="#F9BE0D"/>
<path d="M18.3504 23.9116C18.3504 22.3435 17.0793 21.0723 15.5112 21.0723C13.9431 21.0723 12.6719 22.3435 12.6719 23.9116V53.2508C12.6719 54.2963 13.5193 55.1437 14.5647 55.1437H63.779C64.8244 55.1437 65.6719 54.2963 65.6719 53.2508V41.8937H18.3504V23.9116Z" fill="url(#paint0_linear_3289_19811)"/>
<path d="M21.6621 28.6445C19.8327 28.6445 18.3496 30.1276 18.3496 31.957V34.3231C18.3496 34.8459 18.7733 35.2695 19.296 35.2695H32.546C33.0687 35.2695 33.4925 34.8459 33.4925 34.3231V33.8499C33.4925 32.0598 32.1082 31.0116 30.2998 30.566C30.2201 30.5463 30.1446 30.5264 30.0662 30.5026C29.2174 30.2446 23.8442 28.6383 21.6621 28.6445ZM40.1175 32.4231C38.5494 32.4231 37.2782 33.6943 37.2782 35.2624V42.8408C37.2782 43.3636 37.702 43.7872 38.2246 43.7872H64.7246C65.2472 43.7872 65.671 43.3636 65.671 42.8408V39.0481C65.671 35.3892 62.7049 32.4231 59.046 32.4231H40.1175Z" fill="#96D2FA"/>
</g>
<defs>
<linearGradient id="paint0_linear_3289_19811" x1="39.1719" y1="21.0723" x2="39.1719" y2="55.1437" gradientUnits="userSpaceOnUse">
<stop stop-color="#64B9F6"/>
<stop offset="1" stop-color="#409BF1"/>
</linearGradient>
<clipPath id="clip0_3289_19811">
<rect width="53" height="53" fill="white" transform="translate(13.5 13.5)"/>
</clipPath>
</defs>
</svg>
