<svg width="80" height="80" viewBox="0 0 80 80" fill="none" xmlns="http://www.w3.org/2000/svg">
<path d="M37.0455 8V0.24242H40.2803C40.8611 0.24242 41.3472 0.324491 41.7386 0.488632C42.1326 0.652774 42.428 0.882572 42.625 1.17803C42.8245 1.47348 42.9242 1.81565 42.9242 2.20454C42.9242 2.5 42.8624 2.76389 42.7386 2.99621C42.6149 3.22601 42.4444 3.41666 42.2273 3.56818C42.0101 3.71969 41.7588 3.82576 41.4735 3.88636V3.96212C41.7866 3.97727 42.0758 4.06187 42.3409 4.21591C42.6086 4.36995 42.8232 4.58459 42.9849 4.85985C43.1465 5.13257 43.2273 5.45581 43.2273 5.82954C43.2273 6.24621 43.1212 6.61869 42.9091 6.94697C42.697 7.27273 42.3902 7.5303 41.9886 7.7197C41.5871 7.90657 41.0998 8 40.5265 8H37.0455ZM38.9205 6.48864H40.0795C40.4861 6.48864 40.7854 6.41162 40.9773 6.25757C41.1717 6.10353 41.2689 5.88889 41.2689 5.61364C41.2689 5.41414 41.2222 5.24242 41.1288 5.09848C41.0354 4.95202 40.9028 4.83964 40.7311 4.76136C40.5593 4.68055 40.3535 4.64015 40.1136 4.64015H38.9205V6.48864ZM38.9205 3.43182H39.9583C40.1629 3.43182 40.3447 3.39772 40.5038 3.32954C40.6629 3.26136 40.7866 3.16288 40.875 3.03409C40.9659 2.9053 41.0114 2.75 41.0114 2.56818C41.0114 2.30808 40.9192 2.10353 40.7349 1.95454C40.5505 1.80555 40.3018 1.73106 39.9886 1.73106H38.9205V3.43182Z" fill="#2B7EE5"/>
<path d="M43.2988 72.2424V80H41.7079L38.6207 75.5227H38.5715V80H36.6965V72.2424H38.3101L41.3632 76.7121H41.4276V72.2424H43.2988Z" fill="#2B7EE5"/>
<path d="M2.05729 38.4312V36.9084H8.61411V38.4312H6.26184V44.666H4.41335V38.4312H2.05729Z" fill="#2B7EE5"/>
<path d="M74.226 44.666H72.1578V43.0675H74.1541C74.5884 43.0675 74.9558 42.9943 75.2563 42.8478C75.5594 42.6988 75.7879 42.4577 75.9419 42.1243C76.0985 41.7885 76.1768 41.3415 76.1768 40.7834C76.1768 40.2254 76.0985 39.7809 75.9419 39.4501C75.7854 39.1168 75.5543 38.8769 75.2488 38.7304C74.9457 38.5814 74.572 38.5069 74.1275 38.5069H72.1238V36.9084H74.2222C75.0126 36.9084 75.6932 37.0637 76.2639 37.3743C76.8371 37.6824 77.2791 38.1269 77.5897 38.7077C77.9003 39.286 78.0556 39.9779 78.0556 40.7834C78.0556 41.5915 77.9003 42.286 77.5897 42.8668C77.2816 43.4476 76.8409 43.8933 76.2677 44.2039C75.6945 44.512 75.0139 44.666 74.226 44.666ZM73.2336 36.9084V44.666H71.3586V36.9084H73.2336ZM70.3207 41.0637V40.0259H74.2488V41.0637H70.3207Z" fill="#2B7EE5"/>
<path d="M40.5628 22.9043C40.4121 22.7601 40.2116 22.6797 40.0031 22.6797C39.7945 22.6797 39.5941 22.7601 39.4434 22.9043L20.8097 40.705C20.7305 40.7807 20.6676 40.8716 20.6246 40.9724C20.5816 41.0731 20.5596 41.1815 20.5597 41.291L20.5566 57.9976C20.5566 58.8566 20.8979 59.6804 21.5053 60.2878C22.1127 60.8952 22.9365 61.2364 23.7955 61.2364H33.5223C33.9518 61.2364 34.3637 61.0658 34.6674 60.7621C34.8327 60.5969 34.9585 60.3996 35.0389 60.1848C35.1063 60.0049 35.1417 59.8128 35.1417 59.617V45.8518C35.1417 45.637 35.227 45.4311 35.3789 45.2792C35.5307 45.1273 35.7367 45.042 35.9514 45.042H44.0486C44.2634 45.042 44.4694 45.1273 44.6212 45.2792C44.7731 45.4311 44.8584 45.637 44.8584 45.8518V59.617C44.8584 59.8128 44.8938 60.0049 44.9612 60.1848C45.0416 60.3996 45.1674 60.5969 45.3327 60.7621C45.6364 61.0658 46.0483 61.2364 46.4778 61.2364H56.2005C57.0595 61.2364 57.8834 60.8952 58.4908 60.2878C59.0982 59.6804 59.4394 58.8566 59.4394 57.9976V41.291C59.4395 41.1815 59.4174 41.0731 59.3745 40.9724C59.3315 40.8716 59.2685 40.7807 59.1894 40.705L40.5628 22.9043Z" fill="url(#paint0_linear_3289_19702)"/>
<path d="M35.1417 45.8518V59.617C35.1417 59.8128 35.1063 60.0049 35.0389 60.1848H44.9612C44.8938 60.0049 44.8584 59.8128 44.8584 59.617V45.8518C44.8584 45.637 44.7731 45.4311 44.6212 45.2792C44.4694 45.1273 44.2634 45.042 44.0486 45.042H35.9514C35.7367 45.042 35.5307 45.1273 35.3789 45.2792C35.227 45.4311 35.1417 45.637 35.1417 45.8518Z" fill="#EDBC20"/>
<path d="M40.001 17.4102C40.9941 17.4102 41.9411 17.766 42.5967 18.4229L47.6025 23.209V21.1553C47.6025 20.5916 47.8271 20.0509 48.2256 19.6523C48.6242 19.2537 49.1648 19.0293 49.7285 19.0293H54.5869C55.1506 19.0293 55.6913 19.2538 56.0898 19.6523C56.4883 20.0509 56.7119 20.5917 56.7119 21.1553V31.9297L64.127 39.0234C64.9636 39.8238 65.0457 41.2078 64.2178 42.0654C63.8272 42.4701 63.2918 42.7039 62.7295 42.7148C62.1673 42.7257 61.6237 42.5131 61.2178 42.124L40.2139 22.0557V22.0547C40.1574 22.0007 40.082 21.9708 40.0039 21.9707C39.9258 21.9707 39.8504 22.0008 39.7939 22.0547V22.0557L18.792 42.1221L18.793 42.123C18.5851 42.3229 18.3382 42.4785 18.0684 42.5801C17.7985 42.6816 17.5107 42.727 17.2227 42.7139C16.9346 42.7007 16.6521 42.6287 16.3926 42.5029C16.1332 42.3772 15.9017 42.2003 15.7129 41.9824V41.9814C14.9512 41.1049 15.0719 39.8019 15.8799 39.0225L15.8818 39.0215L37.3994 18.4336C38.0551 17.7695 39.0052 17.4102 40.001 17.4102Z" fill="#409BF1" stroke="#409BF1" stroke-width="1.01215"/>
<defs>
<linearGradient id="paint0_linear_3289_19702" x1="39.998" y1="22.6797" x2="39.998" y2="61.2364" gradientUnits="userSpaceOnUse">
<stop stop-color="#64B9F6"/>
<stop offset="1" stop-color="#409BF1"/>
</linearGradient>
</defs>
</svg>
