<svg width="80" height="80" viewBox="0 0 80 80" fill="none" xmlns="http://www.w3.org/2000/svg">
<path d="M37.0455 8V0.24242H40.2803C40.8611 0.24242 41.3472 0.324491 41.7386 0.488632C42.1326 0.652774 42.428 0.882572 42.625 1.17803C42.8245 1.47348 42.9242 1.81565 42.9242 2.20454C42.9242 2.5 42.8624 2.76389 42.7386 2.99621C42.6149 3.22601 42.4444 3.41666 42.2273 3.56818C42.0101 3.71969 41.7588 3.82576 41.4735 3.88636V3.96212C41.7866 3.97727 42.0758 4.06187 42.3409 4.21591C42.6086 4.36995 42.8232 4.58459 42.9849 4.85985C43.1465 5.13257 43.2273 5.45581 43.2273 5.82954C43.2273 6.24621 43.1212 6.61869 42.9091 6.94697C42.697 7.27273 42.3902 7.5303 41.9886 7.7197C41.5871 7.90657 41.0998 8 40.5265 8H37.0455ZM38.9205 6.48864H40.0795C40.4861 6.48864 40.7854 6.41162 40.9773 6.25757C41.1717 6.10353 41.2689 5.88889 41.2689 5.61364C41.2689 5.41414 41.2222 5.24242 41.1288 5.09848C41.0354 4.95202 40.9028 4.83964 40.7311 4.76136C40.5593 4.68055 40.3535 4.64015 40.1136 4.64015H38.9205V6.48864ZM38.9205 3.43182H39.9583C40.1629 3.43182 40.3447 3.39772 40.5038 3.32954C40.6629 3.26136 40.7866 3.16288 40.875 3.03409C40.9659 2.9053 41.0114 2.75 41.0114 2.56818C41.0114 2.30808 40.9192 2.10353 40.7349 1.95454C40.5505 1.80555 40.3018 1.73106 39.9886 1.73106H38.9205V3.43182Z" fill="#2B7EE5"/>
<path d="M43.2988 72.2424V80H41.7079L38.6207 75.5227H38.5715V80H36.6965V72.2424H38.3101L41.3632 76.7121H41.4276V72.2424H43.2988Z" fill="#2B7EE5"/>
<path d="M2.05729 38.4312V36.9084H8.61411V38.4312H6.26184V44.666H4.41335V38.4312H2.05729Z" fill="#2B7EE5"/>
<path d="M74.226 44.666H72.1578V43.0675H74.1541C74.5884 43.0675 74.9558 42.9943 75.2563 42.8478C75.5594 42.6988 75.7879 42.4577 75.9419 42.1243C76.0985 41.7885 76.1768 41.3415 76.1768 40.7834C76.1768 40.2254 76.0985 39.7809 75.9419 39.4501C75.7854 39.1168 75.5543 38.8769 75.2488 38.7304C74.9457 38.5814 74.572 38.5069 74.1275 38.5069H72.1238V36.9084H74.2222C75.0126 36.9084 75.6932 37.0637 76.2639 37.3743C76.8371 37.6824 77.2791 38.1269 77.5897 38.7077C77.9003 39.286 78.0556 39.9779 78.0556 40.7834C78.0556 41.5915 77.9003 42.286 77.5897 42.8668C77.2816 43.4476 76.8409 43.8933 76.2677 44.2039C75.6945 44.512 75.0139 44.666 74.226 44.666ZM73.2336 36.9084V44.666H71.3586V36.9084H73.2336ZM70.3207 41.0637V40.0259H74.2488V41.0637H70.3207Z" fill="#2B7EE5"/>
<path d="M25.615 64.9912C24.7925 64.9912 24.127 64.3257 24.127 63.5032V60.5271C24.127 59.7046 24.7925 59.0391 25.615 59.0391C26.4375 59.0391 27.103 59.7046 27.103 60.5271V63.5032C27.103 64.3257 26.4375 64.9912 25.615 64.9912Z" fill="#64B9F6"/>
<path d="M55.3748 64.9912C54.5523 64.9912 53.8867 64.3257 53.8867 63.5032V60.5271C53.8867 59.7046 54.5523 59.0391 55.3748 59.0391C56.1972 59.0391 56.8628 59.7046 56.8628 60.5271V63.5032C56.8628 64.3257 56.1972 64.9912 55.3748 64.9912Z" fill="#64B9F6"/>
<path d="M37.0232 29.6745C36.2007 29.6745 35.5352 29.0089 35.5352 28.1864V16.0837C35.5352 15.2613 36.2007 14.5957 37.0232 14.5957C37.8457 14.5957 38.5112 15.2613 38.5112 16.0837V28.1864C38.5112 29.0089 37.8457 29.6745 37.0232 29.6745Z" fill="#F63737"/>
<path d="M42.9763 29.6745C42.1538 29.6745 41.4883 29.0089 41.4883 28.1864V16.0837C41.4883 15.2613 42.1538 14.5957 42.9763 14.5957C43.7988 14.5957 44.4644 15.2613 44.4644 16.0837V28.1864C44.4644 29.0089 43.7988 29.6745 42.9763 29.6745Z" fill="#F63737"/>
<path d="M42.9749 35.6274H37.0227C34.5611 35.6274 32.5586 33.6249 32.5586 31.1633V28.1873C32.5586 27.3648 33.2241 26.6992 34.0466 26.6992H45.9509C46.7734 26.6992 47.439 27.3648 47.439 28.1873V31.1633C47.439 33.6249 45.4365 35.6274 42.9749 35.6274Z" fill="url(#paint0_linear_3289_19716)"/>
<path d="M23.6318 41.5796V28.1873C23.6318 27.3648 22.9663 26.6992 22.1438 26.6992H19.1677C18.3452 26.6992 17.6797 27.3648 17.6797 28.1873V41.5796H23.6318Z" fill="url(#paint1_linear_3289_19716)"/>
<path d="M20.6558 26.6983C19.0152 26.6983 17.6797 25.3628 17.6797 23.7222C17.6797 22.9856 18.3176 21.5175 19.3799 19.7447C19.6489 19.2959 20.1337 19.0213 20.6568 19.0215C21.1798 19.0217 21.6634 19.2972 21.9323 19.746C22.9943 21.5182 23.6318 22.9858 23.6318 23.7222C23.6318 25.3628 22.2964 26.6983 20.6558 26.6983Z" fill="#EDBC20"/>
<path d="M62.3193 41.5796V28.1873C62.3193 27.3648 61.6538 26.6992 60.8313 26.6992H57.8552C57.0327 26.6992 56.3672 27.3648 56.3672 28.1873V41.5796H62.3193Z" fill="url(#paint2_linear_3289_19716)"/>
<path d="M59.3433 26.6988C57.7027 26.6988 56.3672 25.3634 56.3672 23.7228C56.3672 22.9864 57.0048 21.5188 58.0666 19.7466C58.3354 19.2982 58.8196 19.0237 59.3424 19.0234C59.8652 19.0231 60.3504 19.2969 60.619 19.7453C61.6815 21.5181 62.3193 22.9862 62.3193 23.7228C62.3193 25.3634 60.9839 26.6988 59.3433 26.6988Z" fill="#EDBC20"/>
<path d="M45.9521 26.6992H40V35.6274H42.9761C45.4377 35.6274 47.4402 33.6249 47.4402 31.1633V28.1873C47.4402 27.3648 46.7746 26.6992 45.9521 26.6992Z" fill="url(#paint3_linear_3289_19716)"/>
<path d="M48.9285 41.5789H31.072C30.2495 41.5789 29.584 40.9133 29.584 40.0908V35.6267C29.584 34.8042 30.2495 34.1387 31.072 34.1387H48.9285C49.751 34.1387 50.4165 34.8042 50.4165 35.6267V40.0908C50.4165 40.9133 49.751 41.5789 48.9285 41.5789Z" fill="#EDBC20"/>
<path d="M48.9282 34.1387H40V41.5789H48.9282C49.7507 41.5789 50.4163 40.9133 50.4163 40.0908V35.6267C50.4163 34.8042 49.7507 34.1387 48.9282 34.1387Z" fill="#EDBC20"/>
<path fill-rule="evenodd" clip-rule="evenodd" d="M62.3199 41.5796H17.6788V60.9241C17.6788 61.7466 18.3443 62.4121 19.1668 62.4121H60.8319C61.6544 62.4121 62.3199 61.7466 62.3199 60.9241V41.5796Z" fill="url(#paint4_linear_3289_19716)"/>
<path d="M63.9071 38.6035H16.0916C15.2691 38.6035 14.6035 39.2691 14.6035 40.0916C14.6035 40.914 15.2691 41.5796 16.0916 41.5796H17.6788H62.3199H63.9071C64.7296 41.5796 65.3952 40.914 65.3952 40.0916C65.3952 39.2691 64.7296 38.6035 63.9071 38.6035Z" fill="#409BF1"/>
<path fill-rule="evenodd" clip-rule="evenodd" d="M62.3206 41.5796V60.9241C62.3206 61.7466 61.655 62.4121 60.8325 62.4121H40V41.5796H62.3206Z" fill="url(#paint5_linear_3289_19716)"/>
<path d="M44.4648 44.5547L47.4409 50.5068L44.4648 56.459H35.5366L32.5605 50.5068L35.5366 44.5547H44.4648Z" fill="#C1E3FC"/>
<path d="M35.5356 44.5547V56.459H28.0955C27.2621 56.459 26.6074 55.8041 26.6074 54.9709V46.0427C26.6074 45.2093 27.2621 44.5547 28.0955 44.5547H35.5356Z" fill="#C1E3FC"/>
<path d="M40 44.5547V56.459H44.4641L47.4402 50.5068L44.4641 44.5547H40Z" fill="#C1E3FC"/>
<path d="M53.3911 46.0427V54.9709C53.3911 55.8041 52.7365 56.459 51.9031 56.459H44.4629V44.5547H51.9031C52.7365 44.5547 53.3911 45.2093 53.3911 46.0427Z" fill="#C1E3FC"/>
<defs>
<linearGradient id="paint0_linear_3289_19716" x1="39.9988" y1="26.6992" x2="39.9988" y2="35.6274" gradientUnits="userSpaceOnUse">
<stop stop-color="#64B9F6"/>
<stop offset="1" stop-color="#409BF1"/>
</linearGradient>
<linearGradient id="paint1_linear_3289_19716" x1="20.6558" y1="26.6992" x2="20.6558" y2="41.5796" gradientUnits="userSpaceOnUse">
<stop stop-color="#64B9F6"/>
<stop offset="1" stop-color="#409BF1"/>
</linearGradient>
<linearGradient id="paint2_linear_3289_19716" x1="59.3433" y1="26.6992" x2="59.3433" y2="41.5796" gradientUnits="userSpaceOnUse">
<stop stop-color="#64B9F6"/>
<stop offset="1" stop-color="#409BF1"/>
</linearGradient>
<linearGradient id="paint3_linear_3289_19716" x1="43.7201" y1="26.6992" x2="43.7201" y2="35.6274" gradientUnits="userSpaceOnUse">
<stop stop-color="#64B9F6"/>
<stop offset="1" stop-color="#409BF1"/>
</linearGradient>
<linearGradient id="paint4_linear_3289_19716" x1="39.9993" y1="38.6035" x2="39.9993" y2="62.4121" gradientUnits="userSpaceOnUse">
<stop stop-color="#64B9F6"/>
<stop offset="1" stop-color="#409BF1"/>
</linearGradient>
<linearGradient id="paint5_linear_3289_19716" x1="52.6979" y1="38.6035" x2="52.6979" y2="62.4121" gradientUnits="userSpaceOnUse">
<stop stop-color="#64B9F6"/>
<stop offset="1" stop-color="#409BF1"/>
</linearGradient>
</defs>
</svg>
