<svg width="91" height="107" viewBox="0 0 91 107" fill="none" xmlns="http://www.w3.org/2000/svg">
<path d="M24.3374 91.1519C26.6495 97.7158 23.7316 99.4222 22.3513 100.319C21.6739 100.759 18.8439 100.576 18.7861 105.124V105.73L30.2655 105.799C30.2655 105.799 37.6711 104.014 33.3267 90.9415C32.0574 87.1196 28.6818 75.7719 28.5569 74.4934L16.1572 67.0508C16.7075 68.5883 23.223 87.982 24.3397 91.1495L24.3374 91.1519Z" fill="#231F20"/>
<path d="M82.0742 87.0943C81.9725 88.2965 81.7066 89.3462 81.2904 90.2641C76.1761 101.563 48.6347 92.8421 39.4257 88.5116C30.175 84.1417 24.1521 81.9406 19.6089 76.1026C17.7638 73.7397 16.1546 70.7849 14.6887 66.8312C12.1015 59.9343 8.18951 36.4783 12.3859 33.0772C12.4067 33.0564 35.5252 15.3898 40.1817 33.1281C50.2485 71.4877 85.2348 47.6156 82.0765 87.0966L82.0742 87.0943Z" fill="#231F20"/>
<path d="M41.4974 91.6722C43.8095 98.2362 41.0304 100.199 39.5113 100.84C37.3912 101.732 36.4779 102.985 36.1033 104.06C35.7288 105.135 36.538 106.257 37.6756 106.264L48.5423 106.328C48.5423 106.328 53.3653 103.152 51.0278 91.1382C49.9643 85.6655 47.8371 76.3085 47.7123 75.0276L36.1288 74.9583C36.6791 76.4935 40.3853 88.5024 41.4997 91.6722H41.4974Z" fill="#231F20"/>
<path d="M76.9829 79.4137C72.9483 77.0738 66.8537 75.0693 62.4584 77.4438C56.0239 80.9188 55.0505 88.9325 60.0353 94.3867C60.648 95.0572 63.0156 95.7138 63.7324 96.2756L82.3099 96.1947C82.5203 91.8619 82.3654 86.8331 82.0556 82.817L76.9852 79.4137H76.9829Z" fill="#E2BE74"/>
<path d="M81.9426 77.0367C79.0455 74.801 80.657 80.2343 77.0733 78.6806C73.6954 77.2148 67.0112 77.0552 63.6795 78.8101C57.312 82.1649 55.9156 90.0838 60.8195 95.4501C63.0437 97.8824 66.0586 99.5494 69.1753 100.768C63.409 98.724 57.7005 100.546 56.5791 106.395L81.0501 106.541C84.5067 104.079 83.1287 81.1014 81.9403 77.0367H81.9426Z" fill="#231F20"/>
<path d="M7.53764 26.5731C6.78391 30.1754 8.1388 35.6989 9.97921 38.7254C14.3583 45.9345 14.6288 46.457 24.5708 47.5298L24.8412 9.2372C13.2115 9.06611 9.03587 19.4219 7.53764 26.5731Z" fill="#231F20"/>
<path d="M41.5687 26.876C39.8485 19.7641 35.5134 9.40366 24.8501 9.2395H24.8408L24.5703 47.5321C24.5703 47.5321 24.5773 47.5321 24.5796 47.5321C35.3747 48.6974 34.9192 45.9368 39.3075 38.9358C41.1895 35.9324 42.4334 30.4389 41.571 26.8714L41.5687 26.876Z" fill="#231F20"/>
<path d="M29.1143 47.7747C29.105 49.414 27.1375 50.7295 24.6913 50.7596C24.6404 50.7087 24.5988 50.6787 24.5479 50.6162C24.5479 50.6972 24.4763 50.7596 24.4046 50.7596C21.97 50.6879 20.0324 49.3423 20.044 47.7123C20.0532 46.073 22.0093 44.7574 24.4462 44.7158C24.5179 44.7158 24.5895 44.7875 24.5895 44.8592C24.6404 44.8083 24.6705 44.7782 24.7329 44.7158C27.1791 44.7875 29.1235 46.1331 29.1143 47.7724V47.7747Z" fill="#E2BE74"/>
<path d="M29.0773 33.8282C28.9247 33.6155 28.7605 33.3495 28.5871 33.0536C26.5178 33.0259 24.2057 33.2039 22.2613 32.5149C21.5561 32.6212 20.8902 32.8386 20.2914 33.2339C20.2035 33.3704 20.1156 33.5022 20.0347 33.6178C19.237 34.7414 18.4995 35.7703 17.8244 36.6997C18.0117 37.0049 18.014 37.4535 17.6417 37.724C13.8592 40.4453 15.8822 45.2429 17.8175 48.2994C17.8221 48.3041 17.8221 48.3133 17.8244 48.3202C18.2313 48.385 18.6428 48.4243 19.0613 48.4266C20.363 48.4359 22.6312 48.1237 24.46 46.1561C26.2334 48.1468 28.4923 48.4937 29.7963 48.5029C29.8772 48.5029 29.9558 48.496 30.0344 48.496C30.0853 48.4497 30.1338 48.4058 30.2078 48.3757C32.9453 47.2035 33.632 43.7146 34.3141 41.0326C33.1164 39.4927 31.3893 37.1183 29.0773 33.8305V33.8282Z" fill="#231F20"/>
<path d="M24.592 44.4245C24.5619 44.3436 24.5203 44.2719 24.4903 44.191C20.3031 53.8 11.1635 46.0869 14.3935 40.8084C15.7483 38.5981 18.5922 32.8503 20.9459 27.981C22.1389 25.5048 23.1054 21.3384 23.1169 18.668C23.1169 18.668 22.5967 10.9965 22.5967 10.9341C22.5458 10.1596 23.718 9.75262 24.8371 9.76187C25.9076 9.77112 26.9249 10.148 26.8024 10.9734L26.1596 18.92C26.1388 21.5905 27.0775 25.7661 28.259 28.2539C30.5109 33.0029 33.2415 38.6258 34.6264 40.9495C37.7431 46.2279 28.5734 53.7168 24.5897 44.4245H24.592Z" fill="#E2BE74"/>
<path d="M35.0834 28.1201C35.0834 28.7698 34.5563 29.2946 33.9089 29.2946C33.2615 29.2946 32.7344 28.7675 32.7344 28.1201C32.7344 27.4727 33.2615 26.9456 33.9089 26.9456C34.5563 26.9456 35.0834 27.4727 35.0834 28.1201Z" fill="#E2BE74"/>
<path d="M14.8903 29.2944C15.539 29.2944 16.0649 28.7685 16.0649 28.1198C16.0649 27.4712 15.539 26.9453 14.8903 26.9453C14.2416 26.9453 13.7158 27.4712 13.7158 28.1198C13.7158 28.7685 14.2416 29.2944 14.8903 29.2944Z" fill="#E2BE74"/>
<path d="M24.4878 43.405L27.831 37.6133H21.1445L24.4878 43.405Z" fill="#231F20"/>
<path d="M73.4688 42.2261C79.4385 42.707 84.5043 48.3878 84.3031 54.3737C85.5724 53.2778 86.1574 51.4466 85.7597 49.8166C87.8961 52.746 87.7805 57.1112 85.4939 59.925C86.9528 59.7331 88.3077 58.8592 89.0868 57.6106C89.6186 60.54 88.525 63.7122 86.3008 65.6936C87.7504 66.0127 89.3389 65.6243 90.4787 64.6717C89.7019 67.4046 87.5007 69.6889 84.7979 70.5652C86.0834 70.8218 87.4267 70.7825 88.6937 70.4542C86.6175 73.0391 83.3806 74.7246 80.0651 74.9096C77.2791 75.0645 73.3393 74.024 74.2132 70.5976C74.9716 67.6173 77.1218 65.0994 77.8409 61.9966C78.5877 58.769 78.6432 55.3772 78.0212 52.1241C77.7045 50.4686 75.6259 42.4064 73.4688 42.2307V42.2261Z" fill="#231F20"/>
<path d="M44.3339 0.520764C44.6576 0.257187 45.0691 -0.0202528 45.4621 0.125408C45.7812 0.243324 45.9431 0.592451 46.0633 0.909205C49.6308 10.2269 47.4113 21.4959 40.5791 28.7651C42.29 26.9455 33.1226 16.9388 33.6128 14.1528C34.4821 9.21185 40.6669 3.52415 44.3339 0.520764Z" fill="#231F20"/>
<path d="M43.9897 14.6638C43.5504 15.7204 42.8776 16.6776 42.0314 17.4498C42.7967 15.4568 43.1758 13.3135 43.1389 11.1771C42.3597 12.4673 41.5828 13.7574 40.8036 15.0476C41.2267 12.7124 41.8579 10.4165 42.6926 8.19458C41.5273 9.31363 40.5239 10.6014 39.7216 12.0049C39.8557 10.9668 39.9875 9.92861 40.1216 8.8928C39.3609 9.50088 38.6303 10.1413 38.0222 10.8997C37.3471 11.739 36.8315 12.7401 36.665 13.7944C37.6061 14.9597 38.413 16.3053 39.095 17.4984C39.2291 17.7319 39.9019 19.2024 40.5285 20.6497C41.562 20.7191 42.4707 19.896 43.0163 19.0012C43.8001 17.7134 44.1469 16.1666 43.9897 14.6684V14.6638Z" fill="#E2BE74"/>
<path d="M3.89354 0.520764C3.56985 0.257187 3.15827 -0.0202528 2.76522 0.125408C2.44615 0.243324 2.28428 0.592451 2.16405 0.909205C-1.40348 10.2269 0.816162 21.4959 7.64835 28.7651C5.93741 26.9455 15.1048 16.9388 14.6146 14.1528C13.7453 9.21185 7.56049 3.52415 3.89354 0.520764Z" fill="#231F20"/>
<path d="M4.23821 14.6638C4.67751 15.7204 5.35031 16.6776 6.19653 17.4498C5.43124 15.4568 5.05205 13.3135 5.08904 11.1771C5.86821 12.4673 6.64503 13.7574 7.4242 15.0476C7.00109 12.7124 6.36991 10.4165 5.53526 8.19458C6.70054 9.31363 7.70401 10.6014 8.5063 12.0049C8.3722 10.9668 8.24041 9.92861 8.10631 8.8928C8.86698 9.50088 9.59756 10.1413 10.2056 10.8997C10.8808 11.739 11.3964 12.7401 11.5629 13.7944C10.6218 14.9597 9.81492 16.3053 9.13286 17.4984C8.99876 17.7319 8.32596 19.2024 7.69938 20.6497C6.66589 20.7191 5.75724 19.896 5.21159 19.0012C4.42779 17.7134 4.08099 16.1666 4.23821 14.6684V14.6638Z" fill="#E2BE74"/>
<path d="M21.627 57.1227C20.9542 58.0915 20.1958 58.6279 19.3288 58.7828C18.4779 58.8822 17.5161 58.7989 16.7994 58.2279C16.0618 57.6637 15.6318 56.8869 15.4121 55.9644C16.9936 57.5343 19.5461 57.6938 21.627 57.1227Z" fill="#E2BE74"/>
<path d="M29.3984 56.5469C28.9845 57.6613 28.3972 58.4081 27.5996 58.7387C26.8134 59.1017 25.8748 59.2242 25.0355 58.9029C24.1754 58.6046 23.5372 57.9434 23.0332 57.1526C25.0424 58.1561 27.5117 57.6497 29.3984 56.5469Z" fill="#E2BE74"/>
<path d="M36.8132 54.1354C36.7022 55.3538 36.2791 56.1492 35.5948 56.6925C34.9289 57.2682 34.0202 57.5388 33.1439 57.4671C32.2445 57.3977 31.4515 56.8521 30.7764 56.244C32.9844 56.7665 35.241 55.622 36.8132 54.1331V54.1354Z" fill="#E2BE74"/>
<path d="M43.2381 49.8696C43.5294 51.0719 43.319 51.9251 42.8358 52.6719C42.3502 53.4094 41.5317 53.9157 40.6763 54.1007C39.7561 54.2209 38.8775 53.9435 38.0752 53.5204C40.3156 53.4533 42.2254 51.754 43.2381 49.8696Z" fill="#E2BE74"/>
<path d="M15.4054 61.9017C15.5868 61.9017 15.7338 61.7548 15.7338 61.5734C15.7338 61.3921 15.5868 61.2451 15.4054 61.2451C15.2241 61.2451 15.0771 61.3921 15.0771 61.5734C15.0771 61.7548 15.2241 61.9017 15.4054 61.9017Z" fill="#E2BE74"/>
<path d="M19.4477 63.77C18.9691 63.77 18.583 63.3838 18.583 62.9052C18.583 62.4266 18.9691 62.0405 19.4477 62.0405C19.9263 62.0405 20.3124 62.4266 20.3124 62.9052C20.3124 63.3838 19.9263 63.77 19.4477 63.77Z" fill="#E2BE74"/>
<path d="M23.6483 64.7597C22.9963 64.7597 22.4668 64.2302 22.4668 63.5782C22.4668 62.9262 22.9963 62.3967 23.6483 62.3967C24.3003 62.3967 24.8297 62.9262 24.8297 63.5782C24.8297 64.2302 24.3003 64.7597 23.6483 64.7597Z" fill="#E2BE74"/>
<path d="M27.9022 64.9492C27.1485 64.9492 26.5381 64.3388 26.5381 63.5851C26.5381 62.8313 27.1485 62.2209 27.9022 62.2209C28.6559 62.2209 29.2663 62.8313 29.2663 63.5851C29.2663 64.3388 28.6559 64.9492 27.9022 64.9492Z" fill="#E2BE74"/>
<path d="M32.1039 64.3412C31.3178 64.3412 30.6797 63.703 30.6797 62.9169C30.6797 62.1308 31.3178 61.4927 32.1039 61.4927C32.89 61.4927 33.5282 62.1308 33.5282 62.9169C33.5282 63.703 32.89 64.3412 32.1039 64.3412Z" fill="#E2BE74"/>
<path d="M36.1405 62.9423C35.3868 62.9423 34.7764 62.332 34.7764 61.5782C34.7764 60.8245 35.3868 60.2141 36.1405 60.2141C36.8943 60.2141 37.5046 60.8245 37.5046 61.5782C37.5046 62.332 36.8943 62.9423 36.1405 62.9423Z" fill="#E2BE74"/>
<path d="M39.9158 60.799C39.2638 60.799 38.7344 60.2695 38.7344 59.6175C38.7344 58.9655 39.2638 58.436 39.9158 58.436C40.5678 58.436 41.0973 58.9655 41.0973 59.6175C41.0973 60.2695 40.5678 60.799 39.9158 60.799Z" fill="#E2BE74"/>
<path d="M43.3383 57.9528C42.8597 57.9528 42.4736 57.5667 42.4736 57.0881C42.4736 56.6095 42.8597 56.2234 43.3383 56.2234C43.8169 56.2234 44.2031 56.6095 44.2031 57.0881C44.2031 57.5667 43.8169 57.9528 43.3383 57.9528Z" fill="#E2BE74"/>
<path d="M46.3137 54.3783C46.495 54.3783 46.642 54.2313 46.642 54.05C46.642 53.8687 46.495 53.7217 46.3137 53.7217C46.1324 53.7217 45.9854 53.8687 45.9854 54.05C45.9854 54.2313 46.1324 54.3783 46.3137 54.3783Z" fill="#E2BE74"/>
<path d="M64.914 83.7577C64.9256 84.271 65.1106 84.7403 65.4111 85.1102C64.7013 85.3091 64.1048 85.8524 63.8759 86.6131C63.5222 87.7899 64.1904 89.0338 65.3695 89.3876C65.862 89.5356 66.3637 89.5032 66.8099 89.3321C66.7799 90.0697 67.1128 90.8049 67.7625 91.2558C68.7752 91.9563 70.1601 91.7043 70.863 90.6939C71.1566 90.2708 71.2792 89.7853 71.2537 89.3067C71.9451 89.5633 72.7496 89.4731 73.3785 88.9922C74.3565 88.2477 74.5485 86.8512 73.8017 85.8709C73.4918 85.4617 73.0641 85.1912 72.604 85.0686C73.0618 84.4906 73.2237 83.6976 72.9624 82.9508C72.5555 81.7901 71.2861 81.1774 70.1255 81.5843C69.6399 81.7531 69.2538 82.0745 68.9925 82.4745C68.5833 81.8618 67.8804 81.4618 67.0897 81.4803C65.8597 81.508 64.884 82.5277 64.9117 83.7554L64.914 83.7577ZM67.8712 83.7854C68.1695 83.7785 68.4538 83.9172 68.6365 84.1554C68.648 84.1692 68.6596 84.1877 68.6689 84.2039L68.937 84.6039L69.1983 84.1993C69.3116 84.0213 69.478 83.8941 69.6746 83.8247C70.0584 83.6906 70.4815 83.8178 70.7289 84.1415C70.7867 84.2201 70.8353 84.3057 70.8676 84.3981C70.974 84.701 70.9162 85.034 70.7173 85.2883L70.4191 85.6652L70.8862 85.79C71.0873 85.8432 71.2607 85.9611 71.3879 86.1253C71.5405 86.3241 71.6052 86.5692 71.5705 86.8166C71.5358 87.064 71.4087 87.2836 71.2121 87.4362C70.9555 87.6327 70.6225 87.679 70.3197 87.568L69.8665 87.4015L69.892 87.8824C69.9035 88.0928 69.848 88.294 69.7278 88.4651C69.4342 88.8905 68.8492 88.9945 68.4261 88.7009C68.3475 88.6454 68.2735 88.5784 68.2157 88.4998C68.0839 88.3287 68.0168 88.1113 68.0261 87.8917L68.0446 87.4108L67.596 87.5842C67.3995 87.6582 67.1914 87.6697 66.9926 87.6073C66.8007 87.5495 66.6365 87.4362 66.5163 87.279C66.336 87.0408 66.2782 86.7287 66.3637 86.4443C66.4562 86.1368 66.6967 85.901 67.0088 85.8131L67.4735 85.6836L67.1706 85.3091L67.1521 85.286C67.0319 85.1287 66.9648 84.9392 66.9602 84.7426C66.9556 84.4929 67.0458 84.2548 67.2192 84.0744C67.3926 83.8941 67.6261 83.7924 67.8758 83.7877L67.8712 83.7854Z" fill="#E2BE74"/>
<path d="M68.4423 85.4755C68.7429 85.2466 69.1729 85.3067 69.3995 85.6049C69.6284 85.9055 69.5683 86.3356 69.27 86.5622C68.9694 86.791 68.5394 86.7309 68.3128 86.4327C68.0839 86.1321 68.1418 85.7044 68.4423 85.4755Z" fill="#E2BE74"/>
<path d="M63.6144 90.9712C62.7382 91.9631 62.9324 93.5677 62.9324 93.5677C62.9324 93.5677 64.5485 93.5654 65.4271 92.5735C66.3034 91.5816 66.1069 89.9771 66.1069 89.9771C66.1069 89.9771 64.4884 89.977 63.6121 90.9712H63.6144ZM65.878 90.236C65.878 90.236 65.9913 91.1655 65.4826 91.7389C64.9763 92.3146 64.0399 92.3169 64.0399 92.3169C64.0399 92.3169 63.9266 91.3851 64.4352 90.8117C64.9439 90.2383 65.8803 90.236 65.8803 90.236H65.878Z" fill="#E2BE74"/>
<path d="M66.4749 92.8233C66.1212 91.9286 66.653 90.8789 66.653 90.8789C66.653 90.8789 67.7581 91.2812 68.1142 92.176C68.4679 93.0731 67.9362 94.1227 67.9362 94.1227C67.9362 94.1227 66.831 93.7204 66.4772 92.8257L66.4749 92.8233Z" fill="#E2BE74"/>
<path d="M44.7533 68.8079C43.3961 68.8079 42.1984 69.4877 41.4747 70.5235C41.2597 70.4865 41.0401 70.4634 40.8135 70.4588C41.6158 69.1178 43.0793 68.2161 44.7533 68.2161C46.4272 68.2161 47.8884 69.1178 48.693 70.4588C48.4687 70.4657 48.2491 70.4865 48.0318 70.5235C47.3081 69.4877 46.1105 68.8079 44.7533 68.8079Z" fill="#E2BE74"/>
<path d="M44.753 69.987C43.9299 69.987 43.1877 70.3431 42.6721 70.9096C42.4849 70.8194 42.2929 70.7385 42.0918 70.6737C42.7184 69.8946 43.6779 69.3928 44.753 69.3928C45.8281 69.3928 46.7876 69.8946 47.4142 70.6737C47.2131 70.7385 47.0211 70.8194 46.8339 70.9096C46.3183 70.3454 45.5784 69.987 44.753 69.987Z" fill="#E2BE74"/>
<path d="M44.7529 71.1639C44.3414 71.1639 43.9668 71.3165 43.6801 71.5662C43.5275 71.4344 43.368 71.3142 43.1992 71.2032C43.6015 70.8125 44.1495 70.572 44.7552 70.572C45.361 70.572 45.9067 70.8148 46.3113 71.2032C46.1425 71.3142 45.9829 71.4344 45.8303 71.5662C45.5413 71.3165 45.1668 71.1639 44.7576 71.1639H44.7529Z" fill="#E2BE74"/>
<path d="M44.7526 72.3407C44.6439 72.3407 44.5468 72.3777 44.4682 72.4401C44.3549 72.2782 44.2324 72.1256 44.1006 71.98C44.2809 71.8366 44.5052 71.7488 44.7526 71.7488C45 71.7488 45.2242 71.8366 45.4046 71.98C45.2728 72.1256 45.148 72.2782 45.037 72.4401C44.9584 72.3777 44.859 72.3407 44.7526 72.3407Z" fill="#E2BE74"/>
<path d="M53.2357 68.8079C51.8785 68.8079 50.6809 69.4877 49.9572 70.5235C49.7422 70.4865 49.5225 70.4634 49.2959 70.4588C50.0982 69.1178 51.5617 68.2161 53.2357 68.2161C54.9096 68.2161 56.3709 69.1178 57.1755 70.4588C56.9512 70.4657 56.7315 70.4865 56.5142 70.5235C55.7905 69.4877 54.5929 68.8079 53.2357 68.8079Z" fill="#E2BE74"/>
<path d="M53.2364 69.987C52.4133 69.987 51.6711 70.3431 51.1555 70.9096C50.9683 70.8194 50.7763 70.7385 50.5752 70.6737C51.2018 69.8946 52.1613 69.3928 53.2364 69.3928C54.3115 69.3928 55.271 69.8946 55.8976 70.6737C55.6964 70.7385 55.5045 70.8194 55.3173 70.9096C54.8017 70.3454 54.0618 69.987 53.2364 69.987Z" fill="#E2BE74"/>
<path d="M53.2363 71.1639C52.8248 71.1639 52.4502 71.3165 52.1635 71.5662C52.0109 71.4344 51.8514 71.3142 51.6826 71.2032C52.0849 70.8125 52.6329 70.572 53.2386 70.572C53.8444 70.572 54.39 70.8148 54.7947 71.2032C54.6259 71.3142 54.4663 71.4344 54.3137 71.5662C54.0247 71.3165 53.6502 71.1639 53.241 71.1639H53.2363Z" fill="#E2BE74"/>
<path d="M53.236 72.3407C53.1273 72.3407 53.0302 72.3777 52.9516 72.4401C52.8383 72.2782 52.7158 72.1256 52.584 71.98C52.7643 71.8366 52.9886 71.7488 53.236 71.7488C53.4834 71.7488 53.7077 71.8366 53.888 71.98C53.7562 72.1256 53.6314 72.2782 53.5204 72.4401C53.4418 72.3777 53.3447 72.3407 53.236 72.3407Z" fill="#E2BE74"/>
<path d="M40.513 71.661C39.1558 71.661 37.9582 72.3407 37.2345 73.3765C37.0195 73.3395 36.7998 73.3164 36.5732 73.3118C37.3755 71.9708 38.8391 71.0691 40.513 71.0691C42.187 71.0691 43.6482 71.9708 44.4528 73.3118C44.2285 73.3188 44.0089 73.3395 43.7915 73.3765C43.0679 72.3407 41.8702 71.661 40.513 71.661Z" fill="#E2BE74"/>
<path d="M40.5128 72.8379C39.6897 72.8379 38.9475 73.1939 38.4319 73.7604C38.2446 73.6702 38.0527 73.5893 37.8516 73.5246C38.4781 72.7454 39.4376 72.2437 40.5128 72.2437C41.5879 72.2437 42.5474 72.7454 43.174 73.5246C42.9728 73.5893 42.7809 73.6702 42.5936 73.7604C42.078 73.1962 41.3382 72.8379 40.5128 72.8379Z" fill="#E2BE74"/>
<path d="M40.5127 74.0147C40.1011 74.0147 39.7266 74.1673 39.4399 74.417C39.2873 74.2852 39.1278 74.165 38.959 74.054C39.3613 73.6633 39.9092 73.4229 40.515 73.4229C41.1208 73.4229 41.6664 73.6656 42.071 74.054C41.9022 74.165 41.7427 74.2852 41.5901 74.417C41.3011 74.1673 40.9266 74.0147 40.5173 74.0147H40.5127Z" fill="#E2BE74"/>
<path d="M40.5124 75.1939C40.4037 75.1939 40.3066 75.2309 40.228 75.2934C40.1147 75.1315 39.9921 74.9789 39.8604 74.8333C40.0407 74.6899 40.265 74.6021 40.5124 74.6021C40.7598 74.6021 40.9841 74.6899 41.1644 74.8333C41.0326 74.9789 40.9077 75.1315 40.7968 75.2934C40.7181 75.2309 40.621 75.1939 40.5124 75.1939Z" fill="#E2BE74"/>
<path d="M48.9935 71.661C47.6363 71.661 46.4387 72.3407 45.715 73.3765C45.5 73.3395 45.2803 73.3164 45.0537 73.3118C45.856 71.9708 47.3196 71.0691 48.9935 71.0691C50.6674 71.0691 52.1287 71.9708 52.9333 73.3118C52.709 73.3188 52.4894 73.3395 52.2721 73.3765C51.5484 72.3407 50.3507 71.661 48.9935 71.661Z" fill="#E2BE74"/>
<path d="M48.9932 72.8379C48.1701 72.8379 47.428 73.1939 46.9124 73.7604C46.7251 73.6702 46.5332 73.5893 46.332 73.5246C46.9586 72.7454 47.9181 72.2437 48.9932 72.2437C50.0683 72.2437 51.0279 72.7454 51.6544 73.5246C51.4533 73.5893 51.2614 73.6702 51.0741 73.7604C50.5585 73.1962 49.8186 72.8379 48.9932 72.8379Z" fill="#E2BE74"/>
<path d="M48.9932 74.0147C48.5816 74.0147 48.2071 74.1673 47.9204 74.417C47.7678 74.2852 47.6082 74.165 47.4395 74.054C47.8418 73.6633 48.3897 73.4229 48.9955 73.4229C49.6012 73.4229 50.1469 73.6656 50.5515 74.054C50.3827 74.165 50.2232 74.2852 50.0706 74.417C49.7816 74.1673 49.407 74.0147 48.9978 74.0147H48.9932Z" fill="#E2BE74"/>
<path d="M48.9928 75.1939C48.8841 75.1939 48.787 75.2309 48.7084 75.2934C48.5951 75.1315 48.4726 74.9789 48.3408 74.8333C48.5212 74.6899 48.7454 74.6021 48.9928 74.6021C49.2402 74.6021 49.4645 74.6899 49.6448 74.8333C49.513 74.9789 49.3881 75.1315 49.2772 75.2934C49.1986 75.2309 49.1015 75.1939 48.9928 75.1939Z" fill="#E2BE74"/>
<path d="M54.9863 56.2325C55.0719 56.8614 55.2406 57.4487 55.3586 57.9851C55.4788 58.5215 55.5528 59.014 55.532 59.4926C55.5042 60.4382 55.2198 61.3422 54.3875 61.9642C53.5297 62.5884 52.1656 62.852 50.4824 62.5953C52.0292 62.0774 52.8476 61.044 53.458 59.9133C54.0638 58.7712 54.4569 57.4718 54.9887 56.2302L54.9863 56.2325Z" fill="#E2BE74"/>
<path d="M58.5394 58.3872C59.6307 59.4878 60.3474 60.3178 60.5254 61.1178C60.7266 61.9131 60.5624 62.6599 59.9359 63.2703C59.2838 63.8923 58.2318 64.3408 56.9209 64.6784C57.9243 63.7975 58.3798 62.8195 58.5763 61.7651C58.7705 60.7132 58.6804 59.571 58.5394 58.3872Z" fill="#E2BE74"/>
<path d="M63.7928 60.3481C64.4725 60.9192 64.9673 61.4233 65.2887 61.8741C65.6124 62.3273 65.7881 62.6972 65.8321 63.0463C65.9361 63.7353 65.6633 64.2533 65.0089 64.5769C64.3269 64.9122 63.3281 65.0694 62.2715 65.3145C63.1154 64.6347 63.6194 63.9573 63.8552 63.1319C64.0911 62.318 64.0425 61.3655 63.7928 60.3481Z" fill="#E2BE74"/>
<path d="M69.025 63.5387C69.5336 64.2138 69.8781 64.771 70.0978 65.2334C70.322 65.6866 70.4122 66.0565 70.4169 66.3294C70.433 66.8889 70.1509 67.1848 69.5221 67.1987C69.1984 67.2033 68.8053 67.134 68.3498 67.0577C67.9036 66.9675 67.3926 66.8773 66.8701 66.7825C67.7649 66.5652 68.3337 66.2138 68.6573 65.6727C68.9834 65.1363 69.0712 64.4103 69.0227 63.5364L69.025 63.5387Z" fill="#E2BE74"/>
<path d="M73.0044 67.9315C73.3512 68.6529 73.5616 69.2401 73.7004 69.6933C73.8298 70.1534 73.8992 70.4679 73.883 70.6967C73.8645 71.1545 73.668 71.2748 73.1987 71.0158C72.7039 70.7546 71.9547 70.1557 71.0322 69.6124C71.8322 69.7835 72.2715 69.7557 72.5651 69.4552C72.8495 69.1638 72.9767 68.6205 73.0044 67.9292V67.9315Z" fill="#E2BE74"/>
</svg>
