<svg width="91" height="127" viewBox="0 0 91 127" fill="none" xmlns="http://www.w3.org/2000/svg">
<path d="M35.0635 0.871094C44.2095 0.871094 51.6255 8.2871 51.6255 17.4331C51.6255 26.5791 44.2095 33.9951 35.0635 33.9951C25.9175 33.9951 11.4082 26.5791 11.4082 17.4331C11.4082 9.69143 25.9175 0.871094 35.0635 0.871094Z" fill="#231F20"/>
<path d="M47.8996 9.01323L56.4749 8.71443L60.7626 8.60686L61.3602 8.5979L62.1579 8.60388C62.6898 8.60388 63.2246 8.64272 63.7565 8.6726C64.8232 8.7473 65.8868 8.89072 66.9446 9.07896C75.4362 10.6596 83.0495 16.2619 87.0652 23.9648C89.091 27.7983 90.2384 32.1248 90.3848 36.4483C90.4654 38.6175 90.3191 40.5985 90.0292 42.5645C89.7364 44.5216 89.3002 46.4369 88.6757 48.3402C87.3969 52.1169 85.5623 55.9863 82.0306 59.6286C80.2707 61.4213 77.9849 63.1214 75.242 64.2568C74.4472 64.5885 74.1544 64.6692 73.6793 64.8395C73.2341 64.9919 72.8009 65.1502 72.3258 65.2877C71.4115 65.5775 70.4315 65.8285 69.4395 66.0556C67.4227 66.4918 65.2026 66.7757 62.8661 66.7368C60.5325 66.701 58.1272 66.2767 56.0177 65.6432C53.8844 65.0128 52.1065 64.206 50.6305 63.5069C49.1455 62.7987 47.9713 62.1952 46.9494 61.735C44.9117 60.8088 43.4416 60.3576 41.6578 60.1335C41.2156 60.0797 40.7674 60.0349 40.2953 60.023C39.7784 59.9991 39.4408 59.9961 39.0912 60.014C38.3831 60.0409 37.6839 60.1335 37.0026 60.3098C35.6372 60.6504 34.3463 61.3347 33.2259 62.2579C32.1233 63.1991 31.2031 64.3823 30.6085 65.712C30.0109 67.0296 29.7001 68.5206 29.727 70.0056C29.748 71.4667 30.0826 72.9905 30.7668 74.3859C31.457 75.7753 32.4401 77.0392 33.6442 77.9953C34.203 78.4375 35.0277 78.9574 35.7597 79.3309C36.5127 79.6894 37.2596 79.9912 38.0394 80.1914C38.8223 80.3796 39.632 80.4962 40.4985 80.535C41.368 80.5589 42.2972 80.4842 43.2743 80.3587C44.2543 80.2243 45.2941 79.9703 46.3548 79.6715C46.8897 79.5072 47.4275 79.3428 47.9773 79.1367L48.3866 78.9933L48.8976 78.799L49.9582 78.3987C52.8386 77.3439 56.1014 76.1667 60.1023 75.6856C62.0982 75.4585 64.2704 75.4556 66.4396 75.8051C68.5999 76.1547 70.7512 76.83 72.6216 77.7861C74.5159 78.7452 76.1145 79.8269 77.6084 81.0908C79.1054 82.3457 80.441 83.7829 81.6153 85.3306C83.9608 88.4291 85.625 92.0475 86.36 95.863C86.7365 97.7663 86.8889 99.7115 86.8262 101.633C86.7575 103.53 86.4766 105.421 85.9925 107.247C85.0304 110.907 83.2198 114.293 80.8026 117.128C78.3794 119.961 75.3018 122.255 71.8029 123.687C68.319 125.127 64.3869 125.638 60.6849 125.04C59.7616 124.9 58.8503 124.696 57.9688 124.434C57.5236 124.314 57.0904 124.162 56.6632 124.003L56.0207 123.767L55.4829 123.543C54.0576 122.94 52.728 122.315 51.4612 121.732C48.9214 120.567 46.6387 119.596 44.3977 119.154C42.1747 118.709 39.9697 118.834 38.3472 119.644C36.6232 120.469 35.2876 122.163 35.192 123.809L35.18 123.997C35.0933 125.473 33.8265 126.597 32.3534 126.51C31.0298 126.432 29.99 125.405 29.8526 124.129C29.6315 122.103 30.1095 120.047 31.0208 118.344C31.9351 116.632 33.22 115.18 34.7856 114.059C38.0305 111.762 41.855 111.254 45.2672 111.433C48.7272 111.627 51.8854 112.598 54.6612 113.501C56.0625 113.955 57.3832 114.397 58.6471 114.765L59.1192 114.899L59.5017 114.983C59.7557 115.045 60.0067 115.099 60.2606 115.129C60.7626 115.216 61.2645 115.261 61.7605 115.27C63.7415 115.311 65.6478 114.836 67.3628 113.901C69.0749 112.966 70.5749 111.574 71.6923 109.921C72.8188 108.269 73.533 106.372 73.8497 104.456C74.008 103.497 74.0588 102.529 73.9961 101.567C73.9303 100.632 73.766 99.7175 73.5 98.836C72.9801 97.0672 72.0151 95.4417 70.7721 94.0972C70.1476 93.4279 69.4633 92.8124 68.7074 92.3044C67.9574 91.7935 67.1209 91.3513 66.4396 91.0734C65.0233 90.5475 63.9058 90.5057 62.2236 90.8075C60.5474 91.1391 58.4051 91.9817 56.0058 93.0843L55.0855 93.5086L54.0248 93.9866C53.2569 94.3362 52.4502 94.6559 51.6375 94.9697C49.9911 95.5762 48.282 96.132 46.4534 96.5383C44.6248 96.9447 42.7066 97.2106 40.7166 97.2793C38.7237 97.3331 36.6769 97.1926 34.6511 96.8311C32.6253 96.4576 30.6533 95.8391 28.7829 95.0712C26.9095 94.2645 25.2362 93.3741 23.4584 92.17C20.0133 89.7946 17.1569 86.6423 15.0654 83.0389C12.9798 79.4295 11.7009 75.3301 11.3573 71.0842C11.0316 66.8593 11.707 62.5746 13.2666 58.5977C14.8234 54.6268 17.3003 51.0383 20.4167 48.1251C23.5451 45.2268 27.3307 42.9918 31.4541 41.713C33.5127 41.0736 35.6431 40.6583 37.7884 40.4909C38.8641 40.4073 39.9577 40.3983 40.872 40.4222C41.8281 40.4372 42.8052 40.4999 43.7852 40.5985C50.3108 41.1871 56.445 45.7198 62.9587 45.3881C67.5093 45.1551 70.548 41.5128 70.4255 37.0787C70.4105 35.6834 70.0789 34.3388 69.4634 33.1018C68.8508 31.8678 67.9694 30.7324 66.8729 29.842C65.7763 28.9486 64.4885 28.3301 63.117 27.9775C62.7704 27.8969 62.4208 27.8222 62.0653 27.7744C61.886 27.7564 61.7068 27.7206 61.5245 27.7146L61.2496 27.6937C61.2197 27.6877 61.142 27.6847 61.0434 27.6847L60.7745 27.6787L56.4869 27.5712L47.9115 27.2724C42.8679 27.0961 38.9239 22.8682 39.0972 17.8246C39.2645 13.0051 43.1667 9.18652 47.9115 9.01023L47.8996 9.01323Z" fill="#231F20"/>
<path d="M30.6589 18.1891H6.52251C3.14915 18.1891 0.40625 15.4432 0.40625 12.0728C0.40625 11.6545 0.743893 11.3169 1.1622 11.3169C1.58051 11.3169 1.91815 11.6545 1.91815 12.0728C1.91815 14.6126 3.98278 16.6772 6.52251 16.6772H30.6589C31.0772 16.6772 31.4149 17.0148 31.4149 17.4332C31.4149 17.8515 31.0772 18.1891 30.6589 18.1891Z" fill="#231F20"/>
<path d="M1.1622 23.5495C0.743893 23.5495 0.40625 23.2118 0.40625 22.7935C0.40625 19.4201 3.14915 16.6772 6.52251 16.6772H30.6589C31.0772 16.6772 31.4149 17.0149 31.4149 17.4332C31.4149 17.8515 31.0772 18.1891 30.6589 18.1891H6.52251C3.98278 18.1891 1.91815 20.2538 1.91815 22.7935C1.91815 23.2118 1.58051 23.5495 1.1622 23.5495Z" fill="#231F20"/>
<path d="M63.7737 11.7113C62.9251 12.034 62.1453 12.3955 61.476 12.9005C60.8067 13.4025 60.2599 14.0001 59.8745 14.7201C59.1245 16.1304 59.0857 17.8545 59.4024 19.456C59.7251 21.0695 60.3824 22.5425 61.0846 23.8931C60.7021 19.6681 61.2041 15.1384 63.7708 11.7113H63.7737Z" fill="#E2BE74"/>
<path d="M76.2037 16.6534C75.7136 16.6085 75.2415 16.5577 74.7814 16.5966C74.3243 16.6294 73.8851 16.6922 73.4697 16.7908C72.6421 16.976 71.9071 17.3555 71.3005 17.8993C70.1233 18.9511 69.5555 20.5526 69.3255 22.1332C69.2119 22.925 69.191 23.7048 69.1731 24.4877C69.1522 25.2705 69.2179 25.9906 69.209 26.7077C69.9052 24.7416 70.6462 22.7666 71.7607 20.9828C72.8632 19.211 74.2914 17.6214 76.2037 16.6563V16.6534Z" fill="#E2BE74"/>
<path d="M85.2299 27.5264C84.4381 26.9736 83.6762 26.4985 82.8545 26.2535C82.0388 25.9995 81.2589 25.9039 80.4582 26.0533C78.9194 26.3312 77.6316 27.3919 76.6426 28.605C76.1526 29.2115 75.7014 29.8719 75.316 30.5202C74.9395 31.1656 74.563 31.826 74.2373 32.4415C77.3208 29.8001 80.9661 27.2873 85.2329 27.5264H85.2299Z" fill="#E2BE74"/>
<path d="M87.2437 41.8565C86.93 40.8854 86.5923 40.0189 86.0515 39.3197C85.5227 38.6206 84.94 38.0887 84.1901 37.772C82.7648 37.1565 81.1394 37.4045 79.6843 37.8795C78.9701 38.1186 78.2292 38.4114 77.5659 38.7072C76.8996 39.006 76.2572 39.2928 75.6387 39.5707C79.5857 39.2869 83.9719 39.0538 87.2437 41.8565Z" fill="#E2BE74"/>
<path d="M80.3333 54.5402C80.5066 54.092 80.6111 53.6199 80.7038 53.1777C80.7964 52.7355 80.8352 52.2933 80.8322 51.869C80.8382 51.0264 80.653 50.2406 80.2675 49.5593C79.5265 48.2417 78.1132 47.4618 76.6671 46.9748C75.2269 46.5027 73.7329 46.2696 72.4033 46.0396C74.0825 47.0375 75.8125 48.143 77.2467 49.5085C77.9638 50.1928 78.6062 50.9427 79.1351 51.7793C79.661 52.61 80.0912 53.5452 80.3303 54.5402H80.3333Z" fill="#E2BE74"/>
<path d="M66.977 60.7102C67.8405 60.2292 68.6322 59.6196 69.179 58.9563C69.7378 58.287 70.0933 57.5729 70.2039 56.7961C70.428 55.3081 69.7468 53.8679 68.9072 52.6339C68.4888 52.0273 68.0227 51.4387 67.5746 50.886C67.1264 50.3541 66.6931 49.7864 66.3047 49.3024C66.9023 51.1101 67.5626 53.0163 67.8255 54.9465C67.957 55.9116 67.9869 56.8857 67.8614 57.8568C67.7359 58.8278 67.4491 59.8049 66.977 60.7072V60.7102Z" fill="#E2BE74"/>
<path d="M54.0957 58.5709C55.6046 58.1615 57.0896 57.5341 58.0129 56.3568C58.9182 55.2154 59.205 53.6886 59.0825 52.2036C58.954 50.7156 58.4581 49.2635 57.7111 47.913C57.9203 51.8331 56.6474 55.7353 54.0957 58.5709Z" fill="#E2BE74"/>
<path d="M44.0625 56.2672C45.4608 55.6696 46.8443 54.8957 47.6241 53.6378C48.3831 52.4247 48.4996 50.8979 48.2008 49.4517C48.0484 48.7286 47.8124 48.0324 47.4807 47.3512C47.1431 46.67 46.7666 46.0246 46.2766 45.4031C47.0236 49.2216 46.172 53.1747 44.0625 56.2642V56.2672Z" fill="#E2BE74"/>
<path d="M35.4124 55.8937C35.5648 55.6546 35.6993 55.3648 35.8726 55.1258C36.0369 54.8718 36.2012 54.6029 36.3596 54.319C36.6703 53.7364 36.9901 53.1687 37.1902 52.4725C37.5876 51.1429 37.5369 49.6399 36.8646 48.3253C36.53 47.6769 36.0549 47.0405 35.4364 46.5176C34.8149 46.0156 34.0619 45.5136 33.1895 45.2029C33.8468 45.9528 34.3189 46.8223 34.6595 47.7068C35.0001 48.5942 35.2063 49.5085 35.3288 50.4317C35.4483 51.355 35.4842 52.2842 35.4812 53.1926C35.4602 54.1128 35.4364 55.0152 35.4154 55.8937H35.4124Z" fill="#E2BE74"/>
<path d="M29.6395 60.1783C29.5977 59.5269 29.6216 58.8786 29.505 58.2063C29.3975 57.5191 29.2302 56.8946 28.9344 56.2641C28.3607 55.0331 27.3269 53.9694 25.9524 53.4495C25.2682 53.1866 24.4854 53.0581 23.7235 53.0611C22.9466 53.0611 22.1219 53.1746 21.2793 53.3868C23.2065 53.826 24.826 54.7971 26.1945 56.0161C26.8787 56.6257 27.5001 57.301 28.0678 58.0031C28.6415 58.7083 29.1285 59.4343 29.6365 60.1753L29.6395 60.1783Z" fill="#E2BE74"/>
<path d="M26.954 67.3016C26.6015 66.8384 26.1503 66.3484 25.741 65.8943C25.3137 65.4401 24.7759 64.9889 24.2171 64.6214C23.0996 63.9043 21.6774 63.5547 20.2462 63.8625C19.5231 64.0119 18.8628 64.3286 18.1965 64.7828C17.5182 65.2399 16.9206 65.8405 16.3828 66.5546C19.9653 64.9381 23.7629 66.1512 26.957 67.3016H26.954Z" fill="#E2BE74"/>
<path d="M28.9019 75.9097C27.7216 75.0641 26.4996 74.4187 25.1222 74.3082C23.7806 74.2036 22.4211 74.6787 21.3574 75.6139C20.2877 76.5462 19.5318 77.9236 19.0537 79.4265C21.7159 76.7882 25.3941 75.7603 28.9019 75.9127V75.9097Z" fill="#E2BE74"/>
<path d="M33.8864 81.2163C33.2858 81.303 32.6434 81.4464 32.0398 81.6017C31.4243 81.7721 30.8029 82.0141 30.2292 82.3487C29.1028 83.015 28.2034 84.1146 27.8747 85.495C27.7044 86.1942 27.6894 86.9232 27.806 87.6911C27.9165 88.474 28.1735 89.2628 28.55 90.0366C28.7412 86.224 31.3795 83.4184 33.8834 81.2163H33.8864Z" fill="#E2BE74"/>
<path d="M41.6004 83.015C41.3942 83.2122 41.1821 83.4244 40.97 83.6514C40.7608 83.8875 40.5397 84.0787 40.3335 84.3207C39.9182 84.8018 39.5238 85.3157 39.213 85.8984C38.6154 87.0517 38.4511 88.4441 38.9112 89.7647C39.1383 90.434 39.5148 91.0675 40.0347 91.6352C40.5516 92.2238 41.206 92.7556 41.9828 93.1829C40.9759 91.5724 40.6921 89.8006 40.7459 88.0616C40.8056 86.3436 41.197 84.5926 41.5974 83.015H41.6004Z" fill="#E2BE74"/>
<path d="M50.693 80.1196C49.6502 81.3327 48.9779 82.5906 48.9062 83.9412C48.8494 85.2469 49.4201 86.5108 50.3822 87.4729C51.3384 88.438 52.6739 89.1073 54.0215 89.6063C51.5953 87.0217 50.2657 83.6065 50.693 80.1196Z" fill="#E2BE74"/>
<path d="M64.007 78.1447C63.1047 78.4225 62.3159 78.6974 61.6376 79.1665C60.9653 79.6177 60.4634 80.1077 60.1556 80.7501C59.564 81.9632 59.8389 83.3197 60.3349 84.5239C60.5829 85.1095 60.8996 85.737 61.2253 86.2897C61.3956 86.5706 61.5599 86.8455 61.7243 87.1144C61.9006 87.3893 62.0709 87.6582 62.2412 87.9211C61.6824 84.5777 61.5091 80.9204 64.01 78.1447H64.007Z" fill="#E2BE74"/>
<path d="M76.2989 83.3049C75.8507 83.2272 75.4324 83.1406 75.0051 83.1316C74.5838 83.1107 74.1774 83.1196 73.795 83.1555C73.039 83.2153 72.3369 83.4662 71.7781 83.8367C70.6845 84.5718 70.1706 85.8327 69.9914 87.1474C69.8987 87.8137 69.9077 88.465 69.9256 89.1493C69.9406 89.8365 70.0272 90.4878 70.081 91.1571C70.6308 89.4869 71.2882 87.8973 72.2861 86.5109C73.2751 85.1365 74.5868 83.9622 76.2989 83.3049Z" fill="#E2BE74"/>
<path d="M84.6176 94.9128C84.011 94.1689 83.3537 93.5384 82.6396 93.0932C81.9613 92.645 81.1994 92.397 80.4823 92.3671C79.084 92.3163 77.8828 93.1261 76.8789 94.0912C76.3709 94.5812 75.9407 95.0861 75.4835 95.624C75.0473 96.1648 74.626 96.6847 74.2227 97.1837C75.8152 96.2694 77.4406 95.3999 79.1736 94.8979C80.9155 94.393 82.7501 94.2884 84.6146 94.9099L84.6176 94.9128Z" fill="#E2BE74"/>
<path d="M84.0592 108.418C84.0085 107.991 83.8979 107.567 83.7844 107.175C83.6649 106.781 83.5363 106.41 83.3541 106.067C82.9955 105.38 82.5533 104.818 81.9647 104.42C80.8233 103.65 79.3712 103.617 78.0386 103.913C77.3693 104.062 76.7 104.289 76.0845 104.558C75.481 104.83 74.8475 105.129 74.3066 105.448C76.0277 105.332 77.8443 105.403 79.5415 105.84C81.2326 106.273 82.8342 107.092 84.0592 108.421V108.418Z" fill="#E2BE74"/>
<path d="M75.7651 119.757C76.3597 119.064 76.8109 118.302 77.0589 117.567C77.3039 116.823 77.3457 116.118 77.1574 115.497C76.9841 114.905 76.5957 114.433 76.1266 114.071C75.6575 113.71 75.1047 113.447 74.531 113.235C73.9693 113.035 73.3926 112.882 72.8369 112.754C72.2782 112.625 71.7434 112.524 71.2324 112.446C72.3798 113.297 73.5869 114.269 74.4952 115.47C75.4035 116.668 75.9682 118.129 75.7651 119.754V119.757Z" fill="#E2BE74"/>
<path d="M27.7755 7.16657C26.5773 7.6775 25.3971 7.6028 25.1252 6.9843C24.8533 6.35684 25.6003 5.43656 26.7895 4.91667C27.9787 4.39378 29.1678 4.48043 29.4368 5.09892C29.7087 5.71742 28.9617 6.64667 27.7725 7.16657H27.7755Z" fill="#E2BE74"/>
<path d="M26.7896 29.4476C27.9877 29.9585 29.1679 29.8838 29.4368 29.2653C29.7087 28.6378 28.9617 27.7176 27.7725 27.1977C26.5833 26.6748 25.3942 26.7614 25.1223 27.3799C24.8504 27.9984 25.5974 28.9277 26.7866 29.4476H26.7896Z" fill="#E2BE74"/>
<path d="M45.7871 18.7509C45.3508 17.8754 44.562 17.2957 43.6806 17.0926C43.5491 17.0627 43.4177 17.0388 43.2832 17.0268C43.4207 16.979 43.5521 16.9223 43.6806 16.8565C44.8548 16.2619 45.575 14.9682 45.3718 13.5907C45.1178 11.8727 43.5163 10.6865 41.7983 10.9434C41.5532 10.9793 41.3232 11.048 41.102 11.1347C40.3222 11.4454 39.7097 12.046 39.384 12.793C39.3601 11.308 38.2814 10.0022 36.7606 9.74827C35.0485 9.45844 33.4261 10.6178 33.1393 12.3298C32.954 13.4354 33.3723 14.5021 34.1521 15.1982C32.7329 14.762 31.1553 15.3835 30.4442 16.752C30.4083 16.8207 30.3784 16.8894 30.3485 16.9611C29.6972 18.461 30.3067 20.2299 31.7798 20.9948L31.8275 21.0157C32.8106 21.5087 33.934 21.437 34.8214 20.9201C34.3733 21.5595 34.191 22.3274 34.2746 23.0714C34.3493 23.7467 34.6392 24.404 35.1531 24.9239C36.3692 26.1639 38.3621 26.1818 39.6021 24.9657C40.2206 24.3592 40.5284 23.5584 40.5374 22.7577C40.5374 22.5216 40.5194 22.2826 40.4686 22.0495C40.5941 22.2169 40.7375 22.3692 40.8899 22.5037C41.8221 23.3314 43.1936 23.5614 44.3798 22.9728C45.9365 22.1989 46.5669 20.3106 45.7931 18.7568L45.7871 18.7509ZM41.2126 19.8355C41.111 19.949 40.9437 19.964 40.8421 19.8654C40.7405 19.7668 40.7286 19.6114 40.8152 19.5158C40.9108 19.4261 41.0453 19.3903 41.1648 19.471C41.2783 19.5457 41.3232 19.7249 41.2126 19.8355ZM40.122 20.1552C40.2236 20.0775 40.3789 20.1044 40.4686 20.212C40.5582 20.3195 40.5313 20.4839 40.4088 20.5765C40.2893 20.6751 40.122 20.6303 40.0533 20.5048C39.9876 20.3853 40.0264 20.2388 40.125 20.1552H40.122ZM39.4199 21.0486C39.2705 21.0874 39.127 21.0067 39.0972 20.8693C39.0673 20.7319 39.145 20.5944 39.2705 20.5645C39.399 20.5406 39.5364 20.6064 39.5872 20.7319C39.6409 20.8663 39.5693 21.0217 39.4199 21.0516V21.0486ZM41.607 18.5537C41.7414 18.5925 41.8102 18.7449 41.7564 18.8883C41.7026 19.0317 41.5622 19.1005 41.4307 19.0347C41.3112 18.975 41.2395 18.8226 41.2843 18.7031C41.3292 18.5806 41.4725 18.5148 41.61 18.5567L41.607 18.5537ZM42.0104 17.8216C41.9895 17.974 41.858 18.0786 41.7176 18.0547C41.5801 18.0308 41.4815 17.9083 41.5025 17.7828C41.5234 17.6543 41.613 17.5467 41.7594 17.5467C41.8938 17.5467 42.0343 17.6692 42.0104 17.8216ZM38.3382 21.2099C38.1858 21.2249 38.0693 21.0994 38.0842 20.953C38.0962 20.8185 38.2097 20.7169 38.3382 20.702C38.4667 20.696 38.5803 20.8036 38.5922 20.944C38.6042 21.0844 38.4906 21.204 38.3352 21.2099H38.3382ZM41.2694 12.1804C42.2913 11.6725 43.5312 12.0878 44.0362 13.1097C44.5382 14.1196 44.1378 15.3416 43.1428 15.8586C43.5372 15.264 43.6119 14.4841 43.2713 13.7969C42.7633 12.778 41.5233 12.3597 40.5015 12.8677C40.4895 12.8736 40.4775 12.8796 40.4686 12.8856C40.6628 12.5928 40.9318 12.3448 41.2664 12.1775L41.2694 12.1804ZM41.7355 17.0358C41.5951 17.0537 41.4576 16.9671 41.4248 16.8446C41.3919 16.7191 41.4755 16.5846 41.61 16.5398C41.7444 16.498 41.8819 16.5816 41.9207 16.731C41.9566 16.8804 41.873 17.0179 41.7355 17.0358ZM41.4218 16.0647C41.2933 16.1245 41.1439 16.0767 41.0901 15.9602C41.0393 15.8406 41.0483 15.7032 41.1708 15.6195C41.2783 15.5418 41.4695 15.5628 41.5323 15.7062C41.598 15.8436 41.5503 16.005 41.4218 16.0647ZM40.86 15.2132C40.7554 15.3088 40.5911 15.3148 40.4955 15.2281C40.3999 15.1415 40.3939 14.9801 40.4805 14.8696C40.5672 14.759 40.7285 14.753 40.8451 14.8546C40.9586 14.9562 40.9676 15.1176 40.863 15.2132H40.86ZM39.7246 14.6843C39.6051 14.6335 39.5453 14.4961 39.5961 14.3646C39.6469 14.2361 39.8053 14.1674 39.9457 14.2272C40.0772 14.3049 40.125 14.4692 40.0533 14.5887C39.9816 14.7082 39.8321 14.753 39.7216 14.6873L39.7246 14.6843ZM38.897 13.9134C39.0494 13.9373 39.145 14.0658 39.1121 14.2033C39.0793 14.3407 38.9478 14.4363 38.8223 14.4154C38.6938 14.3975 38.5981 14.266 38.6071 14.1256C38.6161 13.9851 38.7475 13.8895 38.8999 13.9134H38.897ZM35.1949 17.7678C35.2009 17.8963 35.0903 18.0188 34.9529 18.0427C34.8154 18.0636 34.696 17.9591 34.687 17.8037C34.678 17.6513 34.7886 17.5288 34.929 17.5288C35.0695 17.5288 35.189 17.6364 35.1949 17.7649V17.7678ZM37.8004 13.8955C37.9528 13.8865 38.0842 13.9941 38.0932 14.1345C38.1022 14.275 38.0036 14.3915 37.8751 14.3975C37.7496 14.4303 37.6211 14.3467 37.5883 14.2092C37.5554 14.0718 37.651 13.9314 37.7974 13.8955H37.8004ZM35.5236 15.6076C35.6372 15.6883 35.679 15.8436 35.6103 15.9542C35.5416 16.0647 35.3861 16.1066 35.2577 16.0468C35.1292 15.987 35.0903 15.8317 35.171 15.7002C35.2517 15.5687 35.4071 15.5269 35.5236 15.6076ZM35.8433 14.8367C35.9598 14.7381 36.1331 14.756 36.2168 14.8666C36.3034 14.9801 36.2885 15.1265 36.1899 15.2102C36.1033 15.3058 35.9479 15.3088 35.8433 15.2132C35.7387 15.1176 35.7387 14.9502 35.8433 14.8367ZM35.0784 16.5279C35.2189 16.5727 35.2666 16.7012 35.2547 16.8296C35.2367 16.9581 35.1083 17.0448 34.9678 17.0268C34.8274 17.0089 34.7348 16.8685 34.7587 16.7161C34.7766 16.5637 34.9529 16.486 35.0784 16.5279ZM36.7576 14.2331C36.895 14.1674 37.0475 14.2182 37.0983 14.3497C37.1491 14.4811 37.0922 14.6335 36.9787 14.6903C36.8622 14.7471 36.7098 14.6933 36.6381 14.5708C36.5664 14.4513 36.6202 14.2959 36.7576 14.2302V14.2331ZM34.5615 14.1136C34.5615 14.1136 34.5674 14.1405 34.5704 14.1525C34.3523 13.8776 34.1999 13.5459 34.1432 13.1754C33.9759 12.046 34.7527 10.9972 35.8822 10.8299C36.9967 10.6626 38.0335 11.4245 38.2217 12.53C37.7765 11.9713 37.0594 11.6575 36.3004 11.7711C35.171 11.9384 34.3942 12.9902 34.5615 14.1166V14.1136ZM32.8883 20.2568C31.7648 20.0685 31.0059 19.0019 31.1941 17.8784C31.3794 16.7669 32.4221 16.0139 33.5336 16.1813C32.8643 16.4322 32.3445 17.0179 32.216 17.7738C32.0277 18.8973 32.7867 19.961 33.9101 20.1522C33.9221 20.1522 33.937 20.1522 33.949 20.1552C33.6203 20.2777 33.2588 20.3195 32.8853 20.2598L32.8883 20.2568ZM35.2666 19.0138C35.1411 19.0765 34.9858 19.0138 34.9171 18.8764C34.8513 18.7389 34.95 18.5776 35.0784 18.5417C35.2189 18.4999 35.3353 18.5776 35.3921 18.6941C35.4489 18.8106 35.3921 18.954 35.2666 19.0168V19.0138ZM35.4728 19.8205C35.3802 19.698 35.4011 19.5367 35.5176 19.459C35.6342 19.3813 35.7925 19.4022 35.8702 19.5038C35.9479 19.6054 35.924 19.7727 35.8284 19.8654C35.7208 19.967 35.5654 19.943 35.4728 19.8205ZM36.8173 18.9331C37.2596 18.0816 37.0474 17.0597 36.3602 16.4502C36.4438 16.4771 36.5305 16.498 36.6202 16.5129C37.5673 16.6713 38.4727 16.1544 38.8402 15.3118C38.8402 15.4014 38.8462 15.4881 38.8611 15.5777C39.0045 16.5279 39.7754 17.227 40.6927 17.3167C40.609 17.3465 40.5254 17.3794 40.4447 17.4183C39.5842 17.8485 39.1569 18.7987 39.3571 19.698C39.3033 19.6263 39.2466 19.5576 39.1838 19.4919C38.5086 18.8047 37.4747 18.6941 36.6799 19.1602C36.7307 19.0885 36.7785 19.0138 36.8203 18.9301L36.8173 18.9331ZM37.2566 21.0456C37.1131 20.9948 37.0385 20.8454 37.0923 20.7139C37.1461 20.5854 37.2864 20.5137 37.4089 20.5586C37.5285 20.6123 37.6062 20.7378 37.5793 20.8723C37.5494 21.0127 37.403 21.1054 37.2596 21.0426L37.2566 21.0456ZM36.2706 20.5705C36.1332 20.4988 36.1212 20.3135 36.2079 20.209C36.3005 20.0984 36.4409 20.0925 36.5574 20.1492C36.668 20.215 36.7009 20.3703 36.6321 20.4928C36.5634 20.6153 36.3991 20.6512 36.2706 20.5705ZM39.2376 23.6391C38.7087 24.649 37.4627 25.0434 36.4528 24.5146C35.4549 23.9947 35.0605 22.7696 35.5594 21.7657C35.5893 22.4798 35.9867 23.1551 36.668 23.5106C37.6779 24.0365 38.9268 23.6451 39.4527 22.6352C39.4587 22.6232 39.4647 22.6113 39.4707 22.5993C39.4856 22.9489 39.4139 23.3075 39.2406 23.6421L39.2376 23.6391ZM44.3888 21.5685C43.585 22.3573 42.2972 22.3543 41.4965 21.5685C42.1837 21.7597 42.9516 21.5894 43.4984 21.0546C44.3111 20.2568 44.326 18.9481 43.5253 18.1354C43.5163 18.1264 43.5043 18.1174 43.4954 18.1085C43.833 18.2011 44.1527 18.3804 44.4157 18.6493C45.2134 19.462 45.2015 20.7707 44.3888 21.5685Z" fill="#E2BE74"/>
<path d="M49.0381 15.4402L56.6065 17.0417L48.9485 18.1323C48.2015 18.2399 47.5083 17.72 47.4037 16.973C47.2962 16.226 47.816 15.5328 48.563 15.4282C48.7244 15.4043 48.8887 15.4133 49.0381 15.4432V15.4402Z" fill="#E2BE74"/>
<path d="M54.2965 12.3537L56.6838 15.8226L52.8712 14.0389C52.3006 13.77 52.0526 13.0917 52.3215 12.518C52.5904 11.9473 53.2686 11.6993 53.8423 11.9682C54.0306 12.0579 54.1889 12.1953 54.2995 12.3567L54.2965 12.3537Z" fill="#E2BE74"/>
<path d="M52.7634 20.0296L56.6835 18.4908L54.0811 21.8015C53.6896 22.2975 52.9726 22.3841 52.4766 21.9927C51.9806 21.6013 51.8939 20.8842 52.2853 20.3882C52.4138 20.2238 52.5841 20.1013 52.7664 20.0296H52.7634Z" fill="#E2BE74"/>
<path d="M36.9788 27.7473C36.9161 27.7473 36.8623 27.6965 36.8623 27.6308C36.8623 27.5651 36.9131 27.5143 36.9788 27.5143C37.0445 27.5143 37.0954 27.5651 37.0954 27.6308C37.0954 27.6965 37.0445 27.7473 36.9788 27.7473Z" fill="#E2BE74"/>
<path d="M34.7823 27.6369C34.6448 27.6369 34.5312 27.5263 34.5312 27.3859C34.5312 27.2454 34.6448 27.1349 34.7823 27.1349C34.9197 27.1349 35.0332 27.2484 35.0332 27.3859C35.0332 27.5233 34.9227 27.6369 34.7823 27.6369Z" fill="#E2BE74"/>
<path d="M32.7032 27.0123C32.506 27.0123 32.3477 26.8539 32.3477 26.6567C32.3477 26.4595 32.506 26.3011 32.7032 26.3011C32.9004 26.3011 33.0588 26.4595 33.0588 26.6567C33.0588 26.8539 32.9004 27.0123 32.7032 27.0123Z" fill="#E2BE74"/>
<path d="M30.8354 25.9068C30.5993 25.9068 30.4111 25.7156 30.4111 25.4825C30.4111 25.2494 30.6023 25.0582 30.8354 25.0582C31.0685 25.0582 31.2597 25.2494 31.2597 25.4825C31.2597 25.7156 31.0685 25.9068 30.8354 25.9068Z" fill="#E2BE74"/>
<path d="M29.2752 24.4158C29.0033 24.4158 28.7822 24.1947 28.7822 23.9228C28.7822 23.6509 29.0033 23.4298 29.2752 23.4298C29.5471 23.4298 29.7683 23.6509 29.7683 23.9228C29.7683 24.1947 29.5471 24.4158 29.2752 24.4158Z" fill="#E2BE74"/>
<path d="M28.102 22.5842C27.8122 22.5842 27.5762 22.3482 27.5762 22.0583C27.5762 21.7685 27.8122 21.5325 28.102 21.5325C28.3919 21.5325 28.6279 21.7685 28.6279 22.0583C28.6279 22.3482 28.3919 22.5842 28.102 22.5842Z" fill="#E2BE74"/>
<path d="M27.3729 20.5195C27.0711 20.5195 26.8291 20.2745 26.8291 19.9757C26.8291 19.6769 27.0741 19.4319 27.3729 19.4319C27.6717 19.4319 27.9167 19.6769 27.9167 19.9757C27.9167 20.2745 27.6717 20.5195 27.3729 20.5195Z" fill="#E2BE74"/>
<path d="M27.127 18.3323C26.8222 18.3323 26.5742 18.0844 26.5742 17.7796C26.5742 17.4748 26.8222 17.2268 27.127 17.2268C27.4318 17.2268 27.6798 17.4748 27.6798 17.7796C27.6798 18.0844 27.4318 18.3323 27.127 18.3323Z" fill="#E2BE74"/>
<path d="M27.3727 16.1214C27.0769 16.1214 26.8379 15.8824 26.8379 15.5866C26.8379 15.2908 27.0769 15.0518 27.3727 15.0518C27.6685 15.0518 27.9076 15.2908 27.9076 15.5866C27.9076 15.8824 27.6685 16.1214 27.3727 16.1214Z" fill="#E2BE74"/>
<path d="M28.1016 14.0119C27.8237 14.0119 27.5967 13.7848 27.5967 13.5069C27.5967 13.229 27.8237 13.002 28.1016 13.002C28.3795 13.002 28.6066 13.229 28.6066 13.5069C28.6066 13.7848 28.3795 14.0119 28.1016 14.0119Z" fill="#E2BE74"/>
<path d="M29.2786 12.1027C29.0246 12.1027 28.8154 11.8965 28.8154 11.6395C28.8154 11.3826 29.0216 11.1764 29.2786 11.1764C29.5355 11.1764 29.7417 11.3826 29.7417 11.6395C29.7417 11.8965 29.5355 12.1027 29.2786 12.1027Z" fill="#E2BE74"/>
<path d="M30.8384 10.4623C31.0497 10.4623 31.2209 10.2911 31.2209 10.0798C31.2209 9.86862 31.0497 9.69739 30.8384 9.69739C30.6272 9.69739 30.4561 9.86862 30.4561 10.0798C30.4561 10.2911 30.6272 10.4623 30.8384 10.4623Z" fill="#E2BE74"/>
<path d="M32.7031 9.21037C32.5358 9.21037 32.3984 9.07292 32.3984 8.90559C32.3984 8.73827 32.5358 8.60083 32.7031 8.60083C32.8705 8.60083 33.0079 8.73827 33.0079 8.90559C33.0079 9.07292 32.8705 9.21037 32.7031 9.21037Z" fill="#E2BE74"/>
<path d="M34.7859 8.36475C34.6814 8.36475 34.5977 8.2811 34.5977 8.17652C34.5977 8.07194 34.6814 7.98828 34.7859 7.98828C34.8905 7.98828 34.9741 8.07194 34.9741 8.17652C34.9741 8.2811 34.8905 8.36475 34.7859 8.36475Z" fill="#E2BE74"/>
<path d="M36.9783 7.97331C36.9544 7.97331 36.9365 7.95539 36.9365 7.93148C36.9365 7.90758 36.9544 7.88965 36.9783 7.88965C37.0022 7.88965 37.0202 7.90758 37.0202 7.93148C37.0202 7.95539 37.0022 7.97331 36.9783 7.97331Z" fill="#E2BE74"/>
<path d="M33.8826 120.182C33.6675 120.182 33.4941 120.008 33.4941 119.793C33.4941 119.578 33.6675 119.405 33.8826 119.405C34.0977 119.405 34.271 119.578 34.271 119.793C34.271 120.008 34.0977 120.182 33.8826 120.182Z" fill="#E2BE74"/>
<path d="M36.8706 117.089C36.6106 117.089 36.3984 116.877 36.3984 116.617C36.3984 116.357 36.6106 116.145 36.8706 116.145C37.1305 116.145 37.3426 116.357 37.3426 116.617C37.3426 116.877 37.1305 117.089 36.8706 117.089Z" fill="#E2BE74"/>
<path d="M40.9825 115.622C40.6748 115.622 40.4268 115.374 40.4268 115.066C40.4268 114.758 40.6748 114.51 40.9825 114.51C41.2903 114.51 41.5383 114.758 41.5383 115.066C41.5383 115.374 41.2903 115.622 40.9825 115.622Z" fill="#E2BE74"/>
<path d="M45.3777 115.577C45.0252 115.577 44.7383 115.29 44.7383 114.938C44.7383 114.585 45.0252 114.298 45.3777 114.298C45.7303 114.298 46.0171 114.585 46.0171 114.938C46.0171 115.29 45.7303 115.577 45.3777 115.577Z" fill="#E2BE74"/>
<path d="M49.6537 116.728C49.2563 116.728 48.9336 116.405 48.9336 116.007C48.9336 115.61 49.2563 115.287 49.6537 115.287C50.0511 115.287 50.3738 115.61 50.3738 116.007C50.3738 116.405 50.0511 116.728 49.6537 116.728Z" fill="#E2BE74"/>
<path d="M53.7735 118.398C53.3283 118.398 52.9697 118.039 52.9697 117.594C52.9697 117.149 53.3312 116.79 53.7735 116.79C54.2157 116.79 54.5773 117.152 54.5773 117.594C54.5773 118.036 54.2157 118.398 53.7735 118.398Z" fill="#E2BE74"/>
<path d="M57.9655 119.859C57.4755 119.859 57.0781 119.462 57.0781 118.972C57.0781 118.482 57.4755 118.084 57.9655 118.084C58.4555 118.084 58.8529 118.482 58.8529 118.972C58.8529 119.462 58.4555 119.859 57.9655 119.859Z" fill="#E2BE74"/>
<path d="M62.3314 120.546C61.7966 120.546 61.3604 120.113 61.3604 119.575C61.3604 119.037 61.7936 118.604 62.3314 118.604C62.8692 118.604 63.3025 119.037 63.3025 119.575C63.3025 120.113 62.8692 120.546 62.3314 120.546Z" fill="#E2BE74"/>
<path d="M66.7295 120.286C66.1468 120.286 65.6777 119.814 65.6777 119.234C65.6777 118.655 66.1498 118.183 66.7295 118.183C67.3091 118.183 67.7812 118.655 67.7812 119.234C67.7812 119.814 67.3091 120.286 66.7295 120.286Z" fill="#E2BE74"/>
</svg>
