<svg width="53" height="53" viewBox="0 0 53 53" fill="none" xmlns="http://www.w3.org/2000/svg">
<path d="M26.28 52.8101C40.6394 52.8101 52.28 41.1695 52.28 26.8101C52.28 12.4507 40.6394 0.810059 26.28 0.810059C11.9206 0.810059 0.280029 12.4507 0.280029 26.8101C0.280029 41.1695 11.9206 52.8101 26.28 52.8101Z" fill="white"/>
<path d="M26.28 51.0656C39.676 51.0656 50.5356 40.206 50.5356 26.81C50.5356 13.414 39.676 2.55444 26.28 2.55444C12.884 2.55444 2.02441 13.414 2.02441 26.81C2.02441 40.206 12.884 51.0656 26.28 51.0656Z" fill="#1F1F7A"/>
<path d="M26.2485 7.4305C26.2028 7.4305 26.1654 7.39312 26.1654 7.34743V4.39606C26.1654 4.35037 26.2028 4.31299 26.2485 4.31299C26.2942 4.31299 26.3315 4.35037 26.3315 4.39606V7.34743C26.3315 7.39312 26.2942 7.4305 26.2485 7.4305Z" fill="#FFE2C2"/>
<path d="M18.8031 8.924C18.7707 8.924 18.74 8.90489 18.7267 8.87249L17.597 6.14541C17.5796 6.10304 17.5995 6.05403 17.6419 6.03658C17.6842 6.01914 17.7332 6.03908 17.7507 6.08144L18.8804 8.80853C18.8978 8.8509 18.8779 8.89991 18.8355 8.91735C18.8247 8.92151 18.8148 8.924 18.804 8.924H18.8031Z" fill="#FFE2C2"/>
<path d="M12.4958 13.153C12.4742 13.153 12.4535 13.1447 12.4369 13.1289L10.3502 11.0423C10.3178 11.0099 10.3178 10.9576 10.3502 10.9252C10.3826 10.8928 10.435 10.8928 10.4674 10.9252L12.554 13.0118C12.5864 13.0442 12.5864 13.0966 12.554 13.1289C12.5374 13.1456 12.5166 13.153 12.495 13.153H12.4958Z" fill="#FFE2C2"/>
<path d="M8.28688 19.4736C8.27608 19.4736 8.26528 19.4719 8.25531 19.4669L5.52821 18.3372C5.48585 18.3198 5.46592 18.2708 5.48336 18.2284C5.50081 18.1861 5.54898 18.1661 5.59217 18.1836L8.31927 19.3133C8.36164 19.3307 8.38157 19.3797 8.36412 19.4221C8.35083 19.4537 8.3201 19.4736 8.28771 19.4736H8.28688Z" fill="#FFE2C2"/>
<path d="M6.81655 26.9247H3.86517C3.81948 26.9247 3.7821 26.8873 3.7821 26.8416C3.7821 26.7959 3.81948 26.7585 3.86517 26.7585H6.81655C6.86223 26.7585 6.89961 26.7959 6.89961 26.8416C6.89961 26.8873 6.86223 26.9247 6.81655 26.9247Z" fill="#FFE2C2"/>
<path d="M5.58383 35.4997C5.55144 35.4997 5.5207 35.4806 5.50741 35.4482C5.48996 35.4058 5.5099 35.3568 5.55227 35.3394L8.27936 34.2097C8.32172 34.1922 8.37074 34.2122 8.38818 34.2545C8.40562 34.2969 8.38568 34.3459 8.34332 34.3634L5.61623 35.4931C5.60543 35.4972 5.59546 35.4997 5.58467 35.4997H5.58383Z" fill="#FFE2C2"/>
<path d="M17.7308 47.6133C17.72 47.6133 17.7092 47.6117 17.6992 47.6067C17.6569 47.5892 17.6369 47.5402 17.6544 47.4979L18.7841 44.7708C18.8015 44.7284 18.8497 44.7085 18.8929 44.7259C18.9353 44.7434 18.9552 44.7924 18.9378 44.8347L17.8081 47.5618C17.7948 47.5934 17.764 47.6133 17.7316 47.6133H17.7308Z" fill="#FFE2C2"/>
<path d="M10.4524 42.7647C10.4308 42.7647 10.4101 42.7564 10.3934 42.7406C10.361 42.7082 10.361 42.6559 10.3934 42.6235L12.4801 40.5369C12.5125 40.5045 12.5648 40.5045 12.5972 40.5369C12.6296 40.5693 12.6296 40.6216 12.5972 40.654L10.5106 42.7406C10.4939 42.7572 10.4732 42.7647 10.4516 42.7647H10.4524Z" fill="#FFE2C2"/>
<path d="M26.3107 49.3079C26.265 49.3079 26.2277 49.2706 26.2277 49.2249V46.2735C26.2277 46.2278 26.265 46.1904 26.3107 46.1904C26.3564 46.1904 26.3938 46.2278 26.3938 46.2735V49.2249C26.3938 49.2706 26.3564 49.3079 26.3107 49.3079Z" fill="#FFE2C2"/>
<path d="M34.8866 47.5901C34.8542 47.5901 34.8235 47.571 34.8102 47.5386L33.6805 44.8115C33.6631 44.7692 33.683 44.7202 33.7254 44.7027C33.7677 44.6853 33.8159 44.7052 33.8342 44.7476L34.9639 47.4747C34.9813 47.517 34.9614 47.566 34.919 47.5835C34.9082 47.5876 34.8983 47.5901 34.8875 47.5901H34.8866Z" fill="#FFE2C2"/>
<path d="M42.1516 42.7208C42.13 42.7208 42.1092 42.7125 42.0926 42.6967L40.006 40.61C39.9736 40.5776 39.9736 40.5253 40.006 40.4929C40.0384 40.4605 40.0907 40.4605 40.1231 40.4929L42.2098 42.5796C42.2422 42.612 42.2422 42.6643 42.2098 42.6967C42.1931 42.7133 42.1724 42.7208 42.1508 42.7208H42.1516Z" fill="#FFE2C2"/>
<path d="M47.0003 35.4423C46.9895 35.4423 46.9787 35.4407 46.9687 35.4357L44.2416 34.306C44.1992 34.2885 44.1793 34.2395 44.1967 34.1972C44.2142 34.1548 44.2624 34.1349 44.3056 34.1523L47.0327 35.282C47.075 35.2995 47.095 35.3485 47.0775 35.3908C47.0642 35.4224 47.0335 35.4423 47.0011 35.4423H47.0003Z" fill="#FFE2C2"/>
<path d="M44.2491 19.4162C44.2167 19.4162 44.186 19.3971 44.1727 19.3647C44.1552 19.3224 44.1752 19.2733 44.2175 19.2559L46.9446 18.1262C46.987 18.1087 47.0352 18.1287 47.0535 18.171C47.0709 18.2134 47.051 18.2624 47.0086 18.2799L44.2815 19.4096C44.2707 19.4137 44.2607 19.4162 44.2499 19.4162H44.2491Z" fill="#FFE2C2"/>
<path d="M48.694 26.8624H45.7426C45.6969 26.8624 45.6595 26.825 45.6595 26.7794C45.6595 26.7337 45.6969 26.6963 45.7426 26.6963H48.694C48.7397 26.6963 48.7771 26.7337 48.7771 26.7794C48.7771 26.825 48.7397 26.8624 48.694 26.8624Z" fill="#FFE2C2"/>
<path d="M40.0202 13.109C39.9986 13.109 39.9778 13.1007 39.9612 13.0849C39.9288 13.0525 39.9288 13.0001 39.9612 12.9678L42.0478 10.8811C42.0802 10.8487 42.1326 10.8487 42.165 10.8811C42.1974 10.9135 42.1974 10.9658 42.165 10.9982L40.0783 13.0849C40.0617 13.1015 40.0409 13.109 40.0193 13.109H40.0202Z" fill="#FFE2C2"/>
<path d="M33.6995 8.89995C33.6887 8.89995 33.6779 8.89829 33.668 8.89331C33.6256 8.87586 33.6057 8.82686 33.6231 8.78449L34.7528 6.05739C34.7703 6.01503 34.8185 5.99509 34.8617 6.01254C34.904 6.02998 34.924 6.07899 34.9065 6.12136L33.7768 8.84845C33.7635 8.88001 33.7328 8.89995 33.7004 8.89995H33.6995Z" fill="#FFE2C2"/>
<path d="M26.28 49.4043C13.8216 49.4043 3.68579 39.2685 3.68579 26.8101C3.68579 14.3517 13.8216 4.21582 26.28 4.21582C38.7384 4.21582 48.8743 14.3517 48.8743 26.8101C48.8743 39.2685 38.7384 49.4043 26.28 49.4043ZM26.28 4.38195C13.913 4.38195 3.85193 14.443 3.85193 26.8101C3.85193 39.1771 13.913 49.2382 26.28 49.2382C38.6471 49.2382 48.7082 39.1771 48.7082 26.8101C48.7082 14.443 38.6471 4.38195 26.28 4.38195Z" fill="#FFE2C2"/>
<path d="M26.28 46.3026C15.532 46.3026 6.78833 37.5589 6.78833 26.8109C6.78833 16.0628 15.532 7.31921 26.28 7.31921C37.0281 7.31921 45.7717 16.0628 45.7717 26.8109C45.7717 37.5589 37.0281 46.3026 26.28 46.3026ZM26.28 7.48452C15.6233 7.48452 6.95446 16.1542 6.95446 26.8101C6.95446 37.4659 15.6242 46.1356 26.28 46.1356C36.9359 46.1356 45.6056 37.4659 45.6056 26.8101C45.6056 16.1542 36.9359 7.48452 26.28 7.48452Z" fill="#FFE2C2"/>
<path d="M17.8761 35.778L18.097 36.2855C18.1909 36.5006 18.3629 36.6726 18.578 36.7665L19.0855 36.9874L18.578 37.2084C18.3629 37.3022 18.1909 37.4742 18.097 37.6893L17.8761 38.1969L17.6551 37.6893C17.5613 37.4742 17.3893 37.3022 17.1742 37.2084L16.6666 36.9874L17.1742 36.7665C17.3893 36.6726 17.5613 36.5006 17.6551 36.2855L17.8761 35.778Z" fill="#F7B981"/>
<path d="M12.6014 22.9998L12.8224 23.5073C12.9162 23.7224 13.0882 23.8944 13.3033 23.9883L13.8109 24.2092L13.3033 24.4302C13.0882 24.524 12.9162 24.696 12.8224 24.9111L12.6014 25.4187L12.3805 24.9111C12.2866 24.696 12.1147 24.524 11.8995 24.4302L11.392 24.2092L11.8995 23.9883C12.1147 23.8944 12.2866 23.7224 12.3805 23.5073L12.6014 22.9998Z" fill="#F7B981"/>
<path d="M39.5084 30.3885L39.7194 30.872C39.8091 31.0772 39.9728 31.2416 40.178 31.3305L40.6614 31.5415L40.178 31.7525C39.9728 31.8422 39.8083 32.0059 39.7194 32.211L39.5084 32.6945L39.2974 32.211C39.2077 32.0059 39.0441 31.8414 38.8389 31.7525L38.3555 31.5415L38.8389 31.3305C39.0441 31.2408 39.2086 31.0772 39.2974 30.872L39.5084 30.3885Z" fill="#F7B981"/>
<path d="M41.336 24.4452L41.4406 24.6861C41.4855 24.7883 41.5669 24.8697 41.6691 24.9145L41.9099 25.0192L41.6691 25.1239C41.5669 25.1687 41.4855 25.2501 41.4406 25.3523L41.336 25.5932L41.2313 25.3523C41.1864 25.2501 41.105 25.1687 41.0029 25.1239L40.762 25.0192L41.0029 24.9145C41.105 24.8697 41.1864 24.7883 41.2313 24.6861L41.336 24.4452Z" fill="#F7B981"/>
<path d="M37.4551 34.2296L37.5598 34.4705C37.6046 34.5727 37.686 34.6541 37.7882 34.6989L38.0291 34.8036L37.7882 34.9083C37.686 34.9531 37.6046 35.0345 37.5598 35.1367L37.4551 35.3776L37.3504 35.1367C37.3056 35.0345 37.2242 34.9531 37.122 34.9083L36.8811 34.8036L37.122 34.6989C37.2242 34.6541 37.3056 34.5727 37.3504 34.4705L37.4551 34.2296Z" fill="#F7B981"/>
<path d="M14.1813 32.3763L14.3076 32.6663C14.3616 32.7892 14.4596 32.888 14.5826 32.9412L14.8725 33.0675L14.5826 33.1937C14.4596 33.2477 14.3608 33.3457 14.3076 33.4687L14.1813 33.7586L14.0551 33.4687C14.0011 33.3457 13.9031 33.2469 13.7801 33.1937L13.4902 33.0675L13.7801 32.9412C13.9031 32.8872 14.0019 32.7892 14.0551 32.6663L14.1813 32.3763Z" fill="#F7B981"/>
<path d="M12.1944 19.334C12.5348 19.334 12.8107 19.0581 12.8107 18.7177C12.8107 18.3773 12.5348 18.1013 12.1944 18.1013C11.8539 18.1013 11.578 18.3773 11.578 18.7177C11.578 19.0581 11.8539 19.334 12.1944 19.334Z" fill="#F7B981"/>
<path d="M40.0201 17.3262C40.3945 17.3262 40.6979 17.0228 40.6979 16.6484C40.6979 16.2741 40.3945 15.9706 40.0201 15.9706C39.6458 15.9706 39.3423 16.2741 39.3423 16.6484C39.3423 17.0228 39.6458 17.3262 40.0201 17.3262Z" fill="#F7B981"/>
<path d="M15.4772 22.0578C15.4772 22.1816 15.3767 22.2813 15.2537 22.2813C15.1308 22.2813 15.0303 22.1807 15.0303 22.0578C15.0303 21.9349 15.1308 21.8344 15.2537 21.8344C15.3767 21.8344 15.4772 21.9349 15.4772 22.0578Z" fill="#F7B981"/>
<path d="M34.9074 13.909C34.9074 14.0593 34.7861 14.1806 34.6358 14.1806C34.4854 14.1806 34.3641 14.0593 34.3641 13.909C34.3641 13.7586 34.4854 13.6373 34.6358 13.6373C34.7861 13.6373 34.9074 13.7586 34.9074 13.909Z" fill="#F7B981"/>
<path d="M38.6827 20.1564C38.8635 20.1564 39.01 20.0099 39.01 19.8291C39.01 19.6484 38.8635 19.5018 38.6827 19.5018C38.502 19.5018 38.3555 19.6484 38.3555 19.8291C38.3555 20.0099 38.502 20.1564 38.6827 20.1564Z" fill="#F7B981"/>
<path d="M38.7617 24.6869C38.927 23.0023 38.5806 21.5279 37.7599 20.4231C36.8836 19.2435 35.4598 18.4901 33.8525 18.3564C33.2319 18.304 32.7244 18.3472 32.2684 18.4486C32.2351 18.2799 32.1936 18.1113 32.1413 17.9435C31.8829 17.1112 31.382 16.3553 30.7308 15.8145C29.7564 15.0046 28.3875 14.6432 27.1581 14.8725C26.3116 15.0303 25.515 15.4365 24.8729 16.0222C24.7981 15.9499 24.7209 15.8801 24.6411 15.8145C23.6668 15.0046 22.2978 14.6432 21.0684 14.8725C20.222 15.0303 19.4254 15.4365 18.7833 16.0222C18.7085 15.9499 18.6312 15.8801 18.5515 15.8145C17.5771 15.0046 16.2073 14.6432 14.9788 14.8725C14.1672 15.0237 13.6314 15.8045 13.7826 16.6161C13.9338 17.4277 14.7146 17.9634 15.5262 17.8123C15.8809 17.7458 16.3494 17.8729 16.6393 18.1138C16.8511 18.2899 17.0164 18.5441 17.1053 18.8307C17.2216 19.2061 17.2299 19.7228 17.2216 20.2254C17.2216 20.2337 17.2216 20.242 17.2216 20.2503V31.3721C17.2216 32.1978 17.8911 32.8673 18.7168 32.8673C19.5425 32.8673 20.212 32.1978 20.212 31.3721V20.2627C20.2137 20.1747 20.2145 20.0858 20.2145 19.9969C20.2145 19.9961 20.2145 19.9944 20.2145 19.9936C20.2145 19.31 20.325 18.8232 20.5534 18.5042C20.8084 18.147 21.2055 17.8887 21.6167 17.8123C21.9714 17.7458 22.439 17.8729 22.7298 18.1138C22.9416 18.2899 23.1069 18.5441 23.1958 18.8307C23.3121 19.2061 23.3204 19.7228 23.3121 20.2254C23.3121 20.2337 23.3121 20.242 23.3121 20.2503V31.3721C23.3121 32.1978 23.9816 32.8673 24.8073 32.8673C25.633 32.8673 26.3025 32.1978 26.3025 31.3721V20.2619C26.3042 20.1739 26.305 20.0858 26.305 19.9969C26.305 19.9953 26.305 19.9944 26.305 19.9928C26.305 19.3091 26.4155 18.8224 26.6439 18.5034C26.8989 18.1462 27.296 17.8878 27.7071 17.8114C28.0618 17.745 28.5295 17.8721 28.8202 18.113C29.0321 18.2891 29.1974 18.5432 29.2863 18.8298C29.4025 19.2053 29.4109 19.722 29.4026 20.2245C29.4026 20.2328 29.4026 20.2411 29.4026 20.2494V31.3746C29.4026 31.8323 29.4391 32.2784 29.508 32.7112C28.4622 33.487 27.2461 34.2803 25.5433 35.3336C24.8413 35.768 24.6237 36.6892 25.0581 37.392C25.3406 37.8489 25.8307 38.1006 26.3316 38.1006C26.5999 38.1006 26.8715 38.0283 27.1165 37.8771C28.5353 36.9991 29.6451 36.2839 30.6054 35.6077C30.7366 35.8096 30.877 36.0064 31.0298 36.1942C32.1238 37.5482 33.7353 38.496 35.4498 38.795C35.5371 38.81 35.6234 38.8174 35.7082 38.8174C36.4209 38.8174 37.053 38.3057 37.1793 37.5789C37.3213 36.7657 36.7764 35.9907 35.9632 35.8486C34.9514 35.6725 34.0003 35.1126 33.3549 34.3135C33.2145 34.1399 33.0899 33.9555 32.9802 33.762C33.7395 33.1074 34.4929 32.3922 35.3684 31.5167C37.2881 29.597 38.5258 27.1075 38.7634 24.6869H38.7617ZM32.3921 30.2474V21.5428C32.8448 21.3551 33.119 21.2953 33.6032 21.336C34.3442 21.3983 35.0004 21.7231 35.3593 22.2065C35.7248 22.6983 35.876 23.4749 35.7854 24.3945C35.6168 26.1123 34.6698 27.9847 33.2519 29.4026C32.9512 29.7033 32.6663 29.9832 32.3921 30.2474Z" fill="white"/>
</svg>
