<svg width="80" height="80" viewBox="0 0 80 80" fill="none" xmlns="http://www.w3.org/2000/svg">
<g clip-path="url(#clip0_2629_13802)">
<path d="M25.254 7.61315C25.7001 7.15918 26.3084 6.90096 26.9449 6.89541L52.4762 6.67231C53.1125 6.66686 53.7253 6.91435 54.1792 7.36039L72.3899 25.2564C72.8438 25.7025 73.1021 26.3109 73.1077 26.9473L73.3308 52.4786C73.3363 53.1149 73.0887 53.7278 72.6427 54.1817L54.7467 72.3924C54.3006 72.8463 53.6922 73.1045 53.0558 73.1101L27.5245 73.3332C26.8881 73.3388 26.2754 73.0911 25.8214 72.6451L7.61071 54.7491C7.15672 54.303 6.89854 53.6947 6.89297 53.0582L6.66986 27.5269C6.66431 26.8904 6.91181 26.2779 7.35795 25.8239L25.254 7.61315Z" fill="#C31F18" stroke="#FFE58B" stroke-width="1.2"/>
<path d="M72.9987 26.4993C46.9582 37.5226 33.3242 43.6938 7.2837 54.7171" stroke="#FFE58B" stroke-width="1.2"/>
<path d="M54.1602 7.01172L26.499 73.0015" stroke="#FFE58B" stroke-width="1.2"/>
<path d="M26.4473 7.2207L53.4986 72.9973" stroke="#FFE58B" stroke-width="1.2"/>
<path d="M6.9983 26.9887C33.2335 37.5955 46.7631 42.8927 72.9984 53.4995" stroke="#FFE58B" stroke-width="1.2"/>
<ellipse cx="39.9847" cy="40.027" rx="18.8753" ry="18.9164" transform="rotate(-90 39.9847 40.027)" fill="#FFE58B"/>
<path d="M57.0016 39.9521C57.0016 30.5746 49.3831 22.9726 39.9852 22.9726C34.2863 22.9726 29.2417 25.768 26.1534 30.0597C32.3715 24.5229 37.8396 24.1538 40.1332 24.1538C42.4267 24.1538 48.0495 25.7779 48.0495 32.0529C48.0495 38.328 41.9517 39.7494 39.9852 40.0998C37.9136 40.4689 31.9209 41.5762 31.9209 48.1466C31.9209 53.4029 37.2971 56.1934 39.9852 56.9316C49.3831 56.9316 57.0016 49.3296 57.0016 39.9521Z" fill="white"/>
<path d="M22.9688 39.9521C22.9688 49.3296 30.5873 56.9316 39.9852 56.9316C37.2971 56.1934 31.9209 53.4029 31.9209 48.1466C31.9209 41.5762 37.9136 40.4689 39.9852 40.0998C41.9517 39.7494 48.0495 38.328 48.0495 32.0529C48.0495 25.7779 42.4267 24.1538 40.1332 24.1538C37.8396 24.1538 32.3715 24.5229 26.1534 30.0597C24.149 32.8453 22.9688 36.2611 22.9688 39.9521Z" fill="#111111"/>
<path d="M23.1172 39.9521C23.1172 36.2989 24.2833 32.9181 26.2646 30.1592C32.4425 24.6643 37.8653 24.3018 40.1328 24.3018C41.2533 24.3018 43.202 24.7006 44.8662 25.8711C46.5228 27.0363 47.9013 28.9677 47.9014 32.0527C47.9014 35.1316 46.4101 37.0133 44.6729 38.1748C42.9286 39.3409 40.9366 39.7799 39.959 39.9541C38.9233 40.1386 36.8804 40.5117 35.0957 41.6738C33.3015 42.8423 31.7725 44.8059 31.7725 48.1465C31.7725 50.8307 33.1473 52.8805 34.8486 54.3457C36.1748 55.4878 37.7064 56.2808 38.9619 56.752C30.122 56.2241 23.1172 48.9048 23.1172 39.9521ZM40.1328 24.0059C37.954 24.0059 32.9591 24.3379 27.1758 28.999C30.2696 25.4 34.8609 23.1201 39.9854 23.1201C49.3018 23.1202 56.8535 30.6567 56.8535 39.9521C56.8535 49.2414 49.3118 56.7731 40.0039 56.7832C38.677 56.4155 36.694 55.5438 35.042 54.1211C33.3832 52.6924 32.0693 50.7185 32.0693 48.1465C32.0694 44.917 33.5369 43.042 35.2568 41.9219C36.9861 40.7958 38.9747 40.4297 40.0107 40.2451C40.9996 40.0689 43.0406 39.6218 44.8369 38.4209C46.6401 37.2154 48.1973 35.2487 48.1973 32.0527C48.1972 28.8629 46.7643 26.8445 45.0361 25.6289C43.3156 24.4189 41.3057 24.0059 40.1328 24.0059Z" stroke="white" stroke-width="0.29594"/>
<ellipse cx="39.9857" cy="31.9775" rx="2.36237" ry="2.36751" transform="rotate(-90 39.9857 31.9775)" fill="white"/>
<ellipse cx="39.9857" cy="48.0693" rx="2.36237" ry="2.36751" transform="rotate(-90 39.9857 48.0693)" fill="#111111"/>
<path d="M23.5605 40.0283C23.5605 30.9789 30.9131 23.6406 39.9854 23.6406C49.0575 23.6407 56.4102 30.9789 56.4102 40.0283C56.4101 49.0777 49.0575 56.4159 39.9854 56.416C30.9131 56.416 23.5606 49.0777 23.5605 40.0283Z" stroke="#111111" stroke-width="1.18376"/>
<path d="M33.8496 64.3145H46.0113" stroke="#111111" stroke-width="1.21617"/>
<path d="M33.8496 66.7441H46.0113" stroke="#111111" stroke-width="1.21617"/>
<path d="M33.8496 69.1797H46.0113" stroke="#111111" stroke-width="1.21617"/>
<path d="M33.8496 12.0039H38.917" stroke="#111111" stroke-width="1.21617"/>
<path d="M40.9453 12.0039L46.0127 12.0039" stroke="#111111" stroke-width="1.21617"/>
<path d="M33.8496 14.4395H38.917" stroke="#111111" stroke-width="1.21617"/>
<path d="M40.9453 14.4395H46.0127" stroke="#111111" stroke-width="1.21617"/>
<path d="M33.8496 16.8672H38.917" stroke="#111111" stroke-width="1.21617"/>
<path d="M40.9453 16.8672H46.0127" stroke="#111111" stroke-width="1.21617"/>
<path d="M15.2617 23.8652L23.8613 15.2656" stroke="#111111" stroke-width="1.21617"/>
<path d="M16.9834 25.5859L20.5666 22.0028" stroke="#111111" stroke-width="1.21617"/>
<path d="M21.999 20.5684L25.5822 16.9852" stroke="#111111" stroke-width="1.21617"/>
<path d="M18.7012 27.3047L22.2843 23.7215" stroke="#111111" stroke-width="1.21617"/>
<path d="M23.7188 22.2852L27.3019 18.702" stroke="#111111" stroke-width="1.21617"/>
<path d="M11.2568 46.0156V40.9482" stroke="#111111" stroke-width="1.21617"/>
<path d="M11.2568 38.918L11.2568 33.8506" stroke="#111111" stroke-width="1.21617"/>
<path d="M13.6904 46.0156L13.6904 33.8539" stroke="#111111" stroke-width="1.21617"/>
<path d="M16.123 46.0156V40.9482" stroke="#111111" stroke-width="1.21617"/>
<path d="M16.123 38.918V33.8506" stroke="#111111" stroke-width="1.21617"/>
<path d="M15.2646 56.3145L23.8643 64.9141" stroke="#111111" stroke-width="1.21617"/>
<path d="M16.9834 54.5918L25.583 63.1914" stroke="#111111" stroke-width="1.21617"/>
<path d="M18.7041 52.877L22.2873 56.4601" stroke="#111111" stroke-width="1.21617"/>
<path d="M23.7188 57.8926L27.3019 61.4758" stroke="#111111" stroke-width="1.21617"/>
<path d="M52.583 18.418L61.1826 27.0176" stroke="#111111" stroke-width="1.21617"/>
<path d="M54.3037 16.6973L57.8869 20.2804" stroke="#111111" stroke-width="1.21617"/>
<path d="M59.3213 21.7148L62.9045 25.298" stroke="#111111" stroke-width="1.21617"/>
<path d="M56.0244 14.9805L59.6076 18.5636" stroke="#111111" stroke-width="1.21617"/>
<path d="M61.041 19.9961L64.6242 23.5793" stroke="#111111" stroke-width="1.21617"/>
<path d="M64.0215 33.8555V46.0172" stroke="#111111" stroke-width="1.21617"/>
<path d="M66.4551 33.8555V38.9228" stroke="#111111" stroke-width="1.21617"/>
<path d="M66.4551 40.9512V46.0185" stroke="#111111" stroke-width="1.21617"/>
<path d="M68.8857 33.8555V46.0172" stroke="#111111" stroke-width="1.21617"/>
<path d="M61.4004 51.8711L53.583 61.1875" stroke="#111111" stroke-width="1.21617"/>
<path d="M63.2666 53.4395L55.4492 62.7559" stroke="#111111" stroke-width="1.21617"/>
<path d="M65.127 55.002L61.8697 58.8838" stroke="#111111" stroke-width="1.21617"/>
<path d="M60.5684 60.4336L57.3111 64.3154" stroke="#111111" stroke-width="1.21617"/>
</g>
<defs>
<clipPath id="clip0_2629_13802">
<rect width="80" height="80" rx="19" fill="white"/>
</clipPath>
</defs>
</svg>
