<svg width="80" height="80" viewBox="0 0 80 80" fill="none" xmlns="http://www.w3.org/2000/svg">
<path d="M40 80C62.0914 80 80 62.0914 80 40C80 17.9086 62.0914 0 40 0C17.9086 0 0 17.9086 0 40C0 62.0914 17.9086 80 40 80Z" fill="#F3D351"/>
<path d="M40.0001 77.3162C60.6094 77.3162 77.3164 60.6091 77.3164 39.9999C77.3164 19.3907 60.6094 2.68359 40.0001 2.68359C19.3909 2.68359 2.68384 19.3907 2.68384 39.9999C2.68384 60.6091 19.3909 77.3162 40.0001 77.3162Z" fill="url(#paint0_linear_1709_6168)"/>
<path d="M39.9505 10.1858C39.8803 10.1858 39.8228 10.1283 39.8228 10.058V5.51744C39.8228 5.44716 39.8803 5.38965 39.9505 5.38965C40.0208 5.38965 40.0783 5.44716 40.0783 5.51744V10.058C40.0783 10.1283 40.0208 10.1858 39.9505 10.1858Z" fill="white"/>
<path d="M28.4964 12.4831C28.4466 12.4831 28.3993 12.4537 28.3788 12.4039L26.6408 8.20838C26.614 8.1432 26.6446 8.06779 26.7098 8.04096C26.775 8.01412 26.8504 8.0448 26.8772 8.10997L28.6152 12.3055C28.6421 12.3707 28.6114 12.4461 28.5462 12.4729C28.5296 12.4793 28.5143 12.4831 28.4977 12.4831H28.4964Z" fill="white"/>
<path d="M18.7927 18.9893C18.7595 18.9893 18.7275 18.9765 18.7019 18.9522L15.4917 15.742C15.4419 15.6922 15.4419 15.6116 15.4917 15.5618C15.5416 15.512 15.6221 15.512 15.6719 15.5618L18.8821 18.772C18.932 18.8219 18.932 18.9024 18.8821 18.9522C18.8566 18.9778 18.8246 18.9893 18.7914 18.9893H18.7927Z" fill="white"/>
<path d="M12.3177 28.7121C12.3011 28.7121 12.2845 28.7096 12.2691 28.7019L8.07358 26.9639C8.00841 26.9371 7.97775 26.8617 8.00458 26.7965C8.03142 26.7313 8.10553 26.7006 8.17199 26.7275L12.3675 28.4655C12.4327 28.4923 12.4634 28.5677 12.4365 28.6329C12.4161 28.6815 12.3688 28.7121 12.319 28.7121H12.3177Z" fill="white"/>
<path d="M10.0553 40.1755H5.51476C5.44447 40.1755 5.38696 40.118 5.38696 40.0477C5.38696 39.9774 5.44447 39.9199 5.51476 39.9199H10.0553C10.1256 39.9199 10.1831 39.9774 10.1831 40.0477C10.1831 40.118 10.1256 40.1755 10.0553 40.1755Z" fill="white"/>
<path d="M8.15976 53.3684C8.10991 53.3684 8.06263 53.339 8.04218 53.2892C8.01534 53.224 8.04602 53.1486 8.11119 53.1217L12.3067 51.3837C12.3719 51.3569 12.4473 51.3876 12.4741 51.4527C12.501 51.5179 12.4703 51.5933 12.4051 51.6201L8.2096 53.3582C8.19298 53.3646 8.17765 53.3684 8.16103 53.3684H8.15976Z" fill="white"/>
<path d="M26.8458 72.0056C26.8292 72.0056 26.8126 72.003 26.7972 71.9954C26.7321 71.9685 26.7014 71.8931 26.7282 71.828L28.4662 67.6324C28.4931 67.5673 28.5672 67.5366 28.6336 67.5634C28.6988 67.5903 28.7295 67.6657 28.7027 67.7308L26.9646 71.9264C26.9442 71.9749 26.8969 72.0056 26.8471 72.0056H26.8458Z" fill="white"/>
<path d="M15.6491 64.5459C15.6159 64.5459 15.5839 64.5331 15.5584 64.5088C15.5085 64.459 15.5085 64.3785 15.5584 64.3287L18.7686 61.1184C18.8184 61.0686 18.899 61.0686 18.9488 61.1184C18.9986 61.1683 18.9986 61.2488 18.9488 61.2986L15.7386 64.5088C15.713 64.5344 15.6811 64.5459 15.6478 64.5459H15.6491Z" fill="white"/>
<path d="M40.0458 74.6116C39.9755 74.6116 39.918 74.5541 39.918 74.4838V69.9432C39.918 69.8729 39.9755 69.8154 40.0458 69.8154C40.1161 69.8154 40.1736 69.8729 40.1736 69.9432V74.4838C40.1736 74.5541 40.1161 74.6116 40.0458 74.6116Z" fill="white"/>
<path d="M53.2398 71.9685C53.19 71.9685 53.1427 71.9391 53.1222 71.8892L51.3842 67.6937C51.3574 67.6286 51.3881 67.5531 51.4532 67.5263C51.5184 67.4995 51.5925 67.5301 51.6206 67.5953L53.3587 71.7908C53.3855 71.856 53.3548 71.9314 53.2897 71.9583C53.273 71.9647 53.2577 71.9685 53.2411 71.9685H53.2398Z" fill="white"/>
<path d="M64.4174 64.4775C64.3842 64.4775 64.3523 64.4648 64.3267 64.4405L61.1165 61.2303C61.0666 61.1804 61.0666 61.0999 61.1165 61.0501C61.1663 61.0002 61.2468 61.0002 61.2967 61.0501L64.5069 64.2603C64.5567 64.3101 64.5567 64.3907 64.5069 64.4405C64.4813 64.4661 64.4494 64.4775 64.4162 64.4775H64.4174Z" fill="white"/>
<path d="M71.8765 53.2815C71.8599 53.2815 71.8433 53.2789 71.828 53.2713L67.6324 51.5333C67.5673 51.5064 67.5366 51.431 67.5634 51.3658C67.5903 51.3007 67.6644 51.27 67.7308 51.2968L71.9264 53.0348C71.9915 53.0617 72.0222 53.1371 71.9954 53.2023C71.9749 53.2508 71.9276 53.2815 71.8778 53.2815H71.8765Z" fill="white"/>
<path d="M67.6439 28.6252C67.594 28.6252 67.5468 28.5958 67.5263 28.546C67.4995 28.4808 67.5301 28.4054 67.5953 28.3786L71.7908 26.6406C71.856 26.6137 71.9301 26.6444 71.9583 26.7096C71.9851 26.7748 71.9544 26.8501 71.8892 26.877L67.6937 28.615C67.6771 28.6214 67.6618 28.6252 67.6452 28.6252H67.6439Z" fill="white"/>
<path d="M74.4819 40.0808H69.9413C69.871 40.0808 69.8135 40.0233 69.8135 39.953C69.8135 39.8827 69.871 39.8252 69.9413 39.8252H74.4819C74.5521 39.8252 74.6096 39.8827 74.6096 39.953C74.6096 40.0233 74.5521 40.0808 74.4819 40.0808Z" fill="white"/>
<path d="M61.1374 18.9209C61.1042 18.9209 61.0722 18.9081 61.0467 18.8838C60.9968 18.834 60.9968 18.7535 61.0467 18.7037L64.2569 15.4934C64.3067 15.4436 64.3872 15.4436 64.4371 15.4934C64.4869 15.5433 64.4869 15.6238 64.4371 15.6736L61.2269 18.8838C61.2013 18.9094 61.1694 18.9209 61.1361 18.9209H61.1374Z" fill="white"/>
<path d="M51.4139 12.446C51.3973 12.446 51.3807 12.4435 51.3653 12.4358C51.3002 12.409 51.2695 12.3336 51.2963 12.2684L53.0343 8.07286C53.0612 8.00769 53.1353 7.97701 53.2018 8.00385C53.2669 8.03068 53.2976 8.10609 53.2708 8.17127L51.5327 12.3668C51.5123 12.4154 51.465 12.446 51.4152 12.446H51.4139Z" fill="white"/>
<path d="M40.0001 74.76C20.8334 74.76 5.23975 59.1664 5.23975 39.9996C5.23975 20.8329 20.8334 5.23926 40.0001 5.23926C59.1669 5.23926 74.7605 20.8329 74.7605 39.9996C74.7605 59.1664 59.1669 74.76 40.0001 74.76ZM40.0001 5.49485C20.9739 5.49485 5.49534 20.9734 5.49534 39.9996C5.49534 59.0258 20.9739 74.5044 40.0001 74.5044C59.0263 74.5044 74.5049 59.0258 74.5049 39.9996C74.5049 20.9734 59.0263 5.49485 40.0001 5.49485Z" fill="white"/>
<path d="M40.0002 69.9891C23.4647 69.9891 10.0129 56.5373 10.0129 40.0019C10.0129 23.4664 23.4647 10.0146 40.0002 10.0146C56.5356 10.0146 69.9874 23.4664 69.9874 40.0019C69.9874 56.5373 56.5356 69.9891 40.0002 69.9891ZM40.0002 10.269C23.6053 10.269 10.2685 23.607 10.2685 40.0006C10.2685 56.3942 23.6066 69.7322 40.0002 69.7322C56.3938 69.7322 69.7318 56.3942 69.7318 40.0006C69.7318 23.607 56.3938 10.269 40.0002 10.269Z" fill="white"/>
<path d="M27.0709 53.7969L27.4108 54.5777C27.5552 54.9087 27.8198 55.1732 28.1508 55.3176L28.9316 55.6576L28.1508 55.9975C27.8198 56.1419 27.5552 56.4065 27.4108 56.7375L27.0709 57.5183L26.731 56.7375C26.5866 56.4065 26.322 56.1419 25.991 55.9975L25.2102 55.6576L25.991 55.3176C26.322 55.1732 26.5866 54.9087 26.731 54.5777L27.0709 53.7969Z" fill="white"/>
<path d="M18.9559 34.1377L19.2959 34.9185C19.4403 35.2495 19.7048 35.5141 20.0358 35.6585L20.8166 35.9984L20.0358 36.3383C19.7048 36.4828 19.4403 36.7473 19.2959 37.0783L18.9559 37.8591L18.616 37.0783C18.4716 36.7473 18.207 36.4828 17.876 36.3383L17.0952 35.9984L17.876 35.6585C18.207 35.5141 18.4716 35.2495 18.616 34.9185L18.9559 34.1377Z" fill="white"/>
<path d="M60.3514 45.5049L60.676 46.2486C60.814 46.5643 61.0658 46.8173 61.3815 46.9541L62.1252 47.2787L61.3815 47.6033C61.0658 47.7413 60.8128 47.9931 60.676 48.3087L60.3514 49.0525L60.0268 48.3087C59.8888 47.9931 59.6371 47.74 59.3214 47.6033L58.5776 47.2787L59.3214 46.9541C59.6371 46.8161 59.8901 46.5643 60.0268 46.2486L60.3514 45.5049Z" fill="white"/>
<path d="M63.1633 36.3623L63.3244 36.7329C63.3934 36.8901 63.5186 37.0153 63.6758 37.0844L64.0464 37.2454L63.6758 37.4064C63.5186 37.4754 63.3934 37.6006 63.3244 37.7578L63.1633 38.1284L63.0023 37.7578C62.9333 37.6006 62.8081 37.4754 62.6509 37.4064L62.2803 37.2454L62.6509 37.0844C62.8081 37.0153 62.9333 36.8901 63.0023 36.7329L63.1633 36.3623Z" fill="white"/>
<path d="M57.1926 51.415L57.3536 51.7856C57.4227 51.9428 57.5479 52.0681 57.7051 52.1371L58.0757 52.2981L57.7051 52.4591C57.5479 52.5281 57.4227 52.6534 57.3536 52.8106L57.1926 53.1812L57.0316 52.8106C56.9626 52.6534 56.8374 52.5281 56.6802 52.4591L56.3096 52.2981L56.6802 52.1371C56.8374 52.0681 56.9626 51.9428 57.0316 51.7856L57.1926 51.415Z" fill="white"/>
<path d="M21.3865 48.5635L21.5807 49.0095C21.6638 49.1986 21.8146 49.3507 22.0037 49.4325L22.4497 49.6267L22.0037 49.821C21.8146 49.9041 21.6625 50.0549 21.5807 50.244L21.3865 50.69L21.1922 50.244C21.1092 50.0549 20.9584 49.9028 20.7692 49.821L20.3232 49.6267L20.7692 49.4325C20.9584 49.3494 21.1105 49.1986 21.1922 49.0095L21.3865 48.5635Z" fill="white"/>
<path d="M18.3296 28.499C18.8533 28.499 19.2778 28.0745 19.2778 27.5508C19.2778 27.0271 18.8533 26.6025 18.3296 26.6025C17.8059 26.6025 17.3813 27.0271 17.3813 27.5508C17.3813 28.0745 17.8059 28.499 18.3296 28.499Z" fill="white"/>
<path d="M61.1385 25.4089C61.7144 25.4089 62.1813 24.942 62.1813 24.3661C62.1813 23.7901 61.7144 23.3232 61.1385 23.3232C60.5626 23.3232 60.0957 23.7901 60.0957 24.3661C60.0957 24.942 60.5626 25.4089 61.1385 25.4089Z" fill="white"/>
<path d="M23.3799 32.6895C23.3799 32.8799 23.2253 33.0332 23.0362 33.0332C22.847 33.0332 22.6924 32.8786 22.6924 32.6895C22.6924 32.5003 22.847 32.3457 23.0362 32.3457C23.2253 32.3457 23.3799 32.5003 23.3799 32.6895Z" fill="white"/>
<path d="M53.2728 20.1523C53.2728 20.3836 53.0862 20.5702 52.8549 20.5702C52.6236 20.5702 52.437 20.3836 52.437 20.1523C52.437 19.921 52.6236 19.7344 52.8549 19.7344C53.0862 19.7344 53.2728 19.921 53.2728 20.1523Z" fill="white"/>
<path d="M59.0811 29.7639C59.3592 29.7639 59.5847 29.5384 59.5847 29.2604C59.5847 28.9823 59.3592 28.7568 59.0811 28.7568C58.8031 28.7568 58.5776 28.9823 58.5776 29.2604C58.5776 29.5384 58.8031 29.7639 59.0811 29.7639Z" fill="white"/>
<path d="M59.2021 36.7337C59.4564 34.142 58.9235 31.8736 57.6609 30.1739C56.3126 28.3592 54.1222 27.2001 51.6494 26.9944C50.6947 26.9139 49.9139 26.9803 49.2123 27.1362C49.1612 26.8768 49.0973 26.6174 49.0168 26.3592C48.6193 25.0787 47.8487 23.9158 46.8468 23.0838C45.3478 21.8378 43.2417 21.2819 41.3503 21.6346C40.0481 21.8774 38.8225 22.5023 37.8347 23.4033C37.7196 23.2921 37.6008 23.1848 37.4781 23.0838C35.9791 21.8378 33.873 21.2819 31.9816 21.6346C30.6794 21.8774 29.4538 22.5023 28.466 23.4033C28.351 23.2921 28.2321 23.1848 28.1094 23.0838C26.6104 21.8378 24.503 21.2819 22.6129 21.6346C21.3644 21.8672 20.5401 23.0685 20.7727 24.317C21.0053 25.5656 22.2065 26.3899 23.4551 26.1573C24.0008 26.0551 24.7216 26.2506 25.1676 26.6212C25.4934 26.8921 25.7478 27.2832 25.8845 27.7241C26.0634 28.3017 26.0762 29.0966 26.0634 29.8698C26.0634 29.8826 26.0634 29.8953 26.0634 29.9081V47.0186C26.0634 48.2889 27.0934 49.319 28.3637 49.319C29.634 49.319 30.6641 48.2889 30.6641 47.0186V29.9273C30.6666 29.7918 30.6679 29.6551 30.6679 29.5183C30.6679 29.5171 30.6679 29.5145 30.6679 29.5132C30.6679 28.4615 30.8379 27.7126 31.1893 27.2218C31.5816 26.6723 32.1925 26.2749 32.8251 26.1573C33.3708 26.0551 34.0903 26.2506 34.5375 26.6212C34.8634 26.8921 35.1177 27.2832 35.2545 27.7241C35.4334 28.3017 35.4462 29.0966 35.4334 29.8698C35.4334 29.8826 35.4334 29.8953 35.4334 29.9081V47.0186C35.4334 48.2889 36.4634 49.319 37.7337 49.319C39.004 49.319 40.034 48.2889 40.034 47.0186V29.926C40.0366 29.7905 40.0379 29.6551 40.0379 29.5183C40.0379 29.5158 40.0379 29.5145 40.0379 29.5119C40.0379 28.4602 40.2078 27.7113 40.5593 27.2206C40.9516 26.6711 41.5625 26.2736 42.195 26.156C42.7407 26.0538 43.4602 26.2493 43.9075 26.6199C44.2334 26.8909 44.4877 27.2819 44.6244 27.7228C44.8033 28.3004 44.8161 29.0953 44.8034 29.8685C44.8034 29.8813 44.8034 29.894 44.8034 29.9068V47.0225C44.8034 47.7266 44.8596 48.4129 44.9657 49.0787C43.3567 50.2723 41.4858 51.4928 38.866 53.1132C37.7861 53.7816 37.4513 55.1988 38.1196 56.28C38.5541 56.9829 39.3081 57.3701 40.0788 57.3701C40.4915 57.3701 40.9094 57.2589 41.2864 57.0263C43.4692 55.6755 45.1765 54.5752 46.6538 53.5349C46.8557 53.8455 47.0717 54.1484 47.3069 54.4372C48.9899 56.5202 51.4692 57.9784 54.1069 58.4385C54.2411 58.4615 54.374 58.473 54.5043 58.473C55.6008 58.473 56.5733 57.6857 56.7676 56.5675C56.9861 55.3164 56.1478 54.1241 54.8966 53.9056C53.3401 53.6346 51.8768 52.7733 50.8839 51.5439C50.6679 51.2768 50.4762 50.9931 50.3075 50.6953C51.4755 49.6883 52.6347 48.588 53.9816 47.241C56.935 44.2877 58.8391 40.4576 59.2046 36.7337H59.2021ZM49.4027 45.2883V31.8966C50.0992 31.6078 50.5209 31.5158 51.266 31.5784C52.4059 31.6742 53.4155 32.1739 53.9676 32.9177C54.5299 33.6742 54.7625 34.8691 54.6232 36.2838C54.3637 38.9266 52.9069 41.8071 50.7254 43.9886C50.2628 44.4512 49.8244 44.8819 49.4027 45.2883Z" fill="white"/>
<defs>
<linearGradient id="paint0_linear_1709_6168" x1="40.0001" y1="2.68359" x2="40.0001" y2="77.3162" gradientUnits="userSpaceOnUse">
<stop stop-color="#3867B8"/>
<stop offset="1" stop-color="#192E52"/>
</linearGradient>
</defs>
</svg>
